<?xml version="1.0" encoding="utf-8"?>
<!-- Generator: Adobe Illustrator 11 Build 196, SVG Export Plug-In . SVG Version: 6.0.0 Build 78)  -->
<!DOCTYPE svg PUBLIC "-//W3C//DTD SVG 1.0//EN"    "http://www.w3.org/TR/2001/REC-SVG-20010904/DTD/svg10.dtd" [
	<!ENTITY ns_flows "http://ns.adobe.com/Flows/1.0/">
	<!ENTITY ns_svg "http://www.w3.org/2000/svg">
	<!ENTITY ns_xlink "http://www.w3.org/1999/xlink">
]>
<svg  xmlns="&ns_svg;" xmlns:xlink="&ns_xlink;" xmlns:a="http://ns.adobe.com/AdobeSVGViewerExtensions/3.0/"
	 width="796.176" height="501.005" viewBox="0 0 796.176 501.005"
	 style="overflow:visible;enable-background:new 0 0 796.176 501.005" xml:space="preserve">
	<metadata>
<?xpacket begin='﻿' id='W5M0MpCehiHzreSzNTczkc9d'?><x:xmpmeta xmlns:x='adobe:ns:meta/' x:xmptk='XMP toolkit 3.0-29, framework 1.6'>
<rdf:RDF xmlns:rdf='http://www.w3.org/1999/02/22-rdf-syntax-ns#' xmlns:iX='http://ns.adobe.com/iX/1.0/'>

 <rdf:Description rdf:about=''
  xmlns:pdf='http://ns.adobe.com/pdf/1.3/'>
 </rdf:Description>

 <rdf:Description rdf:about=''
  xmlns:tiff='http://ns.adobe.com/tiff/1.0/'>
 </rdf:Description>

 <rdf:Description rdf:about=''
  xmlns:xap='http://ns.adobe.com/xap/1.0/'
  xmlns:xapGImg='http://ns.adobe.com/xap/1.0/g/img/'>
  <xap:CreateDate>2007-06-26T17:13:34Z</xap:CreateDate>
  <xap:ModifyDate>2007-06-26T21:04:42Z</xap:ModifyDate>
  <xap:CreatorTool>Illustrator</xap:CreatorTool>
  <xap:Thumbnails>
   <rdf:Alt>
    <rdf:li rdf:parseType='Resource'>
     <xapGImg:format>JPEG</xapGImg:format>
     <xapGImg:width>256</xapGImg:width>
     <xapGImg:height>164</xapGImg:height>
     <xapGImg:image>/9j/4AAQSkZJRgABAgEASABIAAD/7QAsUGhvdG9zaG9wIDMuMAA4QklNA+0AAAAAABAASAAAAAEA&#xA;AQBIAAAAAQAB/+4ADkFkb2JlAGTAAAAAAf/bAIQABgQEBAUEBgUFBgkGBQYJCwgGBggLDAoKCwoK&#xA;DBAMDAwMDAwQDA4PEA8ODBMTFBQTExwbGxscHx8fHx8fHx8fHwEHBwcNDA0YEBAYGhURFRofHx8f&#xA;Hx8fHx8fHx8fHx8fHx8fHx8fHx8fHx8fHx8fHx8fHx8fHx8fHx8fHx8fHx8f/8AAEQgApAEAAwER&#xA;AAIRAQMRAf/EAaIAAAAHAQEBAQEAAAAAAAAAAAQFAwIGAQAHCAkKCwEAAgIDAQEBAQEAAAAAAAAA&#xA;AQACAwQFBgcICQoLEAACAQMDAgQCBgcDBAIGAnMBAgMRBAAFIRIxQVEGE2EicYEUMpGhBxWxQiPB&#xA;UtHhMxZi8CRygvElQzRTkqKyY3PCNUQnk6OzNhdUZHTD0uIIJoMJChgZhJRFRqS0VtNVKBry4/PE&#xA;1OT0ZXWFlaW1xdXl9WZ2hpamtsbW5vY3R1dnd4eXp7fH1+f3OEhYaHiImKi4yNjo+Ck5SVlpeYmZ&#xA;qbnJ2en5KjpKWmp6ipqqusra6voRAAICAQIDBQUEBQYECAMDbQEAAhEDBCESMUEFURNhIgZxgZEy&#xA;obHwFMHR4SNCFVJicvEzJDRDghaSUyWiY7LCB3PSNeJEgxdUkwgJChgZJjZFGidkdFU38qOzwygp&#xA;0+PzhJSktMTU5PRldYWVpbXF1eX1RlZmdoaWprbG1ub2R1dnd4eXp7fH1+f3OEhYaHiImKi4yNjo&#xA;+DlJWWl5iZmpucnZ6fkqOkpaanqKmqq6ytrq+v/aAAwDAQACEQMRAD8A9KaVpWlnS7MmzgJMEdT6&#xA;afyD2xV5Z5//ADq8r6NPLp3l3TbXU76IlJbt41+qxsDQgcQGlp7ED3OarUdpiJqG/n0e57F9i8me&#xA;IyagnHA8h/Ef+J+0+Tyq7/NjzxdTc1uoYAT8MUFpbKor2H7ssfpJzXS12Y/xPaYvZLs6Arw78zKX&#xA;60XpH5y+cdPmH1pbPUYgfihubWEH3+KJY2+85KHaGWPW/e0an2N0GUemJxnviT9xsPb/AMvPzE8l&#xA;ecl+rJZQ2OsIvKTT5UjPIAVLQvxHMDvsCPCm+bfS62OXblJ877b9m8+gPEfXi/nD/fDp93mzGews&#xA;YLyweG2iif12HJEVTQwS9wMzXnV93bW9xqdss8SSqIZyFdQwB5xb74qqfonSv+WKD/kUn9MVd+id&#xA;K/5YoP8AkUn9MVd+idK/5YoP+RSf0xV36J0r/lig/wCRSf0xV36J0r/lig/5FJ/TFVmmwwwy30cM&#xA;axxicURAFG8EXYYqo2GmabJDI8lpC7tcXBZmjUkn133JIxVCatf+UtIvrC01KG3tjqTPHazPEgiM&#xA;icSI2elFZ+Xw160PelasmeMCBLa3M02gy54TljHF4dEjrXfXcOrDLr8x/Lumaz5t0rUrO1S50VDc&#xA;aYPTQCdPRQ+l0+36jfSD7ZhS1/DKcZcxy/U7/H7MzzYtPlx2Y5TU/wCieI7+6vtHmgtG/MvQ5PLf&#xA;lKFra2uPMOuXFvZTqYk+ACcQTTyKAPtUqo7k+AORx664QH8cjX283I1XsvIajUGuHBhjKQ8/TxRi&#xA;Pd18ve9IjbytJqsmkxx2smowx+tNbpGrNGhIAL0FFrXYHc9s2AyxMuG/U8mdLkGMZTEiBNA958u/&#xA;9C+/0zTY4Y3jtIUdbi3Kssagg+um4IGWNCtqUMM0tjHNGskZnNUcBhtBL2OKrbmy0G1hae5gtYIE&#xA;pzlkSNEFTQVZgANzglIRFnYM8eOUzwxBJ7g8486/mx5S8vXctjFpsU2oWV5DHd2rwqPUtZYjKZoH&#xA;A47ArTl+rfNdn7QEDQG4P2eT1fZPsll1UBMmoThIxPdIGuGQ+fL9jA0/Pdhd2/PSoHtY9RmmmIii&#xA;DvYPURQUpTmgevLvxX3zCHac7Hv+zuelPsLi4TUvUccQPLJ1l7jXLzPkyzyZ+cnljU3srPV7C1tL&#xA;mc3c17dyLHFbwQoXeBFLD42KhU/qTTMnB2kCQJedn7nSdq+xuTCJTxXKI4BEDeUiaEj5Dmf2PVNP&#xA;g0DUbC3v7S1gktLqNZreT0QvKNxyVqMoO4Ndxm0hISAI5F4zPhlimYTFSiaPvHNUtLa3t9TuVgiS&#xA;JTDASqKFBPOXfbJNSyCwsZ7y/ea2ilf11HJ0VjQQRdyMVV/0TpX/ACxQf8ik/pirv0TpX/LFB/yK&#xA;T+mKu/ROlf8ALFB/yKT+mKu/ROlf8sUH/IpP6YqhdV0rSxpd4RZwAiCSh9NP5D7Yq8u/Orz5caL5&#xA;T0zQNOlMV9qlsjXMimjJahQpAPb1GqPkDmr7T1BiOAdefue49i+xo6jKc+QXDHy85f8AHefvIeUe&#xA;V/y01bVxp95dSJZ6Xeyxq8nONrhYZJhbrOICysYzMwTl9PTNTj05lXQH9dXXve77Q7fxYOOEQZZI&#xA;A9Dw2I8XDxVXFw70zC10Tyj5d1Cxs59NMr6nqcEek6mbiG69IwTwRzrNJCY1R4mDMyKjBuYHL4cv&#xA;GOESARzOxu+6+X43dDk1eq1WOc4zrw8UjOHDKN8UZGPCDdiQoAkiuG63YD5pj8oCy02fRLqWfUJ1&#xA;Z9VSQPxRykbbco4wp9VpBRWccQDyrtmNMQAHCd+v4+b0/Z0tXxzjmiBAfRy5WfM9OHnw73s3r3lj&#xA;zb5F1m0a9RrK9XjcWd1CwZCy0J4ONuSHZh/A4cmKeKQvYro+0NL2jikIHjhykD+kefT9b6b8k+bo&#xA;/Nnl3RNXACXDTNFeRL0SeOCQOB7Nsw9iM6LS5/FgJder4z232YdFqZYv4ecT3xPL9XvCb69q1ro6&#xA;yard1+rWNldXEwUVYrGYmIUGm5ptmZjgZyERzLp5zEQSejw+X/nJ7XneWS20G3Fsp+HnJI5VT05M&#xA;oUV+jN6OxodZbuo/lSXSKmP+cn/MhUsNDtSq/aPOWgr44f5Gh/OKP5Vl/Na/6Gh8w/8AVltP+Dlw&#xA;/wAiw/nFf5Vl/NXP/wA5PeZY24vodqjdaM8oP44B2ND+cVPakh/CitO/5yc1JdRgj1fRIorJ2Ana&#xA;F3EqoTTmocENTrTv45GfYwr0y3ZR7UN+qOz3WwdXmvXQhkaZSrDoQYIiDmgdwgm1LSrSxeK/v4rA&#xA;3Mt0kTySpC5PrOCYy5G68hleScQKkeG/OnI0+DJM3CBnw86BPzp86fmj518zTx3HlLXZLXU0tLhL&#xA;ix1eEKrugDBWPpn0zyR6MABQ/LOe1OonL0SIlR5vrns72Vp4karAJY+KJEoHkPnvsRt5MG0/TNY1&#xA;3UYoIA1xdXLcFllei/AtfikkIUBUXudgMxIgyNB6PPqMWmxmUvTGPQDvPcO8preeUPM2hyQ3UEU5&#xA;1GyLXVy1qhkFqIXHpzGaIuvE05BumT4JRO3MfY4WLtTT6kGJMfDn6RxGuOxvHhNHyplH5T+ftX0q&#xA;WfSdF0oap5k125VnvLmVuAVRtzUDkwUs7sxcZlaTUShYiLlJ03tJ2NizAZc2Tw9Phj9MR93TuAFP&#xA;o+dbpdMtlu5EluhJa+vJGpRGf1k5FVJYha9ASc6GN1vzfIcpiZHhFRva9zSte/702H/Gdv8AkxLk&#xA;mDx/89fzFnsOfl+xlkimljeHUbG4t1MM1vOnwyxSkcqqaj4T191zTdoaog8Asd+wfQfY/sMZazzA&#xA;IBBjKMt4yieRH6x9heJ+XvKuv+Y3u00i2N3JZQG4mjVlD+mtB8Ck1c+AXNVjxSnfCLp9C1vaWDSi&#xA;Jyy4ROVD3+fd8U+0/wAv2miar5T1iWA63o+qUkuLUwlj6sT+ndQGIFixirVf5ttssEBExkfVE/gh&#xA;1mfWy1GLUYgfBy4+R4uhFwlfTi69ydfnNptst3FdG+heaALDbxNcRyTTWzfHG8dtbRpFbQoD8IJq&#xA;1a5Zq478/t6e4ch5OB7K55cJjwGjuTwkCMuRBlKRlOR69BSdfkh+Yt+uqHSdQZrs3AQG9vL0RQ2t&#xA;rbpRUhidWBJLfZUiu3gTl+g1JjKj16k8gHX+13YcPD8XH6eH+GMLM5SPORB+039r3mFg2pzspqpt&#xA;4CCOhHOXN++XEN2X+9N//wAZ1/5MRYqi8VdirsVdiqE1b/jlXv8Axgl/4gcVfKP5v30l153nRmLR&#xA;2trZwRA9lFtG7D/g3bOa18rzH8dH2v2PwiHZ0D1kZE/6Yj7gEd5D1aZvLer6adDvPMNxKiFI1kdY&#xA;Y7W1YyGOqH1OImlDmOOnI0rkMMvSRw8X6h+1h2zpgNRjyeLDBEE9BZlLa99r4RXFLkyGfSbPUru9&#xA;0nzNevrHmPRbOW5tdBtI0sLPkI0klUSRoGklKmuyAnjStMt4AbjI3KI5DYf2/DpzdVDUzxQjl00R&#xA;iwZZiJySJnPmQNiajG/M1fJGalrflG/8j2lpcS/ovTPMNmRbrHBALOwv9Po0lViQ3DNLJty3PFvu&#xA;nKcDjA5CQ7tgR9u/3FowaTVY9ZKUR4mTBPe5S48kMnLmeGojp3j5kf5geeNY1DQjH+gkXy1frELW&#xA;9u4JI5DepEglnhb1P8kqKChHUVrlWbOZRrh9J8uu1l2PYnZGLFmvxT+YhdxjIEcBJqMtvn1vl0ZB&#xA;/wA423srw6jZE/uYLyCZB/lTW1yrfhCuZvZJ2kPd+l03/BBxATwz6kSHyr/ii9H/ADU/5RDWv+2T&#xA;e/8AMrOh0X99H3h801X91L3F5L5e81TaD+UGj6no19b2bWV/cw6vZzwO6X80itIkLHgxJ9KikggD&#xA;xFBm4y4PE1EoyBNgVvydZiy8GAGJqjv5o38pfNV9dajp+l3sMXl/R9QnvLmztEsnMGrSTM7ND9Yk&#xA;5Kq21VC07UU70yGuwAAyHrkK6/T8PNno8xJAPpBvp9Xx8mAeRJNH0X814D5gt1gs7G8uUlgCmZIZ&#xA;UEix7AMWEcgG/tXM/UiU9P6DuQHC0/DHP6uhL2G5u9HNh5d1/wA2apZa99T12aOPUbNBJGkUtvM8&#xA;URCKK+nII3bY8ad6ZqIxlcoYwY3DkfeHaExqMpkSqXP5sX/NlW1H8s4tV1HVbPXNQh1p4rXUbIKF&#xA;S3ljdxbVAWtAAxHbpU0zK0Ppz8IBiOHke/vcfWerFZIkeLp9z3LQP95pPnF/1DQ5oZ8y7ePJhv5j&#xA;avo1t5ZntNY8vXut2Ustw/qW0YMULCeQBmmB5QsP5gua7XZIiNSiZD8dej0vs3pss84lizQwzH84&#xA;7ny4f4vdbwn8ubXyveeYruLUrZpI/Rkl0qGVZbr94jBgkkNv6Lzn0uRoOIJG9B00mARMt/h1+59O&#xA;7dyanHgiccqPEBMio7HqJS4hDet96vvei3et6R5a0gaN+mfRmtdPnRLCGKaCSWa5Au7C6giUOIZ1&#xA;eThIHev0ZlGYhHh4uQ8/fE+R793lMeky6vL43h2JZI+omMgBH0ZISO3FEgXGhSS6LF+YU2lPJfzn&#xA;S7aRPql7NqEL3V7Pc3DXEqPBbhGn5tFdMgJ2O9D4VRGSt9um+5JN/Hkf2ux1ctBHKBAeJIHiiISE&#xA;YRjEQBEpXw0JQB+XxhmuaHbaHNo15Y3tzBZ6jABdzU/0i3uYm9O8gKqYqmNqEAkVBHzyicBGiOR+&#xA;/q7/AEmrlqRkhOMZThL0j+GUSLhK9+Y/S9+/Lq88kP5fW28uarLqVws1q96928huOXroKmOT7K12&#xA;+AU9z1ze6E4qqBs9Xyz2jxawZeLUYxjj/DwgcPzHP47s6vyVmsmCliJmIUUqf3EuwqQMzy84Bu+Z&#xA;tW8wJZfmutzq1rqEtpbyGOG01mVWmt/VUhZFaX1YgsbN6iVqvueucxOdZbkDt/O5/b832PTaI5Oz&#xA;OHFLGJSFmWIbSrptUrP0nkWS3nmHRNC1y51G0Mmra9e6dPE9lDJBeqJLSSGS1nlksEt1XaF2cA8g&#xA;oBOXHJGBvnIjvB5VR9NdzqMWhzanDHHKseGGSJ4iJQ2kJCcQMhl/OAHSzQXWt35v1OhvdTttCgv7&#xA;carqukaSzR6jLAyUku05JIqu6qHaONwWUV48upEpy5kRvcgc67/lvV79yMmLS4fohLNKEvDhPJvj&#xA;Er2gaIJANgSkKB60v1byb5W0jyXf28E0KX91obTmcPWK+FvdrKk8TMTRyEXkg681A+zjLDCMDvuY&#xA;/P1dPly82Om7U1OfWQlIS4I56qt4cUCDEju3NH+iT1eO+XrgW+uWMxjtZeEyHhf8ja1rsZuJB4Dq&#xA;cwIGiP0ve66HFhmLkPSfo+r/ADfN9kaNcNcuJ2lgnaW0tmaa1PKBiWl3iNTVfDOsxm4g7fDk/P2o&#xA;hwZJRqQo8pfV8fN5d+aep6ZbecrW2vre6vPWiklS2tIJ7lzHE1n67cIIrgj921K0XrTkpNc0vb0s&#xA;scQOOYxmzuSIizE8PMx/irv/AKsuSMVXu8b0XWoRd6b6Onavq8N7BbPqFkLK/wDUgRNOCRlXUSEm&#xA;6vLN5Aycgyc6n7VMXNnyxhMSyxxyjKVSM419fdt9EJRjv/FXkSQB3Jf5F1rVLnQ9Q/Sun6rPfxal&#xA;dRapbxWV7M6zyGFbWGGWNWW1FvLz9SBqFgQu9QFt1moMcsTHLEQMImNzFUOIzJF+rijVS3qr234m&#xA;I25Mq1jVLSfy9q0OkaLrdnqqwkcJrG+LQXErXUnDm1pdUWk0BjX923DiOa0zWYNRnGWBnnhLGSa9&#xA;Y9UQMYuhOPWM+L6hd+g9JkCjskWiecfK2g2ekWXm6e/07VLWENdadf212tyZmt7lGlmkkik5xvK8&#xA;TRijBaD4Kr8WdqDqs4lLTyEok7SjO40JQ2AEhvQmJbi/5382A4RzVfIP5j2+q+cdH0mzukmlfVNT&#xA;ZnWIqzaeNP52wMno23L976tf3a9BtSmbTSafLHLxTJ4fDhtZ+r1cW3FLpw9T7+bCRFMi/ObTJdL8&#xA;52GrPCs1vqFpZ3CrIKxu1vGkTxsO+0a1HgcwO0YGOW+99c9jNQM3Z5xA1KBlHbmOLcH7TXuZX5wu&#xA;9Mnh0XXrTUl0vT0EN/pxF1xkjVvhksrOwtEXjxpxeR++3KlclnINSBocxv8AYAOXv+11XZeLJE5c&#xA;EoeJP1Ql6dj3ZJ5Jn4iI6dOSG1NNe17zA/mZLOLyjJp9wJ4tbmilF5NbXTtDaB7NBJzdqFeXHfpX&#xA;xEzKc+OuCt73ujy2btOcGmwDTGR1QnGjjBHAJRAlOpmqA5105t2HkDSrHRNQgMP1rzDaXcthqE8V&#xA;vLfXAkcepbPZQKYo4Q6Gpkk+yQd8A04ESP4gaPU+VD9aM3bWXJmhK+HBKAnEGQhGhtIZJbmVH+GP&#xA;MFDfmNrHlzU9KD6xdRW2vNAFv7GKJru+XUIOUZT1mlMNvbclVuMf2ga0x1E4yFk+rr1Nj7APc29h&#xA;aXUYstYomWHi9MieGHhyo3w8PFOdbXLkyD/nHfRJbXQ31aRSo1K/EcNR9qO2t5hyHtzkZfozN7Kg&#xA;REy7/wBDpvb3VieohiH+TjZ98v2AfN6T510afWtKvtJt2VLi+028hhZ/s839ILy9q9c3enyCGSMj&#xA;0LwGaHFAx7w8C0t/zz0DTotCg0KWXTrPmqW0mnx3MZZ3Ls3qcG57nYhqZ0Expch4zLc+dOmgdRAc&#xA;IjsPJW07Wfz9sIHih0W5IM01zC76crNDJcszSGH4KJVnY098E8ekkd5D/TdyY5NSB9P2JPb2H52W&#xA;8GmxQaVqSfom5kvbKQWjF1nmJaRmYqS/KpqGqDlplpiTZj6hR3ahHUADY7G+SN1a5/PjU73TbuXS&#xA;b6GTSZDPYpb2XpRrKxq0hRU4sW78qjr4nIYxpYgjiHq57s5nUyINHbyb1fRfzp88XFhpeq6VPbWk&#xA;UhaOtsLS2jaQ/vJnoFBO5P303OOPJpsAMomz77KzhnzECQoPpXSoRCbqEGoilRAT3428QzmSbLvg&#xA;kXmGy853uiva+WLy10+eWe5E13cBy6qZ3/uuKsAfc/RvvmLqY5ZCoEB2nZWXSY8nFqYynEcoiq+L&#xA;5Xv7OXTvNT2qass08VyEk1a3d+PqFqPIsjcWPEk/F3zmZCpc/i+3Ycoy6XiOOomP0GuXQVy+D1zT&#xA;LLy7oHm3Wbj6heQ6j5WEd1catdzNP9dtnIimZ1YALI6uXi4HcjNhGMYTJo3Df39Ptuw8NqMuo1Ol&#xA;xx44HHqLiIRjw8EhvGq5gEVK+jHNY/MOHQPMfmTT9NodPvLZ7WLULG7lmnlm+3b3cly7uWdeZDBa&#xA;U3XtlUs/BKQjyPcfkbdrpewzqdPhyZPrjISMZwAiBylAQAGxra/f1Yl5Ti80a7dQ6DpZgunFw2op&#xA;Z3Yg4yzKoVyTMPjqnVCdxvTMfFGUyIx/R+l3naUtNponPk4o+ng4o8Ww6fTy36vp/wAvSaufLsMO&#xA;q6JHod1BcW6Nb27Qtbv+/T44hCzcVP8AKwBHvnSabi4alHhPlVPi/ascXjE4spzRPU8XEPKXEPtC&#xA;e36hp7FTWhmYGhIO8EvQjfMguuBp8qfm75buNG81zSNZT2dpeFntmu7pLqabiaPKWV5HUMTsHNf4&#xA;cvq8RhM7VfebfbvZnXxz6YDijOUOfDExEe6PIDbyT78uPNflXTvLC3GpWMP6Q0C9SYXMRSG7ktbq&#xA;qPxrT6xxPwPG3VG2pxyzT5YRjuN4n41+n3dxdb292bqcup4cczwZoVRswEo7j+p3xkP4hvdplJqu&#xA;oajcHU9A0CtnAj6XpvnCYTpHDYOTCHlhAIf0I3KeoewqRkjIneMduQlvy5b+4OHHTY8UfDz5vUay&#xA;SwDhJlMeqhLpxEXw/ALV/LBtKsETzM017aWdxLppmWV5bW2jvgFt7u2RaFGjudpY2/mBp0xOmMR6&#xA;+QNeQvkfgeY+xkfaDxpk6eoSlETqgJSMPqhI9QYfTId1XzeeeW9Fnj862uk30lvp93Dc+k/6Qi9W&#xA;3EqNT05UIIKsRx32/XmJCB4wDtv1/S9Vr9XE6OWWAlOJjfoNSo9QfLm+u9PhaG6aJljV0tbZWWFe&#xA;EYYNLXgu9Fr0GdXAUAHwXLLikTvuevP4sF8+/l7rHmjXBc2c1qLW2bhPb3JmRmlQ2lzA6SQEMAkk&#xA;HxL+0PoIxtXpfGA34SL7jzBiefkfwLBEZUk1t+Vf5jC2e3vb/RrtHCKSYZlPBbeSAx7qylC07yBS&#xA;CAWPjmrn7PYTPjjKUT7/AOlGV+/0iN9wHcz8UsY0n/nHHz3pM0P1LWNJW2i1v9OGBrZnJIkidYFc&#xA;pyjUegByj4k5najs2GaMhIy9WPg59CCL8zv1tiJ0nsX5LedjZ2sN1daNNLaNbSRSpA0SrJapEilI&#xA;kj4RKfQX4YuIyiPY0I3wylREhzJ+ok7knf6j9Vp8QsK84/8AOI3mbzHrTammsabYF0VXgihk4lgS&#xA;eXwrGN6+GbHT4fCgI2TXewJtf5E/5xS8w+TfNFp5muddtLuDTUuHe3iilV2D28kdAW2/by9D2Xzz&#xA;5Bg85+SLSzUrFqVtDHLp07dBJ6YBRqfsuNj9B7ZiazTeLHb6hyd77P8AbMtBqOPnjltIeXf7x+x8&#xA;1afPrPkvzfbXFzbNBqOlXCvLbSilQD8S1/ldSaMOxqM52JljnfWJfYs8MPaGllGMrx5I8x+Oh6M5&#xA;1r8yrPRPOl5PoiRzaVd2ckT3VrPKbub63Erq8txI0rLLBJsKfZ3GZMtQITJhyI+O/nvuHm9J2DPU&#xA;aOIzEjLGYNSiOAcBqhEAemY5/wA7YsJv/P8A5svYkjfUJY2+rpaXE0LNHJcRRFiguHBrIV5kVPbM&#xA;aWaZ69K/teiw9i6XGbEAfUZAHcRJ58I6clTyH5C1nzhrCWVkhS0Rgb6+IrHDGepPixH2V7/Kpyen&#xA;08ssqDHtntnDocRnM3I/THrI/q7y+srPSLHR7PRtLsI/Ts7N/ShXvRYJdye7E7k9znT48YhERHIP&#xA;hmq1M8+WWSZuUjZRkn/HVt/+ME//ABOHJuOi8VdirsVdirsVQll/vTf/APGdf+TEWKodbGK/0i6s&#xA;pXkjiuJLmORomMb8WncMFcbrUbVG/hkJw4gR3tuDMccxMAEx333HyeT+ffyii1LUdL8u+UtIg0yw&#xA;hU3Op6s6kgciUjj9VuUkjAKx4Bu4rTrmp1GiuQhjjQ6l7zsb2mOLHk1GqySyTPphD7Sa5RHLeu+r&#xA;eW63P56u9Dv4pdQu73yvo10LLnK5EZZWKxArX4qBRtvxqPbNbIzMeZMQ9lo4aKGaBEIQ1GWHFtz8&#xA;/wAdd0Jo35f69qPmLTtCkQWd1q1sbyxkmrweMwPOhqK7Nw4+xxx4JSkI8iRf6W/VdtYMWnnnHrjj&#xA;lwyrmDxCJ+V35vVvy2/KvT7vTWXUobnRPOGg3hUXcD0cg0lhkKtzjdDVlBA+IDrmw0ujEgbuOSJ/&#xA;seK7e9oskMn7sxzaXND6SPhIdCD18iXs2oBxZxByGcTW3JgKAn10qaVNM3QfOzV7N3v+9Nh/xnb/&#xA;AJMS4UMO/Mz8tLXzXa8rdLa21KRo0uNVuAzyR20dW4xKNq8qdxtXxzA1mjGTcUD1Pk9J2B29LRS9&#xA;XFLGLqA2Bkdt/wAHo+XNU0PVNMeIXlrNAtyhmtfWQxvJCCQJOB+IA8c56USOYfZNPrMeYHgkDwmj&#xA;Ruj3W9B0n8wfLNumj6zcSXa6tpGltpEujJGDa3kYRkjLylxwQ8gZBwNSKjxzLjqIipG7Earofx1e&#xA;X1PYmokcmGIh4WXL4gnfqgbBNCtz/N3GxY4/mrzh5hmW0gma3j1BLPS79ozIIbiQUjhkuSS49Rgm&#xA;7ClQvTrlJySlt30Pf3W7UdnaTSjjkOIwM8kbq4jnIR5ekXy7y9y/Jv8ALq/8tQSahfSXNrqdwHg1&#xA;PT5GjlgkZHLRTRsgr9g/zHq30bjQaWUNzYPIh869qO3IauQxwEZY40YSAIkNt4m/PyHIPRI/+Orc&#xA;f8YIP+JzZs3j3WX+9N//AMZ1/wCTEWKovFXYq7FXYqhNW/45V7/xgl/4gcVULCe8gsbaF7CfnFEi&#xA;NRoCKqoB/wB24qlHmrynoHmm3EWtaHJO6CkNwGhSaPv8Miyhqe3T2yjNpoZPqDsuzu19To5XhkY9&#xA;45g+8fgvNb3/AJxw0t5S1ld6hBF/JMlpM3/BLLF+rNfLskXtL7HrsXt/mA9eKJPkSP1ovRv+cefL&#xA;drKsmpjUNSCn+5DW9vG3+twlZ/ucZLH2VEfUb+xo1Xt5qpiscY4/P6j9u32PUdKtLTSLGOx0zRnt&#xA;LSL7EMX1dV+Z/e7k9ydzmyx44wFRFB43U6nJnmZ5JGUj1KId7me5tP8ARJYkilLu7mKgHpOv7Lse&#xA;rDtk2hfdeul7BPHA86LHKjBCgILtGR9tk/kOKt/Xbn/lgn/4KD/qrirvrtz/AMsE/wDwUH/VXFXf&#xA;Xbn/AJYJ/wDgoP8Aqrirvrtz/wAsE/8AwUH/AFVxV3125/5YJ/8AgoP+quKusFm53UssTQ+tKHRH&#xA;Kk0ESJU8Cw6qe+KqNrLdwJJG1lM376ZgytDQq8rMpFZAdwe4xVW+u3P/ACwT/wDBQf8AVXFWP6h5&#xA;U0q78rXPlpdKng066q0gRoORcyCUuSZd2LitcxpaWJxmA2Ds8Ha2eGpjqLvJH7qqvdSYT6baTX+n&#xA;X7aVMt1pXNbN0NuOKSxmN4/7z7JFNvEDLDhiSD1jycaGsyRhOF+nJXF7wbB9/wCtMPrlxWv1Cevz&#xA;g/6q5a4qjdS3c6RxrZTL++hYszQ0CpKrMTSQnYDsMVVr9ZudrLFE03oyl3RCoNDE6VHMqOrDvirv&#xA;rtz/AMsE/wDwUH/VXFUn1zQNM1qK7F7pExuLy0ewe7U2/qpC9TSMtIwUhmr0+eU5dPCd2NyKc7Sd&#xA;pZtOY8B9MZiddCR3sVvvyb8oXLX5TSJ4Bd2cNpAE+r1t2g/3chMv234pyr1od/iOYsuzcZvzHy8/&#xA;x597usPtdrIcFm+GcpH+lxfwnyG9e8dwZRpnlrRNMnvZbLQniGoeh9ah/wBHMbNbV9N+BkoG+Lf3&#xA;365kw00I3Q519jp9R2pqM0YicieDio9fVzF/ju5J19duf+WCf/goP+quXuvatfXe9nnkgeBGjiRQ&#xA;5QklGkJ+wz/zjFViPcwXN3/oksqSyh0dDFQj0kX9p1PVT2xVU+u3P/LBP/wUH/VXFXfXbn/lgn/4&#xA;KD/qrirvrtz/AMsE/wDwUH/VXFXfXbn/AJYJ/wDgoP8Aqriqhfz3k9jcwpYT85YnRatABVlIH+7c&#xA;VfN8fnzzVfTSLHrt9azoYorWOlxNDNM5VGa5n+uWy26mTkOKIeK8WqeaIVCaal531n/B9rr9pqF7&#xA;At3aNeBZby5JH+iPcRwqfVC+pI6rGhOxJoAxKqQgJdrvn3zXp9pYzLqkzQSzvFNdLe3NJUW4WJXt&#xA;6zNCwEZLNWQBh8SNw+IKXof5ea7rN1qOgzXF1df7kYybq1nmmlUcrV5qcJ2YqQ6DsG7HuMQgF65h&#xA;ZOxV5p+dnmXU9EsdONjNLE1wzRosTyRAzyz29tC0jRFZCiG5JZQd/nTFBeb6D5y12fVrazfXNRvr&#xA;a8jNJZTPYyxzLCk9FjW8u/UiZH+3txNFq1agFSqP5v8AMi+Zf0f+lLnhQH6p9cnM290tuEp64bn6&#xA;JN3y48fTHGnLfFeiE8tee/NeoeYZdNu765PGjNHBe3TCJGRpKOxlVleIhYpF4sC5+FqCmKl7z5Bu&#xA;rm58rW0tzM883q3SerKxdysd1KiAsak0VQKnCkMhxV2KvnDzV5514eb9YsF1rULC3sZro87ZJros&#xA;yzyBE9MXVnFDFHGq77lvi+yEdsVRVn5r1658vi8l1K4tbqO7axu5mvrpraNobs2s09fWH7scS+70&#xA;A+0wAJwMerHZvzF83jyfHq8OoTmVwrNJNeXcYWtr6xgqryr6/q/BvRa/DtJ8OKWbeS/M2uXn6Lvn&#xA;vrsmW/jt6SXEskcsLXYgLcGlnjIeM9QSO6mlDii93uOFk7FWEfm/5hutA8nyajBJLGkLSSXAgYxy&#xA;PHBbTXBRZBRlLNCNwcUF45p/nbzKt9aR3Gt310ZpVgv7flcWqQvLK8UZtZvrkzThXjowaMHj8dV+&#xA;xgUorzB5x8xafrMFpFqtygkExjgku7kvIYbYzJv66n/SJR9Xj4iqvu1QQChQhf8AHnmlfOH6Jkv7&#xA;n0ncrFbR3ty8wQTCKswMyFGKBpwV5D06AgE1CvR7Z+W15eXGm6itzcS3PoXxjiaZ2lZUNtA/Hm5Z&#xA;iOTsdziFDLsKXYq8H/M/zprNn59udJi1S8sLRShMtoJZ3VPQgIjitop7ZSWklYtIxNNloxZRiqW6&#xA;T5u8x3Oi6pK19e3F7po/dul1dIs4ktY7qFjFHPcFG4TKHRXY16V2wMSl9v548zyWOpS2+svdm1uT&#xA;Al015dRwRoLx7f1pGjnmX05Ik9WPfZd2PAhypR3lLzp5l1Hy/Pqkl/ercWyh4XNzM6FxAkpVlaR4&#xA;5ODsQ3wgfssoYMoUEvozCydir5+0z/nGLzZp2m3Wnw/mFK0F6At1Wzuo/VAXiBKsOoxpLRRx/eK3&#xA;w/D9kUxVf5c/5xh8w6TqgvLrz9PqcAjlQWE9pMsAaRCqMES9AHpk8lUbbYqjNG/5xv1mx1a+vbvz&#xA;k+pQXZZoLGe2uhFbkycwYuN+Psj4RyqKdsVRn5Y/84/675M82w69qHne68wQwRSxrYXEEiLylXiH&#xA;DPczgFQT+zir2bFXYq8+/N/8q7z8wbLTba11w6IbCWR5W+r/AFlZ0kUAxOnqwfDVQep39xXFWAa1&#xA;/wA4y+cdWkgln/Me5Se3T0o7gWt3JKI9jwEs+ozOqkgEqpAYgE1oKKomf/nGvXpPKttosfniWK/h&#xA;lMkuuC2uTdSoWZvTat/wAHJRsK/D7nFWtW/5xn1y90iwsrbzxNp9zaKBc38FvdGW5KoE5Scr8gE0&#xA;5Gm1ewxV6l+W/k+58neTNP8ALt1qb6zcWRnMmpSoY3lM9xJPVlZ5iOPq8ftnpirJsVdirxC6/wCc&#xA;efNP+Jtc1vT/AD3NZ/pm6uZxCltdI8MVzM8v1f1ra/tmdE5/CGFAalQpJxVJtL/5xU8x2Oq2l235&#xA;hXElnbTxzPpi2csVvIiOGaIql6KK4FG77164qmsH/ON2tr5jfVrjzk1xZOnA6MbW7S0B9IR8gE1B&#xA;WHxDnSvX2xVd5d/5xx17SfPFr5kn89XV7Y2t6bwaK9vKISvIukXJruRQE2oeHbpir3HFXYqxD80v&#xA;Id3548rHRLTVm0S4FxHcJfpF65Hp1BTh6kNQ4Yg/F07Yq8v1H/nGbzdfadaWD/mHLHDY/wC8ZSzu&#xA;m9HYr+5WTUZI4fhPH90q0X4R8NRiqrY/84z+YLby/faY/nua5vbuRWh1aW1uDPbqBRkiAv8Aj8Xi&#xA;cVXP/wA40a43lhNIHniZdQR+R1sW1z9ZZebPwYG/4U+LjsOgxV6B+UX5c3/kHy5d6Tfa7L5hnur1&#xA;7369PG0TqHhiiEdGluCePo1ry79MVZxirsVeRecPyO8w615/uvN+l+cJNIadIlis1tpmMTRxLEzJ&#xA;PBeWklJAg5r9ltuQbiKKsQu/+cUfNdxdS3CfmVdWxmYu6QWc6gserMzX7O7HuzsWPjiqe6l/zjpr&#xA;N35ltdXi84NaWNuwL6PFa3Qt5gJGekhF+G3VgpoRsPHFUDe/84w69ceYE1KLz7c2tgrwsdJjtpzB&#xA;wiVQ0fxXrfDJxNag9e+KvfcVdirsVdirsVdirsVdirsVdirsVdirsVdirsVdirsVdirsVdirsVdi&#xA;rsVdirsVdirsVdirsVdirsVdirsVdirsVdirsVdirsVdirsVdirsVdirsVdirsVdirsVdirsVdir&#xA;sVdirsVdirsVdirsVdirsVdirsVdirsVdirsVdirsVdirsVdirsVdirsVdirsVdirsVdirsVdirs&#xA;VdirsVdirsVdirsVdirsVdirsVdirsVdirsVdirsVdirsVdirsVdirsVdirsVdirsVdirsVdirsV&#xA;dirsVdirsVdirsVdirsVdirsVdirsVdirsVdirsVdirsVdirsVdirsVdirsVdirsVdirsVdirsVd&#xA;irsVdirsVdirsVdirsVdirsVdirsVdirsVdirsVdirsVdirsVdirsVdirsVYvrf5leUdG1x9CvJ7&#xA;qTVo7YX0tpZ6ff3zJbMxQSubSCdVXktNziqb6Z5h0TVNEh12wvYp9Hnh+sR3wbjF6QBJYlqceNDy&#xA;5Up3xVJ9D/M7yTreoW1hp1+7XF8kkmnGa2uraK7SL+8a0mnijiuAo3PpM22/TFUf5j84+XfLn1Rd&#xA;WuWjnv5DFYWkEM11czuo5MIbe2SWaTiN24oad8VVfLfmjQfMumDU9DvFvLPm0LsAyPHLGaPHLFIE&#xA;kjde6OoPtiqTr+a3kFr8WS6mSTd/o4Xn1e5+pG8rT6t9e9L6p6tduHq1xVMPNXnfy15VSxbW7iSF&#xA;tSuBaWEUNtcXck07AkRpHbRzOWNNtsVRmia7Zazavc2cd3FGjmNlvbO7sJOQAaojvIoJGX4vtBad&#xA;q1BxVMcVdirsVdirsVdirsVdirsVdirsVdirsVdirsVdirsVdirsVdirsVdirsVdirw3zrYavB+d&#xA;9/qvra/pemT+Wo7SPVdD0x9R9Sf607/Vyfqd8q/D8W3A9PiGKqWgaP5rufyJtfy2m8v3el6/f6Fe&#xA;elMsTLYxskrCOG5mZz6VxcqwZkNRuen2QqjLlNV81D8t9KsND1LS7nyzfWuo63NeWc1rDbRWFu0T&#xA;20c0iJHOZ2YKvoMwpuaDFV2rXWrXf5heVPzIbRNZttBm0q80ue0NjJLqem3DysUnlsohcSUkAoCq&#xA;PtTkKHFVv5Waz5qsL3zBa6xoWrrFretmLS9QOlW1rMIpoC4vtQa0is0PKg5yFSwb4TvirHv0H5kf&#xA;8ik/KYaFqKeaxcCxNx9Um+oBRqH1k3/1/j9X9Ph8VOfqctuPfFWQfmnHrvmzU/J8GmaZrVk2h+bY&#xA;7a71I2Y5LHDGK6hDyS4iNvV/hkkTiSDUYq9f0iwu7CyFvdalc6tKGJN5eLbJKQeikWsNtFQdvgri&#xA;qNxV2KuxV2KuxV2KuxV2KuxV2KuxV2KuxV2KuxV2KuxV2KuxV2KuxV2KuxV2KvLNZ/OPXLPUvO0V&#xA;l5ftbnTvIqwy6lcz6k9vNMktv9Y/cQizmQsACOLSippvviqZn80L/VNYi0byjog1S/XTbfVtQ+v3&#xA;R0+K2iu0528LMsN2zTuP2QnEd2xVAWn54WurJoNjoGkvd+ZtckuoW0i6mFtHZtp5K3ZurhEuKKjC&#xA;i8EYv4DFUTefm3fadoxfVPLN3aeY5NWTQrDR2ekN5dTGsctteSJEj25UFjLwHGm69KqoXzB+ct95&#xA;ai8w2uv6FHBruiaYus21pbXpntry0aUQM0dy1vC6NHIeLK0PyqN8VZd5S1nzZq1vBe6tpVhp9hdW&#xA;6XFs9pqE15MTIFZVeOSytFX4W3Ic79u+KsixV2KuxV2KuxV2KuxV2KuxV2KuxV2KuxV2KuxV2Kux&#xA;V2KuxV2KuxV2KuxV2KuxV2KvDPNP5Ia/qvmLz3ffojy/qaea1hTS9S1CaZbzTTHbeg0saLZzfHy+&#xA;McJl+yKnFWR6b+Xnnfyvria7oN5aa5fXukWema2usTTWxluLCMpFdxzQw3THlU842TfrzriqT6V+&#xA;SGv+XLvQPMWj3lnqHmWxkv31y2vPUtrK8XVGLzrG8aXEkXpE0QmNuQ606Yqluk/kD5os5NU1KKXR&#xA;9N1Qa5Y+YNBs7FJVsImtI3R7SWMRwkRlZSvNBU/aotaYqnHnL8pvOHnJvMmr6o+m2Os6hoo0HRbG&#xA;Ceee2hiNwLiWWe5e3hdnd1oOMPwjbfrir0DyX5I8veVtLgh07SrDT75reCLULixt44TPJElCzuiI&#xA;z/EWILeOKsixV2KuxV2KuxV2KuxV2KuxV2KuxV2KuxV2KuxV2KuxV2KuxV2KuxV2KuxV2KuxV2Kv&#xA;nH/nIf8ANvz75P8APg07QdXksbCPQItSW2jtLe4V7o30kJMryQyukbRrQ/EorTep3VWXP/ORX5in&#xA;zC+i2djpEkza1a6PbsI55VYXMLPyDR3PFzzA4lTQj78VZD5E/PTzJ5m0LXtVktLNYtE8tJq0nopK&#xA;D+kCLjlH8Uj/ALv/AEU0X7X+VirzGx/5yX/NHStLv7u5ubXWJjpdnqcC3tuiJE9xdLC8ai0+qsU4&#xA;ybc2JqOuKspv/wDnJT8wkjXT7DR7K61x9Z1rS4Vgtry5EqaVBDJEkdtFL6vqTPPxLcqKBypToq+g&#xA;PKuq3+r+WtL1TULGTTL+9tYprvTplZZIJXQF42DhWHFqjcA4qmuKuxV2KuxV2KuxV2KuxV2KuxV2&#xA;KuxV2KuxV2KuxV2KuxV2KuxV2KuxV2KuxV2KuxV4b+eflv8AJq981Q3fnXzNqGjapc6Uti1tYqsi&#xA;GwF0ziWb/RLsxKZ5OPqMyjanjirh+Uv5NWXmiK/sfNTwatZS22u22jLeWkyhrGAGKY2wj+tPEYxz&#xA;YK+4+yRiqn+WOi/ll5Q/LzX/ADTe+Y01by35znkSa7WzubOMxmSaA2sFqWnuf7ySUAfaPbxKqUWf&#xA;5V/846X/AJYm/wCdvmjs9Vj+qW9ze3lrZ3MUOmyCaS3jjuIIWAjbiZPUjLgUqcVTy+/Jr8lryZNO&#xA;PmmSLU9bu77VrD07+x+syrrUCw3KW0bRMskEsSDiQjN3DYqzjTfOf5b+VLqPyDb3r20/l+yiM0Lw&#xA;XTxW1okQKzXN36ZgjThQs8kgFeuKp3J5+8ixW0FzL5j0tLa6cR2s7XtuElcqrhY2L0ZuEitQdiD3&#xA;xVFjzP5aOs/oMatZHWivMaX9Yi+tcacuXocvUpx3rTFUzxV2KuxV2KuxV2KuxV2KuxV2KuxV2Kux&#xA;V2KuxV2KuxV2KuxV2KuxV2KuxV2Kvmn/AJyE8tedm/MebXdF0W41SC48tiytHi09dUh+sxXvrNFN&#xA;BJFcxCsfxD1E3/Z+LFWKwflp5ruvOl4NX8s6tdSX9xBd2wgSO101InsGWR7gtayxsBX0vqyyRnqt&#xA;MVTqPyN5qk/5xk8p6dBoV7Hq+ka4L/VtNNrLHd+kl1c/H6DKssp9OWMjipNPlsqw6f8ALbz6ukac&#xA;7eXNRcXMvm+6SMWk7OiXenRxWvqx8OUTyyRkIrgMewxVE6F+WnnBNc0RtW8t67cRTw6C1lBaj6qk&#xA;UtnHwke7nmtrlYRAwb92xjLcuuKvQPPfk7zZffmd+Z9/aWmpJZXXlRoLN7e25w38xtkQWqu8MnNu&#xA;W/GFg9R1pUYqw3zL+VutQeX/ACG8fljVGsT5ent9XstJg9K7bUJl5MlxW3ujC0p4hpZIu1KimKpn&#xA;5R/LnzNYfmzayan5e1shNUsL2ymjlT6nBBHa0eW6vPqskc7JT0zGkkRbfbFX1birsVdirsVdirsV&#xA;dirsVdirsVdirsVdirsVdirsVdirsVdirsVdirsVdirsVdirsVdirsVdirsVdirsVdirsVdirsVd&#xA;irsVdirsVdirsVdirsVdirsVdirsVdirsVdir//Z</xapGImg:image>
    </rdf:li>
   </rdf:Alt>
  </xap:Thumbnails>
 </rdf:Description>

 <rdf:Description rdf:about=''
  xmlns:dc='http://purl.org/dc/elements/1.1/'>
  <dc:format>image/svg+xml</dc:format>
 </rdf:Description>

</rdf:RDF>
</x:xmpmeta>
                                                                                                                                                                                                                                                                                                                                                                                                                                                                                                                                                                                                                                                                                                                                                                                                                                                                                                                                                                                                                                                                                                                                                                                                                                                                                                                                                                                                                                                                                                                                                                                                                                                                                                                                                                                                                                                                                                                                                                                                                                                                                                                                <?xpacket end='w'?>
			</metadata>
		<g id="Layer_1">
			<g>
				<rect x="163.861" y="0.5" style="fill:#FFFFFF;stroke:#000000;" width="141.732" height="141.732"/> 
				<g>
					<path id="path3817_5_" style="fill:#AAB2AB;" d="M166.432,154.97l85.549,0.151c1.195,0,2.263-0.177,2.263,2.386l-0.104,28.175
						h-89.865v-28.279C164.274,156.139,164.396,154.97,166.432,154.97z"/>
					<g id="g5908_5_">
						<path id="path5906_5_" style="fill:#FFFFFF;" d="M189.915,169.385c0.003,5.683-4.602,10.293-10.284,10.297
							c-5.683,0.003-10.293-4.602-10.296-10.284c0-0.005,0-0.009,0-0.013c-0.003-5.684,4.601-10.293,10.284-10.297
							c5.684-0.002,10.293,4.602,10.297,10.285C189.915,169.377,189.915,169.381,189.915,169.385z"/>
						<g id="g5706_5_">
							<path d="M187.989,161.004c2.282,2.281,3.423,5.076,3.423,8.381c0,3.307-1.122,6.07-3.364,8.293
								c-2.381,2.342-5.193,3.513-8.439,3.513c-3.206,0-5.971-1.161-8.292-3.483c-2.321-2.32-3.482-5.095-3.482-8.322
								c0-3.227,1.161-6.021,3.482-8.381c2.262-2.283,5.027-3.424,8.292-3.424C182.915,157.58,185.708,158.721,187.989,161.004z
								 M172.854,162.538c-1.929,1.948-2.894,4.231-2.894,6.85s0.955,4.882,2.863,6.79c1.91,1.908,4.183,2.863,6.82,2.863
								c2.638,0,4.93-0.963,6.878-2.893c1.85-1.791,2.776-4.045,2.776-6.761c0-2.696-0.94-4.983-2.82-6.864
								c-1.88-1.879-4.157-2.818-6.834-2.818S174.704,160.649,172.854,162.538z M177.93,168.236
								c-0.294-0.643-0.736-0.965-1.324-0.965c-1.041,0-1.561,0.701-1.561,2.102s0.52,2.102,1.561,2.102
								c0.688,0,1.178-0.342,1.473-1.025l1.442,0.769c-0.688,1.222-1.719,1.831-3.094,1.831c-1.061,0-1.91-0.324-2.548-0.975
								c-0.639-0.65-0.958-1.547-0.958-2.689c0-1.123,0.329-2.014,0.987-2.674s1.478-0.99,2.46-0.99
								c1.453,0,2.494,0.572,3.123,1.717L177.93,168.236z M184.715,168.236c-0.295-0.643-0.728-0.965-1.298-0.965
								c-1.061,0-1.592,0.701-1.592,2.102s0.531,2.102,1.592,2.102c0.688,0,1.17-0.342,1.445-1.025l1.475,0.769
								c-0.687,1.222-1.716,1.831-3.089,1.831c-1.059,0-1.907-0.324-2.544-0.975c-0.636-0.65-0.956-1.547-0.956-2.689
								c0-1.123,0.323-2.014,0.971-2.674c0.647-0.66,1.47-0.99,2.471-0.99c1.451,0,2.49,0.572,3.117,1.717L184.715,168.236z"/>
						</g>
					</g>
					<path d="M252.728,154.639h-87.172c-0.935,0-1.695,0.76-1.695,1.695v29.621c0,0.211,0.171,0.383,0.383,0.383h89.797
						c0.211,0,0.384-0.172,0.384-0.383v-29.621C254.424,155.398,253.663,154.639,252.728,154.639z M165.556,155.404h87.172
						c0.513,0,0.93,0.416,0.93,0.93c0,0,0,11.914,0,20.535h-62.306c-2.284,4.129-6.684,6.934-11.732,6.934
						c-5.052,0-9.45-2.801-11.733-6.934h-3.26c0-8.621,0-20.535,0-20.535C164.626,155.82,165.043,155.404,165.556,155.404z"/>
					<g id="g334_4_" style="enable-background:new    ;">
						<path style="fill:#FFFFFF;" d="M209.14,179.355c0.238,0,0.456,0.02,0.652,0.062c0.196,0.041,0.365,0.109,0.505,0.207
							c0.14,0.095,0.249,0.223,0.326,0.381c0.077,0.158,0.116,0.354,0.116,0.587c0,0.252-0.058,0.462-0.172,0.63
							c-0.114,0.168-0.284,0.305-0.508,0.413c0.309,0.088,0.54,0.243,0.692,0.466c0.152,0.221,0.229,0.489,0.229,0.801
							c0,0.252-0.049,0.471-0.147,0.655s-0.23,0.335-0.396,0.451c-0.166,0.117-0.355,0.204-0.568,0.259
							c-0.213,0.058-0.431,0.086-0.656,0.086h-2.427v-4.998H209.14z M208.999,181.377c0.196,0,0.357-0.047,0.484-0.141
							c0.126-0.093,0.189-0.244,0.189-0.453c0-0.117-0.021-0.213-0.063-0.287s-0.098-0.132-0.168-0.174
							c-0.07-0.043-0.151-0.072-0.242-0.088c-0.091-0.017-0.186-0.023-0.284-0.023h-1.029v1.166H208.999z M209.063,183.498
							c0.108,0,0.21-0.011,0.308-0.033c0.099-0.02,0.186-0.055,0.26-0.104c0.075-0.05,0.134-0.115,0.179-0.201
							c0.044-0.083,0.067-0.189,0.067-0.32c0-0.256-0.073-0.439-0.218-0.549c-0.145-0.11-0.337-0.164-0.575-0.164h-1.199v1.371
							H209.063z"/>
						<polygon id="path338_4_" style="fill:#FFFFFF;" points="211.173,179.355 212.406,179.355 213.576,181.328 214.739,179.355 
							215.964,179.355 214.109,182.434 214.109,184.354 213.007,184.354 213.007,182.406 "/>
					</g>
					<g id="g340_4_" style="enable-background:new    ;">
						<polygon id="path342_4_" style="fill:#FFFFFF;" points="229.091,179.355 231.18,182.708 231.191,182.708 231.191,179.355 
							232.223,179.355 232.223,184.354 231.124,184.354 229.043,181.006 229.029,181.006 229.029,184.354 227.998,184.354 
							227.998,179.355 "/>
						<path id="path344_4_" style="fill:#FFFFFF;" d="M236.395,180.687c-0.064-0.105-0.146-0.198-0.245-0.276
							c-0.099-0.08-0.209-0.143-0.333-0.187c-0.123-0.044-0.253-0.065-0.388-0.065c-0.248,0-0.458,0.047-0.631,0.143
							s-0.312,0.223-0.419,0.385c-0.108,0.16-0.186,0.344-0.235,0.549c-0.049,0.205-0.073,0.418-0.073,0.637
							c0,0.21,0.024,0.415,0.073,0.613c0.049,0.197,0.127,0.376,0.235,0.534c0.107,0.159,0.247,0.286,0.419,0.382
							s0.383,0.145,0.631,0.145c0.335,0,0.599-0.104,0.787-0.31c0.189-0.205,0.305-0.476,0.347-0.812h1.064
							c-0.028,0.312-0.101,0.595-0.217,0.847c-0.117,0.253-0.271,0.468-0.463,0.646c-0.19,0.178-0.415,0.314-0.672,0.408
							c-0.256,0.094-0.539,0.141-0.847,0.141c-0.383,0-0.728-0.068-1.033-0.201c-0.306-0.132-0.564-0.316-0.774-0.549
							c-0.211-0.233-0.372-0.509-0.484-0.824c-0.112-0.314-0.168-0.654-0.168-1.02c0-0.373,0.056-0.719,0.168-1.039
							c0.112-0.32,0.273-0.6,0.484-0.837c0.21-0.239,0.469-0.425,0.774-0.562c0.306-0.135,0.65-0.201,1.033-0.201
							c0.275,0,0.535,0.039,0.78,0.118s0.465,0.194,0.658,0.347c0.194,0.152,0.354,0.34,0.479,0.564s0.205,0.482,0.238,0.771h-1.064
							C236.502,180.906,236.46,180.791,236.395,180.687z"/>
					</g>
					<g id="g6379_5_">
						<path id="path6381_5_" style="fill:#FFFFFF;" d="M240.626,165.945c0.003,4.151-3.359,7.52-7.512,7.522
							c-4.151,0.003-7.519-3.36-7.522-7.512c0-0.005,0-0.008,0-0.011c-0.003-4.152,3.36-7.52,7.511-7.523
							c4.152-0.002,7.52,3.361,7.522,7.512C240.626,165.938,240.626,165.941,240.626,165.945z"/>
						<path d="M233.099,157.193c2.453,0,4.527,0.846,6.221,2.537c1.694,1.693,2.542,3.764,2.542,6.215c0,2.45-0.833,4.5-2.498,6.148
							c-1.768,1.736-3.855,2.604-6.265,2.604c-2.381,0-4.433-0.861-6.156-2.583c-1.724-1.72-2.585-3.776-2.585-6.169
							s0.861-4.465,2.585-6.215C228.622,158.039,230.674,157.193,233.099,157.193z M226.327,163.594
							c-0.261,0.738-0.391,1.521-0.391,2.352c0,1.939,0.708,3.617,2.124,5.031s3.103,2.123,5.061,2.123
							c1.957,0,3.657-0.715,5.104-2.145c0.484-0.467,0.884-0.979,1.196-1.531l-3.3-1.469c-0.224,1.109-1.212,1.859-2.408,1.947v1.35
							h-1.005v-1.35c-0.982-0.011-1.932-0.412-2.656-1.047l1.205-1.216c0.581,0.546,1.162,0.792,1.954,0.792
							c0.513,0,1.083-0.201,1.083-0.871c0-0.236-0.092-0.4-0.236-0.525l-0.834-0.371l-1.04-0.463
							c-0.513-0.229-0.948-0.422-1.386-0.617L226.327,163.594z M233.121,158.769c-1.986,0-3.666,0.7-5.038,2.101
							c-0.375,0.377-0.699,0.771-0.976,1.182l3.346,1.49c0.302-0.928,1.184-1.492,2.254-1.555v-1.349h1.005v1.349
							c0.692,0.034,1.451,0.224,2.198,0.803l-1.149,1.183c-0.424-0.301-0.959-0.513-1.496-0.513c-0.435,0-1.049,0.133-1.049,0.68
							c0,0.084,0.027,0.156,0.079,0.222l1.119,0.498l0.757,0.338c0.484,0.216,0.947,0.421,1.405,0.626l4.484,1.996
							c0.148-0.588,0.223-1.212,0.223-1.873c0-2-0.701-3.69-2.103-5.076C236.793,159.469,235.106,158.769,233.121,158.769z"/>
					</g>
					<g id="g349_4_">
						<circle id="circle351_4_" style="fill:#FFFFFF;" cx="211.677" cy="166.124" r="8.105"/> 
						<g id="g353_4_">
							<path id="path355_4_" d="M214.023,163.779c0-0.312-0.253-0.566-0.565-0.566h-3.58c-0.312,0-0.565,0.254-0.565,0.566v3.579
								h0.999v4.239h2.713v-4.239h0.999V163.779z"/>
							<circle id="circle357_4_" cx="211.668" cy="161.518" r="1.225"/> 
						</g>
						<path d="M211.657,157.193c-2.423,0-4.477,0.846-6.156,2.538c-1.723,1.751-2.584,3.821-2.584,6.214
							c0,2.392,0.861,4.449,2.584,6.17s3.776,2.582,6.156,2.582c2.41,0,4.499-0.867,6.266-2.604
							c1.665-1.648,2.497-3.697,2.497-6.148s-0.847-4.521-2.541-6.214S214.111,157.193,211.657,157.193z M211.679,158.769
							c1.986,0,3.673,0.7,5.06,2.101c1.403,1.386,2.104,3.078,2.104,5.076c0,2.012-0.686,3.683-2.06,5.01
							c-1.446,1.43-3.147,2.145-5.104,2.145s-3.644-0.707-5.061-2.123c-1.417-1.414-2.125-3.092-2.125-5.031
							c0-1.94,0.716-3.633,2.147-5.076C208.013,159.469,209.693,158.769,211.679,158.769z"/>
					</g>
				</g>
				<g>
					<path style="fill:#0A50A1;" d="M298.706,83.213c0,6.627-5.373,12-12,12h-104c-6.627,0-12-5.373-12-12v-35
						c0-6.627,5.373-12,12-12h104c6.627,0,12,5.373,12,12V83.213z"/>
					<g>
						<path style="fill:#FFFFFF;" d="M179.632,77.69c1.08-0.574,2.186-1.5,3.316-2.776c1.13-1.277,1.696-2.527,1.696-3.753
							c0-0.649-0.118-1.387-0.353-2.214c-0.133-0.473-0.353-1.107-0.661-1.905h-3.953v-2.43h2.542
							c-0.676-1.327-1.174-2.494-1.497-3.504s-0.484-2.098-0.484-3.263c0-2.27,0.938-4.304,2.813-6.103s4.551-2.698,8.024-2.698
							c2.883,0,5.386,0.805,7.505,2.411c2.119,1.608,3.244,4.323,3.377,8.145h-5.923c-0.149-1.472-0.491-2.663-1.025-3.57
							c-0.788-1.265-2.117-1.897-3.988-1.897c-1.382,0-2.474,0.425-3.276,1.272c-0.802,0.847-1.203,1.824-1.203,2.928
							c0,0.665,0.144,1.361,0.432,2.089c0.287,0.73,0.931,2.126,1.932,4.19h6.37v2.43h-5.392c0.045,0.577,0.081,1.056,0.109,1.439
							c0.028,0.384,0.042,0.768,0.042,1.151c0,1.417-0.431,2.73-1.29,3.939c-0.549,0.753-1.663,1.897-3.338,3.432
							c1.187-0.412,2.062-0.682,2.627-0.811c0.905-0.228,1.79-0.341,2.651-0.341c0.534,0,1.056,0.042,1.569,0.128
							s1.058,0.205,1.637,0.361l0.913,0.276c0.401,0.128,0.736,0.209,1.005,0.245c0.27,0.035,0.499,0.053,0.688,0.053
							c0.669,0,1.456-0.187,2.359-0.56c0.523-0.216,1.178-0.546,1.965-0.992l1.745,4.899c-0.729,0.491-1.749,0.968-3.061,1.429
							c-1.311,0.46-2.571,0.692-3.78,0.692c-0.641,0-1.311-0.088-2.01-0.261c-0.7-0.174-1.464-0.393-2.295-0.654l-1.267-0.415
							c-0.549-0.174-1.001-0.306-1.357-0.394c-0.593-0.116-1.2-0.174-1.819-0.174c-0.664,0-1.378,0.131-2.145,0.393
							c-0.502,0.19-1.424,0.591-2.765,1.202L179.632,77.69z"/>
						<path style="fill:#FFFFFF;" d="M210.694,71.75c0,1.291,0.207,2.36,0.62,3.206c0.765,1.559,2.158,2.338,4.178,2.338
							c1.236,0,2.316-0.429,3.237-1.288c0.921-0.858,1.383-2.093,1.383-3.705c0-2.133-0.852-3.56-2.556-4.276
							c-0.969-0.402-2.497-0.604-4.583-0.604v-4.48c2.045-0.029,3.473-0.228,4.282-0.598c1.398-0.62,2.097-1.875,2.097-3.765
							c0-1.226-0.357-2.223-1.069-2.99c-0.713-0.768-1.716-1.152-3.008-1.152c-1.485,0-2.577,0.476-3.275,1.428
							s-1.032,2.223-1.001,3.812h-5.848c0.059-1.592,0.33-3.103,0.814-4.534c0.512-1.253,1.319-2.41,2.419-3.472
							c0.821-0.752,1.796-1.327,2.926-1.726c1.13-0.397,2.516-0.597,4.159-0.597c3.049,0,5.51,0.79,7.38,2.371
							c1.87,1.58,2.805,3.702,2.805,6.362c0,1.882-0.558,3.47-1.672,4.763c-0.705,0.81-1.439,1.36-2.201,1.654
							c0.572,0,1.393,0.496,2.463,1.487c1.597,1.495,2.397,3.536,2.397,6.124c0,2.722-0.938,5.115-2.81,7.179
							c-1.872,2.063-4.646,3.095-8.316,3.095c-4.524,0-7.668-1.481-9.43-4.442c-0.925-1.576-1.44-3.64-1.542-6.189H210.694z"/>
						<path style="fill:#FFFFFF;" d="M231.276,74.94h6.607v6.607h-6.607V74.94z"/>
						<path style="fill:#FFFFFF;" d="M245.36,52.52c1.979-2.115,4.551-3.172,7.715-3.172c4.871,0,8.211,2.146,10.022,6.436
							c1.03,2.43,1.545,5.63,1.545,9.598c0,3.852-0.494,7.065-1.481,9.643c-1.887,4.905-5.35,7.358-10.391,7.358
							c-2.403,0-4.562-0.705-6.478-2.113c-1.916-1.409-3.014-3.464-3.294-6.165h6.303c0.146,0.946,0.541,1.714,1.186,2.305
							c0.644,0.591,1.501,0.885,2.57,0.885c2.064,0,3.513-1.15,4.349-3.45c0.453-1.267,0.739-3.118,0.857-5.551
							c-0.573,0.717-1.182,1.265-1.828,1.645c-1.175,0.703-2.62,1.053-4.337,1.053c-2.539,0-4.792-0.874-6.757-2.623
							c-1.968-1.749-2.95-4.269-2.95-7.563C242.392,57.396,243.381,54.634,245.36,52.52z M255.965,65.158
							c1.431-0.906,2.147-2.478,2.147-4.714c0-1.799-0.421-3.224-1.263-4.276c-0.842-1.053-1.995-1.579-3.458-1.579
							c-1.069,0-1.984,0.3-2.745,0.899c-1.201,0.935-1.8,2.521-1.8,4.758c0,1.887,0.383,3.301,1.15,4.244
							c0.767,0.943,1.945,1.414,3.537,1.414C254.395,65.903,255.206,65.655,255.965,65.158z"/>
						<path style="fill:#FFFFFF;" d="M270.499,52.52c1.979-2.115,4.55-3.172,7.715-3.172c4.871,0,8.211,2.146,10.022,6.436
							c1.03,2.43,1.545,5.63,1.545,9.598c0,3.852-0.493,7.065-1.48,9.643c-1.887,4.905-5.351,7.358-10.391,7.358
							c-2.403,0-4.562-0.705-6.478-2.113c-1.917-1.409-3.014-3.464-3.294-6.165h6.303c0.146,0.946,0.541,1.714,1.185,2.305
							c0.645,0.591,1.501,0.885,2.57,0.885c2.064,0,3.514-1.15,4.349-3.45c0.454-1.267,0.739-3.118,0.857-5.551
							c-0.573,0.717-1.182,1.265-1.827,1.645c-1.175,0.703-2.62,1.053-4.337,1.053c-2.539,0-4.791-0.874-6.757-2.623
							c-1.967-1.749-2.95-4.269-2.95-7.563C267.53,57.396,268.519,54.634,270.499,52.52z M281.103,65.158
							c1.431-0.906,2.146-2.478,2.146-4.714c0-1.799-0.421-3.224-1.263-4.276c-0.842-1.053-1.995-1.579-3.458-1.579
							c-1.069,0-1.984,0.3-2.745,0.899c-1.201,0.935-1.8,2.521-1.8,4.758c0,1.887,0.383,3.301,1.15,4.244
							c0.767,0.943,1.945,1.414,3.538,1.414C279.533,65.903,280.344,65.655,281.103,65.158z"/>
					</g>
				</g>
			</g>
			<g>
				<g>
					<rect x="0.5" y="0.5" style="fill:#FFFFFF;stroke:#000000;" width="141.732" height="141.732"/> 
					<g>
						<circle style="fill:#FF0000;" cx="71.367" cy="70.716" r="65.2"/> 
						<g>
							<path style="fill:#FFFFFF;" d="M35.857,60.852c-0.062-1.522,0.567-3.46,1.891-5.813c1.148-2.045,1.851-3.454,2.109-4.229
								c0.392-1.2,0.356-2.297-0.106-3.29c-0.378-0.809-0.916-1.377-1.613-1.705c-0.698-0.328-1.464-0.298-2.298,0.092
								c-1.143,0.532-1.721,1.321-1.735,2.365c-0.008,0.604,0.217,1.451,0.673,2.543l-3.625,1.69
								c-0.697-1.652-1.015-3.104-0.955-4.35c0.113-2.373,1.445-4.154,4-5.346c2.019-0.94,3.887-1.129,5.603-0.565
								c1.717,0.563,3.005,1.769,3.866,3.614c0.66,1.416,0.823,2.869,0.49,4.362c-0.216,0.988-0.748,2.227-1.596,3.715l-1.008,1.771
								c-0.63,1.108-1.049,1.893-1.256,2.354c-0.208,0.461-0.338,0.945-0.39,1.451l8.361-3.899l1.543,3.309l-13.096,6.106
								C36.111,63.64,35.826,62.247,35.857,60.852z"/>
							<path style="fill:#FFFFFF;" d="M52.953,51.222c0.533,0.756,1.115,1.261,1.743,1.514s1.344,0.191,2.147-0.184
								c0.925-0.432,1.477-1.089,1.654-1.975c0.178-0.885,0.034-1.826-0.433-2.826c-0.458-0.981-1.071-1.705-1.841-2.17
								s-1.636-0.474-2.596-0.026c-0.455,0.212-0.821,0.451-1.101,0.718c-0.489,0.479-0.753,1.067-0.788,1.764l-3.428,1.433
								l-3.555-11.142l10.494-4.894l1.479,3.172l-7.796,3.636l1.265,4.492c0.401-0.645,0.736-1.104,1.002-1.377
								c0.449-0.453,1.062-0.86,1.84-1.224c1.572-0.733,3.192-0.842,4.859-0.323c1.668,0.517,2.975,1.791,3.921,3.82
								c0.824,1.767,0.993,3.608,0.511,5.523c-0.483,1.917-1.852,3.399-4.104,4.449c-1.814,0.846-3.532,1.053-5.152,0.62
								c-1.621-0.432-2.915-1.515-3.884-3.247L52.953,51.222z"/>
							<path style="fill:#FFFFFF;" d="M69.779,36.571c-0.502,1.387-1.426,2.394-2.772,3.021c-1.338,0.623-2.701,0.684-4.091,0.178
								c-1.389-0.505-2.395-1.428-3.019-2.766s-0.684-2.701-0.178-4.09c0.505-1.39,1.427-2.396,2.766-3.02
								c1.338-0.625,2.7-0.684,4.091-0.178c1.389,0.506,2.395,1.427,3.019,2.766C70.219,33.821,70.28,35.184,69.779,36.571z
								 M66.908,35.531c0.218-0.597,0.191-1.183-0.078-1.76c-0.269-0.576-0.701-0.974-1.297-1.19s-1.183-0.19-1.759,0.078
								c-0.577,0.27-0.974,0.701-1.19,1.298c-0.218,0.596-0.191,1.183,0.078,1.759c0.269,0.577,0.701,0.974,1.297,1.19
								s1.183,0.191,1.759-0.078C66.295,36.56,66.692,36.127,66.908,35.531z M73.228,24.775l2.037-0.95l-1.63,24.593l-2.037,0.95
								L73.228,24.775z M87.164,40.271c-0.506,1.389-1.428,2.395-2.766,3.019s-2.702,0.685-4.092,0.179
								c-1.389-0.506-2.395-1.428-3.019-2.767c-0.627-1.347-0.688-2.712-0.181-4.096c0.508-1.386,1.43-2.39,2.769-3.014
								c1.338-0.624,2.702-0.684,4.091-0.178c1.39,0.506,2.395,1.427,3.02,2.766C87.609,37.518,87.67,38.881,87.164,40.271z
								 M82.925,36.277c-0.596-0.217-1.184-0.19-1.76,0.079c-0.577,0.269-0.973,0.7-1.19,1.297
								c-0.217,0.596-0.191,1.184,0.078,1.759c0.27,0.577,0.702,0.974,1.298,1.19c0.597,0.217,1.183,0.191,1.759-0.078
								c0.576-0.269,0.975-0.701,1.19-1.297c0.218-0.597,0.19-1.183-0.079-1.759C83.952,36.892,83.521,36.494,82.925,36.277z"/>
							<path style="fill:#FFFFFF;" d="M38.264,76.663l-10.273,4.79l1.924,4.124l9.429-4.396l1.564,3.354l-9.43,4.396l2.324,4.984
								l10.746-5.011l1.627,3.489l-14.688,6.85l-9.044-19.395l14.215-6.629L38.264,76.663z"/>
							<path style="fill:#FFFFFF;" d="M52.54,89.426l-4.763,2.221l1.633-12.82l-10.381-6.768l4.844-2.259l6.408,4.717l0.603-7.986
								l4.686-2.185L54.007,76.49l10.99,7.126l-4.921,2.295l-6.73-4.884L52.54,89.426z"/>
							<path style="fill:#FFFFFF;" d="M72.404,56.495l1.605,3.443l-5.846,2.727l7.459,15.996l-4.032,1.881l-7.46-15.996
								l-5.845,2.726l-1.606-3.443L72.404,56.495z"/>
							<path style="fill:#FFFFFF;" d="M87.411,50.108c0.858-0.025,1.675,0.146,2.45,0.513c0.641,0.302,1.221,0.695,1.739,1.182
								c0.519,0.487,0.957,1.113,1.314,1.88c0.431,0.925,0.624,1.94,0.579,3.049c-0.045,1.109-0.513,2.096-1.402,2.96
								c1.053-0.052,1.919,0.168,2.597,0.659c0.679,0.491,1.335,1.417,1.97,2.778l0.607,1.304c0.413,0.887,0.729,1.472,0.949,1.754
								c0.342,0.451,0.764,0.703,1.27,0.756l0.227,0.486l-4.44,2.071c-0.321-0.374-0.569-0.681-0.745-0.92
								c-0.356-0.496-0.672-1.028-0.946-1.595l-0.868-1.791c-0.595-1.23-1.194-1.955-1.802-2.175
								c-0.607-0.219-1.481-0.063-2.621,0.468l-3.999,1.865l3.55,7.613l-3.942,1.838l-9.064-19.44l9.283-4.329
								C85.455,50.442,86.553,50.134,87.411,50.108z M80.338,56.878l2.451,5.257l4.397-2.051c0.873-0.407,1.479-0.818,1.817-1.235
								c0.599-0.73,0.643-1.646,0.131-2.743c-0.553-1.186-1.298-1.808-2.236-1.867c-0.527-0.033-1.209,0.145-2.049,0.536
								L80.338,56.878z"/>
							<path style="fill:#FFFFFF;" d="M99.784,43.728l4.59-2.14l15.929,16.239l-4.398,2.051l-3.137-3.393l-7.158,3.339l0.542,4.602
								l-4.245,1.979L99.784,43.728z M105.151,55.955l4.979-2.321l-6.022-6.512L105.151,55.955z"/>
							<path style="fill:#FFFFFF;" d="M44.196,101.427l13.775-6.425l1.564,3.354l-9.743,4.543l2.112,4.531l8.52-3.973l1.564,3.354
								l-8.52,3.973l3.825,8.201l-4.034,1.881L44.196,101.427z"/>
							<path style="fill:#FFFFFF;" d="M73.342,88.446c0.858-0.025,1.676,0.146,2.451,0.513c0.641,0.301,1.221,0.695,1.739,1.182
								c0.519,0.487,0.957,1.113,1.313,1.88c0.432,0.924,0.625,1.94,0.579,3.049c-0.044,1.108-0.513,2.096-1.403,2.961
								c1.054-0.053,1.92,0.166,2.598,0.658c0.679,0.491,1.335,1.417,1.97,2.777l0.608,1.304c0.413,0.888,0.729,1.473,0.949,1.755
								c0.341,0.451,0.764,0.703,1.27,0.755l0.227,0.487l-4.441,2.07c-0.321-0.373-0.569-0.68-0.744-0.919
								c-0.357-0.495-0.673-1.028-0.947-1.595l-0.867-1.791c-0.595-1.23-1.195-1.955-1.803-2.175s-1.481-0.063-2.621,0.468
								l-3.998,1.865l3.55,7.612l-3.943,1.839l-9.064-19.44l9.282-4.329C71.385,88.78,72.483,88.472,73.342,88.446z M66.269,95.216
								l2.451,5.257l4.397-2.05c0.873-0.408,1.479-0.819,1.817-1.236c0.599-0.73,0.643-1.646,0.131-2.744
								c-0.552-1.185-1.298-1.807-2.235-1.866c-0.527-0.033-1.211,0.145-2.051,0.536L66.269,95.216z"/>
							<path style="fill:#FFFFFF;" d="M96.128,81.458l-10.272,4.79l1.923,4.124l9.429-4.397l1.564,3.354l-9.43,4.397l2.324,4.984
								l10.746-5.011l1.627,3.489l-14.688,6.849l-9.044-19.395l14.215-6.629L96.128,81.458z"/>
							<path style="fill:#FFFFFF;" d="M114.118,73.069l-10.272,4.79l1.923,4.123l9.429-4.396l1.563,3.354l-9.429,4.397l2.324,4.984
								l10.746-5.011l1.627,3.489l-14.688,6.849l-9.044-19.395l14.215-6.629L114.118,73.069z"/>
						</g>
					</g>
				</g>
				<g>
					<path id="path3817_3_" style="fill:#AAB2AB;" d="M3.071,154.97l85.548,0.152c1.195,0,2.263-0.177,2.263,2.385l-0.104,28.175
						H0.913v-28.279C0.913,156.139,1.035,154.97,3.071,154.97z"/>
					<g id="g5908_3_">
						<path id="path5906_3_" style="fill:#FFFFFF;" d="M26.554,169.385c0.003,5.683-4.602,10.292-10.284,10.297
							c-5.683,0.003-10.293-4.601-10.296-10.284c0-0.004,0-0.008,0-0.013c-0.003-5.683,4.601-10.293,10.284-10.296
							c5.684-0.003,10.293,4.601,10.297,10.284C26.554,169.377,26.554,169.381,26.554,169.385z"/>
						<g id="g5706_3_">
							<path d="M24.628,161.004c2.282,2.282,3.423,5.076,3.423,8.381c0,3.306-1.122,6.071-3.364,8.293
								c-2.381,2.342-5.193,3.512-8.439,3.512c-3.206,0-5.971-1.161-8.292-3.483c-2.321-2.32-3.482-5.095-3.482-8.322
								c0-3.227,1.161-6.021,3.482-8.381c2.262-2.283,5.027-3.424,8.292-3.424C19.554,157.58,22.347,158.721,24.628,161.004z
								 M9.493,162.539c-1.929,1.949-2.894,4.232-2.894,6.85c0,2.618,0.955,4.881,2.863,6.79c1.91,1.909,4.183,2.864,6.82,2.864
								c2.638,0,4.93-0.964,6.878-2.893c1.85-1.792,2.776-4.044,2.776-6.761c0-2.696-0.94-4.984-2.82-6.864
								c-1.88-1.879-4.157-2.819-6.834-2.819S11.343,160.65,9.493,162.539z M14.569,168.237c-0.294-0.643-0.736-0.964-1.324-0.964
								c-1.041,0-1.561,0.701-1.561,2.101c0,1.401,0.52,2.102,1.561,2.102c0.688,0,1.178-0.341,1.473-1.024l1.442,0.768
								c-0.688,1.221-1.719,1.832-3.094,1.832c-1.061,0-1.91-0.325-2.548-0.975c-0.639-0.65-0.958-1.547-0.958-2.69
								c0-1.123,0.329-2.014,0.987-2.674s1.478-0.99,2.46-0.99c1.453,0,2.494,0.572,3.123,1.717L14.569,168.237z M21.354,168.237
								c-0.295-0.643-0.728-0.964-1.298-0.964c-1.061,0-1.592,0.701-1.592,2.101c0,1.401,0.531,2.102,1.592,2.102
								c0.688,0,1.17-0.341,1.445-1.024l1.475,0.768c-0.687,1.221-1.716,1.832-3.089,1.832c-1.059,0-1.907-0.325-2.544-0.975
								c-0.636-0.65-0.956-1.547-0.956-2.69c0-1.123,0.323-2.014,0.971-2.674c0.647-0.66,1.47-0.99,2.471-0.99
								c1.451,0,2.49,0.572,3.117,1.717L21.354,168.237z"/>
						</g>
					</g>
					<path d="M89.367,154.639H2.195c-0.935,0-1.695,0.76-1.695,1.695v29.622c0,0.211,0.171,0.382,0.383,0.382H90.68
						c0.211,0,0.383-0.171,0.383-0.382v-29.622C91.063,155.399,90.302,154.639,89.367,154.639z M2.195,155.404h87.172
						c0.513,0,0.93,0.417,0.93,0.93c0,0,0,11.914,0,20.536H27.991c-2.284,4.129-6.684,6.933-11.732,6.933
						c-5.052,0-9.45-2.801-11.733-6.933h-3.26c0-8.622,0-20.536,0-20.536C1.266,155.821,1.683,155.404,2.195,155.404z"/>
					<g id="g334" style="enable-background:new    ;">
						<path style="fill:#FFFFFF;" d="M45.779,179.355c0.238,0,0.456,0.021,0.652,0.063c0.196,0.041,0.365,0.11,0.505,0.207
							c0.14,0.095,0.249,0.223,0.326,0.381c0.077,0.158,0.116,0.354,0.116,0.587c0,0.252-0.058,0.461-0.172,0.63
							c-0.114,0.168-0.284,0.305-0.508,0.413c0.309,0.088,0.54,0.243,0.692,0.466c0.152,0.221,0.229,0.489,0.229,0.801
							c0,0.252-0.049,0.47-0.147,0.655s-0.23,0.335-0.396,0.451c-0.166,0.117-0.355,0.204-0.568,0.259
							c-0.213,0.057-0.431,0.085-0.656,0.085h-2.427v-4.998H45.779z M45.638,181.377c0.196,0,0.357-0.047,0.484-0.141
							c0.126-0.092,0.189-0.243,0.189-0.453c0-0.117-0.021-0.212-0.063-0.287s-0.098-0.132-0.168-0.174s-0.151-0.072-0.242-0.088
							c-0.091-0.016-0.186-0.023-0.284-0.023h-1.029v1.166H45.638z M45.703,183.498c0.108,0,0.21-0.01,0.308-0.032
							c0.099-0.021,0.186-0.056,0.26-0.104c0.075-0.05,0.134-0.116,0.179-0.201c0.044-0.083,0.067-0.19,0.067-0.321
							c0-0.256-0.073-0.439-0.218-0.549s-0.337-0.164-0.575-0.164h-1.199v1.371H45.703z"/>
						<polygon id="path338" style="fill:#FFFFFF;" points="47.812,179.355 49.045,179.355 50.215,181.329 51.378,179.355 
							52.604,179.355 50.748,182.435 50.748,184.354 49.646,184.354 49.646,182.407 "/>
					</g>
					<g id="g340" style="enable-background:new    ;">
						<polygon id="path342" style="fill:#FFFFFF;" points="65.73,179.355 67.819,182.708 67.831,182.708 67.831,179.355 
							68.862,179.355 68.862,184.354 67.763,184.354 65.683,181.006 65.668,181.006 65.668,184.354 64.637,184.354 64.637,179.355 
							"/>
						<path id="path344" style="fill:#FFFFFF;" d="M73.034,180.687c-0.065-0.105-0.147-0.198-0.245-0.277s-0.209-0.142-0.333-0.186
							s-0.253-0.066-0.388-0.066c-0.248,0-0.458,0.047-0.631,0.144c-0.173,0.095-0.312,0.223-0.419,0.384
							c-0.108,0.161-0.186,0.344-0.235,0.549c-0.049,0.205-0.073,0.417-0.073,0.637c0,0.209,0.024,0.415,0.073,0.612
							c0.049,0.198,0.127,0.376,0.235,0.535c0.107,0.16,0.247,0.286,0.419,0.382c0.173,0.095,0.383,0.144,0.631,0.144
							c0.335,0,0.599-0.103,0.787-0.309c0.189-0.205,0.305-0.476,0.347-0.812h1.064c-0.028,0.312-0.101,0.595-0.217,0.847
							c-0.117,0.253-0.271,0.467-0.462,0.646c-0.191,0.177-0.416,0.313-0.672,0.407c-0.256,0.094-0.539,0.141-0.847,0.141
							c-0.383,0-0.728-0.067-1.033-0.201c-0.306-0.132-0.564-0.316-0.774-0.549c-0.211-0.233-0.372-0.508-0.484-0.823
							c-0.112-0.315-0.168-0.655-0.168-1.02c0-0.374,0.056-0.719,0.168-1.04c0.112-0.319,0.273-0.599,0.484-0.836
							c0.21-0.239,0.469-0.425,0.774-0.561c0.306-0.135,0.65-0.202,1.033-0.202c0.275,0,0.535,0.04,0.781,0.119
							c0.245,0.079,0.464,0.195,0.658,0.347c0.194,0.152,0.354,0.34,0.479,0.564s0.205,0.482,0.238,0.771H73.16
							C73.142,180.907,73.1,180.791,73.034,180.687z"/>
					</g>
					<g id="g6379_1_">
						<path id="path6381_1_" style="fill:#FFFFFF;" d="M77.266,165.945c0.003,4.152-3.359,7.52-7.512,7.523
							c-4.151,0.002-7.519-3.361-7.522-7.512c0-0.004,0-0.008,0-0.011c-0.003-4.152,3.36-7.519,7.511-7.522
							c4.152-0.002,7.52,3.36,7.522,7.511C77.266,165.938,77.266,165.942,77.266,165.945z"/>
						<path d="M69.738,157.194c2.453,0,4.527,0.846,6.221,2.538c1.694,1.692,2.542,3.764,2.542,6.214c0,2.451-0.833,4.5-2.498,6.149
							c-1.768,1.736-3.855,2.603-6.265,2.603c-2.381,0-4.433-0.861-6.156-2.583c-1.724-1.72-2.585-3.777-2.585-6.169
							c0-2.392,0.861-4.464,2.585-6.214C65.261,158.04,67.313,157.194,69.738,157.194z M62.966,163.594
							c-0.261,0.739-0.391,1.522-0.391,2.351c0,1.94,0.708,3.617,2.124,5.032c1.417,1.414,3.103,2.122,5.061,2.122
							c1.957,0,3.658-0.714,5.104-2.145c0.484-0.467,0.883-0.978,1.196-1.53l-3.3-1.469c-0.224,1.11-1.212,1.86-2.408,1.948v1.35
							h-1.005v-1.35c-0.982-0.011-1.932-0.413-2.656-1.048l1.205-1.215c0.581,0.546,1.162,0.792,1.954,0.792
							c0.513,0,1.083-0.201,1.083-0.87c0-0.237-0.092-0.401-0.236-0.525l-0.834-0.372l-1.04-0.462
							c-0.513-0.229-0.948-0.422-1.386-0.617L62.966,163.594z M69.76,158.769c-1.986,0-3.666,0.7-5.038,2.101
							c-0.375,0.377-0.699,0.771-0.976,1.182l3.346,1.49c0.302-0.928,1.184-1.492,2.254-1.554v-1.349h1.005v1.349
							c0.692,0.034,1.451,0.223,2.199,0.803l-1.15,1.182c-0.424-0.301-0.959-0.513-1.496-0.513c-0.435,0-1.049,0.133-1.049,0.679
							c0,0.084,0.027,0.157,0.079,0.222l1.119,0.498l0.757,0.338c0.484,0.216,0.947,0.421,1.406,0.625l4.484,1.997
							c0.148-0.587,0.223-1.212,0.223-1.874c0-1.999-0.701-3.69-2.103-5.076C73.432,159.469,71.745,158.769,69.76,158.769z"/>
					</g>
					<g id="g349">
						<circle id="circle351" style="fill:#FFFFFF;" cx="48.316" cy="166.124" r="8.105"/> 
						<g id="g353">
							<path id="path355" d="M50.663,163.779c0-0.312-0.253-0.565-0.565-0.565h-3.58c-0.312,0-0.565,0.253-0.565,0.565v3.58h0.999
								v4.239h2.713v-4.239h0.999V163.779z"/>
							<circle id="circle357" cx="48.307" cy="161.518" r="1.224"/> 
						</g>
						<path d="M48.296,157.194c-2.423,0-4.477,0.846-6.156,2.538c-1.723,1.75-2.584,3.822-2.584,6.213
							c0,2.392,0.861,4.449,2.584,6.17s3.776,2.582,6.156,2.582c2.41,0,4.499-0.867,6.266-2.604
							c1.665-1.648,2.497-3.697,2.497-6.148c0-2.45-0.847-4.521-2.541-6.213S50.75,157.194,48.296,157.194z M48.318,158.769
							c1.986,0,3.673,0.701,5.06,2.101c1.403,1.386,2.104,3.078,2.104,5.076c0,2.013-0.686,3.683-2.06,5.01
							c-1.446,1.43-3.147,2.144-5.104,2.144s-3.644-0.707-5.061-2.122c-1.417-1.415-2.125-3.092-2.125-5.032
							s0.716-3.632,2.147-5.076C44.652,159.47,46.333,158.769,48.318,158.769z"/>
					</g>
				</g>
			</g>
			<g>
				<g>
					<rect x="327.222" y="0.5" style="fill:#FFFFFF;stroke:#000000;" width="141.732" height="141.732"/> 
					<g>
						<path id="path3817_1_" style="fill:#AAB2AB;" d="M329.793,154.97l85.549,0.151c1.195,0,2.263-0.177,2.263,2.386l-0.104,28.175
							h-89.865v-28.279C327.635,156.139,327.757,154.97,329.793,154.97z"/>
						<g id="g5908_1_">
							<path id="path5906_1_" style="fill:#FFFFFF;" d="M353.275,169.385c0.003,5.683-4.602,10.293-10.284,10.297
								c-5.683,0.003-10.293-4.602-10.296-10.284c0-0.005,0-0.009,0-0.013c-0.003-5.684,4.601-10.293,10.284-10.297
								c5.684-0.002,10.293,4.602,10.297,10.285C353.275,169.377,353.275,169.381,353.275,169.385z"/>
							<g id="g5706_1_">
								<path d="M351.35,161.004c2.282,2.281,3.423,5.076,3.423,8.381c0,3.307-1.122,6.07-3.364,8.293
									c-2.381,2.342-5.193,3.513-8.439,3.513c-3.206,0-5.971-1.161-8.292-3.483c-2.321-2.32-3.482-5.095-3.482-8.322
									c0-3.227,1.161-6.021,3.482-8.381c2.262-2.283,5.027-3.424,8.292-3.424C346.275,157.58,349.068,158.721,351.35,161.004z
									 M336.215,162.538c-1.929,1.948-2.894,4.231-2.894,6.85s0.955,4.882,2.863,6.79c1.91,1.908,4.183,2.863,6.82,2.863
									c2.638,0,4.93-0.963,6.878-2.893c1.85-1.791,2.776-4.045,2.776-6.761c0-2.696-0.94-4.983-2.82-6.864
									c-1.88-1.879-4.157-2.818-6.834-2.818S338.064,160.649,336.215,162.538z M341.291,168.236
									c-0.294-0.643-0.736-0.965-1.324-0.965c-1.041,0-1.561,0.701-1.561,2.102s0.52,2.102,1.561,2.102
									c0.688,0,1.178-0.342,1.473-1.025l1.442,0.769c-0.688,1.222-1.719,1.831-3.094,1.831c-1.061,0-1.91-0.324-2.548-0.975
									c-0.639-0.65-0.958-1.547-0.958-2.689c0-1.123,0.329-2.014,0.987-2.674s1.478-0.99,2.46-0.99
									c1.453,0,2.494,0.572,3.123,1.717L341.291,168.236z M348.076,168.236c-0.295-0.643-0.728-0.965-1.298-0.965
									c-1.061,0-1.592,0.701-1.592,2.102s0.531,2.102,1.592,2.102c0.688,0,1.17-0.342,1.445-1.025l1.475,0.769
									c-0.687,1.222-1.716,1.831-3.089,1.831c-1.059,0-1.907-0.324-2.544-0.975c-0.636-0.65-0.956-1.547-0.956-2.689
									c0-1.123,0.323-2.014,0.971-2.674c0.647-0.66,1.47-0.99,2.471-0.99c1.451,0,2.49,0.572,3.117,1.717L348.076,168.236z"/>
							</g>
						</g>
						<path d="M416.089,154.639h-87.172c-0.935,0-1.695,0.76-1.695,1.695v29.621c0,0.211,0.171,0.383,0.383,0.383h89.797
							c0.211,0,0.384-0.172,0.384-0.383v-29.621C417.785,155.398,417.023,154.639,416.089,154.639z M328.917,155.404h87.172
							c0.513,0,0.93,0.416,0.93,0.93c0,0,0,11.914,0,20.535h-62.306c-2.284,4.129-6.684,6.934-11.732,6.934
							c-5.052,0-9.45-2.801-11.733-6.934h-3.26c0-8.621,0-20.535,0-20.535C327.987,155.82,328.404,155.404,328.917,155.404z"/>
						<g id="g334_1_" style="enable-background:new    ;">
							<path style="fill:#FFFFFF;" d="M372.5,179.355c0.238,0,0.456,0.02,0.652,0.062c0.196,0.041,0.365,0.109,0.505,0.207
								c0.14,0.095,0.249,0.223,0.326,0.381c0.077,0.158,0.116,0.354,0.116,0.587c0,0.252-0.058,0.462-0.172,0.63
								c-0.114,0.168-0.284,0.305-0.508,0.413c0.309,0.088,0.54,0.243,0.692,0.466c0.152,0.221,0.229,0.489,0.229,0.801
								c0,0.252-0.049,0.471-0.147,0.655s-0.23,0.335-0.396,0.451c-0.166,0.117-0.355,0.204-0.568,0.259
								c-0.213,0.058-0.431,0.086-0.656,0.086h-2.427v-4.998H372.5z M372.36,181.377c0.196,0,0.357-0.047,0.484-0.141
								c0.126-0.093,0.189-0.244,0.189-0.453c0-0.117-0.021-0.213-0.063-0.287s-0.098-0.132-0.168-0.174
								c-0.07-0.043-0.151-0.072-0.242-0.088c-0.091-0.017-0.186-0.023-0.284-0.023h-1.029v1.166H372.36z M372.424,183.498
								c0.108,0,0.21-0.011,0.308-0.033c0.099-0.02,0.186-0.055,0.26-0.104c0.075-0.05,0.134-0.115,0.179-0.201
								c0.044-0.083,0.067-0.189,0.067-0.32c0-0.256-0.073-0.439-0.218-0.549c-0.145-0.11-0.337-0.164-0.575-0.164h-1.199v1.371
								H372.424z"/>
							<polygon id="path338_1_" style="fill:#FFFFFF;" points="374.534,179.355 375.767,179.355 376.937,181.328 378.1,179.355 
								379.325,179.355 377.47,182.434 377.47,184.354 376.368,184.354 376.368,182.406 "/>
						</g>
						<g id="g340_1_" style="enable-background:new    ;">
							<polygon id="path342_1_" style="fill:#FFFFFF;" points="392.452,179.355 394.541,182.708 394.553,182.708 394.553,179.355 
								395.584,179.355 395.584,184.354 394.484,184.354 392.404,181.006 392.39,181.006 392.39,184.354 391.359,184.354 
								391.359,179.355 "/>
							<path id="path344_1_" style="fill:#FFFFFF;" d="M399.756,180.687c-0.064-0.105-0.146-0.198-0.245-0.276
								c-0.099-0.08-0.209-0.143-0.333-0.187c-0.123-0.044-0.253-0.065-0.388-0.065c-0.247,0-0.458,0.047-0.631,0.143
								s-0.312,0.223-0.419,0.385c-0.108,0.16-0.187,0.344-0.235,0.549c-0.05,0.205-0.073,0.418-0.073,0.637
								c0,0.21,0.023,0.415,0.073,0.613c0.049,0.197,0.127,0.376,0.235,0.534c0.106,0.159,0.246,0.286,0.419,0.382
								s0.384,0.145,0.631,0.145c0.335,0,0.599-0.104,0.787-0.31c0.189-0.205,0.305-0.476,0.347-0.812h1.064
								c-0.028,0.312-0.101,0.595-0.217,0.847c-0.117,0.253-0.271,0.468-0.463,0.646c-0.19,0.178-0.415,0.314-0.672,0.408
								c-0.256,0.094-0.539,0.141-0.847,0.141c-0.383,0-0.728-0.068-1.033-0.201c-0.306-0.132-0.564-0.316-0.774-0.549
								c-0.211-0.233-0.372-0.509-0.484-0.824c-0.111-0.314-0.168-0.654-0.168-1.02c0-0.373,0.057-0.719,0.168-1.039
								c0.112-0.32,0.273-0.6,0.484-0.837c0.21-0.239,0.469-0.425,0.774-0.562c0.306-0.135,0.65-0.201,1.033-0.201
								c0.275,0,0.535,0.039,0.78,0.118s0.465,0.194,0.658,0.347c0.194,0.152,0.354,0.34,0.479,0.564s0.205,0.482,0.238,0.771
								h-1.064C399.863,180.906,399.821,180.791,399.756,180.687z"/>
						</g>
						<g id="g6379_2_">
							<path id="path6381_2_" style="fill:#FFFFFF;" d="M403.987,165.945c0.003,4.151-3.359,7.52-7.512,7.522
								c-4.151,0.003-7.519-3.36-7.522-7.512c0-0.005,0-0.008,0-0.011c-0.003-4.152,3.36-7.52,7.511-7.523
								c4.152-0.002,7.52,3.361,7.522,7.512C403.987,165.938,403.987,165.941,403.987,165.945z"/>
							<path d="M396.459,157.193c2.453,0,4.527,0.846,6.222,2.537c1.694,1.693,2.542,3.764,2.542,6.215
								c0,2.45-0.833,4.5-2.498,6.148c-1.768,1.736-3.855,2.604-6.266,2.604c-2.381,0-4.432-0.861-6.155-2.583
								c-1.724-1.72-2.585-3.776-2.585-6.169s0.861-4.465,2.585-6.215C391.983,158.039,394.035,157.193,396.459,157.193z
								 M389.688,163.594c-0.261,0.738-0.391,1.521-0.391,2.352c0,1.939,0.708,3.617,2.124,5.031s3.103,2.123,5.061,2.123
								c1.957,0,3.657-0.715,5.104-2.145c0.484-0.467,0.884-0.979,1.196-1.531l-3.3-1.469c-0.224,1.109-1.212,1.859-2.408,1.947
								v1.35h-1.005v-1.35c-0.982-0.011-1.932-0.412-2.656-1.047l1.205-1.216c0.58,0.546,1.161,0.792,1.953,0.792
								c0.514,0,1.083-0.201,1.083-0.871c0-0.236-0.093-0.4-0.236-0.525l-0.835-0.371l-1.039-0.463
								c-0.514-0.229-0.948-0.422-1.386-0.617L389.688,163.594z M396.481,158.769c-1.986,0-3.666,0.7-5.038,2.101
								c-0.375,0.377-0.699,0.771-0.976,1.182l3.347,1.49c0.301-0.928,1.184-1.492,2.254-1.555v-1.349h1.005v1.349
								c0.692,0.034,1.451,0.224,2.198,0.803l-1.149,1.183c-0.424-0.301-0.96-0.513-1.495-0.513c-0.436,0-1.049,0.133-1.049,0.68
								c0,0.084,0.026,0.156,0.078,0.222l1.119,0.498l0.757,0.338c0.484,0.216,0.947,0.421,1.405,0.626l4.484,1.996
								c0.148-0.588,0.223-1.212,0.223-1.873c0-2-0.701-3.69-2.103-5.076C400.154,159.469,398.467,158.769,396.481,158.769z"/>
						</g>
						<g id="g349_1_">
							<circle id="circle351_1_" style="fill:#FFFFFF;" cx="375.038" cy="166.124" r="8.105"/> 
							<g id="g353_1_">
								<path id="path355_1_" d="M377.384,163.779c0-0.312-0.253-0.566-0.565-0.566h-3.58c-0.312,0-0.565,0.254-0.565,0.566v3.579
									h0.999v4.239h2.713v-4.239h0.999V163.779z"/>
								<circle id="circle357_1_" cx="375.029" cy="161.518" r="1.225"/> 
							</g>
							<path d="M375.018,157.193c-2.423,0-4.477,0.846-6.156,2.538c-1.723,1.751-2.584,3.821-2.584,6.214
								c0,2.392,0.861,4.449,2.584,6.17s3.776,2.582,6.156,2.582c2.41,0,4.499-0.867,6.266-2.604
								c1.665-1.648,2.497-3.697,2.497-6.148s-0.847-4.521-2.541-6.214S377.472,157.193,375.018,157.193z M375.04,158.769
								c1.986,0,3.673,0.7,5.06,2.101c1.403,1.386,2.104,3.078,2.104,5.076c0,2.012-0.686,3.683-2.06,5.01
								c-1.446,1.43-3.147,2.145-5.104,2.145s-3.644-0.707-5.061-2.123c-1.417-1.414-2.125-3.092-2.125-5.031
								c0-1.94,0.716-3.633,2.147-5.076C371.374,159.469,373.054,158.769,375.04,158.769z"/>
						</g>
					</g>
				</g>
				<g>
					<polygon style="fill:#FF0000;" points="378.536,29.582 379.491,7.389 392.06,25.703 399.824,4.893 406.12,26.194 
						419.935,8.801 419.339,31.005 437.853,18.733 430.425,39.667 451.825,33.717 438.291,51.33 460.483,52.284 442.169,64.853 
						462.979,72.619 441.678,78.913 459.07,92.729 436.866,92.132 449.138,110.646 428.205,103.219 434.155,124.619 
						416.542,111.084 415.588,133.277 403.019,114.962 395.254,135.774 388.96,114.471 375.144,131.864 375.74,109.66 
						357.226,121.932 364.654,100.999 343.254,106.948 356.787,89.336 334.596,88.382 352.91,75.813 332.099,68.047 353.401,61.753 
						336.008,47.937 358.212,48.534 345.94,30.019 366.873,37.448 360.922,16.048 "/>
					<g>
						<path style="fill:#FFFFFF;" d="M370.943,71.889c0.54,0.766,1.126,1.275,1.761,1.531c0.635,0.255,1.359,0.194,2.17-0.185
							c0.935-0.436,1.493-1.103,1.672-1.997c0.179-0.894,0.034-1.846-0.438-2.856c-0.461-0.991-1.083-1.722-1.86-2.193
							c-0.778-0.469-1.653-0.478-2.623-0.025c-0.459,0.214-0.83,0.456-1.112,0.725c-0.495,0.484-0.761,1.079-0.798,1.783
							l-3.463,1.447l-3.592-11.26l10.605-4.945l1.495,3.206l-7.878,3.674l1.277,4.54c0.406-0.65,0.744-1.115,1.014-1.391
							c0.453-0.458,1.072-0.871,1.859-1.237c1.589-0.742,3.227-0.85,4.911-0.328c1.685,0.523,3.005,1.811,3.962,3.862
							c0.833,1.786,1.005,3.647,0.517,5.583c-0.489,1.937-1.872,3.435-4.147,4.497c-1.833,0.854-3.57,1.063-5.208,0.627
							c-1.638-0.438-2.946-1.531-3.924-3.283L370.943,71.889z"/>
						<path style="fill:#FFFFFF;" d="M388.85,49.362c1.797,1.269,3.44,3.497,4.927,6.685c1.486,3.187,2.134,5.873,1.947,8.057
							c-0.187,2.185-1.512,3.85-3.973,4.998c-2.461,1.147-4.589,1.092-6.383-0.169c-1.793-1.259-3.433-3.483-4.919-6.67
							c-1.487-3.188-2.138-5.877-1.955-8.071c0.183-2.192,1.506-3.863,3.967-5.011C384.922,48.032,387.051,48.093,388.85,49.362z
							 M387.264,65.298c0.914,1.013,1.93,1.26,3.053,0.737c1.12-0.523,1.58-1.458,1.376-2.803c-0.204-1.346-0.826-3.135-1.866-5.368
							c-1.091-2.34-2.074-3.991-2.947-4.955c-0.873-0.961-1.872-1.182-2.992-0.66c-1.122,0.523-1.6,1.433-1.438,2.726
							c0.163,1.295,0.791,3.112,1.881,5.452C385.373,62.659,386.35,64.283,387.264,65.298z"/>
						<path style="fill:#FFFFFF;" d="M403.106,50.015c-0.506,1.401-1.439,2.419-2.8,3.054c-1.352,0.63-2.73,0.69-4.135,0.179
							c-1.403-0.51-2.419-1.442-3.05-2.796c-0.63-1.352-0.691-2.729-0.18-4.133c0.51-1.405,1.443-2.421,2.795-3.051
							c1.353-0.631,2.729-0.69,4.133-0.18c1.404,0.51,2.421,1.442,3.052,2.794C403.552,47.236,403.614,48.613,403.106,50.015z
							 M400.206,48.964c0.22-0.603,0.193-1.194-0.079-1.778c-0.271-0.582-0.708-0.984-1.311-1.203
							c-0.602-0.22-1.195-0.193-1.778,0.078c-0.583,0.272-0.983,0.71-1.203,1.312c-0.219,0.603-0.192,1.196,0.079,1.778
							c0.272,0.583,0.709,0.985,1.312,1.204c0.602,0.219,1.195,0.193,1.777-0.079C399.586,50.004,399.987,49.565,400.206,48.964z
							 M406.593,38.094l2.061-0.96l-1.648,24.854l-2.061,0.961L406.593,38.094z M420.677,53.753
							c-0.511,1.404-1.442,2.42-2.795,3.051s-2.73,0.691-4.134,0.18c-1.403-0.511-2.42-1.442-3.051-2.795
							c-0.635-1.361-0.696-2.741-0.184-4.14c0.513-1.4,1.445-2.415,2.799-3.045c1.353-0.631,2.729-0.69,4.134-0.18
							c1.404,0.511,2.42,1.442,3.051,2.795C421.128,50.971,421.188,52.349,420.677,53.753z M416.393,49.719
							c-0.603-0.22-1.194-0.192-1.777,0.078c-0.583,0.272-0.984,0.708-1.203,1.312c-0.22,0.603-0.193,1.195,0.079,1.777
							c0.271,0.583,0.708,0.985,1.311,1.203c0.604,0.22,1.195,0.193,1.778-0.079c0.582-0.271,0.983-0.708,1.202-1.311
							c0.221-0.602,0.193-1.194-0.079-1.777C417.432,50.339,416.995,49.938,416.393,49.719z"/>
						<path style="fill:#FFFFFF;" d="M392.959,97.867c-0.772,2.217-2.562,3.98-5.368,5.288c-2.806,1.309-5.307,1.546-7.5,0.712
							c-2.861-0.942-5.113-3.174-6.753-6.694c-1.675-3.591-1.937-6.749-0.788-9.477c0.772-2.216,2.562-3.979,5.369-5.288
							c2.806-1.309,5.306-1.546,7.5-0.713c2.819,0.877,5.066,3.109,6.741,6.7C393.801,91.917,394.067,95.073,392.959,97.867z
							 M389.025,96.067c0.4-1.642,0.085-3.565-0.942-5.771c-1.023-2.194-2.294-3.669-3.81-4.423c-1.517-0.752-3.09-0.75-4.718,0.01
							c-1.63,0.76-2.651,1.965-3.064,3.612c-0.413,1.647-0.105,3.573,0.923,5.777c1.028,2.205,2.306,3.679,3.833,4.422
							c1.527,0.742,3.106,0.734,4.735-0.026C387.611,98.908,388.625,97.708,389.025,96.067z"/>
						<path style="fill:#FFFFFF;" d="M390.713,77.167l13.921-6.491l1.581,3.39l-9.846,4.591l2.135,4.58l8.61-4.016l1.58,3.389
							l-8.609,4.015l3.865,8.29l-4.076,1.9L390.713,77.167z"/>
						<path style="fill:#FFFFFF;" d="M407.363,69.403l13.923-6.492l1.58,3.39l-9.846,4.591l2.135,4.58l8.609-4.016l1.58,3.39
							l-8.609,4.014l3.866,8.29l-4.077,1.901L407.363,69.403z"/>
						<path style="fill:#FFFFFF;" d="M424.952,61.257l4.168-1.944l2.322,4.984l3.223,9.66l-2.016,0.939l-5.373-8.655L424.952,61.257
							z M432.39,76.969l3.984-1.858l1.793,3.847l-3.984,1.858L432.39,76.969z"/>
					</g>
				</g>
			</g>
			<g>
				<g>
					<rect x="653.943" y="0.5" style="fill:#FFFFFF;stroke:#000000;" width="141.732" height="141.732"/> 
					<g>
						<path id="path3817_4_" style="fill:#AAB2AB;" d="M656.515,154.97l85.549,0.151c1.195,0,2.263-0.177,2.263,2.386l-0.104,28.175
							h-89.865v-28.279C654.356,156.139,654.479,154.97,656.515,154.97z"/>
						<g id="g5908_4_">
							<path id="path5906_4_" style="fill:#FFFFFF;" d="M679.997,169.385c0.004,5.683-4.602,10.293-10.284,10.297
								c-5.683,0.003-10.294-4.602-10.296-10.284c0-0.005,0-0.009,0-0.013c-0.004-5.684,4.601-10.293,10.283-10.297
								c5.684-0.002,10.293,4.602,10.297,10.285C679.997,169.377,679.997,169.381,679.997,169.385z"/>
							<g id="g5706_4_">
								<path d="M678.071,161.004c2.282,2.281,3.424,5.076,3.424,8.381c0,3.307-1.122,6.07-3.364,8.293
									c-2.381,2.342-5.193,3.513-8.439,3.513c-3.206,0-5.971-1.161-8.292-3.483c-2.32-2.32-3.481-5.095-3.481-8.322
									c0-3.227,1.161-6.021,3.481-8.381c2.263-2.283,5.027-3.424,8.292-3.424C672.997,157.58,675.79,158.721,678.071,161.004z
									 M662.937,162.538c-1.93,1.948-2.894,4.231-2.894,6.85s0.955,4.882,2.863,6.79c1.909,1.908,4.183,2.863,6.82,2.863
									s4.931-0.963,6.878-2.893c1.851-1.791,2.776-4.045,2.776-6.761c0-2.696-0.94-4.983-2.82-6.864
									c-1.88-1.879-4.157-2.818-6.834-2.818S664.786,160.649,662.937,162.538z M668.013,168.236
									c-0.294-0.643-0.736-0.965-1.324-0.965c-1.041,0-1.561,0.701-1.561,2.102s0.52,2.102,1.561,2.102
									c0.688,0,1.178-0.342,1.473-1.025l1.441,0.769c-0.688,1.222-1.719,1.831-3.094,1.831c-1.061,0-1.91-0.324-2.548-0.975
									c-0.64-0.65-0.958-1.547-0.958-2.689c0-1.123,0.329-2.014,0.987-2.674s1.478-0.99,2.46-0.99
									c1.453,0,2.494,0.572,3.123,1.717L668.013,168.236z M674.798,168.236c-0.295-0.643-0.728-0.965-1.298-0.965
									c-1.062,0-1.592,0.701-1.592,2.102s0.53,2.102,1.592,2.102c0.688,0,1.17-0.342,1.445-1.025l1.475,0.769
									c-0.687,1.222-1.716,1.831-3.089,1.831c-1.059,0-1.907-0.324-2.545-0.975c-0.636-0.65-0.955-1.547-0.955-2.689
									c0-1.123,0.323-2.014,0.971-2.674c0.646-0.66,1.471-0.99,2.471-0.99c1.451,0,2.49,0.572,3.117,1.717L674.798,168.236z"/>
							</g>
						</g>
						<path d="M742.811,154.639h-87.172c-0.935,0-1.695,0.76-1.695,1.695v29.621c0,0.211,0.171,0.383,0.383,0.383h89.797
							c0.211,0,0.384-0.172,0.384-0.383v-29.621C744.507,155.398,743.745,154.639,742.811,154.639z M655.639,155.404h87.172
							c0.513,0,0.93,0.416,0.93,0.93c0,0,0,11.914,0,20.535h-62.306c-2.283,4.129-6.684,6.934-11.732,6.934
							c-5.052,0-9.45-2.801-11.732-6.934h-3.261c0-8.621,0-20.535,0-20.535C654.709,155.82,655.126,155.404,655.639,155.404z"/>
						<g id="g334_3_" style="enable-background:new    ;">
							<path style="fill:#FFFFFF;" d="M699.222,179.355c0.238,0,0.456,0.02,0.652,0.062c0.196,0.041,0.365,0.109,0.506,0.207
								c0.14,0.095,0.248,0.223,0.325,0.381s0.116,0.354,0.116,0.587c0,0.252-0.058,0.462-0.172,0.63
								c-0.115,0.168-0.285,0.305-0.509,0.413c0.31,0.088,0.54,0.243,0.692,0.466c0.152,0.221,0.229,0.489,0.229,0.801
								c0,0.252-0.049,0.471-0.147,0.655s-0.23,0.335-0.396,0.451c-0.166,0.117-0.355,0.204-0.568,0.259
								c-0.213,0.058-0.431,0.086-0.656,0.086h-2.427v-4.998H699.222z M699.081,181.377c0.197,0,0.357-0.047,0.484-0.141
								c0.126-0.093,0.189-0.244,0.189-0.453c0-0.117-0.021-0.213-0.063-0.287s-0.098-0.132-0.168-0.174
								c-0.07-0.043-0.151-0.072-0.242-0.088c-0.091-0.017-0.186-0.023-0.284-0.023h-1.029v1.166H699.081z M699.146,183.498
								c0.108,0,0.211-0.011,0.309-0.033c0.099-0.02,0.186-0.055,0.26-0.104c0.075-0.05,0.135-0.115,0.18-0.201
								c0.044-0.083,0.066-0.189,0.066-0.32c0-0.256-0.072-0.439-0.218-0.549c-0.146-0.11-0.337-0.164-0.575-0.164h-1.199v1.371
								H699.146z"/>
							<polygon id="path338_3_" style="fill:#FFFFFF;" points="701.255,179.355 702.488,179.355 703.658,181.328 704.821,179.355 
								706.047,179.355 704.191,182.434 704.191,184.354 703.09,184.354 703.09,182.406 "/>
						</g>
						<g id="g340_3_" style="enable-background:new    ;">
							<polygon id="path342_3_" style="fill:#FFFFFF;" points="719.174,179.355 721.263,182.708 721.274,182.708 721.274,179.355 
								722.306,179.355 722.306,184.354 721.206,184.354 719.126,181.006 719.112,181.006 719.112,184.354 718.081,184.354 
								718.081,179.355 "/>
							<path id="path344_3_" style="fill:#FFFFFF;" d="M726.478,180.687c-0.064-0.105-0.146-0.198-0.245-0.276
								c-0.099-0.08-0.209-0.143-0.333-0.187c-0.123-0.044-0.253-0.065-0.388-0.065c-0.247,0-0.458,0.047-0.631,0.143
								s-0.312,0.223-0.419,0.385c-0.108,0.16-0.187,0.344-0.235,0.549c-0.05,0.205-0.073,0.418-0.073,0.637
								c0,0.21,0.023,0.415,0.073,0.613c0.049,0.197,0.127,0.376,0.235,0.534c0.106,0.159,0.246,0.286,0.419,0.382
								s0.384,0.145,0.631,0.145c0.335,0,0.599-0.104,0.787-0.31c0.189-0.205,0.305-0.476,0.347-0.812h1.064
								c-0.028,0.312-0.101,0.595-0.217,0.847c-0.117,0.253-0.271,0.468-0.463,0.646c-0.19,0.178-0.415,0.314-0.672,0.408
								c-0.256,0.094-0.539,0.141-0.847,0.141c-0.383,0-0.728-0.068-1.033-0.201c-0.306-0.132-0.564-0.316-0.774-0.549
								c-0.211-0.233-0.372-0.509-0.484-0.824c-0.111-0.314-0.168-0.654-0.168-1.02c0-0.373,0.057-0.719,0.168-1.039
								c0.112-0.32,0.273-0.6,0.484-0.837c0.21-0.239,0.469-0.425,0.774-0.562c0.306-0.135,0.65-0.201,1.033-0.201
								c0.275,0,0.535,0.039,0.78,0.118s0.465,0.194,0.658,0.347c0.194,0.152,0.354,0.34,0.479,0.564s0.205,0.482,0.238,0.771
								h-1.064C726.585,180.906,726.543,180.791,726.478,180.687z"/>
						</g>
						<g id="g6379_4_">
							<path id="path6381_4_" style="fill:#FFFFFF;" d="M730.709,165.945c0.003,4.151-3.359,7.52-7.512,7.522
								c-4.151,0.003-7.519-3.36-7.522-7.512c0-0.005,0-0.008,0-0.011c-0.002-4.152,3.36-7.52,7.512-7.523
								c4.152-0.002,7.52,3.361,7.522,7.512C730.709,165.938,730.709,165.941,730.709,165.945z"/>
							<path d="M723.181,157.193c2.453,0,4.527,0.846,6.222,2.537c1.694,1.693,2.542,3.764,2.542,6.215
								c0,2.45-0.833,4.5-2.498,6.148c-1.768,1.736-3.855,2.604-6.266,2.604c-2.381,0-4.432-0.861-6.155-2.583
								c-1.724-1.72-2.585-3.776-2.585-6.169s0.861-4.465,2.585-6.215C718.704,158.039,720.757,157.193,723.181,157.193z
								 M716.409,163.594c-0.261,0.738-0.391,1.521-0.391,2.352c0,1.939,0.707,3.617,2.123,5.031
								c1.417,1.414,3.104,2.123,5.062,2.123c1.957,0,3.657-0.715,5.104-2.145c0.484-0.467,0.884-0.979,1.196-1.531l-3.3-1.469
								c-0.224,1.109-1.212,1.859-2.408,1.947v1.35h-1.005v-1.35c-0.982-0.011-1.932-0.412-2.656-1.047l1.205-1.216
								c0.58,0.546,1.161,0.792,1.953,0.792c0.514,0,1.083-0.201,1.083-0.871c0-0.236-0.093-0.4-0.236-0.525l-0.835-0.371
								l-1.039-0.463c-0.514-0.229-0.948-0.422-1.386-0.617L716.409,163.594z M723.203,158.769c-1.986,0-3.666,0.7-5.038,2.101
								c-0.375,0.377-0.699,0.771-0.976,1.182l3.347,1.49c0.301-0.928,1.184-1.492,2.254-1.555v-1.349h1.005v1.349
								c0.692,0.034,1.451,0.224,2.198,0.803l-1.149,1.183c-0.424-0.301-0.96-0.513-1.495-0.513c-0.436,0-1.049,0.133-1.049,0.68
								c0,0.084,0.026,0.156,0.078,0.222l1.119,0.498l0.757,0.338c0.484,0.216,0.947,0.421,1.405,0.626l4.484,1.996
								c0.148-0.588,0.223-1.212,0.223-1.873c0-2-0.701-3.69-2.103-5.076C726.876,159.469,725.188,158.769,723.203,158.769z"/>
						</g>
						<g id="g349_3_">
							<circle id="circle351_3_" style="fill:#FFFFFF;" cx="701.76" cy="166.124" r="8.105"/> 
							<g id="g353_3_">
								<path id="path355_3_" d="M704.106,163.779c0-0.312-0.254-0.566-0.566-0.566h-3.579c-0.312,0-0.565,0.254-0.565,0.566v3.579
									h0.998v4.239h2.713v-4.239h1V163.779z"/>
								<circle id="circle357_3_" cx="701.751" cy="161.518" r="1.225"/> 
							</g>
							<path d="M701.739,157.193c-2.424,0-4.477,0.846-6.156,2.538c-1.723,1.751-2.584,3.821-2.584,6.214
								c0,2.392,0.861,4.449,2.584,6.17c1.724,1.721,3.776,2.582,6.156,2.582c2.41,0,4.499-0.867,6.266-2.604
								c1.665-1.648,2.497-3.697,2.497-6.148s-0.847-4.521-2.54-6.214C706.268,158.039,704.193,157.193,701.739,157.193z
								 M701.762,158.769c1.986,0,3.673,0.7,5.06,2.101c1.403,1.386,2.104,3.078,2.104,5.076c0,2.012-0.686,3.683-2.059,5.01
								c-1.446,1.43-3.147,2.145-5.104,2.145s-3.644-0.707-5.061-2.123c-1.417-1.414-2.125-3.092-2.125-5.031
								c0-1.94,0.716-3.633,2.147-5.076C698.096,159.469,699.776,158.769,701.762,158.769z"/>
						</g>
					</g>
				</g>
				<g>
					<rect x="658.863" y="51.332" width="131.13" height="36.537"/> 
					<g>
						<path style="fill:#FFFF00;" d="M671.5,55.341c0.409,0.571,0.614,1.253,0.614,2.047c0,0.82-0.206,1.478-0.615,1.975
							c-0.229,0.28-0.567,0.534-1.013,0.765c0.683,0.249,1.197,0.644,1.544,1.184c0.348,0.54,0.522,1.196,0.522,1.967
							c0,0.796-0.2,1.51-0.597,2.141c-0.253,0.419-0.569,0.771-0.948,1.056c-0.428,0.329-0.933,0.554-1.513,0.674
							c-0.581,0.122-1.212,0.182-1.892,0.182h-6.031V53.913h6.461C669.664,53.937,670.82,54.413,671.5,55.341z M664.23,56.227v2.972
							h3.242c0.578,0,1.049-0.11,1.409-0.334c0.36-0.222,0.542-0.617,0.542-1.183c0-0.628-0.239-1.043-0.716-1.244
							c-0.413-0.14-0.938-0.21-1.576-0.21H664.23z M664.23,61.42v3.597h3.263c0.583,0,1.036-0.079,1.36-0.237
							c0.588-0.293,0.883-0.854,0.883-1.685c0-0.702-0.285-1.184-0.855-1.446c-0.318-0.146-0.766-0.223-1.343-0.229H664.23z"/>
						<path style="fill:#FFFF00;" d="M674.955,53.913h2.848v8.239c0,0.922,0.107,1.595,0.326,2.02
							c0.338,0.751,1.074,1.127,2.212,1.127c1.13,0,1.864-0.376,2.202-1.127c0.217-0.424,0.326-1.097,0.326-2.02v-8.239h2.847v8.248
							c0,1.426-0.221,2.537-0.663,3.332c-0.822,1.456-2.395,2.185-4.712,2.185c-2.319,0-3.894-0.729-4.723-2.185
							c-0.442-0.794-0.663-1.905-0.663-3.332V53.913z"/>
						<path style="fill:#FFFF00;" d="M696.027,53.913h3.17l-4.477,8.394v5.026h-2.784v-5.017l-4.632-8.403h3.297l2.773,5.845
							L696.027,53.913z"/>
						<path style="fill:#FFFF00;" d="M715.992,66.114c-1.012,1.042-2.478,1.562-4.395,1.562s-3.382-0.521-4.395-1.562
							c-1.359-1.278-2.038-3.119-2.038-5.522c0-2.453,0.679-4.294,2.038-5.523c1.013-1.042,2.478-1.562,4.395-1.562
							s3.383,0.521,4.395,1.562c1.353,1.229,2.029,3.07,2.029,5.523C718.021,62.995,717.345,64.835,715.992,66.114z M714.256,64.074
							c0.654-0.816,0.981-1.977,0.981-3.483c0-1.5-0.327-2.66-0.981-3.479c-0.653-0.819-1.537-1.229-2.649-1.229
							s-2.001,0.409-2.663,1.225c-0.663,0.816-0.994,1.978-0.994,3.483c0,1.506,0.331,2.667,0.994,3.483
							c0.662,0.816,1.551,1.225,2.663,1.225S713.603,64.891,714.256,64.074z"/>
						<path style="fill:#FFFF00;" d="M720.148,53.913h2.921l5.306,9.338v-9.338h2.596v13.419h-2.786l-5.44-9.513v9.513h-2.596
							V53.913z"/>
						<path style="fill:#FFFF00;" d="M743.5,56.321h-7.092v2.847h6.51v2.315h-6.51v3.44h7.419v2.409h-10.14V53.944h9.812V56.321z"/>
						<path style="fill:#FFFF00;" d="M760.194,58.136c-0.212-0.916-0.728-1.557-1.548-1.921c-0.458-0.2-0.967-0.3-1.527-0.3
							c-1.074,0-1.956,0.406-2.646,1.217c-0.69,0.812-1.035,2.032-1.035,3.66c0,1.642,0.373,2.803,1.121,3.484
							c0.749,0.682,1.6,1.022,2.554,1.022c0.935,0,1.702-0.268,2.298-0.804c0.598-0.536,0.967-1.238,1.105-2.105h-3.074v-2.253
							h5.568v7.195h-1.846l-0.297-1.674c-0.539,0.633-1.023,1.08-1.453,1.339c-0.74,0.452-1.647,0.679-2.725,0.679
							c-1.775,0-3.228-0.614-4.359-1.842c-1.181-1.234-1.771-2.922-1.771-5.065c0-2.166,0.597-3.902,1.792-5.209
							c1.195-1.307,2.774-1.96,4.74-1.96c1.704,0,3.073,0.433,4.107,1.298c1.034,0.865,1.627,1.944,1.779,3.238H760.194z"/>
						<path style="fill:#FFFF00;" d="M775.574,56.321h-7.092v2.847h6.51v2.315h-6.51v3.44h7.418v2.409h-10.139V53.944h9.812V56.321z
							"/>
						<path style="fill:#FFFF00;" d="M787.846,53.913v2.377h-4.035v11.042h-2.783V56.29h-4.036v-2.377H787.846z"/>
						<path style="fill:#FFFF00;" d="M671.836,84.132c-1.012,1.042-2.478,1.562-4.395,1.562s-3.381-0.521-4.395-1.562
							c-1.358-1.278-2.038-3.119-2.038-5.523c0-2.453,0.68-4.292,2.038-5.522c1.014-1.041,2.478-1.562,4.395-1.562
							s3.383,0.521,4.395,1.562c1.354,1.23,2.03,3.07,2.03,5.522C673.866,81.013,673.189,82.854,671.836,84.132z M670.101,82.092
							c0.653-0.816,0.981-1.978,0.981-3.484c0-1.499-0.328-2.659-0.981-3.479c-0.653-0.819-1.538-1.229-2.649-1.229
							c-1.113,0-2.001,0.409-2.664,1.225c-0.663,0.816-0.994,1.977-0.994,3.482c0,1.506,0.331,2.667,0.994,3.484
							s1.551,1.225,2.664,1.225C668.562,83.317,669.447,82.909,670.101,82.092z"/>
						<path style="fill:#FFFF00;" d="M675.992,71.931h2.922l5.305,9.339v-9.339h2.597V85.35h-2.786l-5.441-9.512v9.512h-2.596
							V71.931z"/>
						<path style="fill:#FFFF00;" d="M699.344,74.339h-7.092v2.846h6.51V79.5h-6.51v3.441h7.419v2.408h-10.139V71.961h9.812V74.339z
							"/>
						<path style="fill:#FFFF00;" d="M707.029,71.931h9.51v2.314h-6.726v3.128h5.881v2.314h-5.881v5.662h-2.784V71.931z"/>
						<path style="fill:#FFFF00;" d="M726.986,72.277c0.494,0.212,0.912,0.525,1.255,0.939c0.283,0.34,0.508,0.716,0.673,1.13
							c0.166,0.414,0.249,0.884,0.249,1.413c0,0.639-0.159,1.266-0.478,1.882c-0.319,0.617-0.846,1.052-1.579,1.308
							c0.611,0.249,1.045,0.603,1.299,1.06c0.255,0.458,0.382,1.157,0.382,2.096v0.899c0,0.612,0.025,1.028,0.075,1.246
							c0.073,0.346,0.247,0.601,0.52,0.763v0.336h-3.065c-0.084-0.297-0.143-0.536-0.179-0.718c-0.071-0.375-0.11-0.761-0.116-1.154
							l-0.019-1.245c-0.011-0.854-0.159-1.424-0.446-1.709s-0.823-0.427-1.61-0.427h-2.76v5.254h-2.722V71.931h6.408
							C725.789,71.949,726.493,72.064,726.986,72.277z M721.187,74.245v3.628h3.036c0.603,0,1.055-0.073,1.356-0.22
							c0.533-0.256,0.8-0.763,0.8-1.521c0-0.818-0.258-1.368-0.774-1.649c-0.29-0.158-0.726-0.238-1.304-0.238H721.187z"/>
						<path style="fill:#FFFF00;" d="M741.754,74.339h-7.09v2.846h6.509V79.5h-6.509v3.441h7.418v2.408h-10.141V71.961h9.812V74.339
							z"/>
						<path style="fill:#FFFF00;" d="M754.174,74.339h-7.092v2.846h6.51V79.5h-6.51v3.441h7.418v2.408h-10.14V71.961h9.813V74.339z"
							/>
					</g>
				</g>
			</g>
			<g>
				<g>
					<rect x="490.583" y="0.5" style="fill:#FFFFFF;stroke:#000000;" width="141.732" height="141.732"/> 
					<g>
						<path id="path3817_2_" style="fill:#AAB2AB;" d="M493.153,154.97l85.549,0.151c1.195,0,2.264-0.177,2.264,2.386l-0.105,28.175
							h-89.865v-28.279C490.995,156.139,491.118,154.97,493.153,154.97z"/>
						<g id="g5908_2_">
							<path id="path5906_2_" style="fill:#FFFFFF;" d="M516.636,169.385c0.004,5.683-4.602,10.293-10.283,10.297
								c-5.684,0.003-10.295-4.602-10.297-10.284c0-0.005,0-0.009,0-0.013c-0.004-5.684,4.602-10.293,10.283-10.297
								c5.684-0.002,10.293,4.602,10.297,10.285C516.636,169.377,516.636,169.381,516.636,169.385z"/>
							<g id="g5706_2_">
								<path d="M514.71,161.004c2.283,2.281,3.424,5.076,3.424,8.381c0,3.307-1.121,6.07-3.363,8.293
									c-2.381,2.342-5.193,3.513-8.439,3.513c-3.207,0-5.971-1.161-8.293-3.483c-2.32-2.32-3.48-5.095-3.48-8.322
									c0-3.227,1.16-6.021,3.48-8.381c2.264-2.283,5.027-3.424,8.293-3.424C509.636,157.58,512.429,158.721,514.71,161.004z
									 M499.575,162.538c-1.93,1.948-2.893,4.231-2.893,6.85s0.955,4.882,2.863,6.79s4.182,2.863,6.82,2.863
									c2.637,0,4.93-0.963,6.877-2.893c1.852-1.791,2.777-4.045,2.777-6.761c0-2.696-0.941-4.983-2.82-6.864
									c-1.881-1.879-4.158-2.818-6.834-2.818C503.688,159.705,501.425,160.649,499.575,162.538z M504.651,168.236
									c-0.293-0.643-0.736-0.965-1.324-0.965c-1.041,0-1.561,0.701-1.561,2.102s0.52,2.102,1.561,2.102
									c0.688,0,1.178-0.342,1.473-1.025l1.441,0.769c-0.688,1.222-1.719,1.831-3.094,1.831c-1.061,0-1.91-0.324-2.547-0.975
									c-0.641-0.65-0.959-1.547-0.959-2.689c0-1.123,0.33-2.014,0.988-2.674s1.477-0.99,2.459-0.99
									c1.453,0,2.494,0.572,3.123,1.717L504.651,168.236z M511.437,168.236c-0.295-0.643-0.727-0.965-1.297-0.965
									c-1.062,0-1.592,0.701-1.592,2.102s0.529,2.102,1.592,2.102c0.688,0,1.17-0.342,1.445-1.025l1.475,0.769
									c-0.688,1.222-1.717,1.831-3.09,1.831c-1.059,0-1.906-0.324-2.545-0.975c-0.635-0.65-0.955-1.547-0.955-2.689
									c0-1.123,0.324-2.014,0.971-2.674s1.471-0.99,2.471-0.99c1.451,0,2.49,0.572,3.117,1.717L511.437,168.236z"/>
							</g>
						</g>
						<path d="M579.45,154.639h-87.172c-0.936,0-1.695,0.76-1.695,1.695v29.621c0,0.211,0.17,0.383,0.383,0.383h89.797
							c0.211,0,0.383-0.172,0.383-0.383v-29.621C581.146,155.398,580.384,154.639,579.45,154.639z M492.278,155.404h87.172
							c0.512,0,0.93,0.416,0.93,0.93c0,0,0,11.914,0,20.535h-62.307c-2.283,4.129-6.684,6.934-11.732,6.934
							c-5.051,0-9.449-2.801-11.732-6.934h-3.26c0-8.621,0-20.535,0-20.535C491.349,155.82,491.765,155.404,492.278,155.404z"/>
						<g id="g334_2_" style="enable-background:new    ;">
							<path style="fill:#FFFFFF;" d="M535.86,179.355c0.238,0,0.457,0.02,0.652,0.062c0.197,0.041,0.365,0.109,0.506,0.207
								c0.141,0.095,0.248,0.223,0.326,0.381c0.076,0.158,0.115,0.354,0.115,0.587c0,0.252-0.057,0.462-0.172,0.63
								s-0.285,0.305-0.508,0.413c0.309,0.088,0.539,0.243,0.691,0.466c0.152,0.221,0.229,0.489,0.229,0.801
								c0,0.252-0.049,0.471-0.146,0.655c-0.1,0.185-0.23,0.335-0.396,0.451c-0.166,0.117-0.355,0.204-0.568,0.259
								c-0.213,0.058-0.432,0.086-0.656,0.086h-2.428v-4.998H535.86z M535.72,181.377c0.197,0,0.357-0.047,0.484-0.141
								c0.127-0.093,0.189-0.244,0.189-0.453c0-0.117-0.021-0.213-0.062-0.287c-0.043-0.074-0.098-0.132-0.168-0.174
								c-0.07-0.043-0.152-0.072-0.242-0.088c-0.092-0.017-0.186-0.023-0.285-0.023h-1.029v1.166H535.72z M535.784,183.498
								c0.109,0,0.211-0.011,0.309-0.033c0.1-0.02,0.186-0.055,0.26-0.104c0.076-0.05,0.135-0.115,0.18-0.201
								c0.045-0.083,0.066-0.189,0.066-0.32c0-0.256-0.072-0.439-0.217-0.549c-0.146-0.11-0.338-0.164-0.576-0.164h-1.199v1.371
								H535.784z"/>
							<polygon id="path338_2_" style="fill:#FFFFFF;" points="537.894,179.355 539.128,179.355 540.298,181.328 541.46,179.355 
								542.687,179.355 540.831,182.434 540.831,184.354 539.729,184.354 539.729,182.406 "/>
						</g>
						<g id="g340_2_" style="enable-background:new    ;">
							<polygon id="path342_2_" style="fill:#FFFFFF;" points="555.813,179.355 557.901,182.708 557.913,182.708 557.913,179.355 
								558.944,179.355 558.944,184.354 557.845,184.354 555.765,181.006 555.751,181.006 555.751,184.354 554.72,184.354 
								554.72,179.355 "/>
							<path id="path344_2_" style="fill:#FFFFFF;" d="M563.116,180.687c-0.064-0.105-0.146-0.198-0.244-0.276
								c-0.1-0.08-0.209-0.143-0.334-0.187c-0.123-0.044-0.252-0.065-0.387-0.065c-0.248,0-0.459,0.047-0.631,0.143
								c-0.174,0.096-0.312,0.223-0.42,0.385c-0.107,0.16-0.186,0.344-0.234,0.549c-0.051,0.205-0.074,0.418-0.074,0.637
								c0,0.21,0.023,0.415,0.074,0.613c0.049,0.197,0.127,0.376,0.234,0.534c0.107,0.159,0.246,0.286,0.42,0.382
								c0.172,0.096,0.383,0.145,0.631,0.145c0.334,0,0.598-0.104,0.787-0.31c0.189-0.205,0.305-0.476,0.346-0.812h1.064
								c-0.027,0.312-0.1,0.595-0.217,0.847c-0.117,0.253-0.271,0.468-0.463,0.646c-0.189,0.178-0.414,0.314-0.672,0.408
								c-0.256,0.094-0.539,0.141-0.846,0.141c-0.383,0-0.729-0.068-1.033-0.201c-0.307-0.132-0.564-0.316-0.775-0.549
								c-0.211-0.233-0.371-0.509-0.484-0.824c-0.111-0.314-0.168-0.654-0.168-1.02c0-0.373,0.057-0.719,0.168-1.039
								c0.113-0.32,0.273-0.6,0.484-0.837c0.211-0.239,0.469-0.425,0.775-0.562c0.305-0.135,0.65-0.201,1.033-0.201
								c0.275,0,0.535,0.039,0.779,0.118c0.246,0.079,0.465,0.194,0.658,0.347c0.195,0.152,0.354,0.34,0.48,0.564
								c0.125,0.225,0.205,0.482,0.238,0.771h-1.064C563.224,180.906,563.183,180.791,563.116,180.687z"/>
						</g>
						<g id="g6379_3_">
							<path id="path6381_3_" style="fill:#FFFFFF;" d="M567.349,165.945c0.002,4.151-3.359,7.52-7.512,7.522
								s-7.52-3.36-7.523-7.512c0-0.005,0-0.008,0-0.011c-0.002-4.152,3.361-7.52,7.512-7.523c4.152-0.002,7.52,3.361,7.523,7.512
								C567.349,165.938,567.349,165.941,567.349,165.945z"/>
							<path d="M559.819,157.193c2.453,0,4.527,0.846,6.223,2.537c1.693,1.693,2.541,3.764,2.541,6.215
								c0,2.45-0.832,4.5-2.498,6.148c-1.768,1.736-3.855,2.604-6.266,2.604c-2.381,0-4.432-0.861-6.154-2.583
								c-1.725-1.72-2.586-3.776-2.586-6.169s0.861-4.465,2.586-6.215C555.343,158.039,557.396,157.193,559.819,157.193z
								 M553.048,163.594c-0.26,0.738-0.391,1.521-0.391,2.352c0,1.939,0.707,3.617,2.123,5.031
								c1.418,1.414,3.104,2.123,5.062,2.123c1.957,0,3.656-0.715,5.104-2.145c0.484-0.467,0.883-0.979,1.195-1.531l-3.299-1.469
								c-0.225,1.109-1.213,1.859-2.408,1.947v1.35h-1.006v-1.35c-0.982-0.011-1.932-0.412-2.656-1.047l1.205-1.216
								c0.58,0.546,1.162,0.792,1.953,0.792c0.514,0,1.084-0.201,1.084-0.871c0-0.236-0.094-0.4-0.236-0.525l-0.836-0.371
								l-1.039-0.463c-0.514-0.229-0.947-0.422-1.385-0.617L553.048,163.594z M559.843,158.769c-1.986,0-3.666,0.7-5.039,2.101
								c-0.375,0.377-0.699,0.771-0.975,1.182l3.346,1.49c0.301-0.928,1.184-1.492,2.254-1.555v-1.349h1.006v1.349
								c0.691,0.034,1.451,0.224,2.197,0.803l-1.148,1.183c-0.424-0.301-0.961-0.513-1.496-0.513c-0.436,0-1.049,0.133-1.049,0.68
								c0,0.084,0.027,0.156,0.078,0.222l1.119,0.498l0.758,0.338c0.484,0.216,0.947,0.421,1.404,0.626l4.484,1.996
								c0.148-0.588,0.223-1.212,0.223-1.873c0-2-0.701-3.69-2.102-5.076C563.515,159.469,561.827,158.769,559.843,158.769z"/>
						</g>
						<g id="g349_2_">
							<circle id="circle351_2_" style="fill:#FFFFFF;" cx="538.399" cy="166.124" r="8.105"/> 
							<g id="g353_2_">
								<path id="path355_2_" d="M540.745,163.779c0-0.312-0.254-0.566-0.566-0.566h-3.578c-0.312,0-0.566,0.254-0.566,0.566v3.579
									h0.998v4.239h2.713v-4.239h1V163.779z"/>
								<circle id="circle357_2_" cx="538.39" cy="161.518" r="1.225"/> 
							</g>
							<path d="M538.378,157.193c-2.424,0-4.477,0.846-6.156,2.538c-1.723,1.751-2.584,3.821-2.584,6.214
								c0,2.392,0.861,4.449,2.584,6.17c1.725,1.721,3.777,2.582,6.156,2.582c2.41,0,4.5-0.867,6.266-2.604
								c1.666-1.648,2.498-3.697,2.498-6.148s-0.848-4.521-2.541-6.214S540.833,157.193,538.378,157.193z M538.401,158.769
								c1.986,0,3.672,0.7,5.059,2.101c1.404,1.386,2.104,3.078,2.104,5.076c0,2.012-0.686,3.683-2.059,5.01
								c-1.445,1.43-3.146,2.145-5.104,2.145s-3.645-0.707-5.061-2.123c-1.418-1.414-2.125-3.092-2.125-5.031
								c0-1.94,0.715-3.633,2.146-5.076C534.735,159.469,536.415,158.769,538.401,158.769z"/>
						</g>
					</g>
				</g>
				<g>
					<polygon style="fill:#FF0000;" points="538.384,21.36 539.722,9.042 548.476,17.811 552.19,5.992 559.065,16.299 565.015,5.43 
						569.747,16.881 577.701,7.383 580.108,19.538 589.765,11.774 589.753,24.164 600.738,18.434 598.31,30.583 610.202,27.105 
						605.45,38.548 617.792,37.458 610.899,47.752 623.217,49.09 614.448,57.843 626.269,61.559 615.96,68.434 626.828,74.383 
						615.377,79.115 624.875,87.071 612.722,89.477 620.485,99.132 608.095,99.122 613.825,110.106 601.676,107.678 
						605.153,119.571 593.711,114.819 594.802,127.161 584.506,120.268 583.168,132.586 574.415,123.817 570.7,135.637 
						563.825,125.329 557.876,136.197 553.144,124.746 545.188,134.244 542.782,122.09 533.126,129.854 533.138,117.463 
						522.152,123.194 524.58,111.043 512.688,114.523 517.44,103.08 505.099,104.17 511.99,93.875 499.673,92.538 508.442,83.784 
						496.622,80.069 506.931,73.194 496.062,67.245 507.513,62.513 498.015,54.557 510.169,52.151 502.405,42.495 514.795,42.506 
						509.064,31.52 521.214,33.95 517.737,22.058 529.179,26.809 528.089,14.467 "/>
					<g>
						<path style="fill:#FFFFFF;" d="M523.254,66.719c0.515,0.795,1.046,1.32,1.591,1.576c0.996,0.469,2.268,0.341,3.818-0.382
							c0.928-0.433,1.635-0.885,2.119-1.358c0.918-0.9,1.131-1.879,0.638-2.936c-0.287-0.615-0.784-0.965-1.49-1.047
							c-0.703-0.072-1.696,0.034-2.979,0.32l-2.197,0.48c-2.163,0.47-3.739,0.621-4.729,0.453c-1.671-0.274-2.936-1.332-3.793-3.172
							c-0.783-1.679-0.822-3.357-0.117-5.039c0.705-1.681,2.241-3.074,4.609-4.178c1.979-0.923,3.909-1.188,5.793-0.797
							c1.883,0.393,3.32,1.564,4.314,3.518l-3.752,1.75c-0.594-1.099-1.463-1.67-2.604-1.717c-0.762-0.027-1.599,0.171-2.51,0.596
							c-1.016,0.474-1.729,1.056-2.145,1.745c-0.414,0.691-0.451,1.401-0.111,2.133c0.314,0.671,0.847,1.034,1.598,1.087
							c0.486,0.043,1.426-0.08,2.816-0.364l3.609-0.733c1.582-0.324,2.863-0.367,3.844-0.135c1.523,0.363,2.674,1.378,3.451,3.047
							c0.799,1.711,0.805,3.438,0.021,5.18c-0.784,1.743-2.374,3.172-4.767,4.289c-2.445,1.141-4.627,1.482-6.545,1.025
							c-1.919-0.455-3.33-1.652-4.234-3.592L523.254,66.719z"/>
						<path style="fill:#FFFFFF;" d="M537.05,44.515l4.417-2.06l15.331,15.63l-4.232,1.975l-3.019-3.266l-6.89,3.214l0.521,4.428
							l-4.086,1.906L537.05,44.515z M542.216,56.284l4.793-2.234l-5.797-6.268L542.216,56.284z"/>
						<path style="fill:#FFFFFF;" d="M550.441,38.27l3.882-1.809l7.18,15.395l9.334-4.352l1.545,3.314l-13.215,6.163L550.441,38.27z
							"/>
						<path style="fill:#FFFFFF;" d="M581.679,27.793l-9.888,4.609l1.851,3.971l9.076-4.232l1.504,3.227l-9.074,4.232l2.236,4.799
							l10.344-4.823l1.566,3.358l-14.139,6.592l-8.705-18.667l13.682-6.38L581.679,27.793z"/>
						<path style="fill:#FFFFFF;" d="M528.989,78.859l4.074-1.899l13.469,9.572l-6.071-13.021l3.62-1.688l8.725,18.711l-3.885,1.811
							l-13.771-9.726l6.186,13.264l-3.62,1.688L528.989,78.859z"/>
						<path style="fill:#FFFFFF;" d="M570.069,80.415c-0.734,2.113-2.439,3.79-5.111,5.036c-2.674,1.247-5.054,1.474-7.144,0.679
							c-2.726-0.898-4.87-3.022-6.433-6.375c-1.595-3.42-1.844-6.428-0.75-9.025c0.736-2.111,2.439-3.79,5.112-5.035
							c2.673-1.246,5.054-1.473,7.145-0.68c2.685,0.834,4.824,2.961,6.419,6.381C570.871,74.748,571.124,77.754,570.069,80.415z
							 M566.323,78.7c0.381-1.562,0.082-3.395-0.896-5.494c-0.976-2.092-2.186-3.496-3.63-4.212
							c-1.444-0.718-2.942-0.716-4.493,0.009c-1.553,0.723-2.525,1.87-2.918,3.439c-0.395,1.568-0.102,3.403,0.878,5.503
							c0.979,2.099,2.196,3.503,3.651,4.21s2.959,0.699,4.51-0.025C564.976,81.407,565.942,80.264,566.323,78.7z"/>
						<path style="fill:#FFFFFF;" d="M570.485,59.51l7.465,9.563l1.929,2.73l-0.82-3.173l-2.906-11.764l4.136-1.93l7.225,9.675
							l1.961,2.718l-0.765-3.135l-2.579-11.981l3.976-1.854l3.504,21.146l-3.757,1.752l-7.371-9.898l-2.344-3.299l1.025,3.928
							l2.836,12l-3.634,1.693l-14.024-16.24L570.485,59.51z"/>
						<path style="fill:#FFFFFF;" d="M570.966,110.583c-0.735,2.111-2.439,3.79-5.112,5.037c-2.673,1.246-5.054,1.472-7.143,0.678
							c-2.726-0.898-4.87-3.023-6.433-6.375c-1.595-3.42-1.844-6.428-0.75-9.025c0.736-2.111,2.439-3.789,5.112-5.036
							s5.054-1.473,7.144-0.679c2.686,0.835,4.825,2.961,6.42,6.381C571.768,104.916,572.021,107.922,570.966,110.583z
							 M567.22,108.868c0.381-1.562,0.081-3.395-0.898-5.494c-0.974-2.092-2.184-3.496-3.629-4.213
							c-1.443-0.717-2.942-0.715-4.493,0.009c-1.552,0.724-2.524,1.87-2.918,3.44c-0.394,1.568-0.101,3.404,0.879,5.502
							c0.979,2.1,2.196,3.504,3.651,4.211c1.454,0.707,2.957,0.699,4.51-0.024C565.872,111.575,566.839,110.431,567.22,108.868z"/>
						<path style="fill:#FFFFFF;" d="M568.826,90.869l4.073-1.899l13.47,9.571l-6.072-13.021l3.62-1.689l8.726,18.712l-3.885,1.812
							l-13.771-9.727l6.184,13.265l-3.619,1.688L568.826,90.869z"/>
						<path style="fill:#FFFFFF;" d="M588.467,81.763l3.97-1.852l2.213,4.747l3.068,9.199l-1.92,0.895l-5.117-8.243L588.467,81.763z
							 M595.552,96.727l3.794-1.77l1.708,3.663l-3.794,1.771L595.552,96.727z"/>
					</g>
				</g>
			</g>
			<text transform="matrix(1 0 0 1 127.8311 413.1587)"><tspan x="0" y="0" style="font-family:'Helvetica-Bold'; font-size:37;">BOGOF</tspan></text>
			<text transform="matrix(1 0 0 1 130.8311 369.1587)"><tspan x="0" y="0" style="font-family:'Helvetica-Bold'; font-size:37;">B.O.G.O.F</tspan></text>
			<text transform="matrix(1 0 0 1 131.8311 457.1587)"><tspan x="0" y="0" style="font-family:'Impact'; font-size:37;">Buy One</tspan><tspan x="0" y="36" style="font-family:'Impact'; font-size:37;">Get One Free</tspan></text>
		</g>
	</svg>
