<?xml version="1.0" encoding="UTF-8" standalone="no"?>
<!-- Created with Inkscape (http://www.inkscape.org/) -->
<svg
   xmlns:dc="http://purl.org/dc/elements/1.1/"
   xmlns:cc="http://web.resource.org/cc/"
   xmlns:rdf="http://www.w3.org/1999/02/22-rdf-syntax-ns#"
   xmlns:svg="http://www.w3.org/2000/svg"
   xmlns="http://www.w3.org/2000/svg"
   xmlns:sodipodi="http://sodipodi.sourceforge.net/DTD/sodipodi-0.dtd"
   xmlns:inkscape="http://www.inkscape.org/namespaces/inkscape"
   width="306.09299"
   height="163.41502"
   id="svg2214"
   sodipodi:version="0.32"
   inkscape:version="0.45.1"
   version="1.0"
   sodipodi:docbase="/Users/robmyers/Desktop/cc-ironies/final"
   sodipodi:docname="after_image.svg"
   inkscape:output_extension="org.inkscape.output.svg.inkscape">
  <defs
     id="defs2216" />
  <sodipodi:namedview
     inkscape:document-units="mm"
     pagecolor="#ffffff"
     bordercolor="#666666"
     borderopacity="1.0"
     inkscape:pageopacity="0.0"
     inkscape:pageshadow="2"
     inkscape:zoom="2.02855"
     inkscape:cx="153.04649"
     inkscape:cy="93.169998"
     inkscape:current-layer="layer1"
     id="namedview2218"
     inkscape:window-width="740"
     inkscape:window-height="581"
     inkscape:window-x="50"
     inkscape:window-y="22" />
  <metadata
     id="metadata2220">
    <rdf:RDF>
      <cc:Work
         rdf:about="">
        <dc:format>image/svg+xml</dc:format>
        <dc:type
           rdf:resource="http://purl.org/dc/dcmitype/StillImage" />
      </cc:Work>
    </rdf:RDF>
  </metadata>
  <g
     inkscape:label="Layer 1"
     inkscape:groupmode="layer"
     id="layer1"
     transform="translate(-336.95352,-270.92447)">
    <rect
       x="337.45352"
       y="271.42447"
       style="fill:#ffffff;stroke:#000000"
       width="141.73199"
       height="141.73199"
       id="rect7359" />
    <path
       style="font-size:286.05651855px;font-style:normal;font-weight:normal;fill:#ff0000;fill-opacity:1;stroke:none;stroke-width:1px;stroke-linecap:butt;stroke-linejoin:miter;stroke-opacity:1;font-family:Bitstream Vera Sans"
       d="M 410.58226,394.16616 L 404.99522,394.16616 L 404.93935,377.34916 C 401.02839,377.27467 397.11747,376.8277 393.20656,376.00827 C 389.29562,375.15159 385.36607,373.88519 381.41791,372.20908 L 381.41791,362.15241 C 385.21708,364.53622 389.05352,366.3427 392.92721,367.57183 C 396.83811,368.76375 400.86078,369.37832 404.99522,369.41556 L 404.99522,343.93865 C 396.76362,342.59779 390.76687,340.32573 387.00495,337.12246 C 383.28024,333.91927 381.4179,329.52413 381.41791,323.93704 C 381.4179,317.86585 383.44786,313.07962 387.50778,309.57835 C 391.56768,306.07721 397.39682,304.06587 404.99522,303.54434 L 404.99522,290.4148 L 410.58226,290.4148 L 410.58226,303.37673 C 414.04619,303.52579 417.39841,303.89826 420.63894,304.49414 C 423.87937,305.05291 427.04535,305.8351 430.1369,306.84069 L 430.1369,316.61802 C 427.04535,315.05371 423.86075,313.84319 420.58306,312.98644 C 417.34254,312.12983 414.00894,311.62699 410.58226,311.47794 L 410.58226,335.33461 C 419.03727,336.63829 425.2575,338.96622 429.24298,342.31841 C 433.22834,345.67067 435.22105,350.25203 435.22111,356.06253 C 435.22105,362.35728 433.09798,367.32974 428.85188,370.97993 C 424.64293,374.59289 418.55306,376.67871 410.58226,377.23742 L 410.58226,394.16616 M 404.99522,334.32894 L 404.99522,311.42207 C 400.67455,311.90635 397.37819,313.13549 395.10616,315.10952 C 392.83407,317.08367 391.69804,319.70957 391.69806,322.98725 C 391.69804,326.19053 392.74096,328.68608 394.82681,330.47388 C 396.94985,332.26178 400.33933,333.5468 404.99522,334.32894 M 410.58226,345.05606 L 410.58226,369.24795 C 415.31258,368.61476 418.86966,367.27387 421.25351,365.22528 C 423.67451,363.17671 424.88503,360.47631 424.88509,357.12407 C 424.88503,353.84636 423.73038,351.23908 421.42112,349.30221 C 419.14901,347.3654 415.53606,345.95002 410.58226,345.05606"
       id="text3134" />
    <g
       id="g78"
       transform="matrix(0.375,0,0,0.375,269.90121,334.21432)">
      <path
         id="path3817_6_"
         nodetypes="ccccccc"
         d="M 182.23535,225.17188 L 296.29931,225.375 C 297.89306,225.375 299.31689,225.13867 299.31689,228.55566 L 299.17724,266.12207 L 179.35693,266.12207 L 179.35693,228.41602 C 179.35693,226.73145 179.52002,225.17188 182.23535,225.17188 z "
         style="fill:#aab2ab" />
      <g
         id="g5908_6_"
         transform="matrix(0.872921,0,0,0.872921,50.12536,143.2144)">
        <path
           id="path5906_6_"
           cx="296.35416"
           ry="22.939548"
           cy="264.3577"
           type="arc"
           rx="22.939548"
           d="M 187.20946,115.90759 C 187.21504,124.58783 180.1816,131.62912 171.50138,131.6347 C 162.82116,131.64028 155.77932,124.60684 155.77428,115.92663 C 155.77428,115.91992 155.77428,115.9143 155.77428,115.90759 C 155.76924,107.22625 162.80213,100.18609 171.48236,100.18051 C 180.16368,100.17602 187.20442,107.20837 187.20946,115.88858 C 187.20946,115.89529 187.20946,115.90088 187.20946,115.90759 z "
           style="fill:#ffffff" />
        <g
           id="g5706_6_"
           transform="translate(-289.6157,99.0653)">
          <path
             id="path5708_6_"
             d="M 473.88458,4.04068 C 477.36999,7.52551 479.11297,11.79349 479.11297,16.84229 C 479.11297,21.89225 477.40014,26.11432 473.9746,29.51081 C 470.33929,33.08625 466.04284,34.874 461.08517,34.874 C 456.18737,34.874 451.9653,33.10191 448.42004,29.55442 C 444.87423,26.00916 443.10162,21.77143 443.10162,16.84229 C 443.10162,11.91431 444.87423,7.64634 448.42004,4.04068 C 451.87524,0.55359 456.09732,-1.18939 461.08517,-1.18939 C 466.13342,-1.18939 470.39917,0.55359 473.88458,4.04068 z M 450.7666,6.38443 C 447.81982,9.36136 446.34704,12.84845 446.34704,16.84677 C 446.34704,20.84512 447.80529,24.302 450.72125,27.2185 C 453.63781,30.13391 457.10977,31.59274 461.1383,31.59274 C 465.16686,31.59274 468.66851,30.12051 471.64489,27.17376 C 474.47076,24.43734 475.88427,20.99615 475.88427,16.84676 C 475.88427,12.72872 474.44781,9.23381 471.57659,6.36202 C 468.70598,3.49248 465.22674,2.05605 461.1383,2.05605 C 457.04993,2.05606 453.59192,3.49921 450.7666,6.38443 z M 458.52106,15.08813 C 458.07077,14.10589 457.39673,13.61587 456.49784,13.61587 C 454.9087,13.61587 454.11439,14.68539 454.11439,16.8244 C 454.11439,18.96341 454.9087,20.03293 456.49784,20.03293 C 457.54719,20.03293 458.29676,19.5116 458.74647,18.46893 L 460.94926,19.64135 C 459.89933,21.50628 458.32417,22.44042 456.22377,22.44042 C 454.60384,22.44042 453.30611,21.94369 452.33168,20.95028 C 451.35561,19.95684 450.86897,18.58752 450.86897,16.84228 C 450.86897,15.12728 451.37126,13.76577 452.37645,12.75671 C 453.38161,11.74871 454.6335,11.2453 456.13426,11.2453 C 458.35438,11.2453 459.9441,12.11902 460.90507,13.86758 L 458.52106,15.08813 z M 468.8844,15.08813 C 468.43353,14.10589 467.77295,13.61587 466.90204,13.61587 C 465.28095,13.61587 464.46991,14.68539 464.46991,16.8244 C 464.46991,18.96341 465.28095,20.03293 466.90204,20.03293 C 467.95307,20.03293 468.68921,19.5116 469.10925,18.46893 L 471.36126,19.64135 C 470.31304,21.50628 468.74011,22.44042 466.64361,22.44042 C 465.02587,22.44042 463.73095,21.94369 462.75714,20.95028 C 461.78497,19.95684 461.29773,18.58752 461.29773,16.84228 C 461.29773,15.12728 461.79224,13.76577 462.78064,12.75671 C 463.76843,11.74871 465.02588,11.2453 466.55408,11.2453 C 468.77027,11.2453 470.35779,12.11902 471.31543,13.86758 L 468.8844,15.08813 z " />
        </g>
      </g>
      <g
         id="g85">
        <circle
           cx="242.56226"
           cy="240.00684"
           r="10.8064"
           id="circle87"
           sodipodi:cx="242.56226"
           sodipodi:cy="240.00684"
           sodipodi:rx="10.8064"
           sodipodi:ry="10.8064"
           style="fill:#ffffff" />
        <g
           id="g89">
          <path
             d="M 245.68994,236.87988 C 245.68994,236.46289 245.35205,236.12597 244.93603,236.12597 L 240.16357,236.12597 C 239.74755,236.12597 239.40966,236.46288 239.40966,236.87988 L 239.40966,241.65234 L 240.74071,241.65234 L 240.74071,247.30468 L 244.3579,247.30468 L 244.3579,241.65234 L 245.68993,241.65234 L 245.68993,236.87988 L 245.68994,236.87988 z "
             id="path91" />
          <circle
             cx="242.5498"
             cy="233.86523"
             r="1.63232"
             id="circle93"
             sodipodi:cx="242.5498"
             sodipodi:cy="233.86523"
             sodipodi:rx="1.63232"
             sodipodi:ry="1.63232" />
        </g>
        <path
           clip-rule="evenodd"
           d="M 242.53467,228.10059 C 239.30322,228.10059 236.56641,229.22754 234.32715,231.48438 C 232.0293,233.81739 230.88086,236.58008 230.88086,239.76856 C 230.88086,242.95704 232.0293,245.7002 234.32715,247.99512 C 236.625,250.29004 239.36133,251.4375 242.53467,251.4375 C 245.74756,251.4375 248.53272,250.28027 250.88819,247.96582 C 253.10889,245.76855 254.21827,243.03613 254.21827,239.76855 C 254.21827,236.50097 253.08936,233.74023 250.83057,231.48437 C 248.57178,229.22754 245.80615,228.10059 242.53467,228.10059 z M 242.56396,230.2002 C 245.2124,230.2002 247.46142,231.13379 249.31103,233.00098 C 251.18115,234.84766 252.11572,237.1045 252.11572,239.76856 C 252.11572,242.45215 251.20068,244.67969 249.36963,246.44922 C 247.4419,248.35449 245.17334,249.30762 242.56397,249.30762 C 239.9546,249.30762 237.70557,248.36426 235.81739,246.47852 C 233.92774,244.5918 232.98389,242.35547 232.98389,239.76856 C 232.98389,237.18165 233.93799,234.92579 235.84619,233.00098 C 237.67676,231.13379 239.9165,230.2002 242.56396,230.2002 z "
           id="path95"
           style="fill-rule:evenodd" />
      </g>
      <path
         d="M 297.29639,224.73242 L 181.06739,224.73242 C 179.82081,224.73242 178.80616,225.74707 178.80616,226.99316 L 178.80616,266.48925 C 178.80616,266.77148 179.03516,266.99999 179.3169,266.99999 L 299.04639,266.99999 C 299.32813,266.99999 299.55713,266.77147 299.55713,266.48925 L 299.55713,226.99316 C 299.55713,225.74707 298.54297,224.73242 297.29639,224.73242 z M 181.06738,225.75391 L 297.29638,225.75391 C 297.97997,225.75391 298.53564,226.30957 298.53564,226.99317 C 298.53564,226.99317 298.53564,242.87598 298.53564,254.37208 L 215.46191,254.37208 C 212.41699,259.87794 206.55078,263.61622 199.81836,263.61622 C 193.08301,263.61622 187.21826,259.88087 184.17481,254.37208 L 179.82764,254.37208 C 179.82764,242.87599 179.82764,226.99317 179.82764,226.99317 C 179.82764,226.30957 180.38379,225.75391 181.06738,225.75391 z "
         id="path97" />
      <g
         enable-background="new    "
         id="g99">
        <path
           d="M 239.17822,257.68848 C 239.49609,257.68848 239.78564,257.7168 240.04736,257.77246 C 240.30908,257.82812 240.53369,257.91992 240.72119,258.04785 C 240.90771,258.1748 241.05322,258.34473 241.15576,258.55566 C 241.2583,258.76757 241.31006,259.02832 241.31006,259.33984 C 241.31006,259.67578 241.23389,259.95507 241.08057,260.17968 C 240.92823,260.40331 240.70166,260.58691 240.40284,260.72948 C 240.81495,260.84764 241.12257,261.05468 241.32569,261.35057 C 241.52881,261.64646 241.63038,262.00291 241.63038,262.41991 C 241.63038,262.75585 241.56495,263.04686 241.43409,263.29296 C 241.30323,263.53906 241.12647,263.73925 240.90577,263.89452 C 240.68409,264.05077 240.43116,264.166 240.14796,264.24022 C 239.86378,264.31542 239.57276,264.35252 239.27296,264.35252 L 236.03663,264.35252 L 236.03663,257.68846 L 239.17822,257.68846 L 239.17822,257.68848 z M 238.99121,260.38379 C 239.25244,260.38379 239.46777,260.32227 239.63623,260.19727 C 239.8042,260.07325 239.88818,259.87207 239.88818,259.59278 C 239.88818,259.43751 239.85986,259.31055 239.8042,259.21094 C 239.74756,259.11133 239.67334,259.03418 239.57959,258.97852 C 239.48633,258.92188 239.37891,258.88379 239.25732,258.86133 C 239.13574,258.83985 239.00976,258.8291 238.8789,258.8291 L 237.50536,258.8291 L 237.50536,260.38379 L 238.99121,260.38379 z M 239.07666,263.21191 C 239.22021,263.21191 239.35693,263.19824 239.48828,263.16992 C 239.61865,263.1416 239.73486,263.0957 239.83447,263.03027 C 239.93408,262.96484 240.01318,262.87597 240.07275,262.76465 C 240.13232,262.65235 240.16162,262.50977 240.16162,262.33496 C 240.16162,261.99316 240.06494,261.74902 239.87158,261.60351 C 239.67822,261.45703 239.42285,261.38378 239.10498,261.38378 L 237.50537,261.38378 L 237.50537,263.2119 L 239.07666,263.2119 L 239.07666,263.21191 z "
           id="path101"
           style="fill:#ffffff" />
        <path
           d="M 241.88916,257.68848 L 243.53271,257.68848 L 245.09326,260.32032 L 246.64404,257.68848 L 248.27783,257.68848 L 245.8042,261.79493 L 245.8042,264.35255 L 244.33545,264.35255 L 244.33545,261.75782 L 241.88916,257.68848 z "
           id="path103"
           style="fill:#ffffff" />
      </g>
      <g
         enable-background="new    "
         id="g105">
        <path
           d="M 265.27686,257.68848 L 268.06104,262.15918 L 268.07666,262.15918 L 268.07666,257.68848 L 269.45166,257.68848 L 269.45166,264.35254 L 267.98584,264.35254 L 265.2124,259.89063 L 265.19385,259.89063 L 265.19385,264.35254 L 263.81885,264.35254 L 263.81885,257.68848 L 265.27686,257.68848 z "
           id="path107"
           style="fill:#ffffff" />
        <path
           d="M 273.61377,257.68848 C 274.04443,257.68848 274.44385,257.75684 274.81494,257.89356 C 275.18603,258.03126 275.50635,258.23633 275.77783,258.50977 C 276.04834,258.78321 276.26025,259.12598 276.4126,259.53614 C 276.56592,259.94727 276.64209,260.42969 276.64209,260.98341 C 276.64209,261.46876 276.57959,261.917 276.45557,262.32716 C 276.33057,262.73829 276.14209,263.09278 275.89014,263.39161 C 275.63721,263.68946 275.32276,263.92481 274.9458,264.09571 C 274.56885,264.26759 274.12549,264.35255 273.61377,264.35255 L 270.73584,264.35255 L 270.73584,257.68849 L 273.61377,257.68849 L 273.61377,257.68848 z M 273.51123,263.11816 C 273.72314,263.11816 273.92822,263.08398 274.12744,263.01562 C 274.32666,262.94726 274.50439,262.83398 274.65967,262.67578 C 274.81494,262.5166 274.93994,262.31055 275.03369,262.05566 C 275.12646,261.80078 275.17334,261.49023 275.17334,261.12304 C 275.17334,260.7871 275.14111,260.48437 275.07568,260.21386 C 275.01025,259.94335 274.90283,259.71191 274.75341,259.51952 C 274.60399,259.32713 274.40673,259.17968 274.16064,259.07616 C 273.91455,258.9746 273.61084,258.92284 273.25048,258.92284 L 272.20458,258.92284 L 272.20458,263.11815 L 273.51123,263.11815 L 273.51123,263.11816 z "
           id="path109"
           style="fill:#ffffff" />
      </g>
      <g
         id="g6501"
         transform="matrix(0.624995,0,0,0.624995,-183.0107,316.9328)">
        <path
           id="path6503"
           cx="475.97119"
           ry="29.209877"
           cy="252.08646"
           type="arc"
           rx="29.209877"
           d="M 743.93005,-123.39972 C 743.93634,-113.98871 736.31128,-106.35272 726.89868,-106.34491 C 717.48767,-106.34021 709.85168,-113.96213 709.84387,-123.37628 C 709.84387,-123.38409 709.84387,-123.39346 709.84387,-123.39972 C 709.83764,-132.81229 717.46264,-140.44675 726.87524,-140.45456 C 736.28784,-140.46237 743.92224,-132.83728 743.93005,-123.42471 C 743.93005,-123.4169 743.93005,-123.40909 743.93005,-123.39972 z "
           style="fill:#ffffff" />
        <g
           id="g6505"
           transform="translate(-23.9521,-87.92102)">
          <path
             id="path6507"
             d="M 750.57263,-54.14914 C 745.39917,-54.14914 741.02258,-52.34604 737.43976,-48.7366 C 733.76319,-45.00219 731.92566,-40.58343 731.92566,-35.4787 C 731.92566,-30.37552 733.76318,-25.98956 737.43976,-22.3161 C 741.11633,-18.64419 745.49292,-16.80823 750.57263,-16.80823 C 755.71179,-16.80823 760.16809,-18.66138 763.93835,-22.36298 C 767.48999,-25.88019 769.2666,-30.25211 769.2666,-35.4787 C 769.2666,-40.70844 767.45874,-45.12564 763.8446,-48.7366 C 760.23059,-52.34604 755.80554,-54.14914 750.57263,-54.14914 z M 750.61951,-50.79129 C 754.85547,-50.79129 758.45398,-49.29599 761.41492,-46.30691 C 764.40558,-43.3522 765.90088,-39.74435 765.90088,-35.47869 C 765.90088,-31.1849 764.43683,-27.62237 761.50708,-24.7911 C 758.42273,-21.74108 754.79297,-20.21764 750.61951,-20.21764 C 746.44294,-20.21764 742.84449,-21.72545 739.82257,-24.74578 C 736.80066,-27.76299 735.28973,-31.34115 735.28973,-35.47869 C 735.28973,-39.61935 736.81628,-43.22719 739.86944,-46.30691 C 742.79919,-49.29599 746.38196,-50.79129 750.61951,-50.79129 z " />
          <g
             id="g6509">
            <path
               id="path6511"
               d="M 757.65088,-39.90375 L 744.07727,-39.90375 L 744.07727,-36.68964 L 757.65088,-36.68964 L 757.65088,-39.90375 z M 757.65088,-33.90369 L 744.07727,-33.90369 L 744.07727,-30.68961 L 757.65088,-30.68961 L 757.65088,-33.90369 z " />
          </g>
        </g>
      </g>
    </g>
    <rect
       x="500.81451"
       y="271.42447"
       style="fill:#ffffff;stroke:#000000"
       width="141.73199"
       height="141.73199"
       id="rect7705" />
    <rect
       style="fill:#ff0000;fill-opacity:1;stroke:none;stroke-width:10;stroke-miterlimit:4;stroke-dasharray:none;stroke-opacity:1"
       id="rect2160"
       width="122.83455"
       height="122.83455"
       x="510.26321"
       y="280.8732" />
    <g
       id="g325"
       transform="matrix(0.375,0,0,0.375,433.2622,362.30617)">
      <path
         id="path3817_3_"
         nodetypes="ccccccc"
         d="M 182.23535,150.26416 L 296.29931,150.4668 C 297.89306,150.4668 299.31689,150.23047 299.31689,153.64698 L 299.17724,191.21387 L 179.35693,191.21387 L 179.35693,153.50782 C 179.35693,151.82275 179.52002,150.26416 182.23535,150.26416 z "
         style="fill:#aab2ab" />
      <g
         id="g5908_3_"
         transform="matrix(0.872921,0,0,0.872921,50.12536,143.2144)">
        <path
           id="path5906_3_"
           cx="296.35416"
           ry="22.939548"
           cy="264.3577"
           type="arc"
           rx="22.939548"
           d="M 187.20946,30.09433 C 187.21504,38.77457 180.1816,45.81586 171.50138,45.82144 C 162.82116,45.82648 155.77932,38.79358 155.77428,30.11337 C 155.77428,30.10666 155.77428,30.10104 155.77428,30.09433 C 155.76924,21.41357 162.80213,14.37228 171.48236,14.36725 C 180.16368,14.36221 187.20442,21.39511 187.20946,30.07532 C 187.20946,30.08148 187.20946,30.08762 187.20946,30.09433 z "
           style="fill:#ffffff" />
        <g
           id="g5706_3_"
           transform="translate(-289.6157,99.0653)">
          <path
             id="path5708_3_"
             d="M 473.88458,-81.77313 C 477.36999,-78.28775 479.11297,-74.01977 479.11297,-68.97098 C 479.11297,-63.92157 477.40014,-59.69895 473.9746,-56.30304 C 470.33929,-52.72702 466.04284,-50.93927 461.08517,-50.93927 C 456.18737,-50.93927 451.9653,-52.71191 448.42004,-56.25885 C 444.87423,-59.80411 443.10162,-64.04184 443.10162,-68.97098 C 443.10162,-73.89954 444.87423,-78.16693 448.42004,-81.77313 C 451.87524,-85.26022 456.09732,-87.00265 461.08517,-87.00265 C 466.13342,-87.00266 470.39917,-85.26022 473.88458,-81.77313 z M 450.7666,-79.42883 C 447.81982,-76.45245 446.34704,-72.96539 446.34704,-68.96649 C 446.34704,-64.96814 447.80529,-61.51126 450.72125,-58.5953 C 453.63781,-55.67935 457.10977,-54.22106 461.1383,-54.22106 C 465.16686,-54.22106 468.66851,-55.69332 471.64489,-58.64004 C 474.47076,-61.37591 475.88427,-64.8171 475.88427,-68.96649 C 475.88427,-73.08453 474.44781,-76.57944 471.57659,-79.45065 C 468.70598,-82.32132 465.22674,-83.7572 461.1383,-83.7572 C 457.04993,-83.7572 453.59192,-82.31406 450.7666,-79.42883 z M 458.52106,-70.72513 C 458.07077,-71.70737 457.39673,-72.19794 456.49784,-72.19794 C 454.9087,-72.19794 454.11439,-71.12787 454.11439,-68.98941 C 454.11439,-66.84985 454.9087,-65.78033 456.49784,-65.78033 C 457.54719,-65.78033 458.29676,-66.30111 458.74647,-67.34487 L 460.94926,-66.1719 C 459.89933,-64.30642 458.32417,-63.37341 456.22377,-63.37341 C 454.60384,-63.37341 453.30611,-63.87011 452.33168,-64.86297 C 451.35561,-65.85641 450.86897,-67.22573 450.86897,-68.97097 C 450.86897,-70.68597 451.37126,-72.04803 452.37645,-73.05599 C 453.38161,-74.06453 454.6335,-74.5685 456.13426,-74.5685 C 458.35438,-74.5685 459.9441,-73.69423 460.90507,-71.94622 L 458.52106,-70.72513 z M 468.8844,-70.72513 C 468.43353,-71.70737 467.77295,-72.19794 466.90204,-72.19794 C 465.28095,-72.19794 464.46991,-71.12787 464.46991,-68.98941 C 464.46991,-66.84985 465.28095,-65.78033 466.90204,-65.78033 C 467.95307,-65.78033 468.68921,-66.30111 469.10925,-67.34487 L 471.36126,-66.1719 C 470.31304,-64.30642 468.74011,-63.37341 466.64361,-63.37341 C 465.02587,-63.37341 463.73095,-63.87011 462.75714,-64.86297 C 461.78497,-65.85641 461.29773,-67.22573 461.29773,-68.97097 C 461.29773,-70.68597 461.79224,-72.04803 462.78064,-73.05599 C 463.76843,-74.06453 465.02588,-74.5685 466.55408,-74.5685 C 468.77027,-74.5685 470.35779,-73.69423 471.31543,-71.94622 L 468.8844,-70.72513 z " />
        </g>
      </g>
      <path
         d="M 297.29639,149.82227 L 181.06739,149.82227 C 179.82081,149.82227 178.80616,150.83594 178.80616,152.08252 L 178.80616,191.57861 C 178.80616,191.86035 179.03516,192.08886 179.3169,192.08886 L 299.04639,192.08886 C 299.32813,192.08886 299.55713,191.86034 299.55713,191.57861 L 299.55713,152.08252 C 299.55713,150.83594 298.54297,149.82227 297.29639,149.82227 z M 181.06738,150.84277 L 297.29638,150.84277 C 297.97997,150.84277 298.53564,151.39892 298.53564,152.08252 C 298.53564,152.08252 298.53564,167.96777 298.53564,179.46387 L 215.46191,179.46387 C 212.41699,184.96973 206.55078,188.70752 199.81836,188.70752 C 193.08301,188.70752 187.21826,184.97266 184.17481,179.46387 L 179.82764,179.46387 C 179.82764,167.96778 179.82764,152.08252 179.82764,152.08252 C 179.82764,151.39893 180.38379,150.84277 181.06738,150.84277 z "
         id="path332" />
      <g
         enable-background="new    "
         id="g334">
        <path
           d="M 239.17822,182.77734 C 239.49609,182.77734 239.78564,182.80566 240.04736,182.86132 C 240.30908,182.91698 240.53369,183.00878 240.72119,183.13671 C 240.90771,183.26366 241.05322,183.43359 241.15576,183.64452 C 241.2583,183.85643 241.31006,184.11718 241.31006,184.4287 C 241.31006,184.76464 241.23389,185.04393 241.08057,185.26757 C 240.92823,185.49218 240.70166,185.6748 240.40284,185.81835 C 240.81495,185.93651 241.12257,186.14355 241.32569,186.43944 C 241.52881,186.73533 241.63038,187.09178 241.63038,187.50878 C 241.63038,187.84472 241.56495,188.13573 241.43409,188.38183 C 241.30323,188.62695 241.12647,188.82812 240.90577,188.98339 C 240.68409,189.13964 240.43116,189.25487 240.14796,189.32909 C 239.86378,189.40429 239.57276,189.44139 239.27296,189.44139 L 236.03663,189.44139 L 236.03663,182.77733 L 239.17822,182.77733 L 239.17822,182.77734 z M 238.99121,185.47266 C 239.25244,185.47266 239.46777,185.41016 239.63623,185.28614 C 239.8042,185.16212 239.88818,184.96094 239.88818,184.68165 C 239.88818,184.52638 239.85986,184.39845 239.8042,184.29981 C 239.74756,184.2002 239.67334,184.12305 239.57959,184.06641 C 239.48633,184.01075 239.37891,183.97168 239.25732,183.9502 C 239.13573,183.92872 239.00976,183.91797 238.8789,183.91797 L 237.50536,183.91797 L 237.50536,185.47266 L 238.99121,185.47266 z M 239.07666,188.30078 C 239.22021,188.30078 239.35693,188.28711 239.48828,188.25879 C 239.61865,188.23047 239.73486,188.18359 239.83447,188.11914 C 239.93408,188.05371 240.01318,187.96484 240.07275,187.85254 C 240.13232,187.74121 240.16162,187.59766 240.16162,187.42383 C 240.16162,187.08203 240.06494,186.83789 239.87158,186.69141 C 239.67822,186.5459 239.42285,186.47266 239.10498,186.47266 L 237.50537,186.47266 L 237.50537,188.30078 L 239.07666,188.30078 L 239.07666,188.30078 z "
           id="path336"
           style="fill:#ffffff" />
        <path
           d="M 241.88916,182.77734 L 243.53271,182.77734 L 245.09326,185.40918 L 246.64404,182.77734 L 248.27783,182.77734 L 245.8042,186.88379 L 245.8042,189.44141 L 244.33545,189.44141 L 244.33545,186.84668 L 241.88916,182.77734 z "
           id="path338"
           style="fill:#ffffff" />
      </g>
      <g
         enable-background="new    "
         id="g340">
        <path
           d="M 265.78076,182.77734 L 268.56494,187.24804 L 268.58056,187.24804 L 268.58056,182.77734 L 269.95556,182.77734 L 269.95556,189.4414 L 268.48974,189.4414 L 265.7163,184.97949 L 265.69775,184.97949 L 265.69775,189.4414 L 264.32275,189.4414 L 264.32275,182.77734 L 265.78076,182.77734 z "
           id="path342"
           style="fill:#ffffff" />
        <path
           d="M 275.51904,184.55273 C 275.43213,184.41211 275.32275,184.28906 275.19189,184.18359 C 275.06103,184.07812 274.91357,183.99511 274.74853,183.93652 C 274.58349,183.87695 274.41064,183.84765 274.23095,183.84765 C 273.90087,183.84765 273.6206,183.91113 273.39013,184.03906 C 273.15966,184.16601 272.97314,184.33691 272.83056,184.55176 C 272.68701,184.7666 272.58251,185.01074 272.51708,185.28418 C 272.45165,185.55762 272.41942,185.84082 272.41942,186.13281 C 272.41942,186.41308 272.45165,186.68554 272.51708,186.94922 C 272.58251,187.21387 272.687,187.45215 272.83056,187.66309 C 272.97314,187.875 273.15966,188.04395 273.39013,188.17188 C 273.6206,188.29981 273.90087,188.36329 274.23095,188.36329 C 274.67822,188.36329 275.0288,188.22657 275.28075,187.95216 C 275.5327,187.67872 275.687,187.31739 275.74266,186.86915 L 277.16161,186.86915 C 277.1245,187.28614 277.02782,187.6631 276.87255,187.99903 C 276.71728,188.33594 276.51122,188.62208 276.25634,188.85938 C 276.00146,189.09668 275.70263,189.27735 275.35986,189.40235 C 275.01806,189.52735 274.64111,189.58985 274.23095,189.58985 C 273.72021,189.58985 273.26122,189.50098 272.85302,189.32325 C 272.44579,189.14649 272.10107,188.90137 271.82079,188.59083 C 271.53954,188.27931 271.3247,187.9131 271.17528,187.49317 C 271.02587,187.07227 270.95067,186.62012 270.95067,186.13379 C 270.95067,185.63574 271.02587,185.17383 271.17528,184.74707 C 271.32469,184.32031 271.53954,183.94824 271.82079,183.63086 C 272.10106,183.31348 272.44579,183.06445 272.85302,182.88379 C 273.26122,182.70313 273.72021,182.61328 274.23095,182.61328 C 274.59814,182.61328 274.94482,182.66601 275.27197,182.77246 C 275.59814,182.87793 275.89111,183.03223 276.14892,183.23535 C 276.40771,183.4375 276.6206,183.68847 276.78857,183.9873 C 276.95654,184.28613 277.06201,184.6289 277.10595,185.01464 L 275.687,185.01464 C 275.6626,184.84668 275.60596,184.69238 275.51904,184.55273 z "
           id="path344"
           style="fill:#ffffff" />
      </g>
      <g
         id="g6379_1_"
         transform="matrix(1.146822,0,0,1.146822,457.9375,166.153)">
        <path
           id="path6381_1_"
           cx="475.97119"
           ry="29.209877"
           cy="252.08646"
           type="arc"
           rx="29.209877"
           d="M -154.14499,-1.09436 C -154.14157,3.73257 -158.051,7.64752 -162.87836,7.65134 C -167.70488,7.65433 -171.62026,3.74448 -171.62366,-1.0816 C -171.62366,-1.0867 -171.62366,-1.09054 -171.62366,-1.09436 C -171.62706,-5.92175 -167.71765,-9.8367 -162.89115,-9.84051 C -158.06376,-9.8435 -154.14838,-5.93365 -154.145,-1.10757 C -154.14499,-1.1033 -154.14499,-1.09863 -154.14499,-1.09436 z "
           style="fill:#ffffff" />
        <path
           id="path6383_1_"
           d="M -162.89709,-11.26941 C -160.04528,-11.26941 -157.63372,-10.28589 -155.66412,-8.31925 C -153.69452,-6.35178 -152.70929,-3.94321 -152.70929,-1.09437 C -152.70929,1.75445 -153.67749,4.13704 -155.61304,6.05385 C -157.66779,8.07198 -160.09552,9.08022 -162.8971,9.08022 C -165.66544,9.08022 -168.0506,8.07967 -170.05428,6.07854 C -172.05794,4.07827 -173.05935,1.68672 -173.05935,-1.09437 C -173.05935,-3.87593 -172.05795,-6.28449 -170.05428,-8.31925 C -168.1017,-10.28589 -165.71568,-11.26941 -162.89709,-11.26941 z M -170.77042,-3.82825 C -171.07357,-2.96945 -171.22513,-2.05832 -171.22513,-1.09436 C -171.22513,1.16092 -170.40254,3.11054 -168.75568,4.7561 C -167.1088,6.40045 -165.14771,7.22345 -162.87156,7.22345 C -160.59623,7.22345 -158.61897,6.39276 -156.93803,4.73013 C -156.37516,4.18686 -155.91108,3.59335 -155.54747,2.95044 L -159.38365,1.24268 C -159.64339,2.53318 -160.79295,3.40473 -162.18352,3.5069 L -162.18352,5.07587 L -163.35182,5.07587 L -163.35182,3.5069 C -164.49374,3.49414 -165.59733,3.02707 -166.44035,2.28879 L -165.03958,0.87567 C -164.3643,1.51089 -163.68904,1.79617 -162.76768,1.79617 C -162.17073,1.79617 -161.5091,1.56241 -161.5091,0.78454 C -161.5091,0.50906 -161.6164,0.31747 -161.78412,0.17355 L -162.75403,-0.25901 L -163.96237,-0.79633 C -164.55929,-1.06287 -165.06511,-1.28727 -165.57347,-1.51377 L -170.77042,-3.82825 z M -162.87155,-9.43817 C -165.18092,-9.43817 -167.1335,-8.62451 -168.72928,-6.99597 C -169.16441,-6.5574 -169.54164,-6.0993 -169.86353,-5.62158 L -165.97286,-3.88955 C -165.62201,-4.96887 -164.59676,-5.62371 -163.35181,-5.69607 L -163.35181,-7.26504 L -162.18351,-7.26504 L -162.18351,-5.69607 C -161.37882,-5.65734 -160.49662,-5.43679 -159.62721,-4.76321 L -160.96412,-3.38885 C -161.45716,-3.7384 -162.07963,-3.98492 -162.70295,-3.98492 C -163.20875,-3.98492 -163.92236,-3.82992 -163.92236,-3.19513 C -163.92236,-3.09763 -163.89085,-3.01245 -163.83123,-2.93668 L -162.5301,-2.35764 L -161.64961,-1.96506 C -161.08674,-1.71344 -160.54857,-1.47501 -160.01552,-1.23743 L -154.80239,1.08343 C -154.62954,0.40093 -154.54354,-0.32544 -154.54354,-1.09437 C -154.54354,-3.41865 -155.35845,-5.38487 -156.9883,-6.99598 C -158.60193,-8.62451 -160.56302,-9.43817 -162.87155,-9.43817 z " />
      </g>
      <g
         id="g349">
        <circle
           cx="242.56226"
           cy="165.13574"
           r="10.8064"
           id="circle351"
           sodipodi:cx="242.56226"
           sodipodi:cy="165.13574"
           sodipodi:rx="10.8064"
           sodipodi:ry="10.8064"
           style="fill:#ffffff" />
        <g
           id="g353">
          <path
             d="M 245.68994,162.00928 C 245.68994,161.59278 245.35205,161.25537 244.93603,161.25537 L 240.16357,161.25537 C 239.74755,161.25537 239.40966,161.59277 239.40966,162.00928 L 239.40966,166.78223 L 240.74071,166.78223 L 240.74071,172.43409 L 244.3579,172.43409 L 244.3579,166.78223 L 245.68993,166.78223 L 245.68993,162.00928 L 245.68994,162.00928 z "
             id="path355" />
          <circle
             cx="242.5498"
             cy="158.99463"
             r="1.63232"
             id="circle357"
             sodipodi:cx="242.5498"
             sodipodi:cy="158.99463"
             sodipodi:rx="1.63232"
             sodipodi:ry="1.63232" />
        </g>
        <path
           clip-rule="evenodd"
           d="M 242.53467,153.22949 C 239.30322,153.22949 236.56641,154.35693 234.32715,156.61328 C 232.0293,158.94678 230.88086,161.70898 230.88086,164.89795 C 230.88086,168.08692 232.0293,170.82959 234.32715,173.12451 C 236.625,175.41894 239.36133,176.5664 242.53467,176.5664 C 245.74756,176.5664 248.53272,175.41015 250.88819,173.09521 C 253.10889,170.89794 254.21827,168.16552 254.21827,164.89794 C 254.21827,161.63036 253.08936,158.86913 250.83057,156.61327 C 248.57178,154.35693 245.80615,153.22949 242.53467,153.22949 z M 242.56396,155.3291 C 245.2124,155.3291 247.46142,156.26318 249.31103,158.12988 C 251.18115,159.97754 252.11572,162.2334 252.11572,164.89795 C 252.11572,167.58154 251.20068,169.80859 249.36963,171.57813 C 247.4419,173.48438 245.17334,174.43702 242.56397,174.43702 C 239.9546,174.43702 237.70557,173.49366 235.81739,171.60743 C 233.92774,169.72071 232.98389,167.48438 232.98389,164.89796 C 232.98389,162.31105 233.93799,160.05519 235.84619,158.12989 C 237.67676,156.26318 239.9165,155.3291 242.56396,155.3291 z "
           id="path359"
           style="fill-rule:evenodd" />
      </g>
    </g>
  </g>
</svg>
