<?xml version="1.0" encoding="UTF-8" standalone="no"?>
<!-- Created with Inkscape (http://www.inkscape.org/) -->
<svg
   xmlns:dc="http://purl.org/dc/elements/1.1/"
   xmlns:cc="http://web.resource.org/cc/"
   xmlns:rdf="http://www.w3.org/1999/02/22-rdf-syntax-ns#"
   xmlns:svg="http://www.w3.org/2000/svg"
   xmlns="http://www.w3.org/2000/svg"
   xmlns:sodipodi="http://sodipodi.sourceforge.net/DTD/sodipodi-0.dtd"
   xmlns:inkscape="http://www.inkscape.org/namespaces/inkscape"
   width="142.73199"
   height="163.41475"
   id="svg3515"
   sodipodi:version="0.32"
   inkscape:version="0.45.1"
   version="1.0"
   sodipodi:docbase="/Users/robmyers/Desktop/cc-ironies/final"
   sodipodi:docname="art_is.svg"
   inkscape:output_extension="org.inkscape.output.svg.inkscape">
  <defs
     id="defs3" />
  <sodipodi:namedview
     inkscape:document-units="mm"
     id="base"
     pagecolor="#ffffff"
     bordercolor="#666666"
     borderopacity="1.0"
     inkscape:pageopacity="0.0"
     inkscape:pageshadow="2"
     inkscape:zoom="2.02855"
     inkscape:cx="71.365997"
     inkscape:cy="93.169998"
     inkscape:current-layer="layer1"
     inkscape:window-width="697"
     inkscape:window-height="581"
     inkscape:window-x="20"
     inkscape:window-y="42"
     height="186.34px"
     width="142.73199px" />
  <metadata
     id="metadata4">
    <rdf:RDF>
      <cc:Work
         rdf:about="">
        <dc:format>image/svg+xml</dc:format>
        <dc:type
           rdf:resource="http://purl.org/dc/dcmitype/StillImage" />
      </cc:Work>
    </rdf:RDF>
  </metadata>
  <g
     inkscape:label="Layer 1"
     inkscape:groupmode="layer"
     id="layer1"
     transform="translate(-145.77686,-56.335041)">
    <rect
       x="146.27686"
       y="56.835041"
       style="fill:#ffffff;stroke:#000000"
       width="141.73199"
       height="141.73199"
       id="rect83" />
    <g
       id="g86"
       transform="matrix(0.5,0,0,0.5,63.15136,126.57979)">
      <path
         id="path3817_2_"
         style="fill:#aab2ab"
         d="M 167.821,154.968 L 253.369,155.12 C 254.564,155.12 255.633,154.943 255.633,157.506 L 255.528,185.68 L 165.663,185.68 L 165.663,157.4 C 165.663,156.138 165.785,154.968 167.821,154.968 z " />
      <g
         id="g5908_2_">
        <path
           id="path5906_2_"
           style="fill:#ffffff"
           d="M 191.304,169.383 C 191.307,175.067 186.702,179.676 181.02,179.68 C 175.338,179.684 170.727,175.08 170.724,169.397 C 170.724,169.392 170.724,169.388 170.724,169.383 C 170.721,163.699 175.325,159.091 181.008,159.087 C 186.692,159.084 191.301,163.688 191.305,169.371 C 191.304,169.375 191.304,169.379 191.304,169.383 z " />
        <g
           id="g5706_2_">
          <path
             d="M 189.378,161.002 C 191.66,163.283 192.801,166.078 192.801,169.383 C 192.801,172.69 191.679,175.455 189.437,177.678 C 187.056,180.02 184.244,181.19 180.998,181.19 C 177.792,181.19 175.027,180.03 172.706,177.706 C 170.385,175.386 169.224,172.612 169.224,169.384 C 169.224,166.158 170.385,163.364 172.706,161.003 C 174.968,158.72 177.733,157.579 180.998,157.579 C 184.304,157.578 187.097,158.719 189.378,161.002 z M 174.243,162.537 C 172.314,164.486 171.349,166.768 171.349,169.387 C 171.349,172.004 172.304,174.268 174.212,176.176 C 176.122,178.086 178.395,179.041 181.032,179.041 C 183.67,179.041 185.962,178.076 187.91,176.146 C 189.76,174.355 190.686,172.103 190.686,169.386 C 190.686,166.69 189.746,164.402 187.866,162.521 C 185.986,160.643 183.709,159.703 181.032,159.703 C 178.355,159.703 176.093,160.648 174.243,162.537 z M 179.319,168.234 C 179.025,167.591 178.583,167.271 177.995,167.271 C 176.954,167.271 176.434,167.97 176.434,169.371 C 176.434,170.772 176.954,171.473 177.995,171.473 C 178.683,171.473 179.173,171.131 179.468,170.449 L 180.91,171.218 C 180.222,172.439 179.191,173.05 177.816,173.05 C 176.755,173.05 175.906,172.726 175.268,172.075 C 174.629,171.425 174.31,170.526 174.31,169.384 C 174.31,168.262 174.639,167.37 175.297,166.71 C 175.955,166.05 176.775,165.72 177.757,165.72 C 179.21,165.72 180.251,166.292 180.88,167.437 L 179.319,168.234 z M 186.104,168.234 C 185.809,167.591 185.376,167.271 184.806,167.271 C 183.745,167.271 183.214,167.97 183.214,169.371 C 183.214,170.772 183.745,171.473 184.806,171.473 C 185.494,171.473 185.976,171.131 186.251,170.449 L 187.726,171.218 C 187.039,172.439 186.01,173.05 184.637,173.05 C 183.578,173.05 182.73,172.726 182.093,172.075 C 181.457,171.425 181.137,170.526 181.137,169.384 C 181.137,168.262 181.46,167.37 182.108,166.71 C 182.755,166.05 183.578,165.72 184.579,165.72 C 186.03,165.72 187.069,166.292 187.696,167.437 L 186.104,168.234 z "
             id="path92" />
        </g>
      </g>
      <g
         id="g85_2_">
        <circle
           id="circle87_2_"
           style="fill:#ffffff"
           cx="213.067"
           cy="166.09399"
           r="8.1049995"
           sodipodi:cx="213.067"
           sodipodi:cy="166.09399"
           sodipodi:rx="8.1049995"
           sodipodi:ry="8.1049995" />
        <g
           id="g89_2_">
          <path
             id="path91_2_"
             d="M 215.413,163.749 C 215.413,163.436 215.159,163.184 214.848,163.184 L 211.269,163.184 C 210.957,163.184 210.703,163.436 210.703,163.749 L 210.703,167.328 L 211.702,167.328 L 211.702,171.568 L 214.415,171.568 L 214.415,167.328 L 215.414,167.328 L 215.414,163.749 L 215.413,163.749 z " />
          <circle
             id="circle93_2_"
             cx="213.05701"
             cy="161.48801"
             r="1.225"
             sodipodi:cx="213.05701"
             sodipodi:cy="161.48801"
             sodipodi:rx="1.225"
             sodipodi:ry="1.225" />
        </g>
        <path
           d="M 213.045,157.164 C 210.622,157.164 208.569,158.01 206.89,159.702 C 205.167,161.452 204.306,163.523 204.306,165.916 C 204.306,168.307 205.167,170.364 206.89,172.086 C 208.613,173.807 210.666,174.668 213.045,174.668 C 215.455,174.668 217.545,173.799 219.311,172.063 C 220.977,170.417 221.809,168.367 221.809,165.917 C 221.809,163.466 220.961,161.396 219.268,159.703 C 217.575,158.01 215.5,157.164 213.045,157.164 z M 213.069,158.739 C 215.055,158.739 216.741,159.439 218.129,160.84 C 219.532,162.225 220.233,163.918 220.233,165.916 C 220.233,167.928 219.546,169.599 218.173,170.926 C 216.728,172.356 215.027,173.071 213.069,173.071 C 211.111,173.071 209.424,172.362 208.008,170.948 C 206.591,169.534 205.883,167.856 205.883,165.917 C 205.883,163.976 206.599,162.284 208.03,160.841 C 209.402,159.439 211.083,158.739 213.069,158.739 z "
           id="path99" />
      </g>
      <path
         d="M 254.118,154.639 L 166.946,154.639 C 166.011,154.639 165.251,155.4 165.251,156.334 L 165.251,185.955 C 165.251,186.168 165.422,186.34 165.634,186.34 L 255.431,186.34 C 255.642,186.34 255.814,186.168 255.814,185.955 L 255.814,156.334 C 255.813,155.399 255.051,154.639 254.118,154.639 z M 166.945,155.404 L 254.117,155.404 C 254.629,155.404 255.047,155.821 255.047,156.334 C 255.047,156.334 255.047,168.246 255.047,176.867 L 192.741,176.867 C 190.457,180.998 186.057,183.801 181.009,183.801 C 175.957,183.801 171.559,181 169.276,176.867 L 166.016,176.867 C 166.016,168.246 166.016,156.334 166.016,156.334 C 166.016,155.821 166.433,155.404 166.945,155.404 z "
         id="path101" />
      <g
         id="g99_2_"
         style="enable-background:new">
        <path
           style="fill:#ffffff"
           d="M 210.529,179.355 C 210.767,179.355 210.985,179.376 211.18,179.417 C 211.377,179.46 211.545,179.528 211.686,179.624 C 211.827,179.72 211.935,179.847 212.012,180.005 C 212.088,180.165 212.127,180.359 212.127,180.593 C 212.127,180.845 212.07,181.056 211.955,181.224 C 211.841,181.39 211.671,181.529 211.447,181.636 C 211.756,181.724 211.986,181.88 212.138,182.101 C 212.29,182.324 212.367,182.591 212.367,182.904 C 212.367,183.156 212.318,183.375 212.221,183.558 C 212.122,183.744 211.991,183.892 211.825,184.009 C 211.659,184.126 211.47,184.214 211.257,184.269 C 211.044,184.326 210.825,184.353 210.6,184.353 L 208.173,184.353 L 208.173,179.355 L 210.529,179.355 z M 210.388,181.377 C 210.584,181.377 210.745,181.332 210.872,181.238 C 210.998,181.144 211.061,180.992 211.061,180.783 C 211.061,180.668 211.04,180.572 210.998,180.498 C 210.956,180.424 210.9,180.365 210.83,180.324 C 210.76,180.281 210.679,180.252 210.588,180.236 C 210.497,180.218 210.402,180.211 210.304,180.211 L 209.275,180.211 L 209.275,181.377 L 210.388,181.377 L 210.388,181.377 z M 210.453,183.498 C 210.561,183.498 210.663,183.488 210.761,183.467 C 210.86,183.446 210.947,183.412 211.021,183.362 C 211.096,183.313 211.155,183.247 211.2,183.163 C 211.245,183.079 211.266,182.974 211.266,182.841 C 211.266,182.585 211.194,182.402 211.049,182.294 C 210.904,182.183 210.712,182.128 210.474,182.128 L 209.275,182.128 L 209.275,183.499 L 210.453,183.499 L 210.453,183.498 z "
           id="path104" />
        <polygon
           id="path103_2_"
           style="fill:#ffffff"
           points="212.562,179.355 213.795,179.355 214.965,181.33 216.127,179.355 217.354,179.355 215.499,182.436 215.499,184.354 214.397,184.354 214.397,182.408 212.562,179.355 " />
      </g>
      <g
         id="g105_2_"
         style="enable-background:new">
        <polygon
           id="path107_2_"
           style="fill:#ffffff"
           points="230.102,179.355 232.191,182.709 232.203,182.709 232.203,179.355 233.234,179.355 233.234,184.354 232.135,184.354 230.055,181.008 230.041,181.008 230.041,184.354 229.009,184.354 229.009,179.355 230.102,179.355 " />
        <path
           style="fill:#ffffff"
           d="M 236.356,179.355 C 236.678,179.355 236.978,179.406 237.256,179.509 C 237.534,179.612 237.775,179.767 237.979,179.972 C 238.182,180.177 238.34,180.433 238.455,180.74 C 238.569,181.051 238.628,181.412 238.628,181.826 C 238.628,182.191 238.581,182.527 238.487,182.834 C 238.393,183.143 238.253,183.408 238.063,183.633 C 237.873,183.858 237.637,184.033 237.354,184.162 C 237.072,184.291 236.739,184.353 236.356,184.353 L 234.198,184.353 L 234.198,179.355 L 236.356,179.355 L 236.356,179.355 z M 236.278,183.428 C 236.438,183.428 236.591,183.403 236.741,183.352 C 236.891,183.301 237.024,183.215 237.139,183.096 C 237.256,182.977 237.35,182.823 237.42,182.631 C 237.49,182.439 237.525,182.207 237.525,181.932 C 237.525,181.68 237.5,181.453 237.451,181.25 C 237.402,181.047 237.322,180.873 237.209,180.729 C 237.098,180.584 236.949,180.475 236.766,180.397 C 236.58,180.321 236.354,180.282 236.082,180.282 L 235.299,180.282 L 235.299,183.428 L 236.278,183.428 z "
           id="path109" />
      </g>
      <g
         id="g6501_2_">
        <path
           id="path6503_2_"
           style="fill:#ffffff"
           d="M 242.602,165.945 C 242.604,170.357 239.03,173.937 234.618,173.939 C 230.208,173.943 226.628,170.369 226.624,165.957 C 226.624,165.953 226.624,165.948 226.624,165.945 C 226.622,161.533 230.196,157.955 234.608,157.951 C 239.02,157.947 242.598,161.521 242.602,165.933 C 242.602,165.938 242.602,165.941 242.602,165.945 z " />
        <g
           id="g6505_2_">
          <path
             d="M 234.488,157.193 C 232.063,157.193 230.011,158.039 228.333,159.73 C 226.608,161.481 225.747,163.552 225.747,165.945 C 225.747,168.338 226.608,170.393 228.333,172.115 C 230.056,173.838 232.106,174.697 234.488,174.697 C 236.897,174.697 238.985,173.828 240.753,172.093 C 242.419,170.445 243.251,168.395 243.251,165.945 C 243.251,163.494 242.403,161.424 240.71,159.73 C 239.014,158.039 236.94,157.193 234.488,157.193 z M 234.51,158.768 C 236.494,158.768 238.182,159.469 239.571,160.87 C 240.971,162.256 241.673,163.946 241.673,165.946 C 241.673,167.959 240.987,169.629 239.614,170.956 C 238.168,172.386 236.466,173.101 234.51,173.101 C 232.551,173.101 230.865,172.394 229.448,170.978 C 228.031,169.564 227.324,167.886 227.324,165.947 C 227.324,164.006 228.039,162.315 229.47,160.871 C 230.844,159.469 232.524,158.768 234.51,158.768 z "
             id="path114" />
          <g
             id="g6509_2_">
            <path
               d="M 237.805,163.871 L 231.444,163.871 L 231.444,165.378 L 237.805,165.378 L 237.805,163.871 z M 237.805,166.684 L 231.444,166.684 L 231.444,168.191 L 237.805,168.191 L 237.805,166.684 z "
               id="path117" />
          </g>
        </g>
      </g>
    </g>
    <g
       id="g193"
       transform="translate(-18.97314,56.33504)">
      <path
         id="path195"
         d="M 174.559,68.445 C 173.578,69.336 172.696,69.781 171.916,69.781 C 171.457,69.781 171.075,69.63 170.77,69.326 C 170.465,69.023 170.313,68.644 170.313,68.188 C 170.313,67.571 170.577,67.015 171.105,66.521 C 171.633,66.027 172.784,65.371 174.558,64.551 L 174.558,63.741 C 174.558,63.133 174.526,62.749 174.461,62.592 C 174.395,62.434 174.272,62.297 174.09,62.179 C 173.908,62.061 173.704,62.002 173.477,62.002 C 173.108,62.002 172.803,62.085 172.561,62.252 C 172.412,62.356 172.337,62.477 172.337,62.614 C 172.337,62.735 172.417,62.884 172.578,63.062 C 172.796,63.309 172.905,63.547 172.905,63.777 C 172.905,64.058 172.801,64.298 172.591,64.496 C 172.382,64.694 172.107,64.793 171.767,64.793 C 171.404,64.793 171.101,64.684 170.857,64.466 C 170.613,64.248 170.491,63.992 170.491,63.7 C 170.491,63.287 170.654,62.892 170.981,62.516 C 171.308,62.141 171.763,61.852 172.348,61.651 C 172.932,61.45 173.54,61.349 174.17,61.349 C 174.933,61.349 175.536,61.512 175.979,61.838 C 176.423,62.163 176.711,62.517 176.844,62.897 C 176.924,63.139 176.964,63.696 176.964,64.566 L 176.964,67.705 C 176.964,68.074 176.979,68.306 177.007,68.401 C 177.035,68.496 177.08,68.567 177.138,68.612 C 177.197,68.658 177.267,68.681 177.349,68.681 C 177.497,68.681 177.649,68.572 177.803,68.351 L 178.062,68.564 C 177.773,68.989 177.476,69.298 177.166,69.49 C 176.857,69.682 176.507,69.778 176.115,69.778 C 175.654,69.778 175.294,69.667 175.034,69.446 C 174.774,69.225 174.616,68.894 174.559,68.445 z M 174.559,67.822 L 174.559,65.132 C 173.87,65.542 173.358,65.98 173.022,66.448 C 172.8,66.76 172.689,67.074 172.689,67.392 C 172.689,67.658 172.783,67.892 172.971,68.093 C 173.113,68.249 173.313,68.327 173.569,68.327 C 173.853,68.326 174.183,68.158 174.559,67.822 z " />
      <path
         id="path197"
         d="M 182.266,61.587 L 182.275,63.426 C 182.81,62.59 183.279,62.034 183.683,61.76 C 184.086,61.486 184.475,61.349 184.85,61.349 C 185.165,61.349 185.417,61.448 185.606,61.645 C 185.794,61.843 185.889,62.122 185.889,62.483 C 185.889,62.867 185.796,63.165 185.611,63.377 C 185.426,63.589 185.202,63.694 184.939,63.694 C 184.633,63.694 184.367,63.6 184.142,63.41 C 183.917,63.221 183.784,63.114 183.744,63.091 C 183.686,63.058 183.62,63.041 183.545,63.041 C 183.381,63.041 183.227,63.104 183.081,63.23 C 182.85,63.425 182.676,63.704 182.558,64.065 C 182.378,64.622 182.288,65.237 182.288,65.909 L 182.296,67.763 L 182.298,68.236 C 182.298,68.571 182.318,68.786 182.358,68.879 C 182.426,69.038 182.526,69.154 182.66,69.228 C 182.794,69.301 183.019,69.347 183.337,69.364 L 183.337,69.661 L 179,69.661 L 179,69.364 C 179.348,69.335 179.584,69.238 179.707,69.072 C 179.83,68.906 179.891,68.469 179.891,67.76 L 179.891,63.307 C 179.891,62.835 179.868,62.534 179.823,62.404 C 179.766,62.239 179.683,62.118 179.575,62.041 C 179.466,61.964 179.275,61.911 179.001,61.882 L 179.001,61.585 L 182.266,61.585 L 182.266,61.587 z " />
      <path
         id="path199"
         d="M 189.96,58.619 L 189.96,61.588 L 191.89,61.588 L 191.89,62.419 L 189.96,62.419 L 189.96,67.437 C 189.96,67.907 189.981,68.209 190.025,68.346 C 190.068,68.483 190.146,68.593 190.256,68.677 C 190.366,68.761 190.467,68.803 190.56,68.803 C 190.938,68.803 191.294,68.516 191.631,67.942 L 191.89,68.131 C 191.423,69.233 190.667,69.782 189.62,69.782 C 189.107,69.782 188.674,69.639 188.32,69.353 C 187.966,69.067 187.74,68.747 187.642,68.395 C 187.584,68.198 187.556,67.666 187.556,66.799 L 187.556,62.42 L 186.458,62.42 L 186.458,62.119 C 187.19,61.608 187.813,61.071 188.327,60.508 C 188.841,59.945 189.29,59.316 189.673,58.621 L 189.96,58.621 L 189.96,58.619 z " />
      <path
         id="path201"
         d="M 200.233,61.587 L 200.233,68 C 200.233,68.571 200.299,68.936 200.432,69.094 C 200.565,69.252 200.825,69.343 201.212,69.366 L 201.212,69.663 L 196.848,69.663 L 196.848,69.366 C 197.209,69.355 197.477,69.251 197.652,69.055 C 197.769,68.923 197.827,68.571 197.827,68 L 197.827,63.28 C 197.827,62.697 197.759,62.325 197.626,62.163 C 197.491,62.001 197.232,61.908 196.848,61.885 L 196.848,61.588 L 200.233,61.588 L 200.233,61.587 z M 199.011,57.698 C 199.386,57.698 199.702,57.829 199.962,58.091 C 200.222,58.354 200.352,58.669 200.352,59.038 C 200.352,59.408 200.22,59.722 199.958,59.981 C 199.696,60.241 199.38,60.37 199.011,60.37 C 198.641,60.37 198.328,60.241 198.068,59.981 C 197.808,59.722 197.679,59.408 197.679,59.038 C 197.679,58.669 197.808,58.354 198.068,58.091 C 198.328,57.83 198.642,57.698 199.011,57.698 z " />
      <path
         id="path203"
         d="M 207.101,61.379 L 207.22,64.14 L 206.923,64.14 C 206.573,63.318 206.211,62.756 205.836,62.454 C 205.461,62.153 205.087,62.002 204.715,62.002 C 204.48,62.002 204.28,62.081 204.113,62.239 C 203.947,62.397 203.864,62.58 203.864,62.786 C 203.864,62.942 203.921,63.091 204.036,63.235 C 204.219,63.471 204.732,63.875 205.573,64.446 C 206.414,65.018 206.969,65.504 207.235,65.903 C 207.501,66.302 207.634,66.749 207.634,67.244 C 207.634,67.692 207.523,68.132 207.301,68.563 C 207.079,68.994 206.766,69.325 206.363,69.555 C 205.959,69.784 205.512,69.9 205.023,69.9 C 204.642,69.9 204.132,69.782 203.496,69.547 C 203.325,69.485 203.208,69.455 203.146,69.455 C 202.958,69.455 202.802,69.594 202.676,69.871 L 202.379,69.871 L 202.231,66.961 L 202.528,66.961 C 202.785,67.723 203.138,68.295 203.586,68.676 C 204.035,69.057 204.459,69.247 204.859,69.247 C 205.133,69.247 205.357,69.163 205.531,68.993 C 205.706,68.824 205.793,68.618 205.793,68.377 C 205.793,68.102 205.707,67.863 205.535,67.662 C 205.363,67.461 204.979,67.156 204.383,66.748 C 203.506,66.139 202.938,65.673 202.68,65.352 C 202.302,64.881 202.112,64.361 202.112,63.791 C 202.112,63.17 202.325,62.608 202.753,62.105 C 203.181,61.602 203.799,61.351 204.608,61.351 C 205.044,61.351 205.466,61.457 205.873,61.668 C 206.028,61.754 206.154,61.796 206.252,61.796 C 206.355,61.796 206.439,61.775 206.502,61.734 C 206.565,61.692 206.665,61.574 206.803,61.38 L 207.101,61.38 L 207.101,61.379 z " />
      <path
         id="path205"
         d="M 212.487,72.364 L 221.72,72.364 L 221.72,73.463 L 212.487,73.463 L 212.487,72.364 z " />
      <path
         id="path207"
         d="M 221.323,72.364 L 230.555,72.364 L 230.555,73.463 L 221.323,73.463 L 221.323,72.364 z " />
      <path
         id="path209"
         d="M 230.158,72.364 L 239.391,72.364 L 239.391,73.463 L 230.158,73.463 L 230.158,72.364 z " />
      <path
         id="path211"
         d="M 238.993,72.364 L 248.226,72.364 L 248.226,73.463 L 238.993,73.463 L 238.993,72.364 z " />
      <path
         id="path213"
         d="M 247.828,72.364 L 257.06,72.364 L 257.06,73.463 L 247.828,73.463 L 247.828,72.364 L 247.828,72.364 z " />
      <path
         id="path215"
         d="M 256.663,72.364 L 265.896,72.364 L 265.896,73.463 L 256.663,73.463 L 256.663,72.364 z " />
      <path
         id="path217"
         d="M 265.498,72.364 L 274.731,72.364 L 274.731,73.463 L 265.498,73.463 L 265.498,72.364 z " />
      <path
         id="path219"
         d="M 274.333,72.364 L 283.565,72.364 L 283.565,73.463 L 274.333,73.463 L 274.333,72.364 z " />
      <path
         id="path221"
         d="M 283.168,72.364 L 292.401,72.364 L 292.401,73.463 L 283.168,73.463 L 283.168,72.364 z " />
      <path
         id="path223"
         d="M 292.003,72.364 L 301.236,72.364 L 301.236,73.463 L 292.003,73.463 L 292.003,72.364 z " />
    </g>
  </g>
</svg>
