<?xml version="1.0" encoding="UTF-8" standalone="no"?>
<!-- Created with Inkscape (http://www.inkscape.org/) -->
<svg
   xmlns:dc="http://purl.org/dc/elements/1.1/"
   xmlns:cc="http://web.resource.org/cc/"
   xmlns:rdf="http://www.w3.org/1999/02/22-rdf-syntax-ns#"
   xmlns:svg="http://www.w3.org/2000/svg"
   xmlns="http://www.w3.org/2000/svg"
   xmlns:sodipodi="http://sodipodi.sourceforge.net/DTD/sodipodi-0.dtd"
   xmlns:inkscape="http://www.inkscape.org/namespaces/inkscape"
   width="142.73199"
   height="163.41377"
   id="svg2447"
   sodipodi:version="0.32"
   inkscape:version="0.45.1"
   version="1.0"
   sodipodi:docbase="/Users/robmyers/Desktop/cc-ironies/final"
   sodipodi:docname="blank_canvas.svg"
   inkscape:output_extension="org.inkscape.output.svg.inkscape">
  <defs
     id="defs2449" />
  <sodipodi:namedview
     id="base"
     pagecolor="#ffffff"
     bordercolor="#666666"
     borderopacity="1.0"
     gridtolerance="10000"
     guidetolerance="10"
     objecttolerance="10"
     inkscape:pageopacity="0.0"
     inkscape:pageshadow="2"
     inkscape:zoom="2.0285608"
     inkscape:cx="71.365997"
     inkscape:cy="93.169502"
     inkscape:document-units="px"
     inkscape:current-layer="layer1"
     inkscape:window-width="697"
     inkscape:window-height="581"
     inkscape:window-x="96"
     inkscape:window-y="45" />
  <metadata
     id="metadata2452">
    <rdf:RDF>
      <cc:Work
         rdf:about="">
        <dc:format>image/svg+xml</dc:format>
        <dc:type
           rdf:resource="http://purl.org/dc/dcmitype/StillImage" />
      </cc:Work>
    </rdf:RDF>
  </metadata>
  <g
     inkscape:label="Layer 1"
     inkscape:groupmode="layer"
     id="layer1"
     transform="translate(-668.63397,-642.0498)">
    <rect
       id="rect13"
       height="141.73199"
       width="141.73199"
       style="fill:#ffffff;stroke:#000000"
       y="642.5498"
       x="669.13397" />
    <g
       id="g80"
       transform="matrix(0.5,0,0,0.5,423.34197,712.29408)">
      <path
         d="M 492.953,155.021 L 578.502,155.173 C 579.697,155.173 580.765,154.995 580.765,157.558 L 580.661,185.734 L 490.795,185.734 L 490.795,157.454 C 490.794,156.19 490.917,155.021 492.953,155.021 z "
         style="fill:#aab2ab"
         id="path3817_3_" />
      <path
         id="path83"
         d="M 579.452,154.638 L 492.279,154.638 C 491.345,154.638 490.584,155.398 490.584,156.333 L 490.584,185.955 C 490.584,186.167 490.756,186.339 490.967,186.339 L 580.765,186.339 C 580.976,186.339 581.148,186.167 581.148,185.955 L 581.148,156.333 C 581.147,155.398 580.387,154.638 579.452,154.638 z M 492.279,155.404 L 579.452,155.404 C 579.964,155.404 580.382,155.821 580.382,156.334 C 580.382,156.334 580.382,168.295 580.382,176.921 L 517.873,176.921 C 515.59,181.051 511.189,183.855 506.141,183.855 C 501.09,183.855 496.692,181.053 494.409,176.921 L 491.35,176.921 C 491.35,168.295 491.35,156.334 491.35,156.334 C 491.349,155.821 491.767,155.404 492.279,155.404 z " />
      <g
         style="enable-background:new"
         id="g265_3_">
        <path
           id="path86"
           d="M 546.288,179.355 C 546.526,179.355 546.743,179.376 546.94,179.417 C 547.136,179.46 547.303,179.528 547.444,179.624 C 547.585,179.719 547.694,179.847 547.77,180.005 C 547.848,180.164 547.886,180.359 547.886,180.593 C 547.886,180.845 547.828,181.055 547.713,181.222 C 547.6,181.39 547.43,181.529 547.205,181.635 C 547.514,181.724 547.745,181.88 547.897,182.101 C 548.049,182.324 548.126,182.59 548.126,182.904 C 548.126,183.156 548.076,183.375 547.979,183.558 C 547.882,183.741 547.749,183.892 547.583,184.009 C 547.417,184.126 547.228,184.213 547.015,184.269 C 546.802,184.325 546.583,184.353 546.359,184.353 L 543.932,184.353 L 543.932,179.355 L 546.288,179.355 z M 546.147,181.376 C 546.342,181.376 546.504,181.329 546.631,181.236 C 546.756,181.142 546.819,180.991 546.819,180.782 C 546.819,180.667 546.798,180.569 546.756,180.497 C 546.714,180.422 546.658,180.363 546.588,180.321 C 546.518,180.28 546.438,180.251 546.346,180.234 C 546.256,180.217 546.16,180.21 546.063,180.21 L 545.033,180.21 L 545.033,181.376 L 546.147,181.376 L 546.147,181.376 z M 546.211,183.498 C 546.318,183.498 546.421,183.487 546.52,183.467 C 546.618,183.446 546.704,183.41 546.78,183.362 C 546.854,183.313 546.914,183.247 546.958,183.163 C 547.003,183.079 547.025,182.972 547.025,182.841 C 547.025,182.585 546.952,182.402 546.807,182.292 C 546.662,182.182 546.471,182.128 546.233,182.128 L 545.033,182.128 L 545.033,183.499 L 546.211,183.499 L 546.211,183.498 z "
           style="fill:#ffffff" />
        <polygon
           points="548.321,179.355 549.553,179.355 550.723,181.33 551.887,179.355 553.112,179.355 551.256,182.435 551.256,184.353 550.155,184.353 550.155,182.408 548.321,179.355 "
           style="fill:#ffffff"
           id="path269_3_" />
      </g>
      <g
         id="g5908_3_">
        <path
           d="M 516.435,169.436 C 516.439,175.12 511.833,179.729 506.152,179.732 C 500.468,179.736 495.858,175.131 495.855,169.449 C 495.855,169.445 495.855,169.441 495.855,169.436 C 495.851,163.753 500.457,159.143 506.138,159.14 C 511.822,159.136 516.431,163.741 516.435,169.423 C 516.435,169.427 516.435,169.432 516.435,169.436 z "
           style="fill:#ffffff"
           id="path5906_3_" />
        <g
           id="g5706_3_">
          <path
             id="path92"
             d="M 514.509,161.054 C 516.792,163.336 517.933,166.13 517.933,169.436 C 517.933,172.742 516.812,175.506 514.57,177.73 C 512.189,180.071 509.377,181.242 506.131,181.242 C 502.924,181.242 500.16,180.082 497.839,177.76 C 495.518,175.438 494.358,172.664 494.358,169.437 C 494.358,166.21 495.518,163.416 497.839,161.055 C 500.102,158.773 502.865,157.631 506.131,157.631 C 509.435,157.63 512.228,158.772 514.509,161.054 z M 499.375,162.589 C 497.446,164.538 496.482,166.82 496.482,169.439 C 496.482,172.056 497.437,174.32 499.345,176.228 C 501.254,178.138 503.528,179.092 506.165,179.092 C 508.802,179.092 511.095,178.128 513.043,176.199 C 514.894,174.408 515.819,172.155 515.819,169.438 C 515.819,166.743 514.878,164.454 512.999,162.575 C 511.118,160.695 508.841,159.755 506.165,159.755 C 503.488,159.755 501.224,160.701 499.375,162.589 z M 504.451,168.288 C 504.158,167.645 503.716,167.324 503.127,167.324 C 502.087,167.324 501.566,168.024 501.566,169.425 C 501.566,170.826 502.087,171.526 503.127,171.526 C 503.815,171.526 504.305,171.184 504.6,170.502 L 506.042,171.271 C 505.354,172.492 504.322,173.103 502.948,173.103 C 501.887,173.103 501.038,172.778 500.4,172.127 C 499.76,171.477 499.441,170.581 499.441,169.438 C 499.441,168.315 499.771,167.423 500.429,166.763 C 501.087,166.103 501.906,165.773 502.889,165.773 C 504.342,165.773 505.382,166.346 506.012,167.491 L 504.451,168.288 z M 511.236,168.288 C 510.941,167.645 510.509,167.324 509.939,167.324 C 508.877,167.324 508.347,168.024 508.347,169.425 C 508.347,170.826 508.877,171.526 509.939,171.526 C 510.627,171.526 511.109,171.184 511.384,170.502 L 512.859,171.271 C 512.171,172.492 511.142,173.103 509.769,173.103 C 508.71,173.103 507.863,172.778 507.225,172.127 C 506.589,171.477 506.269,170.581 506.269,169.438 C 506.269,168.315 506.593,167.423 507.24,166.763 C 507.887,166.103 508.711,165.773 509.711,165.773 C 511.162,165.773 512.201,166.346 512.828,167.491 L 511.236,168.288 z " />
        </g>
      </g>
      <g
         id="g275_3_">
        <circle
           sodipodi:ry="8.1049995"
           sodipodi:rx="8.1049995"
           sodipodi:cy="166.123"
           sodipodi:cx="548.14301"
           r="8.1049995"
           cy="166.123"
           cx="548.14301"
           style="fill:#ffffff"
           id="circle277_3_" />
        <g
           id="g279_3_">
          <path
             d="M 550.488,163.778 C 550.488,163.466 550.235,163.213 549.923,163.213 L 546.343,163.213 C 546.032,163.213 545.779,163.467 545.779,163.778 L 545.779,167.358 L 546.777,167.358 L 546.777,171.597 L 549.49,171.597 L 549.49,167.358 L 550.489,167.358 L 550.489,163.778 L 550.488,163.778 z "
             id="path281_3_" />
          <circle
             sodipodi:ry="1.225"
             sodipodi:rx="1.225"
             sodipodi:cy="161.517"
             sodipodi:cx="548.133"
             r="1.225"
             cy="161.517"
             cx="548.133"
             id="circle283_3_" />
        </g>
        <path
           id="path99"
           d="M 548.122,157.193 C 545.698,157.193 543.645,158.039 541.966,159.731 C 540.243,161.481 539.382,163.552 539.382,165.945 C 539.382,168.337 540.243,170.393 541.966,172.115 C 543.691,173.836 545.742,174.697 548.122,174.697 C 550.532,174.697 552.621,173.83 554.388,172.093 C 556.052,170.446 556.886,168.396 556.886,165.946 C 556.886,163.495 556.038,161.425 554.345,159.732 C 552.649,158.039 550.576,157.193 548.122,157.193 z M 548.144,158.768 C 550.13,158.768 551.817,159.468 553.204,160.869 C 554.606,162.255 555.308,163.947 555.308,165.945 C 555.308,167.958 554.622,169.628 553.249,170.955 C 551.802,172.385 550.102,173.1 548.145,173.1 C 546.187,173.1 544.5,172.393 543.085,170.978 C 541.667,169.563 540.96,167.885 540.96,165.946 C 540.96,164.006 541.675,162.314 543.106,160.87 C 544.479,159.468 546.158,158.768 548.144,158.768 z " />
      </g>
    </g>
    <rect
       id="rect128"
       height="123"
       width="123"
       style="fill:#ffffff;stroke:#000000;stroke-width:0.28349999"
       y="651.71881"
       x="678.138" />
  </g>
</svg>
