<?xml version="1.0" encoding="UTF-8" standalone="no"?>
<!-- Created with Inkscape (http://www.inkscape.org/) -->
<svg
   xmlns:dc="http://purl.org/dc/elements/1.1/"
   xmlns:cc="http://web.resource.org/cc/"
   xmlns:rdf="http://www.w3.org/1999/02/22-rdf-syntax-ns#"
   xmlns:svg="http://www.w3.org/2000/svg"
   xmlns="http://www.w3.org/2000/svg"
   xmlns:sodipodi="http://sodipodi.sourceforge.net/DTD/sodipodi-0.dtd"
   xmlns:inkscape="http://www.inkscape.org/namespaces/inkscape"
   width="142.73201"
   height="163.41374"
   id="svg2474"
   sodipodi:version="0.32"
   inkscape:version="0.45.1"
   version="1.0"
   sodipodi:docbase="/Users/robmyers/Desktop/cc-ironies/final"
   sodipodi:docname="blank_canvas_red.svg"
   inkscape:output_extension="org.inkscape.output.svg.inkscape">
  <defs
     id="defs2476" />
  <sodipodi:namedview
     id="base"
     pagecolor="#ffffff"
     bordercolor="#666666"
     borderopacity="1.0"
     gridtolerance="10000"
     guidetolerance="10"
     objecttolerance="10"
     inkscape:pageopacity="0.0"
     inkscape:pageshadow="2"
     inkscape:zoom="2.0285608"
     inkscape:cx="71.365997"
     inkscape:cy="93.169502"
     inkscape:document-units="px"
     inkscape:current-layer="layer1"
     inkscape:window-width="697"
     inkscape:window-height="581"
     inkscape:window-x="20"
     inkscape:window-y="42" />
  <metadata
     id="metadata2479">
    <rdf:RDF>
      <cc:Work
         rdf:about="">
        <dc:format>image/svg+xml</dc:format>
        <dc:type
           rdf:resource="http://purl.org/dc/dcmitype/StillImage" />
      </cc:Work>
    </rdf:RDF>
  </metadata>
  <g
     inkscape:label="Layer 1"
     inkscape:groupmode="layer"
     id="layer1"
     transform="translate(-702.91972,-302.04984)">
    <rect
       id="rect15"
       height="141.73199"
       width="141.73199"
       style="fill:#ffffff;stroke:#000000"
       y="302.54984"
       x="703.41974" />
    <g
       id="g101"
       transform="matrix(0.5,0,0,0.5,375.94822,372.29408)">
      <path
         d="M 656.312,155.021 L 741.86,155.173 C 743.055,155.173 744.124,154.995 744.124,157.558 L 744.02,185.734 L 654.154,185.734 L 654.154,157.454 C 654.154,156.19 654.276,155.021 656.312,155.021 z "
         style="fill:#aab2ab"
         id="path3817_4_" />
      <path
         id="path104"
         d="M 742.811,154.638 L 655.638,154.638 C 654.703,154.638 653.943,155.398 653.943,156.333 L 653.943,185.955 C 653.943,186.167 654.114,186.339 654.326,186.339 L 744.124,186.339 C 744.335,186.339 744.507,186.167 744.507,185.955 L 744.507,156.333 C 744.506,155.398 743.747,154.638 742.811,154.638 z M 655.638,155.404 L 742.811,155.404 C 743.323,155.404 743.741,155.821 743.741,156.334 C 743.741,156.334 743.741,168.295 743.741,176.921 L 681.232,176.921 C 678.948,181.051 674.548,183.855 669.5,183.855 C 664.448,183.855 660.05,181.053 657.767,176.921 L 654.709,176.921 C 654.709,168.295 654.709,156.334 654.709,156.334 C 654.708,155.821 655.125,155.404 655.638,155.404 z " />
      <g
         style="enable-background:new"
         id="g265_4_">
        <path
           id="path107"
           d="M 709.647,179.355 C 709.885,179.355 710.102,179.376 710.299,179.417 C 710.494,179.46 710.662,179.528 710.803,179.624 C 710.944,179.719 711.053,179.847 711.129,180.005 C 711.207,180.164 711.244,180.359 711.244,180.593 C 711.244,180.845 711.187,181.055 711.072,181.222 C 710.959,181.39 710.789,181.529 710.564,181.635 C 710.873,181.724 711.103,181.88 711.255,182.101 C 711.407,182.324 711.484,182.59 711.484,182.904 C 711.484,183.156 711.435,183.375 711.338,183.558 C 711.241,183.741 711.108,183.892 710.942,184.009 C 710.776,184.126 710.587,184.213 710.374,184.269 C 710.161,184.325 709.942,184.353 709.718,184.353 L 707.29,184.353 L 707.29,179.355 L 709.647,179.355 z M 709.506,181.376 C 709.701,181.376 709.863,181.329 709.99,181.236 C 710.115,181.142 710.178,180.991 710.178,180.782 C 710.178,180.667 710.158,180.569 710.116,180.497 C 710.073,180.422 710.018,180.363 709.948,180.321 C 709.878,180.28 709.798,180.251 709.706,180.234 C 709.616,180.217 709.52,180.21 709.423,180.21 L 708.392,180.21 L 708.392,181.376 L 709.506,181.376 L 709.506,181.376 z M 709.571,183.498 C 709.678,183.498 709.78,183.487 709.88,183.467 C 709.978,183.446 710.064,183.41 710.14,183.362 C 710.214,183.313 710.273,183.247 710.318,183.163 C 710.363,183.079 710.384,182.972 710.384,182.841 C 710.384,182.585 710.312,182.402 710.167,182.292 C 710.022,182.182 709.831,182.128 709.593,182.128 L 708.392,182.128 L 708.392,183.499 L 709.571,183.499 L 709.571,183.498 z "
           style="fill:#ffffff" />
        <polygon
           points="711.68,179.355 712.913,179.355 714.083,181.33 715.247,179.355 716.471,179.355 714.616,182.435 714.616,184.353 713.514,184.353 713.514,182.408 711.68,179.355 "
           style="fill:#ffffff"
           id="path269_4_" />
      </g>
      <g
         id="g5908_4_">
        <path
           d="M 679.794,169.436 C 679.797,175.12 675.192,179.729 669.51,179.732 C 663.827,179.736 659.217,175.131 659.213,169.449 C 659.213,169.445 659.213,169.441 659.213,169.436 C 659.21,163.753 663.815,159.143 669.497,159.14 C 675.181,159.136 679.79,163.741 679.794,169.423 C 679.794,169.427 679.794,169.432 679.794,169.436 z "
           style="fill:#ffffff"
           id="path5906_4_" />
        <g
           id="g5706_4_">
          <path
             id="path113"
             d="M 677.869,161.054 C 680.151,163.336 681.292,166.13 681.292,169.436 C 681.292,172.742 680.171,175.506 677.929,177.73 C 675.548,180.071 672.736,181.242 669.49,181.242 C 666.284,181.242 663.519,180.082 661.199,177.76 C 658.878,175.438 657.717,172.664 657.717,169.437 C 657.717,166.21 658.878,163.416 661.199,161.055 C 663.461,158.773 666.225,157.631 669.49,157.631 C 672.794,157.63 675.587,158.772 677.869,161.054 z M 662.734,162.589 C 660.805,164.538 659.84,166.82 659.84,169.439 C 659.84,172.056 660.795,174.32 662.703,176.228 C 664.613,178.138 666.887,179.092 669.523,179.092 C 672.161,179.092 674.453,178.128 676.402,176.199 C 678.252,174.408 679.177,172.155 679.177,169.438 C 679.177,166.743 678.237,164.454 676.357,162.575 C 674.477,160.695 672.2,159.755 669.523,159.755 C 666.846,159.755 664.583,160.701 662.734,162.589 z M 667.81,168.288 C 667.516,167.645 667.075,167.324 666.486,167.324 C 665.446,167.324 664.925,168.024 664.925,169.425 C 664.925,170.826 665.446,171.526 666.486,171.526 C 667.174,171.526 667.664,171.184 667.959,170.502 L 669.401,171.271 C 668.713,172.492 667.681,173.103 666.307,173.103 C 665.246,173.103 664.397,172.778 663.758,172.127 C 663.119,171.476 662.8,170.581 662.8,169.438 C 662.8,168.315 663.129,167.423 663.787,166.763 C 664.445,166.103 665.265,165.773 666.248,165.773 C 667.701,165.773 668.741,166.346 669.371,167.491 L 667.81,168.288 z M 674.595,168.288 C 674.3,167.645 673.867,167.324 673.297,167.324 C 672.236,167.324 671.705,168.024 671.705,169.425 C 671.705,170.826 672.236,171.526 673.297,171.526 C 673.985,171.526 674.467,171.184 674.742,170.502 L 676.217,171.271 C 675.53,172.492 674.5,173.103 673.128,173.103 C 672.068,173.103 671.221,172.778 670.584,172.127 C 669.947,171.476 669.628,170.581 669.628,169.438 C 669.628,168.315 669.951,167.423 670.599,166.763 C 671.247,166.103 672.069,165.773 673.07,165.773 C 674.521,165.773 675.56,166.346 676.187,167.491 L 674.595,168.288 z " />
        </g>
      </g>
      <g
         id="g275_4_">
        <circle
           sodipodi:ry="8.1049995"
           sodipodi:rx="8.1049995"
           sodipodi:cy="166.123"
           sodipodi:cx="711.50201"
           r="8.1049995"
           cy="166.123"
           cx="711.50201"
           style="fill:#ffffff"
           id="circle277_4_" />
        <g
           id="g279_4_">
          <path
             d="M 713.846,163.778 C 713.846,163.466 713.594,163.213 713.282,163.213 L 709.702,163.213 C 709.391,163.213 709.138,163.467 709.138,163.778 L 709.138,167.358 L 710.136,167.358 L 710.136,171.597 L 712.849,171.597 L 712.849,167.358 L 713.847,167.358 L 713.847,163.778 L 713.846,163.778 z "
             id="path281_4_" />
          <circle
             sodipodi:ry="1.225"
             sodipodi:rx="1.225"
             sodipodi:cy="161.517"
             sodipodi:cx="711.49298"
             r="1.225"
             cy="161.517"
             cx="711.49298"
             id="circle283_4_" />
        </g>
        <path
           id="path120"
           d="M 711.481,157.193 C 709.057,157.193 707.004,158.039 705.325,159.731 C 703.602,161.481 702.741,163.552 702.741,165.945 C 702.741,168.337 703.602,170.393 705.325,172.115 C 707.05,173.836 709.1,174.697 711.481,174.697 C 713.891,174.697 715.979,173.83 717.747,172.093 C 719.411,170.446 720.245,168.396 720.245,165.946 C 720.245,163.495 719.397,161.425 717.704,159.732 C 716.008,158.039 713.934,157.193 711.481,157.193 z M 711.502,158.768 C 713.488,158.768 715.176,159.468 716.563,160.869 C 717.965,162.255 718.667,163.947 718.667,165.945 C 718.667,167.958 717.981,169.628 716.608,170.955 C 715.161,172.385 713.46,173.1 711.503,173.1 C 709.546,173.1 707.858,172.393 706.444,170.978 C 705.026,169.563 704.319,167.885 704.319,165.946 C 704.319,164.006 705.034,162.314 706.465,160.87 C 707.838,159.468 709.516,158.768 711.502,158.768 z " />
      </g>
    </g>
    <rect
       style="fill:#ff0000;overflow:visible"
       id="rect2374"
       height="123"
       width="123"
       y="311.91583"
       x="712.78577" />
  </g>
</svg>
