<?xml version="1.0" encoding="UTF-8" standalone="no"?>
<!-- Created with Inkscape (http://www.inkscape.org/) -->
<svg
   xmlns:dc="http://purl.org/dc/elements/1.1/"
   xmlns:cc="http://web.resource.org/cc/"
   xmlns:rdf="http://www.w3.org/1999/02/22-rdf-syntax-ns#"
   xmlns:svg="http://www.w3.org/2000/svg"
   xmlns="http://www.w3.org/2000/svg"
   xmlns:sodipodi="http://sodipodi.sourceforge.net/DTD/sodipodi-0.dtd"
   xmlns:inkscape="http://www.inkscape.org/namespaces/inkscape"
   width="142.73199"
   height="163.41376"
   id="svg2348"
   sodipodi:version="0.32"
   inkscape:version="0.45.1"
   version="1.0"
   sodipodi:docbase="/Users/robmyers/Desktop/cc-ironies/final"
   sodipodi:docname="blank_canvas_black.svg"
   inkscape:output_extension="org.inkscape.output.svg.inkscape">
  <defs
     id="defs2350" />
  <sodipodi:namedview
     id="base"
     pagecolor="#ffffff"
     bordercolor="#666666"
     borderopacity="1.0"
     gridtolerance="10000"
     guidetolerance="10"
     objecttolerance="10"
     inkscape:pageopacity="0.0"
     inkscape:pageshadow="2"
     inkscape:zoom="2.0285608"
     inkscape:cx="71.365997"
     inkscape:cy="93.169502"
     inkscape:document-units="px"
     inkscape:current-layer="layer1"
     inkscape:window-width="697"
     inkscape:window-height="581"
     inkscape:window-x="20"
     inkscape:window-y="42" />
  <metadata
     id="metadata2353">
    <rdf:RDF>
      <cc:Work
         rdf:about="">
        <dc:format>image/svg+xml</dc:format>
        <dc:type
           rdf:resource="http://purl.org/dc/dcmitype/StillImage" />
      </cc:Work>
    </rdf:RDF>
  </metadata>
  <g
     inkscape:label="Layer 1"
     inkscape:groupmode="layer"
     id="layer1"
     transform="translate(-220.06257,-184.90697)">
    <rect
       id="rect7"
       height="141.73199"
       width="141.73199"
       style="fill:#ffffff;stroke:#000000"
       y="185.40697"
       x="220.56258" />
    <g
       id="g17"
       transform="matrix(0.5,0,0,0.5,219.81257,255.15122)">
      <path
         d="M 2.869,155.021 L 88.417,155.173 C 89.612,155.173 90.68,154.995 90.68,157.558 L 90.576,185.734 L 0.711,185.734 L 0.711,157.454 C 0.711,156.19 0.833,155.021 2.869,155.021 z "
         style="fill:#aab2ab"
         id="path3817_5_" />
      <path
         id="path20"
         d="M 89.368,154.638 L 2.195,154.638 C 1.26,154.638 0.5,155.398 0.5,156.333 L 0.5,185.955 C 0.5,186.167 0.671,186.339 0.883,186.339 L 90.68,186.339 C 90.891,186.339 91.063,186.167 91.063,185.955 L 91.063,156.333 C 91.063,155.398 90.303,154.638 89.368,154.638 z M 2.195,155.404 L 89.367,155.404 C 89.879,155.404 90.297,155.821 90.297,156.334 C 90.297,156.334 90.297,168.295 90.297,176.921 L 27.789,176.921 C 25.505,181.051 21.105,183.855 16.057,183.855 C 11.005,183.855 6.607,181.053 4.324,176.921 L 1.266,176.921 C 1.266,168.295 1.266,156.334 1.266,156.334 C 1.266,155.821 1.683,155.404 2.195,155.404 z " />
      <g
         style="enable-background:new"
         id="g265">
        <path
           id="path23"
           d="M 56.204,179.355 C 56.442,179.355 56.659,179.376 56.856,179.417 C 57.052,179.46 57.219,179.528 57.36,179.624 C 57.501,179.719 57.61,179.847 57.686,180.005 C 57.764,180.164 57.802,180.359 57.802,180.593 C 57.802,180.845 57.744,181.055 57.629,181.222 C 57.516,181.39 57.346,181.529 57.121,181.635 C 57.43,181.724 57.661,181.88 57.813,182.101 C 57.965,182.324 58.042,182.59 58.042,182.904 C 58.042,183.156 57.992,183.375 57.895,183.558 C 57.798,183.741 57.665,183.892 57.499,184.009 C 57.333,184.126 57.144,184.213 56.931,184.269 C 56.718,184.325 56.499,184.353 56.275,184.353 L 53.848,184.353 L 53.848,179.355 L 56.204,179.355 z M 56.063,181.376 C 56.258,181.376 56.42,181.329 56.547,181.236 C 56.672,181.142 56.735,180.991 56.735,180.782 C 56.735,180.667 56.714,180.569 56.672,180.497 C 56.63,180.422 56.574,180.363 56.504,180.321 C 56.434,180.28 56.354,180.251 56.262,180.234 C 56.172,180.217 56.076,180.21 55.979,180.21 L 54.949,180.21 L 54.949,181.376 L 56.063,181.376 L 56.063,181.376 z M 56.127,183.498 C 56.234,183.498 56.337,183.487 56.436,183.467 C 56.534,183.446 56.62,183.41 56.696,183.362 C 56.77,183.313 56.83,183.247 56.874,183.163 C 56.919,183.079 56.941,182.972 56.941,182.841 C 56.941,182.585 56.868,182.402 56.723,182.292 C 56.578,182.182 56.387,182.128 56.149,182.128 L 54.949,182.128 L 54.949,183.499 L 56.127,183.499 L 56.127,183.498 z "
           style="fill:#ffffff" />
        <polygon
           points="58.237,179.355 59.469,179.355 60.639,181.33 61.803,179.355 63.028,179.355 61.172,182.435 61.172,184.353 60.071,184.353 60.071,182.408 58.237,179.355 "
           style="fill:#ffffff"
           id="path269" />
      </g>
      <g
         id="g5908_5_">
        <path
           d="M 26.352,169.436 C 26.355,175.12 21.75,179.729 16.068,179.732 C 10.385,179.736 5.775,175.131 5.772,169.449 C 5.772,169.445 5.772,169.441 5.772,169.436 C 5.769,163.753 10.373,159.143 16.056,159.14 C 21.74,159.136 26.349,163.741 26.353,169.423 C 26.352,169.427 26.352,169.432 26.352,169.436 z "
           style="fill:#ffffff"
           id="path5906_5_" />
        <g
           id="g5706_5_">
          <path
             id="path29"
             d="M 24.426,161.054 C 26.708,163.336 27.849,166.13 27.849,169.436 C 27.849,172.742 26.727,175.506 24.485,177.73 C 22.104,180.071 19.292,181.242 16.046,181.242 C 12.84,181.242 10.075,180.082 7.754,177.76 C 5.433,175.438 4.272,172.664 4.272,169.437 C 4.272,166.21 5.433,163.416 7.754,161.055 C 10.016,158.773 12.781,157.631 16.046,157.631 C 19.352,157.63 22.145,158.772 24.426,161.054 z M 9.291,162.589 C 7.362,164.538 6.397,166.82 6.397,169.439 C 6.397,172.056 7.352,174.32 9.26,176.228 C 11.17,178.138 13.443,179.092 16.08,179.092 C 18.718,179.092 21.01,178.128 22.958,176.199 C 24.808,174.408 25.734,172.155 25.734,169.438 C 25.734,166.743 24.794,164.454 22.914,162.575 C 21.034,160.695 18.757,159.755 16.08,159.755 C 13.403,159.755 11.141,160.701 9.291,162.589 z M 14.367,168.288 C 14.073,167.645 13.631,167.324 13.043,167.324 C 12.002,167.324 11.482,168.024 11.482,169.425 C 11.482,170.826 12.002,171.526 13.043,171.526 C 13.731,171.526 14.221,171.184 14.516,170.502 L 15.958,171.271 C 15.27,172.492 14.239,173.103 12.864,173.103 C 11.803,173.103 10.954,172.778 10.316,172.127 C 9.677,171.477 9.358,170.581 9.358,169.438 C 9.358,168.315 9.687,167.423 10.345,166.763 C 11.003,166.103 11.823,165.773 12.805,165.773 C 14.258,165.773 15.299,166.346 15.928,167.491 L 14.367,168.288 z M 21.152,168.288 C 20.857,167.645 20.424,167.324 19.854,167.324 C 18.793,167.324 18.262,168.024 18.262,169.425 C 18.262,170.826 18.793,171.526 19.854,171.526 C 20.542,171.526 21.024,171.184 21.299,170.502 L 22.774,171.271 C 22.087,172.492 21.058,173.103 19.685,173.103 C 18.626,173.103 17.778,172.778 17.141,172.127 C 16.505,171.477 16.185,170.581 16.185,169.438 C 16.185,168.315 16.508,167.423 17.156,166.763 C 17.803,166.103 18.626,165.773 19.627,165.773 C 21.078,165.773 22.117,166.346 22.744,167.491 L 21.152,168.288 z " />
        </g>
      </g>
      <g
         id="g275">
        <circle
           sodipodi:ry="8.1049995"
           sodipodi:rx="8.1049995"
           sodipodi:cy="166.123"
           sodipodi:cx="58.058998"
           r="8.1049995"
           cy="166.123"
           cx="58.058998"
           style="fill:#ffffff"
           id="circle277" />
        <g
           id="g279">
          <path
             d="M 60.404,163.778 C 60.404,163.466 60.151,163.213 59.839,163.213 L 56.259,163.213 C 55.948,163.213 55.695,163.467 55.695,163.778 L 55.695,167.358 L 56.693,167.358 L 56.693,171.597 L 59.406,171.597 L 59.406,167.358 L 60.405,167.358 L 60.405,163.778 L 60.404,163.778 z "
             id="path281" />
          <circle
             sodipodi:ry="1.225"
             sodipodi:rx="1.225"
             sodipodi:cy="161.517"
             sodipodi:cx="58.049"
             r="1.225"
             cy="161.517"
             cx="58.049"
             id="circle283" />
        </g>
        <path
           id="path36"
           d="M 58.038,157.193 C 55.614,157.193 53.561,158.039 51.882,159.731 C 50.159,161.481 49.298,163.552 49.298,165.945 C 49.298,168.337 50.159,170.393 51.882,172.115 C 53.607,173.836 55.658,174.697 58.038,174.697 C 60.448,174.697 62.537,173.83 64.304,172.093 C 65.968,170.446 66.802,168.396 66.802,165.946 C 66.802,163.495 65.954,161.425 64.261,159.732 C 62.565,158.039 60.492,157.193 58.038,157.193 z M 58.06,158.768 C 60.046,158.768 61.733,159.468 63.12,160.869 C 64.522,162.255 65.224,163.947 65.224,165.945 C 65.224,167.958 64.538,169.628 63.165,170.955 C 61.718,172.385 60.018,173.1 58.061,173.1 C 56.103,173.1 54.416,172.393 53.001,170.978 C 51.583,169.563 50.876,167.885 50.876,165.946 C 50.876,164.006 51.591,162.314 53.022,160.87 C 54.395,159.468 56.074,158.768 58.06,158.768 z " />
      </g>
    </g>
    <rect
       id="rect122"
       height="123"
       width="123"
       y="194.57597"
       x="229.64957" />
  </g>
</svg>
