<?xml version="1.0" encoding="UTF-8" standalone="no"?>
<!-- Created with Inkscape (http://www.inkscape.org/) -->
<svg
   xmlns:dc="http://purl.org/dc/elements/1.1/"
   xmlns:cc="http://web.resource.org/cc/"
   xmlns:rdf="http://www.w3.org/1999/02/22-rdf-syntax-ns#"
   xmlns:svg="http://www.w3.org/2000/svg"
   xmlns="http://www.w3.org/2000/svg"
   xmlns:sodipodi="http://sodipodi.sourceforge.net/DTD/sodipodi-0.dtd"
   xmlns:inkscape="http://www.inkscape.org/namespaces/inkscape"
   width="142.73201"
   height="163.41374"
   id="svg2420"
   sodipodi:version="0.32"
   inkscape:version="0.45.1"
   version="1.0"
   sodipodi:docbase="/Users/robmyers/Desktop/cc-ironies/final"
   sodipodi:docname="blank_canvas_grey.svg"
   inkscape:output_extension="org.inkscape.output.svg.inkscape">
  <defs
     id="defs2422" />
  <sodipodi:namedview
     id="base"
     pagecolor="#ffffff"
     bordercolor="#666666"
     borderopacity="1.0"
     gridtolerance="10000"
     guidetolerance="10"
     objecttolerance="10"
     inkscape:pageopacity="0.0"
     inkscape:pageshadow="2"
     inkscape:zoom="2.0285608"
     inkscape:cx="71.365997"
     inkscape:cy="93.169502"
     inkscape:document-units="px"
     inkscape:current-layer="layer1"
     inkscape:window-width="697"
     inkscape:window-height="581"
     inkscape:window-x="20"
     inkscape:window-y="42" />
  <metadata
     id="metadata2425">
    <rdf:RDF>
      <cc:Work
         rdf:about="">
        <dc:format>image/svg+xml</dc:format>
        <dc:type
           rdf:resource="http://purl.org/dc/dcmitype/StillImage" />
      </cc:Work>
    </rdf:RDF>
  </metadata>
  <g
     inkscape:label="Layer 1"
     inkscape:groupmode="layer"
     id="layer1"
     transform="translate(-517.20543,-804.90698)">
    <rect
       id="rect11"
       height="141.73199"
       width="141.73199"
       style="fill:#ffffff;stroke:#000000"
       y="805.40698"
       x="517.70544" />
    <g
       id="g59"
       transform="matrix(0.5,0,0,0.5,353.59443,875.15122)">
      <path
         d="M 329.591,155.021 L 415.14,155.173 C 416.335,155.173 417.402,154.995 417.402,157.558 L 417.298,185.734 L 327.433,185.734 L 327.433,157.454 C 327.433,156.19 327.555,155.021 329.591,155.021 z "
         style="fill:#aab2ab"
         id="path3817_2_" />
      <path
         id="path62"
         d="M 416.089,154.638 L 328.917,154.638 C 327.982,154.638 327.222,155.398 327.222,156.333 L 327.222,185.955 C 327.222,186.167 327.393,186.339 327.605,186.339 L 417.402,186.339 C 417.613,186.339 417.785,186.167 417.785,185.955 L 417.785,156.333 C 417.785,155.398 417.025,154.638 416.089,154.638 z M 328.917,155.404 L 416.089,155.404 C 416.601,155.404 417.019,155.821 417.019,156.334 C 417.019,156.334 417.019,168.295 417.019,176.921 L 354.512,176.921 C 352.228,181.051 347.828,183.855 342.779,183.855 C 337.727,183.855 333.329,181.053 331.046,176.921 L 327.988,176.921 C 327.988,168.295 327.988,156.334 327.988,156.334 C 327.988,155.821 328.405,155.404 328.917,155.404 z " />
      <g
         style="enable-background:new"
         id="g265_2_">
        <path
           id="path65"
           d="M 382.926,179.355 C 383.164,179.355 383.381,179.376 383.578,179.417 C 383.774,179.46 383.941,179.528 384.082,179.624 C 384.223,179.719 384.332,179.847 384.408,180.005 C 384.486,180.164 384.524,180.359 384.524,180.593 C 384.524,180.845 384.466,181.055 384.351,181.222 C 384.238,181.39 384.068,181.529 383.843,181.635 C 384.152,181.724 384.383,181.88 384.535,182.101 C 384.687,182.324 384.764,182.59 384.764,182.904 C 384.764,183.156 384.714,183.375 384.617,183.558 C 384.52,183.741 384.387,183.892 384.221,184.009 C 384.055,184.126 383.866,184.213 383.653,184.269 C 383.44,184.325 383.221,184.353 382.997,184.353 L 380.57,184.353 L 380.57,179.355 L 382.926,179.355 z M 382.785,181.376 C 382.98,181.376 383.142,181.329 383.269,181.236 C 383.394,181.142 383.457,180.991 383.457,180.782 C 383.457,180.667 383.436,180.569 383.394,180.497 C 383.352,180.422 383.296,180.363 383.226,180.321 C 383.156,180.28 383.076,180.251 382.984,180.234 C 382.894,180.217 382.798,180.21 382.701,180.21 L 381.671,180.21 L 381.671,181.376 L 382.785,181.376 L 382.785,181.376 z M 382.85,183.498 C 382.957,183.498 383.06,183.487 383.159,183.467 C 383.257,183.446 383.343,183.41 383.419,183.362 C 383.493,183.313 383.553,183.247 383.597,183.163 C 383.642,183.079 383.664,182.972 383.664,182.841 C 383.664,182.585 383.591,182.402 383.446,182.292 C 383.301,182.182 383.11,182.128 382.872,182.128 L 381.672,182.128 L 381.672,183.499 L 382.85,183.499 L 382.85,183.498 z "
           style="fill:#ffffff" />
        <polygon
           points="384.959,179.355 386.191,179.355 387.361,181.33 388.525,179.355 389.75,179.355 387.895,182.435 387.895,184.353 386.793,184.353 386.793,182.408 384.959,179.355 "
           style="fill:#ffffff"
           id="path269_2_" />
      </g>
      <g
         id="g5908_2_">
        <path
           d="M 353.074,169.436 C 353.077,175.12 348.472,179.729 342.789,179.732 C 337.106,179.736 332.496,175.131 332.493,169.449 C 332.493,169.445 332.493,169.441 332.493,169.436 C 332.49,163.753 337.094,159.143 342.777,159.14 C 348.461,159.136 353.07,163.741 353.074,169.423 C 353.074,169.427 353.074,169.432 353.074,169.436 z "
           style="fill:#ffffff"
           id="path5906_2_" />
        <g
           id="g5706_2_">
          <path
             id="path71"
             d="M 351.148,161.054 C 353.43,163.336 354.571,166.13 354.571,169.436 C 354.571,172.742 353.449,175.506 351.207,177.73 C 348.826,180.071 346.014,181.242 342.768,181.242 C 339.562,181.242 336.797,180.082 334.476,177.76 C 332.155,175.438 330.994,172.664 330.994,169.437 C 330.994,166.21 332.155,163.416 334.476,161.055 C 336.738,158.773 339.503,157.631 342.768,157.631 C 346.074,157.63 348.867,158.772 351.148,161.054 z M 336.013,162.589 C 334.084,164.538 333.119,166.82 333.119,169.439 C 333.119,172.056 334.074,174.32 335.982,176.228 C 337.892,178.138 340.165,179.092 342.802,179.092 C 345.44,179.092 347.732,178.128 349.68,176.199 C 351.53,174.408 352.455,172.155 352.455,169.438 C 352.455,166.743 351.515,164.454 349.635,162.575 C 347.755,160.695 345.478,159.755 342.801,159.755 C 340.124,159.755 337.863,160.701 336.013,162.589 z M 341.089,168.288 C 340.795,167.645 340.353,167.324 339.765,167.324 C 338.724,167.324 338.204,168.024 338.204,169.425 C 338.204,170.826 338.724,171.526 339.765,171.526 C 340.453,171.526 340.943,171.184 341.238,170.502 L 342.68,171.271 C 341.992,172.492 340.961,173.103 339.586,173.103 C 338.525,173.103 337.676,172.778 337.038,172.127 C 336.399,171.477 336.08,170.581 336.08,169.438 C 336.08,168.315 336.409,167.423 337.067,166.763 C 337.725,166.103 338.545,165.773 339.527,165.773 C 340.98,165.773 342.021,166.346 342.65,167.491 L 341.089,168.288 z M 347.875,168.288 C 347.58,167.645 347.147,167.324 346.577,167.324 C 345.516,167.324 344.985,168.024 344.985,169.425 C 344.985,170.826 345.516,171.526 346.577,171.526 C 347.265,171.526 347.747,171.184 348.022,170.502 L 349.497,171.271 C 348.81,172.492 347.781,173.103 346.408,173.103 C 345.349,173.103 344.501,172.778 343.864,172.127 C 343.228,171.477 342.908,170.581 342.908,169.438 C 342.908,168.315 343.231,167.423 343.879,166.763 C 344.526,166.103 345.349,165.773 346.35,165.773 C 347.801,165.773 348.84,166.346 349.467,167.491 L 347.875,168.288 z " />
        </g>
      </g>
      <g
         id="g275_2_">
        <circle
           sodipodi:ry="8.1049995"
           sodipodi:rx="8.1049995"
           sodipodi:cy="166.123"
           sodipodi:cx="384.78101"
           r="8.1049995"
           cy="166.123"
           cx="384.78101"
           style="fill:#ffffff"
           id="circle277_2_" />
        <g
           id="g279_2_">
          <path
             d="M 387.126,163.778 C 387.126,163.466 386.873,163.213 386.561,163.213 L 382.981,163.213 C 382.67,163.213 382.417,163.467 382.417,163.778 L 382.417,167.358 L 383.415,167.358 L 383.415,171.597 L 386.128,171.597 L 386.128,167.358 L 387.127,167.358 L 387.127,163.778 L 387.126,163.778 z "
             id="path281_2_" />
          <circle
             sodipodi:ry="1.225"
             sodipodi:rx="1.225"
             sodipodi:cy="161.517"
             sodipodi:cx="384.771"
             r="1.225"
             cy="161.517"
             cx="384.771"
             id="circle283_2_" />
        </g>
        <path
           id="path78"
           d="M 384.76,157.193 C 382.336,157.193 380.283,158.039 378.604,159.731 C 376.881,161.481 376.02,163.552 376.02,165.945 C 376.02,168.337 376.881,170.393 378.604,172.115 C 380.329,173.836 382.38,174.697 384.76,174.697 C 387.17,174.697 389.259,173.83 391.026,172.093 C 392.69,170.446 393.524,168.396 393.524,165.946 C 393.524,163.495 392.676,161.425 390.983,159.732 C 389.287,158.039 387.214,157.193 384.76,157.193 z M 384.782,158.768 C 386.768,158.768 388.455,159.468 389.842,160.869 C 391.244,162.255 391.946,163.947 391.946,165.945 C 391.946,167.958 391.26,169.628 389.887,170.955 C 388.44,172.385 386.74,173.1 384.783,173.1 C 382.825,173.1 381.138,172.393 379.723,170.978 C 378.305,169.563 377.598,167.885 377.598,165.946 C 377.598,164.006 378.313,162.314 379.744,160.87 C 381.117,159.468 382.796,158.768 384.782,158.768 z " />
      </g>
    </g>
    <rect
       id="rect126"
       height="123"
       width="123"
       style="fill:#999999"
       y="815.57599"
       x="526.07043" />
  </g>
</svg>
