<?xml version="1.0" encoding="UTF-8" standalone="no"?>
<!-- Created with Inkscape (http://www.inkscape.org/) -->
<svg
   xmlns:dc="http://purl.org/dc/elements/1.1/"
   xmlns:cc="http://web.resource.org/cc/"
   xmlns:rdf="http://www.w3.org/1999/02/22-rdf-syntax-ns#"
   xmlns:svg="http://www.w3.org/2000/svg"
   xmlns="http://www.w3.org/2000/svg"
   xmlns:sodipodi="http://sodipodi.sourceforge.net/DTD/sodipodi-0.dtd"
   xmlns:inkscape="http://www.inkscape.org/namespaces/inkscape"
   width="142.73199"
   height="163.41373"
   id="svg2393"
   sodipodi:version="0.32"
   inkscape:version="0.45.1"
   version="1.0"
   sodipodi:docbase="/Users/robmyers/Desktop/cc-ironies/final"
   sodipodi:docname="blank_canvas_pink.svg"
   inkscape:output_extension="org.inkscape.output.svg.inkscape">
  <defs
     id="defs2395" />
  <sodipodi:namedview
     id="base"
     pagecolor="#ffffff"
     bordercolor="#666666"
     borderopacity="1.0"
     gridtolerance="10000"
     guidetolerance="10"
     objecttolerance="10"
     inkscape:pageopacity="0.0"
     inkscape:pageshadow="2"
     inkscape:zoom="2.3131472"
     inkscape:cx="71.365997"
     inkscape:cy="81.706863"
     inkscape:document-units="px"
     inkscape:current-layer="layer1"
     inkscape:window-width="697"
     inkscape:window-height="581"
     inkscape:window-x="1"
     inkscape:window-y="22" />
  <metadata
     id="metadata2398">
    <rdf:RDF>
      <cc:Work
         rdf:about="">
        <dc:format>image/svg+xml</dc:format>
        <dc:type
           rdf:resource="http://purl.org/dc/dcmitype/StillImage" />
      </cc:Work>
    </rdf:RDF>
  </metadata>
  <g
     inkscape:label="Layer 1"
     inkscape:groupmode="layer"
     id="layer1"
     transform="translate(-131.49115,-690.62128)">
    <rect
       id="rect9"
       height="141.73199"
       width="141.73199"
       style="fill:#ffffff;stroke:#000000"
       y="691.12128"
       x="131.99115" />
    <g
       id="g38"
       transform="matrix(0.5,0,0,0.5,49.56015,760.8655)">
      <path
         d="M 166.23,155.021 L 251.778,155.173 C 252.973,155.173 254.041,154.995 254.041,157.558 L 253.937,185.734 L 164.071,185.734 L 164.071,157.454 C 164.072,156.19 164.194,155.021 166.23,155.021 z "
         style="fill:#aab2ab"
         id="path3817_1_" />
      <path
         id="path41"
         d="M 252.729,154.638 L 165.557,154.638 C 164.622,154.638 163.862,155.398 163.862,156.333 L 163.862,185.955 C 163.862,186.167 164.033,186.339 164.245,186.339 L 254.042,186.339 C 254.253,186.339 254.425,186.167 254.425,185.955 L 254.425,156.333 C 254.424,155.398 253.664,154.638 252.729,154.638 z M 165.556,155.404 L 252.728,155.404 C 253.24,155.404 253.658,155.821 253.658,156.334 C 253.658,156.334 253.658,168.295 253.658,176.921 L 191.15,176.921 C 188.866,181.051 184.466,183.855 179.418,183.855 C 174.366,183.855 169.968,181.053 167.685,176.921 L 164.627,176.921 C 164.627,168.295 164.627,156.334 164.627,156.334 C 164.626,155.821 165.043,155.404 165.556,155.404 z " />
      <g
         style="enable-background:new"
         id="g265_1_">
        <path
           id="path44"
           d="M 219.564,179.355 C 219.802,179.355 220.019,179.376 220.216,179.417 C 220.412,179.46 220.579,179.528 220.72,179.624 C 220.861,179.719 220.97,179.847 221.046,180.005 C 221.124,180.164 221.162,180.359 221.162,180.593 C 221.162,180.845 221.104,181.055 220.989,181.222 C 220.876,181.39 220.706,181.529 220.481,181.635 C 220.79,181.724 221.021,181.88 221.173,182.101 C 221.325,182.324 221.402,182.59 221.402,182.904 C 221.402,183.156 221.352,183.375 221.255,183.558 C 221.158,183.741 221.025,183.892 220.859,184.009 C 220.693,184.126 220.504,184.213 220.291,184.269 C 220.078,184.325 219.859,184.353 219.635,184.353 L 217.208,184.353 L 217.208,179.355 L 219.564,179.355 z M 219.424,181.376 C 219.619,181.376 219.781,181.329 219.908,181.236 C 220.033,181.142 220.096,180.991 220.096,180.782 C 220.096,180.667 220.075,180.569 220.033,180.497 C 219.991,180.422 219.935,180.363 219.865,180.321 C 219.795,180.28 219.715,180.251 219.623,180.234 C 219.533,180.217 219.437,180.21 219.34,180.21 L 218.31,180.21 L 218.31,181.376 L 219.424,181.376 L 219.424,181.376 z M 219.488,183.498 C 219.595,183.498 219.698,183.487 219.797,183.467 C 219.895,183.446 219.981,183.41 220.057,183.362 C 220.131,183.313 220.191,183.247 220.235,183.163 C 220.28,183.079 220.302,182.972 220.302,182.841 C 220.302,182.585 220.229,182.402 220.084,182.292 C 219.939,182.182 219.748,182.128 219.51,182.128 L 218.31,182.128 L 218.31,183.499 L 219.488,183.499 L 219.488,183.498 z "
           style="fill:#ffffff" />
        <polygon
           points="221.598,179.355 222.83,179.355 224,181.33 225.164,179.355 226.389,179.355 224.533,182.435 224.533,184.353 223.432,184.353 223.432,182.408 221.598,179.355 "
           style="fill:#ffffff"
           id="path269_1_" />
      </g>
      <g
         id="g5908_1_">
        <path
           d="M 189.712,169.436 C 189.715,175.12 185.11,179.729 179.428,179.732 C 173.745,179.736 169.135,175.131 169.132,169.449 C 169.132,169.445 169.132,169.441 169.132,169.436 C 169.129,163.753 173.733,159.143 179.416,159.14 C 185.1,159.136 189.709,163.741 189.713,169.423 C 189.712,169.427 189.712,169.432 189.712,169.436 z "
           style="fill:#ffffff"
           id="path5906_1_" />
        <g
           id="g5706_1_">
          <path
             id="path50"
             d="M 187.787,161.054 C 190.069,163.336 191.21,166.13 191.21,169.436 C 191.21,172.742 190.088,175.506 187.846,177.73 C 185.465,180.071 182.653,181.242 179.407,181.242 C 176.201,181.242 173.436,180.082 171.115,177.76 C 168.794,175.438 167.633,172.664 167.633,169.437 C 167.633,166.21 168.794,163.416 171.115,161.055 C 173.377,158.773 176.142,157.631 179.407,157.631 C 182.712,157.63 185.505,158.772 187.787,161.054 z M 172.652,162.589 C 170.723,164.538 169.758,166.82 169.758,169.439 C 169.758,172.056 170.713,174.32 172.621,176.228 C 174.531,178.138 176.804,179.092 179.441,179.092 C 182.079,179.092 184.371,178.128 186.319,176.199 C 188.169,174.408 189.095,172.155 189.095,169.438 C 189.095,166.743 188.155,164.454 186.275,162.575 C 184.395,160.695 182.118,159.755 179.441,159.755 C 176.764,159.755 174.501,160.701 172.652,162.589 z M 177.728,168.288 C 177.434,167.645 176.992,167.324 176.404,167.324 C 175.363,167.324 174.843,168.024 174.843,169.425 C 174.843,170.826 175.363,171.526 176.404,171.526 C 177.092,171.526 177.582,171.184 177.877,170.502 L 179.319,171.271 C 178.631,172.492 177.6,173.103 176.225,173.103 C 175.164,173.103 174.315,172.778 173.677,172.127 C 173.038,171.477 172.719,170.581 172.719,169.438 C 172.719,168.315 173.048,167.423 173.706,166.763 C 174.364,166.103 175.184,165.773 176.166,165.773 C 177.619,165.773 178.66,166.346 179.289,167.491 L 177.728,168.288 z M 184.513,168.288 C 184.218,167.645 183.785,167.324 183.215,167.324 C 182.154,167.324 181.623,168.024 181.623,169.425 C 181.623,170.826 182.154,171.526 183.215,171.526 C 183.903,171.526 184.385,171.184 184.66,170.502 L 186.135,171.271 C 185.448,172.492 184.419,173.103 183.046,173.103 C 181.987,173.103 181.139,172.778 180.502,172.127 C 179.866,171.477 179.546,170.581 179.546,169.438 C 179.546,168.315 179.869,167.423 180.517,166.763 C 181.164,166.103 181.987,165.773 182.988,165.773 C 184.439,165.773 185.478,166.346 186.105,167.491 L 184.513,168.288 z " />
        </g>
      </g>
      <g
         id="g275_1_">
        <circle
           sodipodi:ry="8.1049995"
           sodipodi:rx="8.1049995"
           sodipodi:cy="166.123"
           sodipodi:cx="221.42"
           r="8.1049995"
           cy="166.123"
           cx="221.42"
           style="fill:#ffffff"
           id="circle277_1_" />
        <g
           id="g279_1_">
          <path
             d="M 223.765,163.778 C 223.765,163.466 223.512,163.213 223.2,163.213 L 219.62,163.213 C 219.309,163.213 219.056,163.467 219.056,163.778 L 219.056,167.358 L 220.054,167.358 L 220.054,171.597 L 222.767,171.597 L 222.767,167.358 L 223.766,167.358 L 223.766,163.778 L 223.765,163.778 z "
             id="path281_1_" />
          <circle
             sodipodi:ry="1.225"
             sodipodi:rx="1.225"
             sodipodi:cy="161.517"
             sodipodi:cx="221.41"
             r="1.225"
             cy="161.517"
             cx="221.41"
             id="circle283_1_" />
        </g>
        <path
           id="path57"
           d="M 221.398,157.193 C 218.974,157.193 216.921,158.039 215.242,159.731 C 213.519,161.481 212.658,163.552 212.658,165.945 C 212.658,168.337 213.519,170.393 215.242,172.115 C 216.967,173.836 219.018,174.697 221.398,174.697 C 223.808,174.697 225.897,173.83 227.664,172.093 C 229.328,170.446 230.162,168.396 230.162,165.946 C 230.162,163.495 229.314,161.425 227.621,159.732 C 225.926,158.039 223.853,157.193 221.398,157.193 z M 221.421,158.768 C 223.407,158.768 225.094,159.468 226.481,160.869 C 227.883,162.255 228.585,163.947 228.585,165.945 C 228.585,167.958 227.899,169.628 226.526,170.955 C 225.079,172.385 223.379,173.1 221.422,173.1 C 219.464,173.1 217.777,172.393 216.362,170.978 C 214.944,169.563 214.237,167.885 214.237,165.946 C 214.237,164.006 214.952,162.314 216.383,160.87 C 217.756,159.468 219.435,158.768 221.421,158.768 z " />
      </g>
    </g>
    <rect
       id="rect124"
       height="123"
       width="123"
       style="fill:#fcc3ac"
       y="700.29022"
       x="141.71716" />
  </g>
</svg>
