<?xml version="1.0" encoding="UTF-8" standalone="no"?>
<!-- Created with Inkscape (http://www.inkscape.org/) -->
<svg
   xmlns:dc="http://purl.org/dc/elements/1.1/"
   xmlns:cc="http://web.resource.org/cc/"
   xmlns:rdf="http://www.w3.org/1999/02/22-rdf-syntax-ns#"
   xmlns:svg="http://www.w3.org/2000/svg"
   xmlns="http://www.w3.org/2000/svg"
   xmlns:sodipodi="http://sodipodi.sourceforge.net/DTD/sodipodi-0.dtd"
   xmlns:inkscape="http://www.inkscape.org/namespaces/inkscape"
   width="142.73199"
   height="163.41324"
   id="svg2865"
   sodipodi:version="0.32"
   inkscape:version="0.45.1"
   version="1.0"
   sodipodi:docbase="/Users/robmyers/Desktop/cc-ironies/final"
   sodipodi:docname="buy_one_get_one_free.svg"
   inkscape:output_extension="org.inkscape.output.svg.inkscape"
   inkscape:export-filename="/Users/robmyers/Desktop/cc-ironies/final/jigsaw.png"
   inkscape:export-xdpi="2400.1001"
   inkscape:export-ydpi="2400.1001">
  <defs
     id="defs2867" />
  <sodipodi:namedview
     id="base"
     pagecolor="#ffffff"
     bordercolor="#666666"
     borderopacity="1.0"
     gridtolerance="10000"
     guidetolerance="10"
     objecttolerance="10"
     inkscape:pageopacity="0.0"
     inkscape:pageshadow="2"
     inkscape:zoom="2.3131541"
     inkscape:cx="71.365997"
     inkscape:cy="81.706619"
     inkscape:document-units="px"
     inkscape:current-layer="layer1"
     inkscape:window-width="697"
     inkscape:window-height="581"
     inkscape:window-x="41"
     inkscape:window-y="131" />
  <metadata
     id="metadata2870">
    <rdf:RDF>
      <cc:Work
         rdf:about="">
        <dc:format>image/svg+xml</dc:format>
        <dc:type
           rdf:resource="http://purl.org/dc/dcmitype/StillImage" />
      </cc:Work>
    </rdf:RDF>
  </metadata>
  <g
     inkscape:label="Layer 1"
     inkscape:groupmode="layer"
     id="layer1"
     transform="translate(-922.24158,-294.70895)">
    <rect
       id="rect59"
       height="141.73199"
       width="141.73199"
       style="fill:#ffffff;stroke:#000000"
       y="295.20895"
       x="922.74158" />
    <g
       id="g207"
       transform="translate(269.47672,294.05033)">
      <rect
         x="658.86298"
         y="51.332001"
         width="131.13"
         height="36.536999"
         id="rect209" />
      <g
         id="g211">
        <path
           style="fill:#ffff00"
           d="M 671.5,55.341 C 671.909,55.912 672.114,56.594 672.114,57.388 C 672.114,58.208 671.908,58.866 671.499,59.363 C 671.27,59.643 670.932,59.897 670.486,60.128 C 671.169,60.377 671.683,60.772 672.03,61.312 C 672.378,61.852 672.552,62.508 672.552,63.279 C 672.552,64.075 672.352,64.789 671.955,65.42 C 671.702,65.839 671.386,66.191 671.007,66.476 C 670.579,66.805 670.074,67.03 669.494,67.15 C 668.913,67.272 668.282,67.332 667.602,67.332 L 661.571,67.332 L 661.571,53.913 L 668.032,53.913 C 669.664,53.937 670.82,54.413 671.5,55.341 z M 664.23,56.227 L 664.23,59.199 L 667.472,59.199 C 668.05,59.199 668.521,59.089 668.881,58.865 C 669.241,58.643 669.423,58.248 669.423,57.682 C 669.423,57.054 669.184,56.639 668.707,56.438 C 668.294,56.298 667.769,56.228 667.131,56.228 L 664.23,56.228 L 664.23,56.227 z M 664.23,61.42 L 664.23,65.017 L 667.493,65.017 C 668.076,65.017 668.529,64.938 668.853,64.78 C 669.441,64.487 669.736,63.926 669.736,63.095 C 669.736,62.393 669.451,61.911 668.881,61.649 C 668.563,61.503 668.115,61.426 667.538,61.42 L 664.23,61.42 z "
           id="path213" />
        <path
           style="fill:#ffff00"
           d="M 674.955,53.913 L 677.803,53.913 L 677.803,62.152 C 677.803,63.074 677.91,63.747 678.129,64.172 C 678.467,64.923 679.203,65.299 680.341,65.299 C 681.471,65.299 682.205,64.923 682.543,64.172 C 682.76,63.748 682.869,63.075 682.869,62.152 L 682.869,53.913 L 685.716,53.913 L 685.716,62.161 C 685.716,63.587 685.495,64.698 685.053,65.493 C 684.231,66.949 682.658,67.678 680.341,67.678 C 678.022,67.678 676.447,66.949 675.618,65.493 C 675.176,64.699 674.955,63.588 674.955,62.161 L 674.955,53.913 z "
           id="path215" />
        <path
           style="fill:#ffff00"
           d="M 696.027,53.913 L 699.197,53.913 L 694.72,62.307 L 694.72,67.333 L 691.936,67.333 L 691.936,62.316 L 687.304,53.913 L 690.601,53.913 L 693.374,59.758 L 696.027,53.913 z "
           id="path217" />
        <path
           style="fill:#ffff00"
           d="M 715.992,66.114 C 714.98,67.156 713.514,67.676 711.597,67.676 C 709.68,67.676 708.215,67.155 707.202,66.114 C 705.843,64.836 705.164,62.995 705.164,60.592 C 705.164,58.139 705.843,56.298 707.202,55.069 C 708.215,54.027 709.68,53.507 711.597,53.507 C 713.514,53.507 714.98,54.028 715.992,55.069 C 717.345,56.298 718.021,58.139 718.021,60.592 C 718.021,62.995 717.345,64.835 715.992,66.114 z M 714.256,64.074 C 714.91,63.258 715.237,62.097 715.237,60.591 C 715.237,59.091 714.91,57.931 714.256,57.112 C 713.603,56.293 712.719,55.883 711.607,55.883 C 710.495,55.883 709.606,56.292 708.944,57.108 C 708.281,57.924 707.95,59.086 707.95,60.591 C 707.95,62.097 708.281,63.258 708.944,64.074 C 709.606,64.89 710.495,65.299 711.607,65.299 C 712.719,65.299 713.603,64.891 714.256,64.074 z "
           id="path219" />
        <path
           style="fill:#ffff00"
           d="M 720.148,53.913 L 723.069,53.913 L 728.375,63.251 L 728.375,53.913 L 730.971,53.913 L 730.971,67.332 L 728.185,67.332 L 722.745,57.819 L 722.745,67.332 L 720.149,67.332 L 720.149,53.913 L 720.148,53.913 z "
           id="path221" />
        <path
           style="fill:#ffff00"
           d="M 743.5,56.321 L 736.408,56.321 L 736.408,59.168 L 742.918,59.168 L 742.918,61.483 L 736.408,61.483 L 736.408,64.923 L 743.827,64.923 L 743.827,67.332 L 733.687,67.332 L 733.687,53.944 L 743.499,53.944 L 743.499,56.321 L 743.5,56.321 z "
           id="path223" />
        <path
           style="fill:#ffff00"
           d="M 760.194,58.136 C 759.982,57.22 759.466,56.579 758.646,56.215 C 758.188,56.015 757.679,55.915 757.119,55.915 C 756.045,55.915 755.163,56.321 754.473,57.132 C 753.783,57.944 753.438,59.164 753.438,60.792 C 753.438,62.434 753.811,63.595 754.559,64.276 C 755.308,64.958 756.159,65.298 757.113,65.298 C 758.048,65.298 758.815,65.03 759.411,64.494 C 760.009,63.958 760.378,63.256 760.516,62.389 L 757.442,62.389 L 757.442,60.136 L 763.01,60.136 L 763.01,67.331 L 761.164,67.331 L 760.867,65.657 C 760.328,66.29 759.844,66.737 759.414,66.996 C 758.674,67.448 757.767,67.675 756.689,67.675 C 754.914,67.675 753.461,67.061 752.33,65.833 C 751.149,64.599 750.559,62.911 750.559,60.768 C 750.559,58.602 751.156,56.866 752.351,55.559 C 753.546,54.252 755.125,53.599 757.091,53.599 C 758.795,53.599 760.164,54.032 761.198,54.897 C 762.232,55.762 762.825,56.841 762.977,58.135 L 760.194,58.135 L 760.194,58.136 z "
           id="path225" />
        <path
           style="fill:#ffff00"
           d="M 775.574,56.321 L 768.482,56.321 L 768.482,59.168 L 774.992,59.168 L 774.992,61.483 L 768.482,61.483 L 768.482,64.923 L 775.9,64.923 L 775.9,67.332 L 765.761,67.332 L 765.761,53.944 L 775.573,53.944 L 775.573,56.321 L 775.574,56.321 z "
           id="path227" />
        <path
           style="fill:#ffff00"
           d="M 787.846,53.913 L 787.846,56.29 L 783.811,56.29 L 783.811,67.332 L 781.028,67.332 L 781.028,56.29 L 776.992,56.29 L 776.992,53.913 L 787.846,53.913 L 787.846,53.913 z "
           id="path229" />
        <path
           style="fill:#ffff00"
           d="M 671.836,84.132 C 670.824,85.174 669.358,85.694 667.441,85.694 C 665.524,85.694 664.06,85.173 663.046,84.132 C 661.688,82.854 661.008,81.013 661.008,78.609 C 661.008,76.156 661.688,74.317 663.046,73.087 C 664.06,72.046 665.524,71.525 667.441,71.525 C 669.358,71.525 670.824,72.046 671.836,73.087 C 673.19,74.317 673.866,76.157 673.866,78.609 C 673.866,81.013 673.189,82.854 671.836,84.132 z M 670.101,82.092 C 670.754,81.276 671.082,80.114 671.082,78.608 C 671.082,77.109 670.754,75.949 670.101,75.129 C 669.448,74.31 668.563,73.9 667.452,73.9 C 666.339,73.9 665.451,74.309 664.788,75.125 C 664.125,75.941 663.794,77.102 663.794,78.607 C 663.794,80.113 664.125,81.274 664.788,82.091 C 665.451,82.908 666.339,83.316 667.452,83.316 C 668.562,83.317 669.447,82.909 670.101,82.092 z "
           id="path231" />
        <path
           style="fill:#ffff00"
           d="M 675.992,71.931 L 678.914,71.931 L 684.219,81.27 L 684.219,71.931 L 686.816,71.931 L 686.816,85.35 L 684.03,85.35 L 678.589,75.838 L 678.589,85.35 L 675.993,85.35 L 675.993,71.931 L 675.992,71.931 z "
           id="path233" />
        <path
           style="fill:#ffff00"
           d="M 699.344,74.339 L 692.252,74.339 L 692.252,77.185 L 698.762,77.185 L 698.762,79.5 L 692.252,79.5 L 692.252,82.941 L 699.671,82.941 L 699.671,85.349 L 689.532,85.349 L 689.532,71.961 L 699.344,71.961 L 699.344,74.339 z "
           id="path235" />
        <path
           style="fill:#ffff00"
           d="M 707.029,71.931 L 716.539,71.931 L 716.539,74.245 L 709.813,74.245 L 709.813,77.373 L 715.694,77.373 L 715.694,79.687 L 709.813,79.687 L 709.813,85.349 L 707.029,85.349 L 707.029,71.931 z "
           id="path237" />
        <path
           style="fill:#ffff00"
           d="M 726.986,72.277 C 727.48,72.489 727.898,72.802 728.241,73.216 C 728.524,73.556 728.749,73.932 728.914,74.346 C 729.08,74.76 729.163,75.23 729.163,75.759 C 729.163,76.398 729.004,77.025 728.685,77.641 C 728.366,78.258 727.839,78.693 727.106,78.949 C 727.717,79.198 728.151,79.552 728.405,80.009 C 728.66,80.467 728.787,81.166 728.787,82.105 L 728.787,83.004 C 728.787,83.616 728.812,84.032 728.862,84.25 C 728.935,84.596 729.109,84.851 729.382,85.013 L 729.382,85.349 L 726.317,85.349 C 726.233,85.052 726.174,84.813 726.138,84.631 C 726.067,84.256 726.028,83.87 726.022,83.477 L 726.003,82.232 C 725.992,81.378 725.844,80.808 725.557,80.523 C 725.27,80.238 724.734,80.096 723.947,80.096 L 721.187,80.096 L 721.187,85.35 L 718.465,85.35 L 718.465,71.931 L 724.873,71.931 C 725.789,71.949 726.493,72.064 726.986,72.277 z M 721.187,74.245 L 721.187,77.873 L 724.223,77.873 C 724.826,77.873 725.278,77.8 725.579,77.653 C 726.112,77.397 726.379,76.89 726.379,76.132 C 726.379,75.314 726.121,74.764 725.605,74.483 C 725.315,74.325 724.879,74.245 724.301,74.245 L 721.187,74.245 z "
           id="path239" />
        <path
           style="fill:#ffff00"
           d="M 741.754,74.339 L 734.664,74.339 L 734.664,77.185 L 741.173,77.185 L 741.173,79.5 L 734.664,79.5 L 734.664,82.941 L 742.082,82.941 L 742.082,85.349 L 731.941,85.349 L 731.941,71.961 L 741.753,71.961 L 741.753,74.339 L 741.754,74.339 z "
           id="path241" />
        <path
           style="fill:#ffff00"
           d="M 754.174,74.339 L 747.082,74.339 L 747.082,77.185 L 753.592,77.185 L 753.592,79.5 L 747.082,79.5 L 747.082,82.941 L 754.5,82.941 L 754.5,85.349 L 744.36,85.349 L 744.36,71.961 L 754.173,71.961 L 754.173,74.339 L 754.174,74.339 z "
           id="path243" />
      </g>
    </g>
    <path
       d="M 923.52708,442.43819 L 966.30108,442.51419 C 966.89858,442.51419 967.43258,442.42569 967.43258,443.70669 L 967.38058,457.79419 L 922.44808,457.79419 L 922.44808,443.65469 C 922.44808,443.02269 922.50908,442.43819 923.52708,442.43819 z "
       style="fill:#aab2ab"
       id="path3817_3_" />
    <g
       id="g5908_3_"
       transform="matrix(0.5,0,0,0.5,921.99158,364.95319)">
      <path
         d="M 26.554,169.385 C 26.557,175.068 21.952,179.677 16.27,179.682 C 10.587,179.685 5.977,175.081 5.974,169.398 C 5.974,169.394 5.974,169.39 5.974,169.385 C 5.971,163.702 10.575,159.092 16.258,159.089 C 21.942,159.086 26.551,163.69 26.555,169.373 C 26.554,169.377 26.554,169.381 26.554,169.385 z "
         style="fill:#ffffff"
         id="path5906_3_" />
      <g
         id="g5706_3_">
        <path
           id="path97"
           d="M 24.628,161.004 C 26.91,163.286 28.051,166.08 28.051,169.385 C 28.051,172.691 26.929,175.456 24.687,177.678 C 22.306,180.02 19.494,181.19 16.248,181.19 C 13.042,181.19 10.277,180.029 7.956,177.707 C 5.635,175.387 4.474,172.612 4.474,169.385 C 4.474,166.158 5.635,163.364 7.956,161.004 C 10.218,158.721 12.983,157.58 16.248,157.58 C 19.554,157.58 22.347,158.721 24.628,161.004 z M 9.493,162.539 C 7.564,164.488 6.599,166.771 6.599,169.389 C 6.599,172.007 7.554,174.27 9.462,176.179 C 11.372,178.088 13.645,179.043 16.282,179.043 C 18.92,179.043 21.212,178.079 23.16,176.15 C 25.01,174.358 25.936,172.106 25.936,169.389 C 25.936,166.693 24.996,164.405 23.116,162.525 C 21.236,160.646 18.959,159.706 16.282,159.706 C 13.605,159.706 11.343,160.65 9.493,162.539 z M 14.569,168.237 C 14.275,167.594 13.833,167.273 13.245,167.273 C 12.204,167.273 11.684,167.974 11.684,169.374 C 11.684,170.775 12.204,171.476 13.245,171.476 C 13.933,171.476 14.423,171.135 14.718,170.452 L 16.16,171.22 C 15.472,172.441 14.441,173.052 13.066,173.052 C 12.005,173.052 11.156,172.727 10.518,172.077 C 9.879,171.427 9.56,170.53 9.56,169.387 C 9.56,168.264 9.889,167.373 10.547,166.713 C 11.205,166.053 12.025,165.723 13.007,165.723 C 14.46,165.723 15.501,166.295 16.13,167.44 L 14.569,168.237 z M 21.354,168.237 C 21.059,167.594 20.626,167.273 20.056,167.273 C 18.995,167.273 18.464,167.974 18.464,169.374 C 18.464,170.775 18.995,171.476 20.056,171.476 C 20.744,171.476 21.226,171.135 21.501,170.452 L 22.976,171.22 C 22.289,172.441 21.26,173.052 19.887,173.052 C 18.828,173.052 17.98,172.727 17.343,172.077 C 16.707,171.427 16.387,170.53 16.387,169.387 C 16.387,168.264 16.71,167.373 17.358,166.713 C 18.005,166.053 18.828,165.723 19.829,165.723 C 21.28,165.723 22.319,166.295 22.946,167.44 L 21.354,168.237 z " />
      </g>
    </g>
    <path
       id="path99"
       d="M 966.67508,442.27269 L 923.08908,442.27269 C 922.62158,442.27269 922.24158,442.65269 922.24158,443.12019 L 922.24158,457.93119 C 922.24158,458.03669 922.32708,458.12219 922.43308,458.12219 L 967.33158,458.12219 C 967.43708,458.12219 967.52308,458.03669 967.52308,457.93119 L 967.52308,443.12019 C 967.52308,442.65269 967.14258,442.27269 966.67508,442.27269 z M 923.08908,442.65519 L 966.67508,442.65519 C 966.93158,442.65519 967.14008,442.86369 967.14008,443.12019 C 967.14008,443.12019 967.14008,449.07719 967.14008,453.38819 L 935.98708,453.38819 C 934.84508,455.45269 932.64508,456.85469 930.12108,456.85469 C 927.59508,456.85469 925.39608,455.45419 924.25458,453.38819 L 922.62458,453.38819 C 922.62458,449.07719 922.62458,443.12019 922.62458,443.12019 C 922.62458,442.86369 922.83308,442.65519 923.08908,442.65519 z " />
    <g
       style="enable-background:new"
       id="g334"
       transform="matrix(0.5,0,0,0.5,921.99158,364.95319)">
      <path
         id="path102"
         d="M 45.779,179.355 C 46.017,179.355 46.235,179.376 46.431,179.418 C 46.627,179.459 46.796,179.528 46.936,179.625 C 47.076,179.72 47.185,179.848 47.262,180.006 C 47.339,180.164 47.378,180.36 47.378,180.593 C 47.378,180.845 47.32,181.054 47.206,181.223 C 47.092,181.391 46.922,181.528 46.698,181.636 C 47.007,181.724 47.238,181.879 47.39,182.102 C 47.542,182.323 47.619,182.591 47.619,182.903 C 47.619,183.155 47.57,183.373 47.472,183.558 C 47.374,183.743 47.242,183.893 47.076,184.009 C 46.91,184.126 46.721,184.213 46.508,184.268 C 46.295,184.325 46.077,184.353 45.852,184.353 L 43.425,184.353 L 43.425,179.355 L 45.779,179.355 L 45.779,179.355 z M 45.638,181.377 C 45.834,181.377 45.995,181.33 46.122,181.236 C 46.248,181.144 46.311,180.993 46.311,180.783 C 46.311,180.666 46.29,180.571 46.248,180.496 C 46.206,180.421 46.15,180.364 46.08,180.322 C 46.01,180.28 45.929,180.25 45.838,180.234 C 45.747,180.218 45.652,180.211 45.554,180.211 L 44.525,180.211 L 44.525,181.377 L 45.638,181.377 z M 45.703,183.498 C 45.811,183.498 45.913,183.488 46.011,183.466 C 46.11,183.445 46.197,183.41 46.271,183.362 C 46.346,183.312 46.405,183.246 46.45,183.161 C 46.494,183.078 46.517,182.971 46.517,182.84 C 46.517,182.584 46.444,182.401 46.299,182.291 C 46.154,182.181 45.962,182.127 45.724,182.127 L 44.525,182.127 L 44.525,183.498 L 45.703,183.498 z "
         style="fill:#ffffff" />
      <polygon
         points="47.812,179.355 49.045,179.355 50.215,181.329 51.378,179.355 52.604,179.355 50.748,182.435 50.748,184.354 49.646,184.354 49.646,182.407 47.812,179.355 "
         style="fill:#ffffff"
         id="path338" />
    </g>
    <g
       style="enable-background:new"
       id="g340"
       transform="matrix(0.5,0,0,0.5,921.99158,364.95319)">
      <polygon
         points="65.73,179.355 67.819,182.708 67.831,182.708 67.831,179.355 68.862,179.355 68.862,184.354 67.763,184.354 65.683,181.006 65.668,181.006 65.668,184.354 64.637,184.354 64.637,179.355 65.73,179.355 "
         style="fill:#ffffff"
         id="path342" />
      <path
         d="M 73.034,180.687 C 72.969,180.582 72.887,180.489 72.789,180.41 C 72.691,180.331 72.58,180.268 72.456,180.224 C 72.332,180.18 72.203,180.158 72.068,180.158 C 71.82,180.158 71.61,180.205 71.437,180.302 C 71.264,180.397 71.125,180.525 71.018,180.686 C 70.91,180.847 70.832,181.03 70.783,181.235 C 70.734,181.44 70.71,181.652 70.71,181.872 C 70.71,182.081 70.734,182.287 70.783,182.484 C 70.832,182.682 70.91,182.86 71.018,183.019 C 71.125,183.179 71.265,183.305 71.437,183.401 C 71.61,183.496 71.82,183.545 72.068,183.545 C 72.403,183.545 72.667,183.442 72.855,183.236 C 73.044,183.031 73.16,182.76 73.202,182.424 L 74.266,182.424 C 74.238,182.736 74.165,183.019 74.049,183.271 C 73.932,183.524 73.778,183.738 73.587,183.917 C 73.396,184.094 73.171,184.23 72.915,184.324 C 72.659,184.418 72.376,184.465 72.068,184.465 C 71.685,184.465 71.34,184.398 71.035,184.264 C 70.729,184.132 70.471,183.948 70.261,183.715 C 70.05,183.482 69.889,183.207 69.777,182.892 C 69.665,182.577 69.609,182.237 69.609,181.872 C 69.609,181.498 69.665,181.153 69.777,180.832 C 69.889,180.513 70.05,180.233 70.261,179.996 C 70.471,179.757 70.73,179.571 71.035,179.435 C 71.341,179.3 71.685,179.233 72.068,179.233 C 72.343,179.233 72.603,179.273 72.849,179.352 C 73.094,179.431 73.313,179.547 73.507,179.699 C 73.701,179.851 73.861,180.039 73.986,180.263 C 74.111,180.487 74.191,180.745 74.224,181.034 L 73.16,181.034 C 73.142,180.907 73.1,180.791 73.034,180.687 z "
         style="fill:#ffffff"
         id="path344" />
    </g>
    <g
       id="g6379_1_"
       transform="matrix(0.5,0,0,0.5,921.99158,364.95319)">
      <path
         d="M 77.266,165.945 C 77.269,170.097 73.907,173.465 69.754,173.468 C 65.603,173.47 62.235,170.107 62.232,165.956 C 62.232,165.952 62.232,165.948 62.232,165.945 C 62.229,161.793 65.592,158.426 69.743,158.423 C 73.895,158.421 77.263,161.783 77.265,165.934 C 77.266,165.938 77.266,165.942 77.266,165.945 z "
         style="fill:#ffffff"
         id="path6381_1_" />
      <path
         id="path110"
         d="M 69.738,157.194 C 72.191,157.194 74.265,158.04 75.959,159.732 C 77.653,161.424 78.501,163.496 78.501,165.946 C 78.501,168.397 77.668,170.446 76.003,172.095 C 74.235,173.831 72.148,174.698 69.738,174.698 C 67.357,174.698 65.305,173.837 63.582,172.115 C 61.858,170.395 60.997,168.338 60.997,165.946 C 60.997,163.554 61.858,161.482 63.582,159.732 C 65.261,158.04 67.313,157.194 69.738,157.194 z M 62.966,163.594 C 62.705,164.333 62.575,165.116 62.575,165.945 C 62.575,167.885 63.283,169.562 64.699,170.977 C 66.116,172.391 67.802,173.099 69.76,173.099 C 71.717,173.099 73.418,172.385 74.864,170.954 C 75.348,170.487 75.747,169.976 76.06,169.424 L 72.76,167.955 C 72.536,169.065 71.548,169.815 70.352,169.903 L 70.352,171.253 L 69.347,171.253 L 69.347,169.903 C 68.365,169.892 67.415,169.49 66.691,168.855 L 67.896,167.64 C 68.477,168.186 69.058,168.432 69.85,168.432 C 70.363,168.432 70.933,168.231 70.933,167.562 C 70.933,167.325 70.841,167.161 70.697,167.037 L 69.863,166.665 L 68.823,166.203 C 68.31,165.974 67.875,165.781 67.437,165.586 L 62.966,163.594 z M 69.76,158.769 C 67.774,158.769 66.094,159.469 64.722,160.87 C 64.347,161.247 64.023,161.641 63.746,162.052 L 67.092,163.542 C 67.394,162.614 68.276,162.05 69.346,161.988 L 69.346,160.639 L 70.351,160.639 L 70.351,161.988 C 71.043,162.022 71.802,162.211 72.55,162.791 L 71.4,163.973 C 70.976,163.672 70.441,163.46 69.904,163.46 C 69.469,163.46 68.855,163.593 68.855,164.139 C 68.855,164.223 68.882,164.296 68.934,164.361 L 70.053,164.859 L 70.81,165.197 C 71.294,165.413 71.757,165.618 72.216,165.822 L 76.7,167.819 C 76.848,167.232 76.923,166.607 76.923,165.945 C 76.923,163.946 76.222,162.255 74.82,160.869 C 73.432,159.469 71.745,158.769 69.76,158.769 z " />
    </g>
    <g
       id="g349"
       transform="matrix(0.5,0,0,0.5,921.99158,364.95319)">
      <circle
         sodipodi:ry="8.1049995"
         sodipodi:rx="8.1049995"
         sodipodi:cy="166.12399"
         sodipodi:cx="48.316002"
         r="8.1049995"
         cy="166.12399"
         cx="48.316002"
         style="fill:#ffffff"
         id="circle351" />
      <g
         id="g353">
        <path
           d="M 50.663,163.779 C 50.663,163.467 50.41,163.214 50.098,163.214 L 46.518,163.214 C 46.206,163.214 45.953,163.467 45.953,163.779 L 45.953,167.359 L 46.952,167.359 L 46.952,171.598 L 49.665,171.598 L 49.665,167.359 L 50.664,167.359 L 50.664,163.779 L 50.663,163.779 z "
           id="path355" />
        <circle
           sodipodi:ry="1.224"
           sodipodi:rx="1.224"
           sodipodi:cy="161.51801"
           sodipodi:cx="48.306999"
           r="1.224"
           cy="161.51801"
           cx="48.306999"
           id="circle357" />
      </g>
      <path
         id="path117"
         d="M 48.296,157.194 C 45.873,157.194 43.819,158.04 42.14,159.732 C 40.417,161.482 39.556,163.554 39.556,165.945 C 39.556,168.337 40.417,170.394 42.14,172.115 C 43.863,173.836 45.916,174.697 48.296,174.697 C 50.706,174.697 52.795,173.83 54.562,172.093 C 56.227,170.445 57.059,168.396 57.059,165.945 C 57.059,163.495 56.212,161.424 54.518,159.732 C 52.824,158.04 50.75,157.194 48.296,157.194 z M 48.318,158.769 C 50.304,158.769 51.991,159.47 53.378,160.87 C 54.781,162.256 55.482,163.948 55.482,165.946 C 55.482,167.959 54.796,169.629 53.422,170.956 C 51.976,172.386 50.275,173.1 48.318,173.1 C 46.361,173.1 44.674,172.393 43.257,170.978 C 41.84,169.563 41.132,167.886 41.132,165.946 C 41.132,164.006 41.848,162.314 43.279,160.87 C 44.652,159.47 46.333,158.769 48.318,158.769 z " />
    </g>
  </g>
</svg>
