<?xml version="1.0" encoding="UTF-8" standalone="no"?>
<!-- Created with Inkscape (http://www.inkscape.org/) -->
<svg
   xmlns:dc="http://purl.org/dc/elements/1.1/"
   xmlns:cc="http://web.resource.org/cc/"
   xmlns:rdf="http://www.w3.org/1999/02/22-rdf-syntax-ns#"
   xmlns:svg="http://www.w3.org/2000/svg"
   xmlns="http://www.w3.org/2000/svg"
   xmlns:sodipodi="http://sodipodi.sourceforge.net/DTD/sodipodi-0.dtd"
   xmlns:inkscape="http://www.inkscape.org/namespaces/inkscape"
   width="306.09299"
   height="163.41475"
   id="svg2223"
   sodipodi:version="0.32"
   inkscape:version="0.45.1"
   version="1.0"
   sodipodi:docbase="/Users/robmyers/Desktop/cc-ironies/final"
   sodipodi:docname="colour_wheel.svg"
   inkscape:output_extension="org.inkscape.output.svg.inkscape">
  <defs
     id="defs2225" />
  <sodipodi:namedview
     inkscape:document-units="mm"
     pagecolor="#ffffff"
     bordercolor="#666666"
     borderopacity="1.0"
     inkscape:pageopacity="0.0"
     inkscape:pageshadow="2"
     inkscape:zoom="1.9961254"
     inkscape:cx="153.04649"
     inkscape:cy="81.707375"
     inkscape:current-layer="layer1"
     id="namedview2227"
     inkscape:window-width="697"
     inkscape:window-height="581"
     inkscape:window-x="48"
     inkscape:window-y="22" />
  <metadata
     id="metadata2229">
    <rdf:RDF>
      <cc:Work
         rdf:about="">
        <dc:format>image/svg+xml</dc:format>
        <dc:type
           rdf:resource="http://purl.org/dc/dcmitype/StillImage" />
      </cc:Work>
    </rdf:RDF>
  </metadata>
  <g
     inkscape:label="Layer 1"
     inkscape:groupmode="layer"
     id="layer1"
     transform="translate(-224.69586,-190.26308)">
    <rect
       x="225.19586"
       y="190.76308"
       style="fill:#ffffff;stroke:#000000"
       width="141.73199"
       height="141.73199"
       id="rect7359" />
    <g
       id="g287"
       transform="matrix(0.375,0,0,0.375,157.64356,309.73576)">
      <path
         id="path3817_2_"
         nodetypes="ccccccc"
         d="M 182.23532,75.39014 L 296.29928,75.59326 C 297.89303,75.59326 299.31686,75.35644 299.31686,78.77344 L 299.17721,116.34033 L 179.3569,116.34033 L 179.3569,78.63379 C 179.3569,76.94922 179.51999,75.39014 182.23532,75.39014 z "
         style="fill:#aab2ab" />
      <g
         id="g5908_2_"
         transform="matrix(0.872921,0,0,0.872921,50.12536,143.2144)">
        <path
           id="path5906_2_"
           cx="296.35416"
           ry="22.939548"
           cy="264.3577"
           type="arc"
           rx="22.939548"
           d="M 187.20944,-55.6792 C 187.21502,-46.99896 180.18158,-39.95825 171.50134,-39.95212 C 162.82113,-39.94708 155.77929,-46.97998 155.77426,-55.66016 C 155.77426,-55.66687 155.77426,-55.67249 155.77426,-55.6792 C 155.76922,-64.36054 162.80209,-71.40125 171.48233,-71.40631 C 180.16367,-71.41193 187.20441,-64.37842 187.20944,-55.69824 C 187.20944,-55.69263 187.20944,-55.68591 187.20944,-55.6792 z "
           style="fill:#ffffff" />
        <g
           id="g5706_2_"
           transform="translate(-289.6157,99.0653)">
          <path
             id="path5708_2_"
             d="M 473.88455,-167.54724 C 477.36996,-164.06128 479.11294,-159.79333 479.11294,-154.74451 C 479.11294,-149.69513 477.40014,-145.47303 473.9746,-142.07715 C 470.33929,-138.50055 466.04281,-136.71283 461.08513,-136.71283 C 456.18736,-136.71283 451.96526,-138.48544 448.42003,-142.03238 C 444.87419,-145.57819 443.10158,-149.81537 443.10158,-154.74451 C 443.10158,-159.6731 444.87419,-163.94049 448.42003,-167.54724 C 451.87523,-171.03375 456.09728,-172.77618 461.08513,-172.77618 C 466.13342,-172.77618 470.39914,-171.03375 473.88455,-167.54724 z M 450.76657,-165.20239 C 447.81982,-162.22601 446.34701,-158.7395 446.34701,-154.74005 C 446.34701,-150.7417 447.80529,-147.28485 450.72125,-144.36938 C 453.63778,-141.45288 457.10974,-139.99462 461.1383,-139.99462 C 465.16683,-139.99462 468.66848,-141.46743 471.64486,-144.41363 C 474.47076,-147.14947 475.88427,-150.59069 475.88427,-154.74005 C 475.88427,-158.85809 474.44781,-162.35297 471.57659,-165.22479 C 468.70595,-168.09546 465.22671,-169.53131 461.1383,-169.53131 C 457.04993,-169.53131 453.59192,-168.08813 450.76657,-165.20239 z M 458.52106,-156.49927 C 458.07074,-157.4809 457.39673,-157.9715 456.49781,-157.9715 C 454.90867,-157.9715 454.11439,-156.90198 454.11439,-154.763 C 454.11439,-152.62341 454.90867,-151.55389 456.49781,-151.55389 C 457.54719,-151.55389 458.29676,-152.07519 458.74647,-153.11901 L 460.94923,-151.94598 C 459.8993,-150.0805 458.32417,-149.14697 456.22374,-149.14697 C 454.60384,-149.14697 453.30611,-149.64367 452.33168,-150.63653 C 451.35561,-151.62994 450.86894,-152.99926 450.86894,-154.7445 C 450.86894,-156.46008 451.37123,-157.82159 452.37642,-158.83013 C 453.38161,-159.83806 454.63347,-160.34264 456.13423,-160.34264 C 458.35435,-160.34264 459.94407,-159.46776 460.90504,-157.71978 L 458.52106,-156.49927 z M 468.8844,-156.49927 C 468.43353,-157.4809 467.77292,-157.9715 466.90201,-157.9715 C 465.28095,-157.9715 464.46988,-156.90198 464.46988,-154.763 C 464.46988,-152.62341 465.28095,-151.55389 466.90201,-151.55389 C 467.95304,-151.55389 468.68918,-152.07519 469.10925,-153.11901 L 471.36126,-151.94598 C 470.31301,-150.0805 468.74007,-149.14697 466.64358,-149.14697 C 465.02587,-149.14697 463.73095,-149.64367 462.75711,-150.63653 C 461.78494,-151.62994 461.29773,-152.99926 461.29773,-154.7445 C 461.29773,-156.46008 461.79221,-157.82159 462.78061,-158.83013 C 463.76843,-159.83806 465.02588,-160.34264 466.55408,-160.34264 C 468.77027,-160.34264 470.35776,-159.46776 471.3154,-157.71978 L 468.8844,-156.49927 z " />
        </g>
      </g>
      <path
         d="M 297.29639,74.91064 L 181.06688,74.91064 C 179.8203,74.91064 178.80614,75.92529 178.80614,77.17187 L 178.80614,116.66748 C 178.80614,116.94922 179.03466,117.17822 179.31639,117.17822 L 299.04639,117.17822 C 299.32813,117.17822 299.55713,116.94922 299.55713,116.66748 L 299.55713,77.17188 C 299.55713,75.92529 298.54297,74.91064 297.29639,74.91064 z M 181.06688,75.93213 L 297.29639,75.93213 C 297.97998,75.93213 298.53565,76.48828 298.53565,77.17188 C 298.53565,77.17188 298.53565,93.09131 298.53565,104.59034 L 215.4619,104.59034 C 212.41698,110.09571 206.55077,113.83399 199.81835,113.83399 C 193.083,113.83399 187.21825,110.09913 184.1748,104.59034 L 179.82666,104.59034 C 179.82666,93.09132 179.82666,77.17188 179.82666,77.17188 C 179.82664,76.48828 180.38329,75.93213 181.06688,75.93213 z "
         id="path294" />
      <g
         enable-background="new    "
         id="g296">
        <path
           d="M 265.60986,112.8833 C 265.68994,113.03906 265.79736,113.16504 265.93115,113.26172 C 266.06494,113.35791 266.22119,113.42969 266.40088,113.47608 C 266.58154,113.52296 266.76807,113.54639 266.96045,113.54639 C 267.09033,113.54639 267.22998,113.53565 267.3794,113.51368 C 267.52784,113.4922 267.66749,113.44972 267.79835,113.3877 C 267.92823,113.32569 268.03761,113.23975 268.12355,113.13086 C 268.21144,113.02197 268.25441,112.88379 268.25441,112.71533 C 268.25441,112.53515 268.19679,112.38916 268.08156,112.27685 C 267.9673,112.16455 267.81594,112.07177 267.62941,111.99658 C 267.44386,111.92236 267.23195,111.85693 266.9966,111.80078 C 266.76027,111.74463 266.52101,111.68262 266.27883,111.61377 C 266.02981,111.55176 265.78762,111.47559 265.55129,111.38525 C 265.31594,111.29541 265.10402,111.17822 264.9175,111.03515 C 264.73098,110.89208 264.58059,110.71337 264.46535,110.49853 C 264.35109,110.28369 264.29347,110.02392 264.29347,109.71923 C 264.29347,109.37646 264.36671,109.07958 264.51222,108.82763 C 264.6587,108.57568 264.85011,108.36572 265.08644,108.19726 C 265.32179,108.02929 265.58937,107.90478 265.8882,107.82372 C 266.18605,107.74315 266.48488,107.70263 266.78273,107.70263 C 267.13136,107.70263 267.46535,107.74169 267.78566,107.81982 C 268.105,107.89746 268.39015,108.02392 268.6382,108.19824 C 268.88722,108.37256 269.08449,108.59521 269.23097,108.86621 C 269.37648,109.13721 269.44972,109.46582 269.44972,109.85156 L 268.02784,109.85156 C 268.01514,109.65234 267.97315,109.4873 267.90284,109.35693 C 267.83155,109.22607 267.73682,109.12353 267.61964,109.04834 C 267.50148,108.97412 267.36671,108.9209 267.21534,108.89014 C 267.063,108.85889 266.89796,108.84326 266.71827,108.84326 C 266.60108,108.84326 266.48292,108.85596 266.36573,108.88037 C 266.24757,108.90576 266.14112,108.94922 266.04542,109.01123 C 265.94874,109.07373 265.86964,109.15137 265.80812,109.24463 C 265.7466,109.33838 265.71535,109.45654 265.71535,109.59961 C 265.71535,109.73047 265.73976,109.83643 265.78957,109.91699 C 265.83937,109.99804 265.93801,110.07275 266.08352,110.14111 C 266.22903,110.20947 266.43118,110.27832 266.68899,110.34668 C 266.9468,110.41504 267.28372,110.50244 267.70071,110.60791 C 267.82473,110.63281 267.99661,110.67822 268.21731,110.74365 C 268.43801,110.80908 268.65676,110.91308 268.87454,111.05615 C 269.09231,111.1997 269.27981,111.39111 269.43899,111.63037 C 269.59719,111.87012 269.67629,112.17676 269.67629,112.55029 C 269.67629,112.85547 269.61672,113.13867 269.49856,113.3999 C 269.3804,113.66162 269.20461,113.8872 268.97122,114.07666 C 268.73782,114.26709 268.44876,114.41455 268.10403,114.52051 C 267.75833,114.62647 267.35794,114.6792 266.90481,114.6792 C 266.53762,114.6792 266.18118,114.63379 265.83547,114.54346 C 265.49074,114.45313 265.18508,114.31104 264.92043,114.11768 C 264.65676,113.92432 264.4468,113.67774 264.29055,113.37891 C 264.13528,113.07959 264.06106,112.7251 264.06692,112.31397 L 265.4888,112.31397 C 265.48877,112.53809 265.52881,112.72803 265.60986,112.8833 z "
           id="path298"
           style="fill:#ffffff" />
        <path
           d="M 273.8667,107.8667 L 276.35986,114.53076 L 274.8374,114.53076 L 274.33349,113.04638 L 271.84033,113.04638 L 271.31787,114.53076 L 269.84326,114.53076 L 272.36377,107.8667 L 273.8667,107.8667 L 273.8667,107.8667 z M 273.95068,111.95264 L 273.11084,109.50928 L 273.09229,109.50928 L 272.22315,111.95264 L 273.95068,111.95264 z "
           id="path300"
           style="fill:#ffffff" />
      </g>
      <g
         enable-background="new    "
         id="g302">
        <path
           d="M 239.17821,107.8667 C 239.49559,107.8667 239.78563,107.89502 240.04735,107.95068 C 240.30907,108.00683 240.53368,108.09863 240.72118,108.22607 C 240.9077,108.35351 241.05321,108.52295 241.15575,108.73437 C 241.25829,108.94579 241.31005,109.20703 241.31005,109.51806 C 241.31005,109.854 241.23388,110.13329 241.08056,110.35742 C 240.92822,110.58154 240.70165,110.76465 240.40283,110.90771 C 240.81494,111.02587 241.12256,111.23291 241.32568,111.5288 C 241.5288,111.82469 241.63037,112.18114 241.63037,112.59814 C 241.63037,112.93408 241.56494,113.22509 241.43408,113.47119 C 241.30322,113.7168 241.12646,113.91748 240.90576,114.07324 C 240.68408,114.229 240.43115,114.34424 240.14795,114.41845 C 239.86377,114.49365 239.57275,114.53075 239.27295,114.53075 L 236.03662,114.53075 L 236.03662,107.86669 L 239.17821,107.86669 L 239.17821,107.8667 z M 238.99071,110.56201 C 239.25243,110.56201 239.46727,110.5 239.63622,110.37597 C 239.80419,110.25146 239.88817,110.05029 239.88817,109.77099 C 239.88817,109.61572 239.85985,109.48828 239.80419,109.38915 C 239.74755,109.28954 239.67333,109.21239 239.57958,109.15624 C 239.48583,109.10058 239.37841,109.06151 239.25731,109.04003 C 239.13524,109.01806 239.00926,109.00732 238.8784,109.00732 L 237.50535,109.00732 L 237.50535,110.56201 L 238.99071,110.56201 z M 239.07664,113.39014 C 239.22019,113.39014 239.35691,113.37647 239.48777,113.34815 C 239.61863,113.32032 239.73484,113.27344 239.83445,113.2085 C 239.93406,113.14307 240.01316,113.0542 240.07273,112.94239 C 240.1323,112.83058 240.1616,112.68751 240.1616,112.51319 C 240.1616,112.17139 240.06492,111.92725 239.87156,111.78126 C 239.6782,111.63527 239.42234,111.56202 239.10496,111.56202 L 237.50535,111.56202 L 237.50535,113.39014 L 239.07664,113.39014 z "
           id="path304"
           style="fill:#ffffff" />
        <path
           d="M 241.88914,107.8667 L 243.53269,107.8667 L 245.09324,110.49854 L 246.64402,107.8667 L 248.27781,107.8667 L 245.80418,111.97315 L 245.80418,114.53077 L 244.33543,114.53077 L 244.33543,111.93604 L 241.88914,107.8667 z "
           id="path306"
           style="fill:#ffffff" />
      </g>
      <g
         id="g6316_1_"
         transform="matrix(0.624995,0,0,0.624995,391.2294,176.9332)">
        <path
           id="path6318_1_"
           cx="475.97119"
           ry="29.209877"
           cy="252.08646"
           type="arc"
           rx="29.209877"
           d="M -175.0083,-139.1153 C -175.00204,-129.7035 -182.62555,-122.06751 -192.03812,-122.06049 C -201.44913,-122.05341 -209.08512,-129.67774 -209.09293,-139.09028 C -209.09293,-139.09809 -209.09293,-139.10749 -209.09293,-139.1153 C -209.09919,-148.52784 -201.47413,-156.1623 -192.06311,-156.17011 C -182.65054,-156.17713 -175.01456,-148.55207 -175.0083,-139.14026 C -175.0083,-139.13092 -175.0083,-139.1239 -175.0083,-139.1153 z "
           style="fill:#ffffff" />
        <g
           id="g6320_1_"
           transform="translate(-23.9521,-89.72962)">
          <path
             id="path6322_1_"
             d="M -168.2204,-68.05536 C -173.39234,-68.05536 -177.76892,-66.25067 -181.35175,-62.64203 C -185.02836,-58.90759 -186.86588,-54.48883 -186.86588,-49.38568 C -186.86588,-44.28253 -185.02836,-39.89416 -181.35175,-36.22308 C -177.67673,-32.55114 -173.29859,-30.71521 -168.2204,-30.71521 C -163.07974,-30.71521 -158.62503,-32.56677 -154.85312,-36.26996 C -151.30307,-39.78558 -149.52652,-44.15827 -149.52652,-49.38568 C -149.52652,-54.6123 -151.33432,-59.03265 -154.94843,-62.64203 C -158.5625,-66.25067 -162.98599,-68.05536 -168.2204,-68.05536 z M -168.17352,-64.69519 C -163.936,-64.69519 -160.33752,-63.20221 -157.37655,-60.21466 C -154.38748,-57.25836 -152.89214,-53.64899 -152.89214,-49.38568 C -152.89214,-45.09186 -154.35466,-41.52856 -157.28438,-38.69653 C -160.36876,-35.64727 -163.99849,-34.12304 -168.17351,-34.12304 C -172.34856,-34.12304 -175.94701,-35.63244 -178.96892,-38.64965 C -181.9908,-41.66918 -183.50176,-45.24657 -183.50176,-49.38567 C -183.50176,-53.52398 -181.97518,-57.13414 -178.92205,-60.21465 C -175.9939,-63.20221 -172.41107,-64.69519 -168.17352,-64.69519 z " />
          <path
             id="path6324_1_"
             d="M -176.49548,-52.02087 C -175.75171,-56.71856 -172.44387,-59.22949 -168.30008,-59.22949 C -162.33911,-59.22949 -158.70783,-54.90448 -158.70783,-49.1372 C -158.70783,-43.50982 -162.57194,-39.13793 -168.39383,-39.13793 C -172.39856,-39.13793 -175.98297,-41.60277 -176.63611,-46.43877 L -171.93292,-46.43877 C -171.7923,-43.92778 -170.1626,-43.04418 -167.83447,-43.04418 C -165.1813,-43.04418 -163.4563,-45.50908 -163.4563,-49.27709 C -163.4563,-53.22942 -164.94693,-55.32244 -167.74228,-55.32244 C -169.79074,-55.32244 -171.55948,-54.57787 -171.93292,-52.02087 L -170.56418,-52.02789 L -174.26734,-48.32629 L -177.96894,-52.02789 L -176.49548,-52.02087 z " />
        </g>
      </g>
      <g
         id="g313">
        <circle
           cx="242.56226"
           cy="90.224609"
           r="10.8064"
           id="circle315"
           sodipodi:cx="242.56226"
           sodipodi:cy="90.224609"
           sodipodi:rx="10.8064"
           sodipodi:ry="10.8064"
           style="fill:#ffffff" />
        <g
           id="g317">
          <path
             d="M 245.68994,87.09766 C 245.68994,86.68116 245.35205,86.34424 244.93603,86.34424 L 240.16357,86.34424 C 239.74755,86.34424 239.40966,86.68115 239.40966,87.09766 L 239.40966,91.87061 L 240.74071,91.87061 L 240.74071,97.52295 L 244.3579,97.52295 L 244.3579,91.87061 L 245.68993,91.87061 L 245.68993,87.09766 L 245.68994,87.09766 z "
             id="path319" />
          <circle
             cx="242.5498"
             cy="84.083008"
             r="1.63232"
             id="circle321"
             sodipodi:cx="242.5498"
             sodipodi:cy="84.083008"
             sodipodi:rx="1.63232"
             sodipodi:ry="1.63232" />
        </g>
        <path
           clip-rule="evenodd"
           d="M 242.53467,78.31836 C 239.30322,78.31836 236.56641,79.4458 234.32715,81.70215 C 232.0293,84.03516 230.88086,86.79736 230.88086,89.98633 C 230.88086,93.1753 232.0293,95.91846 234.32715,98.21338 C 236.625,100.50781 239.36133,101.65527 242.53467,101.65527 C 245.74756,101.65527 248.53272,100.49853 250.88819,98.18359 C 253.10889,95.98681 254.21827,93.2539 254.21827,89.98632 C 254.21827,86.71874 253.08936,83.95751 250.83057,81.70214 C 248.57178,79.4458 245.80615,78.31836 242.53467,78.31836 z M 242.56396,80.41797 C 245.2124,80.41797 247.46142,81.35156 249.31103,83.21875 C 251.18115,85.06592 252.11572,87.32227 252.11572,89.98633 C 252.11572,92.66992 251.20068,94.89746 249.36963,96.66699 C 247.4419,98.57275 245.17334,99.52539 242.56397,99.52539 C 239.9546,99.52539 237.70557,98.58252 235.81739,96.6958 C 233.92774,94.80957 232.98389,92.57324 232.98389,89.98633 C 232.98389,87.3999 233.93799,85.14404 235.84619,83.21875 C 237.67676,81.35156 239.9165,80.41797 242.56396,80.41797 z "
           id="path323"
           style="fill-rule:evenodd" />
      </g>
    </g>
    <g
       id="g2189"
       transform="matrix(0.5,0,0,0.5,27.74369,89.63053)">
      <path
         transform="matrix(-0.5,-0.8660254,0.8660254,-0.5,503.7794,727.17973)"
         sodipodi:end="1.0471976"
         sodipodi:start="0"
         d="M 437.62833,216.63718 A 128.9852,128.9852 0 0 1 373.13572,328.34164 L 308.64313,216.63718 z"
         sodipodi:ry="128.9852"
         sodipodi:rx="128.9852"
         sodipodi:cy="216.63718"
         sodipodi:cx="308.64313"
         id="path3166"
         style="fill:#ff7f00;fill-opacity:1;stroke:none;stroke-width:10;stroke-miterlimit:4;stroke-dasharray:none;stroke-opacity:1"
         sodipodi:type="arc" />
      <path
         transform="matrix(-0.5,0.8660254,-0.8660254,-0.5,879.00466,192.5915)"
         sodipodi:end="1.0471976"
         sodipodi:start="0"
         d="M 437.62833,216.63718 A 128.9852,128.9852 0 0 1 373.13572,328.34164 L 308.64313,216.63718 z"
         sodipodi:ry="128.9852"
         sodipodi:rx="128.9852"
         sodipodi:cy="216.63718"
         sodipodi:cx="308.64313"
         id="path3168"
         style="fill:#800080;fill-opacity:1;stroke:none;stroke-width:10;stroke-miterlimit:4;stroke-dasharray:none;stroke-opacity:1"
         sodipodi:type="arc" />
      <path
         transform="translate(228.42544,134.92983)"
         sodipodi:end="1.0471976"
         sodipodi:start="0"
         d="M 437.62833,216.63718 A 128.9852,128.9852 0 0 1 373.13572,328.34164 L 308.64313,216.63718 z"
         sodipodi:ry="128.9852"
         sodipodi:rx="128.9852"
         sodipodi:cy="216.63718"
         sodipodi:cx="308.64313"
         id="path3170"
         style="fill:#008000;fill-opacity:1;stroke:none;stroke-width:10;stroke-miterlimit:4;stroke-dasharray:none;stroke-opacity:1"
         sodipodi:type="arc" />
      <path
         transform="matrix(0.5,-0.8660254,0.8660254,0.5,195.1335,510.5444)"
         sodipodi:end="1.0471976"
         sodipodi:start="0"
         d="M 437.62833,216.63718 A 128.9852,128.9852 0 0 1 373.13572,328.34164 L 308.64313,216.63718 z"
         sodipodi:ry="128.9852"
         sodipodi:rx="128.9852"
         sodipodi:cy="216.63718"
         sodipodi:cx="308.64313"
         id="path3179"
         style="fill:#ffff00;fill-opacity:1;stroke:none;stroke-width:10;stroke-miterlimit:4;stroke-dasharray:none;stroke-opacity:1"
         sodipodi:type="arc" />
    </g>
    <g
       id="g7665"
       transform="matrix(0.5,0,0,0.5,387.80685,260.50783)">
      <path
         id="path3817_5_"
         style="fill:#aab2ab"
         d="M 3.072,154.981 L 88.62,155.133 C 89.815,155.133 90.884,154.955 90.884,157.518 L 90.779,185.694 L 0.913,185.694 L 0.913,157.415 C 0.913,156.15 1.036,154.981 3.072,154.981 z " />
      <path
         d="M 89.368,154.639 L 2.196,154.639 C 1.261,154.639 0.5,155.401 0.5,156.335 L 0.5,185.957 C 0.5,186.168 0.672,186.34 0.883,186.34 L 90.68,186.34 C 90.891,186.34 91.063,186.168 91.063,185.957 L 91.063,156.335 C 91.063,155.401 90.303,154.639 89.368,154.639 z M 2.196,155.406 L 89.368,155.406 C 89.881,155.406 90.298,155.823 90.298,156.336 C 90.298,156.336 90.298,168.259 90.298,176.882 L 27.992,176.882 C 25.709,181.011 21.308,183.816 16.259,183.816 C 11.208,183.816 6.81,181.014 4.528,176.882 L 1.267,176.882 C 1.267,168.259 1.267,156.336 1.267,156.336 C 1.267,155.823 1.684,155.406 2.196,155.406 z "
         id="path7668" />
      <g
         id="g5908_5_">
        <path
           id="path5906_5_"
           style="fill:#ffffff"
           d="M 26.554,169.397 C 26.558,175.08 21.953,179.69 16.27,179.692 C 10.587,179.697 5.978,175.091 5.974,169.409 C 5.974,169.405 5.974,169.401 5.974,169.397 C 5.97,163.713 10.575,159.104 16.258,159.1 C 21.942,159.096 26.551,163.702 26.554,169.383 C 26.554,169.388 26.554,169.392 26.554,169.397 z " />
        <g
           id="g5706_5_">
          <path
             d="M 24.629,161.015 C 26.911,163.297 28.052,166.09 28.052,169.397 C 28.052,172.702 26.931,175.466 24.688,177.69 C 22.308,180.031 19.496,181.202 16.25,181.202 C 13.043,181.202 10.279,180.042 7.959,177.72 C 5.637,175.398 4.477,172.624 4.477,169.398 C 4.477,166.17 5.637,163.377 7.959,161.016 C 10.221,158.734 12.984,157.592 16.25,157.592 C 19.554,157.591 22.347,158.733 24.629,161.015 z M 9.494,162.55 C 7.565,164.498 6.6,166.781 6.6,169.399 C 6.6,172.017 7.555,174.281 9.464,176.189 C 11.374,178.098 13.647,179.053 16.284,179.053 C 18.921,179.053 21.214,178.089 23.163,176.16 C 25.013,174.369 25.938,172.115 25.938,169.398 C 25.938,166.703 24.998,164.414 23.117,162.535 C 21.238,160.655 18.96,159.715 16.284,159.715 C 13.607,159.715 11.343,160.661 9.494,162.55 z M 14.57,168.249 C 14.275,167.605 13.835,167.284 13.246,167.284 C 12.206,167.284 11.685,167.985 11.685,169.386 C 11.685,170.787 12.206,171.486 13.246,171.486 C 13.933,171.486 14.424,171.145 14.718,170.463 L 16.16,171.231 C 15.472,172.452 14.441,173.063 13.066,173.063 C 12.005,173.063 11.156,172.738 10.518,172.088 C 9.879,171.438 9.56,170.541 9.56,169.399 C 9.56,168.276 9.889,167.384 10.547,166.724 C 11.204,166.063 12.025,165.734 13.007,165.734 C 14.461,165.734 15.501,166.306 16.131,167.451 L 14.57,168.249 z M 21.355,168.249 C 21.06,167.605 20.626,167.284 20.057,167.284 C 18.995,167.284 18.464,167.985 18.464,169.386 C 18.464,170.787 18.995,171.486 20.057,171.486 C 20.745,171.486 21.227,171.145 21.502,170.463 L 22.976,171.231 C 22.29,172.452 21.26,173.063 19.888,173.063 C 18.829,173.063 17.981,172.738 17.344,172.088 C 16.707,171.438 16.388,170.541 16.388,169.399 C 16.388,168.276 16.712,167.384 17.36,166.724 C 18.006,166.063 18.83,165.734 19.83,165.734 C 21.281,165.734 22.32,166.306 22.947,167.451 L 21.355,168.249 z "
             id="path7673" />
        </g>
      </g>
      <g
         id="g126">
        <circle
           id="circle128"
           style="fill:#ffffff"
           cx="39.564999"
           cy="166.13"
           r="8.1040001"
           sodipodi:cx="39.564999"
           sodipodi:cy="166.13"
           sodipodi:rx="8.1040001"
           sodipodi:ry="8.1040001" />
        <g
           id="g130">
          <path
             id="path132"
             d="M 41.911,163.785 C 41.911,163.473 41.658,163.22 41.346,163.22 L 37.767,163.22 C 37.455,163.22 37.202,163.474 37.202,163.785 L 37.202,167.365 L 38.2,167.365 L 38.2,171.604 L 40.913,171.604 L 40.913,167.365 L 41.912,167.365 L 41.912,163.785 L 41.911,163.785 z " />
          <circle
             id="circle134"
             cx="39.556"
             cy="161.524"
             r="1.225"
             sodipodi:cx="39.556"
             sodipodi:cy="161.524"
             sodipodi:rx="1.225"
             sodipodi:ry="1.225" />
        </g>
        <path
           d="M 39.545,157.2 C 37.121,157.2 35.069,158.046 33.39,159.738 C 31.666,161.488 30.805,163.559 30.805,165.952 C 30.805,168.344 31.666,170.4 33.39,172.122 C 35.114,173.843 37.165,174.704 39.545,174.704 C 41.955,174.704 44.044,173.837 45.811,172.1 C 47.476,170.453 48.308,168.403 48.308,165.953 C 48.308,163.502 47.461,161.432 45.767,159.739 C 44.073,158.045 41.999,157.2 39.545,157.2 z M 39.567,158.775 C 41.553,158.775 43.24,159.475 44.627,160.876 C 46.03,162.262 46.731,163.954 46.731,165.952 C 46.731,167.965 46.045,169.635 44.671,170.962 C 43.226,172.392 41.524,173.107 39.567,173.107 C 37.609,173.107 35.922,172.4 34.506,170.985 C 33.089,169.57 32.381,167.892 32.381,165.953 C 32.381,164.013 33.097,162.321 34.527,160.877 C 35.902,159.475 37.581,158.775 39.567,158.775 z "
           id="path7680" />
      </g>
      <g
         id="g138"
         style="enable-background:new">
        <path
           style="fill:#ffffff"
           d="M 37.028,179.357 C 37.266,179.357 37.484,179.378 37.68,179.42 C 37.876,179.461 38.045,179.529 38.185,179.626 C 38.325,179.721 38.433,179.849 38.511,180.007 C 38.588,180.165 38.626,180.361 38.626,180.594 C 38.626,180.846 38.569,181.056 38.454,181.225 C 38.34,181.393 38.17,181.53 37.946,181.637 C 38.255,181.725 38.486,181.881 38.638,182.104 C 38.79,182.325 38.867,182.592 38.867,182.905 C 38.867,183.157 38.818,183.376 38.72,183.559 C 38.622,183.745 38.489,183.895 38.323,184.01 C 38.157,184.127 37.968,184.214 37.756,184.27 C 37.543,184.327 37.324,184.355 37.1,184.355 L 34.672,184.355 L 34.672,179.357 L 37.028,179.357 L 37.028,179.357 z M 36.888,181.378 C 37.084,181.378 37.245,181.331 37.371,181.237 C 37.498,181.144 37.56,180.994 37.56,180.785 C 37.56,180.668 37.539,180.572 37.498,180.498 C 37.455,180.423 37.399,180.365 37.329,180.323 C 37.259,180.281 37.179,180.252 37.088,180.235 C 36.996,180.218 36.901,180.212 36.804,180.212 L 35.774,180.212 L 35.774,181.378 L 36.888,181.378 z M 36.952,183.5 C 37.059,183.5 37.162,183.489 37.261,183.468 C 37.359,183.447 37.446,183.412 37.521,183.364 C 37.596,183.313 37.655,183.248 37.7,183.163 C 37.744,183.079 37.766,182.973 37.766,182.843 C 37.766,182.586 37.694,182.404 37.549,182.293 C 37.404,182.182 37.212,182.129 36.974,182.129 L 35.774,182.129 L 35.774,183.5 L 36.952,183.5 z "
           id="path7683" />
        <polygon
           id="path142"
           style="fill:#ffffff"
           points="39.062,179.357 40.293,179.357 41.464,181.331 42.628,179.357 43.853,179.357 41.997,182.436 41.997,184.355 40.896,184.355 40.896,182.409 39.062,179.357 " />
      </g>
      <g
         id="g144"
         style="enable-background:new">
        <path
           id="path146"
           style="fill:#ffffff"
           d="M 74.793,183.119 C 74.854,183.236 74.934,183.33 75.034,183.403 C 75.134,183.475 75.251,183.529 75.387,183.564 C 75.522,183.599 75.661,183.617 75.806,183.617 C 75.904,183.617 76.008,183.608 76.12,183.593 C 76.231,183.576 76.336,183.544 76.434,183.497 C 76.531,183.452 76.612,183.388 76.678,183.306 C 76.742,183.224 76.776,183.119 76.776,182.994 C 76.776,182.859 76.733,182.75 76.646,182.666 C 76.56,182.581 76.447,182.512 76.307,182.455 C 76.167,182.399 76.008,182.351 75.832,182.309 C 75.654,182.266 75.475,182.219 75.293,182.168 C 75.106,182.121 74.925,182.064 74.748,181.996 C 74.571,181.93 74.412,181.842 74.272,181.734 C 74.132,181.626 74.019,181.492 73.933,181.332 C 73.847,181.17 73.804,180.976 73.804,180.747 C 73.804,180.49 73.859,180.268 73.968,180.079 C 74.077,179.89 74.221,179.732 74.398,179.605 C 74.576,179.48 74.776,179.386 75,179.326 C 75.224,179.264 75.448,179.235 75.672,179.235 C 75.933,179.235 76.184,179.264 76.424,179.323 C 76.663,179.381 76.877,179.475 77.063,179.605 C 77.251,179.738 77.398,179.904 77.508,180.107 C 77.617,180.31 77.672,180.556 77.672,180.846 L 76.606,180.846 C 76.596,180.697 76.565,180.572 76.512,180.476 C 76.458,180.377 76.387,180.3 76.299,180.244 C 76.211,180.189 76.11,180.148 75.996,180.126 C 75.883,180.103 75.758,180.091 75.623,180.091 C 75.535,180.091 75.446,180.1 75.358,180.119 C 75.269,180.138 75.19,180.17 75.118,180.217 C 75.046,180.264 74.987,180.321 74.94,180.391 C 74.894,180.461 74.871,180.551 74.871,180.659 C 74.871,180.757 74.889,180.836 74.927,180.895 C 74.964,180.957 75.037,181.012 75.147,181.064 C 75.257,181.116 75.409,181.167 75.602,181.217 C 75.795,181.269 76.048,181.334 76.36,181.414 C 76.454,181.433 76.583,181.467 76.748,181.516 C 76.914,181.565 77.079,181.643 77.241,181.75 C 77.404,181.857 77.545,182.001 77.665,182.182 C 77.783,182.36 77.843,182.59 77.843,182.871 C 77.843,183.1 77.798,183.312 77.709,183.508 C 77.62,183.705 77.489,183.873 77.313,184.016 C 77.138,184.159 76.921,184.269 76.663,184.348 C 76.404,184.428 76.104,184.468 75.763,184.468 C 75.488,184.468 75.222,184.433 74.962,184.365 C 74.702,184.297 74.474,184.191 74.276,184.046 C 74.078,183.9 73.921,183.717 73.803,183.492 C 73.685,183.267 73.629,183.002 73.635,182.693 L 74.701,182.693 C 74.702,182.86 74.731,183.002 74.793,183.119 z " />
        <path
           style="fill:#ffffff"
           d="M 80.985,179.357 L 82.854,184.355 L 81.713,184.355 L 81.334,183.242 L 79.465,183.242 L 79.072,184.355 L 77.967,184.355 L 79.858,179.357 L 80.985,179.357 z M 81.048,182.421 L 80.419,180.588 L 80.403,180.588 L 79.753,182.421 L 81.048,182.421 z "
           id="path7688" />
      </g>
      <g
         id="g150"
         style="enable-background:new">
        <polygon
           id="path152"
           style="fill:#ffffff"
           points="55.229,179.357 57.317,182.709 57.329,182.709 57.329,179.357 58.36,179.357 58.36,184.355 57.261,184.355 55.181,181.008 55.167,181.008 55.167,184.355 54.136,184.355 54.136,179.357 55.229,179.357 " />
        <path
           id="path154"
           style="fill:#ffffff"
           d="M 62.532,180.688 C 62.468,180.583 62.386,180.491 62.287,180.412 C 62.189,180.333 62.079,180.27 61.955,180.225 C 61.831,180.182 61.701,180.16 61.566,180.16 C 61.319,180.16 61.108,180.207 60.936,180.304 C 60.762,180.4 60.623,180.527 60.516,180.688 C 60.409,180.849 60.329,181.033 60.281,181.238 C 60.233,181.443 60.208,181.655 60.208,181.875 C 60.208,182.084 60.232,182.289 60.281,182.487 C 60.33,182.685 60.409,182.863 60.516,183.021 C 60.622,183.181 60.762,183.307 60.936,183.404 C 61.108,183.5 61.319,183.548 61.566,183.548 C 61.902,183.548 62.165,183.445 62.354,183.238 C 62.542,183.033 62.659,182.762 62.7,182.427 L 63.764,182.427 C 63.737,182.739 63.663,183.021 63.547,183.273 C 63.431,183.527 63.276,183.741 63.085,183.919 C 62.894,184.097 62.67,184.232 62.412,184.326 C 62.156,184.42 61.873,184.467 61.565,184.467 C 61.182,184.467 60.837,184.4 60.532,184.267 C 60.227,184.134 59.969,183.951 59.758,183.717 C 59.548,183.484 59.386,183.208 59.274,182.894 C 59.163,182.58 59.106,182.24 59.106,181.874 C 59.106,181.501 59.163,181.155 59.274,180.834 C 59.386,180.515 59.548,180.235 59.758,179.997 C 59.969,179.759 60.227,179.573 60.532,179.436 C 60.838,179.301 61.182,179.234 61.565,179.234 C 61.84,179.234 62.101,179.274 62.345,179.352 C 62.59,179.432 62.81,179.547 63.003,179.7 C 63.197,179.852 63.357,180.04 63.483,180.264 C 63.608,180.488 63.688,180.745 63.72,181.034 L 62.657,181.034 C 62.64,180.909 62.598,180.792 62.532,180.688 z " />
      </g>
      <g
         id="g6332_1_">
        <path
           id="path6334_1_"
           style="fill:#ffffff"
           d="M 86.973,165.947 C 86.977,170.358 83.403,173.938 78.991,173.942 C 74.579,173.944 71,170.371 70.997,165.958 C 70.997,165.955 70.997,165.95 70.997,165.947 C 70.994,161.535 74.568,157.956 78.979,157.952 C 83.391,157.949 86.97,161.523 86.973,165.934 C 86.973,165.939 86.973,165.942 86.973,165.947 z " />
        <g
           id="g6336_1_">
          <path
             d="M 78.927,157.195 C 76.503,157.195 74.45,158.042 72.773,159.733 C 71.049,161.483 70.187,163.555 70.187,165.947 C 70.187,168.339 71.049,170.395 72.773,172.116 C 74.496,173.838 76.547,174.699 78.927,174.699 C 81.337,174.699 83.425,173.831 85.193,172.095 C 86.858,170.446 87.691,168.397 87.691,165.947 C 87.691,163.497 86.843,161.425 85.149,159.733 C 83.455,158.041 81.381,157.195 78.927,157.195 z M 78.949,158.77 C 80.935,158.77 82.622,159.47 84.01,160.872 C 85.411,162.257 86.113,163.948 86.113,165.947 C 86.113,167.96 85.426,169.63 84.053,170.958 C 82.608,172.387 80.906,173.101 78.949,173.101 C 76.992,173.101 75.305,172.394 73.888,170.98 C 72.472,169.565 71.764,167.888 71.764,165.948 C 71.764,164.008 72.479,162.316 73.91,160.873 C 75.283,159.47 76.963,158.77 78.949,158.77 z "
             id="path7696" />
          <path
             id="path6340_1_"
             d="M 75.048,164.711 C 75.398,162.509 76.946,161.332 78.89,161.332 C 81.684,161.332 83.386,163.359 83.386,166.062 C 83.386,168.701 81.574,170.75 78.846,170.75 C 76.969,170.75 75.288,169.595 74.983,167.327 L 77.187,167.327 C 77.253,168.504 78.017,168.919 79.109,168.919 C 80.352,168.919 81.16,167.764 81.16,165.998 C 81.16,164.144 80.463,163.163 79.152,163.163 C 78.192,163.163 77.363,163.512 77.187,164.711 L 77.829,164.707 L 76.094,166.443 L 74.359,164.707 L 75.048,164.711 z " />
        </g>
      </g>
      <g
         id="g6361_1_">
        <path
           id="path6363_1_"
           style="fill:#ffffff"
           d="M 67.389,165.947 C 67.393,170.444 63.749,174.091 59.254,174.094 C 54.757,174.096 51.109,170.454 51.107,165.958 C 51.107,165.954 51.107,165.949 51.107,165.946 C 51.103,161.449 54.746,157.802 59.242,157.799 C 63.738,157.796 67.387,161.439 67.389,165.935 C 67.389,165.938 67.389,165.943 67.389,165.947 z " />
        <path
           d="M 59.236,157.195 C 61.689,157.195 63.762,158.042 65.457,159.733 C 67.152,161.424 67.999,163.497 67.999,165.947 C 67.999,168.397 67.166,170.446 65.502,172.095 C 63.733,173.83 61.646,174.699 59.236,174.699 C 56.855,174.699 54.803,173.838 53.081,172.116 C 51.357,170.396 50.495,168.339 50.495,165.947 C 50.495,163.555 51.357,161.483 53.081,159.733 C 54.761,158.042 56.812,157.195 59.236,157.195 z M 52.465,163.596 C 52.203,164.334 52.073,165.117 52.073,165.947 C 52.073,167.887 52.781,169.564 54.198,170.979 C 55.614,172.393 57.301,173.1 59.258,173.1 C 61.215,173.1 62.917,172.386 64.362,170.956 C 64.845,170.488 65.245,169.978 65.557,169.426 L 62.258,167.956 C 62.034,169.066 61.045,169.816 59.849,169.904 L 59.849,171.254 L 58.844,171.254 L 58.844,169.904 C 57.863,169.892 56.913,169.491 56.188,168.855 L 57.393,167.64 C 57.974,168.187 58.554,168.432 59.347,168.432 C 59.861,168.432 60.43,168.231 60.43,167.562 C 60.43,167.326 60.338,167.16 60.194,167.037 L 59.36,166.665 L 58.32,166.203 C 57.806,165.974 57.371,165.78 56.934,165.586 L 52.465,163.596 z M 59.258,158.77 C 57.272,158.77 55.593,159.47 54.22,160.872 C 53.847,161.248 53.521,161.643 53.245,162.054 L 56.591,163.543 C 56.894,162.615 57.775,162.052 58.845,161.989 L 58.845,160.639 L 59.85,160.639 L 59.85,161.989 C 60.542,162.022 61.301,162.212 62.05,162.792 L 60.9,163.974 C 60.475,163.673 59.94,163.461 59.404,163.461 C 58.968,163.461 58.355,163.595 58.355,164.14 C 58.355,164.224 58.382,164.298 58.433,164.363 L 59.552,164.861 L 60.31,165.199 C 60.794,165.416 61.256,165.621 61.715,165.825 L 66.199,167.822 C 66.346,167.234 66.421,166.609 66.421,165.948 C 66.421,163.949 65.72,162.258 64.319,160.873 C 62.931,159.47 61.244,158.77 59.258,158.77 z "
           id="path7701" />
      </g>
    </g>
    <rect
       x="388.55685"
       y="190.76308"
       style="fill:#ffffff;stroke:#000000"
       width="141.73199"
       height="141.73199"
       id="rect7705" />
    <g
       id="g2185"
       transform="matrix(0.5,0,0,0.5,205.92917,81.3743)">
      <path
         transform="matrix(-1,0,0,-1,845.71312,568.2049)"
         sodipodi:end="1.0471976"
         sodipodi:start="0"
         d="M 437.62833,216.63718 A 128.9852,128.9852 0 0 1 373.13572,328.34164 L 308.64313,216.63718 z"
         sodipodi:ry="128.9852"
         sodipodi:rx="128.9852"
         sodipodi:cy="216.63718"
         sodipodi:cx="308.64313"
         id="path3181"
         style="fill:#ff0000;fill-opacity:1;stroke:none;stroke-width:10;stroke-miterlimit:4;stroke-dasharray:none;stroke-opacity:1"
         sodipodi:type="arc" />
      <path
         transform="matrix(0.5,0.8660254,-0.8660254,0.5,570.35998,-24.044066)"
         sodipodi:end="1.0471976"
         sodipodi:start="0"
         d="M 437.62833,216.63718 A 128.9852,128.9852 0 0 1 373.13572,328.34164 L 308.64313,216.63718 z"
         sodipodi:ry="128.9852"
         sodipodi:rx="128.9852"
         sodipodi:cy="216.63718"
         sodipodi:cx="308.64313"
         id="path3183"
         style="fill:#000080;fill-opacity:1;stroke:none;stroke-width:10;stroke-miterlimit:4;stroke-dasharray:none;stroke-opacity:1"
         sodipodi:type="arc" />
    </g>
  </g>
</svg>
