<?xml version="1.0" encoding="UTF-8" standalone="no"?>
<!-- Created with Inkscape (http://www.inkscape.org/) -->
<svg
   xmlns:dc="http://purl.org/dc/elements/1.1/"
   xmlns:cc="http://web.resource.org/cc/"
   xmlns:rdf="http://www.w3.org/1999/02/22-rdf-syntax-ns#"
   xmlns:svg="http://www.w3.org/2000/svg"
   xmlns="http://www.w3.org/2000/svg"
   xmlns:sodipodi="http://sodipodi.sourceforge.net/DTD/sodipodi-0.dtd"
   xmlns:inkscape="http://www.inkscape.org/namespaces/inkscape"
   width="142.73199"
   height="163.41475"
   id="svg3038"
   sodipodi:version="0.32"
   inkscape:version="0.45.1"
   version="1.0"
   sodipodi:docbase="/Users/robmyers/Desktop/cc-ironies/final"
   sodipodi:docname="colour_the_hirst_dots.svg"
   inkscape:output_extension="org.inkscape.output.svg.inkscape">
  <defs
     id="defs3040" />
  <sodipodi:namedview
     id="base"
     pagecolor="#ffffff"
     bordercolor="#666666"
     borderopacity="1.0"
     gridtolerance="10000"
     guidetolerance="10"
     objecttolerance="10"
     inkscape:pageopacity="0.0"
     inkscape:pageshadow="2"
     inkscape:zoom="2.3131327"
     inkscape:cx="71.365997"
     inkscape:cy="81.707375"
     inkscape:document-units="px"
     inkscape:current-layer="layer1"
     inkscape:window-width="697"
     inkscape:window-height="581"
     inkscape:window-x="4"
     inkscape:window-y="46" />
  <metadata
     id="metadata3043">
    <rdf:RDF>
      <cc:Work
         rdf:about="">
        <dc:format>image/svg+xml</dc:format>
        <dc:type
           rdf:resource="http://purl.org/dc/dcmitype/StillImage" />
      </cc:Work>
    </rdf:RDF>
  </metadata>
  <g
     inkscape:label="Layer 1"
     inkscape:groupmode="layer"
     id="layer1"
     transform="translate(-914.34827,-307.76361)">
    <rect
       id="rect47"
       height="141.73199"
       width="141.73199"
       style="fill:#ffffff;stroke:#000000;overflow:visible"
       y="308.26361"
       x="914.84827" />
    <g
       transform="matrix(0.5,0,0,0.5,587.37677,378.00836)"
       style="overflow:visible"
       id="g49">
      <path
         d="M 656.515,154.98 L 742.062,155.13 C 743.257,155.13 744.328,154.952 744.328,157.517 L 744.223,185.693 L 654.362,185.693 L 654.362,157.415 C 654.357,156.15 654.478,154.98 656.515,154.98 z "
         style="fill:#aab2ab"
         id="path3817_4_" />
      <path
         id="path52"
         d="M 742.81,154.639 L 655.638,154.639 C 654.702,154.639 653.943,155.401 653.943,156.335 L 653.943,185.957 C 653.943,186.168 654.115,186.34 654.328,186.34 L 744.125,186.34 C 744.336,186.34 744.508,186.168 744.508,185.957 L 744.508,156.335 C 744.505,155.4 743.746,154.639 742.81,154.639 z M 655.638,155.406 L 742.81,155.406 C 743.324,155.406 743.742,155.823 743.742,156.336 C 743.742,156.336 743.742,168.259 743.742,176.882 L 681.435,176.882 C 679.152,181.011 674.751,183.817 669.703,183.817 C 664.652,183.817 660.254,181.014 657.971,176.882 L 654.711,176.882 C 654.711,168.259 654.711,156.336 654.711,156.336 C 654.708,155.823 655.126,155.406 655.638,155.406 z " />
      <g
         id="g5908_4_">
        <path
           d="M 679.998,169.396 C 680.002,175.08 675.396,179.689 669.715,179.691 C 664.031,179.697 659.422,175.088 659.418,169.409 C 659.418,169.404 659.418,169.4 659.418,169.396 C 659.414,163.71 664.02,159.103 669.701,159.099 C 675.385,159.095 679.994,163.702 679.998,169.38 C 679.998,169.389 679.998,169.393 679.998,169.396 z "
           style="fill:#ffffff"
           id="path5906_4_" />
        <g
           id="g5706_4_">
          <path
             id="path57"
             d="M 678.072,161.016 C 680.353,163.297 681.496,166.09 681.496,169.397 C 681.496,172.705 680.375,175.466 678.131,177.69 C 675.752,180.034 672.943,181.205 669.693,181.205 C 666.486,181.205 663.722,180.045 661.402,177.726 C 659.08,175.404 657.92,172.627 657.92,169.404 C 657.92,166.175 659.08,163.383 661.402,161.021 C 663.664,158.74 666.427,157.595 669.693,157.595 C 672.998,157.591 675.791,158.732 678.072,161.016 z M 662.935,162.55 C 661.007,164.498 660.042,166.781 660.042,169.399 C 660.042,172.018 660.997,174.284 662.905,176.19 C 664.815,178.098 667.089,179.053 669.721,179.053 C 672.36,179.053 674.655,178.089 676.602,176.16 C 678.454,174.369 679.375,172.115 679.375,169.398 C 679.375,166.703 678.436,164.414 676.555,162.535 C 674.674,160.654 672.401,159.715 669.721,159.715 C 667.048,159.715 664.787,160.661 662.935,162.55 z M 668.013,168.249 C 667.718,167.605 667.279,167.284 666.689,167.284 C 665.65,167.284 665.128,167.984 665.128,169.387 C 665.128,170.787 665.649,171.487 666.689,171.487 C 667.377,171.487 667.867,171.145 668.162,170.466 L 669.603,171.236 C 668.915,172.458 667.884,173.068 666.509,173.068 C 665.448,173.068 664.599,172.744 663.96,172.091 C 663.321,171.438 663.003,170.544 663.003,169.403 C 663.003,168.28 663.331,167.386 663.989,166.729 C 664.647,166.067 665.468,165.739 666.45,165.739 C 667.903,165.739 668.944,166.311 669.573,167.456 L 668.013,168.249 z M 674.798,168.249 C 674.501,167.605 674.069,167.284 673.499,167.284 C 672.438,167.284 671.907,167.984 671.907,169.387 C 671.907,170.787 672.438,171.487 673.499,171.487 C 674.188,171.487 674.669,171.145 674.944,170.466 L 676.419,171.236 C 675.731,172.458 674.702,173.068 673.329,173.068 C 672.267,173.068 671.423,172.744 670.786,172.091 C 670.145,171.441 669.829,170.544 669.829,169.403 C 669.829,168.28 670.153,167.386 670.802,166.729 C 671.448,166.067 672.273,165.739 673.273,165.739 C 674.722,165.739 675.761,166.311 676.388,167.456 L 674.798,168.249 z " />
        </g>
      </g>
      <g
         id="g126_4_">
        <circle
           sodipodi:ry="8.1040001"
           sodipodi:rx="8.1040001"
           sodipodi:cy="166.13"
           sodipodi:cx="693.00702"
           r="8.1040001"
           cy="166.13"
           cx="693.00702"
           style="fill:#ffffff"
           id="circle128_4_" />
        <g
           id="g130_4_">
          <path
             d="M 695.353,163.785 C 695.353,163.473 695.101,163.221 694.789,163.221 L 691.211,163.221 C 690.9,163.221 690.645,163.475 690.645,163.785 L 690.645,167.365 L 691.643,167.365 L 691.643,171.603 L 694.362,171.603 L 694.362,167.365 L 695.36,167.365 L 695.36,163.785 L 695.353,163.785 z "
             id="path132_4_" />
          <circle
             sodipodi:ry="1.225"
             sodipodi:rx="1.225"
             sodipodi:cy="161.524"
             sodipodi:cx="693"
             r="1.225"
             cy="161.524"
             cx="693"
             id="circle134_4_" />
        </g>
        <path
           id="path64"
           d="M 692.988,157.2 C 690.564,157.2 688.511,158.046 686.834,159.738 C 685.109,161.488 684.248,163.558 684.248,165.952 C 684.248,168.344 685.109,170.4 686.834,172.122 C 688.557,173.843 690.609,174.704 692.988,174.704 C 695.398,174.704 697.488,173.837 699.254,172.1 C 700.92,170.454 701.752,168.403 701.752,165.954 C 701.752,163.503 700.904,161.433 699.211,159.739 C 697.515,158.045 695.443,157.2 692.988,157.2 z M 693.009,158.775 C 694.995,158.775 696.683,159.474 698.07,160.876 C 699.472,162.262 700.174,163.954 700.174,165.952 C 700.174,167.965 699.488,169.635 698.115,170.962 C 696.67,172.393 694.969,173.108 693.01,173.108 C 691.053,173.108 689.365,172.401 687.949,170.985 C 686.533,169.571 685.824,167.893 685.824,165.956 C 685.824,164.019 686.541,162.321 687.97,160.88 C 689.343,159.475 691.025,158.775 693.009,158.775 z " />
      </g>
      <g
         style="enable-background:new"
         id="g138_4_">
        <path
           id="path67"
           d="M 690.47,179.357 C 690.708,179.357 690.925,179.378 691.122,179.419 C 691.317,179.46 691.487,179.527 691.628,179.625 C 691.767,179.721 691.876,179.85 691.954,180.006 C 692.03,180.164 692.069,180.36 692.069,180.593 C 692.069,180.846 692.007,181.057 691.891,181.225 C 691.782,181.393 691.612,181.53 691.383,181.636 C 691.695,181.725 691.922,181.88 692.074,182.104 C 692.226,182.327 692.303,182.591 692.303,182.905 C 692.303,183.159 692.254,183.378 692.158,183.559 C 692.058,183.747 691.928,183.895 691.762,184.009 C 691.596,184.126 691.408,184.213 691.198,184.27 C 690.983,184.329 690.764,184.356 690.542,184.356 L 688.114,184.356 L 688.114,179.358 L 690.47,179.358 L 690.47,179.357 z M 690.332,181.378 C 690.527,181.378 690.689,181.331 690.814,181.236 C 690.941,181.144 691.003,180.994 691.003,180.785 C 691.003,180.668 690.982,180.572 690.941,180.498 C 690.898,180.423 690.841,180.365 690.773,180.323 C 690.703,180.281 690.623,180.252 690.531,180.234 C 690.439,180.215 690.343,180.212 690.248,180.212 L 689.217,180.212 L 689.217,181.378 L 690.332,181.378 z M 690.394,183.5 C 690.501,183.5 690.605,183.489 690.705,183.468 C 690.803,183.447 690.889,183.412 690.965,183.364 C 691.039,183.312 691.098,183.248 691.143,183.163 C 691.188,183.079 691.209,182.973 691.209,182.843 C 691.209,182.586 691.137,182.405 690.992,182.293 C 690.846,182.184 690.656,182.129 690.418,182.129 L 689.217,182.129 L 689.217,183.5 L 690.394,183.5 z "
           style="fill:#ffffff" />
        <polygon
           points="692.503,179.357 693.738,179.357 694.908,181.331 696.072,179.357 697.294,179.357 695.441,182.436 695.441,184.355 694.337,184.355 694.337,182.409 692.503,179.357 "
           style="fill:#ffffff"
           id="path142_4_" />
      </g>
      <g
         style="enable-background:new"
         id="g144_4_">
        <path
           d="M 728.236,183.119 C 728.297,183.236 728.377,183.33 728.476,183.402 C 728.578,183.474 728.695,183.529 728.83,183.564 C 728.965,183.599 729.105,183.617 729.25,183.617 C 729.348,183.617 729.451,183.607 729.564,183.593 C 729.673,183.576 729.779,183.544 729.876,183.497 C 729.974,183.452 730.054,183.389 730.12,183.307 C 730.181,183.225 730.218,183.119 730.218,182.995 C 730.218,182.859 730.175,182.751 730.089,182.667 C 730.003,182.582 729.89,182.514 729.749,182.456 C 729.61,182.398 729.45,182.352 729.274,182.31 C 729.092,182.267 728.917,182.22 728.735,182.167 C 728.546,182.12 728.368,182.063 728.19,181.995 C 728.01,181.931 727.854,181.841 727.71,181.731 C 727.571,181.625 727.458,181.491 727.372,181.331 C 727.286,181.169 727.243,180.977 727.243,180.746 C 727.243,180.489 727.298,180.267 727.407,180.078 C 727.516,179.889 727.659,179.729 727.837,179.602 C 728.015,179.477 728.214,179.383 728.442,179.325 C 728.667,179.263 728.887,179.231 729.114,179.231 C 729.376,179.231 729.626,179.26 729.866,179.322 C 730.106,179.38 730.319,179.471 730.505,179.602 C 730.694,179.737 730.841,179.903 730.95,180.104 C 731.055,180.307 731.114,180.553 731.114,180.842 L 730.048,180.842 C 730.038,180.696 730.007,180.571 729.954,180.473 C 729.901,180.373 729.829,180.296 729.741,180.243 C 729.653,180.186 729.552,180.145 729.438,180.125 C 729.323,180.104 729.2,180.09 729.065,180.09 C 728.973,180.09 728.885,180.101 728.795,180.118 C 728.707,180.139 728.627,180.169 728.559,180.216 C 728.489,180.265 728.426,180.32 728.377,180.392 C 728.332,180.46 728.313,180.551 728.313,180.661 C 728.313,180.759 728.331,180.838 728.37,180.896 C 728.407,180.958 728.479,181.013 728.589,181.066 C 728.7,181.118 728.853,181.169 729.044,181.216 C 729.237,181.271 729.491,181.333 729.804,181.413 C 729.898,181.434 730.027,181.466 730.191,181.517 C 730.357,181.566 730.523,181.644 730.685,181.749 C 730.847,181.854 730.988,182 731.109,182.183 C 731.226,182.361 731.287,182.589 731.287,182.871 C 731.287,183.1 731.242,183.31 731.152,183.508 C 731.064,183.705 730.933,183.873 730.756,184.018 C 730.582,184.162 730.365,184.272 730.111,184.35 C 729.847,184.43 729.549,184.468 729.211,184.468 C 728.936,184.468 728.67,184.436 728.41,184.365 C 728.15,184.294 727.922,184.189 727.721,184.046 C 727.526,183.9 727.367,183.717 727.248,183.492 C 727.131,183.265 727.074,183.002 727.08,182.691 L 728.144,182.691 C 728.144,182.859 728.173,183.002 728.236,183.119 z "
           style="fill:#ffffff"
           id="path146_4_" />
        <path
           id="path72"
           d="M 734.427,179.357 L 736.296,184.355 L 735.155,184.355 L 734.776,183.242 L 732.907,183.242 L 732.511,184.355 L 731.407,184.355 L 733.298,179.357 L 734.427,179.357 z M 734.492,182.421 L 733.863,180.588 L 733.845,180.588 L 733.197,182.421 L 734.492,182.421 z "
           style="fill:#ffffff" />
      </g>
      <g
         style="enable-background:new"
         id="g150_4_">
        <polygon
           points="708.671,179.357 710.759,182.709 710.771,182.709 710.771,179.357 711.802,179.357 711.802,184.355 710.705,184.355 708.625,181.008 708.611,181.008 708.611,184.355 707.58,184.355 707.58,179.357 708.671,179.357 "
           style="fill:#ffffff"
           id="path152_4_" />
        <path
           d="M 715.974,180.688 C 715.912,180.584 715.829,180.494 715.73,180.415 C 715.632,180.336 715.523,180.27 715.398,180.227 C 715.275,180.184 715.144,180.164 715.009,180.164 C 714.761,180.164 714.55,180.211 714.378,180.31 C 714.204,180.406 714.066,180.534 713.958,180.693 C 713.853,180.855 713.772,181.04 713.724,181.245 C 713.676,181.45 713.652,181.662 713.652,181.882 C 713.652,182.091 713.675,182.296 713.724,182.493 C 713.773,182.691 713.853,182.87 713.958,183.027 C 714.065,183.187 714.204,183.312 714.378,183.411 C 714.55,183.507 714.761,183.555 715.009,183.555 C 715.345,183.555 715.609,183.452 715.796,183.245 C 715.985,183.04 716.103,182.767 716.144,182.433 L 717.206,182.433 C 717.179,182.745 717.106,183.029 716.989,183.281 C 716.874,183.535 716.718,183.749 716.528,183.927 C 716.337,184.106 716.112,184.24 715.854,184.334 C 715.594,184.428 715.315,184.475 715.002,184.475 C 714.619,184.475 714.275,184.41 713.971,184.276 C 713.664,184.143 713.41,183.962 713.2,183.725 C 712.991,183.494 712.829,183.216 712.716,182.903 C 712.607,182.591 712.548,182.251 712.548,181.882 C 712.548,181.509 712.607,181.162 712.716,180.842 C 712.829,180.524 712.991,180.242 713.2,180.005 C 713.411,179.768 713.669,179.581 713.971,179.443 C 714.28,179.306 714.619,179.242 715.002,179.242 C 715.277,179.242 715.539,179.281 715.783,179.359 C 716.027,179.439 716.248,179.552 716.441,179.708 C 716.634,179.859 716.795,180.048 716.92,180.271 C 717.045,180.496 717.125,180.75 717.158,181.042 L 716.096,181.042 C 716.083,180.909 716.041,180.792 715.974,180.688 z "
           style="fill:#ffffff"
           id="path154_4_" />
      </g>
      <g
         id="g6332_5_">
        <path
           d="M 740.416,165.947 C 740.42,170.357 736.846,173.937 732.434,173.941 C 728.028,173.943 724.448,170.371 724.446,165.958 C 724.446,165.955 724.446,165.95 724.446,165.947 C 724.44,161.535 728.012,157.956 732.425,157.952 C 736.837,157.949 740.417,161.523 740.419,165.933 C 740.416,165.939 740.416,165.941 740.416,165.947 z "
           style="fill:#ffffff"
           id="path6334_5_" />
        <g
           id="g6336_5_">
          <path
             id="path80"
             d="M 732.371,157.195 C 729.947,157.195 727.892,158.042 726.217,159.732 C 724.492,161.482 723.631,163.554 723.631,165.947 C 723.631,168.339 724.492,170.394 726.217,172.116 C 727.944,173.838 729.99,174.699 732.371,174.699 C 734.781,174.699 736.869,173.831 738.637,172.095 C 740.301,170.445 741.135,168.396 741.135,165.947 C 741.135,163.497 740.287,161.425 738.592,159.732 C 736.898,158.041 734.824,157.195 732.371,157.195 z M 732.392,158.77 C 734.378,158.77 736.066,159.47 737.453,160.874 C 738.853,162.259 739.557,163.95 739.557,165.949 C 739.557,167.962 738.869,169.632 737.496,170.96 C 736.051,172.391 734.35,173.106 732.392,173.106 C 730.433,173.106 728.747,172.399 727.331,170.985 C 725.915,169.569 725.206,167.893 725.206,165.953 C 725.206,164.013 725.921,162.321 727.351,160.878 C 728.726,159.471 730.406,158.77 732.392,158.77 z " />
          <path
             d="M 728.492,164.711 C 728.842,162.509 730.388,161.332 732.334,161.332 C 735.127,161.332 736.83,163.359 736.83,166.062 C 736.83,168.701 735.018,170.75 732.289,170.75 C 730.412,170.75 728.732,169.596 728.426,167.327 L 730.631,167.327 C 730.697,168.504 731.461,168.919 732.553,168.919 C 733.795,168.919 734.604,167.764 734.604,165.998 C 734.604,164.144 733.911,163.163 732.596,163.163 C 731.635,163.163 730.807,163.512 730.631,164.711 L 731.277,164.707 L 729.541,166.443 L 727.807,164.707 L 728.492,164.711 z "
             id="path6340_5_" />
        </g>
      </g>
      <g
         id="g6361_5_">
        <path
           d="M 720.832,165.947 C 720.836,170.443 717.193,174.091 712.697,174.093 C 708.201,174.096 704.552,170.453 704.551,165.957 C 704.551,165.953 704.551,165.948 704.551,165.943 C 704.547,161.448 708.194,157.798 712.686,157.797 C 717.182,157.795 720.832,161.44 720.832,165.936 C 720.832,165.938 720.832,165.943 720.832,165.947 z "
           style="fill:#ffffff"
           id="path6363_5_" />
        <path
           id="path85"
           d="M 712.679,157.195 C 715.132,157.195 717.204,158.042 718.9,159.732 C 720.595,161.421 721.443,163.497 721.443,165.947 C 721.443,168.396 720.609,170.445 718.945,172.095 C 717.175,173.827 715.09,174.699 712.679,174.699 C 710.298,174.699 708.245,173.838 706.525,172.116 C 704.8,170.396 703.937,168.339 703.937,165.947 C 703.937,163.554 704.8,161.482 706.525,159.732 C 708.205,158.042 710.253,157.195 712.679,157.195 z M 705.908,163.596 C 705.646,164.334 705.515,165.117 705.515,165.95 C 705.515,167.888 706.224,169.565 707.64,170.979 C 709.056,172.393 710.744,173.1 712.701,173.1 C 714.658,173.1 716.361,172.387 717.805,170.956 C 718.289,170.488 718.688,169.978 719,169.426 L 715.701,167.956 C 715.476,169.066 714.488,169.816 713.293,169.904 L 713.293,171.254 L 712.287,171.254 L 712.287,169.904 C 711.307,169.892 710.355,169.491 709.631,168.855 L 710.836,167.64 C 711.418,168.187 711.998,168.431 712.791,168.431 C 713.305,168.431 713.873,168.23 713.873,167.562 C 713.873,167.326 713.781,167.16 713.637,167.037 L 712.803,166.665 L 711.764,166.203 C 711.25,165.974 710.819,165.78 710.377,165.586 L 705.908,163.596 z M 712.701,158.77 C 710.715,158.77 709.037,159.47 707.664,160.874 C 707.291,161.25 706.965,161.645 706.689,162.059 L 710.035,163.545 C 710.338,162.617 711.219,162.055 712.289,161.991 L 712.289,160.638 L 713.293,160.638 L 713.293,161.991 C 713.986,162.021 714.744,162.214 715.494,162.794 L 714.344,163.979 C 713.918,163.675 713.383,163.463 712.848,163.463 C 712.412,163.463 711.799,163.6 711.799,164.145 C 711.799,164.229 711.826,164.3 711.877,164.368 L 712.996,164.866 L 713.754,165.204 C 714.238,165.421 714.699,165.626 715.158,165.83 L 719.642,167.827 C 719.788,167.239 719.865,166.614 719.865,165.953 C 719.865,163.954 719.164,162.263 717.761,160.878 C 716.375,159.471 714.687,158.77 712.701,158.77 z " />
      </g>
    </g>
    <path
       id="path379"
       d="M 952.7033,420.31561 C 948.2403,420.31561 944.6233,423.93161 944.6233,428.39461 C 944.6233,432.85561 948.2403,436.47261 952.7033,436.47261 C 957.1643,436.47261 960.7813,432.85561 960.7813,428.39461 C 960.7813,423.93161 957.1643,420.31561 952.7033,420.31561 z M 928.4673,347.60761 C 924.0043,347.60761 920.3883,351.22461 920.3883,355.68661 C 920.3883,360.14761 924.0043,363.76561 928.4673,363.76561 C 932.9283,363.76561 936.5453,360.14861 936.5453,355.68661 C 936.5453,351.22361 932.9283,347.60761 928.4673,347.60761 z M 928.4673,323.37061 C 924.0043,323.37061 920.3883,326.98761 920.3883,331.44961 C 920.3883,335.91061 924.0043,339.52861 928.4673,339.52861 C 932.9283,339.52861 936.5453,335.91161 936.5453,331.44961 C 936.5453,326.98761 932.9283,323.37061 928.4673,323.37061 z M 952.7033,396.07961 C 948.2403,396.07961 944.6233,399.69561 944.6233,404.15861 C 944.6233,408.61961 948.2403,412.23661 952.7033,412.23661 C 957.1643,412.23661 960.7813,408.61961 960.7813,404.15861 C 960.7813,399.69561 957.1643,396.07961 952.7033,396.07961 z M 952.7033,323.37061 C 948.2403,323.37061 944.6233,326.98761 944.6233,331.44961 C 944.6233,335.91061 948.2403,339.52861 952.7033,339.52861 C 957.1643,339.52861 960.7813,335.91161 960.7813,331.44961 C 960.7813,326.98761 957.1643,323.37061 952.7033,323.37061 z M 952.7033,371.84361 C 948.2403,371.84361 944.6233,375.46061 944.6233,379.92261 C 944.6233,384.38461 948.2403,388.00161 952.7033,388.00161 C 957.1643,388.00161 960.7813,384.38461 960.7813,379.92261 C 960.7813,375.46061 957.1643,371.84361 952.7033,371.84361 z M 952.7033,347.60761 C 948.2403,347.60761 944.6233,351.22461 944.6233,355.68661 C 944.6233,360.14761 948.2403,363.76561 952.7033,363.76561 C 957.1643,363.76561 960.7813,360.14861 960.7813,355.68661 C 960.7813,351.22361 957.1643,347.60761 952.7033,347.60761 z M 928.4673,396.07961 C 924.0043,396.07961 920.3883,399.69561 920.3883,404.15861 C 920.3883,408.61961 924.0043,412.23661 928.4673,412.23661 C 932.9283,412.23661 936.5453,408.61961 936.5453,404.15861 C 936.5453,399.69561 932.9283,396.07961 928.4673,396.07961 z M 1041.5693,355.68561 C 1041.5693,360.14661 1045.1853,363.76461 1049.6473,363.76461 C 1049.7193,363.76461 1049.7903,363.75561 1049.8613,363.75361 L 1049.8613,347.61761 C 1049.7903,347.61661 1049.7193,347.60761 1049.6473,347.60761 C 1045.1853,347.60761 1041.5693,351.22361 1041.5693,355.68561 z M 1049.6473,323.37061 C 1045.1853,323.37061 1041.5693,326.98761 1041.5693,331.44961 C 1041.5693,335.91061 1045.1853,339.52861 1049.6473,339.52861 C 1049.7193,339.52861 1049.7903,339.51961 1049.8613,339.51861 L 1049.8613,323.38161 C 1049.7893,323.37961 1049.7193,323.37061 1049.6473,323.37061 z M 928.4673,371.84361 C 924.0043,371.84361 920.3883,375.46061 920.3883,379.92261 C 920.3883,384.38461 924.0043,388.00161 928.4673,388.00161 C 932.9283,388.00161 936.5453,384.38461 936.5453,379.92261 C 936.5453,375.46061 932.9283,371.84361 928.4673,371.84361 z M 1041.5693,379.92161 C 1041.5693,384.38361 1045.1853,388.00061 1049.6473,388.00061 C 1049.7193,388.00061 1049.7903,387.99161 1049.8613,387.98961 L 1049.8613,371.85361 C 1049.7903,371.85161 1049.7193,371.84261 1049.6473,371.84261 C 1045.1853,371.84361 1041.5693,375.45961 1041.5693,379.92161 z M 976.9393,420.31561 C 972.4773,420.31561 968.8603,423.93161 968.8603,428.39461 C 968.8603,432.85561 972.4773,436.47261 976.9393,436.47261 C 981.4013,436.47261 985.0183,432.85561 985.0183,428.39461 C 985.0183,423.93161 981.4013,420.31561 976.9393,420.31561 z M 928.4673,420.31561 C 924.0043,420.31561 920.3883,423.93161 920.3883,428.39461 C 920.3883,432.85561 924.0043,436.47261 928.4673,436.47261 C 932.9283,436.47261 936.5453,432.85561 936.5453,428.39461 C 936.5453,423.93161 932.9283,420.31561 928.4673,420.31561 z M 1041.5693,404.15861 C 1041.5693,408.61961 1045.1853,412.23661 1049.6473,412.23661 C 1049.7193,412.23661 1049.7903,412.22761 1049.8613,412.22561 L 1049.8613,396.09061 C 1049.7903,396.08861 1049.7193,396.07961 1049.6473,396.07961 C 1045.1853,396.07961 1041.5693,399.69561 1041.5693,404.15861 z M 976.9393,396.07961 C 972.4773,396.07961 968.8603,399.69561 968.8603,404.15861 C 968.8603,408.61961 972.4773,412.23661 976.9393,412.23661 C 981.4013,412.23661 985.0183,408.61961 985.0183,404.15861 C 985.0183,399.69561 981.4013,396.07961 976.9393,396.07961 z M 1025.4103,371.84361 C 1020.9483,371.84361 1017.3323,375.46061 1017.3323,379.92261 C 1017.3323,384.38461 1020.9483,388.00161 1025.4103,388.00161 C 1029.8713,388.00161 1033.4903,384.38461 1033.4903,379.92261 C 1033.4903,375.46061 1029.8713,371.84361 1025.4103,371.84361 z M 1025.4103,396.07961 C 1020.9483,396.07961 1017.3323,399.69561 1017.3323,404.15861 C 1017.3323,408.61961 1020.9483,412.23661 1025.4103,412.23661 C 1029.8713,412.23661 1033.4903,408.61961 1033.4903,404.15861 C 1033.4903,399.69561 1029.8713,396.07961 1025.4103,396.07961 z M 1025.4103,420.31561 C 1020.9483,420.31561 1017.3323,423.93161 1017.3323,428.39461 C 1017.3323,432.85561 1020.9483,436.47261 1025.4103,436.47261 C 1029.8713,436.47261 1033.4903,432.85561 1033.4903,428.39461 C 1033.4903,423.93161 1029.8713,420.31561 1025.4103,420.31561 z M 1041.5693,428.39461 C 1041.5693,432.85561 1045.1853,436.47261 1049.6473,436.47261 C 1049.7193,436.47261 1049.7903,436.46361 1049.8613,436.46161 L 1049.8613,420.32561 C 1049.7903,420.32361 1049.7193,420.31461 1049.6473,420.31461 C 1045.1853,420.31561 1041.5693,423.93161 1041.5693,428.39461 z M 1025.4103,347.60761 C 1020.9483,347.60761 1017.3323,351.22461 1017.3323,355.68661 C 1017.3323,360.14761 1020.9483,363.76561 1025.4103,363.76561 C 1029.8713,363.76561 1033.4903,360.14861 1033.4903,355.68661 C 1033.4903,351.22361 1029.8713,347.60761 1025.4103,347.60761 z M 1001.1753,323.37061 C 996.7133,323.37061 993.0963,326.98761 993.0963,331.44961 C 993.0963,335.91061 996.7133,339.52861 1001.1753,339.52861 C 1005.6373,339.52861 1009.2543,335.91161 1009.2543,331.44961 C 1009.2543,326.98761 1005.6373,323.37061 1001.1753,323.37061 z M 1025.4103,323.37061 C 1020.9483,323.37061 1017.3323,326.98761 1017.3323,331.44961 C 1017.3323,335.91061 1020.9483,339.52861 1025.4103,339.52861 C 1029.8713,339.52861 1033.4903,335.91161 1033.4903,331.44961 C 1033.4903,326.98761 1029.8713,323.37061 1025.4103,323.37061 z M 1001.1753,371.84361 C 996.7133,371.84361 993.0963,375.46061 993.0963,379.92261 C 993.0963,384.38461 996.7133,388.00161 1001.1753,388.00161 C 1005.6373,388.00161 1009.2543,384.38461 1009.2543,379.92261 C 1009.2543,375.46061 1005.6373,371.84361 1001.1753,371.84361 z M 1001.1753,420.31561 C 996.7133,420.31561 993.0963,423.93161 993.0963,428.39461 C 993.0963,432.85561 996.7133,436.47261 1001.1753,436.47261 C 1005.6373,436.47261 1009.2543,432.85561 1009.2543,428.39461 C 1009.2543,423.93161 1005.6373,420.31561 1001.1753,420.31561 z M 976.9393,323.37061 C 972.4773,323.37061 968.8603,326.98761 968.8603,331.44961 C 968.8603,335.91061 972.4773,339.52861 976.9393,339.52861 C 981.4013,339.52861 985.0183,335.91161 985.0183,331.44961 C 985.0183,326.98761 981.4013,323.37061 976.9393,323.37061 z M 976.9393,347.60761 C 972.4773,347.60761 968.8603,351.22461 968.8603,355.68661 C 968.8603,360.14761 972.4773,363.76561 976.9393,363.76561 C 981.4013,363.76561 985.0183,360.14861 985.0183,355.68661 C 985.0183,351.22361 981.4013,347.60761 976.9393,347.60761 z M 976.9393,371.84361 C 972.4773,371.84361 968.8603,375.46061 968.8603,379.92261 C 968.8603,384.38461 972.4773,388.00161 976.9393,388.00161 C 981.4013,388.00161 985.0183,384.38461 985.0183,379.92261 C 985.0183,375.46061 981.4013,371.84361 976.9393,371.84361 z M 1001.1753,347.60761 C 996.7133,347.60761 993.0963,351.22461 993.0963,355.68661 C 993.0963,360.14761 996.7133,363.76561 1001.1753,363.76561 C 1005.6373,363.76561 1009.2543,360.14861 1009.2543,355.68661 C 1009.2543,351.22361 1005.6373,347.60761 1001.1753,347.60761 z M 1001.1753,396.07961 C 996.7133,396.07961 993.0963,399.69561 993.0963,404.15861 C 993.0963,408.61961 996.7133,412.23661 1001.1753,412.23661 C 1005.6373,412.23661 1009.2543,408.61961 1009.2543,404.15861 C 1009.2543,399.69561 1005.6373,396.07961 1001.1753,396.07961 z "
       style="fill:#ffffff;stroke:#000000;stroke-width:0.56690001;overflow:visible" />
  </g>
</svg>
