<?xml version="1.0" encoding="UTF-8" standalone="no"?>
<!-- Created with Inkscape (http://www.inkscape.org/) -->
<svg
   xmlns:dc="http://purl.org/dc/elements/1.1/"
   xmlns:cc="http://web.resource.org/cc/"
   xmlns:rdf="http://www.w3.org/1999/02/22-rdf-syntax-ns#"
   xmlns:svg="http://www.w3.org/2000/svg"
   xmlns="http://www.w3.org/2000/svg"
   xmlns:sodipodi="http://sodipodi.sourceforge.net/DTD/sodipodi-0.dtd"
   xmlns:inkscape="http://www.inkscape.org/namespaces/inkscape"
   width="142.73199"
   height="163.41476"
   id="svg2865"
   sodipodi:version="0.32"
   inkscape:version="0.45.1"
   version="1.0"
   sodipodi:docbase="/Users/robmyers/Desktop/cc-ironies/final"
   sodipodi:docname="credit_card_numbers.svg"
   inkscape:output_extension="org.inkscape.output.svg.inkscape">
  <defs
     id="defs2867" />
  <sodipodi:namedview
     id="base"
     pagecolor="#ffffff"
     bordercolor="#666666"
     borderopacity="1.0"
     gridtolerance="10000"
     guidetolerance="10"
     objecttolerance="10"
     inkscape:pageopacity="0.0"
     inkscape:pageshadow="2"
     inkscape:zoom="2.3131325"
     inkscape:cx="71.365997"
     inkscape:cy="81.707382"
     inkscape:document-units="px"
     inkscape:current-layer="layer1"
     inkscape:window-width="697"
     inkscape:window-height="581"
     inkscape:window-x="87"
     inkscape:window-y="28" />
  <metadata
     id="metadata2870">
    <rdf:RDF>
      <cc:Work
         rdf:about="">
        <dc:format>image/svg+xml</dc:format>
        <dc:type
           rdf:resource="http://purl.org/dc/dcmitype/StillImage" />
      </cc:Work>
    </rdf:RDF>
  </metadata>
  <g
     inkscape:label="Layer 1"
     inkscape:groupmode="layer"
     id="layer1"
     transform="translate(-317.20544,-439.19217)">
    <rect
       id="rect7"
       height="141.73199"
       width="141.73199"
       style="fill:#ffffff;stroke:#000000;overflow:visible"
       y="439.69217"
       x="317.70544" />
    <g
       transform="matrix(0.5,0,0,0.5,235.27494,509.43693)"
       style="overflow:visible"
       id="g9">
      <path
         d="M 166.433,154.98 L 251.981,155.13 C 253.176,155.13 254.245,154.952 254.245,157.517 L 254.14,185.693 L 164.275,185.693 L 164.275,157.415 C 164.274,156.15 164.396,154.98 166.433,154.98 z "
         style="fill:#aab2ab"
         id="path3817_1_" />
      <path
         id="path12"
         d="M 252.729,154.639 L 165.557,154.639 C 164.622,154.639 163.861,155.401 163.861,156.335 L 163.861,185.957 C 163.861,186.168 164.033,186.34 164.244,186.34 L 254.041,186.34 C 254.252,186.34 254.424,186.168 254.424,185.957 L 254.424,156.335 C 254.424,155.4 253.664,154.639 252.729,154.639 z M 165.557,155.406 L 252.729,155.406 C 253.242,155.406 253.659,155.823 253.659,156.336 C 253.659,156.336 253.659,168.259 253.659,176.882 L 191.353,176.882 C 189.07,181.011 184.669,183.817 179.62,183.817 C 174.569,183.817 170.171,181.014 167.889,176.882 L 164.628,176.882 C 164.628,168.259 164.628,156.336 164.628,156.336 C 164.627,155.823 165.044,155.406 165.557,155.406 z " />
      <g
         id="g5908_1_">
        <path
           d="M 189.915,169.396 C 189.919,175.08 185.314,179.689 179.631,179.691 C 173.948,179.697 169.339,175.088 169.335,169.409 C 169.335,169.404 169.335,169.4 169.335,169.396 C 169.331,163.71 173.936,159.103 179.619,159.099 C 185.303,159.095 189.912,163.702 189.915,169.38 C 189.915,169.389 189.915,169.393 189.915,169.396 z "
           style="fill:#ffffff"
           id="path5906_1_" />
        <g
           id="g5706_1_">
          <path
             id="path17"
             d="M 187.99,161.016 C 190.272,163.297 191.413,166.09 191.413,169.397 C 191.413,172.705 190.292,175.466 188.049,177.69 C 185.669,180.034 182.857,181.205 179.611,181.205 C 176.404,181.205 173.64,180.045 171.32,177.726 C 168.998,175.404 167.838,172.627 167.838,169.404 C 167.838,166.175 168.998,163.383 171.32,161.021 C 173.582,158.74 176.345,157.595 179.611,157.595 C 182.915,157.591 185.708,158.732 187.99,161.016 z M 172.854,162.55 C 170.925,164.498 169.96,166.781 169.96,169.399 C 169.96,172.018 170.915,174.284 172.824,176.19 C 174.734,178.098 177.007,179.053 179.644,179.053 C 182.281,179.053 184.574,178.089 186.523,176.16 C 188.373,174.369 189.298,172.115 189.298,169.398 C 189.298,166.703 188.358,164.414 186.477,162.535 C 184.598,160.654 182.32,159.715 179.644,159.715 C 176.968,159.715 174.704,160.661 172.854,162.55 z M 177.931,168.249 C 177.636,167.605 177.196,167.284 176.607,167.284 C 175.567,167.284 175.046,167.984 175.046,169.387 C 175.046,170.787 175.567,171.487 176.607,171.487 C 177.294,171.487 177.785,171.145 178.079,170.466 L 179.521,171.236 C 178.833,172.458 177.802,173.068 176.427,173.068 C 175.366,173.068 174.517,172.744 173.879,172.091 C 173.24,171.443 172.921,170.544 172.921,169.403 C 172.921,168.28 173.25,167.386 173.908,166.729 C 174.565,166.067 175.386,165.739 176.368,165.739 C 177.822,165.739 178.862,166.311 179.492,167.456 L 177.931,168.249 z M 184.716,168.249 C 184.421,167.605 183.987,167.284 183.418,167.284 C 182.356,167.284 181.825,167.984 181.825,169.387 C 181.825,170.787 182.356,171.487 183.418,171.487 C 184.106,171.487 184.588,171.145 184.863,170.466 L 186.337,171.236 C 185.651,172.458 184.621,173.068 183.249,173.068 C 182.19,173.068 181.342,172.744 180.705,172.091 C 180.068,171.443 179.749,170.544 179.749,169.403 C 179.749,168.28 180.073,167.386 180.721,166.729 C 181.367,166.067 182.191,165.739 183.191,165.739 C 184.642,165.739 185.681,166.311 186.308,167.456 L 184.716,168.249 z " />
        </g>
      </g>
      <g
         id="g126_1_">
        <circle
           sodipodi:ry="8.1040001"
           sodipodi:rx="8.1040001"
           sodipodi:cy="166.13"
           sodipodi:cx="202.92599"
           r="8.1040001"
           cy="166.13"
           cx="202.92599"
           style="fill:#ffffff"
           id="circle128_1_" />
        <g
           id="g130_1_">
          <path
             d="M 205.272,163.785 C 205.272,163.473 205.019,163.221 204.707,163.221 L 201.128,163.221 C 200.816,163.221 200.563,163.475 200.563,163.785 L 200.563,167.365 L 201.561,167.365 L 201.561,171.603 L 204.274,171.603 L 204.274,167.365 L 205.273,167.365 L 205.272,163.785 L 205.272,163.785 z "
             id="path132_1_" />
          <circle
             sodipodi:ry="1.225"
             sodipodi:rx="1.225"
             sodipodi:cy="161.524"
             sodipodi:cx="202.91701"
             r="1.225"
             cy="161.524"
             cx="202.91701"
             id="circle134_1_" />
        </g>
        <path
           id="path24"
           d="M 202.906,157.2 C 200.482,157.2 198.43,158.046 196.751,159.738 C 195.027,161.488 194.166,163.558 194.166,165.952 C 194.166,168.344 195.027,170.4 196.751,172.122 C 198.475,173.843 200.526,174.704 202.906,174.704 C 205.316,174.704 207.405,173.837 209.172,172.1 C 210.837,170.454 211.669,168.403 211.669,165.954 C 211.669,163.503 210.822,161.433 209.128,159.739 C 207.434,158.045 205.36,157.2 202.906,157.2 z M 202.928,158.775 C 204.914,158.775 206.601,159.474 207.988,160.876 C 209.391,162.262 210.092,163.954 210.092,165.952 C 210.092,167.965 209.406,169.635 208.032,170.962 C 206.587,172.393 204.885,173.108 202.928,173.108 C 200.97,173.108 199.283,172.401 197.867,170.985 C 196.45,169.571 195.742,167.893 195.742,165.956 C 195.742,164.019 196.458,162.321 197.888,160.88 C 199.263,159.475 200.942,158.775 202.928,158.775 z " />
      </g>
      <g
         style="enable-background:new"
         id="g138_1_">
        <path
           id="path27"
           d="M 200.389,179.357 C 200.627,179.357 200.845,179.378 201.041,179.419 C 201.237,179.46 201.406,179.527 201.546,179.625 C 201.686,179.721 201.794,179.85 201.872,180.006 C 201.949,180.164 201.987,180.36 201.987,180.593 C 201.987,180.846 201.93,181.057 201.815,181.225 C 201.701,181.393 201.531,181.53 201.307,181.636 C 201.616,181.725 201.847,181.88 201.999,182.104 C 202.151,182.327 202.228,182.591 202.228,182.905 C 202.228,183.159 202.179,183.378 202.081,183.559 C 201.983,183.747 201.85,183.895 201.684,184.009 C 201.518,184.126 201.329,184.213 201.117,184.27 C 200.904,184.329 200.685,184.356 200.461,184.356 L 198.033,184.356 L 198.033,179.358 L 200.389,179.358 L 200.389,179.357 z M 200.249,181.378 C 200.445,181.378 200.606,181.331 200.732,181.236 C 200.859,181.144 200.921,180.994 200.921,180.785 C 200.921,180.668 200.9,180.572 200.859,180.498 C 200.816,180.423 200.76,180.365 200.69,180.323 C 200.62,180.281 200.54,180.252 200.449,180.234 C 200.357,180.215 200.262,180.212 200.165,180.212 L 199.135,180.212 L 199.135,181.378 L 200.249,181.378 z M 200.313,183.5 C 200.42,183.5 200.523,183.489 200.622,183.468 C 200.72,183.447 200.807,183.412 200.882,183.364 C 200.957,183.312 201.016,183.248 201.061,183.163 C 201.105,183.079 201.127,182.973 201.127,182.843 C 201.127,182.586 201.055,182.405 200.91,182.293 C 200.765,182.181 200.573,182.129 200.335,182.129 L 199.135,182.129 L 199.135,183.5 L 200.313,183.5 z "
           style="fill:#ffffff" />
        <polygon
           points="202.422,179.357 203.654,179.357 204.825,181.331 205.989,179.357 207.214,179.357 205.358,182.436 205.358,184.355 204.256,184.355 204.256,182.409 202.422,179.357 "
           style="fill:#ffffff"
           id="path142_1_" />
      </g>
      <g
         style="enable-background:new"
         id="g144_1_">
        <path
           d="M 238.154,183.119 C 238.215,183.236 238.295,183.33 238.395,183.402 C 238.495,183.474 238.612,183.529 238.748,183.564 C 238.883,183.599 239.022,183.617 239.167,183.617 C 239.265,183.617 239.369,183.607 239.481,183.593 C 239.592,183.576 239.697,183.544 239.795,183.497 C 239.892,183.452 239.973,183.389 240.039,183.307 C 240.103,183.225 240.137,183.119 240.137,182.995 C 240.137,182.859 240.094,182.751 240.007,182.667 C 239.921,182.582 239.808,182.514 239.668,182.456 C 239.528,182.398 239.369,182.352 239.193,182.31 C 239.015,182.267 238.836,182.22 238.654,182.167 C 238.467,182.12 238.286,182.063 238.109,181.995 C 237.932,181.931 237.773,181.841 237.633,181.731 C 237.493,181.625 237.38,181.491 237.294,181.331 C 237.208,181.169 237.165,180.977 237.165,180.746 C 237.165,180.489 237.22,180.267 237.329,180.078 C 237.438,179.889 237.582,179.729 237.759,179.602 C 237.937,179.477 238.137,179.383 238.361,179.325 C 238.585,179.263 238.809,179.231 239.033,179.231 C 239.294,179.231 239.545,179.26 239.785,179.322 C 240.024,179.38 240.238,179.471 240.424,179.602 C 240.612,179.737 240.759,179.903 240.869,180.104 C 240.978,180.307 241.033,180.553 241.033,180.842 L 239.967,180.842 C 239.957,180.696 239.926,180.571 239.873,180.473 C 239.819,180.373 239.748,180.296 239.66,180.243 C 239.572,180.186 239.471,180.145 239.357,180.125 C 239.244,180.104 239.119,180.09 238.984,180.09 C 238.896,180.09 238.807,180.101 238.719,180.118 C 238.63,180.139 238.551,180.169 238.479,180.216 C 238.407,180.265 238.348,180.32 238.301,180.392 C 238.255,180.46 238.232,180.551 238.232,180.661 C 238.232,180.759 238.25,180.838 238.288,180.896 C 238.325,180.958 238.398,181.013 238.508,181.066 C 238.618,181.118 238.77,181.169 238.963,181.216 C 239.156,181.271 239.409,181.333 239.721,181.413 C 239.815,181.434 239.944,181.466 240.109,181.517 C 240.275,181.566 240.44,181.644 240.602,181.749 C 240.765,181.854 240.906,182 241.026,182.183 C 241.144,182.361 241.204,182.589 241.204,182.871 C 241.204,183.1 241.159,183.31 241.07,183.508 C 240.981,183.705 240.85,183.873 240.674,184.018 C 240.499,184.162 240.282,184.272 240.024,184.35 C 239.765,184.43 239.465,184.468 239.124,184.468 C 238.849,184.468 238.583,184.436 238.323,184.365 C 238.063,184.297 237.835,184.189 237.637,184.046 C 237.439,183.9 237.282,183.717 237.164,183.492 C 237.046,183.265 236.99,183.002 236.996,182.691 L 238.062,182.691 C 238.063,182.859 238.092,183.002 238.154,183.119 z "
           style="fill:#ffffff"
           id="path146_1_" />
        <path
           id="path32"
           d="M 244.346,179.357 L 246.215,184.355 L 245.074,184.355 L 244.695,183.242 L 242.826,183.242 L 242.433,184.355 L 241.328,184.355 L 243.219,179.357 L 244.346,179.357 z M 244.409,182.421 L 243.78,180.588 L 243.764,180.588 L 243.114,182.421 L 244.409,182.421 z "
           style="fill:#ffffff" />
      </g>
      <g
         style="enable-background:new"
         id="g150_1_">
        <polygon
           points="218.59,179.357 220.678,182.709 220.69,182.709 220.69,179.357 221.721,179.357 221.721,184.355 220.622,184.355 218.542,181.008 218.528,181.008 218.528,184.355 217.497,184.355 217.497,179.357 218.59,179.357 "
           style="fill:#ffffff"
           id="path152_1_" />
        <path
           d="M 225.893,180.688 C 225.829,180.584 225.747,180.494 225.648,180.415 C 225.55,180.336 225.44,180.27 225.316,180.227 C 225.192,180.184 225.062,180.164 224.927,180.164 C 224.68,180.164 224.469,180.211 224.297,180.31 C 224.123,180.406 223.984,180.534 223.877,180.693 C 223.77,180.855 223.69,181.04 223.642,181.245 C 223.594,181.45 223.569,181.662 223.569,181.882 C 223.569,182.091 223.593,182.296 223.642,182.493 C 223.691,182.691 223.77,182.87 223.877,183.027 C 223.983,183.187 224.123,183.312 224.297,183.411 C 224.469,183.507 224.68,183.555 224.927,183.555 C 225.263,183.555 225.526,183.452 225.715,183.245 C 225.903,183.04 226.02,182.767 226.061,182.433 L 227.125,182.433 C 227.098,182.745 227.024,183.029 226.908,183.281 C 226.792,183.535 226.637,183.749 226.446,183.927 C 226.255,184.106 226.031,184.24 225.773,184.334 C 225.517,184.428 225.234,184.475 224.926,184.475 C 224.543,184.475 224.198,184.41 223.893,184.276 C 223.588,184.143 223.33,183.962 223.119,183.725 C 222.909,183.494 222.747,183.216 222.635,182.903 C 222.524,182.591 222.467,182.251 222.467,181.882 C 222.467,181.509 222.524,181.162 222.635,180.842 C 222.747,180.524 222.909,180.242 223.119,180.005 C 223.33,179.768 223.588,179.581 223.893,179.443 C 224.199,179.306 224.543,179.242 224.926,179.242 C 225.201,179.242 225.462,179.281 225.706,179.359 C 225.951,179.439 226.171,179.552 226.364,179.708 C 226.558,179.859 226.718,180.048 226.844,180.271 C 226.969,180.496 227.049,180.75 227.081,181.042 L 226.018,181.042 C 226,180.909 225.958,180.792 225.893,180.688 z "
           style="fill:#ffffff"
           id="path154_1_" />
      </g>
      <g
         id="g6332_2_">
        <path
           d="M 250.333,165.947 C 250.337,170.357 246.763,173.937 242.351,173.941 C 237.939,173.943 234.36,170.371 234.357,165.958 C 234.357,165.955 234.357,165.95 234.357,165.947 C 234.354,161.535 237.928,157.956 242.339,157.952 C 246.751,157.949 250.33,161.523 250.333,165.933 C 250.333,165.939 250.333,165.941 250.333,165.947 z "
           style="fill:#ffffff"
           id="path6334_2_" />
        <g
           id="g6336_2_">
          <path
             id="path40"
             d="M 242.288,157.195 C 239.864,157.195 237.811,158.042 236.134,159.732 C 234.41,161.482 233.548,163.554 233.548,165.947 C 233.548,168.339 234.41,170.394 236.134,172.116 C 237.857,173.838 239.908,174.699 242.288,174.699 C 244.698,174.699 246.786,173.831 248.554,172.095 C 250.219,170.445 251.052,168.396 251.052,165.947 C 251.052,163.497 250.204,161.425 248.51,159.732 C 246.816,158.041 244.742,157.195 242.288,157.195 z M 242.31,158.77 C 244.296,158.77 245.983,159.47 247.371,160.874 C 248.772,162.259 249.474,163.95 249.474,165.949 C 249.474,167.962 248.787,169.632 247.414,170.96 C 245.969,172.391 244.267,173.106 242.31,173.106 C 240.353,173.106 238.666,172.399 237.249,170.985 C 235.833,169.569 235.125,167.893 235.125,165.953 C 235.125,164.013 235.84,162.321 237.271,160.878 C 238.644,159.471 240.324,158.77 242.31,158.77 z " />
          <path
             d="M 238.409,164.711 C 238.759,162.509 240.307,161.332 242.251,161.332 C 245.045,161.332 246.747,163.359 246.747,166.062 C 246.747,168.701 244.935,170.75 242.207,170.75 C 240.33,170.75 238.649,169.596 238.344,167.327 L 240.548,167.327 C 240.614,168.504 241.378,168.919 242.47,168.919 C 243.713,168.919 244.521,167.764 244.521,165.998 C 244.521,164.144 243.824,163.163 242.513,163.163 C 241.553,163.163 240.724,163.512 240.548,164.711 L 241.19,164.707 L 239.455,166.443 L 237.72,164.707 L 238.409,164.711 z "
             id="path6340_2_" />
        </g>
      </g>
      <g
         id="g6361_2_">
        <path
           d="M 230.75,165.947 C 230.754,170.443 227.11,174.091 222.615,174.093 C 218.118,174.096 214.47,170.453 214.468,165.957 C 214.468,165.953 214.468,165.948 214.468,165.943 C 214.464,161.448 218.107,157.798 222.603,157.797 C 227.099,157.796 230.748,161.44 230.75,165.936 C 230.75,165.938 230.75,165.943 230.75,165.947 z "
           style="fill:#ffffff"
           id="path6363_2_" />
        <path
           id="path45"
           d="M 222.597,157.195 C 225.05,157.195 227.123,158.042 228.818,159.732 C 230.513,161.421 231.36,163.497 231.36,165.947 C 231.36,168.396 230.527,170.445 228.863,172.095 C 227.094,173.827 225.007,174.699 222.597,174.699 C 220.216,174.699 218.164,173.838 216.442,172.116 C 214.718,170.396 213.856,168.339 213.856,165.947 C 213.856,163.554 214.718,161.482 216.442,159.732 C 218.122,158.042 220.172,157.195 222.597,157.195 z M 215.826,163.596 C 215.564,164.334 215.434,165.117 215.434,165.95 C 215.434,167.888 216.142,169.565 217.559,170.979 C 218.975,172.393 220.662,173.1 222.619,173.1 C 224.576,173.1 226.278,172.387 227.723,170.956 C 228.206,170.488 228.606,169.978 228.918,169.426 L 225.619,167.956 C 225.395,169.066 224.406,169.816 223.21,169.904 L 223.21,171.254 L 222.205,171.254 L 222.205,169.904 C 221.224,169.892 220.274,169.491 219.549,168.855 L 220.754,167.64 C 221.335,168.187 221.915,168.431 222.708,168.431 C 223.222,168.431 223.791,168.23 223.791,167.562 C 223.791,167.326 223.699,167.16 223.555,167.037 L 222.721,166.665 L 221.681,166.203 C 221.167,165.974 220.732,165.78 220.295,165.586 L 215.826,163.596 z M 222.619,158.77 C 220.633,158.77 218.954,159.47 217.581,160.874 C 217.208,161.25 216.882,161.645 216.606,162.059 L 219.952,163.545 C 220.255,162.617 221.136,162.055 222.206,161.991 L 222.206,160.638 L 223.211,160.638 L 223.211,161.991 C 223.903,162.021 224.662,162.214 225.411,162.794 L 224.261,163.979 C 223.836,163.675 223.301,163.463 222.765,163.463 C 222.329,163.463 221.716,163.6 221.716,164.145 C 221.716,164.229 221.743,164.3 221.794,164.368 L 222.913,164.866 L 223.671,165.204 C 224.155,165.421 224.617,165.626 225.076,165.83 L 229.56,167.827 C 229.707,167.239 229.782,166.614 229.782,165.953 C 229.782,163.954 229.081,162.263 227.68,160.878 C 226.292,159.471 224.605,158.77 222.619,158.77 z " />
      </g>
    </g>
    <g
       transform="translate(153.84444,439.19218)"
       style="overflow:visible"
       id="g187">
      <path
         id="path189"
         d="M 173.597,5.686 C 174.192,6.259 174.522,6.91 174.588,7.639 L 173.447,7.639 C 173.321,7.092 173.069,6.658 172.691,6.338 C 172.314,6.018 171.784,5.858 171.103,5.858 C 170.271,5.858 169.601,6.155 169.089,6.749 C 168.578,7.343 168.322,8.252 168.322,9.478 C 168.322,10.482 168.552,11.297 169.014,11.921 C 169.476,12.545 170.164,12.858 171.079,12.858 C 171.921,12.858 172.562,12.528 173.003,11.869 C 173.236,11.521 173.41,11.065 173.525,10.499 L 174.666,10.499 C 174.565,11.406 174.233,12.167 173.67,12.781 C 172.994,13.52 172.083,13.889 170.936,13.889 C 169.947,13.889 169.117,13.586 168.445,12.981 C 167.561,12.181 167.119,10.945 167.119,9.273 C 167.119,8.004 167.451,6.963 168.116,6.151 C 168.834,5.268 169.825,4.827 171.088,4.827 C 172.166,4.826 173.001,5.113 173.597,5.686 z " />
      <path
         id="path191"
         d="M 176.05,7.389 L 177.066,7.389 L 177.066,8.455 C 177.148,8.247 177.348,7.994 177.669,7.696 C 177.988,7.398 178.357,7.248 178.774,7.248 C 178.793,7.248 178.826,7.25 178.873,7.254 C 178.92,7.258 179,7.266 179.113,7.279 L 179.113,8.373 C 179.051,8.36 178.993,8.352 178.94,8.348 C 178.887,8.344 178.83,8.342 178.767,8.342 C 178.235,8.342 177.826,8.514 177.54,8.858 C 177.255,9.202 177.112,9.598 177.112,10.045 L 177.112,13.67 L 176.05,13.67 L 176.05,7.389 L 176.05,7.389 z " />
      <path
         id="path193"
         d="M 183.895,7.561 C 184.311,7.769 184.628,8.038 184.846,8.369 C 185.056,8.684 185.196,9.052 185.266,9.472 C 185.328,9.76 185.359,10.222 185.359,10.859 L 180.781,10.859 C 180.801,11.501 180.95,12.015 181.229,12.403 C 181.508,12.791 181.941,12.984 182.528,12.984 C 183.075,12.984 183.512,12.802 183.839,12.437 C 184.025,12.226 184.157,11.981 184.235,11.703 L 185.266,11.703 C 185.239,11.933 185.148,12.189 184.995,12.472 C 184.842,12.755 184.67,12.986 184.48,13.165 C 184.161,13.477 183.767,13.687 183.297,13.797 C 183.044,13.859 182.759,13.891 182.441,13.891 C 181.664,13.891 181.006,13.607 180.466,13.038 C 179.926,12.47 179.656,11.673 179.656,10.649 C 179.656,9.641 179.928,8.822 180.472,8.193 C 181.016,7.564 181.728,7.25 182.606,7.25 C 183.049,7.248 183.479,7.353 183.895,7.561 z M 184.265,10.014 C 184.223,9.556 184.124,9.191 183.969,8.917 C 183.683,8.408 183.205,8.154 182.535,8.154 C 182.055,8.154 181.653,8.329 181.328,8.679 C 181.003,9.029 180.831,9.473 180.811,10.013 L 184.265,10.014 L 184.265,10.014 z " />
      <path
         id="path195"
         d="M 190.148,7.579 C 190.334,7.695 190.545,7.897 190.782,8.185 L 190.782,5.045 L 191.798,5.045 L 191.798,13.67 L 190.845,13.67 L 190.845,12.806 C 190.601,13.188 190.312,13.464 189.978,13.634 C 189.644,13.804 189.263,13.889 188.832,13.889 C 188.138,13.889 187.537,13.595 187.028,13.007 C 186.52,12.419 186.266,11.637 186.266,10.66 C 186.266,9.746 186.497,8.954 186.961,8.284 C 187.425,7.614 188.087,7.279 188.948,7.279 C 189.427,7.279 189.827,7.379 190.148,7.579 z M 187.786,12.299 C 188.069,12.755 188.524,12.983 189.149,12.983 C 189.634,12.983 190.033,12.772 190.346,12.349 C 190.658,11.927 190.815,11.321 190.815,10.532 C 190.815,9.734 190.654,9.144 190.332,8.761 C 190.01,8.378 189.612,8.186 189.139,8.186 C 188.611,8.186 188.183,8.39 187.855,8.799 C 187.527,9.207 187.363,9.808 187.363,10.602 C 187.361,11.277 187.502,11.843 187.786,12.299 z " />
      <path
         id="path197"
         d="M 193.378,5.045 L 194.44,5.045 L 194.44,6.248 L 193.378,6.248 L 193.378,5.045 z M 193.378,7.42 L 194.44,7.42 L 194.44,13.67 L 193.378,13.67 L 193.378,7.42 z " />
      <path
         id="path199"
         d="M 196.248,5.654 L 197.31,5.654 L 197.31,7.388 L 198.326,7.388 L 198.326,8.263 L 197.31,8.263 L 197.31,12.34 C 197.31,12.558 197.385,12.704 197.536,12.777 C 197.619,12.82 197.758,12.841 197.952,12.841 C 198.003,12.841 198.058,12.839 198.118,12.836 C 198.178,12.832 198.247,12.823 198.326,12.81 L 198.326,13.669 C 198.204,13.702 198.077,13.726 197.946,13.741 C 197.815,13.755 197.673,13.763 197.519,13.763 C 197.024,13.763 196.689,13.638 196.512,13.386 C 196.335,13.135 196.247,12.808 196.247,12.407 L 196.247,8.264 L 195.403,8.264 L 195.403,7.389 L 196.247,7.389 L 196.248,5.654 L 196.248,5.654 z " />
      <path
         id="path201"
         d="M 206.849,7.734 C 207.292,8.079 207.559,8.672 207.65,9.514 L 206.619,9.514 C 206.557,9.124 206.414,8.8 206.192,8.542 C 205.97,8.284 205.612,8.155 205.121,8.155 C 204.45,8.155 203.97,8.483 203.682,9.14 C 203.494,9.566 203.401,10.092 203.401,10.717 C 203.401,11.347 203.534,11.876 203.799,12.306 C 204.064,12.736 204.482,12.951 205.051,12.951 C 205.488,12.951 205.834,12.817 206.09,12.55 C 206.345,12.282 206.522,11.916 206.619,11.451 L 207.65,11.451 C 207.532,12.284 207.239,12.894 206.77,13.279 C 206.301,13.665 205.701,13.857 204.971,13.857 C 204.15,13.857 203.496,13.557 203.008,12.958 C 202.52,12.359 202.276,11.609 202.276,10.71 C 202.276,9.608 202.544,8.751 203.079,8.137 C 203.614,7.524 204.296,7.217 205.125,7.217 C 205.831,7.217 206.406,7.389 206.849,7.734 z " />
      <path
         id="path203"
         d="M 212.062,9.882 C 212.303,9.851 212.464,9.75 212.546,9.578 C 212.594,9.484 212.618,9.35 212.618,9.175 C 212.618,8.817 212.491,8.557 212.236,8.396 C 211.981,8.235 211.617,8.154 211.143,8.154 C 210.595,8.154 210.206,8.301 209.977,8.597 C 209.849,8.76 209.766,9.003 209.727,9.326 L 208.743,9.326 C 208.763,8.549 209.013,8.009 209.494,7.704 C 209.975,7.4 210.534,7.248 211.169,7.248 C 211.906,7.248 212.504,7.391 212.964,7.677 C 213.42,7.964 213.648,8.403 213.648,8.995 L 213.648,12.603 C 213.648,12.712 213.67,12.8 213.716,12.866 C 213.762,12.932 213.857,12.966 214.003,12.966 C 214.05,12.966 214.104,12.963 214.163,12.957 C 214.222,12.951 214.285,12.942 214.352,12.931 L 214.352,13.703 C 214.186,13.75 214.06,13.78 213.974,13.792 C 213.887,13.804 213.769,13.81 213.62,13.81 C 213.254,13.81 212.988,13.682 212.823,13.426 C 212.736,13.29 212.676,13.098 212.64,12.849 C 212.426,13.129 212.118,13.372 211.717,13.578 C 211.316,13.784 210.873,13.888 210.39,13.888 C 209.809,13.888 209.335,13.711 208.967,13.359 C 208.599,13.007 208.415,12.565 208.415,12.034 C 208.415,11.453 208.596,11.003 208.958,10.683 C 209.32,10.364 209.795,10.166 210.384,10.092 L 212.062,9.882 z M 209.843,12.721 C 210.065,12.896 210.329,12.983 210.633,12.983 C 211.004,12.983 211.362,12.899 211.71,12.731 C 212.295,12.452 212.588,11.988 212.588,11.341 L 212.588,10.492 C 212.46,10.577 212.295,10.648 212.093,10.704 C 211.891,10.76 211.693,10.8 211.499,10.822 L 210.864,10.898 C 210.483,10.945 210.196,11.023 210.002,11.131 C 209.673,11.314 209.509,11.605 209.509,12.005 C 209.509,12.307 209.621,12.546 209.843,12.721 z " />
      <path
         id="path205"
         d="M 215.402,7.389 L 216.418,7.389 L 216.418,8.455 C 216.5,8.247 216.7,7.994 217.021,7.696 C 217.34,7.398 217.709,7.248 218.126,7.248 C 218.145,7.248 218.178,7.25 218.225,7.254 C 218.272,7.258 218.352,7.266 218.465,7.279 L 218.465,8.373 C 218.403,8.36 218.345,8.352 218.292,8.348 C 218.239,8.344 218.182,8.342 218.119,8.342 C 217.587,8.342 217.178,8.514 216.892,8.858 C 216.607,9.202 216.464,9.598 216.464,10.045 L 216.464,13.67 L 215.402,13.67 L 215.402,7.389 L 215.402,7.389 z " />
      <path
         id="path207"
         d="M 222.826,7.579 C 223.012,7.695 223.223,7.897 223.46,8.185 L 223.46,5.045 L 224.476,5.045 L 224.476,13.67 L 223.523,13.67 L 223.523,12.806 C 223.279,13.188 222.99,13.464 222.656,13.634 C 222.322,13.804 221.941,13.889 221.51,13.889 C 220.816,13.889 220.215,13.595 219.706,13.007 C 219.198,12.419 218.944,11.637 218.944,10.66 C 218.944,9.746 219.175,8.954 219.639,8.284 C 220.103,7.614 220.765,7.279 221.626,7.279 C 222.104,7.279 222.504,7.379 222.826,7.579 z M 220.463,12.299 C 220.746,12.755 221.201,12.983 221.826,12.983 C 222.311,12.983 222.71,12.772 223.023,12.349 C 223.335,11.927 223.492,11.321 223.492,10.532 C 223.492,9.734 223.331,9.144 223.009,8.761 C 222.687,8.378 222.289,8.186 221.816,8.186 C 221.288,8.186 220.86,8.39 220.532,8.799 C 220.204,9.207 220.04,9.808 220.04,10.602 C 220.039,11.277 220.18,11.843 220.463,12.299 z " />
      <path
         id="path209"
         d="M 229.39,7.389 L 230.406,7.389 L 230.406,8.284 C 230.701,7.915 231.014,7.651 231.344,7.49 C 231.675,7.329 232.042,7.249 232.447,7.249 C 233.333,7.249 233.932,7.56 234.243,8.182 C 234.414,8.522 234.5,9.009 234.5,9.642 L 234.5,13.671 L 233.438,13.671 L 233.438,9.713 C 233.438,9.33 233.381,9.021 233.268,8.787 C 233.08,8.396 232.742,8.201 232.25,8.201 C 232,8.201 231.795,8.226 231.636,8.277 C 231.347,8.363 231.094,8.535 230.875,8.793 C 230.699,9 230.585,9.214 230.533,9.435 C 230.481,9.656 230.454,9.972 230.454,10.382 L 230.454,13.67 L 229.392,13.67 L 229.392,7.389 L 229.39,7.389 z " />
      <path
         id="path211"
         d="M 237.111,7.389 L 237.111,11.556 C 237.111,11.877 237.16,12.139 237.259,12.342 C 237.442,12.717 237.782,12.904 238.281,12.904 C 238.996,12.904 239.484,12.576 239.743,11.92 C 239.884,11.568 239.954,11.086 239.954,10.472 L 239.954,7.389 L 241.016,7.389 L 241.016,13.67 L 240.016,13.67 L 240.028,12.74 C 239.893,12.98 239.726,13.182 239.527,13.346 C 239.131,13.676 238.652,13.841 238.088,13.841 C 237.209,13.841 236.61,13.542 236.291,12.944 C 236.118,12.623 236.032,12.195 236.032,11.659 L 236.032,7.389 L 237.111,7.389 z " />
      <path
         id="path213"
         d="M 242.738,7.389 L 243.769,7.389 L 243.769,8.287 C 244.02,7.976 244.247,7.75 244.451,7.608 C 244.8,7.368 245.196,7.248 245.639,7.248 C 246.14,7.248 246.544,7.372 246.85,7.62 C 247.022,7.762 247.179,7.971 247.32,8.246 C 247.556,7.908 247.833,7.657 248.152,7.493 C 248.47,7.33 248.829,7.248 249.226,7.248 C 250.075,7.248 250.653,7.553 250.96,8.163 C 251.125,8.491 251.208,8.933 251.208,9.488 L 251.208,13.67 L 250.114,13.67 L 250.114,9.312 C 250.114,8.895 250.009,8.607 249.797,8.451 C 249.586,8.295 249.328,8.217 249.024,8.217 C 248.605,8.217 248.245,8.356 247.942,8.633 C 247.639,8.91 247.489,9.373 247.489,10.021 L 247.489,13.67 L 246.427,13.67 L 246.427,9.573 C 246.427,9.147 246.376,8.836 246.275,8.641 C 246.115,8.348 245.816,8.202 245.379,8.202 C 244.981,8.202 244.618,8.357 244.292,8.667 C 243.966,8.977 243.803,9.536 243.803,10.344 L 243.803,13.671 L 242.741,13.671 L 242.741,7.389 L 242.738,7.389 z " />
      <path
         id="path215"
         d="M 252.625,5.045 L 253.656,5.045 L 253.656,8.137 C 253.886,7.838 254.162,7.61 254.482,7.453 C 254.802,7.296 255.15,7.217 255.525,7.217 C 256.306,7.217 256.94,7.487 257.426,8.027 C 257.912,8.567 258.155,9.363 258.155,10.415 C 258.155,11.413 257.915,12.241 257.435,12.9 C 256.955,13.56 256.29,13.889 255.439,13.889 C 254.963,13.889 254.562,13.773 254.233,13.541 C 254.038,13.403 253.829,13.183 253.607,12.88 L 253.607,13.67 L 252.623,13.67 L 252.623,5.045 L 252.625,5.045 z M 256.639,12.267 C 256.921,11.811 257.062,11.209 257.062,10.461 C 257.062,9.797 256.921,9.246 256.639,8.81 C 256.357,8.374 255.941,8.155 255.392,8.155 C 254.913,8.155 254.494,8.334 254.133,8.692 C 253.773,9.049 253.593,9.64 253.593,10.462 C 253.593,11.057 253.667,11.538 253.815,11.908 C 254.091,12.604 254.607,12.952 255.363,12.952 C 255.931,12.951 256.356,12.723 256.639,12.267 z " />
      <path
         id="path217"
         d="M 263.272,7.561 C 263.688,7.769 264.005,8.038 264.223,8.369 C 264.433,8.684 264.573,9.052 264.643,9.472 C 264.705,9.76 264.736,10.222 264.736,10.859 L 260.158,10.859 C 260.178,11.501 260.327,12.015 260.606,12.403 C 260.885,12.791 261.318,12.984 261.905,12.984 C 262.452,12.984 262.889,12.802 263.216,12.437 C 263.402,12.226 263.534,11.981 263.612,11.703 L 264.643,11.703 C 264.616,11.933 264.525,12.189 264.372,12.472 C 264.219,12.755 264.047,12.986 263.857,13.165 C 263.538,13.477 263.144,13.687 262.674,13.797 C 262.421,13.859 262.136,13.891 261.818,13.891 C 261.041,13.891 260.383,13.607 259.843,13.038 C 259.303,12.47 259.033,11.673 259.033,10.649 C 259.033,9.641 259.305,8.822 259.849,8.193 C 260.393,7.564 261.105,7.25 261.983,7.25 C 262.426,7.248 262.856,7.353 263.272,7.561 z M 263.642,10.014 C 263.6,9.556 263.501,9.191 263.346,8.917 C 263.06,8.408 262.582,8.154 261.912,8.154 C 261.432,8.154 261.03,8.329 260.705,8.679 C 260.38,9.029 260.208,9.473 260.188,10.013 L 263.642,10.014 L 263.642,10.014 z " />
      <path
         id="path219"
         d="M 266.097,7.389 L 267.113,7.389 L 267.113,8.455 C 267.195,8.247 267.395,7.994 267.716,7.696 C 268.035,7.398 268.404,7.248 268.821,7.248 C 268.84,7.248 268.873,7.25 268.92,7.254 C 268.967,7.258 269.047,7.266 269.16,7.279 L 269.16,8.373 C 269.098,8.36 269.04,8.352 268.987,8.348 C 268.934,8.344 268.877,8.342 268.814,8.342 C 268.282,8.342 267.873,8.514 267.587,8.858 C 267.302,9.202 267.159,9.598 267.159,10.045 L 267.159,13.67 L 266.097,13.67 L 266.097,7.389 L 266.097,7.389 z " />
      <path
         id="path221"
         d="M 270.703,11.701 C 270.734,12.047 270.823,12.312 270.97,12.496 C 271.238,12.83 271.704,12.997 272.367,12.997 C 272.762,12.997 273.109,12.913 273.409,12.744 C 273.709,12.575 273.859,12.314 273.859,11.961 C 273.859,11.693 273.739,11.49 273.498,11.35 C 273.344,11.265 273.04,11.165 272.586,11.052 L 271.74,10.841 C 271.199,10.708 270.801,10.56 270.545,10.396 C 270.087,10.11 269.858,9.715 269.858,9.21 C 269.858,8.616 270.073,8.135 270.504,7.768 C 270.935,7.4 271.514,7.216 272.242,7.216 C 273.194,7.216 273.881,7.493 274.302,8.048 C 274.566,8.4 274.694,8.778 274.686,9.185 L 273.686,9.185 C 273.666,8.948 273.582,8.732 273.432,8.537 C 273.187,8.261 272.764,8.122 272.161,8.122 C 271.759,8.122 271.454,8.198 271.247,8.351 C 271.04,8.504 270.936,8.705 270.936,8.954 C 270.936,9.227 271.072,9.446 271.344,9.61 C 271.501,9.708 271.735,9.794 272.042,9.868 L 272.747,10.038 C 273.513,10.222 274.026,10.4 274.287,10.572 C 274.698,10.842 274.904,11.266 274.904,11.843 C 274.904,12.402 274.69,12.885 274.263,13.292 C 273.836,13.699 273.186,13.902 272.312,13.902 C 271.372,13.902 270.706,13.691 270.314,13.268 C 269.922,12.845 269.712,12.322 269.685,11.699 L 270.703,11.701 L 270.703,11.701 z " />
      <path
         id="path223"
         d="M 276.625,7.482 L 277.844,7.482 L 277.844,8.763 L 276.625,8.763 L 276.625,7.482 z M 276.625,12.389 L 277.844,12.389 L 277.844,13.67 L 276.625,13.67 L 276.625,12.389 z " />
    </g>
  </g>
</svg>
