<?xml version="1.0" encoding="UTF-8" standalone="no"?>
<!-- Created with Inkscape (http://www.inkscape.org/) -->
<svg
   xmlns:dc="http://purl.org/dc/elements/1.1/"
   xmlns:cc="http://web.resource.org/cc/"
   xmlns:rdf="http://www.w3.org/1999/02/22-rdf-syntax-ns#"
   xmlns:svg="http://www.w3.org/2000/svg"
   xmlns="http://www.w3.org/2000/svg"
   xmlns:sodipodi="http://sodipodi.sourceforge.net/DTD/sodipodi-0.dtd"
   xmlns:inkscape="http://www.inkscape.org/namespaces/inkscape"
   width="142.73199"
   height="163.41403"
   id="svg3159"
   sodipodi:version="0.32"
   inkscape:version="0.45.1"
   version="1.0"
   sodipodi:docbase="/Users/robmyers/Desktop/cc-ironies/final"
   sodipodi:docname="design_award.svg"
   inkscape:output_extension="org.inkscape.output.svg.inkscape">
  <defs
     id="defs3161" />
  <sodipodi:namedview
     id="base"
     pagecolor="#ffffff"
     bordercolor="#666666"
     borderopacity="1.0"
     gridtolerance="10000"
     guidetolerance="10"
     objecttolerance="10"
     inkscape:pageopacity="0.0"
     inkscape:pageshadow="2"
     inkscape:zoom="2.3131429"
     inkscape:cx="71.365997"
     inkscape:cy="81.707016"
     inkscape:document-units="px"
     inkscape:current-layer="layer1"
     inkscape:window-width="697"
     inkscape:window-height="581"
     inkscape:window-x="20"
     inkscape:window-y="42" />
  <metadata
     id="metadata3164">
    <rdf:RDF>
      <cc:Work
         rdf:about="">
        <dc:format>image/svg+xml</dc:format>
        <dc:type
           rdf:resource="http://purl.org/dc/dcmitype/StillImage" />
      </cc:Work>
    </rdf:RDF>
  </metadata>
  <g
     inkscape:label="Layer 1"
     inkscape:groupmode="layer"
     id="layer1"
     transform="translate(-420.06256,-702.0498)">
    <rect
       x="420.56256"
       y="702.5498"
       style="fill:#ffffff;stroke:#000000"
       width="141.73199"
       height="141.73199"
       id="rect261" />
    <g
       id="g263"
       transform="translate(93.340589,702.04983)">
      <polygon
         style="fill:#81017e"
         points="378.536,29.582 379.491,7.389 392.06,25.703 399.824,4.893 406.121,26.194 419.935,8.801 419.339,31.005 437.853,18.733 430.425,39.667 451.826,33.717 438.291,51.33 460.483,52.284 442.169,64.853 462.979,72.619 441.678,78.913 459.07,92.729 436.867,92.132 449.138,110.646 428.205,103.219 434.155,124.619 416.542,111.084 415.587,133.277 403.019,114.962 395.254,135.774 388.96,114.471 375.144,131.864 375.74,109.66 357.226,121.932 364.654,100.999 343.254,106.948 356.787,89.336 334.596,88.382 352.91,75.813 332.099,68.047 353.401,61.753 336.008,47.937 358.212,48.534 345.94,30.019 366.873,37.448 360.922,16.048 378.536,29.582 "
         id="polygon265" />
      <g
         id="g267">
        <path
           style="fill:#ff4100"
           d="M 381.491,44.775 C 381.166,44.556 380.964,44.265 380.884,43.9 C 380.804,43.537 380.865,43.2 381.068,42.887 C 381.427,42.332 381.994,41.514 382.769,40.436 C 383.541,39.358 384.111,38.54 384.471,37.985 C 384.872,37.368 385.462,36.437 386.239,35.187 C 387.02,33.94 387.609,33.008 388.012,32.389 C 388.208,32.084 388.553,31.876 389.045,31.763 C 389.538,31.652 389.949,31.707 390.283,31.922 C 390.467,32.042 390.816,32.514 391.331,33.337 C 391.926,34.307 392.288,34.87 392.417,35.025 C 393.701,36.613 394.561,38.332 394.994,40.185 C 395.513,42.394 395.253,44.297 394.216,45.893 C 393.592,46.853 392.763,47.613 391.725,48.174 C 390.68,48.751 389.571,49.041 388.402,49.038 C 387.09,49.038 385.593,48.494 383.922,47.407 C 383.514,47.142 383.086,46.78 382.633,46.323 C 382.086,45.764 381.706,45.245 381.491,44.775 z M 391.742,39.251 C 391.422,38.56 390.613,37.277 389.312,35.396 L 383.955,43.645 C 384.08,43.927 384.262,44.192 384.498,44.442 C 384.734,44.695 385.024,44.934 385.368,45.157 C 386.57,45.937 387.54,46.329 388.28,46.336 C 388.98,46.341 389.653,46.166 390.3,45.812 C 390.944,45.458 391.458,44.984 391.841,44.396 C 392.734,43.018 392.701,41.302 391.742,39.251 z "
           id="path269" />
        <path
           style="fill:#ff4100"
           d="M 396.325,54.832 C 394.999,53.971 394.12,52.949 393.689,51.769 C 393.211,50.464 393.385,49.178 394.211,47.904 C 395.124,46.5 396.264,45.551 397.634,45.058 C 399.155,44.515 400.613,44.695 402.004,45.598 C 402.967,46.225 403.67,46.903 404.104,47.626 C 404.676,48.581 404.68,49.492 404.116,50.358 C 403.72,50.971 403.03,51.291 402.042,51.32 C 401.59,51.335 400.762,51.247 399.557,51.057 L 395.953,50.48 C 396.029,50.942 396.211,51.366 396.493,51.755 C 396.776,52.145 397.16,52.497 397.647,52.814 C 398.389,53.295 399.117,53.551 399.83,53.58 C 400.468,53.607 400.922,53.708 401.198,53.888 C 401.774,54.263 401.881,54.729 401.515,55.29 C 401.105,55.923 400.306,56.138 399.122,55.936 C 398.126,55.766 397.195,55.398 396.325,54.832 z M 400.693,47.621 C 400.175,47.287 399.623,47.172 399.032,47.278 C 398.442,47.386 397.813,47.71 397.143,48.254 C 397.947,48.391 398.747,48.526 399.544,48.665 C 400.512,48.814 401.314,48.886 401.944,48.889 C 401.71,48.434 401.292,48.012 400.693,47.621 z "
           id="path271" />
        <path
           style="fill:#ff4100"
           d="M 411.753,55.625 C 411.201,55.267 411.018,54.828 411.201,54.305 C 411.003,54.122 410.787,53.956 410.554,53.805 C 409.216,52.936 408.428,52.686 408.192,53.053 C 408.051,53.27 408.262,53.824 408.83,54.713 C 409.599,55.933 410.085,56.809 410.289,57.345 C 410.715,58.451 410.691,59.37 410.215,60.104 C 409.594,61.061 408.675,61.496 407.465,61.414 C 406.489,61.341 405.481,60.965 404.433,60.287 C 403.693,59.805 403.092,59.252 402.626,58.626 C 401.993,57.772 401.875,57.041 402.269,56.435 C 402.631,55.877 403.142,55.816 403.805,56.247 C 404.062,56.413 404.378,56.736 404.759,57.212 C 405.137,57.692 405.458,58.015 405.72,58.184 C 406.85,58.919 407.569,59.062 407.869,58.608 C 408.052,58.325 407.866,57.757 407.304,56.903 C 406.489,55.651 405.992,54.809 405.814,54.38 C 405.385,53.32 405.43,52.394 405.943,51.604 C 406.67,50.486 407.75,50.118 409.188,50.498 C 410.031,50.722 411.161,51.294 412.582,52.215 C 413.136,52.574 413.502,52.916 413.677,53.232 C 413.917,53.664 413.87,54.139 413.531,54.66 C 412.884,55.654 412.291,55.975 411.753,55.625 z "
           id="path273" />
        <path
           style="fill:#ff4100"
           d="M 415.375,61.104 C 415.167,61.42 414.846,61.934 414.407,62.642 C 413.966,63.35 413.644,63.864 413.439,64.181 C 413.23,64.502 412.948,64.696 412.595,64.764 C 412.243,64.832 411.899,64.756 411.564,64.539 C 411.229,64.32 411.021,64.037 410.937,63.688 C 410.855,63.339 410.918,63.001 411.128,62.68 C 411.333,62.365 411.655,61.852 412.095,61.141 C 412.533,60.434 412.857,59.921 413.062,59.605 C 413.384,59.109 413.812,58.507 414.345,57.798 C 414.879,57.088 415.307,56.486 415.629,55.991 C 415.838,55.668 416.118,55.474 416.472,55.408 C 416.826,55.34 417.17,55.416 417.504,55.634 C 417.839,55.85 418.048,56.136 418.13,56.483 C 418.212,56.834 418.15,57.17 417.939,57.492 C 417.618,57.987 417.193,58.588 416.657,59.3 C 416.123,60.007 415.694,60.611 415.375,61.104 z M 418.613,54.521 C 418.255,54.289 418.027,53.971 417.922,53.562 C 417.817,53.155 417.875,52.777 418.099,52.433 C 418.322,52.088 418.643,51.883 419.057,51.814 C 419.474,51.743 419.86,51.824 420.214,52.055 C 420.568,52.285 420.798,52.603 420.901,53.011 C 421.004,53.417 420.944,53.792 420.721,54.137 C 420.496,54.482 420.179,54.689 419.765,54.76 C 419.349,54.831 418.967,54.751 418.613,54.521 z "
           id="path275" />
        <path
           style="fill:#ff4100"
           d="M 425.95,66.478 C 424.865,67.631 423.827,68.917 422.841,70.339 C 421.619,72.099 420.474,73.207 419.403,73.667 C 417.973,74.278 416.333,73.983 414.485,72.783 C 412.328,71.382 411.525,70.255 412.082,69.397 C 412.282,69.091 412.54,68.907 412.856,68.844 C 413.172,68.781 413.488,68.852 413.803,69.058 C 414.054,69.22 414.381,69.498 414.784,69.899 C 415.187,70.296 415.569,70.613 415.93,70.848 C 416.756,71.385 417.533,71.527 418.254,71.274 C 418.955,71.021 419.691,70.375 420.458,69.337 C 419.988,69.442 419.53,69.452 419.081,69.368 C 418.633,69.28 418.198,69.101 417.776,68.828 C 416.672,68.111 416.011,67.169 415.788,66.002 C 415.564,64.836 415.817,63.692 416.547,62.569 C 417.527,61.057 418.781,60.136 420.31,59.802 C 421.891,59.456 423.496,59.809 425.122,60.866 C 425.645,61.204 426.053,61.562 426.348,61.934 C 426.643,62.306 426.822,62.697 426.886,63.111 C 427.536,63.653 427.616,64.3 427.129,65.048 C 426.887,65.421 426.495,65.898 425.95,66.478 z M 423.804,62.726 C 422.866,62.117 421.936,61.951 421.015,62.227 C 420.185,62.485 419.483,63.059 418.901,63.951 C 418.474,64.61 418.278,65.188 418.31,65.685 C 418.343,66.178 418.61,66.587 419.108,66.912 C 419.564,67.207 420.194,67.24 420.996,67.015 C 421.752,66.795 422.317,66.464 422.698,66.017 C 423.148,65.55 423.807,64.801 424.677,63.768 C 424.56,63.533 424.429,63.33 424.281,63.155 C 424.133,62.98 423.976,62.836 423.804,62.726 z "
           id="path277" />
        <path
           style="fill:#ff4100"
           d="M 430.218,77.159 C 429.539,76.717 429.379,76.134 429.739,75.409 C 430.033,74.787 430.33,74.159 430.629,73.534 C 430.946,72.865 431.278,72.264 431.629,71.722 C 431.723,71.578 431.894,71.336 432.139,70.997 C 432.386,70.66 432.556,70.417 432.651,70.273 C 432.677,70.233 432.746,70.139 432.858,69.987 C 432.973,69.836 433.063,69.71 433.126,69.609 C 433.428,69.146 433.468,68.844 433.246,68.698 C 432.771,68.392 432.108,68.397 431.255,68.715 C 430.402,69.032 429.54,69.579 428.673,70.351 C 428.539,70.533 428.353,70.771 428.113,71.058 C 427.915,71.295 427.738,71.538 427.578,71.784 C 427.475,71.943 427.302,72.175 427.065,72.478 C 426.824,72.781 426.654,73.013 426.549,73.171 C 426.338,73.496 426.054,73.694 425.694,73.764 C 425.334,73.835 424.986,73.761 424.653,73.544 C 424.317,73.327 424.109,73.039 424.029,72.686 C 423.951,72.332 424.016,71.994 424.224,71.671 C 424.327,71.514 424.466,71.262 424.642,70.918 C 424.814,70.578 424.954,70.329 425.057,70.169 C 425.411,69.623 425.94,68.891 426.642,67.969 C 427.345,67.05 427.873,66.318 428.228,65.772 C 428.337,65.602 428.496,65.345 428.701,64.999 C 428.904,64.649 429.059,64.396 429.165,64.231 C 429.375,63.915 429.656,63.724 430.014,63.665 C 430.371,63.6 430.716,63.678 431.04,63.89 C 431.766,64.361 431.869,65.049 431.352,65.954 L 431.302,66.052 C 432.641,65.76 433.76,65.908 434.659,66.491 C 435.706,67.171 436.145,68.082 435.974,69.221 C 435.855,69.981 435.414,70.951 434.653,72.125 L 434.269,72.718 C 434.098,72.969 433.977,73.148 433.91,73.253 C 433.629,73.688 433.322,74.286 432.991,75.041 C 432.659,75.803 432.354,76.395 432.077,76.824 C 431.875,77.135 431.596,77.32 431.242,77.384 C 430.886,77.446 430.546,77.372 430.218,77.159 z "
           id="path279" />
        <path
           style="fill:#ff4100"
           d="M 379.742,64.406 C 379.487,64.24 379.242,63.73 379.008,62.874 C 378.338,62.788 377.77,62.679 377.3,62.552 C 376.83,62.425 376.459,62.274 376.187,62.096 C 374.847,61.228 374.078,60.217 373.875,59.063 C 373.673,57.912 374.037,56.619 374.966,55.188 C 375.837,53.849 377.074,53.021 378.682,52.706 C 380.289,52.393 381.782,52.682 383.158,53.576 C 383.684,53.918 384.196,54.462 384.696,55.21 C 385.301,56.113 385.45,56.8 385.142,57.275 C 385.014,57.474 384.838,57.606 384.618,57.676 C 384.421,57.86 384.199,58.11 383.954,58.425 C 383.706,58.739 383.438,59.12 383.149,59.566 C 382.465,60.619 382.049,61.426 381.897,61.986 C 381.882,62.046 381.824,62.415 381.722,63.094 C 381.633,63.71 381.563,64.05 381.521,64.115 C 381.332,64.407 381.063,64.578 380.71,64.624 C 380.359,64.667 380.037,64.596 379.742,64.406 z M 381.338,57.438 C 381.453,57.258 381.598,57.062 381.771,56.843 C 381.94,56.628 382.144,56.391 382.372,56.135 C 382.298,56.009 382.226,55.903 382.155,55.823 C 382.088,55.742 382.022,55.681 381.962,55.643 C 381.21,55.156 380.36,55.025 379.411,55.25 C 378.461,55.479 377.735,55.984 377.226,56.763 C 376.742,57.511 376.511,58.158 376.531,58.706 C 376.555,59.255 376.832,59.704 377.364,60.049 C 377.708,60.272 378.071,60.426 378.452,60.513 C 378.835,60.597 379.234,60.617 379.653,60.571 C 380.349,59.141 380.911,58.096 381.338,57.438 z "
           id="path281" />
        <path
           style="fill:#ff4100"
           d="M 397.773,65.007 C 395.772,66.812 393.897,68.413 392.154,69.811 C 391.66,70.207 391.053,70.544 390.334,70.828 C 389.828,71.024 389.355,70.973 388.915,70.678 C 388.222,70.213 388.111,69.181 388.58,67.582 C 388.764,66.973 389.205,65.905 389.906,64.376 C 389.632,64.543 389.452,64.661 389.369,64.725 C 388.631,65.225 387.512,66.02 386.014,67.108 C 385.778,67.287 385.53,67.391 385.273,67.42 C 384.796,67.641 384.323,67.611 383.853,67.328 C 383.584,67.17 383.461,66.757 383.481,66.093 C 383.492,65.412 383.652,64.631 383.958,63.748 C 384.235,62.948 384.946,61.274 386.089,58.73 C 386.338,58.181 386.552,57.763 386.736,57.48 C 386.933,57.175 387.215,56.997 387.577,56.944 C 387.941,56.889 388.283,56.97 388.606,57.179 C 389.208,57.57 389.386,58.108 389.136,58.792 C 389.006,59.151 388.817,59.572 388.572,60.061 C 388.214,60.761 388.003,61.174 387.944,61.301 C 387.733,61.781 387.385,62.561 386.895,63.641 C 388.039,62.775 389.418,61.675 391.041,60.338 C 391.738,59.763 392.404,59.68 393.035,60.088 C 393.654,60.491 393.8,61.159 393.471,62.093 C 393.24,62.751 392.907,63.583 392.472,64.592 C 391.841,66.059 391.472,66.933 391.36,67.215 C 391.52,67.074 393.054,65.663 395.96,62.979 C 396.394,62.579 396.898,62.565 397.471,62.937 C 397.785,63.143 397.999,63.426 398.109,63.788 C 398.216,64.154 398.172,64.487 397.972,64.795 C 397.935,64.848 397.869,64.919 397.773,65.007 z "
           id="path283" />
        <path
           style="fill:#ff4100"
           d="M 400.899,78.145 C 400.642,77.979 400.396,77.467 400.163,76.613 C 399.494,76.527 398.924,76.418 398.454,76.292 C 397.983,76.165 397.615,76.012 397.343,75.835 C 396.004,74.966 395.233,73.954 395.029,72.802 C 394.827,71.651 395.19,70.361 396.118,68.931 C 396.989,67.588 398.23,66.76 399.837,66.445 C 401.443,66.13 402.935,66.42 404.31,67.314 C 404.838,67.656 405.35,68.2 405.85,68.948 C 406.454,69.852 406.602,70.538 406.295,71.013 C 406.166,71.211 405.991,71.343 405.771,71.413 C 405.575,71.597 405.351,71.848 405.107,72.162 C 404.862,72.476 404.592,72.857 404.303,73.305 C 403.62,74.355 403.202,75.163 403.051,75.724 C 403.036,75.784 402.979,76.153 402.878,76.831 C 402.786,77.447 402.719,77.787 402.677,77.853 C 402.486,78.144 402.215,78.314 401.865,78.36 C 401.515,78.408 401.192,78.335 400.899,78.145 z M 402.493,71.177 C 402.609,70.996 402.753,70.8 402.928,70.584 C 403.098,70.367 403.298,70.132 403.528,69.874 C 403.454,69.747 403.382,69.644 403.315,69.562 C 403.245,69.481 403.179,69.421 403.118,69.382 C 402.365,68.893 401.516,68.763 400.566,68.991 C 399.619,69.216 398.889,69.721 398.381,70.503 C 397.899,71.25 397.667,71.897 397.689,72.447 C 397.71,72.995 397.988,73.442 398.519,73.788 C 398.863,74.011 399.226,74.165 399.609,74.251 C 399.99,74.335 400.389,74.355 400.806,74.309 C 401.501,72.879 402.066,71.833 402.493,71.177 z "
           id="path285" />
        <path
           style="fill:#ff4100"
           d="M 414.348,77.697 C 413.742,78.52 413.079,78.694 412.355,78.223 C 411.652,77.766 411.536,77.177 412.007,76.45 L 412.513,75.578 C 411.142,74.973 409.837,75.035 408.601,75.768 L 405.894,79.956 C 405.687,80.27 405.411,80.463 405.058,80.531 C 404.708,80.599 404.367,80.524 404.036,80.309 C 403.692,80.087 403.501,79.802 403.456,79.458 C 403.41,79.143 403.484,78.832 403.686,78.521 L 407.225,73.072 C 407.336,72.9 407.507,72.648 407.741,72.314 C 407.974,71.981 408.145,71.726 408.259,71.555 C 408.458,71.244 408.723,71.045 409.041,70.957 C 409.361,70.871 409.691,70.937 410.036,71.159 C 410.65,71.558 410.81,72.113 410.515,72.82 C 411.976,72.722 413.304,73.062 414.503,73.839 C 415.612,74.559 415.684,75.662 414.72,77.144 C 414.535,77.429 414.412,77.613 414.348,77.697 z "
           id="path287" />
        <path
           style="fill:#ff4100"
           d="M 423.238,80.08 C 424.536,78.23 425.468,76.974 426.033,76.311 C 426.55,75.714 427.122,75.621 427.746,76.025 C 428.07,76.236 428.263,76.513 428.321,76.854 C 428.381,77.197 428.311,77.521 428.11,77.831 C 427.583,78.644 426.736,79.816 425.573,81.35 C 424.407,82.883 423.562,84.056 423.033,84.869 C 421.745,86.856 420.941,88.222 420.621,88.973 C 420.579,89.074 420.533,89.16 420.487,89.233 C 420.287,89.541 420.008,89.723 419.66,89.777 C 419.308,89.832 418.985,89.764 418.691,89.573 C 418.28,89.306 418.094,88.924 418.132,88.429 C 417.607,88.412 417.121,88.308 416.671,88.113 C 416.22,87.921 415.779,87.684 415.348,87.403 C 414.105,86.596 413.332,85.53 413.028,84.2 C 412.716,82.847 412.968,81.544 413.783,80.287 C 414.754,78.795 415.961,77.863 417.403,77.492 C 418.847,77.123 420.251,77.381 421.615,78.267 C 422.031,78.538 422.377,78.823 422.647,79.128 C 422.917,79.43 423.115,79.747 423.238,80.08 z M 421.357,82.587 C 421.403,82.115 421.332,81.7 421.152,81.332 C 420.965,80.97 420.671,80.655 420.265,80.392 C 419.44,79.857 418.665,79.695 417.947,79.902 C 417.224,80.11 416.555,80.69 415.937,81.642 C 415.545,82.246 415.435,82.902 415.601,83.621 C 415.77,84.34 416.149,84.89 416.738,85.273 C 417.168,85.553 417.526,85.712 417.813,85.758 C 418.006,85.788 418.379,85.778 418.929,85.723 C 419.074,85.706 419.222,85.68 419.374,85.642 C 419.535,85.369 420.198,84.347 421.357,82.587 z "
           id="path289" />
        <path
           style="fill:#ff4100"
           d="M 377.456,72.031 C 375.456,73.834 373.582,75.437 371.836,76.836 C 371.342,77.23 370.736,77.566 370.017,77.851 C 369.511,78.045 369.038,77.995 368.595,77.701 C 367.904,77.235 367.793,76.204 368.262,74.604 C 368.446,73.993 368.888,72.927 369.588,71.396 C 369.313,71.565 369.133,71.683 369.052,71.747 C 368.313,72.247 367.194,73.042 365.696,74.13 C 365.459,74.307 365.213,74.413 364.954,74.442 C 364.479,74.664 364.005,74.631 363.535,74.348 C 363.267,74.19 363.142,73.78 363.163,73.114 C 363.176,72.433 363.334,71.652 363.641,70.769 C 363.919,69.97 364.629,68.297 365.771,65.752 C 366.021,65.202 366.235,64.784 366.419,64.502 C 366.617,64.197 366.898,64.017 367.26,63.963 C 367.623,63.912 367.966,63.99 368.29,64.199 C 368.89,64.593 369.067,65.129 368.821,65.813 C 368.69,66.171 368.501,66.593 368.256,67.082 C 367.896,67.783 367.686,68.195 367.626,68.321 C 367.416,68.801 367.067,69.581 366.579,70.662 C 367.722,69.796 369.102,68.696 370.725,67.357 C 371.422,66.782 372.088,66.7 372.718,67.108 C 373.338,67.511 373.482,68.179 373.155,69.113 C 372.924,69.771 372.591,70.604 372.156,71.612 C 371.526,73.078 371.155,73.952 371.044,74.235 C 371.204,74.095 372.738,72.684 375.643,70 C 376.078,69.601 376.581,69.585 377.154,69.958 C 377.47,70.164 377.682,70.445 377.791,70.808 C 377.9,71.174 377.854,71.509 377.654,71.816 C 377.617,71.872 377.551,71.945 377.456,72.031 z "
           id="path291" />
        <path
           style="fill:#ff4100"
           d="M 378.853,77.821 C 378.647,78.139 378.324,78.651 377.885,79.36 C 377.445,80.069 377.121,80.582 376.918,80.898 C 376.71,81.219 376.429,81.415 376.076,81.481 C 375.722,81.549 375.377,81.473 375.042,81.255 C 374.708,81.039 374.5,80.754 374.416,80.404 C 374.333,80.054 374.397,79.718 374.607,79.395 C 374.812,79.081 375.134,78.567 375.574,77.857 C 376.012,77.15 376.336,76.637 376.543,76.32 C 376.863,75.827 377.292,75.224 377.825,74.513 C 378.36,73.803 378.786,73.202 379.108,72.706 C 379.319,72.385 379.598,72.19 379.953,72.122 C 380.306,72.056 380.649,72.132 380.985,72.349 C 381.32,72.566 381.528,72.851 381.61,73.201 C 381.693,73.55 381.63,73.888 381.42,74.209 C 381.099,74.705 380.671,75.304 380.136,76.016 C 379.6,76.725 379.173,77.328 378.853,77.821 z M 382.091,71.238 C 381.736,71.008 381.505,70.689 381.401,70.28 C 381.295,69.873 381.355,69.497 381.578,69.152 C 381.801,68.808 382.121,68.601 382.537,68.531 C 382.952,68.461 383.337,68.542 383.693,68.771 C 384.047,69.005 384.276,69.321 384.381,69.727 C 384.483,70.133 384.424,70.511 384.2,70.854 C 383.976,71.197 383.655,71.406 383.244,71.477 C 382.829,71.549 382.446,71.468 382.091,71.238 z "
           id="path293" />
        <path
           style="fill:#ff4100"
           d="M 384.642,87.993 C 383.961,87.551 383.802,86.97 384.162,86.246 C 384.456,85.623 384.755,84.996 385.052,84.367 C 385.369,83.699 385.702,83.098 386.052,82.558 C 386.146,82.412 386.315,82.171 386.562,81.833 C 386.81,81.494 386.981,81.25 387.072,81.106 C 387.099,81.068 387.167,80.974 387.281,80.821 C 387.394,80.669 387.486,80.544 387.551,80.444 C 387.851,79.98 387.892,79.679 387.67,79.535 C 387.196,79.227 386.532,79.232 385.678,79.55 C 384.825,79.868 383.962,80.412 383.095,81.188 C 382.962,81.37 382.775,81.605 382.536,81.895 C 382.338,82.132 382.159,82.372 382,82.619 C 381.896,82.778 381.726,83.008 381.486,83.312 C 381.247,83.614 381.075,83.847 380.971,84.006 C 380.761,84.332 380.475,84.527 380.116,84.6 C 379.756,84.669 379.409,84.597 379.074,84.378 C 378.739,84.162 378.532,83.875 378.453,83.519 C 378.372,83.166 378.436,82.827 378.646,82.505 C 378.749,82.348 378.888,82.095 379.063,81.754 C 379.238,81.413 379.376,81.163 379.48,81.004 C 379.833,80.46 380.362,79.726 381.065,78.805 C 381.767,77.883 382.296,77.152 382.649,76.607 C 382.759,76.437 382.918,76.18 383.121,75.833 C 383.325,75.485 383.482,75.229 383.589,75.066 C 383.795,74.746 384.076,74.556 384.433,74.496 C 384.793,74.435 385.136,74.509 385.462,74.721 C 386.186,75.193 386.291,75.882 385.773,76.788 L 385.722,76.886 C 387.062,76.594 388.181,76.742 389.079,77.324 C 390.127,78.005 390.566,78.915 390.394,80.053 C 390.276,80.816 389.838,81.785 389.074,82.959 L 388.688,83.552 C 388.517,83.803 388.398,83.982 388.329,84.088 C 388.047,84.522 387.741,85.118 387.411,85.876 C 387.078,86.635 386.776,87.229 386.496,87.656 C 386.295,87.967 386.015,88.155 385.661,88.217 C 385.308,88.282 384.967,88.205 384.642,87.993 z "
           id="path295" />
        <path
           style="fill:#ff4100"
           d="M 393.574,93.795 C 392.892,93.353 392.734,92.77 393.095,92.045 C 393.388,91.424 393.687,90.797 393.985,90.168 C 394.302,89.502 394.633,88.899 394.984,88.36 C 395.078,88.214 395.249,87.974 395.495,87.634 C 395.743,87.295 395.913,87.054 396.007,86.909 C 396.032,86.871 396.1,86.775 396.214,86.622 C 396.328,86.471 396.417,86.348 396.484,86.245 C 396.785,85.783 396.822,85.479 396.601,85.337 C 396.128,85.029 395.464,85.034 394.611,85.35 C 393.757,85.668 392.897,86.214 392.027,86.988 C 391.894,87.17 391.709,87.405 391.468,87.695 C 391.272,87.931 391.093,88.174 390.935,88.419 C 390.831,88.576 390.658,88.808 390.42,89.111 C 390.183,89.416 390.01,89.646 389.905,89.806 C 389.695,90.132 389.409,90.329 389.049,90.399 C 388.692,90.47 388.343,90.397 388.007,90.177 C 387.674,89.96 387.465,89.675 387.384,89.323 C 387.304,88.967 387.369,88.629 387.579,88.306 C 387.681,88.146 387.82,87.896 387.996,87.554 C 388.169,87.212 388.308,86.963 388.412,86.804 C 388.765,86.259 389.295,85.527 389.996,84.605 C 390.699,83.683 391.229,82.953 391.581,82.41 C 391.693,82.238 391.849,81.981 392.053,81.633 C 392.257,81.285 392.412,81.029 392.519,80.866 C 392.727,80.546 393.01,80.358 393.366,80.298 C 393.726,80.235 394.069,80.311 394.396,80.523 C 395.119,80.993 395.221,81.682 394.704,82.589 L 394.655,82.685 C 395.994,82.395 397.113,82.541 398.011,83.124 C 399.059,83.807 399.496,84.715 399.325,85.853 C 399.208,86.616 398.768,87.585 398.007,88.759 L 397.621,89.35 C 397.45,89.603 397.33,89.782 397.261,89.888 C 396.98,90.322 396.672,90.918 396.344,91.676 C 396.013,92.436 395.708,93.027 395.43,93.458 C 395.227,93.769 394.95,93.955 394.593,94.018 C 394.242,94.082 393.9,94.007 393.574,93.795 z "
           id="path297" />
        <path
           style="fill:#ff4100"
           d="M 400.299,97.847 C 398.972,96.984 398.093,95.964 397.661,94.784 C 397.183,93.478 397.357,92.193 398.184,90.919 C 399.095,89.515 400.236,88.566 401.606,88.074 C 403.126,87.528 404.584,87.708 405.977,88.614 C 406.94,89.239 407.642,89.915 408.078,90.64 C 408.647,91.594 408.651,92.507 408.089,93.372 C 407.693,93.985 407.001,94.304 406.011,94.334 C 405.562,94.349 404.734,94.263 403.527,94.069 L 399.923,93.495 C 399.999,93.957 400.182,94.381 400.463,94.77 C 400.747,95.159 401.132,95.512 401.618,95.828 C 402.36,96.31 403.087,96.565 403.801,96.596 C 404.437,96.62 404.893,96.723 405.168,96.904 C 405.745,97.278 405.851,97.745 405.487,98.306 C 405.075,98.939 404.278,99.154 403.093,98.952 C 402.099,98.779 401.167,98.412 400.299,97.847 z M 404.667,90.638 C 404.149,90.304 403.598,90.188 403.005,90.294 C 402.416,90.4 401.784,90.724 401.116,91.271 C 401.919,91.407 402.72,91.543 403.517,91.68 C 404.485,91.829 405.286,91.902 405.916,91.902 C 405.683,91.447 405.266,91.027 404.667,90.638 z "
           id="path299" />
        <path
           style="fill:#ff4100"
           d="M 416.736,99.466 C 416.133,100.289 415.468,100.463 414.743,99.992 C 414.041,99.535 413.925,98.946 414.397,98.219 L 414.904,97.348 C 413.529,96.739 412.226,96.804 410.99,97.535 L 408.284,101.723 C 408.079,102.039 407.799,102.231 407.449,102.3 C 407.097,102.366 406.756,102.292 406.424,102.078 C 406.081,101.854 405.889,101.571 405.844,101.227 C 405.798,100.912 405.875,100.6 406.074,100.289 L 409.613,94.839 C 409.724,94.669 409.898,94.416 410.131,94.083 C 410.361,93.75 410.535,93.497 410.647,93.323 C 410.849,93.013 411.111,92.813 411.429,92.727 C 411.751,92.638 412.082,92.707 412.426,92.929 C 413.038,93.327 413.199,93.88 412.905,94.59 C 414.365,94.491 415.694,94.829 416.892,95.609 C 417.998,96.327 418.072,97.43 417.11,98.914 C 416.923,99.197 416.799,99.382 416.736,99.466 z "
           id="path301" />
      </g>
    </g>
    <g
       id="g303"
       transform="matrix(0.5,0,0,0.5,256.45157,772.29433)">
      <g
         id="g305">
        <g
           id="g307" />
      </g>
      <path
         id="path3817_1_"
         style="fill:#aab2ab"
         d="M 329.795,154.975 L 415.343,155.127 C 416.538,155.127 417.607,154.949 417.607,157.512 L 417.502,185.688 L 327.637,185.688 L 327.637,157.409 C 327.636,156.145 327.758,154.975 329.795,154.975 z " />
      <path
         d="M 416.091,154.639 L 328.918,154.639 C 327.983,154.639 327.222,155.4 327.222,156.334 L 327.222,185.956 C 327.222,186.168 327.394,186.339 327.605,186.339 L 417.403,186.339 C 417.614,186.339 417.786,186.168 417.786,185.956 L 417.786,156.334 C 417.787,155.4 417.025,154.639 416.091,154.639 z M 328.918,155.405 L 416.091,155.405 C 416.603,155.405 417.021,155.822 417.021,156.335 C 417.021,156.335 417.021,168.253 417.021,176.876 L 354.716,176.876 C 352.432,181.005 348.031,183.809 342.982,183.809 C 337.931,183.809 333.532,181.008 331.25,176.876 L 327.989,176.876 C 327.989,168.253 327.989,156.335 327.989,156.335 C 327.989,155.822 328.406,155.405 328.918,155.405 z "
         id="path310" />
      <g
         id="g5908_1_">
        <path
           id="path5906_1_"
           style="fill:#ffffff"
           d="M 353.276,169.391 C 353.28,175.074 348.675,179.683 342.992,179.687 C 337.309,179.69 332.7,175.086 332.696,169.403 C 332.696,169.399 332.696,169.395 332.696,169.391 C 332.692,163.707 337.297,159.098 342.98,159.094 C 348.664,159.091 353.274,163.696 353.276,169.378 C 353.276,169.382 353.276,169.386 353.276,169.391 z " />
        <g
           id="g5706_1_">
          <path
             d="M 351.353,161.009 C 353.634,163.291 354.775,166.085 354.775,169.391 C 354.775,172.697 353.654,175.461 351.412,177.684 C 349.031,180.026 346.219,181.196 342.973,181.196 C 339.766,181.196 337.002,180.036 334.682,177.714 C 332.36,175.393 331.2,172.618 331.2,169.392 C 331.2,166.166 332.36,163.371 334.682,161.01 C 336.944,158.728 339.708,157.586 342.973,157.586 C 346.277,157.585 349.07,158.727 351.353,161.009 z M 336.216,162.544 C 334.287,164.492 333.322,166.775 333.322,169.394 C 333.322,172.011 334.277,174.275 336.186,176.184 C 338.096,178.092 340.369,179.047 343.006,179.047 C 345.643,179.047 347.936,178.083 349.885,176.154 C 351.735,174.363 352.66,172.109 352.66,169.393 C 352.66,166.697 351.719,164.408 349.84,162.529 C 347.96,160.649 345.682,159.709 343.006,159.709 C 340.33,159.709 338.066,160.655 336.216,162.544 z M 341.293,168.243 C 340.999,167.599 340.558,167.278 339.969,167.278 C 338.929,167.278 338.409,167.979 338.409,169.38 C 338.409,170.781 338.929,171.48 339.969,171.48 C 340.656,171.48 341.147,171.139 341.441,170.457 L 342.883,171.225 C 342.195,172.446 341.164,173.057 339.789,173.057 C 338.728,173.057 337.879,172.733 337.241,172.082 C 336.602,171.432 336.283,170.535 336.283,169.393 C 336.283,168.27 336.613,167.378 337.27,166.718 C 337.928,166.057 338.748,165.728 339.73,165.728 C 341.184,165.728 342.224,166.3 342.854,167.445 L 341.293,168.243 z M 348.078,168.243 C 347.783,167.599 347.35,167.278 346.78,167.278 C 345.719,167.278 345.188,167.979 345.188,169.38 C 345.188,170.781 345.719,171.48 346.78,171.48 C 347.468,171.48 347.95,171.139 348.225,170.457 L 349.7,171.225 C 349.013,172.446 347.984,173.057 346.611,173.057 C 345.552,173.057 344.705,172.733 344.067,172.082 C 343.43,171.432 343.111,170.535 343.111,169.393 C 343.111,168.27 343.435,167.378 344.082,166.718 C 344.729,166.057 345.552,165.728 346.552,165.728 C 348.003,165.728 349.042,166.3 349.669,167.445 L 348.078,168.243 z "
             id="path315" />
        </g>
      </g>
      <g
         id="g370_2_"
         style="enable-background:new">
        <path
           style="fill:#ffffff"
           d="M 363.519,179.356 C 363.757,179.356 363.975,179.377 364.171,179.418 C 364.367,179.46 364.534,179.529 364.675,179.625 C 364.816,179.721 364.924,179.848 365.001,180.006 C 365.079,180.164 365.117,180.36 365.117,180.594 C 365.117,180.846 365.059,181.055 364.944,181.223 C 364.831,181.392 364.661,181.529 364.436,181.637 C 364.745,181.725 364.976,181.88 365.128,182.102 C 365.28,182.325 365.357,182.592 365.357,182.905 C 365.357,183.157 365.307,183.375 365.21,183.559 C 365.112,183.743 364.98,183.894 364.814,184.01 C 364.648,184.127 364.459,184.213 364.246,184.27 C 364.033,184.327 363.814,184.354 363.59,184.354 L 361.163,184.354 L 361.163,179.356 L 363.519,179.356 L 363.519,179.356 z M 363.378,181.377 C 363.573,181.377 363.735,181.33 363.862,181.236 C 363.987,181.144 364.05,180.993 364.05,180.783 C 364.05,180.667 364.029,180.571 363.987,180.497 C 363.945,180.422 363.889,180.365 363.819,180.322 C 363.749,180.28 363.669,180.251 363.577,180.234 C 363.487,180.218 363.391,180.211 363.294,180.211 L 362.264,180.211 L 362.264,181.377 L 363.378,181.377 z M 363.442,183.499 C 363.549,183.499 363.652,183.489 363.751,183.468 C 363.849,183.447 363.935,183.411 364.011,183.363 C 364.085,183.314 364.145,183.248 364.189,183.164 C 364.234,183.08 364.256,182.973 364.256,182.842 C 364.256,182.586 364.183,182.403 364.038,182.293 C 363.893,182.183 363.702,182.129 363.464,182.129 L 362.264,182.129 L 362.264,183.5 L 363.442,183.5 L 363.442,183.499 z "
           id="path318" />
        <polygon
           id="path374_2_"
           style="fill:#ffffff"
           points="365.552,179.356 366.784,179.356 367.954,181.33 369.118,179.356 370.343,179.356 368.487,182.436 368.487,184.354 367.386,184.354 367.386,182.408 365.552,179.356 " />
      </g>
      <g
         id="g376_2_"
         style="enable-background:new">
        <polygon
           id="path378_2_"
           style="fill:#ffffff"
           points="381.951,179.356 384.04,182.709 384.052,182.709 384.052,179.356 385.083,179.356 385.083,184.354 383.983,184.354 381.903,181.007 381.89,181.007 381.89,184.354 380.858,184.354 380.858,179.356 381.951,179.356 " />
        <path
           id="path380_2_"
           style="fill:#ffffff"
           d="M 389.255,180.688 C 389.191,180.583 389.109,180.49 389.009,180.411 C 388.911,180.332 388.801,180.269 388.677,180.225 C 388.554,180.18 388.423,180.159 388.288,180.159 C 388.042,180.159 387.831,180.206 387.658,180.303 C 387.485,180.398 387.345,180.527 387.239,180.687 C 387.131,180.849 387.051,181.032 387.003,181.237 C 386.955,181.442 386.931,181.654 386.931,181.874 C 386.931,182.084 386.954,182.289 387.003,182.486 C 387.052,182.684 387.131,182.863 387.239,183.021 C 387.344,183.18 387.485,183.306 387.658,183.403 C 387.831,183.499 388.042,183.547 388.288,183.547 C 388.624,183.547 388.888,183.444 389.076,183.238 C 389.264,183.033 389.381,182.761 389.423,182.426 L 390.487,182.426 C 390.459,182.738 390.385,183.022 390.27,183.274 C 390.153,183.527 389.999,183.741 389.807,183.92 C 389.616,184.098 389.392,184.233 389.135,184.327 C 388.879,184.421 388.596,184.468 388.287,184.468 C 387.904,184.468 387.56,184.402 387.254,184.268 C 386.949,184.136 386.691,183.952 386.481,183.718 C 386.27,183.486 386.108,183.21 385.997,182.896 C 385.886,182.58 385.829,182.241 385.829,181.876 C 385.829,181.502 385.886,181.155 385.997,180.835 C 386.108,180.516 386.27,180.236 386.481,179.999 C 386.691,179.761 386.95,179.573 387.254,179.438 C 387.561,179.302 387.904,179.235 388.287,179.235 C 388.562,179.235 388.823,179.274 389.068,179.354 C 389.312,179.433 389.533,179.549 389.726,179.702 C 389.919,179.853 390.08,180.042 390.205,180.265 C 390.33,180.488 390.41,180.746 390.442,181.036 L 389.379,181.036 C 389.362,180.908 389.319,180.792 389.255,180.688 z " />
      </g>
      <g
         id="g382_2_"
         style="enable-background:new">
        <polygon
           id="path384_2_"
           style="fill:#ffffff"
           points="401.451,179.356 403.541,182.709 403.552,182.709 403.552,179.356 404.583,179.356 404.583,184.354 403.484,184.354 401.404,181.007 401.39,181.007 401.39,184.354 400.359,184.354 400.359,179.356 401.451,179.356 " />
        <path
           style="fill:#ffffff"
           d="M 407.705,179.356 C 408.027,179.356 408.328,179.407 408.605,179.51 C 408.884,179.612 409.125,179.766 409.328,179.971 C 409.531,180.176 409.689,180.434 409.805,180.742 C 409.918,181.05 409.977,181.412 409.977,181.827 C 409.977,182.191 409.93,182.526 409.836,182.835 C 409.742,183.144 409.602,183.409 409.412,183.633 C 409.222,183.857 408.986,184.034 408.703,184.161 C 408.422,184.29 408.088,184.354 407.705,184.354 L 405.547,184.354 L 405.547,179.356 L 407.705,179.356 L 407.705,179.356 z M 407.626,183.428 C 407.786,183.428 407.94,183.403 408.089,183.351 C 408.239,183.299 408.372,183.215 408.487,183.096 C 408.604,182.977 408.698,182.823 408.768,182.631 C 408.838,182.439 408.873,182.206 408.873,181.932 C 408.873,181.68 408.848,181.453 408.799,181.25 C 408.75,181.047 408.67,180.873 408.557,180.729 C 408.446,180.584 408.297,180.473 408.114,180.397 C 407.928,180.32 407.702,180.282 407.43,180.282 L 406.647,180.282 L 406.647,183.428 L 407.626,183.428 z "
           id="path326" />
      </g>
      <g
         id="g6370_3_">
        <g
           id="g7610_3_">
          <path
             id="path6372_3_"
             style="fill:#ffffff"
             d="M 393.485,165.946 C 393.489,170.098 390.126,173.466 385.973,173.469 C 381.823,173.471 378.455,170.108 378.452,165.957 C 378.452,165.952 378.452,165.949 378.452,165.945 C 378.45,161.794 381.813,158.425 385.964,158.423 C 390.116,158.42 393.484,161.783 393.485,165.935 C 393.485,165.938 393.485,165.943 393.485,165.946 z " />
          <path
             d="M 385.958,157.195 C 388.411,157.195 390.485,158.041 392.179,159.732 C 393.874,161.424 394.722,163.497 394.722,165.946 C 394.722,168.396 393.888,170.446 392.224,172.094 C 390.456,173.83 388.368,174.698 385.958,174.698 C 383.577,174.698 381.526,173.837 379.802,172.116 C 378.079,170.395 377.218,168.339 377.218,165.946 C 377.218,163.553 378.079,161.482 379.802,159.732 C 381.481,158.041 383.534,157.195 385.958,157.195 z M 379.187,163.594 C 378.925,164.333 378.794,165.117 378.794,165.946 C 378.794,167.886 379.503,169.563 380.92,170.979 C 382.337,172.393 384.023,173.1 385.98,173.1 C 387.937,173.1 389.638,172.385 391.084,170.955 C 391.568,170.488 391.969,169.977 392.281,169.425 L 388.98,167.956 C 388.757,169.066 387.767,169.815 386.572,169.903 L 386.572,171.253 L 385.568,171.253 L 385.568,169.903 C 384.586,169.892 383.636,169.49 382.912,168.855 L 384.117,167.64 C 384.697,168.186 385.277,168.431 386.07,168.431 C 386.584,168.431 387.152,168.23 387.152,167.562 C 387.152,167.325 387.061,167.16 386.918,167.036 L 386.082,166.666 L 385.043,166.202 C 384.529,165.973 384.094,165.779 383.657,165.585 L 379.187,163.594 z M 385.979,158.77 C 383.993,158.77 382.314,159.469 380.94,160.87 C 380.567,161.248 380.243,161.641 379.967,162.053 L 383.311,163.542 C 383.614,162.614 384.497,162.051 385.567,161.989 L 385.567,160.639 L 386.571,160.639 L 386.571,161.989 C 387.264,162.022 388.022,162.212 388.77,162.791 L 387.62,163.974 C 387.196,163.673 386.661,163.46 386.126,163.46 C 385.69,163.46 385.075,163.594 385.075,164.141 C 385.075,164.224 385.104,164.297 385.155,164.363 L 386.274,164.861 L 387.031,165.199 C 387.514,165.415 387.977,165.62 388.436,165.824 L 392.92,167.82 C 393.068,167.234 393.143,166.609 393.143,165.947 C 393.143,163.949 392.442,162.257 391.039,160.871 C 389.653,159.469 387.966,158.77 385.979,158.77 z "
             id="path331" />
        </g>
      </g>
      <g
         id="g6394_3_">
        <path
           id="path6396_3_"
           style="fill:#ffffff"
           d="M 413.763,165.946 C 413.767,170.358 410.193,173.937 405.781,173.941 C 401.369,173.944 397.789,170.37 397.786,165.958 C 397.786,165.954 397.786,165.95 397.786,165.946 C 397.783,161.535 401.357,157.956 405.769,157.952 C 410.181,157.948 413.759,161.522 413.763,165.934 C 413.763,165.938 413.763,165.942 413.763,165.946 z " />
        <g
           id="g6398_3_">
          <path
             d="M 405.65,157.195 C 403.226,157.195 401.173,158.04 399.494,159.732 C 397.771,161.482 396.91,163.553 396.91,165.946 C 396.91,168.339 397.771,170.395 399.494,172.116 C 401.217,173.837 403.269,174.698 405.65,174.698 C 408.06,174.698 410.148,173.83 411.916,172.094 C 413.58,170.446 414.412,168.396 414.412,165.946 C 414.412,163.495 413.566,161.425 411.871,159.732 C 410.177,158.04 408.103,157.195 405.65,157.195 z M 405.671,158.769 C 407.657,158.769 409.343,159.469 410.732,160.87 C 412.134,162.256 412.834,163.948 412.834,165.946 C 412.834,167.96 412.148,169.63 410.777,170.956 C 409.33,172.386 407.629,173.101 405.672,173.101 C 403.715,173.101 402.027,172.394 400.611,170.978 C 399.195,169.564 398.486,167.886 398.486,165.947 C 398.486,164.007 399.201,162.315 400.635,160.871 C 402.005,159.469 403.685,158.769 405.671,158.769 z "
             id="path336" />
          <g
             id="g6402_3_">
            <path
               d="M 408.966,163.872 L 402.605,163.872 L 402.605,165.379 L 408.966,165.379 L 408.966,163.872 z M 408.966,166.684 L 402.605,166.684 L 402.605,168.191 L 408.966,168.191 L 408.966,166.684 z "
               id="path339" />
          </g>
        </g>
      </g>
      <g
         id="g398_2_">
        <circle
           id="circle400_2_"
           style="fill:#ffffff"
           cx="366.28799"
           cy="166.125"
           r="8.1040001"
           sodipodi:cx="366.28799"
           sodipodi:cy="166.125"
           sodipodi:rx="8.1040001"
           sodipodi:ry="8.1040001" />
        <g
           id="g402_2_">
          <path
             id="path404_2_"
             d="M 368.634,163.779 C 368.634,163.467 368.381,163.214 368.07,163.214 L 364.49,163.214 C 364.178,163.214 363.926,163.468 363.926,163.779 L 363.926,167.359 L 364.924,167.359 L 364.924,171.598 L 367.637,171.598 L 367.637,167.359 L 368.635,167.359 L 368.635,163.779 L 368.634,163.779 z " />
          <circle
             id="circle406_2_"
             cx="366.27802"
             cy="161.51801"
             r="1.225"
             sodipodi:cx="366.27802"
             sodipodi:cy="161.51801"
             sodipodi:rx="1.225"
             sodipodi:ry="1.225" />
        </g>
        <path
           d="M 366.269,157.195 C 363.845,157.195 361.792,158.04 360.113,159.733 C 358.39,161.482 357.529,163.553 357.529,165.946 C 357.529,168.338 358.39,170.395 360.113,172.116 C 361.837,173.837 363.888,174.698 366.269,174.698 C 368.677,174.698 370.767,173.83 372.535,172.094 C 374.199,170.447 375.031,168.397 375.031,165.947 C 375.031,163.496 374.185,161.426 372.49,159.734 C 370.796,158.04 368.722,157.195 366.269,157.195 z M 366.29,158.769 C 368.276,158.769 369.963,159.469 371.351,160.87 C 372.753,162.256 373.455,163.948 373.455,165.946 C 373.455,167.959 372.767,169.63 371.394,170.956 C 369.949,172.386 368.248,173.101 366.29,173.101 C 364.332,173.101 362.645,172.394 361.229,170.979 C 359.813,169.564 359.104,167.886 359.104,165.947 C 359.104,164.008 359.82,162.315 361.25,160.871 C 362.624,159.469 364.304,158.769 366.29,158.769 z "
           id="path346" />
      </g>
    </g>
  </g>
</svg>
