<?xml version="1.0" encoding="UTF-8" standalone="no"?>
<!-- Created with Inkscape (http://www.inkscape.org/) -->
<svg
   xmlns:dc="http://purl.org/dc/elements/1.1/"
   xmlns:cc="http://web.resource.org/cc/"
   xmlns:rdf="http://www.w3.org/1999/02/22-rdf-syntax-ns#"
   xmlns:svg="http://www.w3.org/2000/svg"
   xmlns="http://www.w3.org/2000/svg"
   xmlns:sodipodi="http://sodipodi.sourceforge.net/DTD/sodipodi-0.dtd"
   xmlns:inkscape="http://www.inkscape.org/namespaces/inkscape"
   width="142.73199"
   height="163.41475"
   id="svg3300"
   sodipodi:version="0.32"
   inkscape:version="0.45.1"
   version="1.0"
   sodipodi:docbase="/Users/robmyers/Desktop/cc-ironies/final"
   sodipodi:docname="faces_not_vase.svg"
   inkscape:output_extension="org.inkscape.output.svg.inkscape">
  <defs
     id="defs3302" />
  <sodipodi:namedview
     inkscape:document-units="mm"
     pagecolor="#ffffff"
     bordercolor="#666666"
     borderopacity="1.0"
     inkscape:pageopacity="0.0"
     inkscape:pageshadow="2"
     inkscape:zoom="2.3131327"
     inkscape:cx="71.365997"
     inkscape:cy="81.707375"
     inkscape:current-layer="layer1"
     id="namedview3304"
     inkscape:window-width="697"
     inkscape:window-height="581"
     inkscape:window-x="20"
     inkscape:window-y="42" />
  <metadata
     id="metadata3306">
    <rdf:RDF>
      <cc:Work
         rdf:about="">
        <dc:format>image/svg+xml</dc:format>
        <dc:type
           rdf:resource="http://purl.org/dc/dcmitype/StillImage" />
      </cc:Work>
    </rdf:RDF>
  </metadata>
  <g
     inkscape:label="Layer 1"
     inkscape:groupmode="layer"
     id="layer1"
     transform="translate(-260.31021,-15.211744)">
    <rect
       x="260.81021"
       y="15.711744"
       style="fill:#ffffff;stroke:#000000"
       width="141.73199"
       height="141.73199"
       id="rect121" />
    <g
       id="g123"
       transform="matrix(0.5,0,0,0.5,12.93521,85.45649)">
      <path
         id="path3817_3_"
         style="fill:#aab2ab"
         d="M 497.321,154.968 L 582.87,155.12 C 584.065,155.12 585.134,154.943 585.134,157.506 L 585.029,185.68 L 495.164,185.68 L 495.164,157.4 C 495.163,156.138 495.285,154.968 497.321,154.968 z " />
      <g
         id="g5908_3_">
        <path
           id="path5906_3_"
           style="fill:#ffffff"
           d="M 520.804,169.383 C 520.808,175.067 516.202,179.676 510.52,179.68 C 504.838,179.684 500.226,175.08 500.224,169.397 C 500.224,169.392 500.224,169.388 500.224,169.383 C 500.22,163.699 504.825,159.091 510.507,159.087 C 516.191,159.084 520.8,163.688 520.804,169.371 C 520.804,169.375 520.804,169.379 520.804,169.383 z " />
        <g
           id="g5706_3_">
          <path
             d="M 518.878,161.002 C 521.16,163.283 522.302,166.078 522.302,169.383 C 522.302,172.69 521.18,175.455 518.938,177.678 C 516.557,180.02 513.745,181.19 510.499,181.19 C 507.293,181.19 504.528,180.03 502.207,177.706 C 499.887,175.386 498.726,172.612 498.726,169.384 C 498.726,166.158 499.887,163.364 502.207,161.003 C 504.47,158.72 507.234,157.579 510.499,157.579 C 513.804,157.578 516.597,158.719 518.878,161.002 z M 503.743,162.537 C 501.813,164.486 500.849,166.768 500.849,169.387 C 500.849,172.004 501.804,174.268 503.712,176.176 C 505.621,178.086 507.895,179.041 510.532,179.041 C 513.169,179.041 515.463,178.076 517.41,176.146 C 519.261,174.355 520.186,172.103 520.186,169.386 C 520.186,166.69 519.246,164.402 517.366,162.521 C 515.486,160.643 513.209,159.703 510.532,159.703 C 507.855,159.703 505.593,160.648 503.743,162.537 z M 508.819,168.234 C 508.525,167.591 508.083,167.271 507.495,167.271 C 506.454,167.271 505.934,167.97 505.934,169.371 C 505.934,170.772 506.454,171.473 507.495,171.473 C 508.183,171.473 508.673,171.131 508.968,170.449 L 510.409,171.218 C 509.721,172.439 508.69,173.05 507.315,173.05 C 506.254,173.05 505.405,172.726 504.767,172.075 C 504.127,171.425 503.809,170.526 503.809,169.384 C 503.809,168.262 504.138,167.37 504.796,166.71 C 505.454,166.05 506.274,165.72 507.256,165.72 C 508.709,165.72 509.75,166.292 510.379,167.437 L 508.819,168.234 z M 515.604,168.234 C 515.309,167.591 514.876,167.271 514.306,167.271 C 513.244,167.271 512.714,167.97 512.714,169.371 C 512.714,170.772 513.244,171.473 514.306,171.473 C 514.994,171.473 515.476,171.131 515.751,170.449 L 517.226,171.218 C 516.539,172.439 515.51,173.05 514.137,173.05 C 513.078,173.05 512.23,172.726 511.592,172.075 C 510.956,171.425 510.637,170.526 510.637,169.384 C 510.637,168.262 510.96,167.37 511.608,166.71 C 512.254,166.05 513.079,165.72 514.079,165.72 C 515.53,165.72 516.569,166.292 517.196,167.437 L 515.604,168.234 z "
             id="path129" />
        </g>
      </g>
      <g
         id="g85_3_">
        <circle
           id="circle87_3_"
           style="fill:#ffffff"
           cx="542.56702"
           cy="166.09399"
           r="8.1049995"
           sodipodi:cx="542.56702"
           sodipodi:cy="166.09399"
           sodipodi:rx="8.1049995"
           sodipodi:ry="8.1049995" />
        <g
           id="g89_3_">
          <path
             id="path91_3_"
             d="M 544.913,163.749 C 544.913,163.436 544.659,163.184 544.347,163.184 L 540.769,163.184 C 540.457,163.184 540.203,163.436 540.203,163.749 L 540.203,167.328 L 541.201,167.328 L 541.201,171.568 L 543.914,171.568 L 543.914,167.328 L 544.914,167.328 L 544.914,163.749 L 544.913,163.749 z " />
          <circle
             id="circle93_3_"
             cx="542.55798"
             cy="161.48801"
             r="1.225"
             sodipodi:cx="542.55798"
             sodipodi:cy="161.48801"
             sodipodi:rx="1.225"
             sodipodi:ry="1.225" />
        </g>
        <path
           d="M 542.546,157.164 C 540.122,157.164 538.069,158.01 536.39,159.702 C 534.667,161.452 533.806,163.523 533.806,165.916 C 533.806,168.307 534.667,170.364 536.39,172.086 C 538.114,173.807 540.166,174.668 542.546,174.668 C 544.956,174.668 547.046,173.799 548.812,172.063 C 550.478,170.417 551.31,168.367 551.31,165.917 C 551.31,163.466 550.462,161.396 548.769,159.703 C 547.076,158.01 545.001,157.164 542.546,157.164 z M 542.569,158.739 C 544.555,158.739 546.241,159.439 547.628,160.84 C 549.032,162.225 549.732,163.918 549.732,165.916 C 549.732,167.928 549.046,169.599 547.673,170.926 C 546.228,172.356 544.527,173.071 542.569,173.071 C 540.611,173.071 538.924,172.362 537.507,170.948 C 536.09,169.534 535.382,167.856 535.382,165.917 C 535.382,163.976 536.098,162.284 537.529,160.841 C 538.902,159.439 540.583,158.739 542.569,158.739 z "
           id="path136" />
      </g>
      <path
         d="M 583.618,154.639 L 496.445,154.639 C 495.51,154.639 494.75,155.4 494.75,156.334 L 494.75,185.955 C 494.75,186.168 494.921,186.34 495.133,186.34 L 584.931,186.34 C 585.142,186.34 585.314,186.168 585.314,185.955 L 585.314,156.334 C 585.313,155.399 584.552,154.639 583.618,154.639 z M 496.445,155.404 L 583.618,155.404 C 584.13,155.404 584.548,155.821 584.548,156.334 C 584.548,156.334 584.548,168.246 584.548,176.867 L 522.241,176.867 C 519.958,180.998 515.557,183.801 510.509,183.801 C 505.457,183.801 501.059,181 498.777,176.867 L 495.516,176.867 C 495.516,168.246 495.516,156.334 495.516,156.334 C 495.516,155.821 495.933,155.404 496.445,155.404 z "
         id="path138" />
      <g
         id="g99_3_"
         style="enable-background:new">
        <path
           style="fill:#ffffff"
           d="M 540.028,179.355 C 540.266,179.355 540.484,179.376 540.68,179.417 C 540.877,179.46 541.045,179.528 541.186,179.624 C 541.327,179.72 541.434,179.847 541.512,180.005 C 541.588,180.165 541.627,180.359 541.627,180.593 C 541.627,180.845 541.57,181.056 541.455,181.224 C 541.34,181.39 541.17,181.529 540.947,181.636 C 541.256,181.724 541.486,181.88 541.638,182.101 C 541.79,182.324 541.867,182.591 541.867,182.904 C 541.867,183.156 541.818,183.375 541.721,183.558 C 541.621,183.744 541.491,183.892 541.325,184.009 C 541.159,184.126 540.97,184.214 540.757,184.269 C 540.543,184.326 540.325,184.353 540.1,184.353 L 537.673,184.353 L 537.673,179.355 L 540.028,179.355 z M 539.888,181.377 C 540.085,181.377 540.245,181.332 540.372,181.238 C 540.498,181.144 540.561,180.992 540.561,180.783 C 540.561,180.668 540.54,180.572 540.498,180.498 C 540.456,180.424 540.4,180.365 540.33,180.324 C 540.26,180.281 540.179,180.252 540.088,180.236 C 539.997,180.218 539.902,180.211 539.804,180.211 L 538.775,180.211 L 538.775,181.377 L 539.888,181.377 L 539.888,181.377 z M 539.952,183.498 C 540.06,183.498 540.163,183.488 540.261,183.467 C 540.36,183.446 540.447,183.412 540.521,183.362 C 540.596,183.313 540.656,183.247 540.701,183.163 C 540.746,183.079 540.767,182.974 540.767,182.841 C 540.767,182.585 540.695,182.402 540.549,182.294 C 540.403,182.183 540.212,182.128 539.974,182.128 L 538.775,182.128 L 538.775,183.499 L 539.952,183.499 L 539.952,183.498 z "
           id="path141" />
        <polygon
           id="path103_3_"
           style="fill:#ffffff"
           points="542.062,179.355 543.296,179.355 544.466,181.33 545.628,179.355 546.854,179.355 544.999,182.436 544.999,184.354 543.897,184.354 543.897,182.408 542.062,179.355 " />
      </g>
      <g
         id="g105_3_"
         style="enable-background:new">
        <polygon
           id="path107_3_"
           style="fill:#ffffff"
           points="559.603,179.355 561.69,182.709 561.702,182.709 561.702,179.355 562.733,179.355 562.733,184.354 561.636,184.354 559.556,181.008 559.54,181.008 559.54,184.354 558.509,184.354 558.509,179.355 559.603,179.355 " />
        <path
           style="fill:#ffffff"
           d="M 565.856,179.355 C 566.178,179.355 566.477,179.406 566.756,179.509 C 567.033,179.613 567.274,179.767 567.479,179.972 C 567.682,180.177 567.84,180.433 567.954,180.74 C 568.069,181.051 568.128,181.412 568.128,181.826 C 568.128,182.191 568.081,182.527 567.987,182.834 C 567.893,183.143 567.753,183.408 567.563,183.633 C 567.373,183.858 567.137,184.033 566.854,184.162 C 566.571,184.291 566.239,184.353 565.856,184.353 L 563.698,184.353 L 563.698,179.355 L 565.856,179.355 L 565.856,179.355 z M 565.778,183.428 C 565.938,183.428 566.09,183.403 566.241,183.352 C 566.389,183.301 566.524,183.215 566.639,183.096 C 566.756,182.977 566.85,182.823 566.92,182.631 C 566.99,182.439 567.025,182.207 567.025,181.932 C 567.025,181.68 567,181.453 566.951,181.25 C 566.902,181.047 566.822,180.873 566.709,180.729 C 566.598,180.584 566.449,180.475 566.266,180.397 C 566.08,180.321 565.854,180.282 565.582,180.282 L 564.8,180.282 L 564.8,183.428 L 565.778,183.428 z "
           id="path146" />
      </g>
      <g
         id="g6501_3_">
        <path
           id="path6503_3_"
           style="fill:#ffffff"
           d="M 572.103,165.945 C 572.105,170.357 568.531,173.937 564.119,173.939 C 559.709,173.943 556.129,170.369 556.125,165.957 C 556.125,165.953 556.125,165.948 556.125,165.945 C 556.123,161.533 559.697,157.955 564.109,157.951 C 568.521,157.947 572.099,161.521 572.103,165.933 C 572.103,165.938 572.103,165.941 572.103,165.945 z " />
        <g
           id="g6505_3_">
          <path
             d="M 563.987,157.193 C 561.563,157.193 559.51,158.039 557.833,159.73 C 556.108,161.481 555.247,163.552 555.247,165.945 C 555.247,168.338 556.108,170.393 557.833,172.115 C 559.556,173.838 561.606,174.697 563.987,174.697 C 566.397,174.697 568.485,173.828 570.253,172.093 C 571.919,170.445 572.751,168.395 572.751,165.945 C 572.751,163.494 571.903,161.424 570.21,159.73 C 568.515,158.039 566.44,157.193 563.987,157.193 z M 564.011,158.768 C 565.995,158.768 567.683,159.469 569.072,160.87 C 570.472,162.256 571.174,163.946 571.174,165.946 C 571.174,167.959 570.488,169.629 569.115,170.956 C 567.668,172.386 565.967,173.101 564.011,173.101 C 562.052,173.101 560.366,172.394 558.949,170.978 C 557.533,169.564 556.826,167.886 556.826,165.947 C 556.826,164.006 557.541,162.315 558.972,160.871 C 560.345,159.469 562.024,158.768 564.011,158.768 z "
             id="path151" />
          <g
             id="g6509_3_">
            <path
               d="M 567.306,163.871 L 560.945,163.871 L 560.945,165.378 L 567.306,165.378 L 567.306,163.871 z M 567.306,166.684 L 560.945,166.684 L 560.945,168.191 L 567.306,168.191 L 567.306,166.684 z "
               id="path154" />
          </g>
        </g>
      </g>
    </g>
    <path
       id="path409"
       d="M 330.33421,151.37774 C 330.33421,146.77774 333.73321,147.97874 337.33421,144.37774 C 340.93421,140.77774 345.98321,143.42874 349.33421,140.07774 C 352.68421,136.72774 355.83421,140.07774 361.13421,134.77774 C 366.43421,129.47774 361.13421,122.17774 361.13421,122.17774 L 364.53321,118.77774 L 362.53321,116.77774 L 364.93321,114.37774 L 362.93321,105.97874 L 372.13321,103.57874 C 372.13321,103.57874 372.13321,100.77874 369.33321,97.978744 C 366.53221,95.178744 360.53221,84.778744 362.93321,77.978744 C 365.33421,71.178744 365.33321,68.377744 367.33321,62.778744 C 369.33321,57.179744 367.31421,50.783744 363.33321,41.778744 C 359.10121,32.207744 349.33321,22.721744 328.18921,22.721744 L 289.78921,22.721744 C 310.93321,22.721744 320.70021,32.206744 324.93321,41.778744 C 328.91421,50.783744 330.93321,57.178744 328.93321,62.778744 C 326.93321,68.378744 326.93321,71.178744 324.53321,77.978744 C 322.13421,84.778744 328.13421,95.178744 330.93321,97.978744 C 333.73221,100.77874 333.73321,103.57874 333.73321,103.57874 L 324.53321,105.97874 L 326.53321,114.37774 L 324.13421,116.77774 L 326.13421,118.77774 L 322.73421,122.17774 C 322.73421,122.17774 328.03421,129.47774 322.73421,134.77774 C 317.43421,140.07774 314.28421,136.72774 310.93421,140.07774 C 307.58421,143.42874 302.53421,140.77774 298.93421,144.37774 C 295.33421,147.97874 291.93421,146.77774 291.93421,151.37774 L 330.33421,151.37774 z " />
  </g>
</svg>
