<?xml version="1.0" encoding="UTF-8" standalone="no"?>
<!-- Created with Inkscape (http://www.inkscape.org/) -->
<svg
   xmlns:dc="http://purl.org/dc/elements/1.1/"
   xmlns:cc="http://web.resource.org/cc/"
   xmlns:rdf="http://www.w3.org/1999/02/22-rdf-syntax-ns#"
   xmlns:svg="http://www.w3.org/2000/svg"
   xmlns="http://www.w3.org/2000/svg"
   xmlns:sodipodi="http://sodipodi.sourceforge.net/DTD/sodipodi-0.dtd"
   xmlns:inkscape="http://www.inkscape.org/namespaces/inkscape"
   width="142.73199"
   height="163.41325"
   id="svg2776"
   sodipodi:version="0.32"
   inkscape:version="0.45.1"
   version="1.0"
   sodipodi:docbase="/Users/robmyers/Desktop/cc-ironies/final"
   sodipodi:docname="fifty_percent_off.svg"
   inkscape:output_extension="org.inkscape.output.svg.inkscape">
  <defs
     id="defs2778" />
  <sodipodi:namedview
     id="base"
     pagecolor="#ffffff"
     bordercolor="#666666"
     borderopacity="1.0"
     gridtolerance="10000"
     guidetolerance="10"
     objecttolerance="10"
     inkscape:pageopacity="0.0"
     inkscape:pageshadow="2"
     inkscape:zoom="2.3131539"
     inkscape:cx="71.365997"
     inkscape:cy="81.706627"
     inkscape:document-units="px"
     inkscape:current-layer="layer1"
     inkscape:window-width="697"
     inkscape:window-height="581"
     inkscape:window-x="67"
     inkscape:window-y="22" />
  <metadata
     id="metadata2781">
    <rdf:RDF>
      <cc:Work
         rdf:about="">
        <dc:format>image/svg+xml</dc:format>
        <dc:type
           rdf:resource="http://purl.org/dc/dcmitype/StillImage" />
      </cc:Work>
    </rdf:RDF>
  </metadata>
  <g
     inkscape:label="Layer 1"
     inkscape:groupmode="layer"
     id="layer1"
     transform="translate(-565.77685,-316.33603)">
    <rect
       id="rect123"
       height="141.73199"
       width="141.73199"
       style="fill:#ffffff;stroke:#000000"
       y="316.83603"
       x="566.27686" />
    <g
       id="g125"
       transform="matrix(0.5,0,0,0.5,402.16585,386.58029)">
      <path
         d="M 329.793,154.97 L 415.342,155.121 C 416.537,155.121 417.605,154.944 417.605,157.507 L 417.501,185.682 L 327.636,185.682 L 327.636,157.403 C 327.635,156.139 327.757,154.97 329.793,154.97 z "
         style="fill:#aab2ab"
         id="path3817_1_" />
      <g
         id="g5908_1_">
        <path
           d="M 353.275,169.385 C 353.278,175.068 348.673,179.678 342.991,179.682 C 337.308,179.685 332.698,175.08 332.695,169.398 C 332.695,169.393 332.695,169.389 332.695,169.385 C 332.692,163.701 337.296,159.092 342.979,159.088 C 348.663,159.086 353.272,163.69 353.276,169.373 C 353.275,169.377 353.275,169.381 353.275,169.385 z "
           style="fill:#ffffff"
           id="path5906_1_" />
        <g
           id="g5706_1_">
          <path
             id="path131"
             d="M 351.35,161.004 C 353.632,163.285 354.773,166.08 354.773,169.385 C 354.773,172.692 353.651,175.455 351.409,177.678 C 349.028,180.02 346.216,181.191 342.97,181.191 C 339.764,181.191 336.999,180.03 334.678,177.708 C 332.357,175.388 331.196,172.613 331.196,169.386 C 331.196,166.159 332.357,163.365 334.678,161.005 C 336.94,158.722 339.705,157.581 342.97,157.581 C 346.275,157.58 349.068,158.721 351.35,161.004 z M 336.215,162.538 C 334.286,164.486 333.321,166.769 333.321,169.388 C 333.321,172.007 334.276,174.27 336.184,176.178 C 338.094,178.086 340.367,179.041 343.004,179.041 C 345.642,179.041 347.934,178.078 349.882,176.148 C 351.732,174.357 352.658,172.103 352.658,169.387 C 352.658,166.691 351.718,164.404 349.838,162.523 C 347.958,160.644 345.681,159.705 343.004,159.705 C 340.327,159.705 338.064,160.649 336.215,162.538 z M 341.291,168.236 C 340.997,167.593 340.555,167.271 339.967,167.271 C 338.926,167.271 338.406,167.972 338.406,169.373 C 338.406,170.774 338.926,171.475 339.967,171.475 C 340.655,171.475 341.145,171.133 341.44,170.45 L 342.882,171.219 C 342.194,172.441 341.163,173.05 339.788,173.05 C 338.727,173.05 337.878,172.726 337.24,172.075 C 336.601,171.425 336.282,170.528 336.282,169.386 C 336.282,168.263 336.611,167.372 337.269,166.712 C 337.927,166.052 338.747,165.722 339.729,165.722 C 341.182,165.722 342.223,166.294 342.852,167.439 L 341.291,168.236 z M 348.076,168.236 C 347.781,167.593 347.348,167.271 346.778,167.271 C 345.717,167.271 345.186,167.972 345.186,169.373 C 345.186,170.774 345.717,171.475 346.778,171.475 C 347.466,171.475 347.948,171.133 348.223,170.45 L 349.698,171.219 C 349.011,172.441 347.982,173.05 346.609,173.05 C 345.55,173.05 344.702,172.726 344.065,172.075 C 343.429,171.425 343.109,170.528 343.109,169.386 C 343.109,168.263 343.432,167.372 344.08,166.712 C 344.727,166.052 345.55,165.722 346.551,165.722 C 348.002,165.722 349.041,166.294 349.668,167.439 L 348.076,168.236 z " />
        </g>
      </g>
      <path
         id="path133"
         d="M 416.089,154.639 L 328.917,154.639 C 327.982,154.639 327.222,155.399 327.222,156.334 L 327.222,185.955 C 327.222,186.166 327.393,186.338 327.605,186.338 L 417.402,186.338 C 417.613,186.338 417.786,186.166 417.786,185.955 L 417.786,156.334 C 417.785,155.398 417.023,154.639 416.089,154.639 z M 328.917,155.404 L 416.089,155.404 C 416.602,155.404 417.019,155.82 417.019,156.334 C 417.019,156.334 417.019,168.248 417.019,176.869 L 354.713,176.869 C 352.429,180.998 348.029,183.803 342.981,183.803 C 337.929,183.803 333.531,181.002 331.248,176.869 L 327.988,176.869 C 327.988,168.248 327.988,156.334 327.988,156.334 C 327.987,155.82 328.404,155.404 328.917,155.404 z " />
      <g
         style="enable-background:new"
         id="g334_1_">
        <path
           id="path136"
           d="M 372.5,179.355 C 372.738,179.355 372.956,179.375 373.152,179.417 C 373.348,179.458 373.517,179.526 373.657,179.624 C 373.797,179.719 373.906,179.847 373.983,180.005 C 374.06,180.163 374.099,180.359 374.099,180.592 C 374.099,180.844 374.041,181.054 373.927,181.222 C 373.813,181.39 373.643,181.527 373.419,181.635 C 373.728,181.723 373.959,181.878 374.111,182.101 C 374.263,182.322 374.34,182.59 374.34,182.902 C 374.34,183.154 374.291,183.373 374.193,183.557 C 374.095,183.741 373.963,183.892 373.797,184.008 C 373.631,184.125 373.442,184.212 373.229,184.267 C 373.016,184.325 372.798,184.353 372.573,184.353 L 370.146,184.353 L 370.146,179.355 L 372.5,179.355 z M 372.36,181.377 C 372.556,181.377 372.717,181.33 372.844,181.236 C 372.97,181.143 373.033,180.992 373.033,180.783 C 373.033,180.666 373.012,180.57 372.97,180.496 C 372.928,180.422 372.872,180.364 372.802,180.322 C 372.732,180.279 372.651,180.25 372.56,180.234 C 372.469,180.217 372.374,180.211 372.276,180.211 L 371.247,180.211 L 371.247,181.377 L 372.36,181.377 z M 372.424,183.498 C 372.532,183.498 372.634,183.487 372.732,183.465 C 372.831,183.445 372.918,183.41 372.992,183.361 C 373.067,183.311 373.126,183.246 373.171,183.16 C 373.215,183.077 373.238,182.971 373.238,182.84 C 373.238,182.584 373.165,182.401 373.02,182.291 C 372.875,182.181 372.683,182.127 372.445,182.127 L 371.246,182.127 L 371.246,183.498 L 372.424,183.498 L 372.424,183.498 z "
           style="fill:#ffffff" />
        <polygon
           points="374.534,179.355 375.767,179.355 376.937,181.328 378.1,179.355 379.325,179.355 377.47,182.434 377.47,184.354 376.368,184.354 376.368,182.406 374.534,179.355 "
           style="fill:#ffffff"
           id="path338_1_" />
      </g>
      <g
         style="enable-background:new"
         id="g340_1_">
        <polygon
           points="392.452,179.355 394.541,182.708 394.553,182.708 394.553,179.355 395.584,179.355 395.584,184.354 394.484,184.354 392.404,181.006 392.39,181.006 392.39,184.354 391.359,184.354 391.359,179.355 392.452,179.355 "
           style="fill:#ffffff"
           id="path342_1_" />
        <path
           d="M 399.756,180.687 C 399.692,180.582 399.61,180.489 399.511,180.411 C 399.412,180.331 399.302,180.268 399.178,180.224 C 399.055,180.18 398.925,180.159 398.79,180.159 C 398.543,180.159 398.332,180.206 398.159,180.302 C 397.986,180.398 397.847,180.525 397.74,180.687 C 397.632,180.847 397.553,181.031 397.505,181.236 C 397.455,181.441 397.432,181.654 397.432,181.873 C 397.432,182.083 397.455,182.288 397.505,182.486 C 397.554,182.683 397.632,182.862 397.74,183.02 C 397.846,183.179 397.986,183.306 398.159,183.402 C 398.332,183.498 398.543,183.547 398.79,183.547 C 399.125,183.547 399.389,183.443 399.577,183.237 C 399.766,183.032 399.882,182.761 399.924,182.425 L 400.988,182.425 C 400.96,182.737 400.887,183.02 400.771,183.272 C 400.654,183.525 400.5,183.74 400.308,183.918 C 400.118,184.096 399.893,184.232 399.636,184.326 C 399.38,184.42 399.097,184.467 398.789,184.467 C 398.406,184.467 398.061,184.399 397.756,184.266 C 397.45,184.134 397.192,183.95 396.982,183.717 C 396.771,183.484 396.61,183.208 396.498,182.893 C 396.387,182.579 396.33,182.239 396.33,181.873 C 396.33,181.5 396.387,181.154 396.498,180.834 C 396.61,180.514 396.771,180.234 396.982,179.997 C 397.192,179.758 397.451,179.572 397.756,179.435 C 398.062,179.3 398.406,179.234 398.789,179.234 C 399.064,179.234 399.324,179.273 399.569,179.352 C 399.814,179.431 400.034,179.546 400.227,179.699 C 400.421,179.851 400.581,180.039 400.706,180.263 C 400.831,180.487 400.911,180.745 400.944,181.034 L 399.88,181.034 C 399.863,180.906 399.821,180.791 399.756,180.687 z "
           style="fill:#ffffff"
           id="path344_1_" />
      </g>
      <g
         id="g6379_2_">
        <path
           d="M 403.987,165.945 C 403.99,170.096 400.628,173.465 396.475,173.467 C 392.324,173.47 388.956,170.107 388.953,165.955 C 388.953,165.95 388.953,165.947 388.953,165.944 C 388.95,161.792 392.313,158.424 396.464,158.421 C 400.616,158.419 403.984,161.782 403.986,165.933 C 403.987,165.938 403.987,165.941 403.987,165.945 z "
           style="fill:#ffffff"
           id="path6381_2_" />
        <path
           id="path144"
           d="M 396.459,157.193 C 398.912,157.193 400.986,158.039 402.681,159.73 C 404.375,161.423 405.223,163.494 405.223,165.945 C 405.223,168.395 404.39,170.445 402.725,172.093 C 400.957,173.829 398.87,174.697 396.459,174.697 C 394.078,174.697 392.027,173.836 390.304,172.114 C 388.58,170.394 387.719,168.338 387.719,165.945 C 387.719,163.552 388.58,161.48 390.304,159.73 C 391.983,158.039 394.035,157.193 396.459,157.193 z M 389.688,163.594 C 389.427,164.332 389.297,165.115 389.297,165.946 C 389.297,167.885 390.005,169.563 391.421,170.977 C 392.837,172.391 394.524,173.1 396.482,173.1 C 398.439,173.1 400.139,172.385 401.586,170.955 C 402.07,170.488 402.47,169.976 402.782,169.424 L 399.482,167.955 C 399.258,169.064 398.27,169.814 397.074,169.902 L 397.074,171.252 L 396.069,171.252 L 396.069,169.902 C 395.087,169.891 394.137,169.49 393.413,168.855 L 394.618,167.639 C 395.198,168.185 395.779,168.431 396.571,168.431 C 397.085,168.431 397.654,168.23 397.654,167.56 C 397.654,167.324 397.561,167.16 397.418,167.035 L 396.583,166.664 L 395.544,166.201 C 395.03,165.972 394.596,165.779 394.158,165.584 L 389.688,163.594 z M 396.481,158.769 C 394.495,158.769 392.815,159.469 391.443,160.87 C 391.068,161.247 390.744,161.641 390.467,162.052 L 393.814,163.542 C 394.115,162.614 394.998,162.05 396.068,161.987 L 396.068,160.638 L 397.073,160.638 L 397.073,161.987 C 397.765,162.021 398.524,162.211 399.271,162.79 L 398.122,163.973 C 397.698,163.672 397.162,163.46 396.627,163.46 C 396.191,163.46 395.578,163.593 395.578,164.14 C 395.578,164.224 395.604,164.296 395.656,164.362 L 396.775,164.86 L 397.532,165.198 C 398.016,165.414 398.479,165.619 398.937,165.824 L 403.421,167.82 C 403.569,167.232 403.644,166.608 403.644,165.947 C 403.644,163.947 402.943,162.257 401.541,160.871 C 400.154,159.469 398.467,158.769 396.481,158.769 z " />
      </g>
      <g
         id="g349_1_">
        <circle
           sodipodi:ry="8.1049995"
           sodipodi:rx="8.1049995"
           sodipodi:cy="166.12399"
           sodipodi:cx="375.03799"
           r="8.1049995"
           cy="166.12399"
           cx="375.03799"
           style="fill:#ffffff"
           id="circle351_1_" />
        <g
           id="g353_1_">
          <path
             d="M 377.384,163.779 C 377.384,163.467 377.131,163.213 376.819,163.213 L 373.239,163.213 C 372.927,163.213 372.674,163.467 372.674,163.779 L 372.674,167.358 L 373.673,167.358 L 373.673,171.597 L 376.386,171.597 L 376.386,167.358 L 377.385,167.358 L 377.385,163.779 L 377.384,163.779 z "
             id="path355_1_" />
          <circle
             sodipodi:ry="1.225"
             sodipodi:rx="1.225"
             sodipodi:cy="161.51801"
             sodipodi:cx="375.02899"
             r="1.225"
             cy="161.51801"
             cx="375.02899"
             id="circle357_1_" />
        </g>
        <path
           id="path151"
           d="M 375.018,157.193 C 372.595,157.193 370.541,158.039 368.862,159.731 C 367.139,161.482 366.278,163.552 366.278,165.945 C 366.278,168.337 367.139,170.394 368.862,172.115 C 370.585,173.836 372.638,174.697 375.018,174.697 C 377.428,174.697 379.517,173.83 381.284,172.093 C 382.949,170.445 383.781,168.396 383.781,165.945 C 383.781,163.494 382.934,161.424 381.24,159.731 C 379.546,158.038 377.472,157.193 375.018,157.193 z M 375.04,158.769 C 377.026,158.769 378.713,159.469 380.1,160.87 C 381.503,162.256 382.204,163.948 382.204,165.946 C 382.204,167.958 381.518,169.629 380.144,170.956 C 378.698,172.386 376.997,173.101 375.04,173.101 C 373.083,173.101 371.396,172.394 369.979,170.978 C 368.562,169.564 367.854,167.886 367.854,165.947 C 367.854,164.007 368.57,162.314 370.001,160.871 C 371.374,159.469 373.054,158.769 375.04,158.769 z " />
      </g>
    </g>
    <g
       id="g153"
       transform="translate(239.05487,316.33604)">
      <polygon
         style="fill:#ff0000"
         points="378.536,29.582 379.491,7.389 392.06,25.703 399.824,4.893 406.12,26.194 419.935,8.801 419.339,31.005 437.853,18.733 430.425,39.667 451.825,33.717 438.291,51.33 460.483,52.284 442.169,64.853 462.979,72.619 441.678,78.913 459.07,92.729 436.866,92.132 449.138,110.646 428.205,103.219 434.155,124.619 416.542,111.084 415.588,133.277 403.019,114.962 395.254,135.774 388.96,114.471 375.144,131.864 375.74,109.66 357.226,121.932 364.654,100.999 343.254,106.948 356.787,89.336 334.596,88.382 352.91,75.813 332.099,68.047 353.401,61.753 336.008,47.937 358.212,48.534 345.94,30.019 366.873,37.448 360.922,16.048 378.536,29.582 "
         id="polygon155" />
      <g
         id="g157">
        <path
           style="fill:#ffffff"
           d="M 370.943,71.889 C 371.483,72.655 372.069,73.164 372.704,73.42 C 373.339,73.675 374.063,73.614 374.874,73.235 C 375.809,72.799 376.367,72.132 376.546,71.238 C 376.725,70.344 376.58,69.392 376.108,68.382 C 375.647,67.391 375.025,66.66 374.248,66.189 C 373.47,65.72 372.595,65.711 371.625,66.164 C 371.166,66.378 370.795,66.62 370.513,66.889 C 370.018,67.373 369.752,67.968 369.715,68.672 L 366.252,70.119 L 362.66,58.859 L 373.265,53.914 L 374.76,57.12 L 366.882,60.794 L 368.159,65.334 C 368.565,64.684 368.903,64.219 369.173,63.943 C 369.626,63.485 370.245,63.072 371.032,62.706 C 372.621,61.964 374.259,61.856 375.943,62.378 C 377.628,62.901 378.948,64.189 379.905,66.24 C 380.738,68.026 380.91,69.887 380.422,71.823 C 379.933,73.76 378.55,75.258 376.275,76.32 C 374.442,77.174 372.705,77.383 371.067,76.947 C 369.429,76.509 368.121,75.416 367.143,73.664 L 370.943,71.889 z "
           id="path159" />
        <path
           style="fill:#ffffff"
           d="M 388.85,49.362 C 390.647,50.631 392.29,52.859 393.777,56.047 C 395.263,59.234 395.911,61.92 395.724,64.104 C 395.537,66.289 394.212,67.954 391.751,69.102 C 389.29,70.249 387.162,70.194 385.368,68.933 C 383.575,67.674 381.935,65.45 380.449,62.263 C 378.962,59.075 378.311,56.386 378.494,54.192 C 378.677,52 380,50.329 382.461,49.181 C 384.922,48.032 387.051,48.093 388.85,49.362 z M 387.264,65.298 C 388.178,66.311 389.194,66.558 390.317,66.035 C 391.437,65.512 391.897,64.577 391.693,63.232 C 391.489,61.886 390.867,60.097 389.827,57.864 C 388.736,55.524 387.753,53.873 386.88,52.909 C 386.007,51.948 385.008,51.727 383.888,52.249 C 382.766,52.772 382.288,53.682 382.45,54.975 C 382.613,56.27 383.241,58.087 384.331,60.427 C 385.373,62.659 386.35,64.283 387.264,65.298 z "
           id="path161" />
        <path
           style="fill:#ffffff"
           d="M 403.106,50.015 C 402.6,51.416 401.667,52.434 400.306,53.069 C 398.954,53.699 397.576,53.759 396.171,53.248 C 394.768,52.738 393.752,51.806 393.121,50.452 C 392.491,49.1 392.43,47.723 392.941,46.319 C 393.451,44.914 394.384,43.898 395.736,43.268 C 397.089,42.637 398.465,42.578 399.869,43.088 C 401.273,43.598 402.29,44.53 402.921,45.882 C 403.552,47.236 403.614,48.613 403.106,50.015 z M 400.206,48.964 C 400.426,48.361 400.399,47.77 400.127,47.186 C 399.856,46.604 399.419,46.202 398.816,45.983 C 398.214,45.763 397.621,45.79 397.038,46.061 C 396.455,46.333 396.055,46.771 395.835,47.373 C 395.616,47.976 395.643,48.569 395.914,49.151 C 396.186,49.734 396.623,50.136 397.226,50.355 C 397.828,50.574 398.421,50.548 399.003,50.276 C 399.586,50.004 399.987,49.565 400.206,48.964 z M 406.593,38.094 L 408.654,37.134 L 407.006,61.988 L 404.945,62.949 L 406.593,38.094 z M 420.677,53.753 C 420.166,55.157 419.235,56.173 417.882,56.804 C 416.529,57.435 415.152,57.495 413.748,56.984 C 412.345,56.473 411.328,55.542 410.697,54.189 C 410.062,52.828 410.001,51.448 410.513,50.049 C 411.026,48.649 411.958,47.634 413.312,47.004 C 414.665,46.373 416.041,46.314 417.446,46.824 C 418.85,47.335 419.866,48.266 420.497,49.619 C 421.128,50.971 421.188,52.349 420.677,53.753 z M 416.393,49.719 C 415.79,49.499 415.199,49.527 414.616,49.797 C 414.033,50.069 413.632,50.505 413.413,51.109 C 413.193,51.712 413.22,52.304 413.492,52.886 C 413.763,53.469 414.2,53.871 414.803,54.089 C 415.407,54.309 415.998,54.282 416.581,54.01 C 417.163,53.739 417.564,53.302 417.783,52.699 C 418.004,52.097 417.976,51.505 417.704,50.922 C 417.432,50.339 416.995,49.938 416.393,49.719 z "
           id="path163" />
        <path
           style="fill:#ffffff"
           d="M 392.959,97.867 C 392.187,100.084 390.397,101.847 387.591,103.155 C 384.785,104.464 382.284,104.701 380.091,103.867 C 377.23,102.925 374.978,100.693 373.338,97.173 C 371.663,93.582 371.401,90.424 372.55,87.696 C 373.322,85.48 375.112,83.717 377.919,82.408 C 380.725,81.099 383.225,80.862 385.419,81.695 C 388.238,82.572 390.485,84.804 392.16,88.395 C 393.801,91.917 394.067,95.073 392.959,97.867 z M 389.025,96.067 C 389.425,94.425 389.11,92.502 388.083,90.296 C 387.06,88.102 385.789,86.627 384.273,85.873 C 382.756,85.121 381.183,85.123 379.555,85.883 C 377.925,86.643 376.904,87.848 376.491,89.495 C 376.078,91.142 376.386,93.068 377.414,95.272 C 378.442,97.477 379.72,98.951 381.247,99.694 C 382.774,100.436 384.353,100.428 385.982,99.668 C 387.611,98.908 388.625,97.708 389.025,96.067 z "
           id="path165" />
        <path
           style="fill:#ffffff"
           d="M 390.713,77.167 L 404.634,70.676 L 406.215,74.066 L 396.369,78.657 L 398.504,83.237 L 407.114,79.221 L 408.694,82.61 L 400.085,86.625 L 403.95,94.915 L 399.874,96.815 L 390.713,77.167 z "
           id="path167" />
        <path
           style="fill:#ffffff"
           d="M 407.363,69.403 L 421.286,62.911 L 422.866,66.301 L 413.02,70.892 L 415.155,75.472 L 423.764,71.456 L 425.344,74.846 L 416.735,78.86 L 420.601,87.15 L 416.524,89.051 L 407.363,69.403 z "
           id="path169" />
        <path
           style="fill:#ffffff"
           d="M 424.952,61.257 L 429.12,59.313 L 431.442,64.297 L 434.665,73.957 L 432.649,74.896 L 427.276,66.241 L 424.952,61.257 z M 432.39,76.969 L 436.374,75.111 L 438.167,78.958 L 434.183,80.816 L 432.39,76.969 z "
           id="path171" />
      </g>
    </g>
  </g>
</svg>
