<?xml version="1.0" encoding="UTF-8" standalone="no"?>
<!-- Created with Inkscape (http://www.inkscape.org/) -->
<svg
   xmlns:dc="http://purl.org/dc/elements/1.1/"
   xmlns:cc="http://web.resource.org/cc/"
   xmlns:rdf="http://www.w3.org/1999/02/22-rdf-syntax-ns#"
   xmlns:svg="http://www.w3.org/2000/svg"
   xmlns="http://www.w3.org/2000/svg"
   xmlns:sodipodi="http://sodipodi.sourceforge.net/DTD/sodipodi-0.dtd"
   xmlns:inkscape="http://www.inkscape.org/namespaces/inkscape"
   width="142.73199"
   height="163.414"
   id="svg2976"
   sodipodi:version="0.32"
   inkscape:version="0.45.1"
   version="1.0"
   sodipodi:docbase="/Users/robmyers/Desktop/cc-ironies/final"
   sodipodi:docname="how_to_make_a_fortune.svg"
   inkscape:output_extension="org.inkscape.output.svg.inkscape">
  <defs
     id="defs2978" />
  <sodipodi:namedview
     id="base"
     pagecolor="#ffffff"
     bordercolor="#666666"
     borderopacity="1.0"
     gridtolerance="10000"
     guidetolerance="10"
     objecttolerance="10"
     inkscape:pageopacity="0.0"
     inkscape:pageshadow="2"
     inkscape:zoom="2.0285608"
     inkscape:cx="71.365997"
     inkscape:cy="93.169502"
     inkscape:document-units="px"
     inkscape:current-layer="layer1"
     inkscape:window-width="697"
     inkscape:window-height="581"
     inkscape:window-x="26"
     inkscape:window-y="22" />
  <metadata
     id="metadata2981">
    <rdf:RDF>
      <cc:Work
         rdf:about="">
        <dc:format>image/svg+xml</dc:format>
        <dc:type
           rdf:resource="http://purl.org/dc/dcmitype/StillImage" />
      </cc:Work>
    </rdf:RDF>
  </metadata>
  <g
     inkscape:label="Layer 1"
     inkscape:groupmode="layer"
     id="layer1"
     transform="translate(297.08029,-613.47839)">
    <rect
       x="-296.58029"
       y="613.97839"
       style="fill:#ffffff;stroke:#000000"
       width="141.73199"
       height="141.73199"
       id="rect9" />
    <g
       id="g11"
       transform="translate(-297.08028,613.4784)">
      <g
         id="g13">
        <path
           d="M 12.802,29.392 L 12.88,31.257 L 12.657,31.257 C 12.614,30.929 12.556,30.695 12.482,30.554 C 12.361,30.327 12.201,30.16 12.001,30.053 C 11.801,29.946 11.538,29.892 11.211,29.892 L 10.098,29.892 L 10.098,35.97 C 10.098,36.457 10.152,36.76 10.259,36.881 C 10.41,37.044 10.643,37.126 10.958,37.126 L 11.239,37.126 L 11.239,37.345 L 7.833,37.345 L 7.833,37.126 L 8.118,37.126 C 8.459,37.126 8.7,37.025 8.843,36.822 C 8.93,36.697 8.974,36.414 8.974,35.969 L 8.974,29.891 L 8.018,29.891 C 7.647,29.891 7.383,29.918 7.226,29.973 C 7.023,30.047 6.849,30.19 6.704,30.401 C 6.559,30.612 6.474,30.897 6.446,31.256 L 6.224,31.256 L 6.302,29.391 L 12.802,29.391 L 12.802,29.392 z "
           id="path15" />
        <path
           d="M 15.148,29.001 L 15.148,32.928 C 15.583,32.453 15.928,32.15 16.183,32.015 C 16.438,31.881 16.693,31.814 16.948,31.814 C 17.254,31.814 17.516,31.898 17.736,32.066 C 17.955,32.234 18.118,32.498 18.224,32.857 C 18.299,33.107 18.336,33.564 18.336,34.228 L 18.336,36.126 C 18.336,36.465 18.363,36.697 18.418,36.822 C 18.457,36.916 18.523,36.989 18.617,37.044 C 18.711,37.099 18.883,37.126 19.133,37.126 L 19.133,37.345 L 16.492,37.345 L 16.492,37.126 L 16.616,37.126 C 16.868,37.126 17.044,37.088 17.142,37.012 C 17.24,36.936 17.309,36.824 17.349,36.676 C 17.361,36.614 17.367,36.43 17.367,36.126 L 17.367,34.225 C 17.367,33.638 17.337,33.252 17.275,33.069 C 17.214,32.885 17.117,32.747 16.983,32.655 C 16.849,32.563 16.688,32.517 16.5,32.517 C 16.307,32.517 16.106,32.568 15.898,32.67 C 15.69,32.772 15.44,32.977 15.148,33.286 L 15.148,36.126 C 15.148,36.492 15.169,36.721 15.21,36.811 C 15.251,36.901 15.329,36.975 15.441,37.036 C 15.553,37.097 15.747,37.127 16.023,37.127 L 16.023,37.346 L 13.351,37.346 L 13.351,37.127 C 13.591,37.127 13.781,37.09 13.919,37.016 C 13.998,36.977 14.061,36.904 14.108,36.794 C 14.156,36.685 14.179,36.462 14.179,36.127 L 14.179,31.268 C 14.179,30.66 14.164,30.285 14.135,30.145 C 14.105,30.005 14.06,29.911 13.999,29.86 C 13.938,29.809 13.857,29.784 13.755,29.784 C 13.673,29.784 13.539,29.815 13.355,29.878 L 13.273,29.659 L 14.878,29.003 L 15.148,29.003 L 15.148,29.001 z "
           id="path17" />
        <path
           d="M 20.476,34.001 C 20.472,34.791 20.665,35.41 21.057,35.859 C 21.448,36.307 21.907,36.532 22.435,36.532 C 22.787,36.532 23.093,36.437 23.353,36.246 C 23.613,36.057 23.832,35.725 24.007,35.251 L 24.195,35.368 C 24.113,35.911 23.874,36.402 23.479,36.842 C 23.084,37.282 22.589,37.501 21.995,37.501 C 21.349,37.501 20.797,37.25 20.338,36.749 C 19.878,36.248 19.649,35.574 19.649,34.728 C 19.649,33.811 19.884,33.096 20.356,32.583 C 20.827,32.07 21.418,31.813 22.13,31.813 C 22.733,31.813 23.228,32.011 23.614,32.408 C 24.002,32.805 24.195,33.336 24.195,34.001 L 20.476,34.001 L 20.476,34.001 z M 20.476,33.657 L 22.976,33.657 C 22.956,33.315 22.915,33.074 22.852,32.934 C 22.754,32.716 22.607,32.546 22.413,32.421 C 22.219,32.297 22.016,32.234 21.803,32.234 C 21.476,32.234 21.184,32.36 20.928,32.61 C 20.669,32.861 20.519,33.211 20.476,33.657 z "
           id="path19" />
        <path
           d="M 27.593,31.97 L 29.843,31.97 L 29.843,32.189 C 29.636,32.205 29.5,32.242 29.436,32.3 C 29.372,32.358 29.339,32.443 29.339,32.552 C 29.339,32.673 29.372,32.82 29.439,32.99 L 30.595,36.068 L 31.739,33.564 L 31.427,32.772 C 31.333,32.539 31.21,32.376 31.058,32.288 C 30.972,32.233 30.812,32.2 30.578,32.188 L 30.578,31.97 L 33.146,31.97 L 33.146,32.189 C 32.86,32.201 32.657,32.252 32.538,32.344 C 32.459,32.408 32.419,32.51 32.419,32.649 C 32.419,32.724 32.435,32.8 32.466,32.878 L 33.687,35.957 L 34.819,32.989 C 34.902,32.779 34.944,32.611 34.944,32.486 C 34.944,32.412 34.905,32.346 34.828,32.288 C 34.751,32.23 34.599,32.196 34.374,32.188 L 34.374,31.97 L 36.063,31.97 L 36.063,32.189 C 35.723,32.24 35.473,32.468 35.313,32.876 L 33.532,37.502 L 33.288,37.502 L 31.946,34.09 L 30.387,37.502 L 30.163,37.502 L 28.444,32.99 C 28.331,32.706 28.219,32.513 28.11,32.415 C 28.001,32.315 27.829,32.24 27.594,32.189 L 27.594,31.97 L 27.593,31.97 z "
           id="path21" />
        <path
           d="M 39.593,36.562 C 39.043,36.991 38.697,37.239 38.557,37.306 C 38.346,37.404 38.122,37.453 37.884,37.453 C 37.514,37.453 37.208,37.326 36.968,37.072 C 36.728,36.817 36.608,36.483 36.608,36.069 C 36.608,35.806 36.667,35.58 36.784,35.388 C 36.944,35.121 37.222,34.871 37.617,34.637 C 38.012,34.403 38.671,34.117 39.592,33.781 L 39.592,33.57 C 39.592,33.036 39.508,32.669 39.339,32.47 C 39.17,32.271 38.924,32.171 38.603,32.171 C 38.358,32.171 38.164,32.237 38.02,32.371 C 37.873,32.504 37.799,32.656 37.799,32.829 L 37.811,33.17 C 37.811,33.35 37.765,33.488 37.672,33.587 C 37.579,33.685 37.458,33.733 37.308,33.733 C 37.162,33.733 37.042,33.682 36.95,33.58 C 36.857,33.478 36.811,33.34 36.811,33.163 C 36.811,32.826 36.983,32.517 37.327,32.234 C 37.671,31.953 38.153,31.811 38.774,31.811 C 39.251,31.811 39.641,31.891 39.946,32.05 C 40.176,32.171 40.346,32.36 40.456,32.616 C 40.526,32.784 40.561,33.126 40.561,33.643 L 40.561,35.459 C 40.561,35.969 40.571,36.281 40.59,36.396 C 40.61,36.511 40.642,36.588 40.687,36.626 C 40.732,36.665 40.784,36.685 40.843,36.685 C 40.905,36.685 40.961,36.671 41.008,36.644 C 41.09,36.593 41.249,36.451 41.484,36.216 L 41.484,36.544 C 41.046,37.127 40.627,37.419 40.227,37.419 C 40.036,37.419 39.883,37.354 39.769,37.224 C 39.656,37.098 39.597,36.876 39.593,36.562 z M 39.593,36.182 L 39.593,34.142 C 39,34.375 38.616,34.541 38.444,34.639 C 38.133,34.811 37.912,34.99 37.778,35.177 C 37.644,35.364 37.578,35.569 37.578,35.79 C 37.578,36.071 37.662,36.304 37.831,36.489 C 38,36.674 38.194,36.766 38.414,36.766 C 38.713,36.767 39.106,36.572 39.593,36.182 z "
           id="path23" />
        <path
           d="M 41.584,31.97 L 44.095,31.97 L 44.095,32.189 L 43.972,32.189 C 43.796,32.189 43.664,32.227 43.576,32.303 C 43.488,32.379 43.444,32.473 43.444,32.586 C 43.444,32.738 43.508,32.948 43.637,33.217 L 44.952,35.931 L 46.152,32.959 C 46.218,32.8 46.252,32.642 46.252,32.486 C 46.252,32.416 46.238,32.363 46.211,32.328 C 46.18,32.286 46.131,32.252 46.065,32.226 C 45.999,32.2 45.881,32.188 45.713,32.188 L 45.713,31.97 L 47.449,31.97 L 47.449,32.189 C 47.304,32.205 47.193,32.235 47.115,32.282 C 47.037,32.328 46.951,32.414 46.857,32.541 C 46.822,32.595 46.755,32.743 46.658,32.985 L 44.476,38.345 C 44.264,38.865 43.986,39.258 43.643,39.524 C 43.299,39.791 42.969,39.923 42.651,39.923 C 42.42,39.923 42.229,39.857 42.08,39.724 C 41.931,39.59 41.856,39.438 41.856,39.266 C 41.856,39.102 41.91,38.969 42.018,38.87 C 42.126,38.771 42.275,38.721 42.463,38.721 C 42.593,38.721 42.77,38.761 42.994,38.842 C 43.151,38.897 43.249,38.924 43.288,38.924 C 43.406,38.924 43.535,38.864 43.674,38.745 C 43.813,38.626 43.954,38.395 44.095,38.054 L 44.475,37.113 L 42.537,33.08 C 42.478,32.959 42.385,32.809 42.256,32.63 C 42.158,32.493 42.078,32.401 42.016,32.355 C 41.926,32.293 41.782,32.238 41.582,32.191 L 41.582,31.97 L 41.584,31.97 z "
           id="path25" />
        <path
           d="M 52.451,30.204 L 52.451,31.97 L 53.705,31.97 L 53.705,32.376 L 52.451,32.376 L 52.451,35.864 C 52.451,36.213 52.501,36.447 52.6,36.569 C 52.699,36.69 52.827,36.751 52.983,36.751 C 53.112,36.751 53.236,36.711 53.358,36.633 C 53.479,36.553 53.572,36.437 53.639,36.282 L 53.873,36.282 C 53.736,36.666 53.542,36.954 53.291,37.148 C 53.041,37.341 52.782,37.438 52.516,37.438 C 52.336,37.438 52.16,37.388 51.987,37.289 C 51.815,37.188 51.687,37.046 51.605,36.859 C 51.523,36.673 51.482,36.386 51.482,35.998 L 51.482,32.376 L 50.638,32.376 L 50.638,32.185 C 50.851,32.099 51.07,31.954 51.293,31.749 C 51.516,31.544 51.715,31.301 51.89,31.02 C 51.979,30.872 52.104,30.6 52.263,30.205 L 52.451,30.205 L 52.451,30.204 z "
           id="path27" />
        <path
           d="M 56.869,31.813 C 57.682,31.813 58.336,32.122 58.829,32.739 C 59.247,33.266 59.457,33.871 59.457,34.554 C 59.457,35.034 59.342,35.521 59.111,36.013 C 58.88,36.505 58.562,36.875 58.157,37.125 C 57.752,37.375 57.301,37.5 56.804,37.5 C 55.994,37.5 55.35,37.178 54.873,36.533 C 54.47,35.991 54.269,35.382 54.269,34.706 C 54.269,34.214 54.391,33.726 54.636,33.239 C 54.881,32.752 55.202,32.393 55.601,32.161 C 56,31.929 56.422,31.813 56.869,31.813 z M 56.687,32.188 C 56.48,32.188 56.272,32.25 56.063,32.373 C 55.854,32.496 55.685,32.712 55.556,33.02 C 55.427,33.328 55.363,33.724 55.363,34.208 C 55.363,34.989 55.518,35.663 55.829,36.229 C 56.14,36.794 56.549,37.078 57.057,37.078 C 57.436,37.078 57.748,36.922 57.995,36.609 C 58.241,36.297 58.364,35.76 58.364,34.999 C 58.364,34.046 58.159,33.297 57.749,32.75 C 57.47,32.376 57.117,32.188 56.687,32.188 z "
           id="path29" />
        <path
           d="M 64.816,32.957 C 65.205,32.566 65.435,32.341 65.505,32.282 C 65.68,32.134 65.869,32.018 66.071,31.936 C 66.273,31.854 66.474,31.813 66.672,31.813 C 67.007,31.813 67.295,31.911 67.536,32.106 C 67.777,32.301 67.939,32.585 68.021,32.957 C 68.424,32.488 68.765,32.18 69.043,32.033 C 69.32,31.887 69.606,31.813 69.9,31.813 C 70.185,31.813 70.439,31.886 70.66,32.033 C 70.881,32.18 71.056,32.419 71.186,32.751 C 71.272,32.978 71.315,33.333 71.315,33.817 L 71.315,36.126 C 71.315,36.461 71.34,36.691 71.39,36.816 C 71.428,36.902 71.499,36.974 71.603,37.035 C 71.707,37.096 71.876,37.126 72.111,37.126 L 72.111,37.345 L 69.47,37.345 L 69.47,37.126 L 69.582,37.126 C 69.814,37.126 69.996,37.081 70.126,36.991 C 70.217,36.929 70.281,36.83 70.321,36.693 C 70.337,36.627 70.344,36.437 70.344,36.126 L 70.344,33.817 C 70.344,33.379 70.291,33.071 70.185,32.891 C 70.032,32.641 69.787,32.516 69.449,32.516 C 69.241,32.516 69.032,32.568 68.822,32.671 C 68.612,32.774 68.358,32.968 68.059,33.249 L 68.047,33.313 L 68.078,33.565 L 68.078,36.125 C 68.078,36.491 68.099,36.72 68.14,36.81 C 68.181,36.9 68.258,36.974 68.372,37.035 C 68.486,37.096 68.679,37.126 68.954,37.126 L 68.954,37.345 L 66.235,37.345 L 66.235,37.126 C 66.532,37.126 66.737,37.091 66.848,37.021 C 66.96,36.952 67.037,36.846 67.08,36.706 C 67.1,36.64 67.109,36.446 67.109,36.127 L 67.109,33.819 C 67.109,33.381 67.045,33.067 66.915,32.876 C 66.743,32.627 66.501,32.502 66.192,32.502 C 65.981,32.502 65.771,32.559 65.564,32.672 C 65.239,32.844 64.988,33.036 64.812,33.251 L 64.812,36.127 C 64.812,36.478 64.836,36.706 64.885,36.812 C 64.934,36.918 65.006,36.996 65.102,37.048 C 65.198,37.1 65.393,37.127 65.686,37.127 L 65.686,37.346 L 63.05,37.346 L 63.05,37.127 C 63.291,37.127 63.459,37.101 63.554,37.048 C 63.649,36.995 63.722,36.911 63.772,36.797 C 63.822,36.682 63.847,36.458 63.847,36.127 L 63.847,34.08 C 63.847,33.492 63.829,33.112 63.794,32.94 C 63.766,32.812 63.723,32.723 63.664,32.674 C 63.605,32.625 63.525,32.601 63.423,32.601 C 63.314,32.601 63.182,32.63 63.029,32.689 L 62.941,32.47 L 64.563,31.814 L 64.816,31.814 L 64.816,32.957 z "
           id="path31" />
        <path
           d="M 75.587,36.562 C 75.037,36.991 74.691,37.239 74.551,37.306 C 74.34,37.404 74.116,37.453 73.878,37.453 C 73.508,37.453 73.202,37.326 72.962,37.072 C 72.722,36.817 72.602,36.483 72.602,36.069 C 72.602,35.806 72.661,35.58 72.778,35.388 C 72.938,35.121 73.216,34.871 73.611,34.637 C 74.006,34.403 74.665,34.117 75.586,33.781 L 75.586,33.57 C 75.586,33.036 75.502,32.669 75.333,32.47 C 75.164,32.271 74.918,32.171 74.597,32.171 C 74.352,32.171 74.158,32.237 74.014,32.371 C 73.867,32.504 73.793,32.656 73.793,32.829 L 73.805,33.17 C 73.805,33.35 73.759,33.488 73.666,33.587 C 73.573,33.685 73.452,33.733 73.302,33.733 C 73.156,33.733 73.036,33.682 72.944,33.58 C 72.851,33.478 72.805,33.34 72.805,33.163 C 72.805,32.826 72.977,32.517 73.321,32.234 C 73.665,31.953 74.147,31.811 74.768,31.811 C 75.245,31.811 75.635,31.891 75.94,32.05 C 76.17,32.171 76.34,32.36 76.45,32.616 C 76.52,32.784 76.555,33.126 76.555,33.643 L 76.555,35.459 C 76.555,35.969 76.565,36.281 76.584,36.396 C 76.604,36.511 76.636,36.588 76.681,36.626 C 76.726,36.665 76.778,36.685 76.837,36.685 C 76.899,36.685 76.955,36.671 77.002,36.644 C 77.084,36.593 77.243,36.451 77.478,36.216 L 77.478,36.544 C 77.04,37.127 76.621,37.419 76.221,37.419 C 76.03,37.419 75.877,37.354 75.763,37.224 C 75.65,37.098 75.591,36.876 75.587,36.562 z M 75.587,36.182 L 75.587,34.142 C 74.994,34.375 74.61,34.541 74.438,34.639 C 74.127,34.811 73.906,34.99 73.772,35.177 C 73.638,35.364 73.572,35.569 73.572,35.79 C 73.572,36.071 73.656,36.304 73.825,36.489 C 73.994,36.674 74.188,36.766 74.408,36.766 C 74.708,36.767 75.1,36.572 75.587,36.182 z "
           id="path33" />
        <path
           d="M 79.46,29.001 L 79.46,34.35 L 80.834,33.101 C 81.124,32.835 81.292,32.667 81.339,32.597 C 81.37,32.55 81.386,32.503 81.386,32.456 C 81.386,32.378 81.354,32.31 81.289,32.254 C 81.224,32.198 81.118,32.165 80.97,32.157 L 80.97,31.97 L 83.304,31.97 L 83.304,32.158 C 82.985,32.166 82.72,32.216 82.508,32.306 C 82.296,32.398 82.064,32.56 81.811,32.793 L 80.418,34.059 L 81.806,35.801 C 82.192,36.28 82.446,36.586 82.57,36.721 C 82.76,36.901 82.926,37.016 83.069,37.069 C 83.168,37.108 83.34,37.127 83.586,37.127 L 83.586,37.346 L 80.97,37.346 L 80.97,37.127 C 81.118,37.123 81.219,37.101 81.272,37.06 C 81.325,37.02 81.351,36.962 81.351,36.889 C 81.351,36.8 81.273,36.657 81.117,36.459 L 79.46,34.35 L 79.46,36.126 C 79.46,36.475 79.484,36.704 79.534,36.814 C 79.583,36.923 79.653,37.002 79.744,37.049 C 79.834,37.096 80.032,37.121 80.335,37.125 L 80.335,37.344 L 77.601,37.344 L 77.601,37.125 C 77.874,37.125 78.08,37.093 78.216,37.026 C 78.298,36.984 78.361,36.919 78.404,36.83 C 78.463,36.703 78.492,36.483 78.492,36.172 L 78.492,31.266 C 78.492,30.652 78.478,30.277 78.451,30.139 C 78.424,30.001 78.379,29.908 78.316,29.855 C 78.253,29.802 78.171,29.776 78.07,29.776 C 77.988,29.776 77.865,29.809 77.701,29.876 L 77.601,29.657 L 79.191,29.001 L 79.46,29.001 L 79.46,29.001 z "
           id="path35" />
        <path
           d="M 84.789,34.001 C 84.785,34.791 84.978,35.41 85.37,35.859 C 85.761,36.307 86.22,36.532 86.748,36.532 C 87.1,36.532 87.406,36.437 87.666,36.246 C 87.926,36.057 88.145,35.725 88.32,35.251 L 88.508,35.368 C 88.426,35.911 88.187,36.402 87.792,36.842 C 87.397,37.282 86.902,37.501 86.308,37.501 C 85.662,37.501 85.11,37.25 84.651,36.749 C 84.191,36.248 83.962,35.574 83.962,34.728 C 83.962,33.811 84.197,33.096 84.669,32.583 C 85.14,32.07 85.731,31.813 86.443,31.813 C 87.046,31.813 87.541,32.011 87.927,32.408 C 88.315,32.805 88.508,33.336 88.508,34.001 L 84.789,34.001 L 84.789,34.001 z M 84.789,33.657 L 87.289,33.657 C 87.269,33.315 87.228,33.074 87.165,32.934 C 87.067,32.716 86.92,32.546 86.726,32.421 C 86.532,32.297 86.329,32.234 86.116,32.234 C 85.789,32.234 85.497,32.36 85.241,32.61 C 84.982,32.861 84.832,33.211 84.789,33.657 z "
           id="path37" />
        <path
           d="M 95.24,36.562 C 94.69,36.991 94.344,37.239 94.204,37.306 C 93.993,37.404 93.769,37.453 93.531,37.453 C 93.161,37.453 92.855,37.326 92.615,37.072 C 92.375,36.817 92.255,36.483 92.255,36.069 C 92.255,35.806 92.314,35.58 92.431,35.388 C 92.591,35.121 92.869,34.871 93.264,34.637 C 93.659,34.403 94.318,34.117 95.239,33.781 L 95.239,33.57 C 95.239,33.036 95.155,32.669 94.986,32.47 C 94.817,32.271 94.571,32.171 94.25,32.171 C 94.005,32.171 93.811,32.237 93.667,32.371 C 93.52,32.504 93.446,32.656 93.446,32.829 L 93.458,33.17 C 93.458,33.35 93.412,33.488 93.319,33.587 C 93.226,33.685 93.105,33.733 92.955,33.733 C 92.809,33.733 92.689,33.682 92.597,33.58 C 92.504,33.478 92.458,33.34 92.458,33.163 C 92.458,32.826 92.63,32.517 92.974,32.234 C 93.318,31.953 93.8,31.811 94.421,31.811 C 94.898,31.811 95.288,31.891 95.593,32.05 C 95.823,32.171 95.993,32.36 96.103,32.616 C 96.173,32.784 96.208,33.126 96.208,33.643 L 96.208,35.459 C 96.208,35.969 96.218,36.281 96.237,36.396 C 96.257,36.511 96.289,36.588 96.334,36.626 C 96.379,36.665 96.431,36.685 96.49,36.685 C 96.552,36.685 96.608,36.671 96.655,36.644 C 96.737,36.593 96.896,36.451 97.131,36.216 L 97.131,36.544 C 96.693,37.127 96.274,37.419 95.874,37.419 C 95.683,37.419 95.53,37.354 95.416,37.224 C 95.302,37.098 95.244,36.876 95.24,36.562 z M 95.24,36.182 L 95.24,34.142 C 94.647,34.375 94.263,34.541 94.091,34.639 C 93.78,34.811 93.559,34.99 93.425,35.177 C 93.291,35.364 93.225,35.569 93.225,35.79 C 93.225,36.071 93.309,36.304 93.478,36.489 C 93.647,36.674 93.841,36.766 94.061,36.766 C 94.36,36.767 94.752,36.572 95.24,36.182 z "
           id="path39" />
        <path
           d="M 102.628,32.392 L 102.628,35.908 C 102.628,36.413 102.683,36.732 102.793,36.866 C 102.938,37.04 103.132,37.127 103.375,37.127 L 103.863,37.127 L 103.863,37.346 L 100.644,37.346 L 100.644,37.127 L 100.886,37.127 C 101.043,37.127 101.187,37.088 101.317,37.009 C 101.447,36.93 101.537,36.823 101.586,36.69 C 101.636,36.556 101.66,36.295 101.66,35.909 L 101.66,32.393 L 100.613,32.393 L 100.613,31.97 L 101.66,31.97 L 101.66,31.618 C 101.66,31.083 101.746,30.63 101.919,30.259 C 102.091,29.888 102.355,29.588 102.709,29.36 C 103.063,29.132 103.462,29.017 103.904,29.017 C 104.315,29.017 104.693,29.149 105.038,29.413 C 105.265,29.588 105.379,29.784 105.379,30.002 C 105.379,30.118 105.328,30.229 105.226,30.331 C 105.124,30.433 105.015,30.485 104.897,30.485 C 104.807,30.485 104.712,30.453 104.612,30.389 C 104.511,30.325 104.389,30.187 104.244,29.976 C 104.099,29.765 103.966,29.622 103.845,29.548 C 103.723,29.475 103.589,29.438 103.439,29.438 C 103.259,29.438 103.106,29.486 102.981,29.582 C 102.856,29.678 102.765,29.826 102.71,30.027 C 102.655,30.228 102.628,30.747 102.628,31.583 L 102.628,31.97 L 104.019,31.97 L 104.019,32.392 L 102.628,32.392 L 102.628,32.392 z "
           id="path41" />
        <path
           d="M 107.177,31.813 C 107.99,31.813 108.644,32.122 109.137,32.739 C 109.555,33.266 109.765,33.871 109.765,34.554 C 109.765,35.034 109.65,35.521 109.419,36.013 C 109.188,36.505 108.87,36.875 108.465,37.125 C 108.06,37.375 107.609,37.5 107.112,37.5 C 106.302,37.5 105.658,37.178 105.181,36.533 C 104.778,35.991 104.577,35.382 104.577,34.706 C 104.577,34.214 104.699,33.726 104.944,33.239 C 105.189,32.752 105.51,32.393 105.909,32.161 C 106.308,31.929 106.731,31.813 107.177,31.813 z M 106.996,32.188 C 106.789,32.188 106.581,32.25 106.372,32.373 C 106.163,32.496 105.994,32.712 105.865,33.02 C 105.736,33.328 105.672,33.724 105.672,34.208 C 105.672,34.989 105.827,35.663 106.138,36.229 C 106.449,36.794 106.858,37.078 107.366,37.078 C 107.745,37.078 108.057,36.922 108.304,36.609 C 108.55,36.297 108.673,35.76 108.673,34.999 C 108.673,34.046 108.468,33.297 108.058,32.75 C 107.779,32.376 107.425,32.188 106.996,32.188 z "
           id="path43" />
        <path
           d="M 112.109,31.813 L 112.109,33.028 C 112.558,32.218 113.018,31.813 113.491,31.813 C 113.705,31.813 113.883,31.878 114.023,32.011 C 114.164,32.142 114.234,32.294 114.234,32.467 C 114.234,32.62 114.183,32.751 114.082,32.857 C 113.98,32.963 113.859,33.016 113.718,33.016 C 113.581,33.016 113.427,32.949 113.259,32.813 C 113.089,32.677 112.963,32.61 112.882,32.61 C 112.812,32.61 112.736,32.649 112.654,32.727 C 112.478,32.888 112.297,33.152 112.11,33.52 L 112.11,36.094 C 112.11,36.39 112.148,36.614 112.223,36.765 C 112.275,36.87 112.366,36.956 112.497,37.024 C 112.628,37.091 112.817,37.126 113.063,37.126 L 113.063,37.345 L 110.297,37.345 L 110.297,37.126 C 110.57,37.126 110.774,37.083 110.906,36.996 C 111.004,36.934 111.072,36.834 111.111,36.696 C 111.131,36.63 111.14,36.439 111.14,36.126 L 111.14,34.048 C 111.14,33.428 111.127,33.06 111.102,32.942 C 111.077,32.824 111.029,32.737 110.96,32.683 C 110.892,32.628 110.806,32.601 110.704,32.601 C 110.582,32.601 110.445,32.63 110.292,32.689 L 110.233,32.47 L 111.861,31.814 L 112.109,31.814 L 112.109,31.813 z "
           id="path45" />
        <path
           d="M 116.089,30.204 L 116.089,31.97 L 117.343,31.97 L 117.343,32.376 L 116.089,32.376 L 116.089,35.864 C 116.089,36.213 116.139,36.447 116.238,36.569 C 116.337,36.69 116.465,36.751 116.621,36.751 C 116.75,36.751 116.874,36.711 116.996,36.633 C 117.117,36.553 117.21,36.437 117.277,36.282 L 117.511,36.282 C 117.374,36.666 117.18,36.954 116.929,37.148 C 116.679,37.341 116.42,37.438 116.154,37.438 C 115.974,37.438 115.798,37.388 115.625,37.289 C 115.453,37.188 115.325,37.046 115.243,36.859 C 115.161,36.673 115.12,36.386 115.12,35.998 L 115.12,32.376 L 114.276,32.376 L 114.276,32.185 C 114.489,32.099 114.708,31.954 114.931,31.749 C 115.154,31.544 115.353,31.301 115.528,31.02 C 115.617,30.872 115.742,30.6 115.901,30.205 L 116.089,30.205 L 116.089,30.204 z "
           id="path47" />
        <path
           d="M 122.564,31.97 L 122.564,35.236 C 122.564,35.848 122.579,36.221 122.608,36.358 C 122.637,36.495 122.685,36.59 122.75,36.645 C 122.814,36.699 122.89,36.726 122.977,36.726 C 123.098,36.726 123.236,36.693 123.389,36.626 L 123.471,36.845 L 121.861,37.501 L 121.596,37.501 L 121.596,36.381 C 121.136,36.873 120.785,37.184 120.543,37.311 C 120.301,37.438 120.046,37.501 119.777,37.501 C 119.477,37.501 119.216,37.414 118.996,37.24 C 118.775,37.066 118.622,36.844 118.537,36.57 C 118.451,36.297 118.408,35.91 118.408,35.411 L 118.408,33.016 C 118.408,32.761 118.381,32.585 118.326,32.488 C 118.271,32.391 118.19,32.314 118.083,32.261 C 117.976,32.208 117.782,32.184 117.501,32.188 L 117.501,31.97 L 119.376,31.97 L 119.376,35.574 C 119.376,36.076 119.463,36.406 119.637,36.562 C 119.81,36.719 120.02,36.797 120.266,36.797 C 120.434,36.797 120.624,36.744 120.837,36.638 C 121.049,36.533 121.302,36.33 121.595,36.033 L 121.595,32.985 C 121.595,32.678 121.538,32.47 121.425,32.362 C 121.312,32.254 121.077,32.196 120.72,32.188 L 120.72,31.97 L 122.564,31.97 z "
           id="path49" />
        <path
           d="M 125.423,32.935 C 126.052,32.188 126.652,31.814 127.222,31.814 C 127.515,31.814 127.767,31.887 127.978,32.034 C 128.189,32.181 128.357,32.422 128.482,32.758 C 128.568,32.992 128.611,33.352 128.611,33.836 L 128.611,36.127 C 128.611,36.466 128.638,36.696 128.694,36.817 C 128.737,36.915 128.807,36.99 128.904,37.045 C 129.001,37.1 129.179,37.127 129.439,37.127 L 129.439,37.346 L 126.767,37.346 L 126.767,37.127 L 126.879,37.127 C 127.131,37.127 127.308,37.089 127.408,37.013 C 127.508,36.937 127.578,36.825 127.618,36.677 C 127.634,36.618 127.641,36.435 127.641,36.127 L 127.641,33.919 C 127.641,33.429 127.578,33.072 127.451,32.851 C 127.324,32.63 127.11,32.518 126.81,32.518 C 126.345,32.518 125.883,32.773 125.422,33.284 L 125.422,36.128 C 125.422,36.49 125.443,36.715 125.486,36.801 C 125.541,36.914 125.616,36.996 125.712,37.049 C 125.808,37.102 126.003,37.128 126.296,37.128 L 126.296,37.347 L 123.655,37.347 L 123.655,37.128 L 123.77,37.128 C 124.037,37.128 124.218,37.059 124.312,36.92 C 124.406,36.782 124.453,36.518 124.453,36.128 L 124.453,34.144 C 124.453,33.499 124.438,33.107 124.409,32.966 C 124.379,32.825 124.334,32.73 124.273,32.679 C 124.212,32.628 124.131,32.603 124.029,32.603 C 123.92,32.603 123.788,32.632 123.635,32.691 L 123.547,32.472 L 125.169,31.816 L 125.422,31.816 L 125.422,32.935 L 125.423,32.935 z "
           id="path51" />
        <path
           d="M 130.767,34.001 C 130.763,34.791 130.956,35.41 131.348,35.859 C 131.739,36.307 132.198,36.532 132.726,36.532 C 133.078,36.532 133.384,36.437 133.644,36.246 C 133.904,36.057 134.123,35.725 134.298,35.251 L 134.486,35.368 C 134.404,35.911 134.165,36.402 133.77,36.842 C 133.375,37.282 132.88,37.501 132.286,37.501 C 131.64,37.501 131.088,37.25 130.629,36.749 C 130.169,36.248 129.94,35.574 129.94,34.728 C 129.94,33.811 130.175,33.096 130.647,32.583 C 131.118,32.07 131.709,31.813 132.421,31.813 C 133.024,31.813 133.519,32.011 133.905,32.408 C 134.293,32.805 134.486,33.336 134.486,34.001 L 130.767,34.001 L 130.767,34.001 z M 130.767,33.657 L 133.267,33.657 C 133.247,33.315 133.206,33.074 133.143,32.934 C 133.045,32.716 132.898,32.546 132.704,32.421 C 132.51,32.297 132.307,32.234 132.094,32.234 C 131.767,32.234 131.475,32.36 131.219,32.61 C 130.96,32.861 130.81,33.211 130.767,33.657 z "
           id="path53" />
        <path
           d="M 10.943,46.37 L 10.943,49.636 C 10.943,50.248 10.958,50.621 10.987,50.758 C 11.016,50.895 11.064,50.99 11.129,51.045 C 11.193,51.099 11.269,51.126 11.356,51.126 C 11.477,51.126 11.615,51.093 11.768,51.026 L 11.85,51.245 L 10.24,51.901 L 9.974,51.901 L 9.974,50.781 C 9.514,51.273 9.163,51.584 8.921,51.711 C 8.679,51.838 8.424,51.901 8.155,51.901 C 7.855,51.901 7.594,51.814 7.374,51.64 C 7.153,51.466 7,51.244 6.915,50.97 C 6.829,50.697 6.786,50.31 6.786,49.811 L 6.786,47.416 C 6.786,47.161 6.759,46.985 6.704,46.888 C 6.649,46.791 6.568,46.714 6.461,46.661 C 6.354,46.608 6.16,46.584 5.879,46.588 L 5.879,46.37 L 7.754,46.37 L 7.754,49.974 C 7.754,50.476 7.841,50.806 8.015,50.962 C 8.188,51.119 8.398,51.197 8.644,51.197 C 8.812,51.197 9.002,51.144 9.215,51.038 C 9.427,50.933 9.68,50.73 9.973,50.433 L 9.973,47.385 C 9.973,47.078 9.916,46.87 9.803,46.762 C 9.69,46.654 9.455,46.596 9.098,46.588 L 9.098,46.37 L 10.943,46.37 z "
           id="path55" />
        <path
           d="M 15.708,46.214 L 15.708,48.042 L 15.49,48.042 C 15.344,47.467 15.157,47.076 14.929,46.869 C 14.701,46.661 14.41,46.557 14.058,46.557 C 13.79,46.557 13.574,46.629 13.409,46.774 C 13.244,46.919 13.162,47.079 13.162,47.254 C 13.162,47.473 13.222,47.661 13.343,47.817 C 13.46,47.977 13.703,48.147 14.073,48.327 L 14.927,48.743 C 15.719,49.13 16.115,49.639 16.115,50.272 C 16.115,50.76 15.932,51.153 15.567,51.452 C 15.202,51.751 14.794,51.9 14.342,51.9 C 14.017,51.9 13.647,51.845 13.23,51.736 C 13.102,51.7 12.998,51.681 12.917,51.681 C 12.828,51.681 12.758,51.728 12.709,51.822 L 12.49,51.822 L 12.49,49.9 L 12.709,49.9 C 12.816,50.448 13.021,50.862 13.324,51.139 C 13.627,51.417 13.967,51.556 14.343,51.556 C 14.608,51.556 14.823,51.477 14.99,51.319 C 15.157,51.161 15.24,50.97 15.24,50.748 C 15.24,50.478 15.147,50.251 14.961,50.067 C 14.775,49.883 14.399,49.651 13.833,49.371 C 13.268,49.09 12.897,48.836 12.722,48.609 C 12.547,48.386 12.459,48.105 12.459,47.765 C 12.459,47.324 12.608,46.954 12.908,46.658 C 13.207,46.361 13.595,46.213 14.07,46.213 C 14.278,46.213 14.532,46.257 14.829,46.345 C 15.026,46.404 15.157,46.432 15.223,46.432 C 15.285,46.432 15.333,46.418 15.368,46.392 C 15.403,46.365 15.444,46.306 15.49,46.213 L 15.708,46.213 L 15.708,46.214 z "
           id="path57" />
        <path
           d="M 18.753,46.214 L 18.753,50.526 C 18.753,50.861 18.776,51.085 18.824,51.196 C 18.872,51.306 18.943,51.389 19.036,51.444 C 19.129,51.499 19.301,51.526 19.549,51.526 L 19.549,51.745 L 16.955,51.745 L 16.955,51.526 C 17.219,51.526 17.396,51.501 17.487,51.45 C 17.578,51.399 17.65,51.316 17.703,51.199 C 17.757,51.082 17.783,50.857 17.783,50.526 L 17.783,48.479 C 17.783,47.891 17.765,47.51 17.73,47.337 C 17.702,47.21 17.659,47.122 17.6,47.073 C 17.541,47.024 17.461,47 17.359,47 C 17.25,47 17.116,47.029 16.959,47.088 L 16.877,46.869 L 18.494,46.213 L 18.753,46.213 L 18.753,46.214 z M 18.272,43.401 C 18.436,43.401 18.575,43.459 18.69,43.574 C 18.805,43.689 18.863,43.828 18.863,43.992 C 18.863,44.156 18.805,44.297 18.69,44.413 C 18.575,44.53 18.436,44.589 18.272,44.589 C 18.108,44.589 17.968,44.53 17.851,44.413 C 17.734,44.297 17.675,44.156 17.675,43.992 C 17.675,43.828 17.733,43.689 17.848,43.574 C 17.963,43.459 18.104,43.401 18.272,43.401 z "
           id="path59" />
        <path
           d="M 21.806,47.335 C 22.435,46.588 23.035,46.214 23.605,46.214 C 23.898,46.214 24.15,46.287 24.361,46.434 C 24.572,46.581 24.74,46.822 24.865,47.158 C 24.951,47.392 24.994,47.752 24.994,48.236 L 24.994,50.527 C 24.994,50.866 25.021,51.096 25.077,51.217 C 25.12,51.315 25.19,51.39 25.287,51.445 C 25.384,51.5 25.562,51.527 25.822,51.527 L 25.822,51.746 L 23.15,51.746 L 23.15,51.527 L 23.262,51.527 C 23.514,51.527 23.691,51.489 23.791,51.413 C 23.891,51.337 23.961,51.225 24.001,51.077 C 24.017,51.018 24.024,50.835 24.024,50.527 L 24.024,48.319 C 24.024,47.829 23.961,47.472 23.834,47.251 C 23.707,47.03 23.493,46.918 23.193,46.918 C 22.728,46.918 22.266,47.173 21.805,47.684 L 21.805,50.528 C 21.805,50.89 21.826,51.115 21.869,51.201 C 21.924,51.314 21.999,51.396 22.095,51.449 C 22.191,51.502 22.386,51.528 22.679,51.528 L 22.679,51.747 L 20.038,51.747 L 20.038,51.528 L 20.153,51.528 C 20.42,51.528 20.601,51.459 20.695,51.32 C 20.789,51.182 20.836,50.918 20.836,50.528 L 20.836,48.544 C 20.836,47.899 20.821,47.507 20.792,47.366 C 20.762,47.225 20.717,47.13 20.656,47.079 C 20.595,47.028 20.514,47.003 20.412,47.003 C 20.303,47.003 20.171,47.032 20.018,47.091 L 19.93,46.872 L 21.552,46.216 L 21.805,46.216 L 21.805,47.335 L 21.806,47.335 z "
           id="path61" />
        <path
           d="M 27.681,49.774 C 27.354,49.615 27.103,49.391 26.928,49.105 C 26.753,48.818 26.665,48.501 26.665,48.155 C 26.665,47.625 26.865,47.169 27.265,46.787 C 27.664,46.405 28.177,46.214 28.801,46.214 C 29.312,46.214 29.755,46.339 30.129,46.589 L 31.264,46.589 C 31.431,46.589 31.529,46.594 31.556,46.604 C 31.583,46.614 31.603,46.631 31.615,46.655 C 31.638,46.69 31.65,46.753 31.65,46.843 C 31.65,46.946 31.64,47.016 31.62,47.055 C 31.608,47.076 31.587,47.091 31.558,47.103 C 31.528,47.115 31.428,47.121 31.258,47.121 L 30.556,47.121 C 30.775,47.402 30.884,47.761 30.884,48.198 C 30.884,48.697 30.694,49.124 30.312,49.479 C 29.931,49.833 29.419,50.011 28.777,50.011 C 28.512,50.011 28.242,49.971 27.966,49.89 C 27.793,50.037 27.676,50.166 27.615,50.278 C 27.554,50.388 27.524,50.483 27.524,50.56 C 27.524,50.625 27.556,50.69 27.621,50.752 C 27.686,50.814 27.812,50.858 28,50.886 C 28.109,50.905 28.383,50.92 28.822,50.933 C 29.628,50.955 30.151,50.987 30.39,51.027 C 30.753,51.078 31.044,51.212 31.261,51.43 C 31.479,51.647 31.587,51.915 31.587,52.235 C 31.587,52.674 31.38,53.087 30.965,53.471 C 30.355,54.039 29.559,54.324 28.579,54.324 C 27.824,54.324 27.187,54.155 26.667,53.816 C 26.374,53.622 26.228,53.42 26.228,53.21 C 26.228,53.116 26.249,53.022 26.292,52.93 C 26.358,52.785 26.495,52.585 26.703,52.328 C 26.73,52.293 26.93,52.083 27.301,51.698 C 27.097,51.576 26.953,51.468 26.869,51.371 C 26.785,51.274 26.743,51.165 26.743,51.044 C 26.743,50.906 26.799,50.745 26.91,50.56 C 27.022,50.374 27.279,50.113 27.681,49.774 z M 27.623,51.745 C 27.441,51.943 27.304,52.127 27.211,52.299 C 27.118,52.469 27.072,52.626 27.072,52.77 C 27.072,52.957 27.185,53.12 27.412,53.259 C 27.804,53.5 28.368,53.62 29.107,53.62 C 29.811,53.62 30.33,53.497 30.664,53.252 C 30.998,53.006 31.165,52.744 31.165,52.466 C 31.165,52.265 31.065,52.121 30.865,52.037 C 30.661,51.951 30.258,51.901 29.655,51.886 C 28.774,51.861 28.097,51.814 27.623,51.745 z M 28.692,46.511 C 28.405,46.511 28.165,46.625 27.971,46.854 C 27.778,47.083 27.681,47.434 27.681,47.907 C 27.681,48.519 27.813,48.994 28.076,49.331 C 28.277,49.587 28.533,49.715 28.843,49.715 C 29.137,49.715 29.379,49.605 29.569,49.384 C 29.759,49.163 29.854,48.816 29.854,48.343 C 29.854,47.727 29.72,47.244 29.454,46.896 C 29.255,46.639 29.001,46.511 28.692,46.511 z "
           id="path63" />
        <path
           d="M 42.072,43.62 L 42.26,46.323 L 42.072,46.323 C 41.831,45.513 41.488,44.931 41.041,44.576 C 40.594,44.22 40.059,44.042 39.434,44.042 C 38.91,44.042 38.436,44.176 38.013,44.443 C 37.59,44.71 37.257,45.135 37.014,45.72 C 36.771,46.305 36.65,47.032 36.65,47.903 C 36.65,48.621 36.765,49.243 36.994,49.769 C 37.223,50.295 37.569,50.699 38.03,50.98 C 38.491,51.26 39.018,51.401 39.609,51.401 C 40.123,51.401 40.576,51.291 40.969,51.071 C 41.362,50.851 41.794,50.415 42.265,49.76 L 42.447,49.885 C 42.05,50.587 41.586,51.102 41.055,51.427 C 40.525,51.753 39.895,51.916 39.166,51.916 C 37.852,51.916 36.834,51.429 36.113,50.453 C 35.575,49.727 35.306,48.874 35.306,47.891 C 35.306,47.099 35.483,46.371 35.836,45.708 C 36.189,45.045 36.675,44.531 37.295,44.166 C 37.914,43.802 38.591,43.619 39.325,43.619 C 39.896,43.619 40.459,43.759 41.014,44.038 C 41.177,44.124 41.294,44.166 41.364,44.166 C 41.468,44.166 41.56,44.129 41.637,44.056 C 41.739,43.952 41.81,43.806 41.853,43.619 L 42.072,43.619 L 42.072,43.62 z "
           id="path65" />
        <path
           d="M 44.826,46.214 L 44.826,47.429 C 45.275,46.619 45.735,46.214 46.208,46.214 C 46.422,46.214 46.6,46.279 46.74,46.412 C 46.881,46.543 46.951,46.695 46.951,46.868 C 46.951,47.021 46.9,47.152 46.799,47.258 C 46.697,47.364 46.576,47.417 46.435,47.417 C 46.298,47.417 46.144,47.35 45.976,47.214 C 45.806,47.078 45.68,47.011 45.599,47.011 C 45.529,47.011 45.453,47.05 45.371,47.128 C 45.195,47.289 45.014,47.553 44.827,47.921 L 44.827,50.495 C 44.827,50.791 44.865,51.015 44.94,51.166 C 44.992,51.271 45.083,51.357 45.214,51.425 C 45.345,51.492 45.534,51.527 45.78,51.527 L 45.78,51.746 L 43.014,51.746 L 43.014,51.527 C 43.287,51.527 43.491,51.484 43.623,51.397 C 43.721,51.335 43.789,51.235 43.828,51.097 C 43.848,51.031 43.857,50.84 43.857,50.527 L 43.857,48.449 C 43.857,47.829 43.844,47.461 43.819,47.343 C 43.794,47.225 43.746,47.138 43.677,47.084 C 43.609,47.029 43.523,47.002 43.421,47.002 C 43.299,47.002 43.162,47.031 43.009,47.09 L 42.95,46.871 L 44.578,46.215 L 44.826,46.215 L 44.826,46.214 z "
           id="path67" />
        <path
           d="M 48.15,48.401 C 48.146,49.191 48.339,49.81 48.731,50.259 C 49.122,50.707 49.581,50.932 50.109,50.932 C 50.461,50.932 50.767,50.837 51.027,50.646 C 51.287,50.457 51.506,50.125 51.681,49.651 L 51.869,49.768 C 51.787,50.311 51.548,50.802 51.153,51.242 C 50.758,51.682 50.263,51.901 49.669,51.901 C 49.023,51.901 48.471,51.65 48.012,51.149 C 47.552,50.648 47.323,49.974 47.323,49.128 C 47.323,48.211 47.558,47.496 48.03,46.983 C 48.501,46.47 49.092,46.213 49.804,46.213 C 50.407,46.213 50.902,46.411 51.288,46.808 C 51.676,47.205 51.869,47.736 51.869,48.401 L 48.15,48.401 L 48.15,48.401 z M 48.15,48.058 L 50.65,48.058 C 50.63,47.716 50.589,47.475 50.526,47.335 C 50.428,47.117 50.281,46.947 50.087,46.822 C 49.893,46.698 49.69,46.635 49.477,46.635 C 49.15,46.635 48.858,46.761 48.602,47.011 C 48.343,47.262 48.193,47.611 48.15,48.058 z "
           id="path69" />
        <path
           d="M 55.601,50.963 C 55.051,51.392 54.705,51.64 54.565,51.707 C 54.354,51.805 54.13,51.854 53.892,51.854 C 53.522,51.854 53.216,51.727 52.976,51.473 C 52.736,51.218 52.616,50.884 52.616,50.47 C 52.616,50.207 52.675,49.981 52.792,49.789 C 52.952,49.522 53.23,49.272 53.625,49.038 C 54.02,48.804 54.679,48.518 55.6,48.182 L 55.6,47.971 C 55.6,47.437 55.516,47.07 55.347,46.871 C 55.178,46.672 54.932,46.572 54.611,46.572 C 54.366,46.572 54.172,46.638 54.028,46.772 C 53.881,46.905 53.807,47.057 53.807,47.23 L 53.819,47.571 C 53.819,47.751 53.773,47.889 53.68,47.988 C 53.587,48.086 53.466,48.134 53.316,48.134 C 53.17,48.134 53.05,48.083 52.958,47.981 C 52.865,47.879 52.819,47.741 52.819,47.564 C 52.819,47.227 52.991,46.918 53.335,46.635 C 53.679,46.354 54.161,46.212 54.782,46.212 C 55.259,46.212 55.649,46.292 55.954,46.451 C 56.184,46.572 56.354,46.761 56.464,47.017 C 56.534,47.185 56.569,47.527 56.569,48.044 L 56.569,49.86 C 56.569,50.37 56.579,50.682 56.598,50.797 C 56.618,50.912 56.65,50.989 56.695,51.027 C 56.74,51.066 56.792,51.086 56.851,51.086 C 56.913,51.086 56.969,51.072 57.016,51.045 C 57.098,50.994 57.257,50.852 57.492,50.617 L 57.492,50.945 C 57.054,51.528 56.635,51.82 56.235,51.82 C 56.044,51.82 55.891,51.755 55.777,51.625 C 55.664,51.498 55.605,51.276 55.601,50.963 z M 55.601,50.582 L 55.601,48.542 C 55.008,48.775 54.624,48.941 54.452,49.039 C 54.141,49.211 53.92,49.39 53.786,49.577 C 53.652,49.764 53.586,49.969 53.586,50.19 C 53.586,50.471 53.67,50.704 53.839,50.889 C 54.008,51.074 54.202,51.166 54.422,51.166 C 54.721,51.167 55.114,50.973 55.601,50.582 z "
           id="path71" />
        <path
           d="M 59.458,44.604 L 59.458,46.37 L 60.712,46.37 L 60.712,46.776 L 59.458,46.776 L 59.458,50.264 C 59.458,50.613 59.508,50.847 59.607,50.969 C 59.706,51.09 59.834,51.151 59.99,51.151 C 60.119,51.151 60.243,51.111 60.365,51.033 C 60.486,50.953 60.579,50.837 60.646,50.682 L 60.88,50.682 C 60.743,51.066 60.549,51.354 60.298,51.548 C 60.048,51.741 59.789,51.838 59.523,51.838 C 59.343,51.838 59.167,51.788 58.994,51.689 C 58.822,51.588 58.694,51.446 58.612,51.259 C 58.53,51.073 58.489,50.786 58.489,50.398 L 58.489,46.776 L 57.645,46.776 L 57.645,46.585 C 57.858,46.499 58.077,46.354 58.3,46.149 C 58.523,45.944 58.722,45.701 58.897,45.42 C 58.986,45.272 59.111,45 59.27,44.605 L 59.458,44.605 L 59.458,44.604 z "
           id="path73" />
        <path
           d="M 63.074,46.214 L 63.074,50.526 C 63.074,50.861 63.097,51.085 63.145,51.196 C 63.193,51.306 63.264,51.389 63.357,51.444 C 63.45,51.499 63.622,51.526 63.87,51.526 L 63.87,51.745 L 61.276,51.745 L 61.276,51.526 C 61.54,51.526 61.717,51.501 61.808,51.45 C 61.899,51.399 61.971,51.316 62.024,51.199 C 62.078,51.082 62.104,50.857 62.104,50.526 L 62.104,48.479 C 62.104,47.891 62.086,47.51 62.051,47.337 C 62.023,47.21 61.98,47.122 61.921,47.073 C 61.862,47.024 61.782,47 61.68,47 C 61.571,47 61.437,47.029 61.28,47.088 L 61.198,46.869 L 62.815,46.213 L 63.074,46.213 L 63.074,46.214 z M 62.592,43.401 C 62.756,43.401 62.895,43.459 63.01,43.574 C 63.125,43.689 63.183,43.828 63.183,43.992 C 63.183,44.156 63.125,44.297 63.01,44.413 C 62.895,44.53 62.756,44.589 62.592,44.589 C 62.428,44.589 62.288,44.53 62.171,44.413 C 62.054,44.297 61.995,44.156 61.995,43.992 C 61.995,43.828 62.053,43.689 62.168,43.574 C 62.283,43.459 62.424,43.401 62.592,43.401 z "
           id="path75" />
        <path
           d="M 64.308,46.37 L 66.822,46.37 L 66.822,46.589 L 66.658,46.589 C 66.506,46.589 66.39,46.626 66.311,46.7 C 66.232,46.774 66.193,46.874 66.193,46.999 C 66.193,47.136 66.233,47.298 66.314,47.485 L 67.556,50.45 L 68.798,47.374 C 68.888,47.155 68.933,46.989 68.933,46.876 C 68.933,46.821 68.917,46.776 68.886,46.741 C 68.843,46.682 68.788,46.642 68.722,46.621 C 68.656,46.6 68.521,46.589 68.318,46.589 L 68.318,46.37 L 70.072,46.37 L 70.072,46.589 C 69.869,46.606 69.728,46.647 69.65,46.714 C 69.513,46.833 69.39,47.031 69.281,47.309 L 67.409,51.902 L 67.141,51.902 L 65.245,47.377 C 65.159,47.165 65.077,47.014 64.999,46.922 C 64.921,46.83 64.821,46.753 64.7,46.69 C 64.634,46.655 64.503,46.622 64.307,46.59 L 64.307,46.37 L 64.308,46.37 z "
           id="path77" />
        <path
           d="M 71.47,48.401 C 71.466,49.191 71.659,49.81 72.051,50.259 C 72.442,50.707 72.901,50.932 73.429,50.932 C 73.781,50.932 74.087,50.837 74.347,50.646 C 74.607,50.457 74.826,50.125 75.001,49.651 L 75.189,49.768 C 75.107,50.311 74.868,50.802 74.473,51.242 C 74.078,51.682 73.583,51.901 72.989,51.901 C 72.343,51.901 71.791,51.65 71.332,51.149 C 70.872,50.648 70.643,49.974 70.643,49.128 C 70.643,48.211 70.878,47.496 71.35,46.983 C 71.821,46.47 72.412,46.213 73.124,46.213 C 73.727,46.213 74.222,46.411 74.608,46.808 C 74.996,47.205 75.189,47.736 75.189,48.401 L 71.47,48.401 L 71.47,48.401 z M 71.47,48.058 L 73.97,48.058 C 73.95,47.716 73.909,47.475 73.846,47.335 C 73.748,47.117 73.601,46.947 73.407,46.822 C 73.213,46.698 73.01,46.635 72.797,46.635 C 72.47,46.635 72.178,46.761 71.922,47.011 C 71.664,47.262 71.513,47.611 71.47,48.058 z "
           id="path79" />
        <path
           d="M 85.718,43.62 L 85.906,46.323 L 85.718,46.323 C 85.477,45.513 85.134,44.931 84.687,44.576 C 84.24,44.22 83.705,44.042 83.08,44.042 C 82.556,44.042 82.082,44.176 81.659,44.443 C 81.236,44.71 80.903,45.135 80.66,45.72 C 80.417,46.305 80.296,47.032 80.296,47.903 C 80.296,48.621 80.411,49.243 80.64,49.769 C 80.869,50.295 81.215,50.699 81.676,50.98 C 82.137,51.26 82.664,51.401 83.255,51.401 C 83.769,51.401 84.222,51.291 84.615,51.071 C 85.008,50.851 85.44,50.415 85.911,49.76 L 86.093,49.885 C 85.696,50.587 85.232,51.102 84.701,51.427 C 84.171,51.753 83.541,51.916 82.812,51.916 C 81.498,51.916 80.48,51.429 79.759,50.453 C 79.221,49.727 78.952,48.874 78.952,47.891 C 78.952,47.099 79.129,46.371 79.482,45.708 C 79.835,45.045 80.321,44.531 80.941,44.166 C 81.56,43.802 82.237,43.619 82.971,43.619 C 83.542,43.619 84.105,43.759 84.66,44.038 C 84.823,44.124 84.94,44.166 85.01,44.166 C 85.114,44.166 85.206,44.129 85.283,44.056 C 85.385,43.952 85.456,43.806 85.499,43.619 L 85.718,43.619 L 85.718,43.62 z "
           id="path81" />
        <path
           d="M 89.541,46.214 C 90.354,46.214 91.008,46.523 91.501,47.14 C 91.919,47.667 92.129,48.272 92.129,48.955 C 92.129,49.435 92.014,49.922 91.783,50.414 C 91.552,50.906 91.234,51.276 90.829,51.526 C 90.424,51.776 89.973,51.901 89.476,51.901 C 88.666,51.901 88.022,51.579 87.545,50.934 C 87.142,50.392 86.941,49.783 86.941,49.107 C 86.941,48.615 87.063,48.127 87.308,47.64 C 87.553,47.153 87.874,46.794 88.273,46.562 C 88.672,46.33 89.094,46.214 89.541,46.214 z M 89.359,46.589 C 89.152,46.589 88.944,46.651 88.735,46.774 C 88.526,46.897 88.357,47.113 88.228,47.421 C 88.099,47.729 88.035,48.125 88.035,48.609 C 88.035,49.39 88.19,50.064 88.501,50.63 C 88.812,51.195 89.221,51.479 89.729,51.479 C 90.108,51.479 90.42,51.323 90.667,51.01 C 90.913,50.698 91.036,50.161 91.036,49.4 C 91.036,48.447 90.831,47.698 90.421,47.151 C 90.142,46.776 89.789,46.589 89.359,46.589 z "
           id="path83" />
        <path
           d="M 94.488,47.357 C 94.877,46.966 95.107,46.741 95.177,46.682 C 95.352,46.534 95.541,46.418 95.743,46.336 C 95.945,46.254 96.146,46.213 96.344,46.213 C 96.679,46.213 96.967,46.311 97.208,46.506 C 97.449,46.701 97.611,46.985 97.693,47.357 C 98.096,46.888 98.437,46.58 98.715,46.433 C 98.992,46.287 99.278,46.213 99.572,46.213 C 99.857,46.213 100.111,46.286 100.332,46.433 C 100.553,46.58 100.728,46.819 100.858,47.151 C 100.944,47.378 100.987,47.733 100.987,48.217 L 100.987,50.526 C 100.987,50.861 101.012,51.091 101.062,51.216 C 101.1,51.302 101.171,51.374 101.275,51.435 C 101.379,51.496 101.548,51.526 101.783,51.526 L 101.783,51.745 L 99.142,51.745 L 99.142,51.526 L 99.254,51.526 C 99.486,51.526 99.668,51.481 99.798,51.391 C 99.889,51.329 99.953,51.23 99.993,51.093 C 100.009,51.027 100.016,50.837 100.016,50.526 L 100.016,48.217 C 100.016,47.779 99.963,47.471 99.857,47.291 C 99.704,47.041 99.459,46.916 99.121,46.916 C 98.913,46.916 98.704,46.968 98.494,47.071 C 98.284,47.174 98.03,47.368 97.731,47.649 L 97.719,47.713 L 97.75,47.965 L 97.75,50.525 C 97.75,50.891 97.771,51.12 97.812,51.21 C 97.853,51.3 97.93,51.374 98.044,51.435 C 98.158,51.496 98.351,51.526 98.626,51.526 L 98.626,51.745 L 95.91,51.745 L 95.91,51.526 C 96.207,51.526 96.412,51.491 96.523,51.421 C 96.635,51.352 96.712,51.246 96.755,51.106 C 96.775,51.04 96.784,50.846 96.784,50.527 L 96.784,48.219 C 96.784,47.781 96.72,47.467 96.59,47.276 C 96.418,47.027 96.176,46.902 95.867,46.902 C 95.656,46.902 95.446,46.959 95.239,47.072 C 94.914,47.244 94.663,47.436 94.487,47.651 L 94.487,50.527 C 94.487,50.878 94.511,51.106 94.56,51.212 C 94.609,51.318 94.681,51.396 94.777,51.448 C 94.873,51.5 95.068,51.527 95.361,51.527 L 95.361,51.746 L 92.72,51.746 L 92.72,51.527 C 92.961,51.527 93.129,51.501 93.224,51.448 C 93.319,51.395 93.392,51.311 93.442,51.197 C 93.492,51.082 93.517,50.858 93.517,50.527 L 93.517,48.48 C 93.517,47.892 93.499,47.512 93.464,47.34 C 93.436,47.212 93.393,47.123 93.334,47.074 C 93.275,47.025 93.195,47.001 93.093,47.001 C 92.984,47.001 92.852,47.03 92.699,47.089 L 92.611,46.87 L 94.233,46.214 L 94.486,46.214 L 94.486,47.357 L 94.488,47.357 z "
           id="path85" />
        <path
           d="M 103.822,47.357 C 104.211,46.966 104.441,46.741 104.511,46.682 C 104.686,46.534 104.875,46.418 105.077,46.336 C 105.279,46.254 105.48,46.213 105.678,46.213 C 106.013,46.213 106.301,46.311 106.542,46.506 C 106.783,46.701 106.945,46.985 107.027,47.357 C 107.43,46.888 107.771,46.58 108.049,46.433 C 108.326,46.287 108.612,46.213 108.906,46.213 C 109.191,46.213 109.445,46.286 109.666,46.433 C 109.887,46.58 110.062,46.819 110.192,47.151 C 110.278,47.378 110.321,47.733 110.321,48.217 L 110.321,50.526 C 110.321,50.861 110.346,51.091 110.396,51.216 C 110.434,51.302 110.505,51.374 110.609,51.435 C 110.713,51.496 110.882,51.526 111.117,51.526 L 111.117,51.745 L 108.476,51.745 L 108.476,51.526 L 108.588,51.526 C 108.82,51.526 109.002,51.481 109.132,51.391 C 109.223,51.329 109.287,51.23 109.327,51.093 C 109.343,51.027 109.35,50.837 109.35,50.526 L 109.35,48.217 C 109.35,47.779 109.297,47.471 109.191,47.291 C 109.038,47.041 108.793,46.916 108.455,46.916 C 108.247,46.916 108.038,46.968 107.828,47.071 C 107.618,47.174 107.364,47.368 107.065,47.649 L 107.053,47.713 L 107.084,47.965 L 107.084,50.525 C 107.084,50.891 107.105,51.12 107.146,51.21 C 107.187,51.3 107.264,51.374 107.378,51.435 C 107.492,51.496 107.685,51.526 107.96,51.526 L 107.96,51.745 L 105.241,51.745 L 105.241,51.526 C 105.538,51.526 105.743,51.491 105.854,51.421 C 105.966,51.352 106.043,51.246 106.086,51.106 C 106.106,51.04 106.115,50.846 106.115,50.527 L 106.115,48.219 C 106.115,47.781 106.051,47.467 105.921,47.276 C 105.749,47.027 105.507,46.902 105.198,46.902 C 104.987,46.902 104.777,46.959 104.57,47.072 C 104.245,47.244 103.994,47.436 103.818,47.651 L 103.818,50.527 C 103.818,50.878 103.842,51.106 103.891,51.212 C 103.94,51.318 104.012,51.396 104.108,51.448 C 104.204,51.5 104.399,51.527 104.692,51.527 L 104.692,51.746 L 102.051,51.746 L 102.051,51.527 C 102.292,51.527 102.46,51.501 102.555,51.448 C 102.65,51.395 102.723,51.311 102.773,51.197 C 102.823,51.082 102.848,50.858 102.848,50.527 L 102.848,48.48 C 102.848,47.892 102.83,47.512 102.795,47.34 C 102.767,47.212 102.724,47.123 102.665,47.074 C 102.606,47.025 102.526,47.001 102.424,47.001 C 102.315,47.001 102.183,47.03 102.03,47.089 L 101.942,46.87 L 103.564,46.214 L 103.817,46.214 L 103.817,47.357 L 103.822,47.357 z "
           id="path87" />
        <path
           d="M 114.208,46.214 C 115.021,46.214 115.675,46.523 116.168,47.14 C 116.586,47.667 116.796,48.272 116.796,48.955 C 116.796,49.435 116.681,49.922 116.45,50.414 C 116.219,50.906 115.901,51.276 115.496,51.526 C 115.091,51.776 114.64,51.901 114.143,51.901 C 113.333,51.901 112.689,51.579 112.212,50.934 C 111.809,50.392 111.608,49.783 111.608,49.107 C 111.608,48.615 111.73,48.127 111.975,47.64 C 112.22,47.153 112.541,46.794 112.94,46.562 C 113.339,46.33 113.762,46.214 114.208,46.214 z M 114.027,46.589 C 113.82,46.589 113.612,46.651 113.403,46.774 C 113.194,46.897 113.025,47.113 112.896,47.421 C 112.767,47.729 112.703,48.125 112.703,48.609 C 112.703,49.39 112.858,50.064 113.169,50.63 C 113.48,51.195 113.889,51.479 114.397,51.479 C 114.776,51.479 115.088,51.323 115.335,51.01 C 115.581,50.698 115.704,50.161 115.704,49.4 C 115.704,48.447 115.499,47.698 115.089,47.151 C 114.81,46.776 114.457,46.589 114.027,46.589 z "
           id="path89" />
        <path
           d="M 119.125,47.335 C 119.754,46.588 120.354,46.214 120.924,46.214 C 121.217,46.214 121.469,46.287 121.68,46.434 C 121.891,46.581 122.059,46.822 122.184,47.158 C 122.27,47.392 122.313,47.752 122.313,48.236 L 122.313,50.527 C 122.313,50.866 122.34,51.096 122.396,51.217 C 122.439,51.315 122.509,51.39 122.606,51.445 C 122.703,51.5 122.881,51.527 123.141,51.527 L 123.141,51.746 L 120.469,51.746 L 120.469,51.527 L 120.581,51.527 C 120.833,51.527 121.01,51.489 121.11,51.413 C 121.21,51.337 121.28,51.225 121.32,51.077 C 121.336,51.018 121.343,50.835 121.343,50.527 L 121.343,48.319 C 121.343,47.829 121.28,47.472 121.153,47.251 C 121.026,47.03 120.812,46.918 120.512,46.918 C 120.047,46.918 119.585,47.173 119.124,47.684 L 119.124,50.528 C 119.124,50.89 119.145,51.115 119.188,51.201 C 119.243,51.314 119.318,51.396 119.414,51.449 C 119.51,51.502 119.705,51.528 119.998,51.528 L 119.998,51.747 L 117.357,51.747 L 117.357,51.528 L 117.472,51.528 C 117.739,51.528 117.92,51.459 118.014,51.32 C 118.108,51.182 118.155,50.918 118.155,50.528 L 118.155,48.544 C 118.155,47.899 118.14,47.507 118.111,47.366 C 118.081,47.225 118.036,47.13 117.975,47.079 C 117.914,47.028 117.833,47.003 117.731,47.003 C 117.622,47.003 117.49,47.032 117.337,47.091 L 117.249,46.872 L 118.871,46.216 L 119.124,46.216 L 119.124,47.335 L 119.125,47.335 z "
           id="path91" />
        <path
           d="M 127.031,46.214 L 127.031,48.042 L 126.812,48.042 C 126.666,47.467 126.479,47.076 126.251,46.869 C 126.023,46.661 125.732,46.557 125.38,46.557 C 125.112,46.557 124.896,46.629 124.731,46.774 C 124.566,46.919 124.484,47.079 124.484,47.254 C 124.484,47.473 124.544,47.661 124.665,47.817 C 124.782,47.977 125.025,48.147 125.395,48.327 L 126.249,48.743 C 127.041,49.13 127.437,49.639 127.437,50.272 C 127.437,50.76 127.254,51.153 126.889,51.452 C 126.524,51.751 126.116,51.9 125.664,51.9 C 125.339,51.9 124.969,51.845 124.552,51.736 C 124.424,51.7 124.32,51.681 124.239,51.681 C 124.15,51.681 124.08,51.728 124.031,51.822 L 123.812,51.822 L 123.812,49.9 L 124.031,49.9 C 124.138,50.448 124.343,50.862 124.646,51.139 C 124.949,51.417 125.289,51.556 125.665,51.556 C 125.93,51.556 126.145,51.477 126.312,51.319 C 126.479,51.161 126.562,50.97 126.562,50.748 C 126.562,50.478 126.469,50.251 126.283,50.067 C 126.097,49.883 125.721,49.651 125.155,49.371 C 124.59,49.09 124.219,48.836 124.044,48.609 C 123.869,48.386 123.781,48.105 123.781,47.765 C 123.781,47.324 123.93,46.954 124.23,46.658 C 124.529,46.361 124.917,46.213 125.392,46.213 C 125.6,46.213 125.854,46.257 126.151,46.345 C 126.348,46.404 126.479,46.432 126.545,46.432 C 126.607,46.432 126.655,46.418 126.69,46.392 C 126.725,46.365 126.766,46.306 126.812,46.213 L 127.031,46.213 L 127.031,46.214 z "
           id="path93" />
        <path
           d="M 8.083,57.801 L 8.083,64.926 C 8.083,65.262 8.107,65.484 8.157,65.593 C 8.206,65.701 8.282,65.784 8.385,65.841 C 8.488,65.898 8.678,65.926 8.958,65.926 L 8.958,66.145 L 6.318,66.145 L 6.318,65.926 C 6.566,65.926 6.735,65.901 6.826,65.85 C 6.916,65.799 6.987,65.715 7.038,65.599 C 7.09,65.482 7.115,65.258 7.115,64.926 L 7.115,60.067 C 7.115,59.458 7.101,59.085 7.074,58.944 C 7.047,58.805 7.003,58.71 6.942,58.659 C 6.881,58.608 6.804,58.583 6.711,58.583 C 6.609,58.583 6.481,58.614 6.324,58.677 L 6.224,58.458 L 7.82,57.802 L 8.083,57.802 L 8.083,57.801 z "
           id="path95" />
        <path
           d="M 11.417,60.613 L 11.417,64.925 C 11.417,65.261 11.44,65.484 11.488,65.595 C 11.536,65.706 11.607,65.788 11.7,65.843 C 11.793,65.898 11.965,65.925 12.213,65.925 L 12.213,66.144 L 9.621,66.144 L 9.621,65.925 C 9.885,65.925 10.062,65.9 10.153,65.849 C 10.244,65.798 10.316,65.714 10.369,65.598 C 10.423,65.481 10.449,65.257 10.449,64.925 L 10.449,62.878 C 10.449,62.29 10.431,61.909 10.396,61.735 C 10.368,61.609 10.325,61.522 10.266,61.472 C 10.207,61.423 10.127,61.399 10.025,61.399 C 9.916,61.399 9.782,61.428 9.625,61.487 L 9.542,61.27 L 11.159,60.614 L 11.417,60.614 L 11.417,60.613 z M 10.936,57.801 C 11.1,57.801 11.239,57.859 11.354,57.974 C 11.469,58.089 11.527,58.229 11.527,58.392 C 11.527,58.556 11.469,58.696 11.354,58.813 C 11.239,58.93 11.1,58.989 10.936,58.989 C 10.772,58.989 10.632,58.93 10.515,58.813 C 10.398,58.696 10.339,58.556 10.339,58.392 C 10.339,58.229 10.397,58.089 10.512,57.974 C 10.627,57.858 10.768,57.801 10.936,57.801 z "
           id="path97" />
        <path
           d="M 17.501,64.086 C 17.355,64.803 17.071,65.351 16.647,65.731 C 16.223,66.112 15.754,66.301 15.239,66.301 C 14.627,66.301 14.093,66.045 13.637,65.533 C 13.181,65.021 12.954,64.331 12.954,63.46 C 12.954,62.617 13.206,61.932 13.71,61.404 C 14.214,60.876 14.819,60.613 15.526,60.613 C 16.055,60.613 16.491,60.753 16.832,61.031 C 17.173,61.309 17.344,61.598 17.344,61.898 C 17.344,62.045 17.296,62.166 17.199,62.257 C 17.103,62.348 16.969,62.394 16.796,62.394 C 16.564,62.394 16.392,62.32 16.28,62.169 C 16.208,62.087 16.161,61.929 16.139,61.696 C 16.117,61.463 16.038,61.286 15.901,61.165 C 15.764,61.046 15.574,60.987 15.331,60.987 C 14.938,60.987 14.622,61.132 14.383,61.422 C 14.066,61.806 13.906,62.312 13.906,62.943 C 13.906,63.585 14.064,64.151 14.38,64.642 C 14.696,65.133 15.123,65.378 15.661,65.378 C 16.046,65.378 16.391,65.249 16.698,64.992 C 16.914,64.811 17.124,64.482 17.328,64.003 L 17.501,64.086 z "
           id="path99" />
        <path
           d="M 19.14,62.801 C 19.136,63.59 19.329,64.21 19.721,64.658 C 20.112,65.107 20.571,65.332 21.099,65.332 C 21.451,65.332 21.757,65.236 22.017,65.047 C 22.277,64.856 22.496,64.525 22.671,64.051 L 22.859,64.168 C 22.777,64.711 22.538,65.203 22.143,65.642 C 21.748,66.081 21.253,66.301 20.659,66.301 C 20.013,66.301 19.461,66.051 19.002,65.549 C 18.542,65.048 18.313,64.374 18.313,63.528 C 18.313,62.611 18.548,61.896 19.02,61.383 C 19.491,60.87 20.082,60.613 20.794,60.613 C 21.397,60.613 21.892,60.811 22.278,61.209 C 22.666,61.605 22.859,62.137 22.859,62.801 L 19.14,62.801 L 19.14,62.801 z M 19.14,62.457 L 21.64,62.457 C 21.62,62.115 21.579,61.875 21.516,61.734 C 21.418,61.517 21.271,61.345 21.077,61.221 C 20.883,61.097 20.68,61.034 20.467,61.034 C 20.14,61.034 19.848,61.159 19.592,61.41 C 19.333,61.662 19.183,62.01 19.14,62.457 z "
           id="path101" />
        <path
           d="M 25.123,61.734 C 25.752,60.987 26.352,60.613 26.922,60.613 C 27.215,60.613 27.467,60.686 27.678,60.833 C 27.889,60.98 28.057,61.221 28.182,61.557 C 28.268,61.791 28.311,62.151 28.311,62.635 L 28.311,64.926 C 28.311,65.266 28.338,65.495 28.394,65.615 C 28.437,65.713 28.507,65.789 28.604,65.844 C 28.701,65.899 28.879,65.926 29.139,65.926 L 29.139,66.145 L 26.467,66.145 L 26.467,65.926 L 26.579,65.926 C 26.831,65.926 27.008,65.888 27.108,65.812 C 27.209,65.737 27.278,65.624 27.318,65.476 C 27.334,65.417 27.341,65.235 27.341,64.926 L 27.341,62.718 C 27.341,62.227 27.278,61.871 27.151,61.65 C 27.024,61.429 26.81,61.317 26.51,61.317 C 26.045,61.317 25.583,61.572 25.122,62.083 L 25.122,64.927 C 25.122,65.29 25.143,65.514 25.186,65.6 C 25.241,65.712 25.316,65.795 25.412,65.848 C 25.508,65.901 25.703,65.927 25.996,65.927 L 25.996,66.146 L 23.355,66.146 L 23.355,65.927 L 23.47,65.927 C 23.737,65.927 23.918,65.858 24.012,65.72 C 24.106,65.581 24.153,65.317 24.153,64.927 L 24.153,62.943 C 24.153,62.298 24.138,61.906 24.109,61.765 C 24.079,61.624 24.034,61.529 23.973,61.478 C 23.912,61.427 23.832,61.4 23.73,61.4 C 23.621,61.4 23.489,61.429 23.336,61.488 L 23.248,61.269 L 24.87,60.613 L 25.123,60.613 L 25.123,61.734 z "
           id="path103" />
        <path
           d="M 33.029,60.613 L 33.029,62.441 L 32.81,62.441 C 32.664,61.866 32.477,61.475 32.249,61.267 C 32.021,61.06 31.73,60.956 31.378,60.956 C 31.11,60.956 30.894,61.028 30.729,61.173 C 30.564,61.318 30.482,61.478 30.482,61.653 C 30.482,61.872 30.542,62.059 30.663,62.215 C 30.78,62.375 31.023,62.545 31.393,62.725 L 32.247,63.142 C 33.039,63.529 33.435,64.038 33.435,64.67 C 33.435,65.158 33.252,65.552 32.887,65.851 C 32.522,66.15 32.114,66.299 31.662,66.299 C 31.337,66.299 30.967,66.244 30.55,66.135 C 30.422,66.099 30.318,66.08 30.237,66.08 C 30.148,66.08 30.078,66.127 30.029,66.221 L 29.81,66.221 L 29.81,64.299 L 30.029,64.299 C 30.136,64.848 30.341,65.26 30.644,65.538 C 30.947,65.816 31.287,65.955 31.663,65.955 C 31.928,65.955 32.143,65.876 32.31,65.718 C 32.477,65.56 32.56,65.369 32.56,65.147 C 32.56,64.877 32.467,64.651 32.281,64.467 C 32.095,64.283 31.719,64.051 31.153,63.77 C 30.588,63.489 30.217,63.235 30.042,63.008 C 29.867,62.785 29.779,62.504 29.779,62.164 C 29.779,61.723 29.928,61.353 30.228,61.057 C 30.527,60.76 30.915,60.612 31.39,60.612 C 31.598,60.612 31.852,60.656 32.149,60.745 C 32.346,60.802 32.477,60.831 32.543,60.831 C 32.605,60.831 32.653,60.817 32.688,60.791 C 32.723,60.764 32.764,60.704 32.81,60.612 L 33.029,60.612 L 33.029,60.613 z "
           id="path105" />
        <path
           d="M 35.136,62.801 C 35.132,63.59 35.325,64.21 35.717,64.658 C 36.108,65.107 36.567,65.332 37.095,65.332 C 37.447,65.332 37.753,65.236 38.013,65.047 C 38.273,64.856 38.492,64.525 38.667,64.051 L 38.855,64.168 C 38.773,64.711 38.534,65.203 38.139,65.642 C 37.744,66.081 37.249,66.301 36.655,66.301 C 36.009,66.301 35.457,66.051 34.998,65.549 C 34.538,65.048 34.309,64.374 34.309,63.528 C 34.309,62.611 34.544,61.896 35.016,61.383 C 35.487,60.87 36.078,60.613 36.79,60.613 C 37.393,60.613 37.888,60.811 38.274,61.209 C 38.662,61.605 38.855,62.137 38.855,62.801 L 35.136,62.801 L 35.136,62.801 z M 35.136,62.457 L 37.636,62.457 C 37.616,62.115 37.575,61.875 37.512,61.734 C 37.414,61.517 37.267,61.345 37.073,61.221 C 36.879,61.097 36.676,61.034 36.463,61.034 C 36.136,61.034 35.844,61.159 35.588,61.41 C 35.33,61.662 35.179,62.01 35.136,62.457 z "
           id="path107" />
        <path
           d="M 43.353,65.529 C 43.091,65.806 42.835,66.005 42.585,66.123 C 42.335,66.241 42.066,66.301 41.777,66.301 C 41.191,66.301 40.679,66.057 40.242,65.567 C 39.805,65.078 39.586,64.449 39.586,63.68 C 39.586,62.911 39.828,62.208 40.312,61.571 C 40.796,60.934 41.419,60.614 42.18,60.614 C 42.652,60.614 43.043,60.771 43.351,61.085 L 43.351,60.067 C 43.351,59.458 43.336,59.084 43.307,58.944 C 43.278,58.804 43.232,58.71 43.17,58.659 C 43.108,58.608 43.03,58.583 42.938,58.583 C 42.836,58.583 42.703,58.614 42.536,58.677 L 42.46,58.458 L 44.056,57.802 L 44.319,57.802 L 44.319,64.021 C 44.319,64.642 44.334,65.021 44.363,65.158 C 44.392,65.296 44.438,65.391 44.503,65.445 C 44.566,65.5 44.642,65.527 44.727,65.527 C 44.832,65.527 44.972,65.494 45.146,65.427 L 45.21,65.646 L 43.62,66.302 L 43.351,66.302 L 43.351,65.529 L 43.353,65.529 z M 43.353,65.121 L 43.353,62.38 C 43.33,62.11 43.26,61.866 43.144,61.649 C 43.028,61.43 42.873,61.266 42.682,61.155 C 42.49,61.045 42.303,60.989 42.121,60.989 C 41.78,60.989 41.476,61.143 41.209,61.45 C 40.856,61.855 40.681,62.447 40.681,63.225 C 40.681,64.012 40.851,64.615 41.192,65.033 C 41.533,65.452 41.913,65.661 42.331,65.661 C 42.683,65.66 43.024,65.48 43.353,65.121 z "
           id="path109" />
        <path
           d="M 51.587,65.361 C 51.037,65.791 50.691,66.039 50.551,66.106 C 50.34,66.205 50.116,66.253 49.878,66.253 C 49.508,66.253 49.202,66.126 48.962,65.872 C 48.722,65.618 48.602,65.283 48.602,64.868 C 48.602,64.606 48.661,64.38 48.778,64.188 C 48.938,63.922 49.216,63.671 49.611,63.437 C 50.006,63.203 50.665,62.916 51.586,62.581 L 51.586,62.37 C 51.586,61.836 51.502,61.47 51.333,61.27 C 51.164,61.071 50.918,60.971 50.597,60.971 C 50.352,60.971 50.158,61.037 50.014,61.17 C 49.867,61.304 49.793,61.456 49.793,61.629 L 49.805,61.969 C 49.805,62.15 49.759,62.289 49.666,62.387 C 49.573,62.485 49.452,62.533 49.302,62.533 C 49.156,62.533 49.036,62.482 48.944,62.381 C 48.851,62.278 48.805,62.14 48.805,61.963 C 48.805,61.626 48.977,61.317 49.321,61.035 C 49.665,60.752 50.147,60.611 50.768,60.611 C 51.245,60.611 51.635,60.691 51.94,60.85 C 52.17,60.971 52.34,61.16 52.45,61.416 C 52.52,61.583 52.555,61.926 52.555,62.443 L 52.555,64.258 C 52.555,64.769 52.565,65.081 52.584,65.196 C 52.604,65.311 52.636,65.387 52.681,65.426 C 52.726,65.465 52.778,65.485 52.837,65.485 C 52.899,65.485 52.955,65.471 53.002,65.444 C 53.084,65.393 53.243,65.251 53.478,65.016 L 53.478,65.344 C 53.04,65.928 52.621,66.219 52.221,66.219 C 52.03,66.219 51.877,66.154 51.763,66.024 C 51.65,65.897 51.591,65.676 51.587,65.361 z M 51.587,64.981 L 51.587,62.941 C 50.994,63.175 50.61,63.34 50.438,63.438 C 50.127,63.609 49.906,63.789 49.772,63.976 C 49.638,64.163 49.572,64.368 49.572,64.589 C 49.572,64.87 49.656,65.103 49.825,65.288 C 49.994,65.473 50.188,65.565 50.408,65.565 C 50.708,65.566 51.1,65.371 51.587,64.981 z "
           id="path111" />
        <path
           d="M 55.46,60.613 L 55.46,61.828 C 55.909,61.018 56.369,60.613 56.842,60.613 C 57.056,60.613 57.234,60.679 57.374,60.81 C 57.515,60.943 57.585,61.094 57.585,61.267 C 57.585,61.421 57.534,61.55 57.433,61.657 C 57.332,61.764 57.21,61.816 57.069,61.816 C 56.932,61.816 56.778,61.749 56.61,61.613 C 56.44,61.478 56.314,61.41 56.233,61.41 C 56.163,61.41 56.087,61.449 56.005,61.527 C 55.829,61.688 55.648,61.952 55.461,62.32 L 55.461,64.894 C 55.461,65.19 55.499,65.414 55.574,65.565 C 55.626,65.669 55.717,65.756 55.848,65.824 C 55.979,65.892 56.168,65.926 56.414,65.926 L 56.414,66.145 L 53.648,66.145 L 53.648,65.926 C 53.921,65.926 54.125,65.883 54.257,65.797 C 54.355,65.734 54.423,65.634 54.462,65.496 C 54.482,65.43 54.491,65.24 54.491,64.926 L 54.491,62.848 C 54.491,62.229 54.478,61.86 54.453,61.742 C 54.428,61.624 54.38,61.538 54.311,61.483 C 54.243,61.428 54.157,61.401 54.055,61.401 C 53.933,61.401 53.796,61.43 53.643,61.489 L 53.584,61.27 L 55.212,60.614 L 55.46,60.614 L 55.46,60.613 z "
           id="path113" />
        <path
           d="M 59.441,59.004 L 59.441,60.77 L 60.695,60.77 L 60.695,61.176 L 59.441,61.176 L 59.441,64.664 C 59.441,65.013 59.491,65.248 59.59,65.369 C 59.689,65.49 59.817,65.551 59.973,65.551 C 60.102,65.551 60.226,65.512 60.348,65.432 C 60.469,65.354 60.562,65.237 60.629,65.082 L 60.863,65.082 C 60.726,65.466 60.532,65.754 60.281,65.947 C 60.031,66.141 59.772,66.238 59.506,66.238 C 59.326,66.238 59.15,66.188 58.977,66.088 C 58.805,65.988 58.677,65.846 58.595,65.659 C 58.513,65.472 58.472,65.185 58.472,64.798 L 58.472,61.176 L 57.628,61.176 L 57.628,60.985 C 57.841,60.899 58.06,60.755 58.283,60.549 C 58.506,60.343 58.705,60.102 58.88,59.82 C 58.969,59.672 59.094,59.399 59.253,59.005 L 59.441,59.005 L 59.441,59.004 z "
           id="path115" />
        <path
           d="M 67.244,65.361 C 66.694,65.791 66.348,66.039 66.208,66.106 C 65.997,66.205 65.773,66.253 65.535,66.253 C 65.165,66.253 64.859,66.126 64.619,65.872 C 64.379,65.618 64.259,65.283 64.259,64.868 C 64.259,64.606 64.318,64.38 64.435,64.188 C 64.595,63.922 64.873,63.671 65.268,63.437 C 65.663,63.203 66.322,62.916 67.243,62.581 L 67.243,62.37 C 67.243,61.836 67.159,61.47 66.99,61.27 C 66.821,61.071 66.575,60.971 66.254,60.971 C 66.009,60.971 65.815,61.037 65.671,61.17 C 65.524,61.304 65.45,61.456 65.45,61.629 L 65.462,61.969 C 65.462,62.15 65.416,62.289 65.323,62.387 C 65.23,62.485 65.109,62.533 64.959,62.533 C 64.813,62.533 64.693,62.482 64.601,62.381 C 64.508,62.278 64.462,62.14 64.462,61.963 C 64.462,61.626 64.634,61.317 64.978,61.035 C 65.322,60.752 65.804,60.611 66.425,60.611 C 66.902,60.611 67.292,60.691 67.597,60.85 C 67.827,60.971 67.997,61.16 68.107,61.416 C 68.177,61.583 68.212,61.926 68.212,62.443 L 68.212,64.258 C 68.212,64.769 68.222,65.081 68.241,65.196 C 68.261,65.311 68.293,65.387 68.338,65.426 C 68.383,65.465 68.435,65.485 68.494,65.485 C 68.556,65.485 68.612,65.471 68.659,65.444 C 68.741,65.393 68.9,65.251 69.135,65.016 L 69.135,65.344 C 68.697,65.928 68.278,66.219 67.878,66.219 C 67.687,66.219 67.534,66.154 67.42,66.024 C 67.306,65.897 67.248,65.676 67.244,65.361 z M 67.244,64.981 L 67.244,62.941 C 66.651,63.175 66.267,63.34 66.095,63.438 C 65.784,63.609 65.563,63.789 65.429,63.976 C 65.295,64.163 65.229,64.368 65.229,64.589 C 65.229,64.87 65.313,65.103 65.482,65.288 C 65.651,65.473 65.845,65.565 66.065,65.565 C 66.364,65.566 66.756,65.371 67.244,64.981 z "
           id="path117" />
        <path
           d="M 71.101,61.734 C 71.73,60.987 72.33,60.613 72.9,60.613 C 73.193,60.613 73.445,60.686 73.656,60.833 C 73.867,60.98 74.035,61.221 74.16,61.557 C 74.246,61.791 74.289,62.151 74.289,62.635 L 74.289,64.926 C 74.289,65.266 74.316,65.495 74.372,65.615 C 74.415,65.713 74.485,65.789 74.582,65.844 C 74.679,65.899 74.857,65.926 75.117,65.926 L 75.117,66.145 L 72.445,66.145 L 72.445,65.926 L 72.557,65.926 C 72.809,65.926 72.986,65.888 73.086,65.812 C 73.187,65.737 73.256,65.624 73.296,65.476 C 73.312,65.417 73.319,65.235 73.319,64.926 L 73.319,62.718 C 73.319,62.227 73.256,61.871 73.129,61.65 C 73.002,61.429 72.788,61.317 72.488,61.317 C 72.023,61.317 71.561,61.572 71.1,62.083 L 71.1,64.927 C 71.1,65.29 71.121,65.514 71.164,65.6 C 71.219,65.712 71.294,65.795 71.39,65.848 C 71.486,65.901 71.681,65.927 71.974,65.927 L 71.974,66.146 L 69.333,66.146 L 69.333,65.927 L 69.448,65.927 C 69.715,65.927 69.896,65.858 69.99,65.72 C 70.084,65.581 70.131,65.317 70.131,64.927 L 70.131,62.943 C 70.131,62.298 70.116,61.906 70.087,61.765 C 70.057,61.624 70.012,61.529 69.951,61.478 C 69.89,61.427 69.811,61.4 69.708,61.4 C 69.599,61.4 69.467,61.429 69.314,61.488 L 69.226,61.269 L 70.848,60.613 L 71.101,60.613 L 71.101,61.734 z "
           id="path119" />
        <path
           d="M 79.335,65.529 C 79.073,65.806 78.817,66.005 78.567,66.123 C 78.317,66.241 78.048,66.301 77.759,66.301 C 77.173,66.301 76.661,66.057 76.224,65.567 C 75.787,65.078 75.568,64.449 75.568,63.68 C 75.568,62.911 75.81,62.208 76.294,61.571 C 76.778,60.934 77.401,60.614 78.162,60.614 C 78.634,60.614 79.025,60.771 79.333,61.085 L 79.333,60.067 C 79.333,59.458 79.318,59.084 79.289,58.944 C 79.26,58.804 79.214,58.71 79.152,58.659 C 79.09,58.608 79.012,58.583 78.92,58.583 C 78.818,58.583 78.685,58.614 78.518,58.677 L 78.442,58.458 L 80.038,57.802 L 80.301,57.802 L 80.301,64.021 C 80.301,64.642 80.316,65.021 80.345,65.158 C 80.374,65.296 80.42,65.391 80.485,65.445 C 80.548,65.5 80.624,65.527 80.709,65.527 C 80.814,65.527 80.954,65.494 81.128,65.427 L 81.192,65.646 L 79.602,66.302 L 79.333,66.302 L 79.333,65.529 L 79.335,65.529 z M 79.335,65.121 L 79.335,62.38 C 79.312,62.11 79.242,61.866 79.126,61.649 C 79.01,61.43 78.855,61.266 78.664,61.155 C 78.472,61.045 78.285,60.989 78.103,60.989 C 77.762,60.989 77.458,61.143 77.191,61.45 C 76.838,61.855 76.663,62.447 76.663,63.225 C 76.663,64.012 76.833,64.615 77.174,65.033 C 77.515,65.452 77.895,65.661 78.313,65.661 C 78.666,65.66 79.006,65.48 79.335,65.121 z "
           id="path121" />
        <path
           d="M 86.132,61.756 C 86.521,61.365 86.751,61.141 86.821,61.082 C 86.996,60.934 87.185,60.818 87.387,60.736 C 87.589,60.654 87.79,60.613 87.988,60.613 C 88.323,60.613 88.611,60.711 88.852,60.906 C 89.093,61.101 89.255,61.385 89.337,61.756 C 89.74,61.287 90.081,60.98 90.359,60.833 C 90.636,60.687 90.922,60.613 91.216,60.613 C 91.501,60.613 91.755,60.686 91.976,60.833 C 92.197,60.98 92.372,61.219 92.502,61.551 C 92.588,61.778 92.631,62.133 92.631,62.617 L 92.631,64.926 C 92.631,65.262 92.656,65.491 92.706,65.615 C 92.744,65.701 92.815,65.774 92.919,65.835 C 93.023,65.896 93.192,65.926 93.427,65.926 L 93.427,66.145 L 90.786,66.145 L 90.786,65.926 L 90.898,65.926 C 91.13,65.926 91.312,65.881 91.442,65.791 C 91.533,65.729 91.597,65.63 91.637,65.493 C 91.653,65.427 91.66,65.238 91.66,64.926 L 91.66,62.617 C 91.66,62.179 91.607,61.871 91.501,61.691 C 91.348,61.441 91.103,61.316 90.765,61.316 C 90.557,61.316 90.348,61.368 90.138,61.471 C 89.928,61.575 89.674,61.768 89.375,62.049 L 89.363,62.113 L 89.394,62.365 L 89.394,64.925 C 89.394,65.292 89.415,65.52 89.456,65.61 C 89.497,65.699 89.574,65.774 89.688,65.835 C 89.802,65.896 89.995,65.926 90.27,65.926 L 90.27,66.145 L 87.551,66.145 L 87.551,65.926 C 87.848,65.926 88.053,65.891 88.164,65.821 C 88.276,65.751 88.353,65.646 88.396,65.506 C 88.416,65.44 88.425,65.247 88.425,64.927 L 88.425,62.618 C 88.425,62.181 88.361,61.867 88.231,61.676 C 88.059,61.427 87.817,61.302 87.508,61.302 C 87.297,61.302 87.087,61.359 86.88,61.472 C 86.555,61.644 86.304,61.837 86.128,62.051 L 86.128,64.927 C 86.128,65.279 86.152,65.506 86.201,65.612 C 86.25,65.716 86.322,65.796 86.418,65.848 C 86.514,65.9 86.709,65.927 87.002,65.927 L 87.002,66.146 L 84.361,66.146 L 84.361,65.927 C 84.602,65.927 84.77,65.901 84.865,65.848 C 84.96,65.795 85.033,65.712 85.083,65.597 C 85.133,65.482 85.158,65.259 85.158,64.927 L 85.158,62.88 C 85.158,62.292 85.14,61.912 85.105,61.74 C 85.077,61.612 85.034,61.523 84.975,61.474 C 84.916,61.425 84.842,61.4 84.74,61.4 C 84.631,61.4 84.499,61.429 84.346,61.488 L 84.258,61.269 L 85.88,60.613 L 86.133,60.613 L 86.133,61.756 L 86.132,61.756 z "
           id="path123" />
        <path
           d="M 98.576,60.77 L 98.576,64.036 C 98.576,64.647 98.591,65.022 98.62,65.158 C 98.649,65.295 98.697,65.39 98.762,65.444 C 98.826,65.499 98.902,65.526 98.989,65.526 C 99.11,65.526 99.248,65.493 99.401,65.426 L 99.483,65.645 L 97.873,66.301 L 97.608,66.301 L 97.608,65.18 C 97.148,65.673 96.797,65.984 96.555,66.111 C 96.313,66.238 96.058,66.301 95.789,66.301 C 95.489,66.301 95.228,66.214 95.008,66.04 C 94.787,65.867 94.634,65.644 94.549,65.37 C 94.463,65.097 94.42,64.711 94.42,64.211 L 94.42,61.816 C 94.42,61.562 94.393,61.385 94.338,61.288 C 94.283,61.189 94.202,61.114 94.095,61.061 C 93.988,61.008 93.794,60.984 93.513,60.988 L 93.513,60.77 L 95.388,60.77 L 95.388,64.375 C 95.388,64.877 95.475,65.206 95.649,65.362 C 95.822,65.519 96.032,65.597 96.278,65.597 C 96.446,65.597 96.636,65.544 96.849,65.439 C 97.061,65.333 97.314,65.13 97.607,64.833 L 97.607,61.785 C 97.607,61.478 97.55,61.27 97.437,61.162 C 97.324,61.055 97.089,60.996 96.732,60.988 L 96.732,60.77 L 98.576,60.77 z "
           id="path125" />
        <path
           d="M 103.341,60.613 L 103.341,62.441 L 103.122,62.441 C 102.976,61.866 102.789,61.475 102.561,61.267 C 102.333,61.06 102.042,60.956 101.69,60.956 C 101.422,60.956 101.206,61.028 101.041,61.173 C 100.876,61.318 100.794,61.478 100.794,61.653 C 100.794,61.872 100.854,62.059 100.975,62.215 C 101.092,62.375 101.335,62.545 101.705,62.725 L 102.559,63.142 C 103.351,63.529 103.747,64.038 103.747,64.67 C 103.747,65.158 103.564,65.552 103.199,65.851 C 102.834,66.15 102.426,66.299 101.974,66.299 C 101.649,66.299 101.279,66.244 100.862,66.135 C 100.734,66.099 100.63,66.08 100.549,66.08 C 100.46,66.08 100.39,66.127 100.341,66.221 L 100.122,66.221 L 100.122,64.299 L 100.341,64.299 C 100.448,64.848 100.653,65.26 100.956,65.538 C 101.259,65.816 101.599,65.955 101.975,65.955 C 102.24,65.955 102.455,65.876 102.622,65.718 C 102.789,65.56 102.872,65.369 102.872,65.147 C 102.872,64.877 102.779,64.651 102.593,64.467 C 102.407,64.283 102.031,64.051 101.465,63.77 C 100.9,63.489 100.529,63.235 100.354,63.008 C 100.179,62.785 100.091,62.504 100.091,62.164 C 100.091,61.723 100.24,61.353 100.54,61.057 C 100.839,60.76 101.227,60.612 101.702,60.612 C 101.91,60.612 102.164,60.656 102.461,60.745 C 102.658,60.802 102.789,60.831 102.855,60.831 C 102.917,60.831 102.965,60.817 103,60.791 C 103.035,60.764 103.076,60.704 103.122,60.612 L 103.341,60.612 L 103.341,60.613 z "
           id="path127" />
        <path
           d="M 106.386,60.613 L 106.386,64.925 C 106.386,65.261 106.409,65.484 106.457,65.595 C 106.505,65.706 106.576,65.788 106.669,65.843 C 106.762,65.898 106.934,65.925 107.182,65.925 L 107.182,66.144 L 104.588,66.144 L 104.588,65.925 C 104.852,65.925 105.029,65.9 105.12,65.849 C 105.211,65.798 105.283,65.714 105.336,65.598 C 105.39,65.481 105.416,65.257 105.416,64.925 L 105.416,62.878 C 105.416,62.29 105.398,61.909 105.363,61.735 C 105.335,61.609 105.292,61.522 105.233,61.472 C 105.174,61.423 105.094,61.399 104.992,61.399 C 104.883,61.399 104.749,61.428 104.592,61.487 L 104.51,61.268 L 106.127,60.612 L 106.386,60.612 L 106.386,60.613 z M 105.905,57.801 C 106.069,57.801 106.208,57.859 106.323,57.974 C 106.438,58.089 106.496,58.229 106.496,58.392 C 106.496,58.556 106.438,58.696 106.323,58.813 C 106.208,58.93 106.069,58.989 105.905,58.989 C 105.741,58.989 105.601,58.93 105.484,58.813 C 105.367,58.696 105.308,58.556 105.308,58.392 C 105.308,58.229 105.366,58.089 105.481,57.974 C 105.596,57.858 105.737,57.801 105.905,57.801 z "
           id="path129" />
        <path
           d="M 112.47,64.086 C 112.324,64.803 112.04,65.351 111.616,65.731 C 111.192,66.112 110.723,66.301 110.208,66.301 C 109.596,66.301 109.062,66.045 108.606,65.533 C 108.15,65.021 107.923,64.331 107.923,63.46 C 107.923,62.617 108.175,61.932 108.679,61.404 C 109.183,60.876 109.788,60.613 110.495,60.613 C 111.024,60.613 111.46,60.753 111.801,61.031 C 112.142,61.309 112.313,61.598 112.313,61.898 C 112.313,62.045 112.265,62.166 112.168,62.257 C 112.072,62.348 111.938,62.394 111.765,62.394 C 111.533,62.394 111.361,62.32 111.249,62.169 C 111.177,62.087 111.13,61.929 111.108,61.696 C 111.086,61.463 111.007,61.286 110.87,61.165 C 110.733,61.046 110.543,60.987 110.3,60.987 C 109.907,60.987 109.591,61.132 109.352,61.422 C 109.035,61.806 108.875,62.312 108.875,62.943 C 108.875,63.585 109.033,64.151 109.349,64.642 C 109.665,65.133 110.092,65.378 110.63,65.378 C 111.015,65.378 111.36,65.249 111.667,64.992 C 111.883,64.811 112.093,64.482 112.297,64.003 L 112.47,64.086 z "
           id="path131" />
        <path
           d="M 118.046,60.613 L 118.046,64.925 C 118.046,65.261 118.069,65.484 118.117,65.595 C 118.165,65.706 118.236,65.788 118.329,65.843 C 118.422,65.898 118.594,65.925 118.842,65.925 L 118.842,66.144 L 116.248,66.144 L 116.248,65.925 C 116.512,65.925 116.689,65.9 116.78,65.849 C 116.871,65.798 116.943,65.714 116.996,65.598 C 117.05,65.481 117.076,65.257 117.076,64.925 L 117.076,62.878 C 117.076,62.29 117.058,61.909 117.023,61.735 C 116.995,61.609 116.952,61.522 116.893,61.472 C 116.834,61.423 116.754,61.399 116.652,61.399 C 116.543,61.399 116.409,61.428 116.252,61.487 L 116.17,61.268 L 117.787,60.612 L 118.046,60.612 L 118.046,60.613 z M 117.565,57.801 C 117.729,57.801 117.868,57.859 117.983,57.974 C 118.098,58.089 118.156,58.229 118.156,58.392 C 118.156,58.556 118.098,58.696 117.983,58.813 C 117.868,58.93 117.729,58.989 117.565,58.989 C 117.401,58.989 117.261,58.93 117.144,58.813 C 117.027,58.696 116.968,58.556 116.968,58.392 C 116.968,58.229 117.026,58.089 117.141,57.974 C 117.256,57.858 117.397,57.801 117.565,57.801 z "
           id="path133" />
        <path
           d="M 123.005,60.613 L 123.005,62.441 L 122.786,62.441 C 122.64,61.866 122.453,61.475 122.225,61.267 C 121.997,61.06 121.706,60.956 121.354,60.956 C 121.086,60.956 120.87,61.028 120.705,61.173 C 120.54,61.318 120.458,61.478 120.458,61.653 C 120.458,61.872 120.518,62.059 120.639,62.215 C 120.756,62.375 120.999,62.545 121.369,62.725 L 122.223,63.142 C 123.015,63.529 123.411,64.038 123.411,64.67 C 123.411,65.158 123.228,65.552 122.863,65.851 C 122.498,66.15 122.09,66.299 121.638,66.299 C 121.313,66.299 120.943,66.244 120.526,66.135 C 120.398,66.099 120.294,66.08 120.213,66.08 C 120.124,66.08 120.054,66.127 120.005,66.221 L 119.786,66.221 L 119.786,64.299 L 120.005,64.299 C 120.112,64.848 120.317,65.26 120.62,65.538 C 120.923,65.816 121.263,65.955 121.639,65.955 C 121.904,65.955 122.119,65.876 122.286,65.718 C 122.453,65.56 122.536,65.369 122.536,65.147 C 122.536,64.877 122.443,64.651 122.257,64.467 C 122.071,64.283 121.695,64.051 121.129,63.77 C 120.564,63.489 120.193,63.235 120.018,63.008 C 119.843,62.785 119.755,62.504 119.755,62.164 C 119.755,61.723 119.904,61.353 120.204,61.057 C 120.503,60.76 120.891,60.612 121.366,60.612 C 121.574,60.612 121.828,60.656 122.125,60.745 C 122.322,60.802 122.453,60.831 122.519,60.831 C 122.581,60.831 122.629,60.817 122.664,60.791 C 122.699,60.764 122.74,60.704 122.786,60.612 L 123.005,60.612 L 123.005,60.613 z "
           id="path135" />
        <path
           d="M 128.769,59.004 L 128.769,60.77 L 130.023,60.77 L 130.023,61.176 L 128.769,61.176 L 128.769,64.664 C 128.769,65.013 128.819,65.248 128.918,65.369 C 129.017,65.49 129.145,65.551 129.301,65.551 C 129.43,65.551 129.554,65.512 129.676,65.432 C 129.797,65.354 129.89,65.237 129.957,65.082 L 130.191,65.082 C 130.054,65.466 129.86,65.754 129.609,65.947 C 129.359,66.141 129.1,66.238 128.834,66.238 C 128.654,66.238 128.478,66.188 128.305,66.088 C 128.133,65.988 128.005,65.846 127.923,65.659 C 127.841,65.472 127.8,65.185 127.8,64.798 L 127.8,61.176 L 126.956,61.176 L 126.956,60.985 C 127.169,60.899 127.388,60.755 127.611,60.549 C 127.834,60.343 128.033,60.102 128.208,59.82 C 128.297,59.672 128.422,59.399 128.581,59.005 L 128.769,59.005 L 128.769,59.004 z "
           id="path137" />
        <path
           d="M 133.187,60.613 C 134,60.613 134.654,60.922 135.147,61.539 C 135.565,62.066 135.775,62.672 135.775,63.354 C 135.775,63.834 135.66,64.321 135.429,64.812 C 135.198,65.304 134.88,65.675 134.475,65.925 C 134.07,66.175 133.619,66.3 133.122,66.3 C 132.312,66.3 131.668,65.978 131.191,65.333 C 130.788,64.791 130.587,64.182 130.587,63.506 C 130.587,63.014 130.709,62.525 130.954,62.038 C 131.199,61.553 131.52,61.193 131.919,60.961 C 132.318,60.729 132.741,60.613 133.187,60.613 z M 133.005,60.988 C 132.798,60.988 132.59,61.05 132.381,61.173 C 132.172,61.296 132.003,61.512 131.874,61.82 C 131.745,62.128 131.681,62.525 131.681,63.008 C 131.681,63.789 131.836,64.463 132.147,65.029 C 132.458,65.595 132.867,65.879 133.375,65.879 C 133.754,65.879 134.066,65.723 134.313,65.41 C 134.56,65.097 134.682,64.561 134.682,63.8 C 134.682,62.847 134.477,62.098 134.067,61.551 C 133.789,61.176 133.435,60.988 133.005,60.988 z "
           id="path139" />
      </g>
      <rect
         x="5.8649998"
         y="85.599998"
         width="130.468"
         height="10.169"
         id="rect141" />
      <rect
         x="5.8649998"
         y="71.163002"
         width="127.941"
         height="10.168"
         id="rect143" />
      <rect
         x="5.8649998"
         y="100.037"
         width="124.178"
         height="10.169"
         id="rect145" />
    </g>
    <g
       id="g147"
       transform="matrix(0.5,0,0,0.5,-297.33028,683.7229)">
      <g
         id="g149">
        <g
           id="g151" />
      </g>
      <path
         id="path3817_6_"
         style="fill:#aab2ab"
         d="M 3.073,154.975 L 88.621,155.127 C 89.816,155.127 90.884,154.949 90.884,157.512 L 90.78,185.688 L 0.914,185.688 L 0.914,157.409 C 0.914,156.145 1.036,154.975 3.073,154.975 z " />
      <path
         d="M 89.369,154.639 L 2.196,154.639 C 1.261,154.639 0.5,155.4 0.5,156.334 L 0.5,185.956 C 0.5,186.168 0.672,186.339 0.883,186.339 L 90.681,186.339 C 90.892,186.339 91.064,186.168 91.064,185.956 L 91.064,156.334 C 91.064,155.4 90.303,154.639 89.369,154.639 z M 2.196,155.405 L 89.368,155.405 C 89.881,155.405 90.297,155.822 90.297,156.335 C 90.297,156.335 90.297,168.253 90.297,176.876 L 27.993,176.876 C 25.709,181.005 21.309,183.809 16.26,183.809 C 11.209,183.809 6.81,181.008 4.528,176.876 L 1.267,176.876 C 1.267,168.253 1.267,156.335 1.267,156.335 C 1.267,155.822 1.684,155.405 2.196,155.405 z "
         id="path154" />
      <g
         id="g5908_6_">
        <path
           id="path5906_6_"
           style="fill:#ffffff"
           d="M 26.555,169.391 C 26.559,175.074 21.954,179.683 16.271,179.687 C 10.588,179.69 5.979,175.086 5.975,169.403 C 5.975,169.399 5.975,169.395 5.975,169.391 C 5.971,163.707 10.576,159.098 16.259,159.094 C 21.943,159.091 26.552,163.696 26.555,169.378 C 26.555,169.382 26.555,169.386 26.555,169.391 z " />
        <g
           id="g5706_6_">
          <path
             d="M 24.63,161.009 C 26.911,163.291 28.053,166.085 28.053,169.391 C 28.053,172.697 26.931,175.461 24.689,177.684 C 22.309,180.026 19.496,181.196 16.25,181.196 C 13.043,181.196 10.279,180.036 7.959,177.714 C 5.637,175.393 4.477,172.618 4.477,169.392 C 4.477,166.166 5.637,163.371 7.959,161.01 C 10.221,158.728 12.985,157.586 16.25,157.586 C 19.555,157.585 22.348,158.727 24.63,161.009 z M 9.494,162.544 C 7.565,164.492 6.6,166.775 6.6,169.394 C 6.6,172.011 7.555,174.275 9.464,176.184 C 11.374,178.092 13.647,179.047 16.284,179.047 C 18.921,179.047 21.214,178.083 23.163,176.154 C 25.013,174.363 25.938,172.109 25.938,169.393 C 25.938,166.697 24.998,164.408 23.118,162.529 C 21.239,160.649 18.961,159.709 16.285,159.709 C 13.609,159.709 11.344,160.655 9.494,162.544 z M 14.571,168.243 C 14.277,167.599 13.836,167.278 13.247,167.278 C 12.207,167.278 11.687,167.979 11.687,169.38 C 11.687,170.781 12.207,171.48 13.247,171.48 C 13.934,171.48 14.425,171.139 14.719,170.457 L 16.161,171.225 C 15.473,172.446 14.442,173.057 13.067,173.057 C 12.006,173.057 11.157,172.733 10.519,172.082 C 9.88,171.432 9.561,170.535 9.561,169.393 C 9.561,168.27 9.891,167.378 10.548,166.718 C 11.206,166.057 12.026,165.728 13.008,165.728 C 14.462,165.728 15.502,166.3 16.132,167.445 L 14.571,168.243 z M 21.356,168.243 C 21.061,167.599 20.628,167.278 20.058,167.278 C 18.997,167.278 18.466,167.979 18.466,169.38 C 18.466,170.781 18.997,171.48 20.058,171.48 C 20.746,171.48 21.228,171.139 21.503,170.457 L 22.978,171.225 C 22.291,172.446 21.262,173.057 19.889,173.057 C 18.83,173.057 17.983,172.733 17.345,172.082 C 16.708,171.432 16.389,170.535 16.389,169.393 C 16.389,168.27 16.713,167.378 17.36,166.718 C 18.007,166.057 18.83,165.728 19.83,165.728 C 21.281,165.728 22.32,166.3 22.947,167.445 L 21.356,168.243 z "
             id="path159" />
        </g>
      </g>
      <g
         id="g370"
         style="enable-background:new">
        <path
           style="fill:#ffffff"
           d="M 36.796,179.356 C 37.034,179.356 37.253,179.377 37.449,179.418 C 37.645,179.46 37.813,179.529 37.953,179.625 C 38.093,179.721 38.202,179.848 38.279,180.006 C 38.356,180.164 38.395,180.36 38.395,180.594 C 38.395,180.846 38.338,181.055 38.223,181.223 C 38.109,181.392 37.94,181.529 37.715,181.637 C 38.024,181.725 38.255,181.88 38.407,182.102 C 38.559,182.325 38.636,182.592 38.636,182.905 C 38.636,183.157 38.587,183.375 38.489,183.559 C 38.39,183.743 38.258,183.894 38.093,184.01 C 37.927,184.127 37.737,184.213 37.525,184.27 C 37.312,184.327 37.093,184.354 36.869,184.354 L 34.44,184.354 L 34.44,179.356 L 36.796,179.356 L 36.796,179.356 z M 36.656,181.377 C 36.851,181.377 37.013,181.33 37.139,181.236 C 37.265,181.144 37.328,180.993 37.328,180.783 C 37.328,180.667 37.307,180.571 37.265,180.497 C 37.223,180.422 37.167,180.365 37.097,180.322 C 37.027,180.28 36.946,180.251 36.855,180.234 C 36.764,180.218 36.669,180.211 36.571,180.211 L 35.541,180.211 L 35.541,181.377 L 36.656,181.377 z M 36.72,183.499 C 36.828,183.499 36.93,183.489 37.029,183.468 C 37.128,183.447 37.214,183.411 37.289,183.363 C 37.364,183.315 37.423,183.248 37.468,183.164 C 37.513,183.08 37.535,182.973 37.535,182.842 C 37.535,182.586 37.462,182.403 37.318,182.293 C 37.172,182.184 36.982,182.129 36.743,182.129 L 35.543,182.129 L 35.543,183.5 L 36.72,183.5 L 36.72,183.499 z "
           id="path162" />
        <polygon
           id="path374"
           style="fill:#ffffff"
           points="38.829,179.356 40.062,179.356 41.232,181.33 42.396,179.356 43.621,179.356 41.766,182.436 41.766,184.354 40.664,184.354 40.664,182.408 38.829,179.356 " />
      </g>
      <g
         id="g376"
         style="enable-background:new">
        <polygon
           id="path378"
           style="fill:#ffffff"
           points="55.229,179.356 57.317,182.709 57.329,182.709 57.329,179.356 58.36,179.356 58.36,184.354 57.261,184.354 55.181,181.007 55.167,181.007 55.167,184.354 54.136,184.354 54.136,179.356 55.229,179.356 " />
        <path
           id="path380"
           style="fill:#ffffff"
           d="M 62.533,180.688 C 62.468,180.583 62.386,180.49 62.287,180.411 C 62.189,180.332 62.079,180.269 61.955,180.225 C 61.831,180.18 61.701,180.159 61.566,180.159 C 61.319,180.159 61.108,180.206 60.936,180.303 C 60.763,180.398 60.623,180.527 60.517,180.687 C 60.409,180.849 60.33,181.032 60.282,181.237 C 60.234,181.442 60.209,181.654 60.209,181.874 C 60.209,182.084 60.233,182.289 60.282,182.486 C 60.331,182.684 60.409,182.863 60.517,183.021 C 60.623,183.18 60.764,183.306 60.936,183.403 C 61.109,183.499 61.319,183.547 61.566,183.547 C 61.902,183.547 62.165,183.444 62.354,183.238 C 62.543,183.033 62.659,182.761 62.7,182.426 L 63.764,182.426 C 63.736,182.738 63.663,183.022 63.547,183.274 C 63.431,183.527 63.276,183.741 63.085,183.92 C 62.894,184.098 62.669,184.233 62.412,184.327 C 62.156,184.421 61.873,184.468 61.565,184.468 C 61.182,184.468 60.838,184.402 60.532,184.268 C 60.226,184.136 59.968,183.952 59.758,183.718 C 59.547,183.486 59.386,183.21 59.274,182.896 C 59.162,182.58 59.106,182.241 59.106,181.876 C 59.106,181.502 59.163,181.155 59.274,180.835 C 59.386,180.516 59.547,180.236 59.758,179.999 C 59.968,179.761 60.227,179.573 60.532,179.438 C 60.838,179.302 61.182,179.235 61.565,179.235 C 61.84,179.235 62.101,179.274 62.346,179.354 C 62.59,179.433 62.81,179.549 63.003,179.702 C 63.197,179.853 63.357,180.042 63.483,180.265 C 63.609,180.488 63.688,180.746 63.721,181.036 L 62.657,181.036 C 62.641,180.908 62.598,180.792 62.533,180.688 z " />
      </g>
      <g
         id="g382"
         style="enable-background:new">
        <polygon
           id="path384"
           style="fill:#ffffff"
           points="74.729,179.356 76.817,182.709 76.829,182.709 76.829,179.356 77.86,179.356 77.86,184.354 76.761,184.354 74.681,181.007 74.667,181.007 74.667,184.354 73.636,184.354 73.636,179.356 74.729,179.356 " />
        <path
           style="fill:#ffffff"
           d="M 80.981,179.356 C 81.304,179.356 81.604,179.407 81.882,179.51 C 82.16,179.612 82.401,179.766 82.604,179.971 C 82.807,180.176 82.966,180.434 83.081,180.742 C 83.196,181.05 83.253,181.412 83.253,181.827 C 83.253,182.191 83.206,182.526 83.113,182.835 C 83.019,183.144 82.878,183.409 82.689,183.633 C 82.499,183.857 82.264,184.034 81.981,184.161 C 81.699,184.29 81.366,184.354 80.982,184.354 L 78.824,184.354 L 78.824,179.356 L 80.981,179.356 L 80.981,179.356 z M 80.905,183.428 C 81.064,183.428 81.218,183.403 81.367,183.351 C 81.516,183.299 81.649,183.215 81.766,183.096 C 81.883,182.977 81.976,182.823 82.047,182.631 C 82.116,182.44 82.151,182.206 82.151,181.932 C 82.151,181.68 82.127,181.453 82.078,181.25 C 82.029,181.047 81.948,180.873 81.836,180.729 C 81.724,180.585 81.576,180.473 81.391,180.397 C 81.206,180.32 80.979,180.282 80.708,180.282 L 79.924,180.282 L 79.924,183.428 L 80.905,183.428 z "
           id="path170" />
      </g>
      <g
         id="g6370_1_">
        <g
           id="g7610_1_">
          <path
             id="path6372_1_"
             style="fill:#ffffff"
             d="M 66.764,165.946 C 66.768,170.098 63.405,173.466 59.252,173.469 C 55.101,173.471 51.733,170.108 51.731,165.957 C 51.731,165.952 51.731,165.949 51.731,165.945 C 51.728,161.794 55.091,158.425 59.243,158.423 C 63.395,158.421 66.762,161.783 66.764,165.935 C 66.764,165.938 66.764,165.943 66.764,165.946 z " />
          <path
             d="M 59.235,157.195 C 61.689,157.195 63.763,158.041 65.457,159.732 C 67.151,161.424 67.999,163.497 67.999,165.946 C 67.999,168.396 67.166,170.446 65.501,172.094 C 63.734,173.83 61.645,174.698 59.235,174.698 C 56.855,174.698 54.803,173.837 53.08,172.116 C 51.357,170.395 50.495,168.339 50.495,165.946 C 50.495,163.553 51.356,161.482 53.08,159.732 C 54.76,158.041 56.812,157.195 59.235,157.195 z M 52.464,163.594 C 52.203,164.333 52.072,165.117 52.072,165.946 C 52.072,167.886 52.781,169.563 54.197,170.979 C 55.614,172.393 57.3,173.1 59.257,173.1 C 61.214,173.1 62.915,172.385 64.361,170.955 C 64.845,170.488 65.245,169.977 65.557,169.425 L 62.257,167.956 C 62.034,169.066 61.044,169.815 59.849,169.903 L 59.849,171.253 L 58.844,171.253 L 58.844,169.903 C 57.862,169.892 56.913,169.49 56.188,168.855 L 57.394,167.64 C 57.974,168.186 58.555,168.431 59.348,168.431 C 59.861,168.431 60.43,168.23 60.43,167.562 C 60.43,167.325 60.339,167.16 60.195,167.036 L 59.36,166.666 L 58.321,166.202 C 57.807,165.973 57.371,165.779 56.935,165.585 L 52.464,163.594 z M 59.258,158.77 C 57.271,158.77 55.592,159.469 54.219,160.87 C 53.846,161.248 53.521,161.641 53.245,162.053 L 56.59,163.542 C 56.893,162.614 57.775,162.051 58.845,161.989 L 58.845,160.639 L 59.85,160.639 L 59.85,161.989 C 60.542,162.022 61.301,162.212 62.049,162.791 L 60.899,163.974 C 60.475,163.673 59.94,163.46 59.404,163.46 C 58.968,163.46 58.354,163.594 58.354,164.141 C 58.354,164.224 58.382,164.297 58.433,164.363 L 59.552,164.861 L 60.309,165.199 C 60.793,165.415 61.256,165.62 61.714,165.824 L 66.198,167.82 C 66.346,167.234 66.421,166.609 66.421,165.947 C 66.421,163.949 65.72,162.257 64.318,160.871 C 62.931,159.469 61.244,158.77 59.258,158.77 z "
             id="path175" />
        </g>
      </g>
      <g
         id="g6394_1_">
        <path
           id="path6396_1_"
           style="fill:#ffffff"
           d="M 87.04,165.946 C 87.044,170.358 83.47,173.937 79.059,173.941 C 74.647,173.944 71.067,170.37 71.064,165.958 C 71.064,165.954 71.064,165.95 71.064,165.946 C 71.061,161.535 74.635,157.956 79.047,157.952 C 83.458,157.948 87.037,161.522 87.04,165.934 C 87.04,165.938 87.04,165.942 87.04,165.946 z " />
        <g
           id="g6398_1_">
          <path
             d="M 78.927,157.195 C 76.503,157.195 74.45,158.04 72.771,159.732 C 71.047,161.482 70.186,163.553 70.186,165.946 C 70.186,168.339 71.047,170.395 72.771,172.116 C 74.494,173.837 76.546,174.698 78.927,174.698 C 81.337,174.698 83.425,173.83 85.192,172.094 C 86.856,170.446 87.69,168.396 87.69,165.946 C 87.69,163.495 86.843,161.425 85.148,159.732 C 83.453,158.039 81.38,157.195 78.927,157.195 z M 78.948,158.769 C 80.934,158.769 82.621,159.469 84.01,160.87 C 85.411,162.256 86.112,163.948 86.112,165.946 C 86.112,167.96 85.426,169.63 84.054,170.956 C 82.607,172.386 80.906,173.101 78.949,173.101 C 76.992,173.101 75.305,172.394 73.889,170.978 C 72.472,169.564 71.764,167.886 71.764,165.947 C 71.764,164.007 72.479,162.315 73.911,160.871 C 75.283,159.469 76.962,158.769 78.948,158.769 z "
             id="path180" />
          <g
             id="g6402_1_">
            <path
               d="M 82.244,163.872 L 75.883,163.872 L 75.883,165.379 L 82.244,165.379 L 82.244,163.872 z M 82.244,166.684 L 75.883,166.684 L 75.883,168.191 L 82.244,168.191 L 82.244,166.684 z "
               id="path183" />
          </g>
        </g>
      </g>
      <g
         id="g398">
        <circle
           id="circle400"
           style="fill:#ffffff"
           cx="39.566002"
           cy="166.125"
           r="8.1040001"
           sodipodi:cx="39.566002"
           sodipodi:cy="166.125"
           sodipodi:rx="8.1040001"
           sodipodi:ry="8.1040001" />
        <g
           id="g402">
          <path
             id="path404"
             d="M 41.912,163.779 C 41.912,163.467 41.659,163.214 41.347,163.214 L 37.768,163.214 C 37.456,163.214 37.203,163.468 37.203,163.779 L 37.203,167.359 L 38.2,167.359 L 38.2,171.598 L 40.913,171.598 L 40.913,167.359 L 41.912,167.359 L 41.912,163.779 L 41.912,163.779 z " />
          <circle
             id="circle406"
             cx="39.556999"
             cy="161.51801"
             r="1.225"
             sodipodi:cx="39.556999"
             sodipodi:cy="161.51801"
             sodipodi:rx="1.225"
             sodipodi:ry="1.225" />
        </g>
        <path
           d="M 39.546,157.195 C 37.122,157.195 35.07,158.04 33.391,159.733 C 31.667,161.482 30.806,163.553 30.806,165.946 C 30.806,168.338 31.667,170.395 33.391,172.116 C 35.114,173.837 37.166,174.698 39.546,174.698 C 41.955,174.698 44.044,173.83 45.812,172.094 C 47.477,170.447 48.309,168.397 48.309,165.947 C 48.309,163.496 47.462,161.426 45.768,159.734 C 44.073,158.04 42,157.195 39.546,157.195 z M 39.568,158.769 C 41.554,158.769 43.24,159.469 44.628,160.87 C 46.03,162.256 46.732,163.948 46.732,165.946 C 46.732,167.959 46.045,169.63 44.672,170.956 C 43.226,172.386 41.525,173.101 39.568,173.101 C 37.61,173.101 35.923,172.394 34.507,170.979 C 33.091,169.564 32.382,167.886 32.382,165.947 C 32.382,164.008 33.097,162.315 34.528,160.871 C 35.902,159.469 37.582,158.769 39.568,158.769 z "
           id="path190" />
      </g>
    </g>
  </g>
</svg>
