<?xml version="1.0" encoding="UTF-8" standalone="no"?>
<!-- Created with Inkscape (http://www.inkscape.org/) -->
<svg
   xmlns:dc="http://purl.org/dc/elements/1.1/"
   xmlns:cc="http://web.resource.org/cc/"
   xmlns:rdf="http://www.w3.org/1999/02/22-rdf-syntax-ns#"
   xmlns:svg="http://www.w3.org/2000/svg"
   xmlns="http://www.w3.org/2000/svg"
   xmlns:sodipodi="http://sodipodi.sourceforge.net/DTD/sodipodi-0.dtd"
   xmlns:inkscape="http://www.inkscape.org/namespaces/inkscape"
   width="142.73201"
   height="163.41475"
   id="svg3392"
   sodipodi:version="0.32"
   inkscape:version="0.45.1"
   version="1.0"
   sodipodi:docbase="/Users/robmyers/Desktop/cc-ironies/final"
   sodipodi:docname="how_to_make_a_masterpiece.svg"
   inkscape:output_extension="org.inkscape.output.svg.inkscape">
  <defs
     id="defs3394" />
  <sodipodi:namedview
     inkscape:document-units="mm"
     pagecolor="#ffffff"
     bordercolor="#666666"
     borderopacity="1.0"
     inkscape:pageopacity="0.0"
     inkscape:pageshadow="2"
     inkscape:zoom="2.3131327"
     inkscape:cx="71.366005"
     inkscape:cy="81.707375"
     inkscape:current-layer="layer1"
     id="namedview3396"
     inkscape:window-width="697"
     inkscape:window-height="581"
     inkscape:window-x="38"
     inkscape:window-y="22" />
  <metadata
     id="metadata3398">
    <rdf:RDF>
      <cc:Work
         rdf:about="">
        <dc:format>image/svg+xml</dc:format>
        <dc:type
           rdf:resource="http://purl.org/dc/dcmitype/StillImage" />
      </cc:Work>
    </rdf:RDF>
  </metadata>
  <g
     inkscape:label="Layer 1"
     inkscape:groupmode="layer"
     id="layer1"
     transform="translate(-255.7036,-17.515051)">
    <rect
       x="256.20361"
       y="18.015051"
       style="fill:#ffffff;stroke:#000000"
       width="141.73199"
       height="141.73199"
       id="rect46" />
    <g
       id="g48"
       transform="matrix(0.5,0,0,0.5,90.7036,87.759801)">
      <path
         id="path3817_1_"
         style="fill:#aab2ab"
         d="M 332.571,154.968 L 418.12,155.12 C 419.315,155.12 420.384,154.943 420.384,157.506 L 420.279,185.68 L 330.414,185.68 L 330.414,157.4 C 330.413,156.138 330.535,154.968 332.571,154.968 z " />
      <g
         id="g5908_1_">
        <path
           id="path5906_1_"
           style="fill:#ffffff"
           d="M 356.054,169.383 C 356.057,175.067 351.452,179.676 345.77,179.68 C 340.088,179.684 335.477,175.08 335.474,169.397 C 335.474,169.392 335.474,169.388 335.474,169.383 C 335.471,163.699 340.075,159.091 345.758,159.087 C 351.442,159.084 356.051,163.688 356.055,169.371 C 356.054,169.375 356.054,169.379 356.054,169.383 z " />
        <g
           id="g5706_1_">
          <path
             d="M 354.128,161.002 C 356.41,163.283 357.551,166.078 357.551,169.383 C 357.551,172.69 356.429,175.455 354.187,177.678 C 351.806,180.02 348.994,181.19 345.748,181.19 C 342.542,181.19 339.777,180.03 337.456,177.706 C 335.135,175.386 333.974,172.612 333.974,169.384 C 333.974,166.158 335.135,163.364 337.456,161.003 C 339.718,158.72 342.483,157.579 345.748,157.579 C 349.054,157.578 351.847,158.719 354.128,161.002 z M 338.993,162.537 C 337.064,164.486 336.099,166.768 336.099,169.387 C 336.099,172.004 337.054,174.268 338.962,176.176 C 340.872,178.086 343.145,179.041 345.782,179.041 C 348.42,179.041 350.712,178.076 352.66,176.146 C 354.51,174.355 355.436,172.103 355.436,169.386 C 355.436,166.69 354.496,164.402 352.616,162.521 C 350.736,160.643 348.459,159.703 345.782,159.703 C 343.105,159.703 340.843,160.648 338.993,162.537 z M 344.069,168.234 C 343.775,167.591 343.333,167.271 342.745,167.271 C 341.704,167.271 341.184,167.97 341.184,169.371 C 341.184,170.772 341.704,171.473 342.745,171.473 C 343.433,171.473 343.923,171.131 344.218,170.449 L 345.66,171.218 C 344.972,172.439 343.941,173.05 342.566,173.05 C 341.505,173.05 340.656,172.726 340.018,172.075 C 339.379,171.425 339.06,170.526 339.06,169.384 C 339.06,168.262 339.389,167.37 340.047,166.71 C 340.705,166.05 341.525,165.72 342.507,165.72 C 343.96,165.72 345.001,166.292 345.63,167.437 L 344.069,168.234 z M 350.854,168.234 C 350.559,167.591 350.126,167.271 349.556,167.271 C 348.495,167.271 347.964,167.97 347.964,169.371 C 347.964,170.772 348.495,171.473 349.556,171.473 C 350.244,171.473 350.726,171.131 351.001,170.449 L 352.476,171.218 C 351.789,172.439 350.76,173.05 349.387,173.05 C 348.328,173.05 347.48,172.726 346.843,172.075 C 346.207,171.425 345.887,170.526 345.887,169.384 C 345.887,168.262 346.21,167.37 346.858,166.71 C 347.505,166.05 348.328,165.72 349.329,165.72 C 350.78,165.72 351.819,166.292 352.446,167.437 L 350.854,168.234 z "
             id="path54" />
        </g>
      </g>
      <g
         id="g85_1_">
        <circle
           id="circle87_1_"
           style="fill:#ffffff"
           cx="377.81699"
           cy="166.09399"
           r="8.1049995"
           sodipodi:cx="377.81699"
           sodipodi:cy="166.09399"
           sodipodi:rx="8.1049995"
           sodipodi:ry="8.1049995" />
        <g
           id="g89_1_">
          <path
             id="path91_1_"
             d="M 380.163,163.749 C 380.163,163.436 379.909,163.184 379.598,163.184 L 376.019,163.184 C 375.707,163.184 375.453,163.436 375.453,163.749 L 375.453,167.328 L 376.452,167.328 L 376.452,171.568 L 379.165,171.568 L 379.165,167.328 L 380.164,167.328 L 380.164,163.749 L 380.163,163.749 z " />
          <circle
             id="circle93_1_"
             cx="377.80701"
             cy="161.48801"
             r="1.225"
             sodipodi:cx="377.80701"
             sodipodi:cy="161.48801"
             sodipodi:rx="1.225"
             sodipodi:ry="1.225" />
        </g>
        <path
           d="M 377.795,157.164 C 375.372,157.164 373.319,158.01 371.64,159.702 C 369.917,161.452 369.056,163.523 369.056,165.916 C 369.056,168.307 369.917,170.364 371.64,172.086 C 373.363,173.807 375.416,174.668 377.795,174.668 C 380.205,174.668 382.295,173.799 384.061,172.063 C 385.727,170.417 386.559,168.367 386.559,165.917 C 386.559,163.466 385.711,161.396 384.018,159.703 C 382.325,158.01 380.25,157.164 377.795,157.164 z M 377.819,158.739 C 379.805,158.739 381.491,159.439 382.879,160.84 C 384.282,162.225 384.983,163.918 384.983,165.916 C 384.983,167.928 384.296,169.599 382.923,170.926 C 381.478,172.356 379.777,173.071 377.819,173.071 C 375.861,173.071 374.174,172.362 372.758,170.948 C 371.341,169.534 370.633,167.856 370.633,165.917 C 370.633,163.976 371.349,162.284 372.78,160.841 C 374.152,159.439 375.833,158.739 377.819,158.739 z "
           id="path61" />
      </g>
      <path
         d="M 418.868,154.639 L 331.695,154.639 C 330.76,154.639 330,155.4 330,156.334 L 330,185.955 C 330,186.168 330.171,186.34 330.383,186.34 L 420.181,186.34 C 420.392,186.34 420.564,186.168 420.564,185.955 L 420.564,156.334 C 420.563,155.399 419.802,154.639 418.868,154.639 z M 331.695,155.404 L 418.868,155.404 C 419.38,155.404 419.798,155.821 419.798,156.334 C 419.798,156.334 419.798,168.246 419.798,176.867 L 357.491,176.867 C 355.207,180.998 350.807,183.801 345.759,183.801 C 340.707,183.801 336.309,181 334.026,176.867 L 330.766,176.867 C 330.766,168.246 330.766,156.334 330.766,156.334 C 330.766,155.821 331.183,155.404 331.695,155.404 z "
         id="path63" />
      <g
         id="g99_1_"
         style="enable-background:new">
        <path
           style="fill:#ffffff"
           d="M 375.279,179.355 C 375.517,179.355 375.735,179.376 375.93,179.417 C 376.127,179.46 376.295,179.528 376.436,179.624 C 376.577,179.72 376.685,179.847 376.762,180.005 C 376.838,180.165 376.877,180.359 376.877,180.593 C 376.877,180.845 376.82,181.056 376.705,181.224 C 376.591,181.39 376.421,181.529 376.197,181.636 C 376.506,181.724 376.736,181.88 376.888,182.101 C 377.04,182.324 377.117,182.591 377.117,182.904 C 377.117,183.156 377.068,183.375 376.971,183.558 C 376.872,183.744 376.741,183.892 376.575,184.009 C 376.409,184.126 376.22,184.214 376.007,184.269 C 375.794,184.326 375.575,184.353 375.35,184.353 L 372.923,184.353 L 372.923,179.355 L 375.279,179.355 z M 375.138,181.377 C 375.334,181.377 375.495,181.332 375.622,181.238 C 375.748,181.144 375.811,180.992 375.811,180.783 C 375.811,180.668 375.79,180.572 375.748,180.498 C 375.706,180.424 375.65,180.365 375.58,180.324 C 375.51,180.281 375.429,180.252 375.338,180.236 C 375.247,180.218 375.152,180.211 375.054,180.211 L 374.025,180.211 L 374.025,181.377 L 375.138,181.377 L 375.138,181.377 z M 375.203,183.498 C 375.311,183.498 375.413,183.488 375.511,183.467 C 375.61,183.446 375.697,183.412 375.771,183.362 C 375.846,183.313 375.905,183.247 375.95,183.163 C 375.995,183.079 376.016,182.974 376.016,182.841 C 376.016,182.585 375.944,182.402 375.799,182.294 C 375.654,182.183 375.462,182.128 375.224,182.128 L 374.025,182.128 L 374.025,183.499 L 375.203,183.499 L 375.203,183.498 z "
           id="path66" />
        <polygon
           id="path103_1_"
           style="fill:#ffffff"
           points="377.312,179.355 378.545,179.355 379.715,181.33 380.877,179.355 382.104,179.355 380.249,182.436 380.249,184.354 379.147,184.354 379.147,182.408 377.312,179.355 " />
      </g>
      <g
         id="g105_1_"
         style="enable-background:new">
        <polygon
           id="path107_1_"
           style="fill:#ffffff"
           points="394.853,179.355 396.94,182.709 396.952,182.709 396.952,179.355 397.983,179.355 397.983,184.354 396.886,184.354 394.806,181.008 394.79,181.008 394.79,184.354 393.759,184.354 393.759,179.355 394.853,179.355 " />
        <path
           style="fill:#ffffff"
           d="M 401.106,179.355 C 401.428,179.355 401.727,179.406 402.006,179.509 C 402.283,179.613 402.524,179.767 402.729,179.972 C 402.932,180.177 403.09,180.433 403.204,180.74 C 403.319,181.051 403.378,181.412 403.378,181.826 C 403.378,182.191 403.331,182.527 403.237,182.834 C 403.143,183.143 403.003,183.408 402.813,183.633 C 402.623,183.858 402.387,184.033 402.104,184.162 C 401.821,184.291 401.489,184.353 401.106,184.353 L 398.948,184.353 L 398.948,179.355 L 401.106,179.355 L 401.106,179.355 z M 401.028,183.428 C 401.188,183.428 401.34,183.403 401.491,183.352 C 401.639,183.301 401.774,183.215 401.889,183.096 C 402.006,182.977 402.1,182.823 402.17,182.631 C 402.24,182.439 402.275,182.207 402.275,181.932 C 402.275,181.68 402.25,181.453 402.201,181.25 C 402.152,181.047 402.072,180.873 401.959,180.729 C 401.848,180.584 401.699,180.475 401.516,180.397 C 401.33,180.321 401.104,180.282 400.832,180.282 L 400.049,180.282 L 400.049,183.428 L 401.028,183.428 z "
           id="path71" />
      </g>
      <g
         id="g6501_1_">
        <path
           id="path6503_1_"
           style="fill:#ffffff"
           d="M 407.353,165.945 C 407.355,170.357 403.781,173.937 399.369,173.939 C 394.959,173.943 391.378,170.369 391.374,165.957 C 391.374,165.953 391.374,165.948 391.374,165.945 C 391.372,161.533 394.947,157.955 399.359,157.951 C 403.771,157.947 407.349,161.521 407.353,165.933 C 407.353,165.938 407.353,165.941 407.353,165.945 z " />
        <g
           id="g6505_1_">
          <path
             d="M 399.237,157.193 C 396.813,157.193 394.76,158.039 393.083,159.73 C 391.358,161.481 390.497,163.552 390.497,165.945 C 390.497,168.338 391.358,170.393 393.083,172.115 C 394.806,173.838 396.856,174.697 399.237,174.697 C 401.647,174.697 403.735,173.828 405.503,172.093 C 407.169,170.445 408.001,168.395 408.001,165.945 C 408.001,163.494 407.153,161.424 405.46,159.73 C 403.765,158.039 401.69,157.193 399.237,157.193 z M 399.261,158.768 C 401.245,158.768 402.933,159.469 404.322,160.87 C 405.722,162.256 406.424,163.946 406.424,165.946 C 406.424,167.959 405.738,169.629 404.365,170.956 C 402.918,172.386 401.217,173.101 399.261,173.101 C 397.302,173.101 395.616,172.394 394.199,170.978 C 392.783,169.564 392.075,167.886 392.075,165.947 C 392.075,164.006 392.79,162.315 394.222,160.871 C 395.595,159.469 397.274,158.768 399.261,158.768 z "
             id="path76" />
          <g
             id="g6509_1_">
            <path
               d="M 402.556,163.871 L 396.195,163.871 L 396.195,165.378 L 402.556,165.378 L 402.556,163.871 z M 402.556,166.684 L 396.195,166.684 L 396.195,168.191 L 402.556,168.191 L 402.556,166.684 z "
               id="path79" />
          </g>
        </g>
      </g>
    </g>
    <g
       id="g237"
       transform="translate(-73.7964,17.515051)">
      <path
         id="path239"
         d="M 349.792,22.78 L 349.792,25.669 L 349.522,25.669 C 349.353,25.005 349.167,24.527 348.961,24.237 C 348.755,23.947 348.473,23.716 348.116,23.543 C 347.915,23.449 347.566,23.401 347.066,23.401 L 346.283,23.401 L 346.283,31.609 C 346.283,32.157 346.312,32.499 346.371,32.635 C 346.43,32.772 346.545,32.892 346.717,32.994 C 346.889,33.097 347.124,33.148 347.421,33.148 L 347.767,33.148 L 347.767,33.418 L 342.232,33.418 L 342.232,33.148 L 342.58,33.148 C 342.884,33.148 343.129,33.093 343.315,32.982 C 343.449,32.909 343.554,32.782 343.632,32.603 C 343.689,32.478 343.717,32.145 343.717,31.609 L 343.717,23.401 L 342.934,23.401 C 342.207,23.401 341.68,23.553 341.351,23.857 C 340.89,24.28 340.599,24.885 340.476,25.669 L 340.206,25.669 L 340.206,22.78 L 349.792,22.78 z " />
      <path
         id="path241"
         d="M 353.896,22.78 L 353.896,27.013 C 354.298,26.591 354.665,26.293 354.999,26.119 C 355.333,25.945 355.679,25.857 356.04,25.857 C 356.499,25.857 356.891,25.988 357.217,26.25 C 357.543,26.511 357.76,26.819 357.867,27.172 C 357.973,27.525 358.027,28.12 358.027,28.958 L 358.027,31.824 C 358.027,32.389 358.079,32.741 358.182,32.882 C 358.286,33.022 358.495,33.111 358.81,33.147 L 358.81,33.417 L 355.111,33.417 L 355.111,33.147 C 355.372,33.11 355.569,33.005 355.699,32.83 C 355.793,32.693 355.841,32.358 355.841,31.824 L 355.841,28.545 C 355.841,27.938 355.817,27.556 355.77,27.402 C 355.723,27.247 355.643,27.127 355.53,27.04 C 355.419,26.954 355.291,26.91 355.151,26.91 C 354.942,26.91 354.738,26.983 354.539,27.127 C 354.34,27.271 354.126,27.524 353.896,27.885 L 353.896,31.824 C 353.896,32.352 353.935,32.682 354.014,32.814 C 354.113,32.994 354.317,33.105 354.625,33.147 L 354.625,33.417 L 350.926,33.417 L 350.926,33.147 C 351.231,33.115 351.447,33.015 351.578,32.846 C 351.665,32.73 351.709,32.39 351.709,31.825 L 351.709,24.373 C 351.709,23.81 351.658,23.459 351.557,23.321 C 351.456,23.183 351.246,23.092 350.926,23.05 L 350.926,22.78 L 353.896,22.78 z " />
      <path
         id="path243"
         d="M 366.047,29.476 L 361.97,29.476 C 362.017,30.453 362.28,31.225 362.758,31.792 C 363.124,32.228 363.564,32.446 364.078,32.446 C 364.396,32.446 364.685,32.358 364.946,32.182 C 365.206,32.005 365.484,31.688 365.781,31.231 L 366.048,31.42 C 365.649,32.226 365.208,32.796 364.724,33.131 C 364.242,33.466 363.682,33.634 363.048,33.634 C 361.956,33.634 361.129,33.216 360.569,32.378 C 360.117,31.704 359.891,30.866 359.891,29.867 C 359.891,28.643 360.224,27.669 360.887,26.944 C 361.551,26.22 362.329,25.857 363.221,25.857 C 363.967,25.857 364.614,26.161 365.162,26.77 C 365.71,27.379 366.005,28.281 366.047,29.476 z M 364.13,28.963 C 364.13,28.129 364.083,27.557 363.989,27.245 C 363.896,26.934 363.75,26.699 363.551,26.537 C 363.439,26.444 363.287,26.397 363.101,26.397 C 362.821,26.397 362.594,26.53 362.417,26.793 C 362.101,27.254 361.942,27.886 361.942,28.689 L 361.942,28.961 L 364.13,28.961 L 364.13,28.963 z " />
      <path
         id="path245"
         d="M 378.234,33.634 L 376.234,28.24 L 374.285,33.634 L 373.875,33.634 L 371.914,28.317 C 371.621,27.495 371.372,26.96 371.169,26.71 C 371.038,26.541 370.838,26.418 370.572,26.344 L 370.572,26.074 L 374.287,26.074 L 374.287,26.344 C 374.036,26.344 373.863,26.382 373.769,26.456 C 373.675,26.531 373.627,26.616 373.627,26.711 C 373.627,26.802 373.71,27.073 373.878,27.526 L 374.95,30.391 L 375.976,27.55 L 375.899,27.341 C 375.742,26.939 375.605,26.683 375.487,26.572 C 375.369,26.462 375.188,26.386 374.942,26.343 L 374.942,26.073 L 378.708,26.073 L 378.708,26.343 C 378.415,26.36 378.229,26.401 378.151,26.467 C 378.073,26.534 378.033,26.629 378.033,26.751 C 378.033,26.868 378.109,27.127 378.261,27.526 L 379.297,30.391 L 380.235,27.754 C 380.371,27.372 380.439,27.111 380.439,26.973 C 380.439,26.765 380.389,26.615 380.291,26.519 C 380.19,26.424 379.997,26.365 379.71,26.343 L 379.71,26.073 L 381.883,26.073 L 381.883,26.343 C 381.642,26.375 381.451,26.462 381.31,26.602 C 381.168,26.743 380.985,27.143 380.761,27.801 L 378.687,33.634 L 378.234,33.634 L 378.234,33.634 z " />
      <path
         id="path247"
         d="M 386.643,32.311 C 385.751,33.121 384.949,33.526 384.239,33.526 C 383.822,33.526 383.474,33.388 383.197,33.112 C 382.92,32.837 382.781,32.491 382.781,32.077 C 382.781,31.515 383.022,31.01 383.502,30.561 C 383.982,30.112 385.03,29.515 386.643,28.769 L 386.643,28.033 C 386.643,27.48 386.613,27.131 386.554,26.988 C 386.494,26.844 386.383,26.719 386.217,26.612 C 386.051,26.505 385.866,26.451 385.659,26.451 C 385.324,26.451 385.046,26.528 384.826,26.678 C 384.691,26.773 384.623,26.883 384.623,27.007 C 384.623,27.117 384.696,27.253 384.843,27.415 C 385.041,27.639 385.141,27.856 385.141,28.064 C 385.141,28.32 385.045,28.539 384.855,28.719 C 384.664,28.899 384.414,28.989 384.106,28.989 C 383.775,28.989 383.5,28.89 383.278,28.692 C 383.056,28.493 382.945,28.261 382.945,27.995 C 382.945,27.619 383.093,27.26 383.391,26.918 C 383.688,26.576 384.102,26.313 384.634,26.131 C 385.165,25.948 385.717,25.857 386.291,25.857 C 386.984,25.857 387.533,26.005 387.937,26.301 C 388.34,26.597 388.602,26.919 388.723,27.264 C 388.796,27.485 388.833,27.991 388.833,28.782 L 388.833,31.637 C 388.833,31.972 388.845,32.183 388.873,32.27 C 388.898,32.356 388.939,32.42 388.992,32.462 C 389.045,32.504 389.109,32.524 389.184,32.524 C 389.319,32.524 389.456,32.424 389.596,32.225 L 389.832,32.419 C 389.57,32.806 389.298,33.087 389.018,33.261 C 388.737,33.435 388.418,33.523 388.061,33.523 C 387.642,33.523 387.314,33.422 387.078,33.222 C 386.838,33.023 386.695,32.719 386.643,32.311 z M 386.643,31.744 L 386.643,29.297 C 386.016,29.671 385.55,30.069 385.246,30.494 C 385.044,30.778 384.943,31.064 384.943,31.353 C 384.943,31.595 385.028,31.807 385.199,31.991 C 385.328,32.132 385.51,32.203 385.742,32.203 C 386.001,32.203 386.3,32.05 386.643,31.744 z " />
      <path
         id="path249"
         d="M 393.982,33.697 L 391.625,28.273 C 391.269,27.442 391.006,26.932 390.835,26.741 C 390.666,26.551 390.461,26.419 390.22,26.344 L 390.22,26.074 L 394.112,26.074 L 394.112,26.344 C 393.855,26.355 393.675,26.406 393.57,26.496 C 393.466,26.586 393.413,26.695 393.413,26.822 C 393.413,27.023 393.544,27.421 393.806,28.015 L 395.058,30.897 L 395.916,28.665 C 396.225,27.868 396.379,27.313 396.379,27.002 C 396.379,26.806 396.315,26.651 396.187,26.534 C 396.059,26.418 395.833,26.355 395.508,26.344 L 395.508,26.074 L 397.964,26.074 L 397.964,26.344 C 397.724,26.371 397.527,26.465 397.376,26.626 C 397.224,26.788 396.97,27.337 396.615,28.273 L 394.522,33.715 C 393.995,35.07 393.604,35.904 393.348,36.217 C 392.988,36.655 392.536,36.873 391.994,36.873 C 391.56,36.873 391.209,36.75 390.94,36.505 C 390.672,36.26 390.538,35.963 390.538,35.617 C 390.538,35.317 390.63,35.07 390.816,34.873 C 391.001,34.676 391.229,34.579 391.5,34.579 C 391.76,34.579 391.969,34.661 392.128,34.823 C 392.286,34.986 392.369,35.238 392.374,35.579 C 392.38,35.772 392.407,35.897 392.455,35.953 C 392.49,36.009 392.545,36.037 392.623,36.037 C 392.746,36.037 392.877,35.962 393.015,35.813 C 393.221,35.597 393.462,35.102 393.739,34.33 L 393.982,33.697 z " />
      <path
         id="path251"
         d="M 405.569,23.374 L 405.569,26.074 L 407.325,26.074 L 407.325,26.83 L 405.569,26.83 L 405.569,31.393 C 405.569,31.82 405.59,32.096 405.63,32.22 C 405.669,32.344 405.738,32.444 405.839,32.521 C 405.939,32.598 406.032,32.635 406.116,32.635 C 406.459,32.635 406.783,32.374 407.091,31.852 L 407.325,32.024 C 406.9,33.026 406.213,33.526 405.261,33.526 C 404.794,33.526 404.4,33.396 404.078,33.136 C 403.755,32.876 403.551,32.585 403.462,32.264 C 403.409,32.086 403.383,31.602 403.383,30.813 L 403.383,26.83 L 402.384,26.83 L 402.384,26.556 C 403.05,26.091 403.616,25.603 404.085,25.091 C 404.551,24.579 404.96,24.007 405.309,23.374 L 405.569,23.374 z " />
      <path
         id="path253"
         d="M 411.496,25.858 C 412.132,25.858 412.724,26.023 413.27,26.353 C 413.819,26.683 414.233,27.151 414.518,27.758 C 414.802,28.365 414.944,29.029 414.944,29.75 C 414.944,30.792 414.68,31.662 414.155,32.364 C 413.518,33.211 412.639,33.635 411.52,33.635 C 410.418,33.635 409.572,33.248 408.977,32.474 C 408.383,31.7 408.086,30.802 408.086,29.782 C 408.086,28.731 408.389,27.814 408.996,27.032 C 409.604,26.249 410.438,25.858 411.496,25.858 z M 411.531,26.398 C 411.264,26.398 411.037,26.499 410.846,26.701 C 410.657,26.903 410.531,27.302 410.471,27.897 C 410.41,28.493 410.381,29.32 410.381,30.38 C 410.381,30.941 410.416,31.466 410.49,31.954 C 410.547,32.327 410.67,32.61 410.857,32.804 C 411.045,32.998 411.258,33.095 411.5,33.095 C 411.733,33.095 411.928,33.03 412.086,32.899 C 412.289,32.721 412.424,32.471 412.492,32.151 C 412.596,31.653 412.648,30.646 412.648,29.13 C 412.648,28.238 412.599,27.626 412.5,27.293 C 412.401,26.96 412.256,26.717 412.062,26.565 C 411.928,26.454 411.75,26.398 411.531,26.398 z " />
      <path
         id="path255"
         d="M 423.13,26.074 L 423.13,27.068 C 423.532,26.619 423.906,26.305 424.248,26.127 C 424.591,25.948 424.968,25.858 425.375,25.858 C 425.847,25.858 426.241,25.97 426.561,26.194 C 426.881,26.418 427.126,26.758 427.298,27.216 C 427.716,26.736 428.117,26.391 428.501,26.177 C 428.884,25.965 429.285,25.858 429.702,25.858 C 430.209,25.858 430.612,25.975 430.913,26.208 C 431.214,26.441 431.422,26.737 431.54,27.097 C 431.657,27.456 431.716,28.029 431.716,28.814 L 431.716,31.825 C 431.716,32.392 431.767,32.743 431.867,32.88 C 431.967,33.017 432.179,33.106 432.499,33.148 L 432.499,33.418 L 428.72,33.418 L 428.72,33.148 C 429.021,33.122 429.243,33.006 429.386,32.802 C 429.482,32.66 429.53,32.335 429.53,31.825 L 429.53,28.68 C 429.53,28.028 429.504,27.613 429.451,27.435 C 429.399,27.258 429.316,27.126 429.205,27.04 C 429.092,26.954 428.959,26.911 428.807,26.911 C 428.582,26.911 428.354,26.994 428.123,27.158 C 427.893,27.323 427.659,27.569 427.424,27.897 L 427.424,31.826 C 427.424,32.356 427.469,32.689 427.561,32.826 C 427.682,33.019 427.916,33.127 428.262,33.148 L 428.262,33.418 L 424.454,33.418 L 424.454,33.148 C 424.66,33.138 424.822,33.086 424.941,32.994 C 425.059,32.902 425.138,32.792 425.177,32.663 C 425.217,32.535 425.236,32.255 425.236,31.825 L 425.236,28.667 C 425.236,28.001 425.211,27.585 425.158,27.417 C 425.105,27.25 425.017,27.119 424.894,27.024 C 424.77,26.93 424.637,26.883 424.496,26.883 C 424.285,26.883 424.094,26.939 423.92,27.05 C 423.672,27.215 423.41,27.497 423.131,27.895 L 423.131,31.824 C 423.131,32.344 423.182,32.686 423.282,32.851 C 423.383,33.017 423.594,33.115 423.914,33.146 L 423.914,33.416 L 420.161,33.416 L 420.161,33.146 C 420.467,33.115 420.683,33.015 420.812,32.847 C 420.9,32.732 420.944,32.39 420.944,31.824 L 420.944,27.666 C 420.944,27.103 420.893,26.752 420.793,26.614 C 420.692,26.476 420.481,26.385 420.161,26.343 L 420.161,26.073 L 423.13,26.073 L 423.13,26.074 z " />
      <path
         id="path257"
         d="M 437.522,32.311 C 436.629,33.121 435.829,33.526 435.118,33.526 C 434.7,33.526 434.354,33.388 434.077,33.112 C 433.8,32.837 433.661,32.491 433.661,32.077 C 433.661,31.515 433.901,31.01 434.382,30.561 C 434.863,30.112 435.909,29.515 437.523,28.769 L 437.523,28.033 C 437.523,27.48 437.493,27.131 437.434,26.988 C 437.374,26.844 437.263,26.719 437.097,26.612 C 436.931,26.505 436.745,26.451 436.538,26.451 C 436.203,26.451 435.925,26.528 435.706,26.678 C 435.57,26.773 435.501,26.883 435.501,27.007 C 435.501,27.117 435.575,27.253 435.722,27.415 C 435.92,27.639 436.021,27.856 436.021,28.064 C 436.021,28.32 435.923,28.539 435.734,28.719 C 435.544,28.899 435.293,28.989 434.986,28.989 C 434.655,28.989 434.379,28.89 434.158,28.692 C 433.935,28.493 433.824,28.261 433.824,27.995 C 433.824,27.619 433.972,27.26 434.27,26.918 C 434.567,26.576 434.981,26.313 435.513,26.131 C 436.043,25.948 436.596,25.857 437.169,25.857 C 437.862,25.857 438.411,26.005 438.815,26.301 C 439.219,26.597 439.48,26.919 439.601,27.264 C 439.673,27.485 439.71,27.991 439.71,28.782 L 439.71,31.637 C 439.71,31.972 439.722,32.183 439.749,32.27 C 439.774,32.356 439.815,32.42 439.868,32.462 C 439.921,32.504 439.985,32.524 440.06,32.524 C 440.194,32.524 440.332,32.424 440.472,32.225 L 440.707,32.419 C 440.445,32.806 440.174,33.087 439.894,33.261 C 439.613,33.435 439.294,33.523 438.938,33.523 C 438.518,33.523 438.19,33.422 437.954,33.222 C 437.718,33.023 437.575,32.719 437.522,32.311 z M 437.522,31.744 L 437.522,29.297 C 436.895,29.671 436.429,30.069 436.124,30.494 C 435.923,30.778 435.821,31.064 435.821,31.353 C 435.821,31.595 435.907,31.807 436.078,31.991 C 436.208,32.132 436.389,32.203 436.622,32.203 C 436.881,32.203 437.181,32.05 437.522,31.744 z " />
      <path
         id="path259"
         d="M 444.49,22.78 L 444.49,29.802 L 446.187,28.106 C 446.537,27.767 446.755,27.52 446.842,27.364 C 446.928,27.209 446.971,27.059 446.971,26.915 C 446.971,26.771 446.913,26.65 446.799,26.553 C 446.684,26.457 446.459,26.387 446.123,26.344 L 446.123,26.074 L 449.409,26.074 L 449.409,26.344 C 449.096,26.361 448.82,26.436 448.585,26.573 C 448.35,26.71 447.89,27.119 447.205,27.802 L 446.415,28.591 L 448.13,31.111 C 448.824,32.143 449.238,32.722 449.369,32.849 C 449.547,33.028 449.772,33.128 450.044,33.149 L 450.044,33.419 L 446.258,33.419 L 446.258,33.149 C 446.425,33.149 446.547,33.118 446.623,33.055 C 446.697,32.992 446.736,32.924 446.736,32.85 C 446.736,32.729 446.626,32.506 446.406,32.181 L 444.961,30.046 L 444.489,30.517 L 444.489,31.827 C 444.489,32.392 444.542,32.744 444.648,32.885 C 444.753,33.025 444.97,33.114 445.298,33.15 L 445.298,33.42 L 441.519,33.42 L 441.519,33.15 C 441.824,33.118 442.04,33.018 442.17,32.849 C 442.258,32.733 442.302,32.393 442.302,31.828 L 442.302,24.376 C 442.302,23.813 442.251,23.462 442.15,23.324 C 442.05,23.186 441.839,23.095 441.519,23.053 L 441.519,22.78 L 444.49,22.78 z " />
      <path
         id="path261"
         d="M 456.655,29.476 L 452.579,29.476 C 452.626,30.453 452.888,31.225 453.366,31.792 C 453.731,32.228 454.171,32.446 454.686,32.446 C 455.004,32.446 455.293,32.358 455.553,32.182 C 455.813,32.005 456.091,31.688 456.388,31.231 L 456.655,31.42 C 456.257,32.226 455.815,32.796 455.333,33.131 C 454.851,33.466 454.291,33.634 453.656,33.634 C 452.565,33.634 451.737,33.216 451.177,32.378 C 450.726,31.704 450.499,30.866 450.499,29.867 C 450.499,28.643 450.831,27.669 451.495,26.944 C 452.159,26.22 452.937,25.857 453.829,25.857 C 454.573,25.857 455.222,26.161 455.77,26.77 C 456.318,27.379 456.612,28.281 456.655,29.476 z M 454.738,28.963 C 454.738,28.129 454.69,27.557 454.597,27.245 C 454.502,26.934 454.358,26.699 454.159,26.537 C 454.046,26.444 453.897,26.397 453.709,26.397 C 453.431,26.397 453.202,26.53 453.025,26.793 C 452.709,27.254 452.551,27.886 452.551,28.689 L 452.551,28.961 L 454.738,28.961 L 454.738,28.963 z " />
      <path
         id="path263"
         d="M 344.23,47.863 C 343.337,48.673 342.535,49.078 341.826,49.078 C 341.408,49.078 341.061,48.94 340.784,48.664 C 340.507,48.389 340.368,48.044 340.368,47.629 C 340.368,47.067 340.608,46.562 341.089,46.113 C 341.569,45.664 342.616,45.067 344.23,44.321 L 344.23,43.585 C 344.23,43.031 344.2,42.683 344.141,42.54 C 344.081,42.396 343.969,42.271 343.804,42.164 C 343.638,42.057 343.453,42.003 343.247,42.003 C 342.911,42.003 342.633,42.079 342.414,42.23 C 342.278,42.325 342.21,42.435 342.21,42.56 C 342.21,42.669 342.283,42.806 342.43,42.968 C 342.628,43.193 342.727,43.409 342.727,43.618 C 342.727,43.874 342.631,44.092 342.44,44.272 C 342.25,44.452 342,44.542 341.691,44.542 C 341.361,44.542 341.086,44.443 340.864,44.244 C 340.642,44.046 340.531,43.813 340.531,43.548 C 340.531,43.172 340.679,42.814 340.976,42.471 C 341.273,42.129 341.687,41.867 342.219,41.684 C 342.751,41.501 343.303,41.41 343.877,41.41 C 344.57,41.41 345.119,41.558 345.523,41.855 C 345.926,42.151 346.188,42.472 346.309,42.818 C 346.382,43.038 346.418,43.544 346.418,44.336 L 346.418,47.191 C 346.418,47.526 346.431,47.737 346.458,47.825 C 346.484,47.911 346.523,47.975 346.577,48.017 C 346.63,48.059 346.694,48.08 346.769,48.08 C 346.904,48.08 347.041,47.98 347.181,47.78 L 347.417,47.974 C 347.155,48.361 346.883,48.641 346.603,48.816 C 346.322,48.991 346.004,49.079 345.647,49.079 C 345.228,49.079 344.9,48.978 344.663,48.777 C 344.426,48.576 344.282,48.271 344.23,47.863 z M 344.23,47.296 L 344.23,44.849 C 343.603,45.222 343.137,45.62 342.832,46.046 C 342.63,46.33 342.53,46.616 342.53,46.905 C 342.53,47.147 342.615,47.359 342.786,47.543 C 342.915,47.685 343.097,47.755 343.329,47.755 C 343.588,47.755 343.888,47.603 344.23,47.296 z " />
      <path
         id="path265"
         d="M 355.278,41.626 L 355.278,42.62 C 355.68,42.171 356.053,41.857 356.396,41.679 C 356.739,41.5 357.114,41.41 357.523,41.41 C 357.994,41.41 358.389,41.523 358.709,41.746 C 359.028,41.97 359.274,42.31 359.446,42.768 C 359.864,42.289 360.265,41.943 360.649,41.73 C 361.033,41.518 361.434,41.41 361.851,41.41 C 362.357,41.41 362.761,41.527 363.061,41.761 C 363.361,41.994 363.57,42.29 363.687,42.649 C 363.804,43.008 363.864,43.58 363.864,44.366 L 363.864,47.377 C 363.864,47.944 363.914,48.296 364.015,48.433 C 364.115,48.57 364.326,48.659 364.647,48.701 L 364.647,48.971 L 360.867,48.971 L 360.867,48.7 C 361.168,48.674 361.391,48.558 361.534,48.353 C 361.629,48.211 361.677,47.886 361.677,47.376 L 361.677,44.231 C 361.677,43.579 361.65,43.164 361.598,42.987 C 361.545,42.81 361.462,42.678 361.35,42.591 C 361.237,42.505 361.105,42.462 360.953,42.462 C 360.728,42.462 360.499,42.545 360.269,42.709 C 360.038,42.874 359.805,43.12 359.569,43.448 L 359.569,47.376 C 359.569,47.907 359.615,48.24 359.704,48.377 C 359.827,48.571 360.06,48.679 360.406,48.7 L 360.406,48.97 L 356.599,48.97 L 356.599,48.7 C 356.805,48.69 356.966,48.638 357.085,48.546 C 357.204,48.454 357.282,48.344 357.322,48.215 C 357.362,48.088 357.382,47.807 357.382,47.376 L 357.382,44.219 C 357.382,43.554 357.356,43.137 357.303,42.969 C 357.25,42.802 357.162,42.671 357.038,42.576 C 356.914,42.482 356.782,42.435 356.64,42.435 C 356.43,42.435 356.238,42.491 356.064,42.602 C 355.817,42.767 355.554,43.049 355.275,43.447 L 355.275,47.375 C 355.275,47.896 355.325,48.238 355.426,48.403 C 355.527,48.569 355.738,48.667 356.058,48.698 L 356.058,48.968 L 352.305,48.968 L 352.305,48.7 C 352.609,48.668 352.826,48.568 352.956,48.4 C 353.044,48.285 353.088,47.943 353.088,47.376 L 353.088,43.218 C 353.088,42.656 353.037,42.304 352.936,42.166 C 352.835,42.028 352.625,41.938 352.305,41.895 L 352.305,41.625 L 355.278,41.625 L 355.278,41.626 z " />
      <path
         id="path267"
         d="M 369.67,47.863 C 368.777,48.673 367.975,49.078 367.265,49.078 C 366.848,49.078 366.5,48.94 366.223,48.664 C 365.946,48.389 365.808,48.044 365.808,47.629 C 365.808,47.067 366.048,46.562 366.529,46.113 C 367.009,45.664 368.056,45.067 369.67,44.321 L 369.67,43.585 C 369.67,43.031 369.64,42.683 369.581,42.54 C 369.521,42.396 369.409,42.271 369.244,42.164 C 369.078,42.057 368.893,42.003 368.687,42.003 C 368.35,42.003 368.073,42.079 367.854,42.23 C 367.718,42.325 367.65,42.435 367.65,42.56 C 367.65,42.669 367.723,42.806 367.87,42.968 C 368.068,43.193 368.168,43.409 368.168,43.618 C 368.168,43.874 368.072,44.092 367.881,44.272 C 367.69,44.452 367.441,44.542 367.132,44.542 C 366.802,44.542 366.527,44.443 366.304,44.244 C 366.082,44.046 365.971,43.813 365.971,43.548 C 365.971,43.172 366.119,42.814 366.416,42.471 C 366.713,42.129 367.128,41.867 367.659,41.684 C 368.191,41.501 368.744,41.41 369.317,41.41 C 370.01,41.41 370.558,41.558 370.963,41.855 C 371.366,42.151 371.628,42.472 371.749,42.818 C 371.821,43.038 371.858,43.544 371.858,44.336 L 371.858,47.191 C 371.858,47.526 371.871,47.737 371.899,47.825 C 371.924,47.911 371.964,47.975 372.018,48.017 C 372.071,48.059 372.135,48.08 372.21,48.08 C 372.345,48.08 372.482,47.98 372.622,47.78 L 372.858,47.974 C 372.595,48.361 372.324,48.641 372.043,48.816 C 371.763,48.991 371.444,49.079 371.088,49.079 C 370.669,49.079 370.341,48.978 370.104,48.777 C 369.866,48.576 369.723,48.271 369.67,47.863 z M 369.67,47.296 L 369.67,44.849 C 369.043,45.222 368.577,45.62 368.272,46.046 C 368.07,46.33 367.97,46.616 367.97,46.905 C 367.97,47.147 368.055,47.359 368.226,47.543 C 368.355,47.685 368.537,47.755 368.77,47.755 C 369.028,47.755 369.328,47.603 369.67,47.296 z " />
      <path
         id="path269"
         d="M 378.299,41.437 L 378.407,43.948 L 378.137,43.948 C 377.819,43.2 377.489,42.689 377.149,42.414 C 376.808,42.141 376.468,42.003 376.129,42.003 C 375.915,42.003 375.733,42.075 375.582,42.218 C 375.431,42.362 375.355,42.528 375.355,42.717 C 375.355,42.858 375.407,42.994 375.511,43.125 C 375.677,43.339 376.144,43.707 376.908,44.226 C 377.674,44.747 378.177,45.188 378.42,45.552 C 378.663,45.915 378.783,46.321 378.783,46.771 C 378.783,47.179 378.682,47.579 378.48,47.971 C 378.278,48.363 377.993,48.664 377.627,48.873 C 377.259,49.081 376.853,49.186 376.409,49.186 C 376.062,49.186 375.598,49.079 375.019,48.865 C 374.863,48.809 374.757,48.782 374.701,48.782 C 374.53,48.782 374.389,48.907 374.274,49.16 L 374.004,49.16 L 373.869,46.514 L 374.14,46.514 C 374.374,47.207 374.694,47.727 375.101,48.074 C 375.509,48.421 375.896,48.594 376.26,48.594 C 376.51,48.594 376.714,48.517 376.872,48.363 C 377.03,48.209 377.11,48.022 377.11,47.802 C 377.11,47.552 377.032,47.334 376.875,47.152 C 376.719,46.968 376.37,46.692 375.827,46.32 C 375.029,45.766 374.513,45.343 374.279,45.05 C 373.934,44.621 373.763,44.148 373.763,43.631 C 373.763,43.067 373.956,42.555 374.346,42.098 C 374.734,41.64 375.297,41.411 376.033,41.411 C 376.43,41.411 376.813,41.508 377.183,41.7 C 377.325,41.778 377.439,41.817 377.528,41.817 C 377.621,41.817 377.697,41.798 377.755,41.761 C 377.812,41.722 377.903,41.615 378.028,41.439 L 378.299,41.439 L 378.299,41.437 z " />
      <path
         id="path271"
         d="M 382.798,38.926 L 382.798,41.626 L 384.553,41.626 L 384.553,42.382 L 382.798,42.382 L 382.798,46.945 C 382.798,47.372 382.818,47.648 382.857,47.772 C 382.898,47.896 382.967,47.996 383.067,48.072 C 383.167,48.149 383.259,48.187 383.344,48.187 C 383.687,48.187 384.012,47.926 384.318,47.404 L 384.553,47.576 C 384.129,48.577 383.44,49.078 382.488,49.078 C 382.022,49.078 381.629,48.948 381.306,48.688 C 380.984,48.427 380.779,48.137 380.69,47.816 C 380.637,47.637 380.612,47.154 380.612,46.365 L 380.612,42.382 L 379.612,42.382 L 379.612,42.108 C 380.279,41.643 380.844,41.155 381.312,40.643 C 381.779,40.131 382.187,39.559 382.537,38.926 L 382.798,38.926 z " />
      <path
         id="path273"
         d="M 391.47,45.028 L 387.394,45.028 C 387.441,46.005 387.703,46.777 388.181,47.344 C 388.547,47.78 388.987,47.998 389.501,47.998 C 389.819,47.998 390.108,47.91 390.369,47.734 C 390.628,47.558 390.907,47.24 391.204,46.783 L 391.47,46.972 C 391.071,47.778 390.631,48.348 390.148,48.683 C 389.665,49.018 389.106,49.186 388.471,49.186 C 387.38,49.186 386.553,48.768 385.992,47.93 C 385.54,47.256 385.314,46.418 385.314,45.419 C 385.314,44.195 385.646,43.221 386.31,42.497 C 386.975,41.772 387.752,41.41 388.644,41.41 C 389.389,41.41 390.036,41.714 390.584,42.323 C 391.134,42.931 391.428,43.833 391.47,45.028 z M 389.553,44.515 C 389.553,43.681 389.507,43.109 389.412,42.797 C 389.318,42.486 389.172,42.251 388.974,42.089 C 388.861,41.996 388.711,41.949 388.523,41.949 C 388.245,41.949 388.017,42.081 387.839,42.345 C 387.523,42.806 387.365,43.438 387.365,44.241 L 387.365,44.513 L 389.553,44.513 L 389.553,44.515 z " />
      <path
         id="path275"
         d="M 395.417,41.626 L 395.425,43.298 C 395.912,42.538 396.339,42.032 396.706,41.783 C 397.072,41.534 397.426,41.409 397.767,41.409 C 398.054,41.409 398.283,41.499 398.455,41.679 C 398.627,41.859 398.712,42.113 398.712,42.441 C 398.712,42.79 398.628,43.061 398.459,43.253 C 398.29,43.446 398.087,43.542 397.848,43.542 C 397.569,43.542 397.327,43.456 397.123,43.284 C 396.918,43.111 396.797,43.015 396.761,42.994 C 396.708,42.963 396.648,42.948 396.579,42.948 C 396.43,42.948 396.29,43.006 396.157,43.121 C 395.947,43.299 395.788,43.552 395.681,43.881 C 395.517,44.387 395.436,44.946 395.436,45.557 L 395.443,47.244 L 395.445,47.674 C 395.445,47.979 395.463,48.174 395.499,48.259 C 395.561,48.403 395.652,48.509 395.773,48.575 C 395.895,48.641 396.1,48.683 396.389,48.7 L 396.389,48.97 L 392.447,48.97 L 392.447,48.7 C 392.763,48.674 392.978,48.585 393.089,48.435 C 393.201,48.284 393.257,47.886 393.257,47.242 L 393.257,43.192 C 393.257,42.762 393.236,42.489 393.195,42.371 C 393.143,42.221 393.068,42.111 392.969,42.041 C 392.87,41.971 392.696,41.923 392.447,41.896 L 392.447,41.626 L 395.417,41.626 z " />
      <path
         id="path277"
         d="M 402.362,48.221 L 402.362,50.941 C 402.362,51.327 402.39,51.588 402.45,51.728 C 402.509,51.867 402.598,51.969 402.721,52.034 C 402.842,52.097 403.083,52.13 403.44,52.13 L 403.44,52.4 L 399.283,52.4 L 399.283,52.13 C 399.612,52.119 399.855,52.027 400.014,51.854 C 400.12,51.732 400.173,51.42 400.173,50.915 L 400.173,43.166 C 400.173,42.636 400.112,42.297 399.99,42.15 C 399.868,42.003 399.632,41.919 399.282,41.897 L 399.282,41.627 L 402.361,41.627 L 402.361,42.592 C 402.617,42.216 402.879,41.944 403.145,41.776 C 403.527,41.533 403.943,41.411 404.393,41.411 C 404.933,41.411 405.423,41.581 405.865,41.921 C 406.307,42.261 406.644,42.731 406.875,43.33 C 407.105,43.929 407.221,44.574 407.221,45.264 C 407.221,46.007 407.102,46.686 406.864,47.301 C 406.626,47.916 406.28,48.384 405.827,48.705 C 405.374,49.026 404.871,49.188 404.316,49.188 C 403.913,49.188 403.536,49.099 403.186,48.921 C 402.925,48.783 402.649,48.551 402.362,48.221 z M 402.362,47.418 C 402.813,48.057 403.298,48.376 403.813,48.376 C 404.097,48.376 404.331,48.227 404.515,47.929 C 404.788,47.489 404.926,46.652 404.926,45.417 C 404.926,44.151 404.776,43.285 404.475,42.819 C 404.276,42.51 404.007,42.356 403.67,42.356 C 403.139,42.356 402.701,42.738 402.361,43.502 L 402.361,47.418 L 402.362,47.418 z " />
      <path
         id="path279"
         d="M 411.327,41.626 L 411.327,47.458 C 411.327,47.977 411.386,48.308 411.507,48.453 C 411.628,48.597 411.865,48.68 412.218,48.701 L 412.218,48.971 L 408.249,48.971 L 408.249,48.7 C 408.577,48.69 408.821,48.595 408.979,48.417 C 409.085,48.297 409.138,47.977 409.138,47.458 L 409.138,43.165 C 409.138,42.635 409.077,42.296 408.955,42.149 C 408.833,42.002 408.598,41.918 408.248,41.896 L 408.248,41.626 L 411.327,41.626 L 411.327,41.626 z M 410.216,38.089 C 410.556,38.089 410.844,38.208 411.081,38.446 C 411.315,38.685 411.434,38.972 411.434,39.307 C 411.434,39.643 411.316,39.929 411.078,40.164 C 410.839,40.4 410.553,40.518 410.217,40.518 C 409.881,40.518 409.596,40.4 409.36,40.164 C 409.124,39.928 409.006,39.643 409.006,39.307 C 409.006,38.972 409.123,38.685 409.36,38.446 C 409.595,38.208 409.88,38.089 410.216,38.089 z " />
      <path
         id="path281"
         d="M 419.14,45.028 L 415.062,45.028 C 415.111,46.005 415.373,46.777 415.851,47.344 C 416.216,47.78 416.657,47.998 417.171,47.998 C 417.488,47.998 417.778,47.91 418.038,47.734 C 418.297,47.558 418.575,47.24 418.872,46.783 L 419.14,46.972 C 418.741,47.778 418.3,48.348 417.817,48.683 C 417.335,49.018 416.775,49.186 416.14,49.186 C 415.049,49.186 414.222,48.768 413.661,47.93 C 413.209,47.256 412.983,46.418 412.983,45.419 C 412.983,44.195 413.314,43.221 413.979,42.497 C 414.643,41.772 415.42,41.41 416.313,41.41 C 417.058,41.41 417.706,41.714 418.253,42.323 C 418.802,42.931 419.097,43.833 419.14,45.028 z M 417.222,44.515 C 417.222,43.681 417.175,43.109 417.081,42.797 C 416.987,42.486 416.842,42.251 416.643,42.089 C 416.531,41.996 416.379,41.949 416.192,41.949 C 415.915,41.949 415.686,42.081 415.508,42.345 C 415.192,42.806 415.035,43.438 415.035,44.241 L 415.035,44.513 L 417.222,44.513 L 417.222,44.515 z " />
      <path
         id="path283"
         d="M 426.028,47.08 L 426.272,47.268 C 425.926,47.915 425.496,48.396 424.981,48.712 C 424.466,49.028 423.919,49.186 423.338,49.186 C 422.36,49.186 421.578,48.817 420.994,48.08 C 420.408,47.343 420.115,46.456 420.115,45.42 C 420.115,44.421 420.383,43.543 420.919,42.784 C 421.565,41.868 422.456,41.41 423.592,41.41 C 424.353,41.41 424.958,41.602 425.407,41.984 C 425.857,42.366 426.082,42.793 426.082,43.264 C 426.082,43.563 425.99,43.801 425.807,43.979 C 425.623,44.157 425.382,44.246 425.084,44.246 C 424.77,44.246 424.511,44.143 424.305,43.938 C 424.101,43.733 423.975,43.368 423.926,42.842 C 423.895,42.511 423.818,42.279 423.696,42.148 C 423.573,42.017 423.428,41.951 423.264,41.951 C 423.008,41.951 422.79,42.085 422.61,42.352 C 422.333,42.756 422.194,43.375 422.194,44.208 C 422.194,44.9 422.305,45.562 422.527,46.194 C 422.749,46.826 423.052,47.297 423.438,47.606 C 423.728,47.832 424.072,47.944 424.468,47.944 C 424.727,47.944 424.971,47.884 425.204,47.763 C 425.438,47.643 425.712,47.416 426.028,47.08 z " />
      <path
         id="path285"
         d="M 433.405,45.028 L 429.328,45.028 C 429.376,46.005 429.638,46.777 430.116,47.344 C 430.481,47.78 430.922,47.998 431.436,47.998 C 431.753,47.998 432.042,47.91 432.303,47.734 C 432.562,47.558 432.84,47.24 433.137,46.783 L 433.405,46.972 C 433.005,47.778 432.565,48.348 432.083,48.683 C 431.599,49.018 431.04,49.186 430.405,49.186 C 429.313,49.186 428.487,48.768 427.926,47.93 C 427.474,47.256 427.248,46.418 427.248,45.419 C 427.248,44.195 427.58,43.221 428.244,42.497 C 428.908,41.772 429.685,41.41 430.578,41.41 C 431.323,41.41 431.971,41.714 432.518,42.323 C 433.067,42.931 433.362,43.833 433.405,45.028 z M 431.487,44.515 C 431.487,43.681 431.44,43.109 431.346,42.797 C 431.252,42.486 431.106,42.251 430.908,42.089 C 430.796,41.996 430.645,41.949 430.457,41.949 C 430.179,41.949 429.951,42.081 429.773,42.345 C 429.457,42.806 429.299,43.438 429.299,44.241 L 429.299,44.513 L 431.487,44.513 L 431.487,44.515 z " />
      <path
         id="path287"
         d="M 347.254,57.178 L 347.254,62.928 C 347.254,63.493 347.305,63.846 347.408,63.986 C 347.511,64.126 347.72,64.215 348.036,64.251 L 348.036,64.522 L 345.065,64.522 L 345.065,63.542 C 344.716,63.96 344.366,64.265 344.017,64.454 C 343.668,64.643 343.277,64.738 342.844,64.738 C 342.432,64.738 342.065,64.612 341.744,64.357 C 341.424,64.104 341.209,63.807 341.099,63.466 C 340.989,63.126 340.934,62.532 340.934,61.684 L 340.934,58.771 C 340.934,58.208 340.884,57.857 340.783,57.719 C 340.682,57.581 340.472,57.491 340.151,57.448 L 340.151,57.178 L 343.121,57.178 L 343.121,62.184 C 343.121,62.707 343.145,63.044 343.195,63.196 C 343.245,63.347 343.323,63.462 343.43,63.54 C 343.537,63.618 343.661,63.657 343.803,63.657 C 343.991,63.657 344.16,63.608 344.312,63.508 C 344.521,63.373 344.771,63.099 345.064,62.686 L 345.064,58.77 C 345.064,58.207 345.014,57.856 344.913,57.718 C 344.812,57.58 344.602,57.49 344.282,57.447 L 344.282,57.177 L 347.254,57.177 L 347.254,57.178 z " />
      <path
         id="path289"
         d="M 353.762,56.989 L 353.87,59.5 L 353.6,59.5 C 353.282,58.751 352.953,58.24 352.612,57.966 C 352.271,57.693 351.931,57.555 351.592,57.555 C 351.379,57.555 351.196,57.627 351.045,57.77 C 350.894,57.914 350.819,58.08 350.819,58.268 C 350.819,58.409 350.871,58.545 350.975,58.676 C 351.142,58.89 351.608,59.257 352.373,59.777 C 353.138,60.298 353.642,60.738 353.884,61.102 C 354.126,61.465 354.247,61.872 354.247,62.321 C 354.247,62.728 354.146,63.128 353.944,63.52 C 353.743,63.913 353.458,64.213 353.09,64.422 C 352.723,64.63 352.317,64.735 351.872,64.735 C 351.525,64.735 351.061,64.628 350.482,64.414 C 350.327,64.358 350.221,64.33 350.164,64.33 C 349.993,64.33 349.851,64.456 349.737,64.708 L 349.467,64.708 L 349.332,62.062 L 349.602,62.062 C 349.836,62.755 350.157,63.275 350.564,63.621 C 350.972,63.968 351.357,64.141 351.722,64.141 C 351.971,64.141 352.175,64.064 352.333,63.91 C 352.492,63.756 352.571,63.569 352.571,63.349 C 352.571,63.099 352.493,62.882 352.337,62.698 C 352.18,62.515 351.831,62.239 351.289,61.866 C 350.491,61.312 349.975,60.889 349.741,60.596 C 349.397,60.168 349.224,59.695 349.224,59.177 C 349.224,58.613 349.418,58.101 349.807,57.644 C 350.197,57.186 350.759,56.958 351.495,56.958 C 351.891,56.958 352.275,57.054 352.646,57.247 C 352.787,57.325 352.901,57.364 352.99,57.364 C 353.084,57.364 353.16,57.345 353.217,57.307 C 353.275,57.269 353.365,57.161 353.491,56.986 L 353.762,56.986 L 353.762,56.989 z " />
      <path
         id="path291"
         d="M 358.233,57.178 L 358.233,63.01 C 358.233,63.53 358.294,63.861 358.415,64.005 C 358.536,64.15 358.772,64.231 359.124,64.252 L 359.124,64.523 L 355.155,64.523 L 355.155,64.252 C 355.484,64.243 355.727,64.148 355.887,63.969 C 355.992,63.849 356.046,63.53 356.046,63.01 L 356.046,58.718 C 356.046,58.188 355.984,57.849 355.863,57.702 C 355.741,57.555 355.505,57.471 355.155,57.449 L 355.155,57.179 L 358.233,57.179 L 358.233,57.178 z M 357.123,53.641 C 357.464,53.641 357.752,53.76 357.988,53.998 C 358.224,54.237 358.342,54.524 358.342,54.859 C 358.342,55.194 358.222,55.48 357.984,55.716 C 357.745,55.952 357.459,56.07 357.123,56.07 C 356.787,56.07 356.501,55.952 356.266,55.716 C 356.03,55.48 355.912,55.195 355.912,54.859 C 355.912,54.523 356.03,54.236 356.266,53.998 C 356.501,53.76 356.787,53.641 357.123,53.641 z " />
      <path
         id="path293"
         d="M 362.833,57.178 L 362.833,58.123 C 363.209,57.718 363.57,57.423 363.915,57.239 C 364.259,57.054 364.63,56.962 365.028,56.962 C 365.504,56.962 365.898,57.095 366.212,57.359 C 366.524,57.624 366.734,57.952 366.838,58.345 C 366.921,58.644 366.963,59.219 366.963,60.067 L 366.963,62.928 C 366.963,63.495 367.013,63.848 367.114,63.987 C 367.214,64.127 367.425,64.215 367.746,64.251 L 367.746,64.522 L 364.047,64.522 L 364.047,64.251 C 364.326,64.215 364.528,64.099 364.649,63.905 C 364.733,63.774 364.776,63.448 364.776,62.928 L 364.776,59.653 C 364.776,59.049 364.752,58.669 364.705,58.511 C 364.659,58.353 364.578,58.232 364.465,58.145 C 364.352,58.059 364.228,58.015 364.09,58.015 C 363.639,58.015 363.22,58.339 362.831,58.987 L 362.831,62.929 C 362.831,63.481 362.882,63.83 362.986,63.977 C 363.089,64.124 363.28,64.216 363.561,64.252 L 363.561,64.523 L 359.862,64.523 L 359.862,64.252 C 360.166,64.221 360.384,64.121 360.513,63.953 C 360.6,63.838 360.644,63.496 360.644,62.929 L 360.644,58.771 C 360.644,58.208 360.594,57.857 360.493,57.719 C 360.392,57.581 360.181,57.491 359.862,57.448 L 359.862,57.178 L 362.833,57.178 L 362.833,57.178 z " />
      <path
         id="path295"
         d="M 373.446,57.259 L 375.903,57.259 L 375.903,58.123 L 374.509,58.123 C 374.765,58.38 374.941,58.613 375.041,58.824 C 375.166,59.107 375.228,59.403 375.228,59.712 C 375.228,60.237 375.084,60.691 374.795,61.077 C 374.506,61.462 374.115,61.764 373.618,61.981 C 373.121,62.198 372.681,62.308 372.297,62.308 C 372.265,62.308 371.953,62.295 371.361,62.269 C 371.127,62.269 370.929,62.346 370.77,62.501 C 370.61,62.656 370.531,62.84 370.531,63.056 C 370.531,63.245 370.602,63.399 370.746,63.52 C 370.89,63.641 371.124,63.701 371.448,63.701 L 372.805,63.684 C 373.902,63.684 374.658,63.805 375.071,64.044 C 375.662,64.377 375.957,64.891 375.957,65.584 C 375.957,66.027 375.822,66.43 375.548,66.792 C 375.276,67.154 374.917,67.421 374.471,67.594 C 373.794,67.849 373.016,67.977 372.136,67.977 C 371.475,67.977 370.872,67.913 370.327,67.786 C 369.782,67.658 369.391,67.481 369.156,67.254 C 368.921,67.027 368.802,66.789 368.802,66.539 C 368.802,66.299 368.892,66.084 369.074,65.894 C 369.255,65.704 369.593,65.543 370.085,65.414 C 369.409,65.079 369.072,64.613 369.072,64.018 C 369.072,63.657 369.211,63.307 369.489,62.967 C 369.767,62.627 370.208,62.332 370.812,62.08 C 370.104,61.824 369.593,61.486 369.276,61.067 C 368.96,60.649 368.801,60.164 368.801,59.615 C 368.801,58.898 369.094,58.277 369.679,57.751 C 370.264,57.225 371.017,56.962 371.938,56.962 C 372.425,56.962 372.927,57.062 373.446,57.259 z M 371.646,65.602 C 371.106,65.602 370.75,65.647 370.576,65.735 C 370.274,65.896 370.124,66.115 370.124,66.391 C 370.124,66.656 370.28,66.897 370.592,67.114 C 370.904,67.329 371.49,67.437 372.352,67.437 C 373.086,67.437 373.664,67.341 374.084,67.148 C 374.504,66.955 374.714,66.685 374.714,66.336 C 374.714,66.206 374.674,66.096 374.595,66.008 C 374.452,65.851 374.237,65.745 373.949,65.688 C 373.661,65.63 372.894,65.602 371.646,65.602 z M 372.094,57.475 C 371.792,57.475 371.537,57.627 371.328,57.931 C 371.12,58.235 371.016,58.866 371.016,59.822 C 371.016,60.596 371.118,61.128 371.324,61.417 C 371.53,61.706 371.773,61.849 372.054,61.849 C 372.366,61.849 372.627,61.707 372.835,61.421 C 373.043,61.135 373.148,60.579 373.148,59.752 C 373.148,58.821 373.03,58.188 372.796,57.85 C 372.63,57.6 372.396,57.475 372.094,57.475 z " />
      <path
         id="path297"
         d="M 391.033,53.641 L 391.033,57.34 L 390.763,57.34 C 390.531,56.373 390.097,55.632 389.464,55.116 C 388.831,54.601 388.114,54.343 387.313,54.343 C 386.643,54.343 386.028,54.534 385.468,54.917 C 384.908,55.299 384.5,55.799 384.242,56.417 C 383.909,57.208 383.742,58.088 383.742,59.057 C 383.742,60.011 383.863,60.878 384.104,61.661 C 384.345,62.444 384.722,63.036 385.236,63.436 C 385.75,63.836 386.416,64.037 387.234,64.037 C 387.904,64.037 388.519,63.891 389.078,63.598 C 389.636,63.305 390.225,62.801 390.844,62.083 L 390.844,63 C 390.246,63.62 389.622,64.069 388.976,64.348 C 388.327,64.626 387.571,64.766 386.705,64.766 C 385.567,64.766 384.556,64.538 383.673,64.083 C 382.79,63.628 382.108,62.974 381.628,62.122 C 381.147,61.269 380.908,60.363 380.908,59.4 C 380.908,58.385 381.175,57.423 381.71,56.513 C 382.245,55.603 382.967,54.897 383.876,54.395 C 384.785,53.893 385.751,53.642 386.773,53.642 C 387.526,53.642 388.322,53.802 389.159,54.121 C 389.644,54.306 389.952,54.398 390.084,54.398 C 390.252,54.398 390.398,54.338 390.522,54.217 C 390.646,54.096 390.726,53.904 390.764,53.642 L 391.033,53.642 L 391.033,53.641 z " />
      <path
         id="path299"
         d="M 402.64,53.641 L 402.64,57.34 L 402.369,57.34 C 402.138,56.373 401.705,55.632 401.071,55.116 C 400.438,54.601 399.72,54.343 398.919,54.343 C 398.25,54.343 397.634,54.534 397.075,54.917 C 396.515,55.299 396.106,55.799 395.848,56.417 C 395.516,57.208 395.349,58.088 395.349,59.057 C 395.349,60.011 395.47,60.878 395.71,61.661 C 395.952,62.444 396.329,63.036 396.843,63.436 C 397.357,63.836 398.023,64.037 398.841,64.037 C 399.511,64.037 400.126,63.891 400.685,63.598 C 401.244,63.305 401.831,62.801 402.451,62.083 L 402.451,63 C 401.853,63.62 401.229,64.069 400.582,64.348 C 399.934,64.626 399.178,64.766 398.312,64.766 C 397.174,64.766 396.163,64.538 395.28,64.083 C 394.396,63.628 393.715,62.974 393.234,62.122 C 392.754,61.269 392.515,60.363 392.515,59.4 C 392.515,58.385 392.782,57.423 393.317,56.513 C 393.852,55.603 394.574,54.897 395.483,54.395 C 396.392,53.893 397.357,53.642 398.38,53.642 C 399.133,53.642 399.929,53.802 400.766,54.121 C 401.25,54.306 401.559,54.398 401.691,54.398 C 401.858,54.398 402.005,54.338 402.129,54.217 C 402.253,54.096 402.332,53.904 402.369,53.642 L 402.64,53.642 L 402.64,53.641 z " />
      <path
         id="path301"
         d="M 408.466,61.633 L 403.904,61.633 L 403.904,60.013 L 408.466,60.013 L 408.466,61.633 z " />
      <path
         id="path303"
         d="M 412.252,53.884 L 412.252,63.009 C 412.252,63.529 412.313,63.86 412.435,64.004 C 412.554,64.149 412.79,64.23 413.144,64.251 L 413.144,64.522 L 409.174,64.522 L 409.174,64.251 C 409.503,64.242 409.746,64.147 409.906,63.968 C 410.011,63.848 410.065,63.529 410.065,63.009 L 410.065,55.395 C 410.065,54.878 410.003,54.547 409.881,54.402 C 409.76,54.257 409.524,54.173 409.173,54.152 L 409.173,53.882 L 412.252,53.882 L 412.252,53.884 z " />
      <path
         id="path305"
         d="M 416.717,57.178 L 416.717,63.01 C 416.717,63.53 416.778,63.861 416.9,64.005 C 417.019,64.15 417.255,64.231 417.609,64.252 L 417.609,64.523 L 413.639,64.523 L 413.639,64.252 C 413.968,64.243 414.211,64.148 414.371,63.969 C 414.476,63.849 414.53,63.53 414.53,63.01 L 414.53,58.718 C 414.53,58.188 414.468,57.849 414.346,57.702 C 414.225,57.555 413.989,57.471 413.638,57.449 L 413.638,57.179 L 416.717,57.179 L 416.717,57.178 z M 415.606,53.641 C 415.946,53.641 416.234,53.76 416.47,53.998 C 416.706,54.237 416.824,54.524 416.824,54.859 C 416.824,55.194 416.705,55.48 416.467,55.716 C 416.227,55.952 415.941,56.07 415.606,56.07 C 415.27,56.07 414.984,55.952 414.749,55.716 C 414.513,55.48 414.395,55.195 414.395,54.859 C 414.395,54.523 414.513,54.236 414.749,53.998 C 414.984,53.76 415.271,53.641 415.606,53.641 z " />
      <path
         id="path307"
         d="M 424.286,62.632 L 424.53,62.821 C 424.184,63.468 423.755,63.949 423.24,64.265 C 422.725,64.58 422.177,64.738 421.596,64.738 C 420.618,64.738 419.837,64.37 419.252,63.632 C 418.666,62.895 418.373,62.008 418.373,60.972 C 418.373,59.972 418.641,59.094 419.178,58.335 C 419.824,57.42 420.714,56.962 421.85,56.962 C 422.612,56.962 423.217,57.153 423.666,57.535 C 424.115,57.917 424.34,58.345 424.34,58.815 C 424.34,59.114 424.248,59.352 424.065,59.53 C 423.881,59.707 423.64,59.797 423.342,59.797 C 423.029,59.797 422.77,59.694 422.563,59.49 C 422.359,59.284 422.233,58.92 422.185,58.393 C 422.153,58.062 422.076,57.831 421.954,57.699 C 421.831,57.568 421.686,57.502 421.522,57.502 C 421.266,57.502 421.048,57.636 420.868,57.904 C 420.592,58.308 420.453,58.926 420.453,59.76 C 420.453,60.452 420.563,61.114 420.785,61.746 C 421.008,62.378 421.311,62.849 421.696,63.157 C 421.987,63.383 422.331,63.495 422.726,63.495 C 422.985,63.495 423.23,63.435 423.463,63.315 C 423.695,63.195 423.97,62.968 424.286,62.632 z " />
      <path
         id="path309"
         d="M 431.663,60.58 L 427.587,60.58 C 427.634,61.557 427.897,62.329 428.374,62.896 C 428.739,63.332 429.18,63.55 429.694,63.55 C 430.012,63.55 430.301,63.462 430.561,63.285 C 430.821,63.109 431.098,62.792 431.396,62.334 L 431.663,62.523 C 431.264,63.329 430.823,63.899 430.341,64.234 C 429.858,64.569 429.298,64.737 428.663,64.737 C 427.572,64.737 426.745,64.319 426.184,63.482 C 425.732,62.807 425.506,61.97 425.506,60.971 C 425.506,59.747 425.838,58.773 426.502,58.048 C 427.166,57.323 427.943,56.961 428.836,56.961 C 429.581,56.961 430.229,57.265 430.776,57.874 C 431.326,58.482 431.62,59.384 431.663,60.58 z M 429.747,60.067 C 429.747,59.233 429.699,58.66 429.604,58.349 C 429.51,58.038 429.365,57.802 429.166,57.641 C 429.054,57.548 428.904,57.5 428.715,57.5 C 428.438,57.5 428.209,57.633 428.033,57.897 C 427.717,58.358 427.558,58.99 427.558,59.793 L 427.558,60.065 L 429.747,60.065 L 429.747,60.067 z " />
      <path
         id="path311"
         d="M 435.583,57.178 L 435.583,58.123 C 435.958,57.718 436.319,57.423 436.665,57.239 C 437.009,57.054 437.381,56.962 437.778,56.962 C 438.253,56.962 438.647,57.095 438.961,57.359 C 439.275,57.623 439.483,57.952 439.589,58.345 C 439.672,58.644 439.714,59.219 439.714,60.067 L 439.714,62.928 C 439.714,63.495 439.765,63.848 439.864,63.987 C 439.966,64.127 440.176,64.215 440.497,64.251 L 440.497,64.522 L 436.798,64.522 L 436.798,64.251 C 437.077,64.215 437.278,64.099 437.4,63.905 C 437.485,63.774 437.527,63.448 437.527,62.928 L 437.527,59.653 C 437.527,59.049 437.504,58.669 437.457,58.511 C 437.41,58.353 437.329,58.232 437.217,58.145 C 437.104,58.059 436.979,58.015 436.843,58.015 C 436.393,58.015 435.973,58.339 435.584,58.987 L 435.584,62.929 C 435.584,63.481 435.635,63.83 435.738,63.977 C 435.841,64.124 436.033,64.216 436.312,64.252 L 436.312,64.523 L 432.613,64.523 L 432.613,64.252 C 432.918,64.221 433.135,64.121 433.265,63.953 C 433.353,63.838 433.396,63.496 433.396,62.929 L 433.396,58.771 C 433.396,58.208 433.345,57.857 433.246,57.719 C 433.144,57.581 432.934,57.491 432.613,57.448 L 432.613,57.178 L 435.583,57.178 L 435.583,57.178 z " />
      <path
         id="path313"
         d="M 447.491,62.632 L 447.733,62.821 C 447.387,63.468 446.958,63.949 446.443,64.265 C 445.928,64.58 445.38,64.738 444.799,64.738 C 443.822,64.738 443.041,64.37 442.455,63.632 C 441.869,62.895 441.576,62.008 441.576,60.972 C 441.576,59.972 441.845,59.094 442.381,58.335 C 443.027,57.42 443.917,56.962 445.053,56.962 C 445.815,56.962 446.42,57.153 446.869,57.535 C 447.318,57.917 447.543,58.345 447.543,58.815 C 447.543,59.114 447.452,59.352 447.269,59.53 C 447.084,59.707 446.844,59.797 446.546,59.797 C 446.232,59.797 445.973,59.694 445.768,59.49 C 445.563,59.284 445.436,58.92 445.389,58.393 C 445.356,58.062 445.28,57.831 445.157,57.699 C 445.035,57.568 444.891,57.502 444.726,57.502 C 444.47,57.502 444.251,57.636 444.071,57.904 C 443.795,58.308 443.656,58.926 443.656,59.76 C 443.656,60.452 443.766,61.114 443.989,61.746 C 444.211,62.378 444.514,62.849 444.901,63.157 C 445.19,63.383 445.534,63.495 445.929,63.495 C 446.188,63.495 446.434,63.435 446.666,63.315 C 446.898,63.195 447.173,62.968 447.491,62.632 z " />
      <path
         id="path315"
         d="M 454.866,60.58 L 450.79,60.58 C 450.837,61.557 451.1,62.329 451.577,62.896 C 451.942,63.332 452.383,63.55 452.897,63.55 C 453.215,63.55 453.504,63.462 453.764,63.285 C 454.024,63.109 454.301,62.792 454.599,62.334 L 454.866,62.523 C 454.467,63.329 454.026,63.899 453.544,64.234 C 453.061,64.569 452.501,64.737 451.866,64.737 C 450.775,64.737 449.948,64.319 449.387,63.482 C 448.935,62.807 448.709,61.97 448.709,60.971 C 448.709,59.747 449.041,58.773 449.705,58.048 C 450.369,57.323 451.146,56.961 452.039,56.961 C 452.784,56.961 453.432,57.265 453.979,57.874 C 454.529,58.482 454.823,59.384 454.866,60.58 z M 452.95,60.067 C 452.95,59.233 452.902,58.66 452.807,58.349 C 452.713,58.038 452.568,57.802 452.369,57.641 C 452.257,57.548 452.107,57.5 451.918,57.5 C 451.641,57.5 451.412,57.633 451.236,57.897 C 450.92,58.358 450.761,58.99 450.761,59.793 L 450.761,60.065 L 452.95,60.065 L 452.95,60.067 z " />
      <path
         id="path317"
         d="M 462.89,53.884 L 462.89,62.335 C 462.89,62.9 462.906,63.234 462.937,63.337 C 462.978,63.508 463.056,63.635 463.173,63.719 C 463.289,63.802 463.492,63.853 463.781,63.873 L 463.781,64.144 L 460.704,64.738 L 460.704,63.577 C 460.331,64.027 460.001,64.333 459.71,64.495 C 459.419,64.657 459.091,64.738 458.726,64.738 C 457.788,64.738 457.048,64.32 456.503,63.483 C 456.064,62.803 455.843,61.969 455.843,60.98 C 455.843,60.19 455.98,59.483 456.252,58.857 C 456.523,58.232 456.898,57.76 457.37,57.441 C 457.843,57.122 458.352,56.962 458.897,56.962 C 459.248,56.962 459.559,57.031 459.831,57.166 C 460.104,57.302 460.393,57.54 460.704,57.88 L 460.704,55.666 C 460.704,55.107 460.679,54.77 460.632,54.655 C 460.568,54.504 460.472,54.391 460.343,54.318 C 460.215,54.245 459.975,54.209 459.623,54.209 L 459.623,53.885 L 462.89,53.885 L 462.89,53.884 z M 460.704,58.825 C 460.315,58.105 459.841,57.745 459.278,57.745 C 459.085,57.745 458.924,57.797 458.799,57.901 C 458.605,58.063 458.445,58.348 458.322,58.755 C 458.199,59.162 458.137,59.786 458.137,60.627 C 458.137,61.552 458.204,62.236 458.341,62.68 C 458.478,63.124 458.663,63.445 458.9,63.643 C 459.021,63.742 459.186,63.791 459.396,63.791 C 459.857,63.791 460.292,63.428 460.703,62.703 L 460.703,58.825 L 460.704,58.825 z " />
      <path
         id="path319"
         d="M 344.23,78.967 C 343.337,79.777 342.535,80.181 341.826,80.181 C 341.408,80.181 341.061,80.044 340.784,79.768 C 340.507,79.492 340.368,79.148 340.368,78.733 C 340.368,78.171 340.608,77.666 341.089,77.217 C 341.569,76.768 342.616,76.171 344.23,75.426 L 344.23,74.69 C 344.23,74.137 344.2,73.788 344.141,73.645 C 344.081,73.502 343.969,73.376 343.804,73.269 C 343.639,73.162 343.453,73.108 343.247,73.108 C 342.911,73.108 342.633,73.184 342.414,73.335 C 342.278,73.429 342.21,73.539 342.21,73.664 C 342.21,73.774 342.283,73.91 342.43,74.072 C 342.628,74.296 342.727,74.513 342.727,74.722 C 342.727,74.978 342.631,75.196 342.44,75.376 C 342.25,75.556 342,75.646 341.691,75.646 C 341.361,75.646 341.086,75.547 340.864,75.349 C 340.642,75.15 340.531,74.918 340.531,74.652 C 340.531,74.277 340.679,73.917 340.976,73.575 C 341.273,73.233 341.687,72.971 342.219,72.788 C 342.751,72.605 343.303,72.514 343.877,72.514 C 344.57,72.514 345.119,72.662 345.523,72.958 C 345.926,73.254 346.188,73.576 346.309,73.922 C 346.382,74.142 346.418,74.649 346.418,75.44 L 346.418,78.295 C 346.418,78.63 346.431,78.841 346.458,78.928 C 346.484,79.014 346.523,79.078 346.577,79.12 C 346.63,79.162 346.694,79.183 346.769,79.183 C 346.904,79.183 347.041,79.083 347.181,78.884 L 347.417,79.078 C 347.155,79.464 346.883,79.745 346.603,79.92 C 346.323,80.095 346.004,80.182 345.647,80.182 C 345.228,80.182 344.9,80.081 344.663,79.881 C 344.426,79.68 344.282,79.375 344.23,78.967 z M 344.23,78.4 L 344.23,75.953 C 343.603,76.326 343.137,76.724 342.832,77.149 C 342.63,77.433 342.53,77.719 342.53,78.007 C 342.53,78.249 342.615,78.462 342.786,78.645 C 342.915,78.787 343.097,78.857 343.329,78.857 C 343.588,78.859 343.888,78.706 344.23,78.4 z " />
      <path
         id="path321"
         d="M 351.239,72.73 L 351.247,74.403 C 351.733,73.642 352.16,73.137 352.527,72.888 C 352.893,72.639 353.247,72.514 353.588,72.514 C 353.875,72.514 354.104,72.604 354.276,72.784 C 354.448,72.964 354.533,73.218 354.533,73.546 C 354.533,73.896 354.449,74.166 354.28,74.359 C 354.111,74.551 353.908,74.648 353.669,74.648 C 353.39,74.648 353.148,74.562 352.944,74.389 C 352.739,74.217 352.618,74.12 352.581,74.099 C 352.528,74.069 352.469,74.054 352.4,74.054 C 352.251,74.054 352.11,74.112 351.978,74.226 C 351.768,74.403 351.609,74.657 351.502,74.986 C 351.338,75.493 351.256,76.051 351.256,76.662 L 351.263,78.349 L 351.266,78.779 C 351.266,79.083 351.284,79.279 351.32,79.364 C 351.382,79.509 351.473,79.614 351.594,79.681 C 351.715,79.747 351.921,79.789 352.21,79.805 L 352.21,80.075 L 348.268,80.075 L 348.268,79.805 C 348.584,79.779 348.799,79.69 348.91,79.54 C 349.021,79.39 349.077,78.992 349.077,78.347 L 349.077,74.297 C 349.077,73.868 349.056,73.594 349.015,73.476 C 348.963,73.326 348.888,73.216 348.789,73.146 C 348.69,73.076 348.516,73.027 348.268,73.001 L 348.268,72.73 L 351.239,72.73 z " />
      <path
         id="path323"
         d="M 358.237,70.03 L 358.237,72.73 L 359.992,72.73 L 359.992,73.486 L 358.237,73.486 L 358.237,78.05 C 358.237,78.476 358.257,78.752 358.296,78.876 C 358.336,79 358.405,79.1 358.506,79.176 C 358.606,79.253 358.698,79.291 358.783,79.291 C 359.126,79.291 359.45,79.03 359.757,78.508 L 359.992,78.68 C 359.568,79.682 358.879,80.182 357.927,80.182 C 357.461,80.182 357.067,80.052 356.745,79.792 C 356.423,79.532 356.218,79.241 356.129,78.92 C 356.077,78.741 356.051,78.258 356.051,77.469 L 356.051,73.486 L 355.051,73.486 L 355.051,73.212 C 355.717,72.748 356.283,72.259 356.751,71.747 C 357.218,71.235 357.626,70.663 357.976,70.03 L 358.237,70.03 L 358.237,70.03 z " />
      <path
         id="path325"
         d="M 367.58,72.73 L 367.58,78.562 C 367.58,79.081 367.64,79.413 367.761,79.556 C 367.882,79.701 368.118,79.783 368.47,79.804 L 368.47,80.074 L 364.502,80.074 L 364.502,79.804 C 364.831,79.794 365.074,79.7 365.233,79.521 C 365.339,79.4 365.392,79.081 365.392,78.562 L 365.392,74.269 C 365.392,73.739 365.331,73.4 365.209,73.253 C 365.087,73.106 364.851,73.021 364.501,73 L 364.501,72.73 L 367.58,72.73 z M 366.469,69.193 C 366.809,69.193 367.097,69.313 367.334,69.551 C 367.57,69.79 367.688,70.076 367.688,70.412 C 367.688,70.747 367.569,71.033 367.331,71.269 C 367.092,71.505 366.805,71.623 366.47,71.623 C 366.135,71.623 365.849,71.505 365.612,71.269 C 365.377,71.033 365.259,70.748 365.259,70.412 C 365.259,70.076 365.377,69.789 365.612,69.551 C 365.848,69.312 366.133,69.193 366.469,69.193 z " />
      <path
         id="path327"
         d="M 373.826,72.541 L 373.934,75.052 L 373.664,75.052 C 373.346,74.304 373.016,73.793 372.675,73.519 C 372.334,73.245 371.994,73.108 371.655,73.108 C 371.442,73.108 371.259,73.18 371.108,73.324 C 370.957,73.468 370.881,73.634 370.881,73.822 C 370.881,73.964 370.934,74.099 371.037,74.23 C 371.204,74.444 371.67,74.812 372.435,75.332 C 373.2,75.852 373.704,76.293 373.947,76.657 C 374.189,77.02 374.31,77.427 374.31,77.876 C 374.31,78.284 374.209,78.684 374.007,79.075 C 373.806,79.468 373.521,79.768 373.154,79.977 C 372.786,80.186 372.381,80.29 371.936,80.29 C 371.59,80.29 371.125,80.183 370.546,79.969 C 370.391,79.913 370.285,79.885 370.229,79.885 C 370.058,79.885 369.916,80.011 369.802,80.263 L 369.531,80.263 L 369.397,77.617 L 369.667,77.617 C 369.901,78.31 370.222,78.83 370.629,79.176 C 371.037,79.523 371.423,79.696 371.787,79.696 C 372.037,79.696 372.241,79.619 372.399,79.465 C 372.558,79.311 372.637,79.124 372.637,78.904 C 372.637,78.654 372.559,78.437 372.403,78.254 C 372.246,78.071 371.897,77.794 371.355,77.422 C 370.557,76.868 370.04,76.445 369.807,76.152 C 369.462,75.724 369.29,75.251 369.29,74.733 C 369.29,74.169 369.484,73.657 369.873,73.2 C 370.262,72.743 370.825,72.514 371.561,72.514 C 371.957,72.514 372.34,72.61 372.711,72.802 C 372.852,72.88 372.967,72.919 373.055,72.919 C 373.148,72.919 373.225,72.9 373.282,72.862 C 373.34,72.824 373.43,72.717 373.556,72.541 L 373.826,72.541 L 373.826,72.541 z " />
      <path
         id="path329"
         d="M 378.725,82.531 L 387.122,82.531 L 387.122,83.53 L 378.725,83.53 L 378.725,82.531 z " />
      <path
         id="path331"
         d="M 386.76,82.531 L 395.157,82.531 L 395.157,83.53 L 386.76,83.53 L 386.76,82.531 z " />
      <path
         id="path333"
         d="M 394.795,82.531 L 403.192,82.531 L 403.192,83.53 L 394.795,83.53 L 394.795,82.531 z " />
      <path
         id="path335"
         d="M 402.831,82.531 L 411.227,82.531 L 411.227,83.53 L 402.831,83.53 L 402.831,82.531 z " />
      <path
         id="path337"
         d="M 410.866,82.531 L 419.262,82.531 L 419.262,83.53 L 410.866,83.53 L 410.866,82.531 z " />
      <path
         id="path339"
         d="M 418.901,82.531 L 427.297,82.531 L 427.297,83.53 L 418.901,83.53 L 418.901,82.531 z " />
      <path
         id="path341"
         d="M 426.937,82.531 L 435.334,82.531 L 435.334,83.53 L 426.937,83.53 L 426.937,82.531 z " />
      <path
         id="path343"
         d="M 434.972,82.531 L 443.368,82.531 L 443.368,83.53 L 434.972,83.53 L 434.972,82.531 z " />
      <path
         id="path345"
         d="M 443.007,82.531 L 451.405,82.531 L 451.405,83.53 L 443.007,83.53 L 443.007,82.531 z " />
      <path
         id="path347"
         d="M 451.042,82.531 L 459.439,82.531 L 459.439,83.53 L 451.042,83.53 L 451.042,82.531 z " />
      <path
         id="path349"
         d="M 339.451,98.083 L 347.848,98.083 L 347.848,99.082 L 339.451,99.082 L 339.451,98.083 z " />
      <path
         id="path351"
         d="M 347.486,98.083 L 355.883,98.083 L 355.883,99.082 L 347.486,99.082 L 347.486,98.083 z " />
      <path
         id="path353"
         d="M 355.521,98.083 L 363.918,98.083 L 363.918,99.082 L 355.521,99.082 L 355.521,98.083 z " />
      <path
         id="path355"
         d="M 363.557,98.083 L 371.954,98.083 L 371.954,99.082 L 363.557,99.082 L 363.557,98.083 z " />
      <path
         id="path357"
         d="M 371.592,98.083 L 379.989,98.083 L 379.989,99.082 L 371.592,99.082 L 371.592,98.083 z " />
      <path
         id="path359"
         d="M 379.628,98.083 L 388.024,98.083 L 388.024,99.082 L 379.628,99.082 L 379.628,98.083 z " />
      <path
         id="path361"
         d="M 387.663,98.083 L 396.06,98.083 L 396.06,99.082 L 387.663,99.082 L 387.663,98.083 z " />
      <path
         id="path363"
         d="M 395.698,98.083 L 404.095,98.083 L 404.095,99.082 L 395.698,99.082 L 395.698,98.083 z " />
      <path
         id="path365"
         d="M 403.733,98.083 L 412.129,98.083 L 412.129,99.082 L 403.733,99.082 L 403.733,98.083 z " />
      <path
         id="path367"
         d="M 411.769,98.083 L 420.165,98.083 L 420.165,99.082 L 411.769,99.082 L 411.769,98.083 z " />
      <path
         id="path369"
         d="M 419.804,98.083 L 428.2,98.083 L 428.2,99.082 L 419.804,99.082 L 419.804,98.083 z " />
      <path
         id="path371"
         d="M 427.839,98.083 L 436.236,98.083 L 436.236,99.082 L 427.839,99.082 L 427.839,98.083 z " />
      <path
         id="path373"
         d="M 435.874,98.083 L 444.271,98.083 L 444.271,99.082 L 435.874,99.082 L 435.874,98.083 z " />
      <path
         id="path375"
         d="M 443.909,98.083 L 452.305,98.083 L 452.305,99.082 L 443.909,99.082 L 443.909,98.083 z " />
      <path
         id="path377"
         d="M 451.945,98.083 L 460.342,98.083 L 460.342,99.082 L 451.945,99.082 L 451.945,98.083 z " />
      <path
         id="path379"
         d="M 339.451,113.635 L 347.848,113.635 L 347.848,114.635 L 339.451,114.635 L 339.451,113.635 z " />
      <path
         id="path381"
         d="M 347.486,113.635 L 355.883,113.635 L 355.883,114.635 L 347.486,114.635 L 347.486,113.635 z " />
      <path
         id="path383"
         d="M 355.521,113.635 L 363.918,113.635 L 363.918,114.635 L 355.521,114.635 L 355.521,113.635 z " />
      <path
         id="path385"
         d="M 363.557,113.635 L 371.954,113.635 L 371.954,114.635 L 363.557,114.635 L 363.557,113.635 z " />
      <path
         id="path387"
         d="M 371.592,113.635 L 379.989,113.635 L 379.989,114.635 L 371.592,114.635 L 371.592,113.635 z " />
      <path
         id="path389"
         d="M 379.628,113.635 L 388.024,113.635 L 388.024,114.635 L 379.628,114.635 L 379.628,113.635 z " />
      <path
         id="path391"
         d="M 387.663,113.635 L 396.06,113.635 L 396.06,114.635 L 387.663,114.635 L 387.663,113.635 z " />
      <path
         id="path393"
         d="M 395.698,113.635 L 404.095,113.635 L 404.095,114.635 L 395.698,114.635 L 395.698,113.635 z " />
      <path
         id="path395"
         d="M 403.733,113.635 L 412.129,113.635 L 412.129,114.635 L 403.733,114.635 L 403.733,113.635 z " />
      <path
         id="path397"
         d="M 411.769,113.635 L 420.165,113.635 L 420.165,114.635 L 411.769,114.635 L 411.769,113.635 z " />
      <path
         id="path399"
         d="M 419.804,113.635 L 428.2,113.635 L 428.2,114.635 L 419.804,114.635 L 419.804,113.635 z " />
      <path
         id="path401"
         d="M 427.839,113.635 L 436.236,113.635 L 436.236,114.635 L 427.839,114.635 L 427.839,113.635 z " />
      <path
         id="path403"
         d="M 435.874,113.635 L 444.271,113.635 L 444.271,114.635 L 435.874,114.635 L 435.874,113.635 z " />
      <path
         id="path405"
         d="M 443.909,113.635 L 452.305,113.635 L 452.305,114.635 L 443.909,114.635 L 443.909,113.635 z " />
      <path
         id="path407"
         d="M 451.945,113.635 L 460.342,113.635 L 460.342,114.635 L 451.945,114.635 L 451.945,113.635 z " />
    </g>
  </g>
</svg>
