<?xml version="1.0" encoding="UTF-8" standalone="no"?>
<!-- Created with Inkscape (http://www.inkscape.org/) -->
<svg
   xmlns:dc="http://purl.org/dc/elements/1.1/"
   xmlns:cc="http://web.resource.org/cc/"
   xmlns:rdf="http://www.w3.org/1999/02/22-rdf-syntax-ns#"
   xmlns:svg="http://www.w3.org/2000/svg"
   xmlns="http://www.w3.org/2000/svg"
   xmlns:sodipodi="http://sodipodi.sourceforge.net/DTD/sodipodi-0.dtd"
   xmlns:inkscape="http://www.inkscape.org/namespaces/inkscape"
   width="142.73201"
   height="163.41473"
   id="svg3530"
   sodipodi:version="0.32"
   inkscape:version="0.45.1"
   version="1.0"
   sodipodi:docbase="/Users/robmyers/Desktop/cc-ironies/final"
   sodipodi:docname="negative_endorsement.svg"
   inkscape:output_extension="org.inkscape.output.svg.inkscape">
  <defs
     id="defs3532" />
  <sodipodi:namedview
     id="base"
     pagecolor="#ffffff"
     bordercolor="#666666"
     borderopacity="1.0"
     gridtolerance="10000"
     guidetolerance="10"
     objecttolerance="10"
     inkscape:pageopacity="0.0"
     inkscape:pageshadow="2"
     inkscape:zoom="2.3131329"
     inkscape:cx="71.366005"
     inkscape:cy="81.707367"
     inkscape:document-units="px"
     inkscape:current-layer="layer1"
     inkscape:window-width="697"
     inkscape:window-height="581"
     inkscape:window-x="20"
     inkscape:window-y="42" />
  <metadata
     id="metadata3535">
    <rdf:RDF>
      <cc:Work
         rdf:about="">
        <dc:format>image/svg+xml</dc:format>
        <dc:type
           rdf:resource="http://purl.org/dc/dcmitype/StillImage" />
      </cc:Work>
    </rdf:RDF>
  </metadata>
  <g
     inkscape:label="Layer 1"
     inkscape:groupmode="layer"
     id="layer1"
     transform="translate(-434.34828,-639.1922)">
    <rect
       x="434.8483"
       y="639.6922"
       style="fill:#ffffff;stroke:#000000"
       width="141.73199"
       height="141.73199"
       id="rect429" />
    <g
       id="g431"
       transform="matrix(0.5,0,0,0.5,270.73728,709.43693)">
      <path
         id="path3817_2_"
         style="fill:#aab2ab"
         d="M 329.794,154.981 L 415.342,155.133 C 416.537,155.133 417.606,154.955 417.606,157.518 L 417.501,185.694 L 327.636,185.694 L 327.636,157.415 C 327.635,156.15 327.758,154.981 329.794,154.981 z " />
      <path
         d="M 416.09,154.639 L 328.918,154.639 C 327.983,154.639 327.222,155.401 327.222,156.335 L 327.222,185.957 C 327.222,186.168 327.394,186.34 327.605,186.34 L 417.402,186.34 C 417.613,186.34 417.785,186.168 417.785,185.957 L 417.785,156.335 C 417.786,155.401 417.025,154.639 416.09,154.639 z M 328.918,155.406 L 416.09,155.406 C 416.603,155.406 417.02,155.823 417.02,156.336 C 417.02,156.336 417.02,168.259 417.02,176.882 L 354.714,176.882 C 352.431,181.011 348.03,183.816 342.981,183.816 C 337.93,183.816 333.532,181.014 331.25,176.882 L 327.989,176.882 C 327.989,168.259 327.989,156.336 327.989,156.336 C 327.989,155.823 328.406,155.406 328.918,155.406 z "
         id="path434" />
      <g
         id="g5908_2_">
        <path
           id="path5906_2_"
           style="fill:#ffffff"
           d="M 353.276,169.397 C 353.28,175.08 348.675,179.69 342.992,179.692 C 337.309,179.697 332.7,175.091 332.696,169.409 C 332.696,169.405 332.696,169.401 332.696,169.397 C 332.692,163.713 337.297,159.104 342.98,159.1 C 348.664,159.096 353.273,163.702 353.276,169.383 C 353.276,169.388 353.276,169.392 353.276,169.397 z " />
        <g
           id="g5706_2_">
          <path
             d="M 351.351,161.015 C 353.633,163.297 354.774,166.09 354.774,169.397 C 354.774,172.702 353.653,175.466 351.41,177.69 C 349.03,180.031 346.218,181.202 342.972,181.202 C 339.765,181.202 337.001,180.042 334.681,177.72 C 332.359,175.398 331.199,172.624 331.199,169.398 C 331.199,166.17 332.359,163.377 334.681,161.016 C 336.943,158.734 339.706,157.592 342.972,157.592 C 346.276,157.591 349.069,158.733 351.351,161.015 z M 336.216,162.55 C 334.287,164.498 333.322,166.781 333.322,169.399 C 333.322,172.017 334.277,174.281 336.186,176.189 C 338.096,178.098 340.369,179.053 343.006,179.053 C 345.643,179.053 347.936,178.089 349.885,176.16 C 351.735,174.369 352.66,172.115 352.66,169.398 C 352.66,166.703 351.72,164.414 349.839,162.535 C 347.96,160.655 345.682,159.715 343.006,159.715 C 340.33,159.715 338.065,160.661 336.216,162.55 z M 341.292,168.249 C 340.997,167.605 340.557,167.284 339.968,167.284 C 338.928,167.284 338.407,167.985 338.407,169.386 C 338.407,170.787 338.928,171.486 339.968,171.486 C 340.655,171.486 341.146,171.145 341.44,170.463 L 342.882,171.231 C 342.194,172.452 341.163,173.063 339.788,173.063 C 338.727,173.063 337.878,172.738 337.24,172.088 C 336.601,171.438 336.282,170.541 336.282,169.399 C 336.282,168.276 336.611,167.384 337.269,166.724 C 337.926,166.063 338.747,165.734 339.729,165.734 C 341.183,165.734 342.223,166.306 342.853,167.451 L 341.292,168.249 z M 348.078,168.249 C 347.783,167.605 347.349,167.284 346.78,167.284 C 345.718,167.284 345.187,167.985 345.187,169.386 C 345.187,170.787 345.718,171.486 346.78,171.486 C 347.468,171.486 347.95,171.145 348.225,170.463 L 349.699,171.231 C 349.013,172.452 347.983,173.063 346.611,173.063 C 345.552,173.063 344.704,172.738 344.067,172.088 C 343.43,171.438 343.111,170.541 343.111,169.399 C 343.111,168.276 343.435,167.384 344.083,166.724 C 344.729,166.063 345.553,165.734 346.553,165.734 C 348.004,165.734 349.043,166.306 349.67,167.451 L 348.078,168.249 z "
             id="path439" />
        </g>
      </g>
      <g
         id="g126_2_">
        <circle
           id="circle128_2_"
           style="fill:#ffffff"
           cx="366.28799"
           cy="166.13"
           r="8.1040001"
           sodipodi:cx="366.28799"
           sodipodi:cy="166.13"
           sodipodi:rx="8.1040001"
           sodipodi:ry="8.1040001" />
        <g
           id="g130_2_">
          <path
             id="path132_2_"
             d="M 368.633,163.785 C 368.633,163.473 368.38,163.22 368.068,163.22 L 364.489,163.22 C 364.177,163.22 363.924,163.474 363.924,163.785 L 363.924,167.365 L 364.922,167.365 L 364.922,171.604 L 367.635,171.604 L 367.635,167.365 L 368.634,167.365 L 368.634,163.785 L 368.633,163.785 z " />
          <circle
             id="circle134_2_"
             cx="366.27802"
             cy="161.524"
             r="1.225"
             sodipodi:cx="366.27802"
             sodipodi:cy="161.524"
             sodipodi:rx="1.225"
             sodipodi:ry="1.225" />
        </g>
        <path
           d="M 366.267,157.2 C 363.843,157.2 361.791,158.046 360.112,159.738 C 358.388,161.488 357.527,163.559 357.527,165.952 C 357.527,168.344 358.388,170.4 360.112,172.122 C 361.836,173.843 363.887,174.704 366.267,174.704 C 368.676,174.704 370.766,173.837 372.533,172.1 C 374.198,170.453 375.03,168.403 375.03,165.953 C 375.03,163.502 374.183,161.432 372.489,159.739 C 370.795,158.045 368.721,157.2 366.267,157.2 z M 366.29,158.775 C 368.276,158.775 369.963,159.475 371.35,160.876 C 372.753,162.262 373.454,163.954 373.454,165.952 C 373.454,167.965 372.767,169.635 371.394,170.962 C 369.949,172.392 368.248,173.107 366.29,173.107 C 364.332,173.107 362.645,172.4 361.229,170.985 C 359.812,169.57 359.104,167.892 359.104,165.953 C 359.104,164.013 359.82,162.321 361.25,160.877 C 362.624,159.475 364.303,158.775 366.29,158.775 z "
           id="path446" />
      </g>
      <g
         id="g138_2_"
         style="enable-background:new">
        <path
           style="fill:#ffffff"
           d="M 363.75,179.357 C 363.988,179.357 364.205,179.378 364.402,179.42 C 364.597,179.461 364.766,179.529 364.907,179.626 C 365.047,179.721 365.155,179.849 365.233,180.007 C 365.31,180.165 365.348,180.361 365.348,180.594 C 365.348,180.846 365.291,181.056 365.176,181.225 C 365.062,181.393 364.892,181.53 364.667,181.637 C 364.977,181.725 365.207,181.881 365.359,182.104 C 365.511,182.325 365.588,182.592 365.588,182.905 C 365.588,183.157 365.539,183.376 365.441,183.559 C 365.343,183.745 365.211,183.895 365.045,184.01 C 364.879,184.127 364.69,184.214 364.478,184.27 C 364.264,184.327 364.046,184.355 363.822,184.355 L 361.394,184.355 L 361.394,179.357 L 363.75,179.357 L 363.75,179.357 z M 363.61,181.378 C 363.806,181.378 363.967,181.331 364.093,181.237 C 364.22,181.144 364.282,180.994 364.282,180.785 C 364.282,180.668 364.261,180.572 364.22,180.498 C 364.177,180.423 364.121,180.365 364.051,180.323 C 363.981,180.281 363.901,180.252 363.81,180.235 C 363.718,180.218 363.623,180.212 363.526,180.212 L 362.496,180.212 L 362.496,181.378 L 363.61,181.378 z M 363.674,183.5 C 363.781,183.5 363.884,183.489 363.983,183.468 C 364.081,183.447 364.168,183.412 364.243,183.364 C 364.317,183.313 364.377,183.248 364.422,183.163 C 364.466,183.079 364.488,182.973 364.488,182.843 C 364.488,182.586 364.416,182.404 364.27,182.293 C 364.125,182.183 363.934,182.129 363.696,182.129 L 362.496,182.129 L 362.496,183.5 L 363.674,183.5 z "
           id="path449" />
        <polygon
           id="path142_2_"
           style="fill:#ffffff"
           points="365.784,179.357 367.016,179.357 368.186,181.331 369.35,179.357 370.575,179.357 368.719,182.436 368.719,184.355 367.618,184.355 367.618,182.409 365.784,179.357 " />
      </g>
      <g
         id="g144_2_"
         style="enable-background:new">
        <path
           id="path146_2_"
           style="fill:#ffffff"
           d="M 401.515,183.119 C 401.576,183.236 401.656,183.33 401.756,183.403 C 401.856,183.475 401.973,183.529 402.109,183.564 C 402.244,183.599 402.383,183.617 402.528,183.617 C 402.626,183.617 402.73,183.608 402.842,183.593 C 402.953,183.576 403.058,183.544 403.156,183.497 C 403.253,183.452 403.334,183.388 403.4,183.306 C 403.464,183.224 403.498,183.119 403.498,182.994 C 403.498,182.859 403.455,182.75 403.368,182.666 C 403.282,182.581 403.169,182.512 403.029,182.455 C 402.889,182.399 402.73,182.351 402.554,182.309 C 402.376,182.266 402.197,182.219 402.015,182.168 C 401.828,182.121 401.647,182.064 401.47,181.996 C 401.293,181.93 401.134,181.842 400.994,181.734 C 400.854,181.626 400.741,181.492 400.655,181.332 C 400.569,181.17 400.526,180.976 400.526,180.747 C 400.526,180.49 400.581,180.268 400.69,180.079 C 400.799,179.89 400.943,179.732 401.12,179.605 C 401.298,179.48 401.498,179.386 401.722,179.326 C 401.946,179.264 402.17,179.235 402.394,179.235 C 402.655,179.235 402.906,179.264 403.146,179.323 C 403.385,179.381 403.599,179.475 403.785,179.605 C 403.973,179.738 404.12,179.904 404.23,180.107 C 404.339,180.31 404.394,180.556 404.394,180.846 L 403.328,180.846 C 403.318,180.697 403.287,180.572 403.234,180.476 C 403.18,180.377 403.109,180.3 403.021,180.244 C 402.933,180.189 402.832,180.148 402.718,180.126 C 402.605,180.103 402.48,180.091 402.345,180.091 C 402.257,180.091 402.168,180.1 402.08,180.119 C 401.991,180.138 401.912,180.17 401.84,180.217 C 401.768,180.264 401.709,180.321 401.662,180.391 C 401.616,180.461 401.593,180.551 401.593,180.659 C 401.593,180.757 401.611,180.836 401.649,180.895 C 401.686,180.957 401.759,181.012 401.869,181.064 C 401.979,181.116 402.131,181.167 402.324,181.217 C 402.517,181.269 402.77,181.334 403.082,181.414 C 403.176,181.433 403.305,181.467 403.47,181.516 C 403.636,181.565 403.801,181.643 403.963,181.75 C 404.126,181.857 404.267,182.001 404.387,182.182 C 404.505,182.36 404.565,182.59 404.565,182.871 C 404.565,183.1 404.52,183.312 404.431,183.508 C 404.342,183.705 404.211,183.873 404.035,184.016 C 403.86,184.159 403.643,184.269 403.385,184.348 C 403.126,184.428 402.826,184.468 402.485,184.468 C 402.21,184.468 401.944,184.433 401.684,184.365 C 401.424,184.297 401.196,184.191 400.998,184.046 C 400.8,183.9 400.643,183.717 400.525,183.492 C 400.407,183.267 400.351,183.002 400.357,182.693 L 401.423,182.693 C 401.424,182.86 401.454,183.002 401.515,183.119 z " />
        <path
           style="fill:#ffffff"
           d="M 407.708,179.357 L 409.577,184.355 L 408.436,184.355 L 408.057,183.242 L 406.188,183.242 L 405.795,184.355 L 404.69,184.355 L 406.581,179.357 L 407.708,179.357 z M 407.77,182.421 L 407.141,180.588 L 407.125,180.588 L 406.475,182.421 L 407.77,182.421 z "
           id="path454" />
      </g>
      <g
         id="g150_2_"
         style="enable-background:new">
        <polygon
           id="path152_2_"
           style="fill:#ffffff"
           points="381.952,179.357 384.04,182.709 384.051,182.709 384.051,179.357 385.083,179.357 385.083,184.355 383.983,184.355 381.903,181.008 381.889,181.008 381.889,184.355 380.858,184.355 380.858,179.357 381.952,179.357 " />
        <path
           id="path154_2_"
           style="fill:#ffffff"
           d="M 389.254,180.688 C 389.19,180.583 389.108,180.491 389.009,180.412 C 388.911,180.333 388.801,180.27 388.677,180.225 C 388.553,180.182 388.423,180.16 388.288,180.16 C 388.041,180.16 387.83,180.207 387.658,180.304 C 387.484,180.4 387.345,180.527 387.238,180.688 C 387.131,180.849 387.051,181.033 387.003,181.238 C 386.955,181.443 386.93,181.655 386.93,181.875 C 386.93,182.084 386.954,182.289 387.003,182.487 C 387.052,182.685 387.131,182.863 387.238,183.021 C 387.344,183.181 387.484,183.307 387.658,183.404 C 387.83,183.5 388.041,183.548 388.288,183.548 C 388.624,183.548 388.887,183.445 389.076,183.238 C 389.264,183.033 389.381,182.762 389.422,182.427 L 390.486,182.427 C 390.459,182.739 390.385,183.021 390.269,183.273 C 390.153,183.527 389.998,183.741 389.807,183.919 C 389.616,184.097 389.392,184.232 389.134,184.326 C 388.878,184.42 388.595,184.467 388.287,184.467 C 387.904,184.467 387.559,184.4 387.254,184.267 C 386.949,184.134 386.691,183.951 386.48,183.717 C 386.27,183.484 386.108,183.208 385.996,182.894 C 385.885,182.58 385.828,182.24 385.828,181.874 C 385.828,181.501 385.885,181.155 385.996,180.834 C 386.108,180.515 386.27,180.235 386.48,179.997 C 386.691,179.759 386.949,179.573 387.254,179.436 C 387.56,179.301 387.904,179.234 388.287,179.234 C 388.562,179.234 388.823,179.274 389.067,179.352 C 389.312,179.432 389.532,179.547 389.725,179.7 C 389.919,179.852 390.079,180.04 390.205,180.264 C 390.33,180.488 390.41,180.745 390.442,181.034 L 389.379,181.034 C 389.362,180.909 389.32,180.792 389.254,180.688 z " />
      </g>
      <g
         id="g6332_3_">
        <path
           id="path6334_3_"
           style="fill:#ffffff"
           d="M 413.695,165.947 C 413.699,170.358 410.125,173.938 405.713,173.942 C 401.301,173.944 397.722,170.371 397.719,165.958 C 397.719,165.955 397.719,165.95 397.719,165.947 C 397.716,161.535 401.29,157.956 405.701,157.952 C 410.113,157.949 413.692,161.523 413.695,165.934 C 413.695,165.939 413.695,165.942 413.695,165.947 z " />
        <g
           id="g6336_3_">
          <path
             d="M 405.649,157.195 C 403.225,157.195 401.172,158.042 399.495,159.733 C 397.771,161.483 396.909,163.555 396.909,165.947 C 396.909,168.339 397.771,170.395 399.495,172.116 C 401.218,173.838 403.269,174.699 405.649,174.699 C 408.059,174.699 410.147,173.831 411.915,172.095 C 413.58,170.446 414.413,168.397 414.413,165.947 C 414.413,163.497 413.565,161.425 411.871,159.733 C 410.177,158.041 408.103,157.195 405.649,157.195 z M 405.671,158.77 C 407.657,158.77 409.344,159.47 410.732,160.872 C 412.133,162.257 412.835,163.948 412.835,165.947 C 412.835,167.96 412.148,169.63 410.775,170.958 C 409.33,172.387 407.628,173.101 405.671,173.101 C 403.714,173.101 402.027,172.394 400.61,170.98 C 399.194,169.565 398.486,167.888 398.486,165.948 C 398.486,164.008 399.201,162.316 400.632,160.873 C 402.005,159.47 403.685,158.77 405.671,158.77 z "
             id="path462" />
          <path
             id="path6340_3_"
             d="M 401.77,164.711 C 402.12,162.509 403.668,161.332 405.612,161.332 C 408.406,161.332 410.108,163.359 410.108,166.062 C 410.108,168.701 408.296,170.75 405.568,170.75 C 403.691,170.75 402.01,169.595 401.705,167.327 L 403.909,167.327 C 403.975,168.504 404.739,168.919 405.831,168.919 C 407.074,168.919 407.882,167.764 407.882,165.998 C 407.882,164.144 407.185,163.163 405.874,163.163 C 404.914,163.163 404.085,163.512 403.909,164.711 L 404.551,164.707 L 402.816,166.443 L 401.081,164.707 L 401.77,164.711 z " />
        </g>
      </g>
      <g
         id="g6361_3_">
        <path
           id="path6363_3_"
           style="fill:#ffffff"
           d="M 394.111,165.947 C 394.115,170.444 390.471,174.091 385.976,174.094 C 381.479,174.096 377.831,170.454 377.829,165.958 C 377.829,165.954 377.829,165.949 377.829,165.946 C 377.825,161.449 381.468,157.802 385.964,157.799 C 390.46,157.796 394.109,161.439 394.111,165.935 C 394.111,165.938 394.111,165.943 394.111,165.947 z " />
        <path
           d="M 385.958,157.195 C 388.411,157.195 390.484,158.042 392.179,159.733 C 393.874,161.424 394.721,163.497 394.721,165.947 C 394.721,168.397 393.888,170.446 392.224,172.095 C 390.455,173.83 388.368,174.699 385.958,174.699 C 383.577,174.699 381.525,173.838 379.803,172.116 C 378.079,170.396 377.217,168.339 377.217,165.947 C 377.217,163.555 378.079,161.483 379.803,159.733 C 381.483,158.042 383.534,157.195 385.958,157.195 z M 379.187,163.596 C 378.925,164.334 378.795,165.117 378.795,165.947 C 378.795,167.887 379.503,169.564 380.92,170.979 C 382.336,172.393 384.023,173.1 385.98,173.1 C 387.937,173.1 389.639,172.386 391.084,170.956 C 391.567,170.488 391.967,169.978 392.279,169.426 L 388.98,167.956 C 388.756,169.066 387.767,169.816 386.571,169.904 L 386.571,171.254 L 385.566,171.254 L 385.566,169.904 C 384.585,169.892 383.635,169.491 382.91,168.855 L 384.115,167.64 C 384.696,168.187 385.276,168.432 386.069,168.432 C 386.583,168.432 387.152,168.231 387.152,167.562 C 387.152,167.326 387.06,167.16 386.916,167.037 L 386.082,166.665 L 385.042,166.203 C 384.528,165.974 384.093,165.78 383.656,165.586 L 379.187,163.596 z M 385.98,158.77 C 383.994,158.77 382.315,159.47 380.942,160.872 C 380.569,161.248 380.243,161.643 379.967,162.054 L 383.313,163.543 C 383.616,162.615 384.497,162.052 385.567,161.989 L 385.567,160.639 L 386.572,160.639 L 386.572,161.989 C 387.264,162.022 388.023,162.212 388.772,162.792 L 387.622,163.974 C 387.197,163.673 386.662,163.461 386.126,163.461 C 385.69,163.461 385.077,163.595 385.077,164.14 C 385.077,164.224 385.104,164.298 385.155,164.363 L 386.274,164.861 L 387.032,165.199 C 387.516,165.416 387.978,165.621 388.437,165.825 L 392.921,167.822 C 393.068,167.234 393.143,166.609 393.143,165.948 C 393.143,163.949 392.442,162.258 391.041,160.873 C 389.653,159.47 387.966,158.77 385.98,158.77 z "
           id="path467" />
      </g>
    </g>
    <g
       id="g469"
       transform="translate(107.6263,639.19218)">
      <path
         d="M 351.619,54.341 L 351.728,56.756 L 351.439,56.756 C 351.383,56.33 351.307,56.025 351.21,55.842 C 351.053,55.548 350.844,55.331 350.583,55.191 C 350.322,55.051 349.979,54.982 349.554,54.982 L 348.103,54.982 L 348.103,62.873 C 348.103,63.511 348.171,63.909 348.308,64.067 C 348.501,64.281 348.798,64.388 349.199,64.388 L 349.556,64.388 L 349.556,64.669 L 345.15,64.669 L 345.15,64.388 L 345.521,64.388 C 345.964,64.388 346.279,64.255 346.464,63.99 C 346.577,63.826 346.634,63.454 346.634,62.872 L 346.634,54.981 L 345.39,54.981 C 344.907,54.981 344.564,55.017 344.361,55.087 C 344.096,55.184 343.87,55.369 343.681,55.643 C 343.493,55.917 343.381,56.288 343.345,56.755 L 343.056,56.755 L 343.165,54.34 L 351.619,54.34 L 351.619,54.341 z "
         id="path471" />
      <path
         d="M 354.648,53.841 L 354.648,58.937 C 355.211,58.318 355.658,57.92 355.988,57.745 C 356.317,57.57 356.647,57.482 356.977,57.482 C 357.373,57.482 357.712,57.591 357.997,57.81 C 358.281,58.028 358.492,58.372 358.629,58.838 C 358.726,59.163 358.774,59.758 358.774,60.622 L 358.774,63.091 C 358.774,63.531 358.809,63.832 358.88,63.993 C 358.93,64.115 359.016,64.211 359.138,64.281 C 359.259,64.352 359.482,64.387 359.805,64.387 L 359.805,64.668 L 356.383,64.668 L 356.383,64.387 L 356.543,64.387 C 356.867,64.387 357.092,64.338 357.219,64.239 C 357.346,64.14 357.435,63.995 357.486,63.803 C 357.501,63.722 357.508,63.485 357.508,63.09 L 357.508,60.62 C 357.508,59.858 357.469,59.357 357.39,59.119 C 357.312,58.88 357.186,58.701 357.014,58.581 C 356.841,58.461 356.633,58.402 356.39,58.402 C 356.142,58.402 355.883,58.468 355.615,58.6 C 355.346,58.732 355.024,58.999 354.649,59.4 L 354.649,63.089 C 354.649,63.565 354.675,63.86 354.729,63.977 C 354.782,64.093 354.88,64.19 355.025,64.269 C 355.17,64.347 355.42,64.386 355.774,64.386 L 355.774,64.667 L 352.321,64.667 L 352.321,64.386 C 352.63,64.386 352.873,64.338 353.05,64.242 C 353.152,64.192 353.233,64.096 353.293,63.954 C 353.353,63.812 353.384,63.524 353.384,63.089 L 353.384,56.777 C 353.384,55.983 353.365,55.496 353.327,55.313 C 353.289,55.131 353.23,55.007 353.151,54.941 C 353.073,54.875 352.967,54.842 352.836,54.842 C 352.73,54.842 352.557,54.883 352.318,54.964 L 352.212,54.683 L 354.299,53.839 L 354.648,53.839 L 354.648,53.841 z "
         id="path473" />
      <path
         d="M 362.807,57.482 L 362.807,63.091 C 362.807,63.526 362.839,63.816 362.903,63.959 C 362.966,64.104 363.061,64.211 363.186,64.281 C 363.31,64.352 363.539,64.387 363.87,64.387 L 363.87,64.668 L 360.479,64.668 L 360.479,64.387 C 360.818,64.387 361.045,64.354 361.163,64.288 C 361.279,64.223 361.371,64.114 361.439,63.962 C 361.507,63.811 361.542,63.52 361.542,63.09 L 361.542,60.387 C 361.542,59.634 361.52,59.147 361.474,58.924 C 361.438,58.762 361.382,58.65 361.306,58.586 C 361.23,58.523 361.126,58.491 360.994,58.491 C 360.852,58.491 360.68,58.529 360.476,58.605 L 360.37,58.324 L 362.473,57.48 L 362.807,57.48 L 362.807,57.482 z M 362.178,53.841 C 362.392,53.841 362.573,53.916 362.723,54.066 C 362.872,54.216 362.948,54.398 362.948,54.611 C 362.948,54.824 362.873,55.007 362.723,55.16 C 362.573,55.312 362.392,55.389 362.178,55.389 C 361.965,55.389 361.782,55.313 361.629,55.16 C 361.476,55.007 361.4,54.825 361.4,54.611 C 361.4,54.397 361.475,54.216 361.625,54.066 C 361.776,53.917 361.959,53.841 362.178,53.841 z "
         id="path475" />
      <path
         d="M 369.25,57.482 L 369.25,59.857 L 369,59.857 C 368.808,59.113 368.561,58.606 368.259,58.337 C 367.957,58.069 367.573,57.935 367.108,57.935 C 366.754,57.935 366.467,58.029 366.25,58.216 C 366.033,58.403 365.923,58.612 365.923,58.839 C 365.923,59.123 366.003,59.366 366.164,59.569 C 366.319,59.777 366.639,59.997 367.121,60.231 L 368.234,60.771 C 369.266,61.273 369.782,61.936 369.782,62.757 C 369.782,63.391 369.542,63.903 369.061,64.291 C 368.581,64.679 368.042,64.873 367.448,64.873 C 367.021,64.873 366.533,64.799 365.984,64.65 C 365.816,64.601 365.679,64.576 365.572,64.576 C 365.455,64.576 365.364,64.638 365.298,64.764 L 365.048,64.764 L 365.048,62.28 L 365.298,62.28 C 365.441,62.988 365.713,63.522 366.115,63.882 C 366.516,64.241 366.968,64.421 367.466,64.421 C 367.818,64.421 368.104,64.318 368.325,64.113 C 368.546,63.908 368.657,63.661 368.657,63.372 C 368.657,63.023 368.533,62.729 368.285,62.491 C 368.037,62.253 367.545,61.952 366.806,61.59 C 366.068,61.227 365.585,60.898 365.358,60.603 C 365.13,60.313 365.016,59.948 365.016,59.505 C 365.016,58.93 365.213,58.449 365.607,58.063 C 366.001,57.677 366.509,57.483 367.134,57.483 C 367.408,57.483 367.74,57.543 368.132,57.663 C 368.391,57.741 368.564,57.78 368.65,57.78 C 368.731,57.78 368.795,57.762 368.84,57.725 C 368.886,57.689 368.94,57.608 369,57.483 L 369.25,57.483 L 369.25,57.482 z "
         id="path477" />
      <path
         d="M 377.113,57.482 L 377.113,63.091 C 377.113,63.526 377.144,63.816 377.208,63.959 C 377.272,64.104 377.366,64.211 377.491,64.281 C 377.616,64.352 377.844,64.387 378.176,64.387 L 378.176,64.668 L 374.785,64.668 L 374.785,64.387 C 375.124,64.387 375.351,64.354 375.468,64.288 C 375.584,64.223 375.677,64.114 375.745,63.962 C 375.813,63.811 375.848,63.52 375.848,63.09 L 375.848,60.387 C 375.848,59.634 375.825,59.147 375.779,58.924 C 375.744,58.762 375.688,58.65 375.612,58.586 C 375.536,58.523 375.432,58.491 375.3,58.491 C 375.157,58.491 374.985,58.529 374.782,58.605 L 374.676,58.324 L 376.778,57.48 L 377.113,57.48 L 377.113,57.482 z M 376.484,53.841 C 376.697,53.841 376.879,53.916 377.028,54.066 C 377.178,54.216 377.254,54.398 377.254,54.611 C 377.254,54.824 377.179,55.007 377.028,55.16 C 376.879,55.312 376.697,55.389 376.484,55.389 C 376.27,55.389 376.088,55.313 375.935,55.16 C 375.782,55.007 375.706,54.825 375.706,54.611 C 375.706,54.397 375.78,54.216 375.931,54.066 C 376.081,53.917 376.265,53.841 376.484,53.841 z "
         id="path479" />
      <path
         d="M 383.556,57.482 L 383.556,59.857 L 383.306,59.857 C 383.113,59.113 382.866,58.606 382.565,58.337 C 382.263,58.069 381.879,57.935 381.414,57.935 C 381.059,57.935 380.772,58.029 380.555,58.216 C 380.338,58.403 380.229,58.612 380.229,58.839 C 380.229,59.123 380.309,59.366 380.469,59.569 C 380.624,59.777 380.944,59.997 381.427,60.231 L 382.54,60.771 C 383.571,61.273 384.088,61.936 384.088,62.757 C 384.088,63.391 383.848,63.903 383.367,64.291 C 382.887,64.679 382.348,64.873 381.754,64.873 C 381.326,64.873 380.839,64.799 380.289,64.65 C 380.122,64.601 379.984,64.576 379.878,64.576 C 379.761,64.576 379.669,64.638 379.604,64.764 L 379.354,64.764 L 379.354,62.28 L 379.604,62.28 C 379.747,62.988 380.018,63.522 380.42,63.882 C 380.822,64.242 381.273,64.421 381.772,64.421 C 382.123,64.421 382.41,64.318 382.63,64.113 C 382.852,63.908 382.963,63.661 382.963,63.372 C 382.963,63.023 382.839,62.729 382.591,62.491 C 382.343,62.253 381.85,61.952 381.112,61.59 C 380.375,61.227 379.891,60.898 379.664,60.603 C 379.436,60.313 379.323,59.948 379.323,59.505 C 379.323,58.93 379.519,58.449 379.913,58.063 C 380.307,57.677 380.816,57.483 381.44,57.483 C 381.714,57.483 382.047,57.543 382.438,57.663 C 382.697,57.741 382.87,57.78 382.957,57.78 C 383.038,57.78 383.102,57.762 383.147,57.725 C 383.193,57.689 383.246,57.608 383.307,57.483 L 383.556,57.483 L 383.556,57.482 z "
         id="path481" />
      <path
         d="M 388.625,57.685 L 391.549,57.685 L 391.549,57.966 C 391.28,57.987 391.104,58.035 391.02,58.111 C 390.936,58.187 390.894,58.297 390.894,58.439 C 390.894,58.597 390.937,58.787 391.024,59.011 L 392.519,63.022 L 394.033,59.743 L 393.637,58.729 C 393.515,58.424 393.355,58.213 393.157,58.097 C 393.046,58.026 392.838,57.983 392.533,57.967 L 392.533,57.686 L 395.837,57.686 L 395.837,57.967 C 395.481,57.983 395.228,58.05 395.079,58.169 C 394.98,58.252 394.931,58.384 394.931,58.565 C 394.931,58.663 394.952,58.763 394.992,58.866 L 396.576,62.849 L 398.045,59.011 C 398.149,58.737 398.201,58.518 398.201,58.356 C 398.201,58.259 398.15,58.173 398.051,58.097 C 397.952,58.021 397.757,57.978 397.466,57.968 L 397.466,57.687 L 399.658,57.687 L 399.658,57.968 C 399.217,58.034 398.891,58.333 398.683,58.866 L 396.352,64.874 L 396.044,64.874 L 394.294,60.408 L 392.232,64.874 L 391.965,64.874 L 389.731,59.011 C 389.584,58.64 389.438,58.39 389.296,58.261 C 389.154,58.132 388.931,58.034 388.626,57.968 L 388.626,57.685 L 388.625,57.685 z "
         id="path483" />
      <path
         d="M 403.699,57.482 C 404.756,57.482 405.603,57.883 406.243,58.685 C 406.787,59.37 407.058,60.157 407.058,61.044 C 407.058,61.669 406.908,62.3 406.609,62.939 C 406.309,63.579 405.896,64.061 405.371,64.385 C 404.846,64.71 404.26,64.872 403.615,64.872 C 402.564,64.872 401.728,64.454 401.109,63.616 C 400.586,62.911 400.324,62.119 400.324,61.241 C 400.324,60.602 400.482,59.967 400.801,59.335 C 401.117,58.703 401.535,58.236 402.054,57.935 C 402.571,57.633 403.12,57.482 403.699,57.482 z M 403.462,57.982 C 403.194,57.982 402.924,58.062 402.653,58.221 C 402.382,58.381 402.163,58.66 401.996,59.061 C 401.829,59.461 401.745,59.975 401.745,60.603 C 401.745,61.616 401.946,62.49 402.349,63.224 C 402.752,63.958 403.283,64.326 403.942,64.326 C 404.433,64.326 404.838,64.124 405.158,63.719 C 405.476,63.314 405.637,62.617 405.637,61.629 C 405.637,60.394 405.371,59.421 404.839,58.712 C 404.478,58.225 404.02,57.982 403.462,57.982 z "
         id="path485" />
      <path
         d="M 410.124,57.482 L 410.124,59.044 C 410.705,58.002 411.301,57.482 411.912,57.482 C 412.189,57.482 412.42,57.567 412.601,57.736 C 412.783,57.906 412.873,58.101 412.873,58.324 C 412.873,58.521 412.808,58.688 412.677,58.824 C 412.546,58.96 412.39,59.029 412.209,59.029 C 412.032,59.029 411.835,58.943 411.614,58.771 C 411.393,58.599 411.231,58.513 411.125,58.513 C 411.034,58.513 410.935,58.564 410.829,58.664 C 410.6,58.871 410.366,59.211 410.123,59.685 L 410.123,63.044 C 410.123,63.428 410.171,63.718 410.268,63.915 C 410.334,64.051 410.451,64.164 410.619,64.254 C 410.787,64.343 411.027,64.388 411.343,64.388 L 411.343,64.669 L 407.765,64.669 L 407.765,64.388 C 408.119,64.388 408.383,64.332 408.555,64.22 C 408.682,64.139 408.77,64.009 408.821,63.831 C 408.846,63.744 408.859,63.498 408.859,63.091 L 408.859,60.388 C 408.859,59.576 408.842,59.093 408.809,58.938 C 408.776,58.783 408.715,58.67 408.626,58.599 C 408.537,58.528 408.428,58.493 408.295,58.493 C 408.138,58.493 407.961,58.531 407.763,58.607 L 407.687,58.326 L 409.803,57.482 L 410.124,57.482 L 410.124,57.482 z "
         id="path487" />
      <path
         d="M 415.303,55.388 L 415.303,57.685 L 416.933,57.685 L 416.933,58.201 L 415.303,58.217 L 415.303,62.739 C 415.303,63.191 415.367,63.495 415.497,63.653 C 415.626,63.81 415.793,63.889 415.996,63.889 C 416.163,63.889 416.326,63.838 416.483,63.735 C 416.641,63.632 416.762,63.481 416.849,63.28 L 417.146,63.28 C 416.967,63.778 416.715,64.152 416.389,64.403 C 416.063,64.654 415.727,64.78 415.381,64.78 C 415.147,64.78 414.917,64.715 414.693,64.585 C 414.468,64.455 414.303,64.269 414.196,64.027 C 414.09,63.785 414.036,63.412 414.036,62.907 L 414.036,58.201 L 412.927,58.201 L 412.927,57.958 C 413.207,57.847 413.494,57.66 413.788,57.396 C 414.082,57.131 414.344,56.816 414.575,56.45 C 414.693,56.257 414.857,55.903 415.067,55.389 L 415.303,55.389 L 415.303,55.388 z "
         id="path489" />
      <path
         d="M 419.653,53.841 L 419.653,58.937 C 420.216,58.318 420.663,57.92 420.992,57.745 C 421.322,57.57 421.652,57.482 421.982,57.482 C 422.378,57.482 422.717,57.591 423.002,57.81 C 423.286,58.028 423.496,58.372 423.634,58.838 C 423.731,59.163 423.779,59.758 423.779,60.622 L 423.779,63.091 C 423.779,63.531 423.814,63.832 423.885,63.993 C 423.935,64.115 424.021,64.211 424.143,64.281 C 424.264,64.352 424.487,64.387 424.81,64.387 L 424.81,64.668 L 421.388,64.668 L 421.388,64.387 L 421.547,64.387 C 421.871,64.387 422.097,64.338 422.224,64.239 C 422.351,64.14 422.44,63.995 422.491,63.803 C 422.506,63.722 422.513,63.485 422.513,63.09 L 422.513,60.62 C 422.513,59.858 422.474,59.357 422.395,59.119 C 422.317,58.88 422.191,58.701 422.019,58.581 C 421.846,58.461 421.638,58.402 421.395,58.402 C 421.147,58.402 420.888,58.468 420.62,58.6 C 420.351,58.732 420.029,58.999 419.654,59.4 L 419.654,63.089 C 419.654,63.565 419.68,63.86 419.734,63.977 C 419.787,64.093 419.885,64.19 420.03,64.269 C 420.175,64.347 420.425,64.386 420.779,64.386 L 420.779,64.667 L 417.326,64.667 L 417.326,64.386 C 417.635,64.386 417.878,64.338 418.055,64.242 C 418.156,64.192 418.238,64.096 418.298,63.954 C 418.358,63.812 418.389,63.524 418.389,63.089 L 418.389,56.777 C 418.389,55.983 418.37,55.496 418.331,55.313 C 418.294,55.131 418.235,55.007 418.156,54.941 C 418.078,54.875 417.972,54.842 417.841,54.842 C 417.735,54.842 417.562,54.883 417.323,54.964 L 417.217,54.683 L 419.304,53.839 L 419.653,53.839 L 419.653,53.841 z "
         id="path491" />
      <path
         d="M 427.812,53.841 L 427.812,63.091 C 427.812,63.526 427.843,63.814 427.907,63.956 C 427.971,64.098 428.068,64.205 428.2,64.278 C 428.332,64.351 428.578,64.388 428.937,64.388 L 428.937,64.669 L 425.515,64.669 L 425.515,64.388 C 425.835,64.388 426.054,64.355 426.171,64.289 C 426.288,64.224 426.38,64.115 426.446,63.963 C 426.512,63.812 426.546,63.521 426.546,63.091 L 426.546,56.747 C 426.546,55.967 426.528,55.488 426.493,55.309 C 426.457,55.13 426.4,55.008 426.321,54.942 C 426.243,54.877 426.142,54.843 426.02,54.843 C 425.889,54.843 425.721,54.884 425.518,54.965 L 425.389,54.684 L 427.468,53.84 L 427.812,53.84 L 427.812,53.841 z "
         id="path493" />
      <path
         d="M 430.912,60.326 C 430.907,61.359 431.158,62.17 431.668,62.757 C 432.176,63.344 432.773,63.638 433.461,63.638 C 433.918,63.638 434.316,63.513 434.654,63.264 C 434.993,63.015 435.277,62.582 435.506,61.966 L 435.74,62.118 C 435.633,62.818 435.323,63.452 434.81,64.02 C 434.296,64.587 433.654,64.872 432.882,64.872 C 432.043,64.872 431.325,64.546 430.729,63.895 C 430.133,63.244 429.833,62.368 429.833,61.268 C 429.833,60.077 430.139,59.148 430.751,58.481 C 431.363,57.814 432.132,57.481 433.057,57.481 C 433.839,57.481 434.482,57.739 434.985,58.255 C 435.488,58.771 435.74,59.461 435.74,60.325 L 430.912,60.325 L 430.912,60.326 z M 430.912,59.888 L 434.162,59.888 C 434.137,59.441 434.083,59.126 434.001,58.943 C 433.873,58.658 433.684,58.435 433.43,58.273 C 433.178,58.11 432.912,58.029 432.637,58.029 C 432.213,58.029 431.833,58.193 431.498,58.52 C 431.164,58.848 430.968,59.304 430.912,59.888 z "
         id="path495" />
      <path
         d="M 441.179,57.482 L 441.179,59.857 L 440.929,59.857 C 440.737,59.113 440.49,58.606 440.188,58.337 C 439.886,58.069 439.502,57.935 439.037,57.935 C 438.683,57.935 438.396,58.029 438.178,58.216 C 437.961,58.404 437.852,58.612 437.852,58.839 C 437.852,59.123 437.932,59.366 438.092,59.569 C 438.248,59.777 438.567,59.997 439.05,60.231 L 440.163,60.771 C 441.195,61.273 441.711,61.936 441.711,62.757 C 441.711,63.391 441.471,63.903 440.99,64.291 C 440.51,64.679 439.971,64.873 439.377,64.873 C 438.95,64.873 438.462,64.799 437.913,64.65 C 437.745,64.601 437.607,64.576 437.501,64.576 C 437.384,64.576 437.293,64.638 437.227,64.764 L 436.977,64.764 L 436.977,62.28 L 437.227,62.28 C 437.37,62.988 437.642,63.522 438.043,63.882 C 438.445,64.241 438.897,64.421 439.395,64.421 C 439.747,64.421 440.033,64.318 440.254,64.113 C 440.475,63.908 440.586,63.661 440.586,63.372 C 440.586,63.023 440.462,62.729 440.214,62.491 C 439.966,62.253 439.473,61.952 438.735,61.59 C 437.997,61.227 437.514,60.898 437.287,60.603 C 437.058,60.313 436.945,59.948 436.945,59.505 C 436.945,58.93 437.142,58.449 437.535,58.063 C 437.93,57.677 438.438,57.483 439.063,57.483 C 439.337,57.483 439.669,57.543 440.061,57.663 C 440.32,57.741 440.493,57.78 440.579,57.78 C 440.66,57.78 440.724,57.762 440.769,57.725 C 440.815,57.689 440.869,57.608 440.929,57.483 L 441.179,57.483 L 441.179,57.482 z "
         id="path497" />
      <path
         d="M 447.25,57.482 L 447.25,59.857 L 447,59.857 C 446.808,59.113 446.561,58.606 446.259,58.337 C 445.957,58.069 445.573,57.935 445.108,57.935 C 444.754,57.935 444.466,58.029 444.25,58.216 C 444.031,58.404 443.923,58.612 443.923,58.839 C 443.923,59.123 444.003,59.366 444.164,59.569 C 444.318,59.777 444.639,59.997 445.121,60.231 L 446.234,60.771 C 447.265,61.273 447.782,61.936 447.782,62.757 C 447.782,63.391 447.542,63.903 447.061,64.291 C 446.581,64.679 446.042,64.873 445.448,64.873 C 445.021,64.873 444.533,64.799 443.984,64.65 C 443.816,64.601 443.679,64.576 443.572,64.576 C 443.455,64.576 443.363,64.638 443.298,64.764 L 443.048,64.764 L 443.048,62.28 L 443.298,62.28 C 443.441,62.988 443.713,63.522 444.115,63.882 C 444.516,64.241 444.967,64.421 445.466,64.421 C 445.818,64.421 446.104,64.318 446.325,64.113 C 446.546,63.908 446.657,63.661 446.657,63.372 C 446.657,63.023 446.533,62.729 446.285,62.491 C 446.037,62.253 445.545,61.952 444.806,61.59 C 444.068,61.227 443.585,60.898 443.358,60.603 C 443.13,60.313 443.016,59.948 443.016,59.505 C 443.016,58.93 443.212,58.449 443.607,58.063 C 444,57.677 444.509,57.483 445.134,57.483 C 445.407,57.483 445.74,57.543 446.132,57.663 C 446.391,57.741 446.564,57.78 446.65,57.78 C 446.731,57.78 446.795,57.762 446.84,57.725 C 446.886,57.689 446.939,57.608 447,57.483 L 447.25,57.483 L 447.25,57.482 z "
         id="path499" />
      <path
         d="M 450.275,63.185 C 450.513,63.185 450.713,63.268 450.876,63.432 C 451.038,63.597 451.119,63.796 451.119,64.029 C 451.119,64.262 451.037,64.461 450.872,64.626 C 450.707,64.791 450.508,64.873 450.275,64.873 C 450.042,64.873 449.843,64.79 449.678,64.626 C 449.513,64.462 449.431,64.263 449.431,64.029 C 449.431,63.791 449.513,63.591 449.678,63.428 C 449.843,63.265 450.042,63.185 450.275,63.185 z "
         id="path501" />
    </g>
  </g>
</svg>
