<?xml version="1.0" encoding="UTF-8" standalone="no"?>
<!-- Created with Inkscape (http://www.inkscape.org/) -->
<svg
   xmlns:dc="http://purl.org/dc/elements/1.1/"
   xmlns:cc="http://web.resource.org/cc/"
   xmlns:rdf="http://www.w3.org/1999/02/22-rdf-syntax-ns#"
   xmlns:svg="http://www.w3.org/2000/svg"
   xmlns="http://www.w3.org/2000/svg"
   xmlns:sodipodi="http://sodipodi.sourceforge.net/DTD/sodipodi-0.dtd"
   xmlns:inkscape="http://www.inkscape.org/namespaces/inkscape"
   width="142.73199"
   height="163.41475"
   id="svg2984"
   sodipodi:version="0.32"
   inkscape:version="0.45.1"
   version="1.0"
   sodipodi:docbase="/Users/robmyers/Desktop/cc-ironies/final"
   sodipodi:docname="no_flash_photography_sign.svg"
   inkscape:output_extension="org.inkscape.output.svg.inkscape">
  <defs
     id="defs2986" />
  <sodipodi:namedview
     id="base"
     pagecolor="#ffffff"
     bordercolor="#666666"
     borderopacity="1.0"
     gridtolerance="10000"
     guidetolerance="10"
     objecttolerance="10"
     inkscape:pageopacity="0.0"
     inkscape:pageshadow="2"
     inkscape:zoom="2.3131327"
     inkscape:cx="71.365997"
     inkscape:cy="81.707375"
     inkscape:document-units="px"
     inkscape:current-layer="layer1"
     inkscape:window-width="697"
     inkscape:window-height="581"
     inkscape:window-x="20"
     inkscape:window-y="42" />
  <metadata
     id="metadata2989">
    <rdf:RDF>
      <cc:Work
         rdf:about="">
        <dc:format>image/svg+xml</dc:format>
        <dc:type
           rdf:resource="http://purl.org/dc/dcmitype/StillImage" />
      </cc:Work>
    </rdf:RDF>
  </metadata>
  <g
     inkscape:label="Layer 1"
     inkscape:groupmode="layer"
     id="layer1"
     transform="translate(-720.06256,-182.04933)">
    <rect
       x="720.56256"
       y="182.54933"
       style="fill:#ffffff;stroke:#000000"
       width="141.73199"
       height="141.73199"
       id="rect311" />
    <g
       id="g313"
       transform="matrix(0.5,0,0,0.5,474.77058,252.29408)">
      <path
         id="path3817_3_"
         style="fill:#aab2ab"
         d="M 493.156,154.98 L 578.705,155.13 C 579.9,155.13 580.969,154.952 580.969,157.517 L 580.865,185.693 L 491,185.693 L 491,157.415 C 490.998,156.15 491.121,154.98 493.156,154.98 z " />
      <path
         d="M 579.453,154.639 L 492.28,154.639 C 491.343,154.639 490.584,155.401 490.584,156.335 L 490.584,185.957 C 490.584,186.168 490.756,186.34 490.969,186.34 L 580.766,186.34 C 580.977,186.34 581.153,186.168 581.153,185.957 L 581.153,156.335 C 581.148,155.4 580.386,154.639 579.453,154.639 z M 492.28,155.406 L 579.453,155.406 C 579.965,155.406 580.383,155.823 580.383,156.336 C 580.383,156.336 580.383,168.259 580.383,176.882 L 518.076,176.882 C 515.793,181.011 511.392,183.817 506.344,183.817 C 501.293,183.817 496.897,181.014 494.615,176.882 L 491.354,176.882 C 491.354,168.259 491.354,156.336 491.354,156.336 C 491.35,155.823 491.767,155.406 492.28,155.406 z "
         id="path316" />
      <g
         id="g5908_3_">
        <path
           id="path5906_3_"
           style="fill:#ffffff"
           d="M 516.637,169.396 C 516.641,175.08 512.036,179.689 506.354,179.691 C 500.669,179.697 496.061,175.088 496.057,169.409 C 496.057,169.404 496.057,169.4 496.057,169.396 C 496.053,163.71 500.66,159.103 506.341,159.099 C 512.025,159.095 516.634,163.702 516.637,169.38 C 516.637,169.389 516.637,169.393 516.637,169.396 z " />
        <g
           id="g5706_3_">
          <path
             d="M 514.712,161.016 C 516.993,163.297 518.134,166.09 518.134,169.397 C 518.134,172.705 517.014,175.466 514.771,177.69 C 512.391,180.034 509.58,181.205 506.333,181.205 C 503.126,181.205 500.359,180.045 498.042,177.726 C 495.72,175.404 494.56,172.627 494.56,169.404 C 494.56,166.175 495.72,163.383 498.042,161.021 C 500.304,158.74 503.064,157.595 506.333,157.595 C 509.637,157.591 512.43,158.732 514.712,161.016 z M 499.578,162.55 C 497.648,164.498 496.683,166.781 496.683,169.399 C 496.683,172.018 497.638,174.284 499.546,176.19 C 501.456,178.098 503.73,179.053 506.366,179.053 C 509.001,179.053 511.296,178.089 513.245,176.16 C 515.096,174.369 516.018,172.115 516.018,169.398 C 516.018,166.703 515.079,164.414 513.2,162.535 C 511.321,160.654 509.042,159.715 506.366,159.715 C 503.69,159.715 501.425,160.661 499.578,162.55 z M 504.654,168.249 C 504.359,167.605 503.92,167.284 503.33,167.284 C 502.291,167.284 501.769,167.984 501.769,169.387 C 501.769,170.787 502.29,171.487 503.33,171.487 C 504.018,171.487 504.508,171.145 504.805,170.466 L 506.244,171.236 C 505.556,172.458 504.525,173.068 503.15,173.068 C 502.089,173.068 501.24,172.744 500.602,172.091 C 499.962,171.443 499.644,170.544 499.644,169.403 C 499.644,168.28 499.973,167.386 500.63,166.729 C 501.288,166.067 502.109,165.739 503.091,165.739 C 504.544,165.739 505.585,166.311 506.214,167.456 L 504.654,168.249 z M 511.439,168.249 C 511.143,167.605 510.71,167.284 510.141,167.284 C 509.079,167.284 508.548,167.984 508.548,169.387 C 508.548,170.787 509.079,171.487 510.141,171.487 C 510.829,171.487 511.311,171.145 511.585,170.466 L 513.06,171.236 C 512.372,172.458 511.343,173.068 509.971,173.068 C 508.911,173.068 508.065,172.744 507.427,172.091 C 506.79,171.443 506.471,170.544 506.471,169.403 C 506.471,168.28 506.794,167.386 507.443,166.729 C 508.089,166.067 508.914,165.739 509.914,165.739 C 511.365,165.739 512.404,166.311 513.031,167.456 L 511.439,168.249 z "
             id="path321" />
        </g>
      </g>
      <g
         id="g126_3_">
        <circle
           id="circle128_3_"
           style="fill:#ffffff"
           cx="529.64899"
           cy="166.13"
           r="8.1040001"
           sodipodi:cx="529.64899"
           sodipodi:cy="166.13"
           sodipodi:rx="8.1040001"
           sodipodi:ry="8.1040001" />
        <g
           id="g130_3_">
          <path
             id="path132_3_"
             d="M 531.996,163.785 C 531.996,163.473 531.742,163.221 531.433,163.221 L 527.854,163.221 C 527.542,163.221 527.292,163.475 527.292,163.785 L 527.292,167.365 L 528.29,167.365 L 528.29,171.603 L 531,171.603 L 531,167.365 L 531.998,167.365 L 531.998,163.785 L 531.996,163.785 z " />
          <circle
             id="circle134_3_"
             cx="529.63898"
             cy="161.524"
             r="1.225"
             sodipodi:cx="529.63898"
             sodipodi:cy="161.524"
             sodipodi:rx="1.225"
             sodipodi:ry="1.225" />
        </g>
        <path
           d="M 529.628,157.2 C 527.204,157.2 525.149,158.046 523.473,159.738 C 521.749,161.488 520.888,163.558 520.888,165.952 C 520.888,168.344 521.749,170.4 523.473,172.122 C 525.197,173.843 527.247,174.704 529.628,174.704 C 532.036,174.704 534.126,173.837 535.894,172.1 C 537.559,170.454 538.391,168.403 538.391,165.954 C 538.391,163.503 537.544,161.433 535.85,159.739 C 534.158,158.045 532.083,157.2 529.628,157.2 z M 529.651,158.775 C 531.637,158.775 533.324,159.474 534.711,160.876 C 536.115,162.262 536.815,163.954 536.815,165.952 C 536.815,167.965 536.128,169.635 534.755,170.962 C 533.31,172.393 531.609,173.108 529.651,173.108 C 527.693,173.108 526.005,172.401 524.589,170.985 C 523.173,169.571 522.464,167.893 522.464,165.956 C 522.464,164.019 523.181,162.321 524.61,160.88 C 525.985,159.475 527.666,158.775 529.651,158.775 z "
           id="path328" />
      </g>
      <g
         id="g138_3_"
         style="enable-background:new">
        <path
           style="fill:#ffffff"
           d="M 527.112,179.357 C 527.35,179.357 527.567,179.378 527.764,179.419 C 527.958,179.46 528.128,179.527 528.269,179.625 C 528.41,179.721 528.517,179.85 528.595,180.006 C 528.671,180.164 528.71,180.36 528.71,180.593 C 528.71,180.846 528.65,181.057 528.538,181.225 C 528.423,181.393 528.253,181.53 528.026,181.636 C 528.338,181.725 528.566,181.88 528.717,182.104 C 528.867,182.327 528.947,182.591 528.947,182.905 C 528.947,183.159 528.896,183.378 528.801,183.559 C 528.701,183.747 528.572,183.895 528.405,184.009 C 528.239,184.126 528.05,184.213 527.837,184.27 C 527.624,184.329 527.405,184.356 527.184,184.356 L 524.753,184.356 L 524.753,179.358 L 527.112,179.358 L 527.112,179.357 z M 526.971,181.378 C 527.167,181.378 527.327,181.331 527.454,181.236 C 527.581,181.144 527.642,180.994 527.642,180.785 C 527.642,180.668 527.621,180.572 527.58,180.498 C 527.537,180.423 527.48,180.365 527.41,180.323 C 527.34,180.281 527.26,180.252 527.17,180.234 C 527.078,180.215 526.982,180.212 526.885,180.212 L 525.858,180.212 L 525.858,181.378 L 526.971,181.378 z M 527.037,183.5 C 527.143,183.5 527.246,183.489 527.348,183.468 C 527.448,183.447 527.536,183.412 527.608,183.364 C 527.682,183.312 527.745,183.248 527.79,183.163 C 527.833,183.079 527.853,182.973 527.853,182.843 C 527.853,182.586 527.782,182.405 527.634,182.293 C 527.488,182.184 527.297,182.129 527.061,182.129 L 525.862,182.129 L 525.862,183.5 L 527.037,183.5 z "
           id="path331" />
        <polygon
           id="path142_3_"
           style="fill:#ffffff"
           points="529.145,179.357 530.376,179.357 531.546,181.331 532.71,179.357 533.936,179.357 532.082,182.436 532.082,184.355 530.979,184.355 530.979,182.409 529.145,179.357 " />
      </g>
      <g
         id="g144_3_"
         style="enable-background:new">
        <path
           id="path146_3_"
           style="fill:#ffffff"
           d="M 564.876,183.119 C 564.937,183.236 565.017,183.33 565.116,183.402 C 565.214,183.474 565.333,183.529 565.47,183.564 C 565.605,183.599 565.743,183.617 565.889,183.617 C 565.988,183.617 566.091,183.607 566.202,183.593 C 566.311,183.576 566.419,183.544 566.514,183.497 C 566.614,183.452 566.692,183.389 566.758,183.307 C 566.82,183.225 566.856,183.119 566.856,182.995 C 566.856,182.859 566.813,182.751 566.726,182.667 C 566.64,182.582 566.53,182.514 566.387,182.456 C 566.244,182.398 566.086,182.352 565.91,182.31 C 565.732,182.267 565.555,182.22 565.371,182.167 C 565.183,182.12 565.004,182.063 564.826,181.995 C 564.648,181.931 564.49,181.841 564.349,181.731 C 564.208,181.625 564.096,181.491 564.01,181.331 C 563.924,181.169 563.88,180.977 563.88,180.746 C 563.88,180.489 563.937,180.267 564.044,180.078 C 564.153,179.89 564.298,179.729 564.476,179.602 C 564.654,179.477 564.853,179.383 565.078,179.325 C 565.304,179.263 565.525,179.231 565.75,179.231 C 566.013,179.231 566.264,179.26 566.504,179.322 C 566.74,179.38 566.955,179.471 567.143,179.602 C 567.331,179.737 567.479,179.903 567.588,180.104 C 567.695,180.307 567.75,180.553 567.75,180.842 L 566.686,180.842 C 566.676,180.696 566.645,180.571 566.592,180.473 C 566.535,180.373 566.467,180.296 566.379,180.243 C 566.289,180.186 566.191,180.145 566.074,180.125 C 565.961,180.104 565.838,180.09 565.701,180.09 C 565.613,180.09 565.523,180.101 565.435,180.118 C 565.346,180.139 565.267,180.169 565.195,180.216 C 565.125,180.265 565.064,180.32 565.017,180.392 C 564.971,180.46 564.949,180.551 564.949,180.661 C 564.949,180.759 564.969,180.838 565.007,180.896 C 565.043,180.958 565.115,181.013 565.228,181.066 C 565.336,181.118 565.491,181.169 565.682,181.216 C 565.875,181.271 566.127,181.333 566.441,181.413 C 566.536,181.434 566.665,181.466 566.831,181.517 C 566.997,181.566 567.161,181.644 567.323,181.749 C 567.487,181.854 567.628,182 567.747,182.183 C 567.866,182.361 567.926,182.589 567.926,182.871 C 567.926,183.1 567.88,183.31 567.792,183.508 C 567.702,183.705 567.571,183.873 567.396,184.018 C 567.221,184.162 567.003,184.272 566.746,184.35 C 566.488,184.43 566.187,184.468 565.849,184.468 C 565.577,184.468 565.308,184.436 565.047,184.365 C 564.785,184.297 564.56,184.189 564.359,184.046 C 564.162,183.9 564.005,183.717 563.886,183.492 C 563.767,183.265 563.712,183.002 563.718,182.691 L 564.784,182.691 C 564.787,182.859 564.815,183.002 564.876,183.119 z " />
        <path
           style="fill:#ffffff"
           d="M 571.069,179.357 L 572.938,184.355 L 571.796,184.355 L 571.417,183.242 L 569.548,183.242 L 569.153,184.355 L 568.049,184.355 L 569.941,179.357 L 571.069,179.357 z M 571.13,182.421 L 570.501,180.588 L 570.483,180.588 L 569.835,182.421 L 571.13,182.421 z "
           id="path336" />
      </g>
      <g
         id="g150_3_"
         style="enable-background:new">
        <polygon
           id="path152_3_"
           style="fill:#ffffff"
           points="545.313,179.357 547.401,182.709 547.414,182.709 547.414,179.357 548.444,179.357 548.444,184.355 547.343,184.355 545.264,181.008 545.25,181.008 545.25,184.355 544.218,184.355 544.218,179.357 545.313,179.357 " />
        <path
           id="path154_3_"
           style="fill:#ffffff"
           d="M 552.617,180.688 C 552.553,180.584 552.471,180.494 552.371,180.415 C 552.273,180.336 552.164,180.27 552.039,180.227 C 551.916,180.184 551.785,180.164 551.65,180.164 C 551.404,180.164 551.192,180.211 551.02,180.31 C 550.846,180.406 550.707,180.534 550.6,180.693 C 550.494,180.855 550.413,181.04 550.365,181.245 C 550.318,181.45 550.293,181.662 550.293,181.882 C 550.293,182.091 550.316,182.296 550.365,182.493 C 550.414,182.691 550.494,182.87 550.6,183.027 C 550.706,183.187 550.846,183.312 551.02,183.411 C 551.192,183.507 551.404,183.555 551.65,183.555 C 551.986,183.555 552.25,183.452 552.438,183.245 C 552.626,183.04 552.744,182.767 552.785,182.433 L 553.848,182.433 C 553.822,182.745 553.747,183.029 553.63,183.281 C 553.515,183.535 553.359,183.749 553.169,183.927 C 552.978,184.106 552.753,184.24 552.495,184.334 C 552.239,184.428 551.956,184.475 551.647,184.475 C 551.263,184.475 550.918,184.41 550.616,184.276 C 550.308,184.143 550.053,183.962 549.842,183.725 C 549.632,183.494 549.47,183.216 549.359,182.903 C 549.248,182.591 549.191,182.251 549.191,181.882 C 549.191,181.509 549.248,181.162 549.359,180.842 C 549.47,180.524 549.632,180.242 549.842,180.005 C 550.053,179.768 550.311,179.581 550.616,179.443 C 550.921,179.306 551.263,179.242 551.647,179.242 C 551.92,179.242 552.182,179.281 552.426,179.359 C 552.67,179.439 552.891,179.552 553.082,179.708 C 553.275,179.859 553.436,180.048 553.562,180.271 C 553.687,180.496 553.767,180.75 553.798,181.042 L 552.736,181.042 C 552.723,180.909 552.681,180.792 552.617,180.688 z " />
      </g>
      <g
         id="g6332_4_">
        <path
           id="path6334_4_"
           style="fill:#ffffff"
           d="M 577.056,165.947 C 577.06,170.357 573.486,173.937 569.074,173.941 C 564.662,173.943 561.084,170.371 561.08,165.958 C 561.08,165.955 561.08,165.95 561.08,165.947 C 561.078,161.535 564.651,157.956 569.062,157.952 C 573.474,157.949 577.052,161.523 577.056,165.933 C 577.056,165.939 577.056,165.941 577.056,165.947 z " />
        <g
           id="g6336_4_">
          <path
             d="M 569.009,157.195 C 566.585,157.195 564.532,158.042 562.856,159.732 C 561.132,161.482 560.27,163.554 560.27,165.947 C 560.27,168.339 561.132,170.394 562.856,172.116 C 564.58,173.838 566.63,174.699 569.009,174.699 C 571.419,174.699 573.507,173.831 575.277,172.095 C 576.941,170.445 577.775,168.396 577.775,165.947 C 577.775,163.497 576.925,161.425 575.232,159.732 C 573.539,158.041 571.464,157.195 569.009,157.195 z M 569.033,158.77 C 571.019,158.77 572.707,159.47 574.094,160.874 C 575.496,162.259 576.199,163.95 576.199,165.949 C 576.199,167.962 575.51,169.632 574.138,170.96 C 572.693,172.391 570.992,173.106 569.034,173.106 C 567.075,173.106 565.388,172.399 563.972,170.985 C 562.556,169.569 561.848,167.893 561.848,165.953 C 561.848,164.013 562.563,162.321 563.994,160.878 C 565.367,159.471 567.046,158.77 569.033,158.77 z "
             id="path344" />
          <path
             id="path6340_4_"
             d="M 565.13,164.711 C 565.481,162.509 567.026,161.332 568.973,161.332 C 571.767,161.332 573.468,163.359 573.468,166.062 C 573.468,168.701 571.657,170.75 568.929,170.75 C 567.052,170.75 565.37,169.596 565.066,167.327 L 567.27,167.327 C 567.335,168.504 568.1,168.919 569.192,168.919 C 570.435,168.919 571.244,167.764 571.244,165.998 C 571.244,164.144 570.547,163.163 569.235,163.163 C 568.275,163.163 567.447,163.512 567.27,164.711 L 567.912,164.707 L 566.18,166.443 L 564.446,164.707 L 565.13,164.711 z " />
        </g>
      </g>
      <g
         id="g6361_4_">
        <path
           id="path6363_4_"
           style="fill:#ffffff"
           d="M 557.472,165.947 C 557.476,170.443 553.831,174.091 549.337,174.093 C 544.839,174.096 541.191,170.453 541.19,165.957 C 541.19,165.953 541.19,165.948 541.19,165.943 C 541.186,161.448 544.83,157.798 549.326,157.797 C 553.822,157.796 557.472,161.44 557.472,165.936 C 557.472,165.938 557.472,165.943 557.472,165.947 z " />
        <path
           d="M 549.32,157.195 C 551.773,157.195 553.846,158.042 555.541,159.732 C 557.236,161.421 558.084,163.497 558.084,165.947 C 558.084,168.396 557.25,170.445 555.586,172.095 C 553.817,173.827 551.732,174.699 549.32,174.699 C 546.939,174.699 544.887,173.838 543.166,172.116 C 541.441,170.396 540.58,168.339 540.58,165.947 C 540.58,163.554 541.441,161.482 543.166,159.732 C 544.844,158.042 546.895,157.195 549.32,157.195 z M 542.548,163.596 C 542.286,164.334 542.155,165.117 542.155,165.95 C 542.155,167.888 542.864,169.565 544.28,170.979 C 545.696,172.393 547.384,173.1 549.341,173.1 C 551.298,173.1 552.999,172.387 554.445,170.956 C 554.927,170.488 555.328,169.978 555.64,169.426 L 552.341,167.956 C 552.116,169.066 551.128,169.816 549.932,169.904 L 549.932,171.254 L 548.927,171.254 L 548.927,169.904 C 547.946,169.892 546.995,169.491 546.271,168.855 L 547.476,167.64 C 548.057,168.187 548.637,168.431 549.43,168.431 C 549.944,168.431 550.513,168.23 550.513,167.562 C 550.513,167.326 550.421,167.16 550.277,167.037 L 549.443,166.665 L 548.403,166.203 C 547.889,165.974 547.455,165.78 547.017,165.586 L 542.548,163.596 z M 549.341,158.77 C 547.355,158.77 545.675,159.47 544.302,160.874 C 543.93,161.25 543.604,161.645 543.327,162.059 L 546.673,163.545 C 546.977,162.617 547.858,162.055 548.928,161.991 L 548.928,160.638 L 549.933,160.638 L 549.933,161.991 C 550.624,162.021 551.384,162.214 552.132,162.794 L 550.983,163.979 C 550.558,163.675 550.023,163.463 549.488,163.463 C 549.05,163.463 548.438,163.6 548.438,164.145 C 548.438,164.229 548.464,164.3 548.516,164.368 L 549.635,164.866 L 550.393,165.204 C 550.876,165.421 551.339,165.626 551.798,165.83 L 556.282,167.827 C 556.428,167.239 556.503,166.614 556.503,165.953 C 556.503,163.954 555.803,162.263 554.401,160.878 C 553.014,159.471 551.328,158.77 549.341,158.77 z "
           id="path349" />
      </g>
    </g>
    <g
       id="g351"
       transform="translate(229.97957,182.04933)">
      <g
         id="g353">
        <path
           style="fill:#ff0000"
           d="M 596.552,73.412 C 596.552,96.492 577.777,115.266 554.698,115.266 C 531.618,115.266 512.843,96.494 512.843,73.412 C 512.843,50.333 531.62,31.558 554.698,31.558 C 577.776,31.558 596.552,50.333 596.552,73.412 z M 554.699,19.233 C 524.826,19.233 500.521,43.537 500.521,73.411 C 500.521,103.286 524.826,127.59 554.699,127.59 C 584.574,127.59 608.877,103.285 608.877,73.411 C 608.876,43.538 584.574,19.233 554.699,19.233 z "
           id="path355" />
      </g>
      <g
         id="g357">
        <polygon
           style="fill:#ffffff;stroke:#000000;stroke-width:1.23239994"
           points="586.869,7.649 588.558,33.467 606.449,14.776 595.003,37.979 619.841,30.737 598.33,45.109 623.458,51.257 597.642,52.946 616.333,70.836 593.128,59.391 600.371,84.229 586,62.716 579.851,87.848 578.162,62.03 560.272,80.722 571.718,57.518 546.878,64.76 568.392,50.388 543.261,44.241 569.08,42.551 550.388,24.66 573.591,36.106 566.349,11.268 580.72,32.782 586.869,7.649 "
           id="polygon359" />
        <g
           id="g361">
          <g
             id="g363">
            <path
               d="M 589.9,47.655 C 589.9,44.774 587.564,42.438 584.683,42.438 L 574.4,42.438 C 571.519,42.438 569.182,44.773 569.182,47.655 L 569.182,51.286 C 568.638,50.925 567.992,50.713 567.288,50.713 L 541.181,50.713 C 539.421,50.713 537.972,52.036 537.77,53.743 L 523.787,53.743 C 520.908,53.743 518.572,56.078 518.572,58.96 L 518.572,89.551 C 518.572,92.431 520.908,94.768 523.787,94.768 L 584.683,94.768 C 587.564,94.768 589.9,92.433 589.9,89.551 L 589.9,58.96 C 589.9,58.526 589.9,56.884 589.9,56.451 L 589.9,47.655 L 589.9,47.655 z "
               id="path365" />
            <path
               style="fill:#ffffff;stroke:#000000;stroke-width:0.4348"
               d="M 587.195,51.968 C 587.195,54.85 584.859,57.186 581.976,57.186 L 576.794,57.186 C 573.911,57.186 571.575,54.85 571.575,51.968 L 571.575,49.932 C 571.575,47.05 573.911,44.715 576.794,44.715 L 581.976,44.715 C 584.859,44.715 587.195,47.05 587.195,49.932 L 587.195,51.968 z "
               id="path367" />
          </g>
          <g
             id="g369">
            <circle
               style="fill:#ffffff;stroke:#000000;stroke-width:0.47819999"
               cx="554.23499"
               cy="74.608002"
               r="16.975"
               id="circle371"
               sodipodi:cx="554.23499"
               sodipodi:cy="74.608002"
               sodipodi:rx="16.975"
               sodipodi:ry="16.975" />
            <circle
               style="fill:#ffffff;stroke:#000000;stroke-width:1.23239994"
               cx="554.23499"
               cy="74.609001"
               r="13.888"
               id="circle373"
               sodipodi:cx="554.23499"
               sodipodi:cy="74.609001"
               sodipodi:rx="13.888"
               sodipodi:ry="13.888" />
          </g>
        </g>
      </g>
      <g
         id="g375">
        <rect
           x="506.35901"
           y="67.242996"
           transform="matrix(0.7071,0.7071,-0.7071,0.7071,214.3744,-370.7364)"
           style="fill:#ff0000"
           width="96.693001"
           height="12.323"
           id="rect377" />
      </g>
    </g>
  </g>
</svg>
