<?xml version="1.0" encoding="UTF-8" standalone="no"?>
<!-- Created with Inkscape (http://www.inkscape.org/) -->
<svg
   xmlns:dc="http://purl.org/dc/elements/1.1/"
   xmlns:cc="http://web.resource.org/cc/"
   xmlns:rdf="http://www.w3.org/1999/02/22-rdf-syntax-ns#"
   xmlns:svg="http://www.w3.org/2000/svg"
   xmlns="http://www.w3.org/2000/svg"
   xmlns:sodipodi="http://sodipodi.sourceforge.net/DTD/sodipodi-0.dtd"
   xmlns:inkscape="http://www.inkscape.org/namespaces/inkscape"
   width="142.73199"
   height="163.41476"
   id="svg3587"
   sodipodi:version="0.32"
   inkscape:version="0.45.1"
   version="1.0"
   sodipodi:docbase="/Users/robmyers/Desktop/cc-ironies/final"
   sodipodi:docname="positive_endorsement.svg"
   inkscape:output_extension="org.inkscape.output.svg.inkscape">
  <defs
     id="defs3589" />
  <sodipodi:namedview
     id="base"
     pagecolor="#ffffff"
     bordercolor="#666666"
     borderopacity="1.0"
     gridtolerance="10000"
     guidetolerance="10"
     objecttolerance="10"
     inkscape:pageopacity="0.0"
     inkscape:pageshadow="2"
     inkscape:zoom="2.3131325"
     inkscape:cx="71.365997"
     inkscape:cy="81.707382"
     inkscape:document-units="px"
     inkscape:current-layer="layer1"
     inkscape:window-width="697"
     inkscape:window-height="581"
     inkscape:window-x="35"
     inkscape:window-y="48" />
  <metadata
     id="metadata3592">
    <rdf:RDF>
      <cc:Work
         rdf:about="">
        <dc:format>image/svg+xml</dc:format>
        <dc:type
           rdf:resource="http://purl.org/dc/dcmitype/StillImage" />
      </cc:Work>
    </rdf:RDF>
  </metadata>
  <g
     inkscape:label="Layer 1"
     inkscape:groupmode="layer"
     id="layer1"
     transform="translate(-785.77686,-642.04932)">
    <rect
       x="786.27686"
       y="642.54932"
       style="fill:#ffffff;stroke:#000000"
       width="141.73199"
       height="141.73199"
       id="rect505" />
    <g
       id="g507"
       transform="matrix(0.5,0,0,0.5,540.48486,712.29408)">
      <path
         id="path3817_3_"
         style="fill:#aab2ab"
         d="M 493.156,154.981 L 578.704,155.133 C 579.899,155.133 580.968,154.955 580.968,157.518 L 580.863,185.694 L 490.998,185.694 L 490.998,157.415 C 490.997,156.15 491.12,154.981 493.156,154.981 z " />
      <path
         d="M 579.452,154.639 L 492.28,154.639 C 491.344,154.639 490.584,155.401 490.584,156.335 L 490.584,185.957 C 490.584,186.168 490.756,186.34 490.968,186.34 L 580.765,186.34 C 580.976,186.34 581.148,186.168 581.148,185.957 L 581.148,156.335 C 581.147,155.401 580.386,154.639 579.452,154.639 z M 492.28,155.406 L 579.452,155.406 C 579.965,155.406 580.382,155.823 580.382,156.336 C 580.382,156.336 580.382,168.259 580.382,176.882 L 518.076,176.882 C 515.793,181.011 511.392,183.816 506.343,183.816 C 501.292,183.816 496.894,181.014 494.612,176.882 L 491.351,176.882 C 491.351,168.259 491.351,156.336 491.351,156.336 C 491.35,155.823 491.767,155.406 492.28,155.406 z "
         id="path510" />
      <g
         id="g5908_3_">
        <path
           id="path5906_3_"
           style="fill:#ffffff"
           d="M 516.637,169.397 C 516.641,175.08 512.036,179.69 506.354,179.692 C 500.67,179.697 496.061,175.091 496.057,169.409 C 496.057,169.405 496.057,169.401 496.057,169.397 C 496.053,163.713 500.659,159.104 506.341,159.1 C 512.025,159.096 516.634,163.702 516.637,169.383 C 516.637,169.388 516.637,169.392 516.637,169.397 z " />
        <g
           id="g5706_3_">
          <path
             d="M 514.712,161.015 C 516.994,163.297 518.135,166.09 518.135,169.397 C 518.135,172.702 517.014,175.466 514.771,177.69 C 512.391,180.031 509.579,181.202 506.333,181.202 C 503.126,181.202 500.362,180.042 498.042,177.72 C 495.72,175.398 494.56,172.624 494.56,169.398 C 494.56,166.17 495.72,163.377 498.042,161.016 C 500.304,158.734 503.067,157.592 506.333,157.592 C 509.637,157.591 512.43,158.733 514.712,161.015 z M 499.577,162.55 C 497.648,164.498 496.683,166.781 496.683,169.399 C 496.683,172.017 497.638,174.281 499.547,176.189 C 501.457,178.098 503.73,179.053 506.367,179.053 C 509.004,179.053 511.297,178.089 513.246,176.16 C 515.096,174.369 516.021,172.115 516.021,169.398 C 516.021,166.703 515.08,164.414 513.2,162.535 C 511.321,160.655 509.043,159.715 506.367,159.715 C 503.691,159.715 501.426,160.661 499.577,162.55 z M 504.654,168.249 C 504.359,167.605 503.919,167.284 503.33,167.284 C 502.29,167.284 501.769,167.985 501.769,169.386 C 501.769,170.787 502.29,171.486 503.33,171.486 C 504.017,171.486 504.508,171.145 504.802,170.463 L 506.244,171.231 C 505.556,172.452 504.525,173.063 503.15,173.063 C 502.089,173.063 501.24,172.738 500.602,172.088 C 499.963,171.438 499.644,170.541 499.644,169.399 C 499.644,168.276 499.973,167.384 500.631,166.724 C 501.288,166.063 502.109,165.734 503.091,165.734 C 504.545,165.734 505.585,166.306 506.215,167.451 L 504.654,168.249 z M 511.439,168.249 C 511.143,167.605 510.71,167.284 510.141,167.284 C 509.079,167.284 508.548,167.985 508.548,169.386 C 508.548,170.787 509.079,171.486 510.141,171.486 C 510.829,171.486 511.311,171.145 511.586,170.463 L 513.06,171.231 C 512.373,172.452 511.344,173.063 509.971,173.063 C 508.912,173.063 508.065,172.738 507.427,172.088 C 506.79,171.438 506.471,170.541 506.471,169.399 C 506.471,168.276 506.795,167.384 507.443,166.724 C 508.089,166.063 508.913,165.734 509.913,165.734 C 511.364,165.734 512.403,166.306 513.03,167.451 L 511.439,168.249 z "
             id="path515" />
        </g>
      </g>
      <g
         id="g126_3_">
        <circle
           id="circle128_3_"
           style="fill:#ffffff"
           cx="529.64899"
           cy="166.13"
           r="8.1040001"
           sodipodi:cx="529.64899"
           sodipodi:cy="166.13"
           sodipodi:rx="8.1040001"
           sodipodi:ry="8.1040001" />
        <g
           id="g130_3_">
          <path
             id="path132_3_"
             d="M 531.995,163.785 C 531.995,163.473 531.742,163.22 531.43,163.22 L 527.851,163.22 C 527.539,163.22 527.286,163.474 527.286,163.785 L 527.286,167.365 L 528.284,167.365 L 528.284,171.604 L 530.997,171.604 L 530.997,167.365 L 531.996,167.365 L 531.996,163.785 L 531.995,163.785 z " />
          <circle
             id="circle134_3_"
             cx="529.63898"
             cy="161.524"
             r="1.225"
             sodipodi:cx="529.63898"
             sodipodi:cy="161.524"
             sodipodi:rx="1.225"
             sodipodi:ry="1.225" />
        </g>
        <path
           d="M 529.628,157.2 C 527.204,157.2 525.152,158.046 523.473,159.738 C 521.749,161.488 520.888,163.559 520.888,165.952 C 520.888,168.344 521.749,170.4 523.473,172.122 C 525.197,173.843 527.248,174.704 529.628,174.704 C 532.037,174.704 534.127,173.837 535.894,172.1 C 537.559,170.453 538.391,168.403 538.391,165.953 C 538.391,163.502 537.544,161.432 535.85,159.739 C 534.157,158.045 532.083,157.2 529.628,157.2 z M 529.651,158.775 C 531.637,158.775 533.324,159.475 534.711,160.876 C 536.114,162.262 536.815,163.954 536.815,165.952 C 536.815,167.965 536.128,169.635 534.755,170.962 C 533.31,172.392 531.609,173.107 529.651,173.107 C 527.693,173.107 526.006,172.4 524.59,170.985 C 523.173,169.57 522.465,167.892 522.465,165.953 C 522.465,164.013 523.181,162.321 524.611,160.877 C 525.985,159.475 527.665,158.775 529.651,158.775 z "
           id="path522" />
      </g>
      <g
         id="g138_3_"
         style="enable-background:new">
        <path
           style="fill:#ffffff"
           d="M 527.112,179.357 C 527.35,179.357 527.567,179.378 527.764,179.42 C 527.959,179.461 528.128,179.529 528.269,179.626 C 528.409,179.721 528.517,179.849 528.595,180.007 C 528.672,180.165 528.71,180.361 528.71,180.594 C 528.71,180.846 528.653,181.056 528.538,181.225 C 528.424,181.393 528.254,181.53 528.029,181.637 C 528.339,181.725 528.569,181.881 528.721,182.104 C 528.873,182.325 528.95,182.592 528.95,182.905 C 528.95,183.157 528.901,183.376 528.803,183.559 C 528.705,183.745 528.573,183.895 528.407,184.01 C 528.241,184.127 528.052,184.214 527.84,184.27 C 527.626,184.327 527.408,184.355 527.184,184.355 L 524.756,184.355 L 524.756,179.357 L 527.112,179.357 L 527.112,179.357 z M 526.971,181.378 C 527.167,181.378 527.328,181.331 527.454,181.237 C 527.581,181.144 527.643,180.994 527.643,180.785 C 527.643,180.668 527.622,180.572 527.581,180.498 C 527.538,180.423 527.482,180.365 527.412,180.323 C 527.342,180.281 527.262,180.252 527.171,180.235 C 527.079,180.218 526.984,180.212 526.887,180.212 L 525.857,180.212 L 525.857,181.378 L 526.971,181.378 z M 527.036,183.5 C 527.143,183.5 527.246,183.489 527.345,183.468 C 527.443,183.447 527.53,183.412 527.605,183.364 C 527.679,183.313 527.739,183.248 527.784,183.163 C 527.828,183.079 527.85,182.973 527.85,182.843 C 527.85,182.586 527.778,182.404 527.632,182.293 C 527.487,182.183 527.296,182.129 527.058,182.129 L 525.858,182.129 L 525.858,183.5 L 527.036,183.5 z "
           id="path525" />
        <polygon
           id="path142_3_"
           style="fill:#ffffff"
           points="529.145,179.357 530.377,179.357 531.547,181.331 532.711,179.357 533.936,179.357 532.081,182.436 532.081,184.355 530.979,184.355 530.979,182.409 529.145,179.357 " />
      </g>
      <g
         id="g144_3_"
         style="enable-background:new">
        <path
           id="path146_3_"
           style="fill:#ffffff"
           d="M 564.876,183.119 C 564.937,183.236 565.017,183.33 565.117,183.403 C 565.217,183.475 565.334,183.529 565.47,183.564 C 565.605,183.599 565.744,183.617 565.889,183.617 C 565.987,183.617 566.091,183.608 566.203,183.593 C 566.314,183.576 566.419,183.544 566.517,183.497 C 566.614,183.452 566.695,183.388 566.761,183.306 C 566.825,183.224 566.859,183.119 566.859,182.994 C 566.859,182.859 566.816,182.75 566.729,182.666 C 566.643,182.581 566.53,182.512 566.39,182.455 C 566.25,182.399 566.091,182.351 565.915,182.309 C 565.737,182.266 565.558,182.219 565.376,182.168 C 565.189,182.121 565.008,182.064 564.831,181.996 C 564.654,181.93 564.495,181.842 564.355,181.734 C 564.215,181.626 564.102,181.492 564.016,181.332 C 563.93,181.17 563.887,180.976 563.887,180.747 C 563.887,180.49 563.942,180.268 564.051,180.079 C 564.16,179.89 564.304,179.732 564.481,179.605 C 564.659,179.48 564.859,179.386 565.083,179.326 C 565.307,179.264 565.531,179.235 565.755,179.235 C 566.016,179.235 566.267,179.264 566.507,179.323 C 566.746,179.381 566.96,179.475 567.146,179.605 C 567.334,179.738 567.481,179.904 567.591,180.107 C 567.7,180.31 567.755,180.556 567.755,180.846 L 566.689,180.846 C 566.679,180.697 566.648,180.572 566.595,180.476 C 566.541,180.377 566.47,180.3 566.382,180.244 C 566.294,180.189 566.193,180.148 566.079,180.126 C 565.966,180.103 565.841,180.091 565.706,180.091 C 565.618,180.091 565.529,180.1 565.441,180.119 C 565.352,180.138 565.273,180.17 565.201,180.217 C 565.129,180.264 565.07,180.321 565.023,180.391 C 564.977,180.461 564.954,180.551 564.954,180.659 C 564.954,180.757 564.972,180.836 565.01,180.895 C 565.047,180.957 565.12,181.012 565.23,181.064 C 565.34,181.116 565.492,181.167 565.685,181.217 C 565.878,181.269 566.131,181.334 566.443,181.414 C 566.537,181.433 566.666,181.467 566.831,181.516 C 566.997,181.565 567.162,181.643 567.324,181.75 C 567.487,181.857 567.628,182.001 567.748,182.182 C 567.866,182.36 567.926,182.59 567.926,182.871 C 567.926,183.1 567.881,183.312 567.792,183.508 C 567.703,183.705 567.572,183.873 567.396,184.016 C 567.221,184.159 567.004,184.269 566.746,184.348 C 566.487,184.428 566.187,184.468 565.846,184.468 C 565.571,184.468 565.305,184.433 565.045,184.365 C 564.785,184.297 564.557,184.191 564.359,184.046 C 564.161,183.9 564.004,183.717 563.886,183.492 C 563.768,183.267 563.712,183.002 563.718,182.693 L 564.784,182.693 C 564.786,182.86 564.815,183.002 564.876,183.119 z " />
        <path
           style="fill:#ffffff"
           d="M 571.069,179.357 L 572.938,184.355 L 571.797,184.355 L 571.418,183.242 L 569.549,183.242 L 569.156,184.355 L 568.051,184.355 L 569.942,179.357 L 571.069,179.357 z M 571.131,182.421 L 570.502,180.588 L 570.486,180.588 L 569.836,182.421 L 571.131,182.421 z "
           id="path530" />
      </g>
      <g
         id="g150_3_"
         style="enable-background:new">
        <polygon
           id="path152_3_"
           style="fill:#ffffff"
           points="545.313,179.357 547.401,182.709 547.413,182.709 547.413,179.357 548.444,179.357 548.444,184.355 547.344,184.355 545.264,181.008 545.25,181.008 545.25,184.355 544.219,184.355 544.219,179.357 545.313,179.357 " />
        <path
           id="path154_3_"
           style="fill:#ffffff"
           d="M 552.616,180.688 C 552.552,180.583 552.47,180.491 552.371,180.412 C 552.273,180.333 552.163,180.27 552.039,180.225 C 551.915,180.182 551.785,180.16 551.65,180.16 C 551.403,180.16 551.192,180.207 551.02,180.304 C 550.846,180.4 550.707,180.527 550.6,180.688 C 550.493,180.849 550.413,181.033 550.365,181.238 C 550.317,181.443 550.292,181.655 550.292,181.875 C 550.292,182.084 550.316,182.289 550.365,182.487 C 550.414,182.685 550.493,182.863 550.6,183.021 C 550.706,183.181 550.846,183.307 551.02,183.404 C 551.192,183.5 551.403,183.548 551.65,183.548 C 551.986,183.548 552.249,183.445 552.438,183.238 C 552.626,183.033 552.743,182.762 552.784,182.427 L 553.848,182.427 C 553.821,182.739 553.747,183.021 553.631,183.273 C 553.515,183.527 553.36,183.741 553.169,183.919 C 552.978,184.097 552.754,184.232 552.496,184.326 C 552.24,184.42 551.957,184.467 551.649,184.467 C 551.266,184.467 550.921,184.4 550.616,184.267 C 550.311,184.134 550.053,183.951 549.842,183.717 C 549.632,183.484 549.47,183.208 549.358,182.894 C 549.247,182.58 549.19,182.24 549.19,181.874 C 549.19,181.501 549.247,181.155 549.358,180.834 C 549.47,180.515 549.632,180.235 549.842,179.997 C 550.053,179.759 550.311,179.573 550.616,179.436 C 550.922,179.301 551.266,179.234 551.649,179.234 C 551.924,179.234 552.185,179.274 552.429,179.352 C 552.674,179.432 552.894,179.547 553.087,179.7 C 553.281,179.852 553.441,180.04 553.567,180.264 C 553.692,180.488 553.772,180.745 553.804,181.034 L 552.741,181.034 C 552.723,180.909 552.681,180.792 552.616,180.688 z " />
      </g>
      <g
         id="g6332_4_">
        <path
           id="path6334_4_"
           style="fill:#ffffff"
           d="M 577.056,165.947 C 577.06,170.358 573.486,173.938 569.074,173.942 C 564.662,173.944 561.083,170.371 561.08,165.958 C 561.08,165.955 561.08,165.95 561.08,165.947 C 561.077,161.535 564.651,157.956 569.062,157.952 C 573.474,157.949 577.053,161.523 577.056,165.934 C 577.056,165.939 577.056,165.942 577.056,165.947 z " />
        <g
           id="g6336_4_">
          <path
             d="M 569.01,157.195 C 566.586,157.195 564.533,158.042 562.856,159.733 C 561.132,161.483 560.27,163.555 560.27,165.947 C 560.27,168.339 561.132,170.395 562.856,172.116 C 564.579,173.838 566.63,174.699 569.01,174.699 C 571.42,174.699 573.508,173.831 575.276,172.095 C 576.941,170.446 577.774,168.397 577.774,165.947 C 577.774,163.497 576.926,161.425 575.232,159.733 C 573.538,158.041 571.464,157.195 569.01,157.195 z M 569.033,158.77 C 571.019,158.77 572.706,159.47 574.094,160.872 C 575.495,162.257 576.197,163.948 576.197,165.947 C 576.197,167.96 575.51,169.63 574.137,170.958 C 572.692,172.387 570.99,173.101 569.033,173.101 C 567.076,173.101 565.389,172.394 563.972,170.98 C 562.556,169.565 561.848,167.888 561.848,165.948 C 561.848,164.008 562.563,162.316 563.994,160.873 C 565.367,159.47 567.046,158.77 569.033,158.77 z "
             id="path538" />
          <path
             id="path6340_4_"
             d="M 565.131,164.711 C 565.481,162.509 567.029,161.332 568.973,161.332 C 571.767,161.332 573.469,163.359 573.469,166.062 C 573.469,168.701 571.657,170.75 568.929,170.75 C 567.052,170.75 565.371,169.595 565.066,167.327 L 567.27,167.327 C 567.336,168.504 568.1,168.919 569.192,168.919 C 570.435,168.919 571.243,167.764 571.243,165.998 C 571.243,164.144 570.546,163.163 569.235,163.163 C 568.275,163.163 567.446,163.512 567.27,164.711 L 567.912,164.707 L 566.177,166.443 L 564.442,164.707 L 565.131,164.711 z " />
        </g>
      </g>
      <g
         id="g6361_4_">
        <path
           id="path6363_4_"
           style="fill:#ffffff"
           d="M 557.472,165.947 C 557.476,170.444 553.832,174.091 549.337,174.094 C 544.84,174.096 541.192,170.454 541.19,165.958 C 541.19,165.954 541.19,165.949 541.19,165.946 C 541.186,161.449 544.829,157.802 549.325,157.799 C 553.821,157.796 557.47,161.439 557.472,165.935 C 557.472,165.938 557.472,165.943 557.472,165.947 z " />
        <path
           d="M 549.32,157.195 C 551.773,157.195 553.846,158.042 555.541,159.733 C 557.236,161.424 558.083,163.497 558.083,165.947 C 558.083,168.397 557.25,170.446 555.586,172.095 C 553.817,173.83 551.73,174.699 549.32,174.699 C 546.939,174.699 544.887,173.838 543.165,172.116 C 541.441,170.396 540.579,168.339 540.579,165.947 C 540.579,163.555 541.441,161.483 543.165,159.733 C 544.844,158.042 546.895,157.195 549.32,157.195 z M 542.548,163.596 C 542.286,164.334 542.156,165.117 542.156,165.947 C 542.156,167.887 542.864,169.564 544.281,170.979 C 545.697,172.393 547.384,173.1 549.341,173.1 C 551.298,173.1 553,172.386 554.445,170.956 C 554.928,170.488 555.328,169.978 555.64,169.426 L 552.341,167.956 C 552.117,169.066 551.128,169.816 549.932,169.904 L 549.932,171.254 L 548.927,171.254 L 548.927,169.904 C 547.946,169.892 546.996,169.491 546.271,168.855 L 547.476,167.64 C 548.057,168.187 548.637,168.432 549.43,168.432 C 549.944,168.432 550.513,168.231 550.513,167.562 C 550.513,167.326 550.421,167.16 550.277,167.037 L 549.443,166.665 L 548.403,166.203 C 547.889,165.974 547.454,165.78 547.017,165.586 L 542.548,163.596 z M 549.341,158.77 C 547.355,158.77 545.676,159.47 544.303,160.872 C 543.93,161.248 543.604,161.643 543.328,162.054 L 546.674,163.543 C 546.977,162.615 547.858,162.052 548.928,161.989 L 548.928,160.639 L 549.933,160.639 L 549.933,161.989 C 550.625,162.022 551.384,162.212 552.133,162.792 L 550.983,163.974 C 550.558,163.673 550.023,163.461 549.487,163.461 C 549.051,163.461 548.438,163.595 548.438,164.14 C 548.438,164.224 548.465,164.298 548.516,164.363 L 549.635,164.861 L 550.393,165.199 C 550.877,165.416 551.339,165.621 551.798,165.825 L 556.282,167.822 C 556.429,167.234 556.504,166.609 556.504,165.948 C 556.504,163.949 555.803,162.258 554.402,160.873 C 553.014,159.47 551.328,158.77 549.341,158.77 z "
           id="path543" />
      </g>
    </g>
    <g
       id="g545"
       transform="translate(295.69385,642.04933)">
      <path
         d="M 520.619,54.341 L 520.728,56.756 L 520.439,56.756 C 520.383,56.33 520.307,56.025 520.21,55.842 C 520.053,55.548 519.844,55.331 519.583,55.191 C 519.322,55.051 518.979,54.982 518.554,54.982 L 517.103,54.982 L 517.103,62.873 C 517.103,63.511 517.171,63.909 517.308,64.067 C 517.501,64.281 517.798,64.388 518.199,64.388 L 518.556,64.388 L 518.556,64.669 L 514.15,64.669 L 514.15,64.388 L 514.521,64.388 C 514.964,64.388 515.279,64.255 515.464,63.99 C 515.577,63.826 515.634,63.454 515.634,62.872 L 515.634,54.981 L 514.39,54.981 C 513.907,54.981 513.564,55.017 513.361,55.087 C 513.095,55.184 512.87,55.369 512.681,55.643 C 512.493,55.917 512.381,56.288 512.345,56.755 L 512.056,56.755 L 512.165,54.34 L 520.619,54.34 L 520.619,54.341 z "
         id="path547" />
      <path
         d="M 523.648,53.841 L 523.648,58.937 C 524.21,58.318 524.658,57.92 524.988,57.745 C 525.317,57.57 525.647,57.482 525.977,57.482 C 526.373,57.482 526.712,57.591 526.997,57.81 C 527.281,58.028 527.492,58.372 527.629,58.838 C 527.725,59.163 527.774,59.758 527.774,60.622 L 527.774,63.091 C 527.774,63.531 527.809,63.832 527.88,63.993 C 527.93,64.115 528.016,64.211 528.137,64.281 C 528.259,64.352 528.481,64.387 528.805,64.387 L 528.805,64.668 L 525.383,64.668 L 525.383,64.387 L 525.543,64.387 C 525.867,64.387 526.092,64.338 526.219,64.239 C 526.346,64.14 526.435,63.995 526.486,63.803 C 526.501,63.722 526.508,63.485 526.508,63.09 L 526.508,60.62 C 526.508,59.858 526.469,59.357 526.39,59.119 C 526.312,58.88 526.186,58.701 526.014,58.581 C 525.841,58.461 525.633,58.402 525.39,58.402 C 525.142,58.402 524.883,58.468 524.615,58.6 C 524.346,58.732 524.024,58.999 523.649,59.4 L 523.649,63.089 C 523.649,63.565 523.675,63.86 523.729,63.977 C 523.782,64.093 523.88,64.19 524.025,64.269 C 524.17,64.347 524.42,64.386 524.774,64.386 L 524.774,64.667 L 521.321,64.667 L 521.321,64.386 C 521.63,64.386 521.872,64.338 522.05,64.242 C 522.152,64.192 522.232,64.096 522.293,63.954 C 522.354,63.812 522.384,63.524 522.384,63.089 L 522.384,56.777 C 522.384,55.983 522.364,55.496 522.327,55.313 C 522.288,55.131 522.23,55.007 522.151,54.941 C 522.073,54.875 521.967,54.842 521.836,54.842 C 521.73,54.842 521.557,54.883 521.318,54.964 L 521.212,54.683 L 523.299,53.839 L 523.648,53.839 L 523.648,53.841 z "
         id="path549" />
      <path
         d="M 531.807,57.482 L 531.807,63.091 C 531.807,63.526 531.839,63.816 531.903,63.959 C 531.966,64.104 532.06,64.211 532.185,64.281 C 532.31,64.352 532.539,64.387 532.87,64.387 L 532.87,64.668 L 529.479,64.668 L 529.479,64.387 C 529.818,64.387 530.045,64.354 530.162,64.288 C 530.279,64.223 530.371,64.114 530.439,63.962 C 530.507,63.811 530.542,63.52 530.542,63.09 L 530.542,60.387 C 530.542,59.634 530.52,59.147 530.474,58.924 C 530.438,58.762 530.382,58.65 530.306,58.586 C 530.23,58.523 530.126,58.491 529.994,58.491 C 529.851,58.491 529.68,58.529 529.476,58.605 L 529.37,58.324 L 531.473,57.48 L 531.807,57.48 L 531.807,57.482 z M 531.178,53.841 C 531.392,53.841 531.573,53.916 531.723,54.066 C 531.872,54.216 531.948,54.398 531.948,54.611 C 531.948,54.824 531.873,55.007 531.723,55.16 C 531.573,55.312 531.392,55.389 531.178,55.389 C 530.964,55.389 530.782,55.313 530.629,55.16 C 530.476,55.007 530.4,54.825 530.4,54.611 C 530.4,54.397 530.475,54.216 530.625,54.066 C 530.775,53.917 530.959,53.841 531.178,53.841 z "
         id="path551" />
      <path
         d="M 538.25,57.482 L 538.25,59.857 L 538,59.857 C 537.808,59.113 537.561,58.606 537.259,58.337 C 536.957,58.069 536.573,57.935 536.108,57.935 C 535.754,57.935 535.466,58.029 535.25,58.216 C 535.031,58.404 534.923,58.612 534.923,58.839 C 534.923,59.123 535.003,59.366 535.164,59.569 C 535.318,59.777 535.639,59.997 536.121,60.231 L 537.234,60.771 C 538.265,61.273 538.782,61.936 538.782,62.757 C 538.782,63.391 538.542,63.903 538.061,64.291 C 537.581,64.679 537.042,64.873 536.448,64.873 C 536.021,64.873 535.533,64.799 534.984,64.65 C 534.816,64.601 534.679,64.576 534.572,64.576 C 534.455,64.576 534.363,64.638 534.298,64.764 L 534.048,64.764 L 534.048,62.28 L 534.298,62.28 C 534.441,62.988 534.713,63.522 535.115,63.882 C 535.516,64.241 535.967,64.421 536.466,64.421 C 536.818,64.421 537.104,64.318 537.325,64.113 C 537.546,63.908 537.657,63.661 537.657,63.372 C 537.657,63.023 537.533,62.729 537.285,62.491 C 537.037,62.253 536.545,61.952 535.806,61.59 C 535.068,61.227 534.585,60.898 534.358,60.603 C 534.13,60.313 534.016,59.948 534.016,59.505 C 534.016,58.93 534.212,58.449 534.607,58.063 C 535,57.677 535.509,57.483 536.134,57.483 C 536.407,57.483 536.74,57.543 537.132,57.663 C 537.391,57.741 537.564,57.78 537.65,57.78 C 537.731,57.78 537.795,57.762 537.84,57.725 C 537.886,57.689 537.939,57.608 538,57.483 L 538.25,57.483 L 538.25,57.482 z "
         id="path553" />
      <path
         d="M 546.112,57.482 L 546.112,63.091 C 546.112,63.526 546.144,63.816 546.208,63.959 C 546.271,64.104 546.365,64.211 546.49,64.281 C 546.615,64.352 546.844,64.387 547.175,64.387 L 547.175,64.668 L 543.784,64.668 L 543.784,64.387 C 544.123,64.387 544.35,64.354 544.467,64.288 C 544.584,64.223 544.676,64.114 544.744,63.962 C 544.812,63.811 544.847,63.52 544.847,63.09 L 544.847,60.387 C 544.847,59.634 544.825,59.147 544.779,58.924 C 544.743,58.762 544.687,58.65 544.611,58.586 C 544.535,58.523 544.431,58.491 544.299,58.491 C 544.156,58.491 543.985,58.529 543.781,58.605 L 543.675,58.324 L 545.778,57.48 L 546.112,57.48 L 546.112,57.482 z M 545.483,53.841 C 545.697,53.841 545.878,53.916 546.028,54.066 C 546.177,54.216 546.253,54.398 546.253,54.611 C 546.253,54.824 546.178,55.007 546.028,55.16 C 545.878,55.312 545.697,55.389 545.483,55.389 C 545.269,55.389 545.087,55.313 544.934,55.16 C 544.781,55.007 544.705,54.825 544.705,54.611 C 544.705,54.397 544.78,54.216 544.93,54.066 C 545.08,53.917 545.264,53.841 545.483,53.841 z "
         id="path555" />
      <path
         d="M 552.556,57.482 L 552.556,59.857 L 552.306,59.857 C 552.114,59.113 551.867,58.606 551.565,58.337 C 551.263,58.069 550.879,57.935 550.414,57.935 C 550.06,57.935 549.773,58.029 549.555,58.216 C 549.338,58.404 549.229,58.612 549.229,58.839 C 549.229,59.123 549.309,59.366 549.469,59.569 C 549.625,59.777 549.944,59.997 550.427,60.231 L 551.54,60.771 C 552.572,61.273 553.088,61.936 553.088,62.757 C 553.088,63.391 552.848,63.903 552.367,64.291 C 551.887,64.679 551.348,64.873 550.754,64.873 C 550.327,64.873 549.839,64.799 549.29,64.65 C 549.122,64.601 548.984,64.576 548.878,64.576 C 548.761,64.576 548.67,64.638 548.604,64.764 L 548.354,64.764 L 548.354,62.28 L 548.604,62.28 C 548.747,62.988 549.019,63.522 549.42,63.882 C 549.822,64.241 550.274,64.421 550.772,64.421 C 551.124,64.421 551.41,64.318 551.631,64.113 C 551.852,63.908 551.963,63.661 551.963,63.372 C 551.963,63.023 551.839,62.729 551.591,62.491 C 551.343,62.253 550.85,61.952 550.112,61.59 C 549.374,61.227 548.891,60.898 548.664,60.603 C 548.435,60.313 548.322,59.948 548.322,59.505 C 548.322,58.93 548.519,58.449 548.912,58.063 C 549.307,57.677 549.815,57.483 550.44,57.483 C 550.714,57.483 551.046,57.543 551.438,57.663 C 551.697,57.741 551.87,57.78 551.956,57.78 C 552.037,57.78 552.101,57.762 552.146,57.725 C 552.192,57.689 552.246,57.608 552.306,57.483 L 552.556,57.483 L 552.556,57.482 z "
         id="path557" />
      <path
         d="M 559.933,58.902 C 560.606,57.956 561.332,57.482 562.112,57.482 C 562.826,57.482 563.449,57.788 563.98,58.399 C 564.511,59.01 564.777,59.846 564.777,60.907 C 564.777,62.145 564.366,63.142 563.545,63.898 C 562.84,64.548 562.054,64.873 561.187,64.873 C 560.781,64.873 560.369,64.799 559.951,64.651 C 559.532,64.503 559.104,64.281 558.669,63.984 L 558.669,56.779 C 558.669,55.987 558.649,55.5 558.611,55.317 C 558.573,55.134 558.512,55.009 558.431,54.944 C 558.349,54.878 558.246,54.844 558.124,54.844 C 557.98,54.844 557.802,54.885 557.588,54.966 L 557.481,54.685 L 559.589,53.841 L 559.934,53.841 L 559.934,58.902 L 559.933,58.902 z M 559.933,59.387 L 559.933,63.544 C 560.191,63.797 560.458,63.988 560.734,64.117 C 561.01,64.246 561.293,64.31 561.582,64.31 C 562.042,64.31 562.471,64.057 562.869,63.551 C 563.265,63.046 563.465,62.31 563.465,61.344 C 563.465,60.454 563.266,59.77 562.869,59.292 C 562.471,58.814 562.019,58.575 561.514,58.575 C 561.244,58.575 560.977,58.643 560.708,58.78 C 560.505,58.881 560.248,59.084 559.933,59.387 z "
         id="path559" />
      <path
         d="M 567.858,57.482 L 567.858,59.044 C 568.439,58.002 569.035,57.482 569.646,57.482 C 569.923,57.482 570.154,57.567 570.335,57.736 C 570.517,57.906 570.607,58.101 570.607,58.324 C 570.607,58.521 570.542,58.688 570.411,58.824 C 570.28,58.96 570.124,59.029 569.943,59.029 C 569.766,59.029 569.569,58.943 569.348,58.771 C 569.127,58.599 568.965,58.513 568.859,58.513 C 568.768,58.513 568.669,58.564 568.563,58.664 C 568.334,58.871 568.1,59.211 567.857,59.685 L 567.857,63.044 C 567.857,63.428 567.905,63.718 568.002,63.915 C 568.068,64.051 568.185,64.164 568.353,64.254 C 568.521,64.343 568.761,64.388 569.077,64.388 L 569.077,64.669 L 565.499,64.669 L 565.499,64.388 C 565.853,64.388 566.117,64.332 566.289,64.22 C 566.416,64.139 566.504,64.009 566.555,63.831 C 566.58,63.744 566.593,63.498 566.593,63.091 L 566.593,60.388 C 566.593,59.576 566.576,59.093 566.543,58.938 C 566.51,58.783 566.449,58.67 566.36,58.599 C 566.271,58.528 566.162,58.493 566.029,58.493 C 565.872,58.493 565.695,58.531 565.497,58.607 L 565.421,58.326 L 567.537,57.482 L 567.858,57.482 L 567.858,57.482 z "
         id="path561" />
      <path
         d="M 573.412,57.482 L 573.412,63.091 C 573.412,63.526 573.443,63.816 573.508,63.959 C 573.571,64.104 573.666,64.211 573.791,64.281 C 573.915,64.352 574.144,64.387 574.475,64.387 L 574.475,64.668 L 571.084,64.668 L 571.084,64.387 C 571.423,64.387 571.65,64.354 571.768,64.288 C 571.883,64.223 571.976,64.114 572.044,63.962 C 572.112,63.811 572.147,63.52 572.147,63.09 L 572.147,60.387 C 572.147,59.634 572.124,59.147 572.079,58.924 C 572.043,58.762 571.987,58.65 571.911,58.586 C 571.835,58.523 571.731,58.491 571.599,58.491 C 571.457,58.491 571.285,58.529 571.081,58.605 L 570.975,58.324 L 573.078,57.48 L 573.412,57.48 L 573.412,57.482 z M 572.783,53.841 C 572.996,53.841 573.178,53.916 573.328,54.066 C 573.477,54.216 573.553,54.398 573.553,54.611 C 573.553,54.824 573.478,55.007 573.328,55.16 C 573.178,55.312 572.996,55.389 572.783,55.389 C 572.57,55.389 572.387,55.313 572.234,55.16 C 572.081,55.007 572.005,54.825 572.005,54.611 C 572.005,54.397 572.079,54.216 572.23,54.066 C 572.38,53.917 572.564,53.841 572.783,53.841 z "
         id="path563" />
      <path
         d="M 577.747,53.841 L 577.747,63.091 C 577.747,63.526 577.778,63.814 577.842,63.956 C 577.906,64.098 578.003,64.205 578.135,64.278 C 578.267,64.351 578.512,64.388 578.872,64.388 L 578.872,64.669 L 575.45,64.669 L 575.45,64.388 C 575.771,64.388 575.99,64.355 576.107,64.289 C 576.224,64.224 576.315,64.115 576.381,63.963 C 576.447,63.812 576.481,63.521 576.481,63.091 L 576.481,56.747 C 576.481,55.967 576.463,55.488 576.427,55.309 C 576.392,55.13 576.335,55.008 576.256,54.942 C 576.178,54.877 576.077,54.843 575.956,54.843 C 575.823,54.843 575.656,54.884 575.454,54.965 L 575.324,54.684 L 577.403,53.84 L 577.747,53.84 L 577.747,53.841 z "
         id="path565" />
      <path
         d="M 582.081,53.841 L 582.081,63.091 C 582.081,63.526 582.112,63.814 582.176,63.956 C 582.24,64.098 582.337,64.205 582.469,64.278 C 582.601,64.351 582.846,64.388 583.206,64.388 L 583.206,64.669 L 579.784,64.669 L 579.784,64.388 C 580.105,64.388 580.324,64.355 580.441,64.289 C 580.558,64.224 580.649,64.115 580.715,63.963 C 580.781,63.812 580.815,63.521 580.815,63.091 L 580.815,56.747 C 580.815,55.967 580.797,55.488 580.761,55.309 C 580.726,55.13 580.669,55.008 580.59,54.942 C 580.512,54.877 580.411,54.843 580.29,54.843 C 580.157,54.843 579.99,54.884 579.788,54.965 L 579.658,54.684 L 581.737,53.84 L 582.081,53.84 L 582.081,53.841 z "
         id="path567" />
      <path
         d="M 586.415,57.482 L 586.415,63.091 C 586.415,63.526 586.447,63.816 586.511,63.959 C 586.574,64.104 586.668,64.211 586.793,64.281 C 586.918,64.352 587.147,64.387 587.478,64.387 L 587.478,64.668 L 584.087,64.668 L 584.087,64.387 C 584.426,64.387 584.653,64.354 584.77,64.288 C 584.887,64.223 584.979,64.114 585.047,63.962 C 585.115,63.811 585.15,63.52 585.15,63.09 L 585.15,60.387 C 585.15,59.634 585.128,59.147 585.082,58.924 C 585.046,58.762 584.99,58.65 584.914,58.586 C 584.838,58.523 584.734,58.491 584.602,58.491 C 584.459,58.491 584.288,58.529 584.084,58.605 L 583.978,58.324 L 586.081,57.48 L 586.415,57.48 L 586.415,57.482 z M 585.786,53.841 C 586,53.841 586.181,53.916 586.331,54.066 C 586.48,54.216 586.556,54.398 586.556,54.611 C 586.556,54.824 586.481,55.007 586.331,55.16 C 586.181,55.312 586,55.389 585.786,55.389 C 585.572,55.389 585.39,55.313 585.237,55.16 C 585.084,55.007 585.008,54.825 585.008,54.611 C 585.008,54.397 585.083,54.216 585.233,54.066 C 585.382,53.917 585.567,53.841 585.786,53.841 z "
         id="path569" />
      <path
         d="M 592.295,63.653 C 591.577,64.21 591.128,64.532 590.944,64.619 C 590.67,64.746 590.378,64.81 590.067,64.81 C 589.584,64.81 589.186,64.645 588.873,64.314 C 588.561,63.983 588.404,63.547 588.404,63.007 C 588.404,62.666 588.48,62.371 588.633,62.121 C 588.842,61.775 589.204,61.449 589.72,61.143 C 590.237,60.837 591.095,60.466 592.295,60.028 L 592.295,59.756 C 592.295,59.066 592.185,58.592 591.964,58.336 C 591.743,58.08 591.423,57.95 591.001,57.95 C 590.682,57.95 590.429,58.036 590.241,58.208 C 590.048,58.38 589.952,58.577 589.952,58.799 L 589.967,59.238 C 589.967,59.47 589.906,59.65 589.786,59.776 C 589.666,59.902 589.509,59.965 589.314,59.965 C 589.125,59.965 588.969,59.9 588.85,59.768 C 588.729,59.636 588.669,59.456 588.669,59.228 C 588.669,58.792 588.893,58.393 589.339,58.028 C 589.786,57.664 590.413,57.481 591.221,57.481 C 591.84,57.481 592.348,57.585 592.744,57.793 C 593.044,57.95 593.265,58.196 593.406,58.531 C 593.498,58.75 593.544,59.196 593.544,59.872 L 593.544,62.24 C 593.544,62.906 593.557,63.313 593.582,63.463 C 593.607,63.613 593.65,63.713 593.709,63.764 C 593.768,63.815 593.835,63.84 593.912,63.84 C 593.993,63.84 594.064,63.822 594.127,63.787 C 594.233,63.721 594.44,63.536 594.747,63.231 L 594.747,63.658 C 594.178,64.415 593.635,64.794 593.117,64.794 C 592.867,64.794 592.67,64.708 592.522,64.535 C 592.374,64.362 592.3,64.069 592.295,63.653 z M 592.295,63.157 L 592.295,60.497 C 591.523,60.802 591.024,61.018 590.798,61.144 C 590.394,61.368 590.105,61.602 589.931,61.846 C 589.757,62.09 589.67,62.356 589.67,62.646 C 589.67,63.011 589.78,63.315 590,63.556 C 590.22,63.798 590.474,63.918 590.76,63.918 C 591.149,63.919 591.661,63.666 592.295,63.157 z "
         id="path571" />
      <path
         d="M 597.313,58.946 C 598.13,57.97 598.909,57.482 599.65,57.482 C 600.03,57.482 600.357,57.578 600.631,57.768 C 600.905,57.958 601.123,58.272 601.286,58.709 C 601.397,59.014 601.453,59.481 601.453,60.111 L 601.453,63.091 C 601.453,63.531 601.488,63.829 601.559,63.986 C 601.615,64.112 601.704,64.211 601.829,64.281 C 601.952,64.352 602.182,64.387 602.516,64.387 L 602.516,64.668 L 599.063,64.668 L 599.063,64.387 L 599.208,64.387 C 599.532,64.387 599.759,64.338 599.889,64.239 C 600.018,64.14 600.108,63.995 600.159,63.803 C 600.179,63.727 600.189,63.49 600.189,63.09 L 600.189,60.222 C 600.189,59.585 600.107,59.122 599.942,58.834 C 599.778,58.546 599.501,58.402 599.112,58.402 C 598.51,58.402 597.911,58.733 597.314,59.395 L 597.314,63.089 C 597.314,63.559 597.342,63.85 597.398,63.961 C 597.469,64.107 597.568,64.215 597.693,64.283 C 597.818,64.351 598.072,64.386 598.455,64.386 L 598.455,64.667 L 594.986,64.667 L 594.986,64.386 L 595.139,64.386 C 595.495,64.386 595.736,64.296 595.861,64.116 C 595.986,63.937 596.049,63.595 596.049,63.089 L 596.049,60.48 C 596.049,59.648 596.03,59.142 595.991,58.96 C 595.954,58.778 595.895,58.655 595.816,58.589 C 595.738,58.524 595.632,58.49 595.501,58.49 C 595.358,58.49 595.189,58.528 594.991,58.604 L 594.877,58.323 L 596.985,57.479 L 597.314,57.479 L 597.314,58.946 L 597.313,58.946 z "
         id="path573" />
      <path
         d="M 605.098,55.388 L 605.098,57.685 L 606.728,57.685 L 606.728,58.201 L 605.098,58.217 L 605.098,62.739 C 605.098,63.191 605.162,63.495 605.292,63.653 C 605.421,63.81 605.588,63.889 605.791,63.889 C 605.958,63.889 606.121,63.838 606.278,63.735 C 606.436,63.632 606.557,63.481 606.644,63.28 L 606.941,63.28 C 606.762,63.778 606.51,64.152 606.184,64.403 C 605.858,64.654 605.522,64.78 605.176,64.78 C 604.942,64.78 604.712,64.715 604.488,64.585 C 604.263,64.455 604.098,64.269 603.991,64.027 C 603.885,63.785 603.831,63.412 603.831,62.907 L 603.831,58.201 L 602.722,58.201 L 602.722,57.958 C 603.002,57.847 603.289,57.66 603.583,57.396 C 603.877,57.131 604.139,56.816 604.37,56.45 C 604.488,56.257 604.652,55.903 604.862,55.389 L 605.098,55.389 L 605.098,55.388 z "
         id="path575" />
      <path
         d="M 608.87,63.185 C 609.108,63.185 609.308,63.268 609.471,63.432 C 609.633,63.597 609.714,63.796 609.714,64.029 C 609.714,64.262 609.631,64.461 609.467,64.626 C 609.302,64.791 609.104,64.873 608.87,64.873 C 608.636,64.873 608.437,64.79 608.273,64.626 C 608.108,64.461 608.026,64.263 608.026,64.029 C 608.026,63.791 608.108,63.591 608.273,63.428 C 608.437,63.266 608.636,63.185 608.87,63.185 z "
         id="path577" />
    </g>
  </g>
</svg>
