<?xml version="1.0" encoding="UTF-8" standalone="no"?>
<!-- Created with Inkscape (http://www.inkscape.org/) -->
<svg
   xmlns:dc="http://purl.org/dc/elements/1.1/"
   xmlns:cc="http://web.resource.org/cc/"
   xmlns:rdf="http://www.w3.org/1999/02/22-rdf-syntax-ns#"
   xmlns:svg="http://www.w3.org/2000/svg"
   xmlns="http://www.w3.org/2000/svg"
   xmlns:sodipodi="http://sodipodi.sourceforge.net/DTD/sodipodi-0.dtd"
   xmlns:inkscape="http://www.inkscape.org/namespaces/inkscape"
   width="142.73199"
   height="163.41399"
   id="svg2722"
   sodipodi:version="0.32"
   inkscape:version="0.45.1"
   version="1.0"
   sodipodi:docbase="/Users/robmyers/Desktop/cc-ironies/final"
   sodipodi:docname="price_tag.svg"
   inkscape:output_extension="org.inkscape.output.svg.inkscape">
  <defs
     id="defs2724" />
  <sodipodi:namedview
     id="base"
     pagecolor="#ffffff"
     bordercolor="#666666"
     borderopacity="1.0"
     gridtolerance="10000"
     guidetolerance="10"
     objecttolerance="10"
     inkscape:pageopacity="0.0"
     inkscape:pageshadow="2"
     inkscape:zoom="2.3131435"
     inkscape:cx="71.365997"
     inkscape:cy="81.706993"
     inkscape:document-units="px"
     inkscape:current-layer="layer1"
     inkscape:window-width="697"
     inkscape:window-height="581"
     inkscape:window-x="16"
     inkscape:window-y="48" />
  <metadata
     id="metadata2727">
    <rdf:RDF>
      <cc:Work
         rdf:about="">
        <dc:format>image/svg+xml</dc:format>
        <dc:type
           rdf:resource="http://purl.org/dc/dcmitype/StillImage" />
      </cc:Work>
    </rdf:RDF>
  </metadata>
  <g
     inkscape:label="Layer 1"
     inkscape:groupmode="layer"
     id="layer1"
     transform="translate(299.93744,-659.19269)">
    <rect
       x="-299.43744"
       y="659.69269"
       style="fill:#ffffff;stroke:#000000"
       width="141.73199"
       height="141.73199"
       id="rect197" />
    <g
       id="g199"
       transform="matrix(0.5,0,0,0.5,-300.18743,729.43718)">
      <path
         id="path3817_6_"
         style="fill:#aab2ab"
         d="M 3.073,154.975 L 88.621,155.126 C 89.816,155.126 90.884,154.948 90.884,157.512 L 90.78,185.688 L 0.914,185.688 L 0.914,157.41 C 0.914,156.145 1.036,154.975 3.073,154.975 z " />
      <path
         d="M 89.369,154.639 L 2.196,154.639 C 1.261,154.639 0.5,155.4 0.5,156.333 L 0.5,185.956 C 0.5,186.167 0.672,186.339 0.883,186.339 L 90.681,186.339 C 90.892,186.339 91.064,186.167 91.064,185.956 L 91.064,156.333 C 91.064,155.4 90.303,154.639 89.369,154.639 z M 2.196,155.406 L 89.368,155.406 C 89.881,155.406 90.297,155.822 90.297,156.336 C 90.297,156.336 90.297,168.254 90.297,176.877 L 27.993,176.877 C 25.709,181.006 21.309,183.812 16.26,183.812 C 11.209,183.812 6.81,181.008 4.528,176.877 L 1.267,176.877 C 1.267,168.254 1.267,156.336 1.267,156.336 C 1.267,155.822 1.684,155.406 2.196,155.406 z "
         id="path202" />
      <g
         id="g5908_6_">
        <path
           id="path5906_6_"
           style="fill:#ffffff"
           d="M 26.555,169.391 C 26.559,175.074 21.954,179.683 16.271,179.687 C 10.588,179.69 5.979,175.085 5.975,169.403 C 5.975,169.399 5.975,169.395 5.975,169.391 C 5.971,163.706 10.576,159.098 16.259,159.094 C 21.943,159.091 26.552,163.697 26.555,169.378 C 26.555,169.382 26.555,169.386 26.555,169.391 z " />
        <g
           id="g5706_6_">
          <path
             d="M 24.63,161.009 C 26.911,163.29 28.053,166.085 28.053,169.391 C 28.053,172.697 26.931,175.46 24.689,177.684 C 22.309,180.026 19.496,181.196 16.25,181.196 C 13.043,181.196 10.279,180.037 7.959,177.715 C 5.637,175.396 4.477,172.619 4.477,169.395 C 4.477,166.171 5.637,163.374 7.959,161.01 C 10.221,158.731 12.985,157.586 16.25,157.586 C 19.555,157.585 22.348,158.727 24.63,161.009 z M 9.494,162.544 C 7.565,164.491 6.6,166.773 6.6,169.394 C 6.6,172.011 7.555,174.275 9.464,176.184 C 11.374,178.091 13.647,179.046 16.284,179.046 C 18.921,179.046 21.214,178.083 23.163,176.151 C 25.013,174.36 25.938,172.106 25.938,169.39 C 25.938,166.694 24.998,164.407 23.118,162.526 C 21.239,160.646 18.961,159.708 16.285,159.708 C 13.609,159.708 11.344,160.656 9.494,162.544 z M 14.571,168.244 C 14.277,167.599 13.836,167.278 13.247,167.278 C 12.207,167.278 11.687,167.979 11.687,169.381 C 11.687,170.781 12.207,171.483 13.247,171.483 C 13.934,171.483 14.425,171.142 14.719,170.462 L 16.161,171.231 C 15.473,172.453 14.442,173.063 13.067,173.063 C 12.006,173.063 11.157,172.739 10.519,172.087 C 9.88,171.438 9.561,170.54 9.561,169.399 C 9.561,168.276 9.891,167.384 10.548,166.724 C 11.206,166.063 12.026,165.734 13.008,165.734 C 14.462,165.734 15.502,166.306 16.132,167.451 L 14.571,168.244 z M 21.356,168.244 C 21.061,167.599 20.628,167.278 20.058,167.278 C 18.997,167.278 18.466,167.979 18.466,169.381 C 18.466,170.781 18.997,171.483 20.058,171.483 C 20.746,171.483 21.228,171.142 21.503,170.462 L 22.978,171.231 C 22.291,172.453 21.262,173.063 19.889,173.063 C 18.83,173.063 17.983,172.739 17.345,172.087 C 16.708,171.438 16.389,170.54 16.389,169.399 C 16.389,168.276 16.713,167.384 17.36,166.724 C 18.007,166.063 18.83,165.734 19.83,165.734 C 21.281,165.734 22.32,166.306 22.947,167.451 L 21.356,168.244 z "
             id="path207" />
        </g>
      </g>
      <g
         id="g370"
         style="enable-background:new">
        <path
           style="fill:#ffffff"
           d="M 36.796,179.356 C 37.034,179.356 37.253,179.377 37.449,179.418 C 37.645,179.461 37.813,179.529 37.953,179.625 C 38.093,179.724 38.202,179.851 38.279,180.006 C 38.356,180.164 38.395,180.36 38.395,180.594 C 38.395,180.849 38.338,181.058 38.223,181.226 C 38.109,181.395 37.94,181.532 37.715,181.64 C 38.024,181.728 38.255,181.881 38.407,182.105 C 38.559,182.331 38.636,182.592 38.636,182.909 C 38.636,183.163 38.587,183.38 38.489,183.562 C 38.39,183.749 38.258,183.897 38.093,184.01 C 37.927,184.127 37.737,184.213 37.525,184.273 C 37.312,184.333 37.093,184.357 36.869,184.357 L 34.44,184.357 L 34.44,179.359 L 36.796,179.356 L 36.796,179.356 z M 36.656,181.376 C 36.851,181.376 37.013,181.329 37.139,181.233 C 37.265,181.141 37.328,180.993 37.328,180.782 C 37.328,180.667 37.307,180.568 37.265,180.497 C 37.223,180.421 37.167,180.364 37.097,180.319 C 37.027,180.277 36.946,180.251 36.855,180.231 C 36.764,180.213 36.669,180.21 36.571,180.21 L 35.541,180.21 L 35.541,181.376 L 36.656,181.376 L 36.656,181.376 z M 36.72,183.5 C 36.828,183.5 36.93,183.49 37.029,183.469 C 37.128,183.449 37.214,183.412 37.289,183.365 C 37.364,183.316 37.423,183.25 37.468,183.166 C 37.513,183.082 37.535,182.977 37.535,182.844 C 37.535,182.588 37.462,182.406 37.318,182.295 C 37.172,182.188 36.982,182.131 36.743,182.131 L 35.543,182.131 L 35.543,183.502 L 36.72,183.502 L 36.72,183.5 L 36.72,183.5 z "
           id="path210" />
        <polygon
           id="path374"
           style="fill:#ffffff"
           points="38.829,179.356 40.062,179.356 41.232,181.33 42.396,179.356 43.621,179.356 41.766,182.436 41.766,184.354 40.664,184.354 40.664,182.408 38.829,179.356 " />
      </g>
      <g
         id="g376"
         style="enable-background:new">
        <polygon
           id="path378"
           style="fill:#ffffff"
           points="55.229,179.356 57.317,182.708 57.329,182.708 57.329,179.356 58.36,179.356 58.36,184.354 57.261,184.354 55.181,181.007 55.167,181.007 55.167,184.354 54.136,184.354 54.136,179.356 55.229,179.356 " />
        <path
           id="path380"
           style="fill:#ffffff"
           d="M 62.533,180.688 C 62.468,180.584 62.386,180.49 62.287,180.412 C 62.189,180.332 62.079,180.269 61.955,180.225 C 61.831,180.18 61.701,180.16 61.566,180.16 C 61.319,180.16 61.108,180.207 60.936,180.306 C 60.763,180.401 60.623,180.53 60.517,180.69 C 60.409,180.852 60.33,181.038 60.282,181.241 C 60.234,181.445 60.209,181.659 60.209,181.88 C 60.209,182.089 60.233,182.294 60.282,182.489 C 60.331,182.687 60.409,182.868 60.517,183.024 C 60.623,183.183 60.764,183.309 60.936,183.407 C 61.109,183.505 61.319,183.552 61.566,183.552 C 61.902,183.552 62.165,183.448 62.354,183.243 C 62.543,183.038 62.659,182.764 62.7,182.431 L 63.764,182.431 C 63.736,182.743 63.663,183.028 63.547,183.28 C 63.431,183.533 63.276,183.748 63.085,183.926 C 62.894,184.107 62.669,184.239 62.412,184.334 C 62.156,184.428 61.873,184.477 61.565,184.477 C 61.182,184.477 60.838,184.413 60.532,184.277 C 60.226,184.145 59.968,183.964 59.758,183.727 C 59.547,183.497 59.386,183.217 59.274,182.905 C 59.162,182.591 59.106,182.253 59.106,181.884 C 59.106,181.509 59.163,181.163 59.274,180.843 C 59.386,180.526 59.547,180.243 59.758,180.007 C 59.968,179.771 60.227,179.581 60.532,179.445 C 60.838,179.309 61.182,179.243 61.565,179.243 C 61.84,179.243 62.101,179.281 62.346,179.361 C 62.59,179.44 62.81,179.555 63.003,179.71 C 63.197,179.86 63.357,180.05 63.483,180.272 C 63.609,180.494 63.688,180.752 63.721,181.043 L 62.657,181.043 C 62.641,180.908 62.598,180.792 62.533,180.688 z " />
      </g>
      <g
         id="g382"
         style="enable-background:new">
        <polygon
           id="path384"
           style="fill:#ffffff"
           points="74.729,179.356 76.817,182.708 76.829,182.708 76.829,179.356 77.86,179.356 77.86,184.354 76.761,184.354 74.681,181.007 74.667,181.007 74.667,184.354 73.636,184.354 73.636,179.356 74.729,179.356 " />
        <path
           style="fill:#ffffff"
           d="M 80.981,179.356 C 81.304,179.356 81.604,179.408 81.882,179.509 C 82.16,179.612 82.401,179.766 82.604,179.971 C 82.807,180.175 82.966,180.434 83.081,180.742 C 83.196,181.051 83.253,181.412 83.253,181.828 C 83.253,182.191 83.206,182.526 83.113,182.836 C 83.019,183.147 82.878,183.41 82.689,183.633 C 82.499,183.86 82.264,184.035 81.981,184.162 C 81.699,184.291 81.366,184.354 80.982,184.354 L 78.824,184.354 L 78.824,179.356 L 80.981,179.356 z M 80.905,183.428 C 81.064,183.428 81.218,183.403 81.367,183.351 C 81.516,183.298 81.649,183.214 81.766,183.096 C 81.883,182.977 81.976,182.824 82.047,182.63 C 82.116,182.44 82.151,182.206 82.151,181.932 C 82.151,181.68 82.127,181.453 82.078,181.249 C 82.029,181.046 81.948,180.872 81.836,180.728 C 81.724,180.583 81.576,180.472 81.391,180.396 C 81.206,180.319 80.979,180.283 80.708,180.283 L 79.924,180.283 L 79.924,183.429 L 80.905,183.429 L 80.905,183.428 z "
           id="path218" />
      </g>
      <g
         id="g6370_1_">
        <g
           id="g7610_1_">
          <path
             id="path6372_1_"
             style="fill:#ffffff"
             d="M 66.764,165.946 C 66.768,170.098 63.405,173.467 59.252,173.468 C 55.101,173.471 51.733,170.108 51.731,165.956 C 51.731,165.952 51.731,165.948 51.731,165.942 C 51.728,161.794 55.091,158.421 59.243,158.421 C 63.395,158.419 66.762,161.78 66.764,165.934 C 66.764,165.938 66.764,165.943 66.764,165.946 z " />
          <path
             d="M 59.235,157.195 C 61.689,157.195 63.763,158.041 65.457,159.732 C 67.151,161.423 67.999,163.498 67.999,165.946 C 67.999,168.396 67.166,170.446 65.501,172.093 C 63.734,173.829 61.645,174.698 59.235,174.698 C 56.855,174.698 54.803,173.837 53.08,172.116 C 51.357,170.392 50.495,168.339 50.495,165.943 C 50.495,163.549 51.356,161.479 53.08,159.729 C 54.76,158.041 56.812,157.195 59.235,157.195 z M 52.464,163.593 C 52.203,164.333 52.072,165.116 52.072,165.946 C 52.072,167.886 52.781,169.563 54.197,170.979 C 55.614,172.393 57.3,173.1 59.257,173.1 C 61.214,173.1 62.915,172.384 64.361,170.954 C 64.845,170.485 65.245,169.975 65.557,169.425 L 62.257,167.956 C 62.034,169.063 61.044,169.812 59.849,169.9 L 59.849,171.253 L 58.844,171.253 L 58.844,169.9 C 57.862,169.889 56.913,169.489 56.188,168.852 L 57.394,167.637 C 57.974,168.183 58.555,168.428 59.348,168.428 C 59.861,168.428 60.43,168.227 60.43,167.559 C 60.43,167.325 60.339,167.159 60.195,167.036 L 59.36,166.665 L 58.321,166.202 C 57.807,165.973 57.371,165.776 56.935,165.585 L 52.464,163.593 z M 59.258,158.77 C 57.271,158.77 55.592,159.468 54.219,160.871 C 53.846,161.248 53.521,161.642 53.245,162.053 L 56.59,163.543 C 56.893,162.615 57.775,162.051 58.845,161.99 L 58.845,160.639 L 59.85,160.639 L 59.85,161.99 C 60.542,162.022 61.301,162.213 62.049,162.791 L 60.899,163.977 C 60.475,163.674 59.94,163.461 59.404,163.461 C 58.968,163.461 58.354,163.594 58.354,164.144 C 58.354,164.227 58.382,164.297 58.433,164.368 L 59.552,164.864 L 60.309,165.204 C 60.793,165.421 61.256,165.626 61.714,165.829 L 66.198,167.823 C 66.346,167.237 66.421,166.612 66.421,165.952 C 66.421,163.954 65.72,162.263 64.318,160.876 C 62.931,159.468 61.244,158.77 59.258,158.77 z "
             id="path223" />
        </g>
      </g>
      <g
         id="g6394_1_">
        <path
           id="path6396_1_"
           style="fill:#ffffff"
           d="M 87.04,165.946 C 87.044,170.358 83.47,173.937 79.059,173.941 C 74.647,173.944 71.067,170.371 71.064,165.959 C 71.064,165.955 71.064,165.951 71.064,165.946 C 71.061,161.535 74.635,157.957 79.047,157.953 C 83.458,157.949 87.037,161.522 87.04,165.934 C 87.04,165.938 87.04,165.942 87.04,165.946 z " />
        <g
           id="g6398_1_">
          <path
             d="M 78.927,157.195 C 76.503,157.195 74.45,158.041 72.771,159.732 C 71.047,161.482 70.186,163.553 70.186,165.946 C 70.186,168.34 71.047,170.395 72.771,172.117 C 74.494,173.838 76.546,174.699 78.927,174.699 C 81.337,174.699 83.425,173.83 85.192,172.095 C 86.856,170.449 87.69,168.398 87.69,165.949 C 87.69,163.5 86.843,161.428 85.148,159.734 C 83.453,158.04 81.38,157.195 78.927,157.195 z M 78.948,158.769 C 80.934,158.769 82.621,159.468 84.01,160.871 C 85.411,162.256 86.112,163.949 86.112,165.946 C 86.112,167.961 85.426,169.631 84.054,170.957 C 82.607,172.389 80.906,173.103 78.949,173.103 C 76.992,173.103 75.305,172.396 73.889,170.98 C 72.472,169.566 71.764,167.888 71.764,165.951 C 71.764,164.012 72.479,162.317 73.911,160.875 C 75.283,159.468 76.962,158.769 78.948,158.769 z "
             id="path228" />
          <g
             id="g6402_1_">
            <path
               d="M 82.244,163.873 L 75.883,163.873 L 75.883,165.379 L 82.244,165.379 L 82.244,163.873 z M 82.244,166.684 L 75.883,166.684 L 75.883,168.191 L 82.244,168.191 L 82.244,166.684 z "
               id="path231" />
          </g>
        </g>
      </g>
      <g
         id="g398">
        <circle
           id="circle400"
           style="fill:#ffffff"
           cx="39.566002"
           cy="166.125"
           r="8.1040001"
           sodipodi:cx="39.566002"
           sodipodi:cy="166.125"
           sodipodi:rx="8.1040001"
           sodipodi:ry="8.1040001" />
        <g
           id="g402">
          <path
             id="path404"
             d="M 41.912,163.779 C 41.912,163.467 41.659,163.215 41.347,163.215 L 37.768,163.215 C 37.456,163.215 37.203,163.469 37.203,163.779 L 37.203,167.359 L 38.2,167.359 L 38.2,171.598 L 40.913,171.598 L 40.913,167.359 L 41.912,167.359 L 41.912,163.779 L 41.912,163.779 z " />
          <circle
             id="circle406"
             cx="39.556999"
             cy="161.51801"
             r="1.226"
             sodipodi:cx="39.556999"
             sodipodi:cy="161.51801"
             sodipodi:rx="1.226"
             sodipodi:ry="1.226" />
        </g>
        <path
           d="M 39.546,157.195 C 37.122,157.195 35.07,158.041 33.391,159.733 C 31.667,161.482 30.806,163.553 30.806,165.946 C 30.806,168.338 31.667,170.395 33.391,172.117 C 35.114,173.838 37.166,174.699 39.546,174.699 C 41.955,174.699 44.044,173.83 45.812,172.094 C 47.477,170.449 48.309,168.4 48.309,165.949 C 48.309,163.498 47.462,161.428 45.768,159.735 C 44.073,158.041 42,157.195 39.546,157.195 z M 39.568,158.769 C 41.554,158.769 43.24,159.468 44.628,160.871 C 46.03,162.256 46.732,163.949 46.732,165.946 C 46.732,167.959 46.045,169.631 44.672,170.957 C 43.226,172.389 41.525,173.103 39.568,173.103 C 37.61,173.103 35.923,172.396 34.507,170.981 C 33.091,169.566 32.382,167.888 32.382,165.951 C 32.382,164.012 33.097,162.317 34.528,160.875 C 35.902,159.468 37.582,158.769 39.568,158.769 z "
           id="path238" />
      </g>
    </g>
    <g
       id="g240"
       transform="translate(-299.93743,659.19268)">
      <path
         style="fill:#0a50a1"
         d="M 137.41,73.586 C 137.41,78.471 131.855,82.43 125.006,82.43 L 17.499,82.43 C 10.649,82.43 5.095,78.471 5.095,73.586 L 5.095,47.793 C 5.095,42.91 10.65,38.95 17.499,38.95 L 125.005,38.95 C 131.855,38.95 137.409,42.909 137.409,47.793 L 137.409,73.586 L 137.41,73.586 z "
         id="path242" />
      <g
         id="g244">
        <path
           style="fill:#ffffff"
           d="M 24.624,57.008 C 26.991,59.35 28.395,60.858 28.836,61.53 C 29.629,62.763 30.025,64.115 30.025,65.585 C 30.025,67.928 29.165,69.797 27.446,71.191 C 25.727,72.587 23.613,73.284 21.103,73.284 C 20.827,73.284 20.425,73.263 19.899,73.222 L 19.207,75.597 L 17.713,75.597 L 18.458,73.041 C 17.642,72.881 16.986,72.717 16.492,72.545 C 15.998,72.373 15.201,72.012 14.101,71.459 L 15.837,65.409 L 16.525,65.409 C 16.611,67.266 16.841,68.579 17.216,69.346 C 17.591,70.113 18.179,70.745 18.98,71.243 L 21.853,61.387 C 20.111,59.73 18.923,58.315 18.289,57.143 C 17.655,55.971 17.338,54.781 17.338,53.572 C 17.338,52.4 17.653,51.275 18.284,50.197 C 18.915,49.119 19.83,48.281 21.029,47.682 C 22.228,47.084 23.504,46.785 24.853,46.785 C 25.128,46.785 25.541,46.806 26.09,46.847 L 26.4,45.785 L 27.894,45.785 L 27.522,47.065 C 29.213,47.432 30.638,47.983 31.795,48.716 L 30.024,54.159 L 29.336,54.159 C 29.473,53.339 29.542,52.673 29.542,52.163 C 29.542,51.306 29.3,50.521 28.817,49.812 C 28.484,49.311 27.917,48.859 27.115,48.456 L 24.624,57.008 z M 20.354,71.659 C 20.747,71.701 21.063,71.721 21.304,71.721 C 22.407,71.721 23.386,71.284 24.242,70.411 C 25.098,69.538 25.525,68.483 25.525,67.247 C 25.525,66.411 25.34,65.632 24.973,64.908 C 24.606,64.184 23.959,63.367 23.035,62.456 L 20.354,71.659 z M 25.726,48.097 C 24.491,48.056 23.485,48.398 22.708,49.122 C 21.919,49.86 21.524,50.793 21.524,51.918 C 21.524,53.27 22.167,54.596 23.452,55.897 L 25.726,48.097 z "
           id="path246" />
        <path
           style="fill:#ffffff"
           d="M 63.234,67.034 C 64.099,67.034 64.833,67.336 65.434,67.939 C 66.035,68.542 66.337,69.272 66.337,70.127 C 66.337,70.982 66.032,71.712 65.425,72.315 C 64.817,72.919 64.086,73.22 63.234,73.22 C 62.382,73.22 61.654,72.918 61.052,72.315 C 60.451,71.711 60.15,70.982 60.15,70.127 C 60.15,69.272 60.452,68.542 61.052,67.939 C 61.654,67.336 62.381,67.034 63.234,67.034 z "
           id="path248" />
      </g>
    </g>
  </g>
</svg>
