<?xml version="1.0" encoding="UTF-8" standalone="no"?>
<!-- Created with Inkscape (http://www.inkscape.org/) -->
<svg
   xmlns:dc="http://purl.org/dc/elements/1.1/"
   xmlns:cc="http://web.resource.org/cc/"
   xmlns:rdf="http://www.w3.org/1999/02/22-rdf-syntax-ns#"
   xmlns:svg="http://www.w3.org/2000/svg"
   xmlns="http://www.w3.org/2000/svg"
   xmlns:sodipodi="http://sodipodi.sourceforge.net/DTD/sodipodi-0.dtd"
   xmlns:inkscape="http://www.inkscape.org/namespaces/inkscape"
   width="142.73199"
   height="163.41476"
   id="svg3148"
   sodipodi:version="0.32"
   inkscape:version="0.45.1"
   sodipodi:docbase="/Users/robmyers/Desktop/cc-ironies/final"
   sodipodi:docname="red_orange_yellow.svg"
   inkscape:output_extension="org.inkscape.output.svg.inkscape"
   version="1.0">
  <defs
     id="defs3150" />
  <sodipodi:namedview
     inkscape:document-units="mm"
     pagecolor="#ffffff"
     bordercolor="#666666"
     borderopacity="1.0"
     inkscape:pageopacity="0.0"
     inkscape:pageshadow="2"
     inkscape:zoom="2.3131325"
     inkscape:cx="71.365997"
     inkscape:cy="81.707382"
     inkscape:current-layer="layer1"
     id="namedview3152"
     inkscape:window-width="697"
     inkscape:window-height="581"
     inkscape:window-x="26"
     inkscape:window-y="45" />
  <metadata
     id="metadata3154">
    <rdf:RDF>
      <cc:Work
         rdf:about="">
        <dc:format>image/svg+xml</dc:format>
        <dc:type
           rdf:resource="http://purl.org/dc/dcmitype/StillImage" />
      </cc:Work>
    </rdf:RDF>
  </metadata>
  <g
     inkscape:label="Layer 1"
     inkscape:groupmode="layer"
     id="layer1"
     transform="translate(-418.634,-270.92447)">
    <rect
       x="419.134"
       y="271.42447"
       style="fill:#ffffff;stroke:#000000"
       width="141.73199"
       height="141.73199"
       id="rect158" />
    <g
       id="g160"
       transform="matrix(0.5,0,0,0.5,88.884,341.16923)">
      <path
         id="path3817_4_"
         style="fill:#aab2ab"
         d="M 662.071,154.968 L 747.62,155.12 C 748.815,155.12 749.884,154.943 749.884,157.506 L 749.779,185.68 L 659.914,185.68 L 659.914,157.4 C 659.913,156.138 660.035,154.968 662.071,154.968 z " />
      <g
         id="g5908_4_">
        <path
           id="path5906_4_"
           style="fill:#ffffff"
           d="M 685.554,169.383 C 685.558,175.067 680.952,179.676 675.27,179.68 C 669.588,179.684 664.976,175.08 664.974,169.397 C 664.974,169.392 664.974,169.388 664.974,169.383 C 664.97,163.699 669.575,159.091 675.257,159.087 C 680.941,159.084 685.55,163.688 685.554,169.371 C 685.554,169.375 685.554,169.379 685.554,169.383 z " />
        <g
           id="g5706_4_">
          <path
             d="M 683.628,161.002 C 685.91,163.283 687.052,166.078 687.052,169.383 C 687.052,172.69 685.93,175.455 683.688,177.678 C 681.307,180.02 678.495,181.19 675.249,181.19 C 672.043,181.19 669.278,180.03 666.957,177.706 C 664.637,175.386 663.476,172.612 663.476,169.384 C 663.476,166.158 664.637,163.364 666.957,161.003 C 669.22,158.72 671.984,157.579 675.249,157.579 C 678.554,157.578 681.347,158.719 683.628,161.002 z M 668.493,162.537 C 666.563,164.486 665.599,166.768 665.599,169.387 C 665.599,172.004 666.554,174.268 668.462,176.176 C 670.371,178.086 672.645,179.041 675.282,179.041 C 677.919,179.041 680.213,178.076 682.16,176.146 C 684.011,174.355 684.936,172.103 684.936,169.386 C 684.936,166.69 683.996,164.402 682.116,162.521 C 680.236,160.643 677.959,159.703 675.282,159.703 C 672.605,159.703 670.343,160.648 668.493,162.537 z M 673.569,168.234 C 673.275,167.591 672.833,167.271 672.245,167.271 C 671.204,167.271 670.684,167.97 670.684,169.371 C 670.684,170.772 671.204,171.473 672.245,171.473 C 672.933,171.473 673.423,171.131 673.718,170.449 L 675.159,171.218 C 674.471,172.439 673.44,173.05 672.065,173.05 C 671.004,173.05 670.155,172.726 669.517,172.075 C 668.877,171.425 668.559,170.526 668.559,169.384 C 668.559,168.262 668.888,167.37 669.546,166.71 C 670.204,166.05 671.024,165.72 672.006,165.72 C 673.459,165.72 674.5,166.292 675.129,167.437 L 673.569,168.234 z M 680.354,168.234 C 680.059,167.591 679.626,167.271 679.056,167.271 C 677.994,167.271 677.464,167.97 677.464,169.371 C 677.464,170.772 677.994,171.473 679.056,171.473 C 679.744,171.473 680.226,171.131 680.501,170.449 L 681.976,171.218 C 681.289,172.439 680.26,173.05 678.887,173.05 C 677.828,173.05 676.98,172.726 676.342,172.075 C 675.706,171.425 675.387,170.526 675.387,169.384 C 675.387,168.262 675.71,167.37 676.358,166.71 C 677.004,166.05 677.829,165.72 678.829,165.72 C 680.28,165.72 681.319,166.292 681.946,167.437 L 680.354,168.234 z "
             id="path166" />
        </g>
      </g>
      <g
         id="g85_4_">
        <circle
           id="circle87_4_"
           style="fill:#ffffff"
           cx="707.31702"
           cy="166.09399"
           r="8.1049995"
           sodipodi:cx="707.31702"
           sodipodi:cy="166.09399"
           sodipodi:rx="8.1049995"
           sodipodi:ry="8.1049995" />
        <g
           id="g89_4_">
          <path
             id="path91_4_"
             d="M 709.663,163.749 C 709.663,163.436 709.409,163.184 709.097,163.184 L 705.519,163.184 C 705.207,163.184 704.953,163.436 704.953,163.749 L 704.953,167.328 L 705.951,167.328 L 705.951,171.568 L 708.664,171.568 L 708.664,167.328 L 709.664,167.328 L 709.664,163.749 L 709.663,163.749 z " />
          <circle
             id="circle93_4_"
             cx="707.30798"
             cy="161.48801"
             r="1.225"
             sodipodi:cx="707.30798"
             sodipodi:cy="161.48801"
             sodipodi:rx="1.225"
             sodipodi:ry="1.225" />
        </g>
        <path
           d="M 707.296,157.164 C 704.872,157.164 702.819,158.01 701.14,159.702 C 699.417,161.452 698.556,163.523 698.556,165.916 C 698.556,168.307 699.417,170.364 701.14,172.086 C 702.864,173.807 704.916,174.668 707.296,174.668 C 709.706,174.668 711.796,173.799 713.562,172.063 C 715.228,170.417 716.06,168.367 716.06,165.917 C 716.06,163.466 715.212,161.396 713.519,159.703 C 711.826,158.01 709.751,157.164 707.296,157.164 z M 707.319,158.739 C 709.305,158.739 710.991,159.439 712.378,160.84 C 713.782,162.225 714.482,163.918 714.482,165.916 C 714.482,167.928 713.796,169.599 712.423,170.926 C 710.978,172.356 709.277,173.071 707.319,173.071 C 705.361,173.071 703.674,172.362 702.257,170.948 C 700.84,169.534 700.132,167.856 700.132,165.917 C 700.132,163.976 700.848,162.284 702.279,160.841 C 703.652,159.439 705.333,158.739 707.319,158.739 z "
           id="path173" />
      </g>
      <path
         d="M 748.368,154.639 L 661.195,154.639 C 660.26,154.639 659.5,155.4 659.5,156.334 L 659.5,185.955 C 659.5,186.168 659.671,186.34 659.883,186.34 L 749.681,186.34 C 749.892,186.34 750.064,186.168 750.064,185.955 L 750.064,156.334 C 750.063,155.399 749.302,154.639 748.368,154.639 z M 661.195,155.404 L 748.368,155.404 C 748.88,155.404 749.298,155.821 749.298,156.334 C 749.298,156.334 749.298,168.246 749.298,176.867 L 686.991,176.867 C 684.708,180.998 680.307,183.801 675.259,183.801 C 670.207,183.801 665.809,181 663.527,176.867 L 660.266,176.867 C 660.266,168.246 660.266,156.334 660.266,156.334 C 660.266,155.821 660.683,155.404 661.195,155.404 z "
         id="path175" />
      <g
         id="g99_4_"
         style="enable-background:new">
        <path
           style="fill:#ffffff"
           d="M 704.778,179.355 C 705.016,179.355 705.234,179.376 705.43,179.417 C 705.627,179.46 705.795,179.528 705.936,179.624 C 706.077,179.72 706.184,179.847 706.262,180.005 C 706.338,180.165 706.377,180.359 706.377,180.593 C 706.377,180.845 706.32,181.056 706.205,181.224 C 706.09,181.39 705.92,181.529 705.697,181.636 C 706.006,181.724 706.236,181.88 706.388,182.101 C 706.54,182.324 706.617,182.591 706.617,182.904 C 706.617,183.156 706.568,183.375 706.471,183.558 C 706.371,183.744 706.241,183.892 706.075,184.009 C 705.909,184.126 705.72,184.214 705.507,184.269 C 705.293,184.326 705.075,184.353 704.85,184.353 L 702.423,184.353 L 702.423,179.355 L 704.778,179.355 z M 704.638,181.377 C 704.835,181.377 704.995,181.332 705.122,181.238 C 705.248,181.144 705.311,180.992 705.311,180.783 C 705.311,180.668 705.29,180.572 705.248,180.498 C 705.206,180.424 705.15,180.365 705.08,180.324 C 705.01,180.281 704.929,180.252 704.838,180.236 C 704.747,180.218 704.652,180.211 704.554,180.211 L 703.525,180.211 L 703.525,181.377 L 704.638,181.377 L 704.638,181.377 z M 704.702,183.498 C 704.81,183.498 704.913,183.488 705.011,183.467 C 705.11,183.446 705.197,183.412 705.271,183.362 C 705.346,183.313 705.406,183.247 705.451,183.163 C 705.496,183.079 705.517,182.974 705.517,182.841 C 705.517,182.585 705.445,182.402 705.299,182.294 C 705.153,182.183 704.962,182.128 704.724,182.128 L 703.525,182.128 L 703.525,183.499 L 704.702,183.499 L 704.702,183.498 z "
           id="path178" />
        <polygon
           id="path103_4_"
           style="fill:#ffffff"
           points="706.812,179.355 708.046,179.355 709.216,181.33 710.378,179.355 711.604,179.355 709.749,182.436 709.749,184.354 708.647,184.354 708.647,182.408 706.812,179.355 " />
      </g>
      <g
         id="g105_4_"
         style="enable-background:new">
        <polygon
           id="path107_4_"
           style="fill:#ffffff"
           points="724.353,179.355 726.44,182.709 726.452,182.709 726.452,179.355 727.483,179.355 727.483,184.354 726.386,184.354 724.306,181.008 724.29,181.008 724.29,184.354 723.259,184.354 723.259,179.355 724.353,179.355 " />
        <path
           style="fill:#ffffff"
           d="M 730.606,179.355 C 730.928,179.355 731.227,179.406 731.506,179.509 C 731.783,179.613 732.024,179.767 732.229,179.972 C 732.432,180.177 732.59,180.433 732.704,180.74 C 732.819,181.051 732.878,181.412 732.878,181.826 C 732.878,182.191 732.831,182.527 732.737,182.834 C 732.643,183.143 732.503,183.408 732.313,183.633 C 732.123,183.858 731.887,184.033 731.604,184.162 C 731.321,184.291 730.989,184.353 730.606,184.353 L 728.448,184.353 L 728.448,179.355 L 730.606,179.355 L 730.606,179.355 z M 730.528,183.428 C 730.688,183.428 730.84,183.403 730.991,183.352 C 731.139,183.301 731.274,183.215 731.389,183.096 C 731.506,182.977 731.6,182.823 731.67,182.631 C 731.74,182.439 731.775,182.207 731.775,181.932 C 731.775,181.68 731.75,181.453 731.701,181.25 C 731.652,181.047 731.572,180.873 731.459,180.729 C 731.348,180.584 731.199,180.475 731.016,180.397 C 730.83,180.321 730.604,180.282 730.332,180.282 L 729.549,180.282 L 729.549,183.428 L 730.528,183.428 z "
           id="path183" />
      </g>
      <g
         id="g6501_4_">
        <path
           id="path6503_4_"
           style="fill:#ffffff"
           d="M 736.853,165.945 C 736.855,170.357 733.281,173.937 728.869,173.939 C 724.459,173.943 720.879,170.369 720.875,165.957 C 720.875,165.953 720.875,165.948 720.875,165.945 C 720.873,161.533 724.447,157.955 728.859,157.951 C 733.271,157.947 736.849,161.521 736.853,165.933 C 736.853,165.938 736.853,165.941 736.853,165.945 z " />
        <g
           id="g6505_4_">
          <path
             d="M 728.737,157.193 C 726.313,157.193 724.26,158.039 722.583,159.73 C 720.858,161.481 719.997,163.552 719.997,165.945 C 719.997,168.338 720.858,170.393 722.583,172.115 C 724.306,173.838 726.356,174.697 728.737,174.697 C 731.147,174.697 733.235,173.828 735.003,172.093 C 736.669,170.445 737.501,168.395 737.501,165.945 C 737.501,163.494 736.653,161.424 734.96,159.73 C 733.265,158.039 731.19,157.193 728.737,157.193 z M 728.761,158.768 C 730.745,158.768 732.433,159.469 733.822,160.87 C 735.222,162.256 735.924,163.946 735.924,165.946 C 735.924,167.959 735.238,169.629 733.865,170.956 C 732.418,172.386 730.717,173.101 728.761,173.101 C 726.802,173.101 725.116,172.394 723.699,170.978 C 722.283,169.564 721.576,167.886 721.576,165.947 C 721.576,164.006 722.291,162.315 723.722,160.871 C 725.095,159.469 726.774,158.768 728.761,158.768 z "
             id="path188" />
          <g
             id="g6509_4_">
            <path
               d="M 732.056,163.871 L 725.695,163.871 L 725.695,165.378 L 732.056,165.378 L 732.056,163.871 z M 732.056,166.684 L 725.695,166.684 L 725.695,168.191 L 732.056,168.191 L 732.056,166.684 z "
               id="path191" />
          </g>
        </g>
      </g>
    </g>
    <circle
       sodipodi:ry="65"
       sodipodi:rx="65"
       sodipodi:cy="71.855003"
       sodipodi:cx="729.07098"
       id="circle411"
       r="65"
       cy="71.855003"
       cx="729.07098"
       style="fill:none;stroke:#000000"
       transform="translate(-240.366,270.92448)" />
    <circle
       sodipodi:ry="41.208"
       sodipodi:rx="41.208"
       sodipodi:cy="71.855003"
       sodipodi:cx="729.07098"
       id="circle413"
       r="41.208"
       cy="71.855003"
       cx="729.07098"
       style="fill:none;stroke:#000000"
       transform="translate(-240.366,270.92448)" />
    <circle
       sodipodi:ry="16"
       sodipodi:rx="16"
       sodipodi:cy="71.855003"
       sodipodi:cx="729.07098"
       id="circle415"
       r="16"
       cy="71.855003"
       cx="729.07098"
       style="fill:none;stroke:#000000"
       transform="translate(-240.366,270.92448)" />
    <g
       id="g417"
       transform="translate(-240.366,270.92448)">
      <path
         id="path419"
         d="M 722.902,70.521 L 722.908,71.876 C 723.303,71.26 723.648,70.851 723.945,70.648 C 724.242,70.445 724.529,70.345 724.804,70.345 C 725.036,70.345 725.222,70.417 725.361,70.564 C 725.5,70.709 725.57,70.915 725.57,71.181 C 725.57,71.463 725.502,71.683 725.365,71.839 C 725.228,71.995 725.064,72.072 724.871,72.072 C 724.644,72.072 724.449,72.003 724.283,71.863 C 724.117,71.723 724.019,71.645 723.99,71.628 C 723.947,71.604 723.898,71.591 723.842,71.591 C 723.723,71.591 723.609,71.638 723.5,71.732 C 723.33,71.876 723.201,72.081 723.115,72.347 C 722.982,72.757 722.916,73.21 722.916,73.705 L 722.922,75.071 L 722.924,75.419 C 722.924,75.666 722.939,75.824 722.968,75.894 C 723.018,76.011 723.092,76.097 723.19,76.151 C 723.29,76.205 723.456,76.238 723.69,76.252 L 723.69,76.471 L 720.497,76.471 L 720.497,76.252 C 720.753,76.231 720.927,76.158 721.017,76.037 C 721.108,75.915 721.154,75.593 721.154,75.07 L 721.154,71.79 C 721.154,71.442 721.136,71.221 721.103,71.125 C 721.06,71.003 720.999,70.915 720.919,70.857 C 720.839,70.8 720.698,70.761 720.497,70.74 L 720.497,70.521 L 722.902,70.521 z " />
      <path
         id="path421"
         d="M 731.027,73.277 L 727.723,73.277 C 727.761,74.069 727.974,74.694 728.361,75.154 C 728.658,75.508 729.014,75.683 729.431,75.683 C 729.689,75.683 729.923,75.612 730.134,75.469 C 730.344,75.326 730.57,75.07 730.81,74.698 L 731.027,74.851 C 730.703,75.504 730.345,75.966 729.955,76.238 C 729.565,76.51 729.111,76.645 728.598,76.645 C 727.713,76.645 727.043,76.306 726.588,75.627 C 726.223,75.081 726.039,74.402 726.039,73.593 C 726.039,72.602 726.309,71.813 726.846,71.225 C 727.385,70.638 728.014,70.345 728.737,70.345 C 729.341,70.345 729.866,70.591 730.309,71.084 C 730.754,71.579 730.992,72.31 731.027,73.277 z M 729.474,72.862 C 729.474,72.186 729.436,71.722 729.36,71.47 C 729.284,71.218 729.167,71.027 729.006,70.897 C 728.915,70.821 728.792,70.784 728.641,70.784 C 728.415,70.784 728.23,70.891 728.087,71.105 C 727.831,71.478 727.702,71.991 727.702,72.641 L 727.702,72.862 L 729.474,72.862 L 729.474,72.862 z " />
      <path
         id="path423"
         d="M 737.527,67.853 L 737.527,74.7 C 737.527,75.158 737.54,75.429 737.564,75.512 C 737.598,75.652 737.662,75.754 737.755,75.821 C 737.851,75.888 738.015,75.93 738.249,75.947 L 738.249,76.166 L 735.755,76.647 L 735.755,75.707 C 735.454,76.071 735.185,76.319 734.95,76.45 C 734.714,76.582 734.448,76.647 734.151,76.647 C 733.392,76.647 732.792,76.308 732.351,75.629 C 731.995,75.078 731.817,74.402 731.817,73.602 C 731.817,72.962 731.926,72.389 732.147,71.882 C 732.368,71.375 732.67,70.993 733.054,70.735 C 733.438,70.477 733.85,70.347 734.291,70.347 C 734.574,70.347 734.826,70.402 735.047,70.512 C 735.268,70.622 735.504,70.815 735.754,71.09 L 735.754,69.296 C 735.754,68.844 735.734,68.57 735.695,68.478 C 735.642,68.355 735.566,68.264 735.463,68.205 C 735.359,68.146 735.164,68.116 734.879,68.116 L 734.879,67.853 L 737.527,67.853 L 737.527,67.853 z M 735.756,71.855 C 735.442,71.272 735.057,70.98 734.602,70.98 C 734.446,70.98 734.315,71.023 734.213,71.107 C 734.057,71.239 733.928,71.469 733.828,71.799 C 733.727,72.129 733.678,72.635 733.678,73.316 C 733.678,74.065 733.733,74.62 733.844,74.979 C 733.953,75.338 734.105,75.599 734.296,75.76 C 734.395,75.84 734.527,75.88 734.697,75.88 C 735.072,75.88 735.424,75.586 735.756,74.998 L 735.756,71.855 z " />
    </g>
    <g
       id="g425"
       transform="translate(-240.366,270.92448)">
      <path
         id="path427"
         d="M 713.367,93.523 C 713.882,93.523 714.361,93.656 714.805,93.923 C 715.249,94.19 715.585,94.569 715.816,95.062 C 716.045,95.553 716.161,96.091 716.161,96.675 C 716.161,97.519 715.948,98.225 715.521,98.792 C 715.006,99.48 714.293,99.822 713.386,99.822 C 712.494,99.822 711.808,99.509 711.326,98.882 C 710.844,98.255 710.604,97.528 710.604,96.701 C 710.604,95.848 710.849,95.106 711.341,94.472 C 711.833,93.838 712.51,93.523 713.367,93.523 z M 713.396,93.961 C 713.18,93.961 712.996,94.043 712.841,94.206 C 712.687,94.37 712.585,94.693 712.537,95.175 C 712.488,95.658 712.464,96.328 712.464,97.187 C 712.464,97.641 712.493,98.067 712.553,98.461 C 712.599,98.764 712.699,98.992 712.85,99.15 C 713.002,99.306 713.176,99.385 713.371,99.385 C 713.561,99.385 713.72,99.332 713.846,99.226 C 714.011,99.081 714.12,98.879 714.176,98.621 C 714.26,98.217 714.302,97.401 714.302,96.173 C 714.302,95.45 714.262,94.954 714.182,94.685 C 714.102,94.414 713.984,94.218 713.828,94.095 C 713.716,94.006 713.572,93.961 713.396,93.961 z " />
      <path
         id="path429"
         d="M 719.521,93.698 L 719.528,95.053 C 719.923,94.437 720.268,94.028 720.565,93.825 C 720.862,93.622 721.148,93.522 721.424,93.522 C 721.656,93.522 721.842,93.594 721.981,93.741 C 722.121,93.886 722.19,94.092 722.19,94.358 C 722.19,94.64 722.122,94.86 721.985,95.016 C 721.848,95.172 721.683,95.249 721.49,95.249 C 721.264,95.249 721.069,95.18 720.903,95.04 C 720.737,94.9 720.638,94.822 720.609,94.805 C 720.566,94.781 720.517,94.768 720.462,94.768 C 720.342,94.768 720.229,94.815 720.12,94.909 C 719.95,95.053 719.821,95.258 719.735,95.524 C 719.602,95.934 719.536,96.387 719.536,96.882 L 719.542,98.248 L 719.544,98.596 C 719.544,98.843 719.559,99.001 719.588,99.071 C 719.638,99.188 719.712,99.274 719.811,99.328 C 719.91,99.382 720.076,99.415 720.31,99.429 L 720.31,99.648 L 717.116,99.648 L 717.116,99.43 C 717.373,99.409 717.547,99.336 717.637,99.215 C 717.728,99.093 717.773,98.771 717.773,98.248 L 717.773,94.967 C 717.773,94.619 717.756,94.398 717.723,94.302 C 717.68,94.18 717.619,94.092 717.539,94.034 C 717.459,93.977 717.318,93.938 717.116,93.917 L 717.116,93.698 L 719.521,93.698 z " />
      <path
         id="path431"
         d="M 726.131,98.751 C 725.408,99.407 724.758,99.735 724.184,99.735 C 723.845,99.735 723.564,99.624 723.339,99.4 C 723.115,99.177 723.003,98.898 723.003,98.562 C 723.003,98.107 723.197,97.697 723.587,97.333 C 723.976,96.97 724.824,96.485 726.131,95.882 L 726.131,95.285 C 726.131,94.837 726.107,94.555 726.059,94.438 C 726.011,94.321 725.92,94.22 725.786,94.133 C 725.652,94.046 725.502,94.002 725.335,94.002 C 725.063,94.002 724.838,94.064 724.66,94.187 C 724.55,94.263 724.495,94.352 724.495,94.454 C 724.495,94.543 724.554,94.653 724.673,94.784 C 724.834,94.966 724.914,95.141 724.914,95.31 C 724.914,95.518 724.837,95.695 724.683,95.84 C 724.529,95.986 724.326,96.059 724.076,96.059 C 723.809,96.059 723.586,95.979 723.406,95.819 C 723.225,95.658 723.135,95.469 723.135,95.254 C 723.135,94.95 723.255,94.659 723.496,94.382 C 723.736,94.105 724.072,93.893 724.503,93.744 C 724.934,93.597 725.381,93.522 725.846,93.522 C 726.408,93.522 726.852,93.641 727.179,93.881 C 727.506,94.121 727.718,94.382 727.816,94.662 C 727.875,94.84 727.904,95.25 727.904,95.891 L 727.904,98.204 C 727.904,98.475 727.915,98.646 727.936,98.717 C 727.957,98.786 727.99,98.839 728.033,98.872 C 728.076,98.907 728.128,98.923 728.189,98.923 C 728.298,98.923 728.41,98.843 728.523,98.681 L 728.713,98.838 C 728.501,99.151 728.28,99.379 728.054,99.521 C 727.826,99.662 727.568,99.733 727.28,99.733 C 726.94,99.733 726.675,99.652 726.483,99.489 C 726.291,99.326 726.174,99.082 726.131,98.751 z M 726.131,98.292 L 726.131,96.31 C 725.623,96.612 725.246,96.935 724.998,97.28 C 724.834,97.509 724.753,97.742 724.753,97.975 C 724.753,98.171 724.822,98.343 724.961,98.492 C 725.065,98.607 725.212,98.665 725.4,98.665 C 725.61,98.664 725.854,98.54 726.131,98.292 z " />
      <path
         id="path433"
         d="M 731.788,93.698 L 731.788,94.464 C 732.093,94.136 732.385,93.897 732.664,93.747 C 732.943,93.597 733.244,93.523 733.566,93.523 C 733.951,93.523 734.27,93.63 734.525,93.844 C 734.779,94.059 734.948,94.325 735.033,94.644 C 735.101,94.886 735.135,95.351 735.135,96.039 L 735.135,98.357 C 735.135,98.816 735.176,99.103 735.258,99.215 C 735.339,99.327 735.51,99.399 735.77,99.429 L 735.77,99.648 L 732.773,99.648 L 732.773,99.43 C 733,99.4 733.163,99.307 733.26,99.149 C 733.328,99.044 733.364,98.779 733.364,98.358 L 733.364,95.704 C 733.364,95.216 733.344,94.907 733.306,94.779 C 733.268,94.651 733.202,94.552 733.112,94.482 C 733.02,94.413 732.92,94.377 732.809,94.377 C 732.443,94.377 732.103,94.64 731.788,95.165 L 731.788,98.358 C 731.788,98.805 731.83,99.088 731.913,99.207 C 731.996,99.326 732.151,99.4 732.379,99.431 L 732.379,99.65 L 729.382,99.65 L 729.382,99.43 C 729.629,99.405 729.805,99.324 729.909,99.188 C 729.98,99.094 730.015,98.817 730.015,98.358 L 730.015,94.989 C 730.015,94.533 729.974,94.249 729.893,94.137 C 729.811,94.025 729.64,93.951 729.381,93.917 L 729.381,93.698 L 731.788,93.698 L 731.788,93.698 z " />
      <path
         id="path435"
         d="M 740.386,93.764 L 742.376,93.764 L 742.376,94.464 L 741.247,94.464 C 741.453,94.672 741.598,94.861 741.677,95.031 C 741.779,95.26 741.829,95.5 741.829,95.752 C 741.829,96.176 741.712,96.545 741.478,96.857 C 741.244,97.169 740.926,97.414 740.525,97.589 C 740.123,97.766 739.765,97.854 739.454,97.854 C 739.429,97.854 739.176,97.843 738.696,97.822 C 738.506,97.822 738.345,97.885 738.217,98.01 C 738.089,98.135 738.024,98.285 738.024,98.459 C 738.024,98.612 738.082,98.737 738.198,98.835 C 738.314,98.933 738.505,98.982 738.767,98.982 L 739.866,98.968 C 740.756,98.968 741.368,99.066 741.702,99.26 C 742.181,99.531 742.421,99.946 742.421,100.508 C 742.421,100.866 742.311,101.194 742.09,101.487 C 741.868,101.78 741.578,101.997 741.217,102.136 C 740.669,102.343 740.038,102.447 739.325,102.447 C 738.79,102.447 738.301,102.395 737.859,102.292 C 737.417,102.189 737.101,102.045 736.91,101.861 C 736.72,101.677 736.624,101.484 736.624,101.282 C 736.624,101.088 736.697,100.913 736.844,100.76 C 736.991,100.606 737.265,100.476 737.664,100.37 C 737.116,100.099 736.843,99.722 736.843,99.239 C 736.843,98.946 736.955,98.663 737.181,98.387 C 737.407,98.111 737.764,97.871 738.253,97.668 C 737.68,97.46 737.265,97.187 737.009,96.848 C 736.752,96.509 736.624,96.117 736.624,95.671 C 736.624,95.09 736.861,94.587 737.335,94.16 C 737.81,93.734 738.421,93.521 739.166,93.521 C 739.559,93.523 739.966,93.604 740.386,93.764 z M 738.928,100.523 C 738.491,100.523 738.202,100.558 738.061,100.63 C 737.817,100.761 737.696,100.938 737.696,101.161 C 737.696,101.377 737.821,101.571 738.074,101.747 C 738.327,101.922 738.803,102.01 739.501,102.01 C 740.096,102.01 740.563,101.932 740.903,101.776 C 741.244,101.62 741.415,101.4 741.415,101.118 C 741.415,101.013 741.382,100.924 741.318,100.852 C 741.202,100.725 741.028,100.638 740.795,100.592 C 740.561,100.546 739.938,100.523 738.928,100.523 z M 739.29,93.938 C 739.046,93.938 738.839,94.062 738.67,94.308 C 738.501,94.554 738.417,95.065 738.417,95.839 C 738.417,96.467 738.5,96.898 738.666,97.132 C 738.833,97.365 739.03,97.482 739.259,97.482 C 739.512,97.482 739.723,97.367 739.892,97.134 C 740.061,96.903 740.145,96.452 740.145,95.782 C 740.145,95.028 740.05,94.514 739.861,94.241 C 739.725,94.04 739.535,93.938 739.29,93.938 z " />
      <path
         id="path437"
         d="M 748.143,96.454 L 744.839,96.454 C 744.878,97.246 745.09,97.871 745.478,98.331 C 745.774,98.685 746.13,98.86 746.547,98.86 C 746.805,98.86 747.039,98.789 747.25,98.646 C 747.46,98.503 747.686,98.247 747.926,97.875 L 748.143,98.028 C 747.819,98.681 747.462,99.143 747.071,99.415 C 746.68,99.686 746.227,99.822 745.714,99.822 C 744.829,99.822 744.159,99.483 743.704,98.804 C 743.339,98.258 743.155,97.579 743.155,96.77 C 743.155,95.779 743.425,94.99 743.962,94.402 C 744.501,93.815 745.131,93.522 745.854,93.522 C 746.458,93.522 746.982,93.768 747.426,94.261 C 747.87,94.754 748.108,95.486 748.143,96.454 z M 746.589,96.039 C 746.589,95.363 746.551,94.899 746.475,94.647 C 746.4,94.395 746.282,94.204 746.121,94.074 C 746.03,93.998 745.908,93.961 745.756,93.961 C 745.53,93.961 745.346,94.068 745.202,94.282 C 744.946,94.655 744.818,95.168 744.818,95.818 L 744.818,96.039 L 746.589,96.039 L 746.589,96.039 z " />
    </g>
    <g
       id="g439"
       transform="translate(-240.366,270.92448)">
      <path
         id="path441"
         d="M 714.823,126.858 L 712.914,122.462 C 712.626,121.789 712.413,121.376 712.274,121.222 C 712.137,121.067 711.97,120.96 711.776,120.9 L 711.776,120.681 L 714.928,120.681 L 714.928,120.9 C 714.721,120.909 714.574,120.95 714.49,121.023 C 714.406,121.096 714.363,121.184 714.363,121.287 C 714.363,121.451 714.469,121.773 714.68,122.254 L 715.696,124.59 L 716.391,122.781 C 716.641,122.135 716.766,121.685 716.766,121.433 C 716.766,121.275 716.713,121.148 716.61,121.054 C 716.507,120.96 716.323,120.908 716.06,120.9 L 716.06,120.681 L 718.049,120.681 L 718.049,120.9 C 717.855,120.921 717.695,120.998 717.572,121.129 C 717.449,121.26 717.244,121.704 716.956,122.463 L 715.261,126.872 C 714.833,127.971 714.517,128.646 714.31,128.899 C 714.018,129.253 713.653,129.431 713.213,129.431 C 712.861,129.431 712.577,129.331 712.359,129.132 C 712.141,128.934 712.033,128.694 712.033,128.413 C 712.033,128.17 712.107,127.97 712.258,127.81 C 712.407,127.65 712.592,127.571 712.812,127.571 C 713.023,127.571 713.193,127.637 713.321,127.769 C 713.45,127.901 713.516,128.105 713.521,128.381 C 713.526,128.537 713.547,128.639 713.586,128.684 C 713.614,128.729 713.66,128.752 713.722,128.752 C 713.822,128.752 713.928,128.691 714.039,128.57 C 714.206,128.394 714.401,127.994 714.625,127.368 L 714.823,126.858 z " />
      <path
         id="path443"
         d="M 723.647,123.438 L 720.344,123.438 C 720.383,124.23 720.595,124.856 720.982,125.315 C 721.279,125.669 721.635,125.844 722.052,125.844 C 722.31,125.844 722.543,125.774 722.754,125.631 C 722.965,125.487 723.191,125.231 723.431,124.86 L 723.647,125.013 C 723.324,125.666 722.967,126.128 722.576,126.4 C 722.185,126.672 721.731,126.807 721.218,126.807 C 720.333,126.807 719.663,126.468 719.209,125.789 C 718.843,125.243 718.66,124.564 718.66,123.755 C 718.66,122.764 718.929,121.975 719.467,121.387 C 720.005,120.801 720.635,120.507 721.359,120.507 C 721.963,120.507 722.486,120.753 722.931,121.246 C 723.374,121.739 723.613,122.47 723.647,123.438 z M 722.095,123.022 C 722.095,122.346 722.057,121.882 721.981,121.63 C 721.905,121.378 721.787,121.187 721.627,121.057 C 721.535,120.982 721.414,120.944 721.262,120.944 C 721.035,120.944 720.852,121.051 720.708,121.265 C 720.451,121.638 720.324,122.151 720.324,122.801 L 720.324,123.022 L 722.095,123.022 L 722.095,123.022 z " />
      <path
         id="path445"
         d="M 726.714,118.013 L 726.714,125.407 C 726.714,125.828 726.763,126.096 726.861,126.214 C 726.959,126.33 727.15,126.398 727.436,126.414 L 727.436,126.633 L 724.22,126.633 L 724.22,126.414 C 724.486,126.405 724.684,126.329 724.813,126.185 C 724.899,126.087 724.942,125.829 724.942,125.408 L 724.942,119.24 C 724.942,118.821 724.892,118.552 724.794,118.435 C 724.696,118.318 724.504,118.25 724.221,118.233 L 724.221,118.014 L 726.714,118.014 L 726.714,118.013 z " />
      <path
         id="path447"
         d="M 730.331,118.013 L 730.331,125.407 C 730.331,125.828 730.38,126.096 730.478,126.214 C 730.576,126.33 730.768,126.398 731.053,126.414 L 731.053,126.633 L 727.837,126.633 L 727.837,126.414 C 728.104,126.405 728.301,126.329 728.43,126.185 C 728.516,126.087 728.559,125.829 728.559,125.408 L 728.559,119.24 C 728.559,118.821 728.509,118.552 728.411,118.435 C 728.313,118.318 728.122,118.25 727.838,118.233 L 727.838,118.014 L 730.331,118.014 L 730.331,118.013 z " />
      <path
         id="path449"
         d="M 734.437,120.507 C 734.952,120.507 735.431,120.641 735.875,120.907 C 736.318,121.175 736.655,121.553 736.886,122.046 C 737.116,122.537 737.232,123.075 737.232,123.66 C 737.232,124.504 737.018,125.209 736.592,125.777 C 736.076,126.464 735.364,126.806 734.456,126.806 C 733.564,126.806 732.879,126.493 732.397,125.866 C 731.915,125.239 731.674,124.512 731.674,123.685 C 731.674,122.833 731.92,122.09 732.412,121.456 C 732.904,120.824 733.579,120.507 734.437,120.507 z M 734.465,120.944 C 734.249,120.944 734.065,121.026 733.91,121.189 C 733.756,121.353 733.654,121.676 733.606,122.158 C 733.557,122.641 733.533,123.311 733.533,124.17 C 733.533,124.625 733.562,125.05 733.622,125.445 C 733.668,125.747 733.768,125.976 733.919,126.133 C 734.071,126.29 734.245,126.368 734.44,126.368 C 734.63,126.368 734.789,126.315 734.916,126.209 C 735.08,126.064 735.189,125.862 735.245,125.604 C 735.329,125.201 735.372,124.384 735.372,123.156 C 735.372,122.433 735.332,121.937 735.252,121.668 C 735.171,121.398 735.053,121.201 734.897,121.078 C 734.786,120.989 734.642,120.944 734.465,120.944 z " />
      <path
         id="path451"
         d="M 744.012,126.807 L 742.392,122.438 L 740.813,126.807 L 740.481,126.807 L 738.892,122.499 C 738.655,121.833 738.454,121.399 738.288,121.197 C 738.182,121.059 738.02,120.961 737.805,120.9 L 737.805,120.681 L 740.815,120.681 L 740.815,120.9 C 740.611,120.9 740.472,120.93 740.395,120.991 C 740.319,121.052 740.281,121.121 740.281,121.198 C 740.281,121.271 740.349,121.492 740.485,121.858 L 741.353,124.179 L 742.185,121.877 L 742.123,121.707 C 741.996,121.382 741.885,121.175 741.789,121.085 C 741.694,120.996 741.547,120.935 741.348,120.899 L 741.348,120.68 L 744.399,120.68 L 744.399,120.899 C 744.163,120.913 744.012,120.946 743.948,121 C 743.886,121.054 743.853,121.131 743.853,121.229 C 743.853,121.325 743.915,121.534 744.038,121.857 L 744.877,124.178 L 745.637,122.041 C 745.747,121.731 745.802,121.52 745.802,121.408 C 745.802,121.24 745.761,121.118 745.681,121.041 C 745.601,120.964 745.445,120.916 745.211,120.898 L 745.211,120.679 L 746.972,120.679 L 746.972,120.898 C 746.777,120.924 746.622,120.994 746.508,121.108 C 746.394,121.222 746.245,121.546 746.063,122.08 L 744.383,126.805 L 744.012,126.805 L 744.012,126.807 z " />
    </g>
  </g>
</svg>
