<?xml version="1.0" encoding="UTF-8" standalone="no"?>
<!-- Created with Inkscape (http://www.inkscape.org/) -->
<svg
   xmlns:dc="http://purl.org/dc/elements/1.1/"
   xmlns:cc="http://web.resource.org/cc/"
   xmlns:rdf="http://www.w3.org/1999/02/22-rdf-syntax-ns#"
   xmlns:svg="http://www.w3.org/2000/svg"
   xmlns="http://www.w3.org/2000/svg"
   xmlns:sodipodi="http://sodipodi.sourceforge.net/DTD/sodipodi-0.dtd"
   xmlns:inkscape="http://www.inkscape.org/namespaces/inkscape"
   width="142.73199"
   height="163.414"
   id="svg3223"
   sodipodi:version="0.32"
   inkscape:version="0.45.1"
   version="1.0"
   sodipodi:docbase="/Users/robmyers/Desktop/cc-ironies/final"
   sodipodi:docname="sale_now_off.svg"
   inkscape:output_extension="org.inkscape.output.svg.inkscape">
  <defs
     id="defs3225" />
  <sodipodi:namedview
     id="base"
     pagecolor="#ffffff"
     bordercolor="#666666"
     borderopacity="1.0"
     gridtolerance="10000"
     guidetolerance="10"
     objecttolerance="10"
     inkscape:pageopacity="0.0"
     inkscape:pageshadow="2"
     inkscape:zoom="2.3131433"
     inkscape:cx="71.365997"
     inkscape:cy="81.707001"
     inkscape:document-units="px"
     inkscape:current-layer="layer1"
     inkscape:window-width="697"
     inkscape:window-height="581"
     inkscape:window-x="19"
     inkscape:window-y="22" />
  <metadata
     id="metadata3228">
    <rdf:RDF>
      <cc:Work
         rdf:about="">
        <dc:format>image/svg+xml</dc:format>
        <dc:type
           rdf:resource="http://purl.org/dc/dcmitype/StillImage" />
      </cc:Work>
    </rdf:RDF>
  </metadata>
  <g
     inkscape:label="Layer 1"
     inkscape:groupmode="layer"
     id="layer1"
     transform="translate(-491.49115,-510.62125)">
    <rect
       x="491.99115"
       y="511.12125"
       style="fill:#ffffff;stroke:#000000"
       width="141.73199"
       height="141.73199"
       id="rect350" />
    <g
       id="g352"
       transform="translate(1.4081377,510.62125)">
      <polygon
         style="fill:#ff0000"
         points="538.384,21.36 539.722,9.042 548.476,17.811 552.19,5.992 559.065,16.299 565.015,5.43 569.748,16.881 577.701,7.383 580.109,19.538 589.765,11.774 589.753,24.164 600.738,18.434 598.31,30.583 610.203,27.105 605.451,38.548 617.792,37.458 610.9,47.752 623.216,49.09 614.449,57.843 626.269,61.559 615.96,68.434 626.828,74.383 615.376,79.115 624.875,87.071 612.722,89.477 620.486,99.132 608.095,99.122 613.826,110.106 601.675,107.678 605.154,119.571 593.71,114.819 594.802,127.161 584.505,120.268 583.167,132.586 574.416,123.817 570.701,135.637 563.826,125.329 557.876,136.197 553.144,124.746 545.188,134.244 542.783,122.09 533.126,129.854 533.138,117.463 522.152,123.194 524.58,111.043 512.688,114.523 517.44,103.08 505.099,104.17 511.99,93.875 499.673,92.538 508.442,83.784 496.623,80.069 506.931,73.194 496.062,67.245 507.513,62.513 498.015,54.557 510.169,52.151 502.405,42.495 514.794,42.506 509.064,31.52 521.214,33.95 517.737,22.058 529.179,26.809 528.089,14.467 538.384,21.36 "
         id="polygon354" />
      <g
         id="g356">
        <path
           style="fill:#ffffff"
           d="M 524.858,65.771 C 524.369,65.408 523.766,65.153 523.059,65.009 C 522.349,64.863 521.611,64.825 520.841,64.895 C 520.071,64.965 519.302,65.107 518.53,65.325 C 516.257,66.001 513.951,66.234 511.61,66.026 C 511.414,66.016 511.161,65.914 510.856,65.724 C 510.548,65.532 510.336,65.309 510.217,65.056 C 509.782,64.125 509.505,63.121 509.378,62.042 C 509.251,60.961 509.307,60.045 509.544,59.291 C 509.913,58.049 510.957,56.625 512.679,55.022 C 514.4,53.418 516.531,52.027 519.07,50.841 C 520.591,50.133 521.819,49.701 522.757,49.548 C 523.695,49.395 524.277,49.562 524.503,50.049 C 524.874,50.842 525.052,51.507 525.038,52.042 C 525.024,52.579 524.928,52.975 524.746,53.234 C 524.564,53.493 524.22,53.888 523.71,54.422 C 523.153,54.965 522.689,55.478 522.315,55.961 C 521.941,56.444 521.636,56.883 521.397,57.276 C 521.156,57.671 520.993,57.889 520.909,57.928 C 520.805,57.977 520.731,57.959 520.691,57.875 C 520.608,57.694 520.67,57.335 520.878,56.796 C 521.086,56.256 521.401,55.718 521.827,55.186 C 522.266,54.609 522.469,54.278 522.43,54.193 C 522.367,54.055 522.011,54.135 521.367,54.436 C 519.415,55.348 517.692,56.364 516.197,57.484 C 514.7,58.606 513.61,59.673 512.922,60.689 C 512.233,61.706 512.026,62.509 512.301,63.099 C 512.474,63.469 512.793,63.64 513.259,63.609 C 513.725,63.576 514.717,63.427 516.233,63.158 C 517.749,62.887 519.146,62.739 520.426,62.705 C 522.267,62.645 523.723,62.794 524.794,63.155 C 525.864,63.517 526.606,64.136 527.013,65.011 C 527.293,65.613 527.429,66.284 527.419,67.027 C 527.412,67.77 527.245,68.526 526.919,69.294 C 526.594,70.062 526.141,70.781 525.563,71.45 C 525.065,72.003 524.398,72.613 523.564,73.283 C 522.73,73.955 521.793,74.613 520.753,75.255 C 519.715,75.9 518.694,76.457 517.694,76.923 C 515.849,77.782 514.286,78.299 513,78.477 C 511.713,78.654 510.906,78.389 510.577,77.684 C 510.43,77.367 510.389,76.788 510.459,75.941 C 510.527,75.096 510.765,74.436 511.175,73.962 C 511.545,73.571 511.935,73.265 512.345,73.04 C 512.755,72.819 512.991,72.77 513.048,72.896 C 513.064,72.929 513.062,72.967 513.044,73.013 C 513.028,73.059 513.004,73.103 512.971,73.144 C 512.937,73.184 512.906,73.226 512.874,73.267 C 512.7,73.449 512.561,73.595 512.45,73.704 C 512.341,73.812 512.258,73.91 512.201,73.994 C 512.145,74.079 512.137,74.164 512.174,74.247 C 512.278,74.47 513.42,74.073 515.601,73.055 C 517.497,72.172 519.017,71.377 520.165,70.677 C 521.311,69.975 522.267,69.229 523.024,68.436 C 523.784,67.648 524.395,66.758 524.858,65.771 z "
           id="path358" />
        <path
           style="fill:#ffffff"
           d="M 542.386,55.226 C 541.137,55.858 540.218,56.314 539.627,56.589 C 538.719,57.011 537.452,57.576 535.83,58.283 C 535.663,58.809 535.453,59.433 535.2,60.16 C 534.947,60.884 534.704,61.563 534.47,62.189 C 534.236,62.816 534.032,63.353 533.861,63.797 C 533.69,64.241 533.549,64.612 533.443,64.904 C 532.805,66.594 532.389,67.696 532.2,68.212 C 532.009,68.726 531.782,69.214 531.523,69.678 C 531.266,70.141 530.972,70.449 530.644,70.601 C 530.274,70.774 530.011,70.691 529.853,70.352 C 529.68,69.982 529.678,69.288 529.845,68.27 C 530.013,67.252 530.293,66.292 530.682,65.39 C 531.07,64.488 531.476,63.938 531.899,63.742 C 532.014,63.687 532.202,63.66 532.459,63.664 L 533.98,59.068 C 533.576,59.192 533.063,59.39 532.443,59.659 C 531.824,59.93 531.393,60.074 531.145,60.098 C 530.9,60.123 530.71,59.993 530.577,59.707 C 530.364,59.251 530.516,58.31 531.033,56.883 C 531.309,56.098 531.646,55.525 532.042,55.158 C 532.438,54.797 533.288,54.303 534.591,53.681 C 533.872,54.145 533.382,54.526 533.126,54.818 C 532.871,55.11 532.794,55.408 532.896,55.707 C 533.203,55.564 533.486,55.431 533.743,55.312 C 534.002,55.19 534.338,55.031 534.752,54.832 C 535.168,54.633 535.472,54.479 535.669,54.375 C 536.612,51.88 537.5,49.676 538.331,47.765 C 539.162,45.854 540.101,43.973 541.144,42.117 C 542.188,40.261 543.378,38.45 544.713,36.683 C 545.274,36.976 545.668,37.37 545.9,37.866 C 546.091,38.279 546.178,38.816 546.163,39.481 C 546.145,40.144 546.047,41.421 545.871,43.311 C 545.694,45.2 545.548,47.188 545.432,49.273 C 545.726,49.136 545.971,49.026 546.169,48.94 C 546.367,48.854 546.578,48.764 546.806,48.673 C 547.407,48.392 547.78,48.23 547.921,48.191 C 548.063,48.149 548.178,48.224 548.268,48.415 C 548.308,48.499 548.294,48.688 548.233,48.981 C 548.169,49.274 548.049,49.768 547.871,50.462 C 547.693,51.156 547.527,51.852 547.378,52.552 L 545.132,53.831 C 544.973,56.723 544.96,58.311 545.097,58.606 C 545.298,59.036 545.627,59.147 546.083,58.934 C 546.306,58.83 547.014,57.937 548.206,56.255 L 548.461,57.152 C 547.902,58.214 547.471,59.045 547.165,59.644 C 546.86,60.246 546.591,60.751 546.353,61.166 C 546.115,61.578 545.879,61.914 545.648,62.172 C 545.413,62.429 545.149,62.626 544.855,62.764 C 544.505,62.926 544.087,62.924 543.601,62.76 C 543.111,62.596 542.731,62.219 542.455,61.627 C 542.343,61.385 542.269,60.998 542.241,60.466 C 542.21,59.934 542.202,59.415 542.214,58.909 C 542.224,58.403 542.283,57.175 542.386,55.226 z M 537.722,53.011 L 542.796,50.529 C 542.922,49.227 543.027,48.172 543.108,47.365 C 543.191,46.558 543.284,45.677 543.386,44.727 C 543.49,43.774 543.583,42.965 543.665,42.297 C 543.747,41.632 543.833,40.881 543.92,40.046 C 543.38,40.873 542.851,41.762 542.328,42.711 C 541.807,43.661 541.24,44.776 540.627,46.053 C 540.016,47.331 539.486,48.502 539.044,49.56 C 538.598,50.619 538.159,51.771 537.722,53.011 z "
           id="path360" />
        <path
           style="fill:#ffffff"
           d="M 563.328,38.797 L 564.051,39.066 C 563.692,40.556 563.301,41.699 562.886,42.499 C 562.466,43.298 562.105,43.769 561.798,43.911 C 561.546,44.03 561.314,43.859 561.102,43.406 C 560.574,42.273 560.503,40.184 560.894,37.131 C 561.2,34.508 561.298,33.078 561.189,32.845 C 561.095,32.644 560.964,32.583 560.795,32.662 C 560.499,32.8 560.066,33.812 559.494,35.701 C 558.922,37.59 558.326,40.158 557.707,43.405 C 556.983,47.036 556.523,49.605 556.328,51.113 C 557.796,50.594 559.028,50.231 560.031,50.025 C 561.035,49.818 562.506,49.558 564.445,49.238 C 566.385,48.919 567.781,48.611 568.633,48.316 C 568.167,49.907 567.841,50.989 567.654,51.571 C 567.469,52.15 567.295,52.528 567.134,52.706 C 566.881,52.992 566.415,53.218 565.735,53.387 C 565.056,53.556 563.96,53.781 562.446,54.063 C 560.932,54.345 559.535,54.645 558.249,54.962 C 556.963,55.279 555.834,55.663 554.863,56.117 C 554.314,56.372 553.872,56.656 553.534,56.968 C 553.198,57.279 552.745,57.742 552.18,58.36 C 551.614,58.977 551.187,59.353 550.903,59.486 C 550.491,59.678 550.207,59.606 550.05,59.27 C 549.963,59.082 549.931,58.833 549.955,58.53 C 550.045,57.81 550.136,57.123 550.227,56.468 C 550.32,55.812 550.484,55.256 550.721,54.8 C 550.958,54.345 551.389,53.875 552.012,53.394 C 552.636,52.913 553.515,52.4 554.65,51.858 C 555.139,48.413 555.65,45.322 556.186,42.582 C 556.721,39.843 557.27,37.488 557.833,35.515 C 558.397,33.54 558.97,31.976 559.551,30.824 C 560.131,29.672 560.691,28.97 561.231,28.72 C 561.611,28.543 561.955,28.51 562.264,28.623 C 562.574,28.735 562.819,28.981 562.996,29.362 C 563.588,30.628 563.697,33.774 563.328,38.797 z "
           id="path362" />
        <path
           style="fill:#ffffff"
           d="M 582.967,19.957 L 583.469,21.034 C 583.676,21.477 583.719,21.797 583.599,21.994 C 583.477,22.19 582.985,22.801 582.119,23.821 C 581.251,24.842 580.472,25.932 579.777,27.089 C 579.903,26.338 580.059,25.747 580.255,25.324 C 580.448,24.898 580.723,24.351 581.081,23.682 C 580.517,23.715 579.812,23.927 578.969,24.32 C 577.66,24.931 576.369,25.848 575.094,27.071 C 573.821,28.296 572.823,29.516 572.096,30.727 C 571.371,31.941 571.12,32.791 571.347,33.277 C 571.466,33.531 571.725,33.663 572.122,33.677 C 572.521,33.692 573.098,33.578 573.851,33.335 C 574.607,33.093 575.522,32.739 576.604,32.273 C 577.685,31.807 579.006,31.21 580.569,30.481 C 581.71,29.949 582.463,29.649 582.83,29.581 C 583.196,29.512 583.451,29.633 583.594,29.94 C 583.778,30.331 583.793,30.868 583.643,31.55 C 583.492,32.231 583.121,32.768 582.531,33.156 C 581.625,33.773 580.905,34.272 580.378,34.654 C 579.848,35.035 579.246,35.541 578.572,36.177 C 577.897,36.811 577.189,37.603 576.451,38.55 C 575.356,39.982 574.587,41.277 574.142,42.43 C 573.699,43.587 573.616,44.463 573.895,45.063 C 574.136,45.577 574.614,45.846 575.33,45.865 C 576.045,45.884 576.948,45.639 578.034,45.132 C 581.781,43.383 584.815,39.926 587.135,34.758 C 587.638,35.782 587.947,36.743 588.067,37.644 C 588.185,38.545 588.032,39.53 587.605,40.601 C 587.251,41.497 586.592,42.504 585.629,43.62 C 584.664,44.736 583.539,45.795 582.251,46.793 C 580.962,47.791 579.684,48.586 578.417,49.178 C 576.95,49.862 575.576,50.076 574.295,49.821 C 573.012,49.567 572.102,48.859 571.562,47.699 C 571.169,46.857 571.009,45.912 571.083,44.864 C 571.156,43.818 571.493,42.69 572.092,41.48 C 572.691,40.271 573.581,39.015 574.76,37.707 C 575.942,36.401 577.407,35.12 579.162,33.864 C 579.413,33.685 579.511,33.536 579.456,33.421 C 579.396,33.294 579.199,33.292 578.866,33.414 C 578.531,33.539 577.93,33.796 577.065,34.187 C 576.2,34.578 575.426,34.894 574.743,35.135 C 574.058,35.377 573.303,35.562 572.475,35.688 C 571.627,35.802 570.866,35.66 570.194,35.268 C 569.522,34.874 569.022,34.323 568.692,33.616 C 568.269,32.709 568.167,31.645 568.383,30.427 C 568.602,29.206 569.133,27.95 569.98,26.656 C 570.828,25.36 571.993,24.094 573.477,22.855 C 574.962,21.617 576.713,20.528 578.73,19.587 C 579.892,19.045 580.732,18.734 581.254,18.65 C 581.774,18.567 582.122,18.617 582.294,18.797 C 582.469,18.983 582.693,19.369 582.967,19.957 z "
           id="path364" />
        <path
           style="fill:#ffffff"
           d="M 538.954,91.125 C 539.396,87.144 539.671,84.044 539.773,81.826 C 539.877,79.605 539.815,78.254 539.587,77.769 C 539.504,77.589 539.37,77.468 539.19,77.414 C 539.009,77.354 538.835,77.365 538.668,77.443 C 538.339,77.597 537.565,78.35 536.348,79.706 C 535.338,80.822 534.615,81.669 534.18,82.253 C 533.744,82.835 533.154,83.655 532.407,84.712 C 531.661,85.769 531.213,86.331 531.066,86.4 C 530.768,86.539 530.525,86.401 530.333,85.989 C 529.968,85.204 529.989,83.913 530.395,82.114 C 530.801,80.313 531.64,78.513 532.907,76.709 C 533.055,76.475 533.164,76.435 533.238,76.593 C 533.261,76.646 533.193,76.825 533.028,77.134 C 532.864,77.442 532.729,77.738 532.625,78.024 C 532.52,78.31 532.436,78.702 532.375,79.206 C 534.077,77.069 535.341,75.53 536.173,74.593 C 537,73.656 537.783,73.013 538.522,72.67 C 539.164,72.371 539.732,72.27 540.225,72.367 C 540.72,72.465 541.085,72.767 541.324,73.274 C 541.531,73.716 541.655,74.445 541.695,75.454 C 541.736,76.464 541.701,77.73 541.589,79.256 C 541.477,80.782 541.346,82.297 541.195,83.808 C 541.045,85.32 540.773,88.049 540.38,92.001 C 541.23,88.476 542.067,85.35 542.89,82.624 C 543.713,79.896 544.482,77.631 545.2,75.828 C 545.918,74.027 546.573,72.616 547.167,71.598 C 547.762,70.581 548.265,69.976 548.678,69.784 C 548.824,69.716 549.065,69.775 549.397,69.961 C 549.73,70.149 550.069,70.407 550.416,70.735 C 550.762,71.066 550.995,71.356 551.114,71.61 C 551.44,72.31 551.585,73.089 551.552,73.943 C 551.518,74.797 551.377,75.869 551.127,77.16 C 550.387,80.768 549.92,83.558 549.724,85.526 C 549.525,87.495 549.647,88.949 550.084,89.887 C 550.414,90.595 550.949,90.775 551.692,90.429 C 552.029,90.271 552.366,89.96 552.703,89.494 C 553.04,89.029 553.404,88.385 553.794,87.561 C 554.182,86.737 554.554,85.863 554.91,84.938 L 555.517,86.157 C 555.04,87.512 554.595,88.684 554.183,89.68 C 553.773,90.675 553.362,91.571 552.954,92.366 C 552.546,93.16 552.146,93.803 551.757,94.292 C 551.368,94.781 550.983,95.116 550.602,95.294 C 550.051,95.55 549.523,95.57 549.015,95.35 C 548.508,95.132 548.11,94.715 547.825,94.103 C 547.559,93.532 547.363,92.787 547.234,91.862 C 547.107,90.94 547.052,89.831 547.073,88.536 C 547.094,87.241 547.195,85.799 547.374,84.214 C 547.554,82.624 547.807,80.939 548.134,79.155 C 548.445,77.39 548.511,76.318 548.335,75.939 C 548.232,75.717 548.064,75.66 547.832,75.767 C 546.893,76.206 545.624,79.079 544.027,84.385 C 543.924,84.717 543.757,85.316 543.527,86.189 C 543.298,87.06 543.076,87.978 542.863,88.938 C 542.65,89.897 542.41,90.978 542.144,92.173 C 541.88,93.369 541.612,94.583 541.338,95.818 C 541.21,96.403 541.033,96.749 540.801,96.858 C 540.547,96.977 540.118,96.925 539.516,96.707 C 538.912,96.488 538.566,96.282 538.477,96.091 C 538.373,95.87 538.408,95.18 538.581,94.02 C 538.749,92.858 538.874,91.894 538.954,91.125 z "
           id="path366" />
        <path
           style="fill:#ffffff"
           d="M 561.58,68.255 C 561.83,68.048 562.083,67.84 562.336,67.632 C 562.592,67.423 562.857,67.22 563.131,67.028 C 563.405,66.834 563.686,66.671 563.97,66.538 C 564.581,66.254 565.167,66.147 565.734,66.219 C 566.299,66.289 566.799,66.51 567.234,66.879 C 567.67,67.249 568.013,67.707 568.27,68.256 C 568.668,69.112 568.97,70.162 569.175,71.41 C 569.38,72.658 569.457,73.988 569.41,75.398 C 569.365,76.809 569.188,78.202 568.883,79.579 C 568.455,81.445 567.691,83.146 566.588,84.679 C 565.484,86.214 564.312,87.271 563.067,87.852 C 562.147,88.279 561.221,88.406 560.286,88.232 C 559.349,88.058 558.461,87.586 557.62,86.815 C 556.778,86.044 556.058,85.013 555.456,83.724 C 554.648,81.993 554.311,80.037 554.445,77.861 C 554.578,75.683 555.038,73.552 555.819,71.471 C 556.6,69.39 557.527,67.583 558.597,66.049 C 559.666,64.517 560.66,63.534 561.577,63.106 C 562.326,62.757 563.008,62.722 563.624,62.996 C 564.24,63.269 564.962,63.839 565.789,64.704 C 564.824,65.194 564.026,65.71 563.397,66.256 C 562.767,66.8 562.16,67.467 561.58,68.255 z M 559.089,73.329 C 558.72,74.467 558.451,75.836 558.279,77.438 C 558.108,79.04 558.073,80.552 558.169,81.972 C 558.266,83.392 558.463,84.419 558.759,85.052 C 559.491,86.626 560.59,87.07 562.058,86.386 C 563.079,85.908 564.079,84.599 565.053,82.458 C 566.025,80.317 566.655,77.993 566.942,75.482 C 567.229,72.971 567.002,70.917 566.254,69.319 C 565.708,68.147 564.971,67.774 564.041,68.207 C 563.324,68.541 562.583,69.239 561.817,70.297 C 561.051,71.353 560.439,72.63 559.982,74.129 C 559.822,74.666 559.586,75.907 559.274,77.851 C 559.002,76.77 558.941,75.262 559.089,73.329 z "
           id="path368" />
        <path
           style="fill:#ffffff"
           d="M 575.741,78.296 C 575.627,78.053 575.522,77.689 575.424,77.202 C 575.323,76.717 575.308,76.311 575.372,75.984 C 575.525,75.129 575.665,74.344 575.792,73.629 C 575.922,72.914 576.042,72.294 576.154,71.765 C 576.267,71.238 576.398,70.752 576.551,70.307 C 577.447,67.512 578.064,65.451 578.394,64.119 C 578.727,62.789 578.804,61.934 578.626,61.554 C 578.51,61.301 578.301,61.157 578.002,61.122 C 577.704,61.087 577.363,61.16 576.983,61.336 C 576.201,61.701 575.349,62.435 574.424,63.539 C 573.501,64.641 572.454,65.999 571.289,67.62 C 570.121,69.236 569.451,70.087 569.27,70.17 C 568.985,70.304 568.747,70.165 568.557,69.759 C 568.397,69.414 568.278,68.872 568.202,68.13 C 568.045,67.352 567.928,66.746 567.853,66.311 C 567.778,65.874 567.793,65.448 567.898,65.026 C 568.002,64.604 568.257,64.078 568.665,63.452 C 569.071,62.823 569.724,61.921 570.623,60.739 L 571.056,61.254 C 571.857,60.39 572.648,59.645 573.428,59.025 C 574.208,58.402 574.909,57.946 575.531,57.657 C 576.753,57.088 577.718,56.893 578.421,57.073 C 579.127,57.252 579.806,58.039 580.457,59.435 C 580.812,60.198 581,60.885 581.019,61.493 C 581.036,62.104 580.938,63.014 580.726,64.219 C 580.254,67.033 579.842,69.025 579.489,70.193 C 578.484,73.643 578.078,75.572 578.27,75.984 C 578.379,76.217 578.585,76.262 578.892,76.119 C 579.147,76.001 579.421,75.654 579.719,75.077 C 580.017,74.501 580.335,73.723 580.676,72.743 C 581.019,71.762 581.476,70.371 582.052,68.573 C 582.667,66.668 583.161,65.008 583.537,63.594 C 583.911,62.179 584.204,60.983 584.417,60.005 C 584.628,59.025 584.736,58.501 584.745,58.436 C 584.989,57.47 585.309,56.619 585.709,55.886 C 586.106,55.153 586.391,54.745 586.561,54.666 C 586.687,54.608 586.89,54.654 587.168,54.808 C 587.444,54.961 587.718,55.168 587.987,55.427 C 588.256,55.687 588.43,55.903 588.508,56.072 C 588.535,56.124 588.527,56.438 588.487,57.016 C 588.447,57.595 588.395,58.198 588.327,58.825 C 588.261,59.455 588.135,60.429 587.951,61.746 C 587.553,64.644 587.325,67.028 587.27,68.897 C 587.213,70.766 587.297,71.938 587.518,72.411 C 587.597,72.58 587.731,72.709 587.918,72.795 C 588.106,72.881 588.264,72.894 588.391,72.836 C 588.56,72.756 588.804,72.48 589.123,72.005 C 589.443,71.531 589.754,70.916 590.059,70.16 C 590.452,69.155 590.768,68.154 591.01,67.154 C 591.251,66.154 591.447,65.074 591.6,63.91 C 591.751,62.748 591.863,61.663 591.932,60.652 C 592.001,59.645 592.058,58.591 592.096,57.492 L 591.454,56.807 C 591.353,56.701 591.255,56.546 591.162,56.345 C 591.089,56.187 591.154,55.529 591.364,54.369 C 591.574,53.211 591.777,52.585 591.977,52.491 C 592.196,52.389 592.456,52.464 592.756,52.714 C 593.058,52.966 593.284,53.255 593.439,53.583 C 593.607,53.942 593.78,54.732 593.96,55.954 C 594.141,57.174 594.246,58.704 594.279,60.54 C 594.311,62.374 594.198,64.311 593.934,66.349 C 593.709,68.128 593.33,69.734 592.8,71.175 C 592.27,72.613 591.716,73.754 591.147,74.598 C 590.576,75.444 590.101,75.954 589.721,76.132 C 589.288,76.334 588.744,76.352 588.089,76.189 C 587.543,76.032 587.126,75.857 586.838,75.665 C 586.55,75.473 586.305,75.228 586.106,74.936 C 585.905,74.644 585.707,74.286 585.509,73.862 C 585.091,72.966 584.848,71.8 584.781,70.368 C 584.713,68.932 584.75,67.092 584.893,64.842 C 583.562,70.003 582.453,73.827 581.561,76.308 C 580.67,78.789 579.833,80.213 579.054,80.578 C 578.537,80.818 577.954,80.715 577.31,80.267 C 576.667,79.814 576.143,79.159 575.741,78.296 z "
           id="path370" />
        <path
           style="fill:#ffffff"
           d="M 552.888,106.111 C 553.138,105.904 553.39,105.696 553.645,105.486 C 553.899,105.277 554.164,105.076 554.44,104.882 C 554.714,104.689 554.995,104.528 555.278,104.394 C 555.888,104.11 556.477,104.002 557.043,104.074 C 557.607,104.145 558.108,104.366 558.543,104.736 C 558.978,105.106 559.323,105.565 559.578,106.113 C 559.978,106.968 560.279,108.021 560.482,109.267 C 560.687,110.516 560.767,111.845 560.719,113.254 C 560.673,114.667 560.495,116.058 560.192,117.435 C 559.763,119.302 559.001,121.003 557.897,122.536 C 556.793,124.07 555.619,125.127 554.374,125.707 C 553.456,126.136 552.528,126.264 551.595,126.089 C 550.658,125.913 549.771,125.442 548.928,124.671 C 548.087,123.899 547.366,122.869 546.765,121.58 C 545.956,119.849 545.62,117.894 545.756,115.717 C 545.888,113.539 546.345,111.409 547.128,109.328 C 547.908,107.245 548.835,105.438 549.906,103.906 C 550.975,102.373 551.968,101.391 552.887,100.963 C 553.635,100.614 554.318,100.578 554.935,100.852 C 555.549,101.127 556.272,101.696 557.098,102.561 C 556.133,103.049 555.335,103.566 554.705,104.113 C 554.075,104.657 553.469,105.324 552.888,106.111 z M 550.399,111.184 C 550.03,112.321 549.761,113.692 549.588,115.293 C 549.419,116.895 549.382,118.406 549.479,119.829 C 549.578,121.248 549.773,122.275 550.066,122.906 C 550.801,124.481 551.901,124.925 553.367,124.241 C 554.391,123.764 555.389,122.455 556.363,120.315 C 557.336,118.173 557.965,115.848 558.253,113.337 C 558.539,110.827 558.31,108.772 557.565,107.175 C 557.018,106.002 556.28,105.63 555.351,106.063 C 554.633,106.399 553.893,107.095 553.126,108.152 C 552.361,109.209 551.751,110.488 551.294,111.985 C 551.132,112.522 550.897,113.763 550.583,115.706 C 550.312,114.625 550.25,113.118 550.399,111.184 z "
           id="path372" />
        <path
           style="fill:#ffffff"
           d="M 573.691,106.578 L 576.084,105.462 C 576.601,102.957 576.897,100.843 576.976,99.123 C 577.056,97.4 576.994,96.323 576.79,95.889 C 576.51,95.288 575.852,95.229 574.816,95.711 C 574.238,96.044 573.23,96.67 571.794,97.589 C 570.356,98.507 568.985,99.442 567.68,100.393 C 566.505,101.235 565.586,101.966 564.929,102.583 C 564.274,103.202 563.825,103.671 563.585,103.985 C 563.346,104.3 563.208,104.512 563.168,104.618 C 563.931,104.212 564.581,103.885 565.12,103.633 C 565.965,103.239 566.432,103.136 566.523,103.328 C 566.562,103.414 566.317,103.661 565.787,104.07 C 565.258,104.48 564.763,104.88 564.305,105.277 C 563.858,105.667 563.434,106.079 563.038,106.511 C 562.641,106.944 562.39,107.182 562.284,107.231 C 562.041,107.346 561.797,107.348 561.553,107.236 C 561.308,107.125 561.124,106.938 561.002,106.675 C 560.918,106.494 560.846,105.961 560.783,105.071 C 560.721,104.18 560.776,103.232 560.948,102.22 C 561.119,101.209 561.508,100.336 562.118,99.604 C 562.338,99.334 563.133,98.663 564.501,97.587 C 565.866,96.513 567.448,95.377 569.24,94.183 C 571.033,92.987 572.732,92.014 574.335,91.267 C 575.306,90.814 576.147,90.585 576.857,90.583 C 577.569,90.581 578.131,91.022 578.545,91.907 C 578.679,92.193 578.779,92.683 578.848,93.377 C 578.915,94.071 578.938,94.991 578.915,96.132 C 578.893,97.276 578.811,98.555 578.672,99.972 C 578.532,101.387 578.33,102.908 578.068,104.534 L 580.505,103.398 L 579.799,107.38 C 579.524,107.534 579.174,107.716 578.75,107.925 C 578.326,108.136 577.867,108.369 577.37,108.628 C 576.859,110.925 576.192,113.173 575.372,115.371 C 574.551,117.567 573.733,119.403 572.921,120.875 C 572.109,122.348 571.455,123.199 570.958,123.431 C 570.758,123.524 570.552,123.538 570.344,123.475 C 570.134,123.412 569.98,123.274 569.882,123.064 C 569.796,122.883 569.818,122.315 569.945,121.356 C 570.068,120.398 570.398,119.4 570.931,118.366 C 571.464,117.332 572.248,116.531 573.283,115.957 C 573.504,115.301 573.686,114.723 573.834,114.224 C 573.981,113.725 574.184,113.007 574.44,112.069 C 574.699,111.133 574.895,110.412 575.036,109.91 L 570.375,112.372 C 569.867,112.635 569.498,112.778 569.271,112.8 C 569.042,112.824 568.867,112.699 568.739,112.426 C 568.701,111.792 568.694,111.347 568.718,111.093 C 568.745,110.711 568.795,110.466 568.864,110.356 C 568.937,110.245 569.185,110.026 569.612,109.701 L 572.198,107.634 C 572.886,107.074 573.383,106.721 573.691,106.578 z "
           id="path375" />
        <path
           style="fill:#ffffff"
           d="M 591.955,98.061 L 594.349,96.946 C 594.864,94.44 595.161,92.326 595.241,90.605 C 595.319,88.882 595.259,87.805 595.055,87.372 C 594.775,86.772 594.116,86.711 593.081,87.194 C 592.504,87.526 591.495,88.152 590.06,89.07 C 588.623,89.988 587.25,90.924 585.946,91.875 C 584.768,92.718 583.851,93.448 583.195,94.065 C 582.538,94.685 582.091,95.153 581.85,95.468 C 581.613,95.782 581.472,95.994 581.432,96.102 C 582.195,95.695 582.845,95.367 583.384,95.115 C 584.23,94.721 584.696,94.619 584.787,94.811 C 584.825,94.896 584.58,95.144 584.05,95.552 C 583.521,95.963 583.028,96.363 582.569,96.759 C 582.122,97.15 581.7,97.562 581.302,97.993 C 580.905,98.426 580.654,98.665 580.548,98.714 C 580.306,98.827 580.062,98.83 579.817,98.719 C 579.573,98.608 579.389,98.422 579.265,98.158 C 579.183,97.976 579.109,97.444 579.049,96.555 C 578.986,95.663 579.041,94.714 579.212,93.704 C 579.383,92.693 579.774,91.82 580.382,91.089 C 580.601,90.818 581.397,90.146 582.765,89.071 C 584.132,87.997 585.711,86.862 587.505,85.667 C 589.298,84.47 590.995,83.498 592.599,82.751 C 593.57,82.299 594.411,82.07 595.121,82.067 C 595.833,82.066 596.394,82.507 596.809,83.392 C 596.942,83.678 597.042,84.169 597.11,84.863 C 597.177,85.558 597.203,86.476 597.177,87.618 C 597.155,88.763 597.073,90.041 596.935,91.456 C 596.796,92.872 596.593,94.393 596.331,96.019 L 598.768,94.882 L 598.062,98.865 C 597.786,99.02 597.438,99.202 597.014,99.411 C 596.59,99.621 596.13,99.855 595.633,100.113 C 595.121,102.411 594.457,104.658 593.634,106.856 C 592.814,109.052 591.996,110.888 591.185,112.359 C 590.373,113.831 589.72,114.683 589.223,114.916 C 589.021,115.01 588.817,115.023 588.608,114.961 C 588.397,114.898 588.244,114.76 588.146,114.55 C 588.062,114.369 588.082,113.8 588.208,112.842 C 588.332,111.883 588.662,110.887 589.196,109.851 C 589.729,108.818 590.512,108.017 591.547,107.443 C 591.768,106.787 591.951,106.209 592.098,105.709 C 592.245,105.212 592.449,104.493 592.705,103.556 C 592.962,102.619 593.161,101.899 593.301,101.397 L 588.641,103.859 C 588.131,104.122 587.764,104.265 587.536,104.286 C 587.308,104.31 587.132,104.185 587.005,103.912 C 586.966,103.278 586.958,102.834 586.984,102.579 C 587.011,102.198 587.06,101.952 587.13,101.843 C 587.202,101.732 587.451,101.513 587.877,101.187 L 590.463,99.12 C 591.149,98.557 591.648,98.204 591.955,98.061 z "
           id="path377" />
        <path
           style="fill:#ffffff"
           d="M 605.078,101.625 C 604.9,101.708 604.715,101.71 604.524,101.632 C 604.334,101.555 604.184,101.394 604.068,101.15 C 603.981,100.961 603.935,100.568 603.932,99.971 C 603.93,99.376 604.009,98.806 604.169,98.261 C 604.331,97.719 604.597,97.359 604.964,97.188 C 605.413,96.978 605.768,97.143 606.017,97.681 C 606.155,97.976 606.212,98.415 606.189,98.996 C 606.168,99.58 606.058,100.124 605.861,100.634 C 605.664,101.144 605.403,101.473 605.078,101.625 z "
           id="path379" />
      </g>
    </g>
    <g
       id="g381"
       transform="matrix(0.5,0,0,0.5,246.19915,580.86575)">
      <g
         id="g383">
        <g
           id="g385" />
      </g>
      <path
         id="path3817_2_"
         style="fill:#aab2ab"
         d="M 493.157,154.975 L 578.705,155.127 C 579.9,155.127 580.969,154.949 580.969,157.512 L 580.864,185.688 L 490.999,185.688 L 490.999,157.409 C 490.998,156.145 491.12,154.975 493.157,154.975 z " />
      <path
         d="M 579.453,154.639 L 492.28,154.639 C 491.345,154.639 490.584,155.4 490.584,156.334 L 490.584,185.956 C 490.584,186.168 490.756,186.339 490.967,186.339 L 580.766,186.339 C 580.977,186.339 581.149,186.168 581.149,185.956 L 581.149,156.334 C 581.148,155.4 580.386,154.639 579.453,154.639 z M 492.28,155.405 L 579.453,155.405 C 579.965,155.405 580.383,155.822 580.383,156.335 C 580.383,156.335 580.383,168.253 580.383,176.876 L 518.078,176.876 C 515.793,181.005 511.392,183.809 506.344,183.809 C 501.293,183.809 496.895,181.008 494.612,176.876 L 491.351,176.876 C 491.351,168.253 491.351,156.335 491.351,156.335 C 491.35,155.822 491.767,155.405 492.28,155.405 z "
         id="path388" />
      <g
         id="g5908_2_">
        <path
           id="path5906_2_"
           style="fill:#ffffff"
           d="M 516.638,169.391 C 516.642,175.074 512.036,179.683 506.354,179.687 C 500.671,179.69 496.062,175.086 496.058,169.403 C 496.058,169.399 496.058,169.395 496.058,169.391 C 496.054,163.707 500.659,159.098 506.341,159.094 C 512.025,159.091 516.636,163.696 516.638,169.378 C 516.638,169.382 516.638,169.386 516.638,169.391 z " />
        <g
           id="g5706_2_">
          <path
             d="M 514.714,161.009 C 516.995,163.291 518.136,166.085 518.136,169.391 C 518.136,172.697 517.015,175.461 514.773,177.684 C 512.392,180.026 509.58,181.196 506.334,181.196 C 503.127,181.196 500.363,180.036 498.043,177.714 C 495.721,175.393 494.561,172.618 494.561,169.392 C 494.561,166.166 495.721,163.371 498.043,161.01 C 500.305,158.728 503.068,157.586 506.334,157.586 C 509.638,157.585 512.431,158.727 514.714,161.009 z M 499.578,162.544 C 497.649,164.492 496.684,166.775 496.684,169.394 C 496.684,172.011 497.639,174.275 499.548,176.184 C 501.458,178.092 503.731,179.047 506.368,179.047 C 509.005,179.047 511.298,178.083 513.247,176.154 C 515.097,174.363 516.022,172.109 516.022,169.393 C 516.022,166.697 515.081,164.408 513.202,162.529 C 511.321,160.649 509.044,159.709 506.368,159.709 C 503.692,159.709 501.427,160.655 499.578,162.544 z M 504.654,168.243 C 504.36,167.599 503.92,167.278 503.33,167.278 C 502.291,167.278 501.77,167.979 501.77,169.38 C 501.77,170.781 502.291,171.48 503.33,171.48 C 504.018,171.48 504.508,171.139 504.803,170.457 L 506.245,171.225 C 505.557,172.446 504.525,173.057 503.151,173.057 C 502.09,173.057 501.241,172.733 500.603,172.082 C 499.964,171.432 499.644,170.535 499.644,169.393 C 499.644,168.27 499.974,167.378 500.632,166.718 C 501.289,166.057 502.11,165.728 503.092,165.728 C 504.546,165.728 505.585,166.3 506.216,167.445 L 504.654,168.243 z M 511.439,168.243 C 511.144,167.599 510.711,167.278 510.142,167.278 C 509.08,167.278 508.549,167.979 508.549,169.38 C 508.549,170.781 509.08,171.48 510.142,171.48 C 510.83,171.48 511.312,171.139 511.586,170.457 L 513.062,171.225 C 512.374,172.446 511.345,173.057 509.972,173.057 C 508.913,173.057 508.066,172.733 507.428,172.082 C 506.791,171.432 506.472,170.535 506.472,169.393 C 506.472,168.27 506.796,167.378 507.443,166.718 C 508.09,166.057 508.914,165.728 509.914,165.728 C 511.365,165.728 512.404,166.3 513.031,167.445 L 511.439,168.243 z "
             id="path393" />
        </g>
      </g>
      <g
         id="g370_3_"
         style="enable-background:new">
        <path
           style="fill:#ffffff"
           d="M 526.88,179.356 C 527.118,179.356 527.335,179.377 527.532,179.418 C 527.727,179.46 527.895,179.529 528.036,179.625 C 528.177,179.721 528.284,179.848 528.362,180.006 C 528.44,180.164 528.477,180.36 528.477,180.594 C 528.477,180.846 528.42,181.055 528.305,181.223 C 528.192,181.392 528.022,181.529 527.797,181.637 C 528.106,181.725 528.336,181.88 528.488,182.102 C 528.64,182.325 528.717,182.592 528.717,182.905 C 528.717,183.157 528.668,183.375 528.571,183.559 C 528.473,183.743 528.341,183.894 528.175,184.01 C 528.009,184.127 527.82,184.213 527.607,184.27 C 527.394,184.327 527.175,184.354 526.951,184.354 L 524.523,184.354 L 524.523,179.356 L 526.88,179.356 L 526.88,179.356 z M 526.74,181.377 C 526.935,181.377 527.097,181.33 527.224,181.236 C 527.349,181.144 527.412,180.993 527.412,180.783 C 527.412,180.667 527.392,180.571 527.35,180.497 C 527.307,180.422 527.252,180.365 527.182,180.322 C 527.112,180.28 527.032,180.251 526.94,180.234 C 526.85,180.218 526.754,180.211 526.657,180.211 L 525.626,180.211 L 525.626,181.377 L 526.74,181.377 z M 526.804,183.499 C 526.911,183.499 527.013,183.489 527.113,183.468 C 527.211,183.447 527.297,183.411 527.373,183.363 C 527.447,183.314 527.506,183.248 527.551,183.164 C 527.596,183.08 527.617,182.973 527.617,182.842 C 527.617,182.586 527.545,182.403 527.4,182.293 C 527.255,182.183 527.064,182.129 526.826,182.129 L 525.625,182.129 L 525.625,183.5 L 526.804,183.5 L 526.804,183.499 z "
           id="path396" />
        <polygon
           id="path374_3_"
           style="fill:#ffffff"
           points="528.914,179.356 530.146,179.356 531.316,181.33 532.48,179.356 533.705,179.356 531.849,182.436 531.849,184.354 530.748,184.354 530.748,182.408 528.914,179.356 " />
      </g>
      <g
         id="g376_3_"
         style="enable-background:new">
        <polygon
           id="path378_3_"
           style="fill:#ffffff"
           points="545.312,179.356 547.402,182.709 547.414,182.709 547.414,179.356 548.445,179.356 548.445,184.354 547.345,184.354 545.265,181.007 545.251,181.007 545.251,184.354 544.22,184.354 544.22,179.356 545.312,179.356 " />
        <path
           id="path380_3_"
           style="fill:#ffffff"
           d="M 552.617,180.688 C 552.553,180.583 552.471,180.49 552.371,180.411 C 552.273,180.332 552.162,180.269 552.039,180.225 C 551.916,180.18 551.785,180.159 551.65,180.159 C 551.404,180.159 551.193,180.206 551.019,180.303 C 550.847,180.398 550.707,180.527 550.601,180.687 C 550.492,180.849 550.413,181.032 550.365,181.237 C 550.317,181.442 550.293,181.654 550.293,181.874 C 550.293,182.084 550.316,182.289 550.365,182.486 C 550.414,182.684 550.492,182.863 550.601,183.021 C 550.706,183.18 550.847,183.306 551.019,183.403 C 551.193,183.499 551.404,183.547 551.65,183.547 C 551.986,183.547 552.25,183.444 552.437,183.238 C 552.626,183.033 552.742,182.761 552.785,182.426 L 553.849,182.426 C 553.82,182.738 553.747,183.022 553.632,183.274 C 553.515,183.527 553.361,183.741 553.169,183.92 C 552.978,184.098 552.753,184.233 552.497,184.327 C 552.241,184.421 551.958,184.468 551.649,184.468 C 551.266,184.468 550.922,184.402 550.616,184.268 C 550.311,184.136 550.052,183.952 549.843,183.718 C 549.632,183.486 549.47,183.21 549.359,182.896 C 549.248,182.58 549.191,182.241 549.191,181.876 C 549.191,181.502 549.248,181.155 549.359,180.835 C 549.47,180.516 549.632,180.236 549.843,179.999 C 550.052,179.761 550.312,179.573 550.616,179.438 C 550.923,179.302 551.266,179.235 551.649,179.235 C 551.924,179.235 552.184,179.274 552.43,179.354 C 552.674,179.433 552.895,179.549 553.088,179.702 C 553.281,179.853 553.442,180.042 553.567,180.265 C 553.694,180.489 553.772,180.746 553.805,181.036 L 552.741,181.036 C 552.724,180.908 552.681,180.792 552.617,180.688 z " />
      </g>
      <g
         id="g382_3_"
         style="enable-background:new">
        <polygon
           id="path384_3_"
           style="fill:#ffffff"
           points="564.812,179.356 566.902,182.709 566.914,182.709 566.914,179.356 567.945,179.356 567.945,184.354 566.845,184.354 564.765,181.007 564.751,181.007 564.751,184.354 563.72,184.354 563.72,179.356 564.812,179.356 " />
        <path
           style="fill:#ffffff"
           d="M 571.066,179.356 C 571.388,179.356 571.689,179.407 571.966,179.51 C 572.245,179.612 572.486,179.766 572.689,179.971 C 572.892,180.176 573.05,180.434 573.166,180.742 C 573.279,181.05 573.338,181.412 573.338,181.827 C 573.338,182.191 573.291,182.526 573.197,182.835 C 573.103,183.144 572.963,183.409 572.773,183.633 C 572.583,183.857 572.347,184.034 572.064,184.161 C 571.783,184.29 571.449,184.354 571.066,184.354 L 568.908,184.354 L 568.908,179.356 L 571.066,179.356 L 571.066,179.356 z M 570.988,183.428 C 571.148,183.428 571.302,183.403 571.451,183.351 C 571.601,183.299 571.734,183.215 571.849,183.096 C 571.966,182.977 572.06,182.823 572.13,182.631 C 572.2,182.439 572.235,182.206 572.235,181.932 C 572.235,181.68 572.21,181.453 572.161,181.25 C 572.112,181.047 572.032,180.873 571.919,180.729 C 571.808,180.584 571.659,180.473 571.476,180.397 C 571.29,180.32 571.064,180.282 570.792,180.282 L 570.009,180.282 L 570.009,183.428 L 570.988,183.428 z "
           id="path405" />
      </g>
      <g
         id="g6370_4_">
        <g
           id="g7610_4_">
          <path
             id="path6372_4_"
             style="fill:#ffffff"
             d="M 556.847,165.946 C 556.851,170.098 553.488,173.466 549.335,173.469 C 545.185,173.471 541.817,170.108 541.814,165.957 C 541.814,165.952 541.814,165.949 541.814,165.945 C 541.812,161.794 545.175,158.425 549.326,158.423 C 553.478,158.42 556.846,161.783 556.847,165.935 C 556.847,165.938 556.847,165.943 556.847,165.946 z " />
          <path
             d="M 549.32,157.195 C 551.773,157.195 553.847,158.041 555.541,159.732 C 557.236,161.424 558.084,163.497 558.084,165.946 C 558.084,168.396 557.25,170.446 555.586,172.094 C 553.818,173.83 551.729,174.698 549.32,174.698 C 546.939,174.698 544.888,173.837 543.164,172.116 C 541.441,170.395 540.58,168.339 540.58,165.946 C 540.58,163.553 541.441,161.482 543.164,159.732 C 544.843,158.041 546.896,157.195 549.32,157.195 z M 542.548,163.594 C 542.286,164.333 542.155,165.117 542.155,165.946 C 542.155,167.886 542.864,169.563 544.28,170.979 C 545.698,172.393 547.384,173.1 549.341,173.1 C 551.298,173.1 552.999,172.385 554.445,170.955 C 554.929,170.488 555.33,169.977 555.642,169.425 L 552.341,167.956 C 552.118,169.066 551.128,169.815 549.933,169.903 L 549.933,171.253 L 548.929,171.253 L 548.929,169.903 C 547.947,169.892 546.997,169.49 546.273,168.855 L 547.478,167.64 C 548.058,168.186 548.638,168.431 549.431,168.431 C 549.945,168.431 550.513,168.23 550.513,167.562 C 550.513,167.325 550.421,167.16 550.279,167.036 L 549.443,166.666 L 548.404,166.202 C 547.89,165.973 547.455,165.779 547.017,165.585 L 542.548,163.594 z M 549.341,158.77 C 547.355,158.77 545.675,159.469 544.302,160.87 C 543.929,161.248 543.605,161.641 543.329,162.053 L 546.673,163.542 C 546.976,162.614 547.859,162.051 548.929,161.989 L 548.929,160.639 L 549.933,160.639 L 549.933,161.989 C 550.626,162.022 551.384,162.212 552.132,162.791 L 550.982,163.974 C 550.558,163.673 550.023,163.46 549.488,163.46 C 549.052,163.46 548.437,163.594 548.437,164.141 C 548.437,164.224 548.466,164.297 548.517,164.363 L 549.636,164.861 L 550.392,165.199 C 550.876,165.415 551.339,165.62 551.798,165.824 L 556.282,167.82 C 556.43,167.234 556.505,166.609 556.505,165.947 C 556.505,163.949 555.804,162.257 554.401,160.871 C 553.015,159.469 551.328,158.77 549.341,158.77 z "
             id="path410" />
        </g>
      </g>
      <g
         id="g6394_4_">
        <path
           id="path6396_4_"
           style="fill:#ffffff"
           d="M 577.125,165.946 C 577.129,170.358 573.555,173.937 569.143,173.941 C 564.731,173.944 561.151,170.37 561.149,165.958 C 561.149,165.954 561.149,165.95 561.149,165.946 C 561.145,161.535 564.719,157.956 569.131,157.952 C 573.543,157.948 577.121,161.522 577.125,165.934 C 577.125,165.938 577.125,165.942 577.125,165.946 z " />
        <g
           id="g6398_4_">
          <path
             d="M 569.011,157.195 C 566.587,157.195 564.534,158.04 562.855,159.732 C 561.132,161.482 560.271,163.553 560.271,165.946 C 560.271,168.339 561.132,170.395 562.855,172.116 C 564.578,173.837 566.63,174.698 569.011,174.698 C 571.421,174.698 573.509,173.83 575.277,172.094 C 576.941,170.446 577.773,168.396 577.773,165.946 C 577.773,163.495 576.927,161.425 575.232,159.732 C 573.539,158.04 571.464,157.195 569.011,157.195 z M 569.033,158.769 C 571.019,158.769 572.705,159.469 574.094,160.87 C 575.496,162.256 576.196,163.948 576.196,165.946 C 576.196,167.96 575.51,169.63 574.139,170.956 C 572.692,172.386 570.991,173.101 569.034,173.101 C 567.077,173.101 565.389,172.394 563.973,170.978 C 562.557,169.564 561.848,167.886 561.848,165.947 C 561.848,164.007 562.563,162.315 563.996,160.871 C 565.367,159.469 567.046,158.769 569.033,158.769 z "
             id="path415" />
          <g
             id="g6402_4_">
            <path
               d="M 572.328,163.872 L 565.967,163.872 L 565.967,165.379 L 572.328,165.379 L 572.328,163.872 z M 572.328,166.684 L 565.967,166.684 L 565.967,168.191 L 572.328,168.191 L 572.328,166.684 z "
               id="path418" />
          </g>
        </g>
      </g>
      <g
         id="g398_3_">
        <circle
           id="circle400_3_"
           style="fill:#ffffff"
           cx="529.65002"
           cy="166.125"
           r="8.1040001"
           sodipodi:cx="529.65002"
           sodipodi:cy="166.125"
           sodipodi:rx="8.1040001"
           sodipodi:ry="8.1040001" />
        <g
           id="g402_3_">
          <path
             id="path404_3_"
             d="M 531.996,163.779 C 531.996,163.467 531.742,163.214 531.432,163.214 L 527.852,163.214 C 527.54,163.214 527.288,163.468 527.288,163.779 L 527.288,167.359 L 528.286,167.359 L 528.286,171.598 L 530.999,171.598 L 530.999,167.359 L 531.997,167.359 L 531.997,163.779 L 531.996,163.779 z " />
          <circle
             id="circle406_3_"
             cx="529.64001"
             cy="161.51801"
             r="1.225"
             sodipodi:cx="529.64001"
             sodipodi:cy="161.51801"
             sodipodi:rx="1.225"
             sodipodi:ry="1.225" />
        </g>
        <path
           d="M 529.63,157.195 C 527.206,157.195 525.153,158.04 523.474,159.733 C 521.751,161.482 520.89,163.553 520.89,165.946 C 520.89,168.338 521.751,170.395 523.474,172.116 C 525.197,173.837 527.249,174.698 529.63,174.698 C 532.038,174.698 534.128,173.83 535.896,172.094 C 537.56,170.447 538.392,168.397 538.392,165.947 C 538.392,163.496 537.546,161.426 535.851,159.734 C 534.158,158.04 532.083,157.195 529.63,157.195 z M 529.652,158.769 C 531.638,158.769 533.324,159.469 534.713,160.87 C 536.115,162.256 536.817,163.948 536.817,165.946 C 536.817,167.959 536.129,169.63 534.756,170.956 C 533.311,172.386 531.61,173.101 529.652,173.101 C 527.694,173.101 526.007,172.394 524.591,170.979 C 523.175,169.564 522.466,167.886 522.466,165.947 C 522.466,164.008 523.181,162.315 524.612,160.871 C 525.986,159.469 527.666,158.769 529.652,158.769 z "
           id="path425" />
      </g>
    </g>
  </g>
</svg>
