<?xml version="1.0" encoding="UTF-8" standalone="no"?>
<!-- Created with Inkscape (http://www.inkscape.org/) -->
<svg
   xmlns:dc="http://purl.org/dc/elements/1.1/"
   xmlns:cc="http://web.resource.org/cc/"
   xmlns:rdf="http://www.w3.org/1999/02/22-rdf-syntax-ns#"
   xmlns:svg="http://www.w3.org/2000/svg"
   xmlns="http://www.w3.org/2000/svg"
   xmlns:sodipodi="http://sodipodi.sourceforge.net/DTD/sodipodi-0.dtd"
   xmlns:inkscape="http://www.inkscape.org/namespaces/inkscape"
   width="142.73201"
   height="163.41324"
   id="svg2819"
   sodipodi:version="0.32"
   inkscape:version="0.45.1"
   version="1.0"
   sodipodi:docbase="/Users/robmyers/Desktop/cc-ironies/final"
   sodipodi:docname="sale_now_on.svg"
   inkscape:output_extension="org.inkscape.output.svg.inkscape">
  <defs
     id="defs2821" />
  <sodipodi:namedview
     id="base"
     pagecolor="#ffffff"
     bordercolor="#666666"
     borderopacity="1.0"
     gridtolerance="10000"
     guidetolerance="10"
     objecttolerance="10"
     inkscape:pageopacity="0.0"
     inkscape:pageshadow="2"
     inkscape:zoom="2.3131541"
     inkscape:cx="71.366005"
     inkscape:cy="81.706619"
     inkscape:document-units="px"
     inkscape:current-layer="layer1"
     inkscape:window-width="697"
     inkscape:window-height="581"
     inkscape:window-x="26"
     inkscape:window-y="54" />
  <metadata
     id="metadata2824">
    <rdf:RDF>
      <cc:Work
         rdf:about="">
        <dc:format>image/svg+xml</dc:format>
        <dc:type
           rdf:resource="http://purl.org/dc/dcmitype/StillImage" />
      </cc:Work>
    </rdf:RDF>
  </metadata>
  <g
     inkscape:label="Layer 1"
     inkscape:groupmode="layer"
     id="layer1"
     transform="translate(-777.20543,-313.47891)">
    <rect
       id="rect249"
       height="141.73199"
       width="141.73199"
       style="fill:#ffffff;stroke:#000000"
       y="313.97891"
       x="777.70544" />
    <g
       id="g251"
       transform="matrix(0.5,0,0,0.5,531.91393,383.72315)">
      <path
         d="M 493.153,154.97 L 578.702,155.121 C 579.897,155.121 580.966,154.944 580.966,157.507 L 580.861,185.682 L 490.996,185.682 L 490.996,157.403 C 490.995,156.139 491.118,154.97 493.153,154.97 z "
         style="fill:#aab2ab"
         id="path3817_2_" />
      <g
         id="g5908_2_">
        <path
           d="M 516.636,169.385 C 516.64,175.068 512.034,179.678 506.353,179.682 C 500.669,179.685 496.058,175.08 496.056,169.398 C 496.056,169.393 496.056,169.389 496.056,169.385 C 496.052,163.701 500.658,159.092 506.339,159.088 C 512.023,159.086 516.632,163.69 516.636,169.373 C 516.636,169.377 516.636,169.381 516.636,169.385 z "
           style="fill:#ffffff"
           id="path5906_2_" />
        <g
           id="g5706_2_">
          <path
             id="path257"
             d="M 514.71,161.004 C 516.993,163.285 518.134,166.08 518.134,169.385 C 518.134,172.692 517.013,175.455 514.771,177.678 C 512.39,180.02 509.578,181.191 506.332,181.191 C 503.125,181.191 500.361,180.03 498.039,177.708 C 495.719,175.388 494.559,172.613 494.559,169.386 C 494.559,166.159 495.719,163.365 498.039,161.005 C 500.303,158.722 503.066,157.581 506.332,157.581 C 509.636,157.58 512.429,158.721 514.71,161.004 z M 499.575,162.538 C 497.645,164.486 496.682,166.769 496.682,169.388 C 496.682,172.007 497.637,174.27 499.545,176.178 C 501.453,178.086 503.727,179.041 506.365,179.041 C 509.002,179.041 511.295,178.078 513.242,176.148 C 515.094,174.357 516.019,172.103 516.019,169.387 C 516.019,166.691 515.078,164.404 513.199,162.523 C 511.318,160.644 509.041,159.705 506.365,159.705 C 503.688,159.705 501.425,160.649 499.575,162.538 z M 504.651,168.236 C 504.358,167.593 503.915,167.271 503.327,167.271 C 502.286,167.271 501.766,167.972 501.766,169.373 C 501.766,170.774 502.286,171.475 503.327,171.475 C 504.015,171.475 504.505,171.133 504.8,170.45 L 506.241,171.219 C 505.553,172.441 504.522,173.05 503.147,173.05 C 502.086,173.05 501.237,172.726 500.6,172.075 C 499.959,171.425 499.641,170.528 499.641,169.386 C 499.641,168.263 499.971,167.372 500.629,166.712 C 501.287,166.052 502.106,165.722 503.088,165.722 C 504.541,165.722 505.582,166.294 506.211,167.439 L 504.651,168.236 z M 511.437,168.236 C 511.142,167.593 510.71,167.271 510.14,167.271 C 509.078,167.271 508.548,167.972 508.548,169.373 C 508.548,170.774 509.077,171.475 510.14,171.475 C 510.828,171.475 511.31,171.133 511.585,170.45 L 513.06,171.219 C 512.372,172.441 511.343,173.05 509.97,173.05 C 508.911,173.05 508.064,172.726 507.425,172.075 C 506.79,171.425 506.47,170.528 506.47,169.386 C 506.47,168.263 506.794,167.372 507.441,166.712 C 508.088,166.052 508.912,165.722 509.912,165.722 C 511.363,165.722 512.402,166.294 513.029,167.439 L 511.437,168.236 z " />
        </g>
      </g>
      <path
         id="path259"
         d="M 579.45,154.639 L 492.278,154.639 C 491.342,154.639 490.583,155.399 490.583,156.334 L 490.583,185.955 C 490.583,186.166 490.753,186.338 490.966,186.338 L 580.763,186.338 C 580.974,186.338 581.146,186.166 581.146,185.955 L 581.146,156.334 C 581.146,155.398 580.384,154.639 579.45,154.639 z M 492.278,155.404 L 579.45,155.404 C 579.962,155.404 580.38,155.82 580.38,156.334 C 580.38,156.334 580.38,168.248 580.38,176.869 L 518.073,176.869 C 515.79,180.998 511.389,183.803 506.341,183.803 C 501.29,183.803 496.892,181.002 494.609,176.869 L 491.349,176.869 C 491.349,168.248 491.349,156.334 491.349,156.334 C 491.349,155.82 491.765,155.404 492.278,155.404 z " />
      <g
         style="enable-background:new"
         id="g334_2_">
        <path
           id="path262"
           d="M 535.86,179.355 C 536.098,179.355 536.317,179.375 536.512,179.417 C 536.709,179.458 536.877,179.526 537.018,179.624 C 537.159,179.719 537.266,179.847 537.344,180.005 C 537.42,180.163 537.459,180.359 537.459,180.592 C 537.459,180.844 537.402,181.054 537.287,181.222 C 537.172,181.39 537.002,181.527 536.779,181.635 C 537.088,181.723 537.318,181.878 537.47,182.101 C 537.622,182.322 537.699,182.59 537.699,182.902 C 537.699,183.154 537.65,183.373 537.553,183.557 C 537.453,183.742 537.323,183.892 537.157,184.008 C 536.991,184.125 536.802,184.212 536.589,184.267 C 536.376,184.325 536.157,184.353 535.933,184.353 L 533.505,184.353 L 533.505,179.355 L 535.86,179.355 z M 535.72,181.377 C 535.917,181.377 536.077,181.33 536.204,181.236 C 536.331,181.143 536.393,180.992 536.393,180.783 C 536.393,180.666 536.372,180.57 536.331,180.496 C 536.288,180.422 536.233,180.364 536.163,180.322 C 536.093,180.279 536.011,180.25 535.921,180.234 C 535.829,180.217 535.735,180.211 535.636,180.211 L 534.607,180.211 L 534.607,181.377 L 535.72,181.377 z M 535.784,183.498 C 535.893,183.498 535.995,183.487 536.093,183.465 C 536.193,183.445 536.279,183.41 536.353,183.361 C 536.429,183.311 536.488,183.246 536.533,183.16 C 536.578,183.077 536.599,182.971 536.599,182.84 C 536.599,182.584 536.527,182.401 536.382,182.291 C 536.236,182.181 536.044,182.127 535.806,182.127 L 534.607,182.127 L 534.607,183.498 L 535.784,183.498 L 535.784,183.498 z "
           style="fill:#ffffff" />
        <polygon
           points="537.894,179.355 539.128,179.355 540.298,181.328 541.46,179.355 542.687,179.355 540.831,182.434 540.831,184.354 539.729,184.354 539.729,182.406 537.894,179.355 "
           style="fill:#ffffff"
           id="path338_2_" />
      </g>
      <g
         style="enable-background:new"
         id="g340_2_">
        <polygon
           points="555.813,179.355 557.901,182.708 557.913,182.708 557.913,179.355 558.944,179.355 558.944,184.354 557.845,184.354 555.765,181.006 555.751,181.006 555.751,184.354 554.72,184.354 554.72,179.355 555.813,179.355 "
           style="fill:#ffffff"
           id="path342_2_" />
        <path
           d="M 563.116,180.687 C 563.052,180.582 562.97,180.489 562.872,180.411 C 562.772,180.331 562.663,180.268 562.538,180.224 C 562.415,180.18 562.286,180.159 562.151,180.159 C 561.903,180.159 561.692,180.206 561.52,180.302 C 561.346,180.398 561.208,180.525 561.1,180.687 C 560.993,180.847 560.914,181.031 560.866,181.236 C 560.815,181.441 560.792,181.654 560.792,181.873 C 560.792,182.083 560.815,182.288 560.866,182.486 C 560.915,182.683 560.993,182.862 561.1,183.02 C 561.207,183.179 561.346,183.306 561.52,183.402 C 561.692,183.498 561.903,183.547 562.151,183.547 C 562.485,183.547 562.749,183.443 562.938,183.237 C 563.127,183.032 563.243,182.761 563.284,182.425 L 564.348,182.425 C 564.321,182.737 564.248,183.02 564.131,183.272 C 564.014,183.525 563.86,183.74 563.668,183.918 C 563.479,184.096 563.254,184.232 562.996,184.326 C 562.74,184.42 562.457,184.467 562.15,184.467 C 561.767,184.467 561.421,184.399 561.117,184.266 C 560.81,184.134 560.553,183.95 560.342,183.717 C 560.131,183.484 559.971,183.208 559.858,182.893 C 559.747,182.579 559.69,182.239 559.69,181.873 C 559.69,181.5 559.747,181.154 559.858,180.834 C 559.971,180.514 560.131,180.234 560.342,179.997 C 560.553,179.758 560.811,179.572 561.117,179.435 C 561.422,179.3 561.767,179.234 562.15,179.234 C 562.425,179.234 562.685,179.273 562.929,179.352 C 563.175,179.431 563.394,179.546 563.587,179.699 C 563.782,179.851 563.941,180.039 564.067,180.263 C 564.192,180.488 564.272,180.745 564.305,181.034 L 563.241,181.034 C 563.224,180.906 563.183,180.791 563.116,180.687 z "
           style="fill:#ffffff"
           id="path344_2_" />
      </g>
      <g
         id="g6379_3_">
        <path
           d="M 567.349,165.945 C 567.351,170.096 563.99,173.465 559.837,173.467 C 555.684,173.469 552.317,170.107 552.314,165.955 C 552.314,165.95 552.314,165.947 552.314,165.944 C 552.312,161.792 555.675,158.424 559.826,158.421 C 563.978,158.419 567.346,161.782 567.349,165.933 C 567.349,165.938 567.349,165.941 567.349,165.945 z "
           style="fill:#ffffff"
           id="path6381_3_" />
        <path
           id="path270"
           d="M 559.819,157.193 C 562.272,157.193 564.346,158.039 566.042,159.73 C 567.735,161.423 568.583,163.494 568.583,165.945 C 568.583,168.395 567.751,170.445 566.085,172.093 C 564.317,173.829 562.23,174.697 559.819,174.697 C 557.438,174.697 555.387,173.836 553.665,172.114 C 551.94,170.394 551.079,168.338 551.079,165.945 C 551.079,163.552 551.94,161.48 553.665,159.73 C 555.343,158.039 557.396,157.193 559.819,157.193 z M 553.048,163.594 C 552.788,164.332 552.657,165.115 552.657,165.946 C 552.657,167.885 553.364,169.563 554.78,170.977 C 556.198,172.391 557.884,173.1 559.842,173.1 C 561.799,173.1 563.498,172.385 564.946,170.955 C 565.43,170.488 565.829,169.976 566.141,169.424 L 562.842,167.955 C 562.617,169.064 561.629,169.814 560.434,169.902 L 560.434,171.252 L 559.428,171.252 L 559.428,169.902 C 558.446,169.891 557.496,169.49 556.772,168.855 L 557.977,167.639 C 558.557,168.185 559.139,168.431 559.93,168.431 C 560.444,168.431 561.014,168.23 561.014,167.56 C 561.014,167.324 560.92,167.16 560.778,167.035 L 559.942,166.664 L 558.903,166.201 C 558.389,165.972 557.956,165.779 557.518,165.584 L 553.048,163.594 z M 559.843,158.769 C 557.857,158.769 556.177,159.469 554.804,160.87 C 554.429,161.247 554.105,161.641 553.829,162.052 L 557.175,163.542 C 557.476,162.614 558.359,162.05 559.429,161.987 L 559.429,160.638 L 560.435,160.638 L 560.435,161.987 C 561.126,162.021 561.886,162.211 562.632,162.79 L 561.484,163.973 C 561.06,163.672 560.523,163.46 559.988,163.46 C 559.552,163.46 558.939,163.593 558.939,164.14 C 558.939,164.224 558.966,164.296 559.017,164.362 L 560.136,164.86 L 560.894,165.198 C 561.378,165.414 561.841,165.619 562.298,165.824 L 566.782,167.82 C 566.93,167.232 567.005,166.608 567.005,165.947 C 567.005,163.947 566.304,162.257 564.903,160.871 C 563.515,159.469 561.827,158.769 559.843,158.769 z " />
      </g>
      <g
         id="g349_2_">
        <circle
           sodipodi:ry="8.1049995"
           sodipodi:rx="8.1049995"
           sodipodi:cy="166.12399"
           sodipodi:cx="538.39899"
           r="8.1049995"
           cy="166.12399"
           cx="538.39899"
           style="fill:#ffffff"
           id="circle351_2_" />
        <g
           id="g353_2_">
          <path
             d="M 540.745,163.779 C 540.745,163.467 540.491,163.213 540.179,163.213 L 536.601,163.213 C 536.289,163.213 536.035,163.467 536.035,163.779 L 536.035,167.358 L 537.033,167.358 L 537.033,171.597 L 539.746,171.597 L 539.746,167.358 L 540.746,167.358 L 540.746,163.779 L 540.745,163.779 z "
             id="path355_2_" />
          <circle
             sodipodi:ry="1.225"
             sodipodi:rx="1.225"
             sodipodi:cy="161.51801"
             sodipodi:cx="538.39001"
             r="1.225"
             cy="161.51801"
             cx="538.39001"
             id="circle357_2_" />
        </g>
        <path
           id="path277"
           d="M 538.378,157.193 C 535.954,157.193 533.901,158.039 532.222,159.731 C 530.499,161.482 529.638,163.552 529.638,165.945 C 529.638,168.337 530.499,170.394 532.222,172.115 C 533.947,173.836 535.999,174.697 538.378,174.697 C 540.788,174.697 542.878,173.83 544.644,172.093 C 546.31,170.445 547.142,168.396 547.142,165.945 C 547.142,163.494 546.294,161.424 544.601,159.731 C 542.908,158.038 540.833,157.193 538.378,157.193 z M 538.401,158.769 C 540.387,158.769 542.073,159.469 543.46,160.87 C 544.864,162.256 545.564,163.948 545.564,165.946 C 545.564,167.958 544.878,169.629 543.505,170.956 C 542.06,172.386 540.359,173.101 538.401,173.101 C 536.443,173.101 534.756,172.394 533.34,170.978 C 531.922,169.564 531.215,167.886 531.215,165.947 C 531.215,164.007 531.93,162.314 533.361,160.871 C 534.735,159.469 536.415,158.769 538.401,158.769 z " />
      </g>
    </g>
    <g
       id="g279"
       transform="translate(287.12242,313.4789)">
      <polygon
         style="fill:#ff0000"
         points="538.384,21.36 539.722,9.042 548.476,17.811 552.19,5.992 559.065,16.299 565.015,5.43 569.747,16.881 577.701,7.383 580.108,19.538 589.765,11.774 589.753,24.164 600.738,18.434 598.31,30.583 610.202,27.105 605.45,38.548 617.792,37.458 610.899,47.752 623.217,49.09 614.448,57.843 626.269,61.559 615.96,68.434 626.828,74.383 615.377,79.115 624.875,87.071 612.722,89.477 620.485,99.132 608.095,99.122 613.825,110.106 601.676,107.678 605.153,119.571 593.711,114.819 594.802,127.161 584.506,120.268 583.168,132.586 574.415,123.817 570.7,135.637 563.825,125.329 557.876,136.197 553.144,124.746 545.188,134.244 542.782,122.09 533.126,129.854 533.138,117.463 522.152,123.194 524.58,111.043 512.688,114.523 517.44,103.08 505.099,104.17 511.99,93.875 499.673,92.538 508.442,83.784 496.622,80.069 506.931,73.194 496.062,67.245 507.513,62.513 498.015,54.557 510.169,52.151 502.405,42.495 514.795,42.506 509.064,31.52 521.214,33.95 517.737,22.058 529.179,26.809 528.089,14.467 538.384,21.36 "
         id="polygon281" />
      <g
         id="g283">
        <path
           style="fill:#ffffff"
           d="M 523.254,66.719 C 523.769,67.514 524.3,68.039 524.845,68.295 C 525.841,68.764 527.113,68.636 528.663,67.913 C 529.591,67.48 530.298,67.028 530.782,66.555 C 531.7,65.655 531.913,64.676 531.42,63.619 C 531.133,63.004 530.636,62.654 529.93,62.572 C 529.227,62.5 528.234,62.606 526.951,62.892 L 524.754,63.372 C 522.591,63.842 521.015,63.993 520.025,63.825 C 518.354,63.551 517.089,62.493 516.232,60.653 C 515.449,58.974 515.41,57.296 516.115,55.614 C 516.82,53.933 518.356,52.54 520.724,51.436 C 522.703,50.513 524.633,50.248 526.517,50.639 C 528.4,51.032 529.837,52.203 530.831,54.157 L 527.079,55.907 C 526.485,54.808 525.616,54.237 524.475,54.19 C 523.713,54.163 522.876,54.361 521.965,54.786 C 520.949,55.26 520.236,55.842 519.82,56.531 C 519.406,57.222 519.369,57.932 519.709,58.664 C 520.023,59.335 520.556,59.698 521.307,59.751 C 521.793,59.794 522.733,59.671 524.123,59.387 L 527.732,58.654 C 529.314,58.33 530.595,58.287 531.576,58.519 C 533.099,58.882 534.25,59.897 535.027,61.566 C 535.826,63.277 535.832,65.004 535.048,66.746 C 534.264,68.489 532.674,69.918 530.281,71.035 C 527.836,72.176 525.654,72.517 523.736,72.06 C 521.817,71.605 520.406,70.408 519.502,68.468 L 523.254,66.719 z "
           id="path285" />
        <path
           style="fill:#ffffff"
           d="M 537.05,44.515 L 541.467,42.455 L 556.798,58.085 L 552.566,60.06 L 549.547,56.794 L 542.657,60.008 L 543.178,64.436 L 539.092,66.342 L 537.05,44.515 z M 542.216,56.284 L 547.009,54.05 L 541.212,47.782 L 542.216,56.284 z "
           id="path287" />
        <path
           style="fill:#ffffff"
           d="M 550.441,38.27 L 554.323,36.461 L 561.503,51.856 L 570.837,47.504 L 572.382,50.818 L 559.167,56.981 L 550.441,38.27 z "
           id="path289" />
        <path
           style="fill:#ffffff"
           d="M 581.679,27.793 L 571.791,32.402 L 573.642,36.373 L 582.718,32.141 L 584.222,35.368 L 575.148,39.6 L 577.384,44.399 L 587.728,39.576 L 589.294,42.934 L 575.155,49.526 L 566.45,30.859 L 580.132,24.479 L 581.679,27.793 z "
           id="path291" />
        <path
           style="fill:#ffffff"
           d="M 528.989,78.859 L 533.063,76.96 L 546.532,86.532 L 540.461,73.511 L 544.081,71.823 L 552.806,90.534 L 548.921,92.345 L 535.15,82.619 L 541.336,95.883 L 537.716,97.571 L 528.989,78.859 z "
           id="path293" />
        <path
           style="fill:#ffffff"
           d="M 570.069,80.415 C 569.335,82.528 567.63,84.205 564.958,85.451 C 562.284,86.698 559.904,86.925 557.814,86.13 C 555.088,85.232 552.944,83.108 551.381,79.755 C 549.786,76.335 549.537,73.327 550.631,70.73 C 551.367,68.619 553.07,66.94 555.743,65.695 C 558.416,64.449 560.797,64.222 562.888,65.015 C 565.573,65.849 567.712,67.976 569.307,71.396 C 570.871,74.748 571.124,77.754 570.069,80.415 z M 566.323,78.7 C 566.704,77.138 566.405,75.305 565.427,73.206 C 564.451,71.114 563.241,69.71 561.797,68.994 C 560.353,68.276 558.855,68.278 557.304,69.003 C 555.751,69.726 554.779,70.873 554.386,72.442 C 553.991,74.01 554.284,75.845 555.264,77.945 C 556.243,80.044 557.46,81.448 558.915,82.155 C 560.37,82.862 561.874,82.854 563.425,82.13 C 564.976,81.407 565.942,80.264 566.323,78.7 z "
           id="path295" />
        <path
           style="fill:#ffffff"
           d="M 570.485,59.51 L 577.95,69.073 L 579.879,71.803 L 579.059,68.63 L 576.153,56.866 L 580.289,54.936 L 587.514,64.611 L 589.475,67.329 L 588.71,64.194 L 586.131,52.213 L 590.107,50.359 L 593.611,71.505 L 589.854,73.257 L 582.483,63.359 L 580.139,60.06 L 581.164,63.988 L 584,75.988 L 580.366,77.681 L 566.342,61.441 L 570.485,59.51 z "
           id="path297" />
        <path
           style="fill:#ffffff"
           d="M 570.966,110.583 C 570.231,112.694 568.527,114.373 565.854,115.62 C 563.181,116.866 560.8,117.092 558.711,116.298 C 555.985,115.4 553.841,113.275 552.278,109.923 C 550.683,106.503 550.434,103.495 551.528,100.898 C 552.264,98.787 553.967,97.109 556.64,95.862 C 559.313,94.615 561.694,94.389 563.784,95.183 C 566.47,96.018 568.609,98.144 570.204,101.564 C 571.768,104.916 572.021,107.922 570.966,110.583 z M 567.22,108.868 C 567.601,107.306 567.301,105.473 566.322,103.374 C 565.348,101.282 564.138,99.878 562.693,99.161 C 561.25,98.444 559.751,98.446 558.2,99.17 C 556.648,99.894 555.676,101.04 555.282,102.61 C 554.888,104.178 555.181,106.014 556.161,108.112 C 557.14,110.212 558.357,111.616 559.812,112.323 C 561.266,113.03 562.769,113.022 564.322,112.299 C 565.872,111.575 566.839,110.431 567.22,108.868 z "
           id="path299" />
        <path
           style="fill:#ffffff"
           d="M 568.826,90.869 L 572.899,88.97 L 586.369,98.541 L 580.297,85.52 L 583.917,83.831 L 592.643,102.543 L 588.758,104.355 L 574.987,94.628 L 581.171,107.893 L 577.552,109.581 L 568.826,90.869 z "
           id="path301" />
        <path
           style="fill:#ffffff"
           d="M 588.467,81.763 L 592.437,79.911 L 594.65,84.658 L 597.718,93.857 L 595.798,94.752 L 590.681,86.509 L 588.467,81.763 z M 595.552,96.727 L 599.346,94.957 L 601.054,98.62 L 597.26,100.391 L 595.552,96.727 z "
           id="path303" />
      </g>
    </g>
  </g>
</svg>
