<?xml version="1.0" encoding="UTF-8" standalone="no"?>
<!-- Created with Inkscape (http://www.inkscape.org/) -->
<svg
   xmlns:dc="http://purl.org/dc/elements/1.1/"
   xmlns:cc="http://web.resource.org/cc/"
   xmlns:rdf="http://www.w3.org/1999/02/22-rdf-syntax-ns#"
   xmlns:svg="http://www.w3.org/2000/svg"
   xmlns="http://www.w3.org/2000/svg"
   xmlns:sodipodi="http://sodipodi.sourceforge.net/DTD/sodipodi-0.dtd"
   xmlns:inkscape="http://www.inkscape.org/namespaces/inkscape"
   width="142.73199"
   height="163.41475"
   id="svg3474"
   sodipodi:version="0.32"
   inkscape:version="0.45.1"
   version="1.0"
   sodipodi:docbase="/Users/robmyers/Desktop/cc-ironies/final"
   sodipodi:docname="show_continues.svg"
   inkscape:output_extension="org.inkscape.output.svg.inkscape">
  <defs
     id="defs3476" />
  <sodipodi:namedview
     id="base"
     pagecolor="#ffffff"
     bordercolor="#666666"
     borderopacity="1.0"
     gridtolerance="10000"
     guidetolerance="10"
     objecttolerance="10"
     inkscape:pageopacity="0.0"
     inkscape:pageshadow="2"
     inkscape:zoom="2.3131327"
     inkscape:cx="71.365997"
     inkscape:cy="81.707375"
     inkscape:document-units="px"
     inkscape:current-layer="layer1"
     inkscape:window-width="697"
     inkscape:window-height="581"
     inkscape:window-x="20"
     inkscape:window-y="42" />
  <metadata
     id="metadata3479">
    <rdf:RDF>
      <cc:Work
         rdf:about="">
        <dc:format>image/svg+xml</dc:format>
        <dc:type
           rdf:resource="http://purl.org/dc/dcmitype/StillImage" />
      </cc:Work>
    </rdf:RDF>
  </metadata>
  <g
     inkscape:label="Layer 1"
     inkscape:groupmode="layer"
     id="layer1"
     transform="translate(-68.634002,-593.47791)">
    <rect
       x="69.134003"
       y="593.97791"
       style="fill:#ffffff;stroke:#000000"
       width="141.73199"
       height="141.73199"
       id="rect355" />
    <g
       id="g357"
       transform="matrix(0.5,0,0,0.5,-13.296498,663.72265)">
      <path
         id="path3817_1_"
         style="fill:#aab2ab"
         d="M 166.433,154.981 L 251.981,155.133 C 253.176,155.133 254.245,154.955 254.245,157.518 L 254.14,185.694 L 164.275,185.694 L 164.275,157.415 C 164.274,156.15 164.396,154.981 166.433,154.981 z " />
      <path
         d="M 252.729,154.639 L 165.557,154.639 C 164.622,154.639 163.861,155.401 163.861,156.335 L 163.861,185.957 C 163.861,186.168 164.033,186.34 164.244,186.34 L 254.041,186.34 C 254.252,186.34 254.424,186.168 254.424,185.957 L 254.424,156.335 C 254.424,155.401 253.664,154.639 252.729,154.639 z M 165.557,155.406 L 252.729,155.406 C 253.242,155.406 253.659,155.823 253.659,156.336 C 253.659,156.336 253.659,168.259 253.659,176.882 L 191.353,176.882 C 189.07,181.011 184.669,183.816 179.62,183.816 C 174.569,183.816 170.171,181.014 167.889,176.882 L 164.628,176.882 C 164.628,168.259 164.628,156.336 164.628,156.336 C 164.627,155.823 165.044,155.406 165.557,155.406 z "
         id="path360" />
      <g
         id="g5908_1_">
        <path
           id="path5906_1_"
           style="fill:#ffffff"
           d="M 189.915,169.397 C 189.919,175.08 185.314,179.69 179.631,179.692 C 173.948,179.697 169.339,175.091 169.335,169.409 C 169.335,169.405 169.335,169.401 169.335,169.397 C 169.331,163.713 173.936,159.104 179.619,159.1 C 185.303,159.096 189.912,163.702 189.915,169.383 C 189.915,169.388 189.915,169.392 189.915,169.397 z " />
        <g
           id="g5706_1_">
          <path
             d="M 187.99,161.015 C 190.272,163.297 191.413,166.09 191.413,169.397 C 191.413,172.702 190.292,175.466 188.049,177.69 C 185.669,180.031 182.857,181.202 179.611,181.202 C 176.404,181.202 173.64,180.042 171.32,177.72 C 168.998,175.398 167.838,172.624 167.838,169.398 C 167.838,166.17 168.998,163.377 171.32,161.016 C 173.582,158.734 176.345,157.592 179.611,157.592 C 182.915,157.591 185.708,158.733 187.99,161.015 z M 172.854,162.55 C 170.925,164.498 169.96,166.781 169.96,169.399 C 169.96,172.017 170.915,174.281 172.824,176.189 C 174.734,178.098 177.007,179.053 179.644,179.053 C 182.281,179.053 184.574,178.089 186.523,176.16 C 188.373,174.369 189.298,172.115 189.298,169.398 C 189.298,166.703 188.358,164.414 186.477,162.535 C 184.598,160.655 182.32,159.715 179.644,159.715 C 176.968,159.715 174.704,160.661 172.854,162.55 z M 177.931,168.249 C 177.636,167.605 177.196,167.284 176.607,167.284 C 175.567,167.284 175.046,167.985 175.046,169.386 C 175.046,170.787 175.567,171.486 176.607,171.486 C 177.294,171.486 177.785,171.145 178.079,170.463 L 179.521,171.231 C 178.833,172.452 177.802,173.063 176.427,173.063 C 175.366,173.063 174.517,172.738 173.879,172.088 C 173.24,171.438 172.921,170.541 172.921,169.399 C 172.921,168.276 173.25,167.384 173.908,166.724 C 174.565,166.063 175.386,165.734 176.368,165.734 C 177.822,165.734 178.862,166.306 179.492,167.451 L 177.931,168.249 z M 184.716,168.249 C 184.421,167.605 183.987,167.284 183.418,167.284 C 182.356,167.284 181.825,167.985 181.825,169.386 C 181.825,170.787 182.356,171.486 183.418,171.486 C 184.106,171.486 184.588,171.145 184.863,170.463 L 186.337,171.231 C 185.651,172.452 184.621,173.063 183.249,173.063 C 182.19,173.063 181.342,172.738 180.705,172.088 C 180.068,171.438 179.749,170.541 179.749,169.399 C 179.749,168.276 180.073,167.384 180.721,166.724 C 181.367,166.063 182.191,165.734 183.191,165.734 C 184.642,165.734 185.681,166.306 186.308,167.451 L 184.716,168.249 z "
             id="path365" />
        </g>
      </g>
      <g
         id="g126_1_">
        <circle
           id="circle128_1_"
           style="fill:#ffffff"
           cx="202.92599"
           cy="166.13"
           r="8.1040001"
           sodipodi:cx="202.92599"
           sodipodi:cy="166.13"
           sodipodi:rx="8.1040001"
           sodipodi:ry="8.1040001" />
        <g
           id="g130_1_">
          <path
             id="path132_1_"
             d="M 205.272,163.785 C 205.272,163.473 205.019,163.22 204.707,163.22 L 201.128,163.22 C 200.816,163.22 200.563,163.474 200.563,163.785 L 200.563,167.365 L 201.561,167.365 L 201.561,171.604 L 204.274,171.604 L 204.274,167.365 L 205.273,167.365 L 205.273,163.785 L 205.272,163.785 z " />
          <circle
             id="circle134_1_"
             cx="202.91701"
             cy="161.524"
             r="1.225"
             sodipodi:cx="202.91701"
             sodipodi:cy="161.524"
             sodipodi:rx="1.225"
             sodipodi:ry="1.225" />
        </g>
        <path
           d="M 202.906,157.2 C 200.482,157.2 198.43,158.046 196.751,159.738 C 195.027,161.488 194.166,163.559 194.166,165.952 C 194.166,168.344 195.027,170.4 196.751,172.122 C 198.475,173.843 200.526,174.704 202.906,174.704 C 205.316,174.704 207.405,173.837 209.172,172.1 C 210.837,170.453 211.669,168.403 211.669,165.953 C 211.669,163.502 210.822,161.432 209.128,159.739 C 207.434,158.045 205.36,157.2 202.906,157.2 z M 202.928,158.775 C 204.914,158.775 206.601,159.475 207.988,160.876 C 209.391,162.262 210.092,163.954 210.092,165.952 C 210.092,167.965 209.406,169.635 208.032,170.962 C 206.587,172.392 204.885,173.107 202.928,173.107 C 200.97,173.107 199.283,172.4 197.867,170.985 C 196.45,169.57 195.742,167.892 195.742,165.953 C 195.742,164.013 196.458,162.321 197.888,160.877 C 199.263,159.475 200.942,158.775 202.928,158.775 z "
           id="path372" />
      </g>
      <g
         id="g138_1_"
         style="enable-background:new">
        <path
           style="fill:#ffffff"
           d="M 200.389,179.357 C 200.627,179.357 200.845,179.378 201.041,179.42 C 201.237,179.461 201.406,179.529 201.546,179.626 C 201.686,179.721 201.794,179.849 201.872,180.007 C 201.949,180.165 201.987,180.361 201.987,180.594 C 201.987,180.846 201.93,181.056 201.815,181.225 C 201.701,181.393 201.531,181.53 201.307,181.637 C 201.616,181.725 201.847,181.881 201.999,182.104 C 202.151,182.325 202.228,182.592 202.228,182.905 C 202.228,183.157 202.179,183.376 202.081,183.559 C 201.983,183.745 201.85,183.895 201.684,184.01 C 201.518,184.127 201.329,184.214 201.117,184.27 C 200.904,184.327 200.685,184.355 200.461,184.355 L 198.033,184.355 L 198.033,179.357 L 200.389,179.357 L 200.389,179.357 z M 200.249,181.378 C 200.445,181.378 200.606,181.331 200.732,181.237 C 200.859,181.144 200.921,180.994 200.921,180.785 C 200.921,180.668 200.9,180.572 200.859,180.498 C 200.816,180.423 200.76,180.365 200.69,180.323 C 200.62,180.281 200.54,180.252 200.449,180.235 C 200.357,180.218 200.262,180.212 200.165,180.212 L 199.135,180.212 L 199.135,181.378 L 200.249,181.378 z M 200.313,183.5 C 200.42,183.5 200.523,183.489 200.622,183.468 C 200.72,183.447 200.807,183.412 200.882,183.364 C 200.957,183.313 201.016,183.248 201.061,183.163 C 201.105,183.079 201.127,182.973 201.127,182.843 C 201.127,182.586 201.055,182.404 200.91,182.293 C 200.765,182.182 200.573,182.129 200.335,182.129 L 199.135,182.129 L 199.135,183.5 L 200.313,183.5 z "
           id="path375" />
        <polygon
           id="path142_1_"
           style="fill:#ffffff"
           points="202.422,179.357 203.654,179.357 204.825,181.331 205.989,179.357 207.214,179.357 205.358,182.436 205.358,184.355 204.256,184.355 204.256,182.409 202.422,179.357 " />
      </g>
      <g
         id="g144_1_"
         style="enable-background:new">
        <path
           id="path146_1_"
           style="fill:#ffffff"
           d="M 238.154,183.119 C 238.215,183.236 238.295,183.33 238.395,183.403 C 238.495,183.475 238.612,183.529 238.748,183.564 C 238.883,183.599 239.022,183.617 239.167,183.617 C 239.265,183.617 239.369,183.608 239.481,183.593 C 239.592,183.576 239.697,183.544 239.795,183.497 C 239.892,183.452 239.973,183.388 240.039,183.306 C 240.103,183.224 240.137,183.119 240.137,182.994 C 240.137,182.859 240.094,182.75 240.007,182.666 C 239.921,182.581 239.808,182.512 239.668,182.455 C 239.528,182.399 239.369,182.351 239.193,182.309 C 239.015,182.266 238.836,182.219 238.654,182.168 C 238.467,182.121 238.286,182.064 238.109,181.996 C 237.932,181.93 237.773,181.842 237.633,181.734 C 237.493,181.626 237.38,181.492 237.294,181.332 C 237.208,181.17 237.165,180.976 237.165,180.747 C 237.165,180.49 237.22,180.268 237.329,180.079 C 237.438,179.89 237.582,179.732 237.759,179.605 C 237.937,179.48 238.137,179.386 238.361,179.326 C 238.585,179.264 238.809,179.235 239.033,179.235 C 239.294,179.235 239.545,179.264 239.785,179.323 C 240.024,179.381 240.238,179.475 240.424,179.605 C 240.612,179.738 240.759,179.904 240.869,180.107 C 240.978,180.31 241.033,180.556 241.033,180.846 L 239.967,180.846 C 239.957,180.697 239.926,180.572 239.873,180.476 C 239.819,180.377 239.748,180.3 239.66,180.244 C 239.572,180.189 239.471,180.148 239.357,180.126 C 239.244,180.103 239.119,180.091 238.984,180.091 C 238.896,180.091 238.807,180.1 238.719,180.119 C 238.63,180.138 238.551,180.17 238.479,180.217 C 238.407,180.264 238.348,180.321 238.301,180.391 C 238.255,180.461 238.232,180.551 238.232,180.659 C 238.232,180.757 238.25,180.836 238.288,180.895 C 238.325,180.957 238.398,181.012 238.508,181.064 C 238.618,181.116 238.77,181.167 238.963,181.217 C 239.156,181.269 239.409,181.334 239.721,181.414 C 239.815,181.433 239.944,181.467 240.109,181.516 C 240.275,181.565 240.44,181.643 240.602,181.75 C 240.765,181.857 240.906,182.001 241.026,182.182 C 241.144,182.36 241.204,182.59 241.204,182.871 C 241.204,183.1 241.159,183.312 241.07,183.508 C 240.981,183.705 240.85,183.873 240.674,184.016 C 240.499,184.159 240.282,184.269 240.024,184.348 C 239.765,184.428 239.465,184.468 239.124,184.468 C 238.849,184.468 238.583,184.433 238.323,184.365 C 238.063,184.297 237.835,184.191 237.637,184.046 C 237.439,183.9 237.282,183.717 237.164,183.492 C 237.046,183.267 236.99,183.002 236.996,182.693 L 238.062,182.693 C 238.063,182.86 238.092,183.002 238.154,183.119 z " />
        <path
           style="fill:#ffffff"
           d="M 244.346,179.357 L 246.215,184.355 L 245.074,184.355 L 244.695,183.242 L 242.826,183.242 L 242.433,184.355 L 241.328,184.355 L 243.219,179.357 L 244.346,179.357 z M 244.409,182.421 L 243.78,180.588 L 243.764,180.588 L 243.114,182.421 L 244.409,182.421 z "
           id="path380" />
      </g>
      <g
         id="g150_1_"
         style="enable-background:new">
        <polygon
           id="path152_1_"
           style="fill:#ffffff"
           points="218.59,179.357 220.678,182.709 220.69,182.709 220.69,179.357 221.721,179.357 221.721,184.355 220.622,184.355 218.542,181.008 218.528,181.008 218.528,184.355 217.497,184.355 217.497,179.357 218.59,179.357 " />
        <path
           id="path154_1_"
           style="fill:#ffffff"
           d="M 225.893,180.688 C 225.829,180.583 225.747,180.491 225.648,180.412 C 225.55,180.333 225.44,180.27 225.316,180.225 C 225.192,180.182 225.062,180.16 224.927,180.16 C 224.68,180.16 224.469,180.207 224.297,180.304 C 224.123,180.4 223.984,180.527 223.877,180.688 C 223.77,180.849 223.69,181.033 223.642,181.238 C 223.594,181.443 223.569,181.655 223.569,181.875 C 223.569,182.084 223.593,182.289 223.642,182.487 C 223.691,182.685 223.77,182.863 223.877,183.021 C 223.983,183.181 224.123,183.307 224.297,183.404 C 224.469,183.5 224.68,183.548 224.927,183.548 C 225.263,183.548 225.526,183.445 225.715,183.238 C 225.903,183.033 226.02,182.762 226.061,182.427 L 227.125,182.427 C 227.098,182.739 227.024,183.021 226.908,183.273 C 226.792,183.527 226.637,183.741 226.446,183.919 C 226.255,184.097 226.031,184.232 225.773,184.326 C 225.517,184.42 225.234,184.467 224.926,184.467 C 224.543,184.467 224.198,184.4 223.893,184.267 C 223.588,184.134 223.33,183.951 223.119,183.717 C 222.909,183.484 222.747,183.208 222.635,182.894 C 222.524,182.58 222.467,182.24 222.467,181.874 C 222.467,181.501 222.524,181.155 222.635,180.834 C 222.747,180.515 222.909,180.235 223.119,179.997 C 223.33,179.759 223.588,179.573 223.893,179.436 C 224.199,179.301 224.543,179.234 224.926,179.234 C 225.201,179.234 225.462,179.274 225.706,179.352 C 225.951,179.432 226.171,179.547 226.364,179.7 C 226.558,179.852 226.718,180.04 226.844,180.264 C 226.969,180.488 227.049,180.745 227.081,181.034 L 226.018,181.034 C 226,180.909 225.958,180.792 225.893,180.688 z " />
      </g>
      <g
         id="g6332_2_">
        <path
           id="path6334_2_"
           style="fill:#ffffff"
           d="M 250.333,165.947 C 250.337,170.358 246.763,173.938 242.351,173.942 C 237.939,173.944 234.36,170.371 234.357,165.958 C 234.357,165.955 234.357,165.95 234.357,165.947 C 234.354,161.535 237.928,157.956 242.339,157.952 C 246.751,157.949 250.33,161.523 250.333,165.934 C 250.333,165.939 250.333,165.942 250.333,165.947 z " />
        <g
           id="g6336_2_">
          <path
             d="M 242.288,157.195 C 239.864,157.195 237.811,158.042 236.134,159.733 C 234.41,161.483 233.548,163.555 233.548,165.947 C 233.548,168.339 234.41,170.395 236.134,172.116 C 237.857,173.838 239.908,174.699 242.288,174.699 C 244.698,174.699 246.786,173.831 248.554,172.095 C 250.219,170.446 251.052,168.397 251.052,165.947 C 251.052,163.497 250.204,161.425 248.51,159.733 C 246.816,158.041 244.742,157.195 242.288,157.195 z M 242.31,158.77 C 244.296,158.77 245.983,159.47 247.371,160.872 C 248.772,162.257 249.474,163.948 249.474,165.947 C 249.474,167.96 248.787,169.63 247.414,170.958 C 245.969,172.387 244.267,173.101 242.31,173.101 C 240.353,173.101 238.666,172.394 237.249,170.98 C 235.833,169.565 235.125,167.888 235.125,165.948 C 235.125,164.008 235.84,162.316 237.271,160.873 C 238.644,159.47 240.324,158.77 242.31,158.77 z "
             id="path388" />
          <path
             id="path6340_2_"
             d="M 238.409,164.711 C 238.759,162.509 240.307,161.332 242.251,161.332 C 245.045,161.332 246.747,163.359 246.747,166.062 C 246.747,168.701 244.935,170.75 242.207,170.75 C 240.33,170.75 238.649,169.595 238.344,167.327 L 240.548,167.327 C 240.614,168.504 241.378,168.919 242.47,168.919 C 243.713,168.919 244.521,167.764 244.521,165.998 C 244.521,164.144 243.824,163.163 242.513,163.163 C 241.553,163.163 240.724,163.512 240.548,164.711 L 241.19,164.707 L 239.455,166.443 L 237.72,164.707 L 238.409,164.711 z " />
        </g>
      </g>
      <g
         id="g6361_2_">
        <path
           id="path6363_2_"
           style="fill:#ffffff"
           d="M 230.75,165.947 C 230.754,170.444 227.11,174.091 222.615,174.094 C 218.118,174.096 214.47,170.454 214.468,165.958 C 214.468,165.954 214.468,165.949 214.468,165.946 C 214.464,161.449 218.107,157.802 222.603,157.799 C 227.099,157.796 230.748,161.439 230.75,165.935 C 230.75,165.938 230.75,165.943 230.75,165.947 z " />
        <path
           d="M 222.597,157.195 C 225.05,157.195 227.123,158.042 228.818,159.733 C 230.513,161.424 231.36,163.497 231.36,165.947 C 231.36,168.397 230.527,170.446 228.863,172.095 C 227.094,173.83 225.007,174.699 222.597,174.699 C 220.216,174.699 218.164,173.838 216.442,172.116 C 214.718,170.396 213.856,168.339 213.856,165.947 C 213.856,163.555 214.718,161.483 216.442,159.733 C 218.122,158.042 220.172,157.195 222.597,157.195 z M 215.826,163.596 C 215.564,164.334 215.434,165.117 215.434,165.947 C 215.434,167.887 216.142,169.564 217.559,170.979 C 218.975,172.393 220.662,173.1 222.619,173.1 C 224.576,173.1 226.278,172.386 227.723,170.956 C 228.206,170.488 228.606,169.978 228.918,169.426 L 225.619,167.956 C 225.395,169.066 224.406,169.816 223.21,169.904 L 223.21,171.254 L 222.205,171.254 L 222.205,169.904 C 221.224,169.892 220.274,169.491 219.549,168.855 L 220.754,167.64 C 221.335,168.187 221.915,168.432 222.708,168.432 C 223.222,168.432 223.791,168.231 223.791,167.562 C 223.791,167.326 223.699,167.16 223.555,167.037 L 222.721,166.665 L 221.681,166.203 C 221.167,165.974 220.732,165.78 220.295,165.586 L 215.826,163.596 z M 222.619,158.77 C 220.633,158.77 218.954,159.47 217.581,160.872 C 217.208,161.248 216.882,161.643 216.606,162.054 L 219.952,163.543 C 220.255,162.615 221.136,162.052 222.206,161.989 L 222.206,160.639 L 223.211,160.639 L 223.211,161.989 C 223.903,162.022 224.662,162.212 225.411,162.792 L 224.261,163.974 C 223.836,163.673 223.301,163.461 222.765,163.461 C 222.329,163.461 221.716,163.595 221.716,164.14 C 221.716,164.224 221.743,164.298 221.794,164.363 L 222.913,164.861 L 223.671,165.199 C 224.155,165.416 224.617,165.621 225.076,165.825 L 229.56,167.822 C 229.707,167.234 229.782,166.609 229.782,165.948 C 229.782,163.949 229.081,162.258 227.68,160.873 C 226.292,159.47 224.605,158.77 222.619,158.77 z "
           id="path393" />
      </g>
    </g>
    <g
       id="g395"
       transform="translate(-94.72699,593.4779)">
      <polygon
         points="252.147,13.688 241.163,24.672 257.982,41.485 179.881,41.485 179.881,59.627 257.985,59.627 241.163,76.449 252.147,87.424 289.015,50.556 252.147,13.688 "
         id="polygon397" />
      <g
         id="g399">
        <path
           d="M 177.717,106.382 C 177.787,106.875 177.924,107.244 178.129,107.489 C 178.503,107.934 179.144,108.156 180.052,108.156 C 180.596,108.156 181.037,108.096 181.377,107.979 C 182.02,107.752 182.342,107.333 182.342,106.718 C 182.342,106.36 182.182,106.082 181.863,105.885 C 181.543,105.694 181.042,105.524 180.358,105.373 L 179.191,105.113 C 178.043,104.853 177.25,104.574 176.81,104.271 C 176.065,103.765 175.692,102.975 175.692,101.9 C 175.692,100.918 176.051,100.103 176.769,99.454 C 177.487,98.805 178.54,98.48 179.931,98.48 C 181.092,98.48 182.082,98.785 182.903,99.396 C 183.723,100.007 184.153,100.893 184.193,102.054 L 181.993,102.054 C 181.952,101.408 181.662,100.948 181.122,100.675 C 180.761,100.495 180.313,100.404 179.778,100.404 C 179.182,100.404 178.707,100.522 178.351,100.757 C 177.996,100.992 177.818,101.321 177.818,101.741 C 177.818,102.129 177.993,102.418 178.344,102.608 C 178.569,102.736 179.049,102.887 179.783,103.061 L 181.686,103.515 C 182.52,103.714 183.146,103.979 183.566,104.311 C 184.217,104.827 184.543,105.571 184.543,106.546 C 184.543,107.546 184.158,108.376 183.39,109.037 C 182.621,109.697 181.535,110.028 180.132,110.028 C 178.698,110.028 177.571,109.704 176.75,109.054 C 175.929,108.406 175.519,107.513 175.519,106.378 L 177.717,106.378 L 177.717,106.382 z "
           id="path401" />
        <path
           d="M 191.833,101.716 C 192.238,101.89 192.571,102.154 192.832,102.511 C 193.053,102.813 193.188,103.123 193.237,103.443 C 193.286,103.763 193.311,104.283 193.311,105.005 L 193.311,109.757 L 191.161,109.757 L 191.161,104.827 C 191.161,104.391 191.087,104.039 190.94,103.771 C 190.749,103.395 190.386,103.206 189.852,103.206 C 189.298,103.206 188.878,103.394 188.591,103.768 C 188.304,104.142 188.161,104.677 188.161,105.371 L 188.161,109.758 L 186.036,109.758 L 186.036,98.832 L 188.161,98.832 L 188.161,102.713 C 188.465,102.245 188.818,101.919 189.218,101.734 C 189.618,101.549 190.039,101.457 190.482,101.457 C 190.977,101.457 191.427,101.543 191.833,101.716 z "
           id="path403" />
        <path
           d="M 202.074,108.767 C 201.39,109.611 200.353,110.032 198.962,110.032 C 197.57,110.032 196.532,109.611 195.849,108.767 C 195.165,107.924 194.824,106.91 194.824,105.722 C 194.824,104.556 195.165,103.545 195.849,102.69 C 196.532,101.835 197.57,101.407 198.962,101.407 C 200.353,101.407 201.391,101.835 202.074,102.69 C 202.757,103.545 203.099,104.556 203.099,105.722 C 203.099,106.91 202.757,107.924 202.074,108.767 z M 200.398,107.615 C 200.731,107.17 200.898,106.537 200.898,105.716 C 200.898,104.896 200.731,104.264 200.398,103.821 C 200.065,103.378 199.586,103.157 198.965,103.157 C 198.342,103.157 197.863,103.379 197.527,103.821 C 197.191,104.263 197.023,104.895 197.023,105.716 C 197.023,106.537 197.191,107.17 197.527,107.615 C 197.863,108.06 198.341,108.282 198.965,108.282 C 199.587,108.282 200.065,108.06 200.398,107.615 z "
           id="path405" />
        <path
           d="M 208.417,101.657 L 210.563,101.657 L 211.796,107.49 L 213.058,101.657 L 215.263,101.657 L 212.917,109.758 L 210.742,109.758 L 209.472,103.858 L 208.187,109.758 L 205.99,109.758 L 203.718,101.657 L 205.99,101.657 L 207.252,107.469 L 208.417,101.657 z "
           id="path407" />
        <path
           d="M 221.839,99.955 C 222.722,99.057 223.846,98.607 225.21,98.607 C 227.036,98.607 228.37,99.211 229.214,100.418 C 229.68,101.095 229.93,101.775 229.965,102.457 L 227.69,102.457 C 227.544,101.926 227.357,101.525 227.128,101.254 C 226.719,100.774 226.113,100.532 225.31,100.532 C 224.492,100.532 223.847,100.867 223.374,101.537 C 222.901,102.208 222.666,103.156 222.666,104.384 C 222.666,105.612 222.914,106.53 223.411,107.141 C 223.908,107.752 224.538,108.057 225.304,108.057 C 226.089,108.057 226.687,107.796 227.099,107.274 C 227.327,106.993 227.516,106.571 227.666,106.008 L 229.941,106.008 C 229.745,107.198 229.243,108.167 228.436,108.913 C 227.629,109.659 226.595,110.032 225.334,110.032 C 223.774,110.032 222.548,109.529 221.655,108.521 C 220.762,107.509 220.315,106.123 220.315,104.36 C 220.315,102.455 220.823,100.986 221.839,99.955 z "
           id="path409" />
        <path
           d="M 238.397,108.767 C 237.713,109.611 236.676,110.032 235.284,110.032 C 233.892,110.032 232.855,109.611 232.172,108.767 C 231.488,107.924 231.147,106.91 231.147,105.722 C 231.147,104.556 231.488,103.545 232.172,102.69 C 232.855,101.835 233.893,101.407 235.284,101.407 C 236.675,101.407 237.713,101.835 238.397,102.69 C 239.08,103.545 239.422,104.556 239.422,105.722 C 239.422,106.91 239.08,107.924 238.397,108.767 z M 236.721,107.615 C 237.055,107.17 237.221,106.537 237.221,105.716 C 237.221,104.896 237.054,104.264 236.721,103.821 C 236.388,103.379 235.91,103.157 235.288,103.157 C 234.665,103.157 234.186,103.379 233.85,103.821 C 233.514,104.263 233.346,104.895 233.346,105.716 C 233.346,106.537 233.514,107.17 233.85,107.615 C 234.186,108.06 234.665,108.282 235.288,108.282 C 235.91,108.282 236.388,108.06 236.721,107.615 z "
           id="path411" />
        <path
           d="M 247.42,102.109 C 247.946,102.545 248.21,103.271 248.21,104.289 L 248.21,109.758 L 246.01,109.758 L 246.01,104.817 C 246.01,104.39 245.955,104.063 245.844,103.834 C 245.642,103.417 245.259,103.208 244.693,103.208 C 243.997,103.208 243.52,103.514 243.261,104.124 C 243.126,104.448 243.059,104.86 243.059,105.362 L 243.059,109.758 L 240.934,109.758 L 240.934,101.657 L 242.984,101.657 L 242.984,102.836 C 243.254,102.424 243.508,102.126 243.749,101.943 C 244.18,101.619 244.726,101.457 245.388,101.457 C 246.216,101.457 246.894,101.674 247.42,102.109 z "
           id="path413" />
        <path
           d="M 249.374,103.232 L 249.374,101.732 L 250.499,101.732 L 250.499,99.457 L 252.624,99.457 L 252.624,101.732 L 253.949,101.732 L 253.949,103.232 L 252.624,103.232 L 252.624,107.513 C 252.624,107.845 252.666,108.052 252.751,108.134 C 252.836,108.216 253.095,108.257 253.529,108.257 C 253.594,108.257 253.662,108.255 253.735,108.25 C 253.807,108.246 253.879,108.239 253.948,108.231 L 253.948,109.805 L 252.933,109.856 C 251.921,109.89 251.23,109.717 250.859,109.336 C 250.619,109.093 250.498,108.719 250.498,108.214 L 250.498,103.231 L 249.374,103.231 L 249.374,103.232 z "
           id="path415" />
        <path
           d="M 257.413,100.681 L 255.288,100.681 L 255.288,98.757 L 257.413,98.757 L 257.413,100.681 z M 255.288,101.657 L 257.413,101.657 L 257.413,109.758 L 255.288,109.758 L 255.288,101.657 z "
           id="path417" />
        <path
           d="M 265.998,102.109 C 266.524,102.545 266.788,103.271 266.788,104.289 L 266.788,109.758 L 264.588,109.758 L 264.588,104.817 C 264.588,104.39 264.532,104.063 264.422,103.834 C 264.22,103.417 263.837,103.208 263.271,103.208 C 262.575,103.208 262.098,103.514 261.839,104.124 C 261.705,104.448 261.637,104.86 261.637,105.362 L 261.637,109.758 L 259.512,109.758 L 259.512,101.657 L 261.562,101.657 L 261.562,102.836 C 261.832,102.424 262.086,102.126 262.326,101.943 C 262.757,101.619 263.303,101.457 263.965,101.457 C 264.793,101.457 265.471,101.674 265.998,102.109 z "
           id="path419" />
        <path
           d="M 270.926,101.657 L 270.926,106.529 C 270.926,106.988 270.98,107.334 271.089,107.566 C 271.281,107.976 271.657,108.181 272.218,108.181 C 272.936,108.181 273.428,107.89 273.695,107.306 C 273.833,106.99 273.902,106.573 273.902,106.054 L 273.902,101.657 L 276.027,101.657 L 276.027,109.758 L 274.002,109.758 L 274.002,108.602 C 273.982,108.627 273.933,108.703 273.853,108.827 C 273.773,108.952 273.679,109.061 273.57,109.156 C 273.236,109.455 272.914,109.659 272.603,109.768 C 272.292,109.877 271.928,109.932 271.51,109.932 C 270.306,109.932 269.495,109.499 269.078,108.633 C 268.844,108.157 268.727,107.457 268.727,106.532 L 268.727,101.657 L 270.926,101.657 L 270.926,101.657 z "
           id="path421" />
        <path
           d="M 283.322,101.835 C 283.884,102.087 284.347,102.486 284.713,103.03 C 285.043,103.51 285.256,104.068 285.355,104.702 C 285.412,105.073 285.435,105.608 285.424,106.306 L 279.565,106.306 C 279.598,107.114 279.878,107.679 280.406,108.003 C 280.727,108.206 281.114,108.306 281.565,108.306 C 282.044,108.306 282.434,108.183 282.732,107.937 C 282.896,107.804 283.04,107.619 283.165,107.382 L 285.314,107.382 C 285.257,107.862 284.997,108.352 284.534,108.848 C 283.812,109.637 282.803,110.032 281.504,110.032 C 280.432,110.032 279.487,109.701 278.668,109.037 C 277.849,108.374 277.439,107.295 277.439,105.801 C 277.439,104.401 277.809,103.326 278.548,102.578 C 279.287,101.831 280.247,101.457 281.427,101.457 C 282.129,101.457 282.76,101.583 283.322,101.835 z M 280.154,103.666 C 279.855,103.971 279.666,104.385 279.59,104.907 L 283.24,104.907 C 283.201,104.35 283.013,103.928 282.676,103.639 C 282.338,103.351 281.919,103.206 281.42,103.206 C 280.875,103.207 280.454,103.359 280.154,103.666 z "
           id="path423" />
        <path
           d="M 288.172,107.181 C 288.217,107.558 288.315,107.826 288.465,107.984 C 288.732,108.265 289.224,108.407 289.943,108.407 C 290.365,108.407 290.7,108.345 290.949,108.222 C 291.198,108.098 291.322,107.912 291.322,107.665 C 291.322,107.427 291.223,107.247 291.025,107.124 C 290.826,107 290.085,106.788 288.799,106.487 C 287.873,106.261 287.225,105.977 286.854,105.637 C 286.483,105.301 286.297,104.817 286.297,104.184 C 286.297,103.438 286.591,102.796 287.18,102.26 C 287.769,101.724 288.598,101.455 289.667,101.455 C 290.681,101.455 291.507,101.658 292.146,102.061 C 292.785,102.465 293.152,103.164 293.246,104.155 L 291.121,104.155 C 291.091,103.883 291.015,103.668 290.891,103.509 C 290.658,103.223 290.261,103.079 289.701,103.079 C 289.24,103.079 288.911,103.151 288.715,103.294 C 288.519,103.438 288.422,103.606 288.422,103.798 C 288.422,104.04 288.526,104.215 288.734,104.323 C 288.942,104.436 289.678,104.632 290.944,104.907 C 291.787,105.104 292.417,105.401 292.832,105.801 C 293.242,106.205 293.447,106.71 293.447,107.317 C 293.447,108.115 293.148,108.767 292.551,109.272 C 291.953,109.777 291.03,110.03 289.78,110.03 C 288.506,110.03 287.565,109.761 286.957,109.226 C 286.349,108.691 286.046,108.009 286.046,107.179 L 288.172,107.179 L 288.172,107.181 z "
           id="path425" />
      </g>
    </g>
  </g>
</svg>
