<?xml version="1.0" encoding="UTF-8" standalone="no"?>
<!-- Created with Inkscape (http://www.inkscape.org/) -->
<svg
   xmlns:dc="http://purl.org/dc/elements/1.1/"
   xmlns:cc="http://web.resource.org/cc/"
   xmlns:rdf="http://www.w3.org/1999/02/22-rdf-syntax-ns#"
   xmlns:svg="http://www.w3.org/2000/svg"
   xmlns="http://www.w3.org/2000/svg"
   xmlns:sodipodi="http://sodipodi.sourceforge.net/DTD/sodipodi-0.dtd"
   xmlns:inkscape="http://www.inkscape.org/namespaces/inkscape"
   width="142.73199"
   height="163.414"
   id="svg2943"
   sodipodi:version="0.32"
   inkscape:version="0.45.1"
   version="1.0"
   sodipodi:docbase="/Users/robmyers/Desktop/cc-ironies/final"
   sodipodi:docname="speech_bubbles.svg"
   inkscape:output_extension="org.inkscape.output.svg.inkscape">
  <defs
     id="defs2945" />
  <sodipodi:namedview
     id="base"
     pagecolor="#ffffff"
     bordercolor="#666666"
     borderopacity="1.0"
     gridtolerance="10000"
     guidetolerance="10"
     objecttolerance="10"
     inkscape:pageopacity="0.0"
     inkscape:pageshadow="2"
     inkscape:zoom="2.3131433"
     inkscape:cx="71.365997"
     inkscape:cy="81.707001"
     inkscape:document-units="px"
     inkscape:current-layer="layer1"
     inkscape:window-width="697"
     inkscape:window-height="581"
     inkscape:window-x="35"
     inkscape:window-y="32" />
  <metadata
     id="metadata2948">
    <rdf:RDF>
      <cc:Work
         rdf:about="">
        <dc:format>image/svg+xml</dc:format>
        <dc:type
           rdf:resource="http://purl.org/dc/dcmitype/StillImage" />
      </cc:Work>
    </rdf:RDF>
  </metadata>
  <g
     inkscape:label="Layer 1"
     inkscape:groupmode="layer"
     id="layer1"
     transform="translate(-1131.4911,-633.47839)">
    <rect
       id="rect136"
       height="141.73199"
       width="141.73199"
       style="fill:#ffffff;stroke:#000000;overflow:visible"
       y="633.97839"
       x="1131.9911" />
    <g
       transform="matrix(0.5,0,0,0.5,804.5196,703.7229)"
       style="overflow:visible"
       id="g138">
      <path
         d="M 656.515,154.975 L 742.064,155.126 C 743.259,155.126 744.328,154.948 744.328,157.512 L 744.223,185.688 L 654.364,185.688 L 654.364,157.41 C 654.357,156.145 654.478,154.975 656.515,154.975 z "
         style="fill:#aab2ab"
         id="path3817_4_" />
      <path
         id="path141"
         d="M 742.812,154.639 L 655.638,154.639 C 654.704,154.639 653.943,155.4 653.943,156.333 L 653.943,185.956 C 653.943,186.167 654.115,186.339 654.326,186.339 L 744.125,186.339 C 744.336,186.339 744.508,186.167 744.508,185.956 L 744.508,156.333 C 744.507,155.4 743.746,154.639 742.812,154.639 z M 655.638,155.406 L 742.812,155.406 C 743.324,155.406 743.742,155.822 743.742,156.336 C 743.742,156.336 743.742,168.254 743.742,176.877 L 681.437,176.877 C 679.152,181.006 674.751,183.812 669.703,183.812 C 664.652,183.812 660.254,181.008 657.971,176.877 L 654.711,176.877 C 654.711,168.254 654.711,156.336 654.711,156.336 C 654.708,155.822 655.126,155.406 655.638,155.406 z " />
      <g
         id="g5908_4_">
        <path
           d="M 679.998,169.391 C 680.002,175.074 675.396,179.683 669.715,179.687 C 664.031,179.69 659.422,175.085 659.418,169.403 C 659.418,169.399 659.418,169.395 659.418,169.391 C 659.414,163.706 664.02,159.098 669.701,159.094 C 675.385,159.091 679.996,163.697 679.998,169.378 C 679.998,169.382 679.998,169.386 679.998,169.391 z "
           style="fill:#ffffff"
           id="path5906_4_" />
        <g
           id="g5706_4_">
          <path
             id="path146"
             d="M 678.074,161.009 C 680.355,163.29 681.496,166.085 681.496,169.391 C 681.496,172.697 680.375,175.46 678.133,177.684 C 675.752,180.026 672.945,181.196 669.695,181.196 C 666.488,181.196 663.722,180.037 661.404,177.715 C 659.082,175.396 657.922,172.619 657.922,169.395 C 657.922,166.171 659.082,163.374 661.404,161.01 C 663.666,158.731 666.427,157.586 669.695,157.586 C 672.998,157.585 675.791,158.727 678.074,161.009 z M 662.937,162.544 C 661.007,164.491 660.042,166.773 660.042,169.394 C 660.042,172.011 660.997,174.275 662.907,176.184 C 664.817,178.091 667.089,179.046 669.721,179.046 C 672.364,179.046 674.657,178.083 676.602,176.151 C 678.456,174.36 679.375,172.106 679.375,169.39 C 679.375,166.694 678.436,164.407 676.557,162.526 C 674.674,160.646 672.403,159.708 669.723,159.708 C 667.05,159.708 664.787,160.656 662.937,162.544 z M 668.013,168.244 C 667.718,167.599 667.279,167.278 666.689,167.278 C 665.65,167.278 665.128,167.979 665.128,169.381 C 665.128,170.781 665.649,171.483 666.689,171.483 C 667.377,171.483 667.867,171.142 668.162,170.462 L 669.605,171.231 C 668.916,172.453 667.884,173.063 666.509,173.063 C 665.448,173.063 664.601,172.739 663.962,172.087 C 663.323,171.438 663.003,170.54 663.003,169.399 C 663.003,168.276 663.333,167.384 663.991,166.724 C 664.647,166.063 665.468,165.734 666.45,165.734 C 667.905,165.734 668.944,166.306 669.575,167.451 L 668.013,168.244 z M 674.798,168.244 C 674.503,167.599 674.069,167.278 673.501,167.278 C 672.439,167.278 671.907,167.979 671.907,169.381 C 671.907,170.781 672.438,171.483 673.501,171.483 C 674.189,171.483 674.671,171.142 674.944,170.462 L 676.421,171.231 C 675.733,172.453 674.704,173.063 673.331,173.063 C 672.269,173.063 671.425,172.739 670.786,172.087 C 670.149,171.438 669.831,170.54 669.831,169.399 C 669.831,168.276 670.155,167.384 670.802,166.724 C 671.448,166.063 672.273,165.734 673.273,165.734 C 674.724,165.734 675.763,166.306 676.39,167.451 L 674.798,168.244 z " />
        </g>
      </g>
      <g
         style="enable-background:new"
         id="g370_4_">
        <path
           id="path149"
           d="M 690.24,179.356 C 690.478,179.356 690.695,179.377 690.892,179.418 C 691.087,179.461 691.255,179.529 691.396,179.625 C 691.537,179.724 691.644,179.851 691.722,180.006 C 691.8,180.164 691.837,180.36 691.837,180.594 C 691.837,180.849 691.78,181.058 691.665,181.226 C 691.552,181.395 691.382,181.532 691.157,181.64 C 691.466,181.728 691.696,181.881 691.845,182.105 C 691.997,182.331 692.075,182.592 692.075,182.909 C 692.075,183.163 692.026,183.38 691.929,183.562 C 691.833,183.747 691.7,183.897 691.534,184.01 C 691.368,184.127 691.179,184.213 690.966,184.273 C 690.753,184.333 690.534,184.357 690.31,184.357 L 687.882,184.357 L 687.882,179.359 L 690.24,179.356 L 690.24,179.356 z M 690.099,181.376 C 690.294,181.376 690.456,181.329 690.583,181.233 C 690.708,181.141 690.771,180.993 690.771,180.782 C 690.771,180.667 690.751,180.568 690.709,180.497 C 690.666,180.421 690.611,180.364 690.541,180.319 C 690.471,180.277 690.391,180.251 690.299,180.231 C 690.209,180.213 690.113,180.21 690.016,180.21 L 688.991,180.21 L 688.991,181.376 L 690.099,181.376 L 690.099,181.376 z M 690.164,183.5 C 690.271,183.5 690.373,183.49 690.473,183.469 C 690.577,183.449 690.662,183.412 690.739,183.365 C 690.807,183.315 690.872,183.25 690.917,183.166 C 690.962,183.082 690.981,182.977 690.981,182.844 C 690.981,182.588 690.911,182.406 690.76,182.295 C 690.615,182.187 690.424,182.131 690.192,182.131 L 688.991,182.131 L 688.991,183.502 L 690.167,183.502 L 690.167,183.5 L 690.164,183.5 z "
           style="fill:#ffffff" />
        <polygon
           points="692.273,179.356 693.505,179.356 694.675,181.33 695.839,179.356 697.064,179.356 695.208,182.436 695.208,184.354 694.107,184.354 694.107,182.408 692.273,179.356 "
           style="fill:#ffffff"
           id="path374_4_" />
      </g>
      <g
         style="enable-background:new"
         id="g376_4_">
        <polygon
           points="708.671,179.356 710.761,182.708 710.773,182.708 710.773,179.356 711.804,179.356 711.804,184.354 710.705,184.354 708.625,181.007 708.611,181.007 708.611,184.354 707.58,184.354 707.58,179.356 708.671,179.356 "
           style="fill:#ffffff"
           id="path378_4_" />
        <path
           d="M 715.976,180.688 C 715.912,180.584 715.83,180.49 715.73,180.412 C 715.632,180.332 715.521,180.269 715.398,180.225 C 715.275,180.18 715.144,180.16 715.009,180.16 C 714.763,180.16 714.552,180.207 714.378,180.306 C 714.206,180.401 714.066,180.53 713.96,180.69 C 713.851,180.852 713.772,181.038 713.724,181.241 C 713.675,181.445 713.652,181.659 713.652,181.88 C 713.652,182.089 713.675,182.294 713.724,182.489 C 713.773,182.687 713.851,182.868 713.96,183.024 C 714.065,183.183 714.206,183.309 714.378,183.407 C 714.552,183.505 714.763,183.552 715.009,183.552 C 715.345,183.552 715.609,183.448 715.796,183.243 C 715.985,183.038 716.101,182.764 716.144,182.431 L 717.208,182.431 C 717.179,182.743 717.106,183.028 716.991,183.28 C 716.874,183.533 716.72,183.748 716.528,183.926 C 716.337,184.107 716.112,184.239 715.856,184.334 C 715.6,184.428 715.317,184.477 715.002,184.477 C 714.619,184.477 714.275,184.413 713.969,184.277 C 713.664,184.145 713.408,183.964 713.199,183.727 C 712.988,183.497 712.826,183.217 712.715,182.905 C 712.606,182.591 712.547,182.253 712.547,181.884 C 712.547,181.509 712.606,181.163 712.715,180.843 C 712.826,180.526 712.988,180.243 713.199,180.007 C 713.408,179.771 713.668,179.581 713.969,179.445 C 714.281,179.309 714.619,179.243 715.002,179.243 C 715.277,179.243 715.537,179.281 715.783,179.361 C 716.027,179.44 716.248,179.555 716.441,179.71 C 716.634,179.86 716.795,180.05 716.92,180.272 C 717.047,180.497 717.125,180.752 717.158,181.043 L 716.094,181.043 C 716.083,180.908 716.041,180.792 715.976,180.688 z "
           style="fill:#ffffff"
           id="path380_4_" />
      </g>
      <g
         style="enable-background:new"
         id="g382_4_">
        <polygon
           points="728.171,179.356 730.261,182.708 730.273,182.708 730.273,179.356 731.304,179.356 731.304,184.354 730.205,184.354 728.125,181.007 728.111,181.007 728.111,184.354 727.08,184.354 727.08,179.356 728.171,179.356 "
           style="fill:#ffffff"
           id="path384_4_" />
        <path
           id="path157"
           d="M 734.425,179.356 C 734.747,179.356 735.048,179.408 735.325,179.509 C 735.604,179.612 735.845,179.766 736.048,179.971 C 736.251,180.175 736.409,180.434 736.525,180.742 C 736.638,181.051 736.697,181.412 736.697,181.828 C 736.697,182.191 736.65,182.526 736.556,182.836 C 736.462,183.147 736.322,183.41 736.132,183.633 C 735.943,183.86 735.706,184.035 735.423,184.162 C 735.142,184.291 734.808,184.354 734.425,184.354 L 732.267,184.354 L 732.267,179.356 L 734.425,179.356 z M 734.347,183.428 C 734.507,183.428 734.661,183.403 734.81,183.351 C 734.96,183.298 735.093,183.214 735.208,183.096 C 735.325,182.977 735.419,182.824 735.489,182.63 C 735.553,182.439 735.593,182.206 735.593,181.932 C 735.593,181.68 735.57,181.453 735.521,181.249 C 735.47,181.046 735.39,180.872 735.279,180.728 C 735.168,180.582 735.017,180.472 734.836,180.396 C 734.65,180.319 734.424,180.283 734.152,180.283 L 733.369,180.283 L 733.369,183.429 L 734.347,183.429 L 734.347,183.428 z "
           style="fill:#ffffff" />
      </g>
      <g
         id="g6370_5_">
        <g
           id="g7610_5_">
          <path
             d="M 720.207,165.946 C 720.211,170.098 716.848,173.467 712.695,173.468 C 708.545,173.471 705.177,170.108 705.174,165.956 C 705.174,165.952 705.174,165.948 705.174,165.942 C 705.172,161.794 708.535,158.421 712.686,158.421 C 716.838,158.417 720.207,161.78 720.207,165.934 C 720.207,165.938 720.207,165.943 720.207,165.946 z "
             style="fill:#ffffff"
             id="path6372_5_" />
          <path
             id="path162"
             d="M 712.679,157.195 C 715.132,157.195 717.206,158.041 718.9,159.732 C 720.595,161.423 721.443,163.498 721.443,165.946 C 721.443,168.396 720.609,170.446 718.945,172.093 C 717.177,173.829 715.088,174.698 712.679,174.698 C 710.298,174.698 708.247,173.837 706.523,172.116 C 704.8,170.392 703.939,168.339 703.939,165.943 C 703.939,163.549 704.8,161.479 706.523,159.729 C 708.203,158.041 710.255,157.195 712.679,157.195 z M 705.908,163.593 C 705.646,164.333 705.515,165.116 705.515,165.946 C 705.515,167.886 706.224,169.563 707.64,170.979 C 709.058,172.393 710.744,173.1 712.701,173.1 C 714.658,173.1 716.359,172.384 717.805,170.954 C 718.289,170.485 718.696,169.975 719.002,169.425 L 715.701,167.956 C 715.478,169.063 714.488,169.812 713.293,169.9 L 713.293,171.253 L 712.289,171.253 L 712.289,169.9 C 711.307,169.889 710.357,169.489 709.633,168.852 L 710.838,167.637 C 711.418,168.183 711.998,168.428 712.791,168.428 C 713.305,168.428 713.873,168.227 713.873,167.559 C 713.873,167.325 713.781,167.159 713.639,167.036 L 712.803,166.665 L 711.764,166.202 C 711.25,165.973 710.815,165.776 710.377,165.585 L 705.908,163.593 z M 712.701,158.77 C 710.715,158.77 709.035,159.468 707.662,160.871 C 707.289,161.248 706.965,161.642 706.689,162.053 L 710.033,163.543 C 710.336,162.615 711.219,162.051 712.289,161.99 L 712.289,160.639 L 713.293,160.639 L 713.293,161.99 C 713.986,162.022 714.744,162.213 715.492,162.791 L 714.342,163.977 C 713.918,163.674 713.383,163.461 712.848,163.461 C 712.412,163.461 711.797,163.594 711.797,164.144 C 711.797,164.227 711.826,164.297 711.877,164.368 L 712.996,164.864 L 713.752,165.204 C 714.236,165.421 714.699,165.626 715.158,165.829 L 719.642,167.823 C 719.79,167.237 719.865,166.612 719.865,165.952 C 719.865,163.954 719.164,162.263 717.761,160.876 C 716.375,159.468 714.687,158.77 712.701,158.77 z " />
        </g>
      </g>
      <g
         id="g6394_5_">
        <path
           d="M 740.484,165.946 C 740.488,170.358 736.914,173.937 732.502,173.941 C 728.09,173.944 724.51,170.371 724.508,165.959 C 724.508,165.955 724.508,165.951 724.508,165.946 C 724.504,161.535 728.078,157.957 732.49,157.953 C 736.902,157.949 740.48,161.522 740.484,165.934 C 740.484,165.938 740.484,165.942 740.484,165.946 z "
           style="fill:#ffffff"
           id="path6396_5_" />
        <g
           id="g6398_5_">
          <path
             id="path167"
             d="M 732.371,157.195 C 729.947,157.195 727.894,158.041 726.215,159.732 C 724.492,161.482 723.631,163.553 723.631,165.946 C 723.631,168.34 724.492,170.395 726.215,172.117 C 727.942,173.838 729.99,174.699 732.371,174.699 C 734.781,174.699 736.869,173.83 738.637,172.095 C 740.301,170.449 741.133,168.398 741.133,165.949 C 741.133,163.5 740.287,161.428 738.592,159.734 C 736.898,158.041 734.824,157.195 732.371,157.195 z M 732.392,158.769 C 734.378,158.769 736.064,159.468 737.453,160.871 C 738.855,162.256 739.555,163.949 739.555,165.946 C 739.555,167.961 738.869,169.631 737.498,170.957 C 736.051,172.389 734.35,173.103 732.393,173.103 C 730.436,173.103 728.748,172.396 727.332,170.98 C 725.916,169.566 725.207,167.888 725.207,165.951 C 725.207,164.012 725.922,162.317 727.355,160.875 C 728.726,159.468 730.406,158.769 732.392,158.769 z " />
          <g
             id="g6402_5_">
            <path
               id="path170"
               d="M 735.687,163.873 L 729.326,163.873 L 729.326,165.379 L 735.687,165.379 L 735.687,163.873 z M 735.687,166.684 L 729.326,166.684 L 729.326,168.191 L 735.687,168.191 L 735.687,166.684 z " />
          </g>
        </g>
      </g>
      <g
         id="g398_4_">
        <circle
           sodipodi:ry="8.1040001"
           sodipodi:rx="8.1040001"
           sodipodi:cy="166.125"
           sodipodi:cx="693.00897"
           r="8.1040001"
           cy="166.125"
           cx="693.00897"
           style="fill:#ffffff"
           id="circle400_4_" />
        <g
           id="g402_4_">
          <path
             d="M 695.355,163.779 C 695.355,163.467 695.101,163.215 694.791,163.215 L 691.211,163.215 C 690.9,163.215 690.647,163.469 690.647,163.779 L 690.647,167.359 L 691.645,167.359 L 691.645,171.598 L 694.364,171.598 L 694.364,167.359 L 695.356,167.359 L 695.356,163.779 L 695.355,163.779 z "
             id="path404_4_" />
          <circle
             sodipodi:ry="1.226"
             sodipodi:rx="1.226"
             sodipodi:cy="161.51801"
             sodipodi:cx="693"
             r="1.226"
             cy="161.51801"
             cx="693"
             id="circle406_4_" />
        </g>
        <path
           id="path177"
           d="M 692.99,157.195 C 690.566,157.195 688.513,158.041 686.834,159.733 C 685.111,161.482 684.25,163.553 684.25,165.946 C 684.25,168.338 685.111,170.395 686.834,172.117 C 688.557,173.838 690.609,174.699 692.99,174.699 C 695.398,174.699 697.488,173.83 699.256,172.094 C 700.92,170.449 701.752,168.4 701.752,165.949 C 701.752,163.498 700.906,161.428 699.211,159.735 C 697.517,158.041 695.443,157.195 692.99,157.195 z M 693.011,158.769 C 694.997,158.769 696.683,159.468 698.072,160.871 C 699.474,162.256 700.176,163.949 700.176,165.946 C 700.176,167.959 699.488,169.631 698.115,170.957 C 696.67,172.389 694.969,173.103 693.011,173.103 C 691.052,173.103 689.366,172.396 687.95,170.981 C 686.534,169.566 685.825,167.888 685.825,165.951 C 685.825,164.012 686.54,162.317 687.97,160.875 C 689.345,159.468 691.025,158.769 693.011,158.769 z " />
      </g>
    </g>
    <path
       id="path284"
       d="M 1181.6242,646.1664 C 1158.8182,646.1664 1140.3292,657.4864 1140.3292,671.4484 C 1140.3292,681.1564 1149.2712,689.5824 1162.3832,693.8174 C 1153.0102,702.7974 1139.5912,707.9424 1139.5912,707.9424 C 1139.5912,707.9424 1161.6972,710.1494 1175.5412,696.4554 C 1177.5252,696.6344 1179.5562,696.7304 1181.6242,696.7304 C 1204.4312,696.7304 1222.9172,685.4104 1222.9172,671.4474 C 1222.9172,657.4864 1204.4302,646.1664 1181.6242,646.1664 z "
       style="fill:#ffffff;stroke:#000000;stroke-width:0.94679999;overflow:visible" />
    <path
       id="path286"
       d="M 1223.0202,697.9354 C 1245.8262,697.9354 1264.3152,709.2554 1264.3152,723.2174 C 1264.3152,732.9254 1255.3732,741.3524 1242.2612,745.5864 C 1251.6342,754.5664 1265.0532,759.7114 1265.0532,759.7114 C 1265.0532,759.7114 1242.9472,761.9184 1229.1032,748.2254 C 1227.1192,748.4044 1225.0882,748.4994 1223.0202,748.4994 C 1200.2132,748.4994 1181.7272,737.1804 1181.7272,723.2174 C 1181.7272,709.2544 1200.2142,697.9354 1223.0202,697.9354 z "
       style="fill:#ffffff;stroke:#000000;stroke-width:0.94679999;overflow:visible" />
    <g
       transform="translate(478.04815,633.4784)"
       style="overflow:visible"
       id="g288">
      <path
         id="path290"
         d="M 672.446,30.5 C 672.242,30.5 671.986,30.479 671.678,30.438 L 670.911,30.337 C 670.838,31.263 670.803,32.147 670.803,32.988 C 670.803,33.211 670.809,33.486 670.822,33.814 C 670.834,34.141 670.841,34.416 670.841,34.639 C 670.841,34.938 670.83,35.21 670.809,35.454 L 672.311,35.435 C 672.446,35.435 672.557,35.482 672.648,35.577 C 672.739,35.672 672.784,35.787 672.784,35.925 C 672.784,36.066 672.739,36.183 672.648,36.278 C 672.557,36.372 672.445,36.42 672.311,36.42 C 672.133,36.42 671.866,36.422 671.508,36.426 C 671.151,36.43 670.883,36.432 670.705,36.432 C 670.495,36.432 670.181,36.459 669.761,36.515 C 669.342,36.57 669.027,36.598 668.813,36.598 C 668.679,36.598 668.568,36.552 668.477,36.459 C 668.385,36.366 668.34,36.252 668.34,36.117 C 668.34,35.982 668.385,35.867 668.477,35.773 C 668.568,35.678 668.679,35.631 668.813,35.631 C 669.02,35.631 669.363,35.599 669.84,35.532 C 669.871,35.275 669.888,34.981 669.888,34.65 C 669.888,34.431 669.877,34.164 669.857,33.848 C 669.836,33.532 669.826,33.265 669.826,33.05 C 669.826,32.317 669.871,31.401 669.96,30.301 L 669.341,30.32 L 668.72,30.334 C 668.584,30.334 668.469,30.289 668.378,30.196 C 668.285,30.105 668.239,29.987 668.239,29.845 C 668.239,29.551 668.387,29.389 668.687,29.361 C 668.945,29.336 669.426,29.323 670.132,29.323 C 670.765,29.323 671.558,29.391 672.512,29.527 C 672.795,29.569 672.937,29.738 672.937,30.035 C 672.937,30.184 672.882,30.303 672.775,30.391 C 672.679,30.464 672.569,30.5 672.446,30.5 z " />
      <path
         id="path292"
         d="M 682.602,30.405 C 682.368,30.405 682.006,30.386 681.519,30.348 C 681.043,30.313 680.682,30.297 680.435,30.301 L 680.098,30.301 C 680.108,30.739 680.149,31.45 680.224,32.435 C 680.291,33.352 680.326,34.065 680.326,34.573 C 680.326,34.684 680.338,34.853 680.358,35.078 C 680.379,35.304 680.39,35.474 680.39,35.588 C 680.39,35.803 680.355,35.989 680.286,36.145 C 680.197,36.354 680.058,36.459 679.871,36.459 C 679.743,36.459 679.629,36.415 679.527,36.326 C 679.425,36.237 679.375,36.122 679.375,35.982 C 679.375,35.934 679.383,35.863 679.399,35.768 C 679.415,35.673 679.422,35.601 679.422,35.554 C 679.422,35.398 679.411,35.165 679.391,34.853 C 679.371,34.542 679.361,34.307 679.361,34.147 C 679.361,33.693 679.326,33.054 679.257,32.231 C 679.183,31.341 679.143,30.702 679.133,30.314 L 678.698,30.318 C 678.001,30.318 677.454,30.268 677.056,30.167 C 676.798,30.101 676.669,29.944 676.669,29.698 C 676.669,29.569 676.71,29.454 676.793,29.357 C 676.888,29.245 677.01,29.195 677.159,29.205 C 677.27,29.211 677.524,29.239 677.921,29.29 C 678.238,29.328 678.494,29.347 678.692,29.347 C 678.882,29.347 679.171,29.343 679.558,29.335 C 679.946,29.327 680.235,29.323 680.425,29.323 C 680.669,29.323 681.032,29.341 681.513,29.375 C 681.992,29.41 682.356,29.428 682.6,29.428 C 682.737,29.428 682.851,29.475 682.943,29.569 C 683.036,29.663 683.081,29.779 683.081,29.919 C 683.081,30.056 683.036,30.172 682.943,30.265 C 682.852,30.358 682.739,30.405 682.602,30.405 z " />
      <path
         id="path294"
         d="M 689.675,29.726 C 689.621,29.859 689.595,30.054 689.595,30.311 C 689.595,30.406 689.599,30.548 689.608,30.735 C 689.616,30.923 689.621,31.064 689.621,31.159 C 689.621,31.477 689.594,31.951 689.539,32.578 C 689.483,33.206 689.457,33.68 689.457,33.997 C 689.457,34.239 689.474,34.601 689.508,35.084 C 689.541,35.566 689.559,35.929 689.559,36.174 C 689.559,36.304 689.515,36.414 689.427,36.503 C 689.34,36.592 689.232,36.636 689.101,36.636 C 688.975,36.636 688.867,36.592 688.778,36.502 C 688.689,36.413 688.644,36.304 688.644,36.172 C 688.644,35.927 688.626,35.563 688.593,35.079 C 688.559,34.595 688.542,34.232 688.542,33.99 C 688.542,33.758 688.55,33.522 688.567,33.283 C 688.026,33.293 687.358,33.373 686.561,33.527 L 684.568,33.918 C 684.568,34.205 684.538,34.61 684.478,35.136 C 684.419,35.662 684.39,36.069 684.39,36.359 C 684.39,36.489 684.346,36.6 684.259,36.69 C 684.171,36.78 684.063,36.826 683.932,36.826 C 683.803,36.826 683.694,36.781 683.607,36.69 C 683.519,36.6 683.476,36.489 683.476,36.359 C 683.476,36.023 683.502,35.52 683.558,34.852 C 683.613,34.184 683.64,33.682 683.64,33.345 C 683.64,33.171 683.634,32.907 683.621,32.555 C 683.608,32.203 683.602,31.937 683.602,31.76 C 683.602,31.51 683.618,31.132 683.652,30.629 C 683.686,30.126 683.704,29.749 683.704,29.498 C 683.704,29.365 683.747,29.253 683.835,29.165 C 683.922,29.076 684.03,29.032 684.161,29.032 C 684.291,29.032 684.4,29.076 684.487,29.165 C 684.574,29.254 684.618,29.365 684.618,29.498 C 684.618,29.752 684.6,30.132 684.567,30.638 C 684.533,31.143 684.516,31.524 684.516,31.778 L 684.541,32.982 L 686.577,32.597 C 687.39,32.445 688.076,32.366 688.633,32.359 C 688.664,31.906 688.681,31.223 688.681,30.311 C 688.681,30.07 688.72,29.826 688.801,29.579 C 688.906,29.24 689.057,29.07 689.249,29.07 C 689.37,29.07 689.48,29.113 689.577,29.201 C 689.673,29.288 689.722,29.399 689.722,29.532 C 689.723,29.578 689.707,29.643 689.675,29.726 z " />
      <path
         id="path296"
         d="M 694.804,30.5 C 694.601,30.5 694.346,30.479 694.037,30.438 L 693.27,30.337 C 693.198,31.263 693.161,32.147 693.161,32.988 C 693.161,33.211 693.167,33.486 693.181,33.814 C 693.194,34.141 693.2,34.416 693.2,34.639 C 693.2,34.938 693.189,35.21 693.167,35.454 L 694.671,35.435 C 694.804,35.435 694.916,35.482 695.007,35.577 C 695.098,35.672 695.144,35.787 695.144,35.925 C 695.144,36.066 695.098,36.183 695.007,36.278 C 694.916,36.372 694.803,36.42 694.671,36.42 C 694.492,36.42 694.225,36.422 693.867,36.426 C 693.51,36.43 693.242,36.432 693.065,36.432 C 692.855,36.432 692.54,36.459 692.12,36.515 C 691.702,36.57 691.386,36.598 691.173,36.598 C 691.039,36.598 690.927,36.552 690.836,36.459 C 690.744,36.366 690.699,36.252 690.699,36.117 C 690.699,35.982 690.744,35.867 690.836,35.773 C 690.927,35.678 691.038,35.631 691.173,35.631 C 691.38,35.631 691.722,35.599 692.199,35.532 C 692.23,35.275 692.247,34.981 692.247,34.65 C 692.247,34.431 692.236,34.164 692.216,33.848 C 692.195,33.532 692.185,33.265 692.185,33.05 C 692.185,32.317 692.23,31.401 692.319,30.301 L 691.7,30.32 L 691.079,30.334 C 690.943,30.334 690.829,30.289 690.736,30.196 C 690.645,30.105 690.598,29.987 690.598,29.845 C 690.598,29.551 690.747,29.389 691.046,29.361 C 691.304,29.336 691.784,29.323 692.491,29.323 C 693.124,29.323 693.918,29.391 694.871,29.527 C 695.154,29.569 695.296,29.738 695.296,30.035 C 695.296,30.184 695.242,30.303 695.134,30.391 C 695.039,30.464 694.928,30.5 694.804,30.5 z " />
      <path
         id="path298"
         d="M 702.909,35.381 C 702.909,35.533 702.884,35.787 702.833,36.143 C 702.781,36.463 702.611,36.624 702.321,36.624 C 702.145,36.624 701.936,36.51 701.694,36.281 C 700.404,35.057 698.922,33.292 697.251,30.985 L 697.227,32.068 L 697.213,33.154 C 697.213,33.418 697.219,33.814 697.23,34.341 C 697.241,34.868 697.247,35.266 697.247,35.533 C 697.247,36.388 697.081,36.815 696.749,36.815 C 696.574,36.815 696.435,36.759 696.333,36.648 C 696.241,36.549 696.194,36.432 696.194,36.295 C 696.194,36.162 696.205,35.96 696.225,35.69 C 696.246,35.42 696.256,35.218 696.256,35.085 C 696.256,34.888 696.262,34.593 696.275,34.201 C 696.289,33.808 696.295,33.513 696.295,33.317 C 696.295,33.107 696.29,32.79 696.28,32.366 C 696.271,31.942 696.266,31.625 696.266,31.415 C 696.266,31.215 696.246,30.917 696.208,30.521 C 696.17,30.126 696.15,29.828 696.15,29.628 C 696.15,29.482 696.213,29.348 696.338,29.227 C 696.463,29.106 696.606,29.046 696.765,29.046 C 696.933,29.046 697.142,29.23 697.39,29.599 C 698.181,30.785 698.893,31.77 699.526,32.555 C 700.275,33.486 701.098,34.376 701.995,35.224 C 702.003,35.088 702.003,34.887 701.993,34.62 L 701.979,34.02 C 701.979,32.626 701.926,31.517 701.82,30.692 C 701.808,30.609 701.766,30.443 701.694,30.192 C 701.632,29.977 701.6,29.808 701.6,29.688 C 701.6,29.32 701.769,29.136 702.105,29.136 C 702.658,29.136 702.933,30.166 702.933,32.227 C 702.933,32.58 702.929,33.105 702.921,33.806 C 702.913,34.502 702.909,35.029 702.909,35.381 z " />
      <path
         id="path300"
         d="M 708.828,36.624 C 708.345,36.624 707.655,36.201 706.761,35.354 L 705.334,33.922 L 705.334,33.989 L 705.334,36.482 C 705.334,36.796 705.196,36.953 704.921,36.953 C 704.74,36.953 704.597,36.873 704.49,36.715 C 704.4,36.585 704.356,36.444 704.356,36.292 C 704.356,35.549 704.377,34.439 704.419,32.961 C 704.461,31.482 704.482,30.374 704.482,29.635 C 704.482,29.499 704.527,29.383 704.617,29.287 C 704.706,29.192 704.817,29.144 704.95,29.144 C 705.086,29.144 705.197,29.192 705.287,29.287 C 705.376,29.382 705.422,29.498 705.422,29.635 C 705.422,29.942 705.406,30.421 705.376,31.072 C 705.345,31.7 705.33,32.181 705.333,32.514 C 705.758,32.11 706.237,31.604 706.773,30.994 L 708.138,29.407 C 708.246,29.283 708.367,29.221 708.502,29.221 C 708.629,29.221 708.742,29.268 708.841,29.364 C 708.94,29.459 708.988,29.575 708.988,29.711 C 708.988,29.921 708.578,30.48 707.757,31.389 C 707.191,32.008 706.604,32.615 705.999,33.208 C 706.38,33.607 706.978,34.181 707.792,34.93 L 708.292,35.348 C 708.473,35.488 708.669,35.592 708.879,35.662 C 709.131,35.745 709.255,35.901 709.255,36.133 C 709.255,36.24 709.222,36.343 709.156,36.442 C 709.074,36.563 708.964,36.624 708.828,36.624 z " />
      <path
         id="path302"
         d="M 718.689,30.405 C 718.454,30.405 718.093,30.386 717.605,30.348 C 717.129,30.313 716.769,30.297 716.523,30.301 L 716.185,30.301 C 716.195,30.739 716.236,31.45 716.31,32.435 C 716.377,33.352 716.412,34.065 716.412,34.573 C 716.412,34.684 716.424,34.853 716.445,35.078 C 716.466,35.303 716.477,35.474 716.477,35.588 C 716.477,35.803 716.442,35.989 716.372,36.145 C 716.283,36.354 716.144,36.459 715.958,36.459 C 715.83,36.459 715.715,36.415 715.614,36.326 C 715.511,36.237 715.461,36.122 715.461,35.982 C 715.461,35.934 715.469,35.863 715.485,35.768 C 715.501,35.673 715.508,35.601 715.508,35.554 C 715.508,35.398 715.497,35.165 715.477,34.853 C 715.457,34.542 715.447,34.307 715.447,34.147 C 715.447,33.693 715.413,33.054 715.343,32.231 C 715.27,31.341 715.229,30.702 715.219,30.314 L 714.784,30.318 C 714.087,30.318 713.54,30.268 713.142,30.167 C 712.884,30.101 712.755,29.944 712.755,29.698 C 712.755,29.569 712.796,29.454 712.879,29.357 C 712.975,29.245 713.097,29.195 713.246,29.205 C 713.356,29.211 713.61,29.239 714.008,29.29 C 714.325,29.328 714.581,29.347 714.779,29.347 C 714.968,29.347 715.258,29.343 715.645,29.335 C 716.032,29.327 716.321,29.323 716.512,29.323 C 716.756,29.323 717.118,29.341 717.6,29.375 C 718.079,29.41 718.442,29.428 718.687,29.428 C 718.823,29.428 718.938,29.475 719.029,29.569 C 719.122,29.663 719.168,29.779 719.168,29.919 C 719.168,30.056 719.122,30.172 719.029,30.265 C 718.939,30.358 718.825,30.405 718.689,30.405 z " />
      <path
         id="path304"
         d="M 725.762,29.726 C 725.708,29.859 725.682,30.054 725.682,30.311 C 725.682,30.406 725.686,30.548 725.695,30.735 C 725.703,30.923 725.708,31.064 725.708,31.159 C 725.708,31.477 725.681,31.951 725.625,32.578 C 725.569,33.206 725.543,33.68 725.543,33.997 C 725.543,34.239 725.56,34.601 725.594,35.084 C 725.627,35.566 725.645,35.929 725.645,36.174 C 725.645,36.304 725.601,36.414 725.513,36.503 C 725.427,36.592 725.318,36.636 725.188,36.636 C 725.061,36.636 724.954,36.592 724.864,36.502 C 724.775,36.413 724.731,36.304 724.731,36.172 C 724.731,35.927 724.713,35.563 724.68,35.079 C 724.646,34.595 724.629,34.232 724.629,33.99 C 724.629,33.758 724.637,33.522 724.654,33.283 C 724.113,33.293 723.444,33.373 722.647,33.527 L 720.654,33.918 C 720.654,34.205 720.624,34.61 720.566,35.136 C 720.505,35.662 720.476,36.069 720.476,36.359 C 720.476,36.489 720.432,36.6 720.345,36.69 C 720.258,36.78 720.149,36.826 720.02,36.826 C 719.889,36.826 719.781,36.781 719.693,36.69 C 719.606,36.6 719.562,36.489 719.562,36.359 C 719.562,36.023 719.589,35.52 719.645,34.852 C 719.7,34.184 719.727,33.682 719.727,33.345 C 719.727,33.171 719.721,32.907 719.708,32.555 C 719.695,32.203 719.688,31.937 719.688,31.76 C 719.688,31.51 719.705,31.132 719.74,30.629 C 719.773,30.126 719.79,29.749 719.79,29.498 C 719.79,29.365 719.834,29.253 719.921,29.165 C 720.009,29.076 720.117,29.032 720.247,29.032 C 720.377,29.032 720.486,29.076 720.574,29.165 C 720.66,29.254 720.704,29.365 720.704,29.498 C 720.704,29.752 720.686,30.132 720.653,30.638 C 720.619,31.143 720.602,31.524 720.602,31.778 L 720.627,32.982 L 722.664,32.597 C 723.476,32.445 724.162,32.366 724.72,32.359 C 724.75,31.906 724.767,31.223 724.767,30.311 C 724.767,30.07 724.806,29.826 724.888,29.579 C 724.992,29.24 725.143,29.07 725.335,29.07 C 725.457,29.07 725.566,29.113 725.663,29.201 C 725.76,29.289 725.808,29.399 725.808,29.532 C 725.809,29.578 725.792,29.643 725.762,29.726 z " />
      <path
         id="path306"
         d="M 732.28,36.573 C 731.989,36.573 731.735,36.2 731.518,35.457 C 731.434,35.171 731.328,34.672 731.201,33.959 C 730.881,34.002 730.46,34.082 729.942,34.194 L 728.687,34.453 C 728.524,34.87 728.248,35.479 727.856,36.281 C 727.754,36.459 727.616,36.548 727.44,36.548 C 727.314,36.548 727.2,36.502 727.101,36.41 C 727,36.317 726.95,36.203 726.95,36.067 C 726.95,35.915 727.19,35.336 727.67,34.329 C 727.617,34.246 727.59,34.151 727.59,34.043 C 727.59,33.786 727.745,33.621 728.056,33.548 C 728.419,32.868 728.876,32.087 729.429,31.204 C 730.181,30 730.65,29.399 730.834,29.399 C 731.084,29.399 731.256,29.574 731.348,29.922 L 731.648,31.523 L 732.357,34.832 L 732.628,35.582 C 732.72,35.838 732.767,36.009 732.767,36.094 C 732.767,36.23 732.717,36.344 732.619,36.436 C 732.52,36.527 732.407,36.573 732.28,36.573 z M 730.601,31.137 L 729.243,33.332 C 729.626,33.234 730.21,33.115 730.991,32.975 L 730.601,31.137 z " />
      <path
         id="path308"
         d="M 739.938,30.405 C 739.704,30.405 739.343,30.386 738.855,30.348 C 738.379,30.313 738.019,30.297 737.772,30.301 L 737.435,30.301 C 737.445,30.739 737.485,31.45 737.56,32.435 C 737.627,33.352 737.662,34.065 737.662,34.573 C 737.662,34.684 737.674,34.853 737.695,35.078 C 737.716,35.303 737.727,35.474 737.727,35.588 C 737.727,35.803 737.692,35.989 737.622,36.145 C 737.533,36.354 737.394,36.459 737.207,36.459 C 737.08,36.459 736.965,36.415 736.864,36.326 C 736.761,36.237 736.711,36.122 736.711,35.982 C 736.711,35.934 736.719,35.863 736.735,35.768 C 736.751,35.673 736.758,35.601 736.758,35.554 C 736.758,35.398 736.748,35.165 736.727,34.853 C 736.707,34.542 736.697,34.307 736.697,34.147 C 736.697,33.693 736.663,33.054 736.593,32.231 C 736.52,31.341 736.479,30.702 736.469,30.314 L 736.034,30.318 C 735.337,30.318 734.79,30.268 734.392,30.167 C 734.134,30.101 734.005,29.944 734.005,29.698 C 734.005,29.569 734.046,29.454 734.129,29.357 C 734.224,29.245 734.347,29.195 734.495,29.205 C 734.606,29.211 734.86,29.239 735.258,29.29 C 735.574,29.328 735.832,29.347 736.029,29.347 C 736.219,29.347 736.508,29.343 736.895,29.335 C 737.282,29.327 737.571,29.323 737.761,29.323 C 738.006,29.323 738.368,29.341 738.849,29.375 C 739.329,29.41 739.692,29.428 739.936,29.428 C 740.073,29.428 740.188,29.475 740.279,29.569 C 740.372,29.663 740.418,29.779 740.418,29.919 C 740.418,30.056 740.372,30.172 740.279,30.265 C 740.189,30.358 740.075,30.405 739.938,30.405 z " />
      <path
         id="path310"
         d="M 673.833,48.274 C 673.542,48.274 673.288,47.902 673.072,47.158 C 672.988,46.873 672.881,46.374 672.754,45.66 C 672.434,45.704 672.014,45.782 671.495,45.895 L 670.241,46.154 C 670.078,46.571 669.801,47.18 669.409,47.982 C 669.307,48.159 669.169,48.249 668.994,48.249 C 668.868,48.249 668.754,48.203 668.653,48.111 C 668.553,48.019 668.504,47.904 668.504,47.768 C 668.504,47.615 668.743,47.037 669.224,46.03 C 669.17,45.947 669.143,45.852 669.143,45.744 C 669.143,45.487 669.298,45.322 669.61,45.249 C 669.973,44.57 670.429,43.789 670.983,42.905 C 671.735,41.702 672.203,41.1 672.387,41.1 C 672.638,41.1 672.809,41.275 672.902,41.624 L 673.202,43.224 L 673.91,46.534 L 674.181,47.284 C 674.274,47.54 674.32,47.71 674.32,47.796 C 674.32,47.932 674.271,48.046 674.172,48.137 C 674.074,48.229 673.961,48.274 673.833,48.274 z M 672.155,42.838 L 670.797,45.033 C 671.181,44.935 671.764,44.816 672.546,44.676 L 672.155,42.838 z " />
      <path
         id="path312"
         d="M 680.382,48.185 C 680.262,48.185 680.149,48.134 680.044,48.033 C 678.993,46.997 677.824,46.3 676.538,45.942 L 676.576,46.874 L 676.601,47.811 C 676.601,47.95 676.554,48.066 676.463,48.16 C 676.371,48.254 676.257,48.3 676.118,48.3 C 675.98,48.3 675.865,48.254 675.772,48.16 C 675.681,48.066 675.635,47.95 675.635,47.81 C 675.635,47.56 675.623,47.185 675.603,46.688 C 675.582,46.191 675.572,45.818 675.572,45.567 C 675.572,45.275 675.603,44.841 675.668,44.263 C 675.73,43.686 675.762,43.252 675.762,42.964 C 675.762,42.802 675.744,42.563 675.712,42.245 C 675.678,41.927 675.661,41.688 675.661,41.526 C 675.661,41.345 675.712,41.187 675.813,41.05 C 675.934,40.882 676.101,40.805 676.314,40.821 L 677.463,40.912 C 677.9,40.966 678.266,41.072 678.566,41.231 C 679.853,41.913 680.499,42.746 680.499,43.731 C 680.499,44.213 680.279,44.64 679.842,45.011 C 679.49,45.309 679.051,45.536 678.524,45.692 C 679.514,46.222 680.253,46.781 680.744,47.368 C 680.827,47.47 680.868,47.578 680.868,47.692 C 680.868,47.825 680.819,47.941 680.722,48.039 C 680.626,48.136 680.512,48.185 680.382,48.185 z M 677.346,41.894 L 676.64,41.837 L 676.684,42.414 C 676.705,42.649 676.716,42.841 676.716,42.991 C 676.716,43.245 676.697,43.561 676.657,43.939 L 676.562,44.888 C 676.607,44.888 676.676,44.889 676.77,44.893 C 676.864,44.896 676.934,44.897 676.982,44.897 C 677.791,44.897 678.397,44.789 678.799,44.573 C 678.977,44.474 679.142,44.346 679.294,44.187 C 679.462,44.009 679.546,43.857 679.546,43.734 C 679.546,43.292 679.295,42.881 678.793,42.499 C 678.333,42.15 677.851,41.948 677.346,41.894 z " />
      <path
         id="path314"
         d="M 687.621,42.107 C 687.388,42.107 687.026,42.087 686.538,42.049 C 686.062,42.014 685.701,41.999 685.455,42.002 L 685.117,42.002 C 685.127,42.44 685.168,43.151 685.242,44.135 C 685.309,45.053 685.344,45.766 685.344,46.274 C 685.344,46.385 685.356,46.553 685.377,46.779 C 685.398,47.005 685.409,47.175 685.409,47.289 C 685.409,47.504 685.374,47.691 685.305,47.846 C 685.216,48.055 685.077,48.16 684.89,48.16 C 684.762,48.16 684.648,48.116 684.546,48.026 C 684.444,47.938 684.394,47.823 684.394,47.684 C 684.394,47.636 684.403,47.564 684.418,47.469 C 684.433,47.374 684.44,47.302 684.44,47.254 C 684.44,47.099 684.431,46.865 684.411,46.553 C 684.391,46.241 684.381,46.006 684.381,45.847 C 684.381,45.393 684.346,44.754 684.276,43.93 C 684.203,43.04 684.163,42.402 684.153,42.013 L 683.718,42.018 C 683.022,42.018 682.474,41.968 682.075,41.867 C 681.817,41.8 681.689,41.644 681.689,41.397 C 681.689,41.268 681.73,41.154 681.812,41.056 C 681.908,40.945 682.03,40.895 682.179,40.904 C 682.289,40.91 682.543,40.939 682.941,40.989 C 683.258,41.028 683.515,41.046 683.712,41.046 C 683.902,41.046 684.191,41.043 684.578,41.034 C 684.966,41.026 685.254,41.022 685.445,41.022 C 685.689,41.022 686.052,41.04 686.533,41.074 C 687.012,41.109 687.376,41.127 687.62,41.127 C 687.757,41.127 687.871,41.174 687.963,41.268 C 688.055,41.361 688.102,41.478 688.102,41.619 C 688.102,41.755 688.055,41.871 687.963,41.965 C 687.871,42.06 687.756,42.107 687.621,42.107 z " />
      <path
         id="path316"
         d="M 691.332,46.938 C 691.329,46.804 691.375,46.695 691.469,46.611 C 691.561,46.527 691.676,46.484 691.813,46.484 C 691.968,46.484 692.104,46.573 692.222,46.752 C 692.383,46.994 692.528,47.159 692.654,47.245 C 692.924,47.424 693.315,47.513 693.828,47.513 C 694.32,47.513 694.775,47.407 695.198,47.195 C 695.736,46.924 696.006,46.546 696.006,46.062 C 696.006,45.664 695.78,45.349 695.326,45.119 C 694.944,44.919 694.471,44.812 693.907,44.796 C 693.407,44.776 692.98,44.667 692.63,44.467 C 692.181,44.21 691.956,43.842 691.956,43.363 C 691.956,42.798 692.276,42.281 692.916,41.815 C 693.529,41.374 694.162,41.153 694.815,41.153 C 695.123,41.153 695.47,41.205 695.858,41.311 C 696.371,41.448 696.628,41.623 696.628,41.837 C 696.628,42.118 696.485,42.258 696.201,42.258 C 696.074,42.258 695.852,42.223 695.536,42.154 C 695.219,42.085 694.974,42.051 694.8,42.055 C 694.306,42.061 693.887,42.184 693.541,42.422 C 693.187,42.666 693.01,42.964 693.01,43.313 C 693.01,43.576 693.243,43.763 693.712,43.87 C 693.887,43.912 694.224,43.95 694.724,43.984 C 695.45,44.038 696.016,44.266 696.423,44.669 C 696.796,45.036 696.984,45.484 696.984,46.013 C 696.984,46.767 696.635,47.369 695.936,47.819 C 695.33,48.209 694.628,48.403 693.829,48.403 C 693.248,48.403 692.717,48.291 692.234,48.069 C 691.641,47.792 691.341,47.416 691.332,46.938 z " />
      <path
         id="path318"
         d="M 701.208,48.325 C 700.218,48.325 699.48,48.041 698.994,47.472 C 698.599,47.015 698.351,46.339 698.25,45.443 C 698.202,45.04 698.179,44.235 698.179,43.028 C 698.179,42.584 698.189,42.225 698.207,41.952 C 698.227,41.663 698.255,41.462 698.292,41.347 C 698.372,41.116 698.516,40.999 698.722,40.999 C 699.014,40.999 699.16,41.268 699.16,41.804 L 699.16,44.6 C 699.16,46.524 699.835,47.487 701.183,47.487 C 702.453,47.487 703.088,45.867 703.088,42.627 C 703.088,42.506 703.088,42.351 703.088,42.16 C 703.084,41.97 703.083,41.843 703.083,41.779 C 703.083,41.583 703.118,41.409 703.187,41.26 C 703.276,41.07 703.408,40.974 703.583,40.974 C 703.901,40.974 704.06,41.192 704.06,41.627 C 704.06,41.757 704.062,41.955 704.065,42.218 C 704.065,42.482 704.065,42.679 704.065,42.809 C 704.065,46.486 703.114,48.325 701.208,48.325 z " />
      <path
         id="path320"
         d="M 709.886,42.802 C 709.684,42.802 709.532,42.682 709.43,42.442 C 709.341,42.237 709.258,42.112 709.183,42.067 C 709.116,42.032 708.951,42.014 708.688,42.014 C 708.228,42.014 707.717,42.367 707.157,43.07 C 706.396,44.015 706.014,44.911 706.014,45.758 C 706.014,46.167 706.147,46.519 706.41,46.814 C 706.68,47.119 707.004,47.271 707.384,47.271 C 707.71,47.271 708.039,47.187 708.369,47.019 C 708.552,46.923 708.834,46.736 709.214,46.457 C 709.396,46.323 709.531,46.256 709.623,46.256 C 709.759,46.256 709.873,46.308 709.966,46.411 C 710.057,46.514 710.104,46.629 710.104,46.757 C 710.104,46.9 710.043,47.026 709.923,47.133 C 709.086,47.877 708.239,48.249 707.383,48.249 C 706.727,48.249 706.173,47.997 705.719,47.492 C 705.282,47.003 705.064,46.426 705.064,45.759 C 705.064,44.684 705.514,43.581 706.415,42.451 C 707.167,41.509 707.925,41.037 708.688,41.037 C 708.844,41.037 708.983,41.044 709.108,41.058 C 709.23,41.072 709.339,41.095 709.435,41.127 C 709.545,40.965 709.69,40.884 709.868,40.884 C 710.087,40.884 710.225,41.029 710.281,41.319 C 710.333,41.577 710.358,41.894 710.358,42.271 C 710.358,42.401 710.323,42.516 710.254,42.615 C 710.167,42.739 710.043,42.802 709.886,42.802 z " />
      <path
         id="path322"
         d="M 715.993,48.325 C 715.51,48.325 714.821,47.902 713.927,47.055 L 712.5,45.624 L 712.5,45.691 L 712.5,48.184 C 712.5,48.498 712.362,48.655 712.088,48.655 C 711.906,48.655 711.763,48.575 711.655,48.417 C 711.567,48.287 711.522,48.146 711.522,47.994 C 711.522,47.251 711.543,46.141 711.585,44.662 C 711.626,43.184 711.647,42.075 711.647,41.336 C 711.647,41.199 711.692,41.084 711.783,40.989 C 711.872,40.894 711.983,40.846 712.116,40.846 C 712.251,40.846 712.363,40.893 712.452,40.989 C 712.543,41.084 712.588,41.199 712.588,41.336 C 712.588,41.644 712.572,42.123 712.542,42.773 C 712.51,43.401 712.495,43.882 712.499,44.215 C 712.924,43.812 713.403,43.305 713.94,42.695 L 715.304,41.108 C 715.412,40.984 715.533,40.922 715.668,40.922 C 715.794,40.922 715.908,40.97 716.006,41.065 C 716.106,41.16 716.155,41.276 716.155,41.413 C 716.155,41.622 715.743,42.181 714.922,43.09 C 714.356,43.71 713.77,44.316 713.165,44.91 C 713.545,45.309 714.144,45.884 714.957,46.632 L 715.458,47.05 C 715.639,47.189 715.835,47.295 716.044,47.364 C 716.296,47.447 716.422,47.604 716.422,47.835 C 716.422,47.943 716.388,48.046 716.321,48.144 C 716.24,48.265 716.13,48.325 715.993,48.325 z " />
      <path
         id="path324"
         d="M 717.11,46.938 C 717.107,46.804 717.152,46.695 717.246,46.611 C 717.34,46.527 717.454,46.484 717.591,46.484 C 717.745,46.484 717.883,46.573 717.999,46.752 C 718.162,46.994 718.305,47.159 718.432,47.245 C 718.702,47.424 719.093,47.513 719.606,47.513 C 720.097,47.513 720.554,47.407 720.975,47.195 C 721.513,46.924 721.784,46.546 721.784,46.062 C 721.784,45.664 721.557,45.349 721.105,45.119 C 720.722,44.919 720.249,44.812 719.685,44.796 C 719.185,44.776 718.758,44.667 718.408,44.467 C 717.958,44.21 717.733,43.842 717.733,43.363 C 717.733,42.798 718.054,42.281 718.694,41.815 C 719.306,41.374 719.939,41.153 720.593,41.153 C 720.9,41.153 721.247,41.205 721.635,41.311 C 722.149,41.448 722.406,41.623 722.406,41.837 C 722.406,42.118 722.262,42.258 721.978,42.258 C 721.852,42.258 721.629,42.223 721.314,42.154 C 720.997,42.085 720.752,42.051 720.578,42.055 C 720.084,42.061 719.664,42.184 719.319,42.422 C 718.965,42.666 718.787,42.964 718.787,43.313 C 718.787,43.576 719.021,43.763 719.491,43.87 C 719.664,43.912 720.002,43.95 720.502,43.984 C 721.227,44.038 721.793,44.266 722.202,44.669 C 722.574,45.036 722.762,45.484 722.762,46.013 C 722.762,46.767 722.413,47.369 721.714,47.819 C 721.109,48.209 720.405,48.403 719.606,48.403 C 719.025,48.403 718.495,48.291 718.012,48.069 C 717.419,47.792 717.12,47.416 717.11,46.938 z " />
    </g>
  </g>
</svg>
