<?xml version="1.0" encoding="UTF-8" standalone="no"?>
<!-- Created with Inkscape (http://www.inkscape.org/) -->
<svg
   xmlns:dc="http://purl.org/dc/elements/1.1/"
   xmlns:cc="http://web.resource.org/cc/"
   xmlns:rdf="http://www.w3.org/1999/02/22-rdf-syntax-ns#"
   xmlns:svg="http://www.w3.org/2000/svg"
   xmlns="http://www.w3.org/2000/svg"
   xmlns:sodipodi="http://sodipodi.sourceforge.net/DTD/sodipodi-0.dtd"
   xmlns:inkscape="http://www.inkscape.org/namespaces/inkscape"
   width="142.73199"
   height="163.41402"
   id="svg2901"
   sodipodi:version="0.32"
   inkscape:version="0.45.1"
   version="1.0"
   sodipodi:docbase="/Users/robmyers/Desktop/cc-ironies/final"
   sodipodi:docname="speech_bubble.svg"
   inkscape:output_extension="org.inkscape.output.svg.inkscape">
  <defs
     id="defs2903" />
  <sodipodi:namedview
     id="base"
     pagecolor="#ffffff"
     bordercolor="#666666"
     borderopacity="1.0"
     gridtolerance="10000"
     guidetolerance="10"
     objecttolerance="10"
     inkscape:pageopacity="0.0"
     inkscape:pageshadow="2"
     inkscape:zoom="2.3131431"
     inkscape:cx="71.365997"
     inkscape:cy="81.707008"
     inkscape:document-units="px"
     inkscape:current-layer="layer1"
     inkscape:window-width="697"
     inkscape:window-height="581"
     inkscape:window-x="20"
     inkscape:window-y="42" />
  <metadata
     id="metadata2906">
    <rdf:RDF>
      <cc:Work
         rdf:about="">
        <dc:format>image/svg+xml</dc:format>
        <dc:type
           rdf:resource="http://purl.org/dc/dcmitype/StillImage" />
      </cc:Work>
    </rdf:RDF>
  </metadata>
  <g
     inkscape:label="Layer 1"
     inkscape:groupmode="layer"
     id="layer1"
     transform="translate(-602.91974,-142.04982)">
    <rect
       id="rect93"
       height="141.73199"
       width="141.73199"
       style="fill:#ffffff;stroke:#000000;overflow:visible"
       y="142.54982"
       x="603.41974" />
    <g
       transform="matrix(0.5,0,0,0.5,357.62774,212.29433)"
       style="overflow:visible"
       id="g95">
      <path
         d="M 493.158,154.975 L 578.705,155.126 C 579.9,155.126 580.969,154.948 580.969,157.512 L 580.865,185.688 L 491,185.688 L 491,157.41 C 490.998,156.145 491.121,154.975 493.158,154.975 z "
         style="fill:#aab2ab"
         id="path3817_2_" />
      <path
         id="path98"
         d="M 579.453,154.639 L 492.28,154.639 C 491.345,154.639 490.584,155.4 490.584,156.333 L 490.584,185.956 C 490.584,186.167 490.756,186.339 490.967,186.339 L 580.766,186.339 C 580.977,186.339 581.155,186.167 581.155,185.956 L 581.155,156.333 C 581.148,155.4 580.386,154.639 579.453,154.639 z M 492.28,155.406 L 579.453,155.406 C 579.965,155.406 580.383,155.822 580.383,156.336 C 580.383,156.336 580.383,168.254 580.383,176.877 L 518.078,176.877 C 515.793,181.006 511.392,183.812 506.344,183.812 C 501.293,183.812 496.898,181.008 494.615,176.877 L 491.354,176.877 C 491.354,168.254 491.354,156.336 491.354,156.336 C 491.35,155.822 491.767,155.406 492.28,155.406 z " />
      <g
         id="g5908_2_">
        <path
           d="M 516.638,169.391 C 516.642,175.074 512.036,179.683 506.354,179.687 C 500.671,179.69 496.062,175.085 496.058,169.403 C 496.058,169.399 496.058,169.395 496.058,169.391 C 496.054,163.706 500.66,159.098 506.341,159.094 C 512.025,159.091 516.636,163.697 516.638,169.378 C 516.638,169.382 516.638,169.386 516.638,169.391 z "
           style="fill:#ffffff"
           id="path5906_2_" />
        <g
           id="g5706_2_">
          <path
             id="path103"
             d="M 514.714,161.009 C 516.995,163.29 518.136,166.085 518.136,169.391 C 518.136,172.697 517.015,175.46 514.773,177.684 C 512.392,180.026 509.58,181.196 506.334,181.196 C 503.127,181.196 500.363,180.037 498.043,177.715 C 495.724,175.396 494.564,172.619 494.564,169.395 C 494.564,166.171 495.724,163.374 498.043,161.01 C 500.308,158.731 503.068,157.586 506.334,157.586 C 509.638,157.585 512.431,158.727 514.714,161.009 z M 499.578,162.544 C 497.649,164.491 496.684,166.773 496.684,169.394 C 496.684,172.011 497.639,174.275 499.548,176.184 C 501.458,178.091 503.731,179.046 506.368,179.046 C 509.005,179.046 511.298,178.083 513.247,176.151 C 515.097,174.36 516.019,172.106 516.019,169.39 C 516.019,166.694 515.081,164.407 513.202,162.526 C 511.319,160.646 509.044,159.708 506.368,159.708 C 503.692,159.708 501.427,160.656 499.578,162.544 z M 504.654,168.244 C 504.36,167.599 503.92,167.278 503.33,167.278 C 502.291,167.278 501.77,167.979 501.77,169.381 C 501.77,170.781 502.291,171.483 503.33,171.483 C 504.018,171.483 504.508,171.142 504.806,170.462 L 506.246,171.231 C 505.558,172.453 504.525,173.063 503.151,173.063 C 502.089,173.063 501.242,172.739 500.603,172.087 C 499.964,171.438 499.644,170.54 499.644,169.399 C 499.644,168.276 499.974,167.384 500.632,166.724 C 501.288,166.063 502.11,165.734 503.091,165.734 C 504.546,165.734 505.585,166.306 506.216,167.451 L 504.654,168.244 z M 511.439,168.244 C 511.144,167.599 510.71,167.278 510.142,167.278 C 509.08,167.278 508.548,167.979 508.548,169.381 C 508.548,170.781 509.079,171.483 510.142,171.483 C 510.83,171.483 511.312,171.142 511.585,170.462 L 513.062,171.231 C 512.374,172.453 511.345,173.063 509.972,173.063 C 508.913,173.063 508.066,172.739 507.428,172.087 C 506.79,171.438 506.472,170.54 506.472,169.399 C 506.472,168.276 506.796,167.384 507.443,166.724 C 508.089,166.063 508.914,165.734 509.914,165.734 C 511.365,165.734 512.404,166.306 513.031,167.451 L 511.439,168.244 z " />
        </g>
      </g>
      <g
         style="enable-background:new"
         id="g370_3_">
        <path
           id="path106"
           d="M 526.88,179.356 C 527.118,179.356 527.335,179.377 527.532,179.418 C 527.724,179.461 527.892,179.529 528.036,179.625 C 528.177,179.724 528.284,179.851 528.359,180.006 C 528.437,180.164 528.474,180.36 528.474,180.594 C 528.474,180.849 528.414,181.058 528.301,181.226 C 528.189,181.395 528.019,181.532 527.791,181.64 C 528.103,181.728 528.33,181.881 528.482,182.105 C 528.634,182.331 528.711,182.592 528.711,182.909 C 528.711,183.163 528.662,183.38 528.565,183.562 C 528.466,183.749 528.336,183.897 528.169,184.01 C 528.003,184.127 527.814,184.213 527.601,184.273 C 527.388,184.333 527.169,184.357 526.945,184.357 L 524.517,184.357 L 524.517,179.359 L 526.88,179.356 L 526.88,179.356 z M 526.74,181.376 C 526.935,181.376 527.097,181.329 527.224,181.233 C 527.349,181.141 527.412,180.993 527.412,180.782 C 527.412,180.667 527.392,180.568 527.35,180.497 C 527.307,180.421 527.251,180.364 527.182,180.319 C 527.112,180.277 527.032,180.251 526.94,180.231 C 526.85,180.213 526.753,180.21 526.657,180.21 L 525.627,180.21 L 525.627,181.376 L 526.74,181.376 L 526.74,181.376 z M 526.804,183.5 C 526.911,183.5 527.013,183.49 527.113,183.469 C 527.211,183.449 527.297,183.412 527.373,183.365 C 527.447,183.315 527.506,183.25 527.551,183.166 C 527.599,183.082 527.617,182.977 527.617,182.844 C 527.617,182.588 527.545,182.406 527.4,182.295 C 527.255,182.187 527.064,182.131 526.826,182.131 L 525.625,182.131 L 525.625,183.502 L 526.806,183.502 L 526.804,183.5 L 526.804,183.5 z "
           style="fill:#ffffff" />
        <polygon
           points="528.914,179.356 530.146,179.356 531.316,181.33 532.48,179.356 533.705,179.356 531.849,182.436 531.849,184.354 530.748,184.354 530.748,182.408 528.914,179.356 "
           style="fill:#ffffff"
           id="path374_3_" />
      </g>
      <g
         style="enable-background:new"
         id="g376_3_">
        <polygon
           points="545.312,179.356 547.402,182.708 547.414,182.708 547.414,179.356 548.445,179.356 548.445,184.354 547.345,184.354 545.265,181.007 545.251,181.007 545.251,184.354 544.22,184.354 544.22,179.356 545.312,179.356 "
           style="fill:#ffffff"
           id="path378_3_" />
        <path
           d="M 552.617,180.688 C 552.553,180.584 552.471,180.49 552.371,180.412 C 552.273,180.332 552.162,180.269 552.039,180.225 C 551.916,180.18 551.785,180.16 551.65,180.16 C 551.404,180.16 551.193,180.207 551.019,180.306 C 550.847,180.401 550.707,180.53 550.601,180.69 C 550.492,180.852 550.413,181.038 550.365,181.241 C 550.317,181.445 550.293,181.659 550.293,181.88 C 550.293,182.089 550.316,182.294 550.365,182.489 C 550.414,182.687 550.492,182.868 550.601,183.024 C 550.706,183.183 550.847,183.309 551.019,183.407 C 551.193,183.505 551.404,183.552 551.65,183.552 C 551.986,183.552 552.25,183.448 552.437,183.243 C 552.626,183.038 552.742,182.764 552.785,182.431 L 553.849,182.431 C 553.82,182.743 553.747,183.028 553.632,183.28 C 553.515,183.533 553.361,183.748 553.169,183.926 C 552.978,184.107 552.753,184.239 552.497,184.334 C 552.241,184.428 551.958,184.477 551.646,184.477 C 551.263,184.477 550.917,184.413 550.616,184.277 C 550.308,184.145 550.052,183.964 549.843,183.727 C 549.632,183.497 549.47,183.217 549.359,182.905 C 549.248,182.591 549.191,182.253 549.191,181.884 C 549.191,181.509 549.248,181.163 549.359,180.843 C 549.47,180.526 549.632,180.243 549.843,180.007 C 550.052,179.771 550.312,179.581 550.616,179.445 C 550.923,179.309 551.263,179.243 551.646,179.243 C 551.921,179.243 552.181,179.281 552.427,179.361 C 552.671,179.44 552.892,179.555 553.082,179.71 C 553.275,179.86 553.437,180.05 553.562,180.272 C 553.689,180.497 553.766,180.752 553.799,181.043 L 552.736,181.043 C 552.724,180.908 552.681,180.792 552.617,180.688 z "
           style="fill:#ffffff"
           id="path380_3_" />
      </g>
      <g
         style="enable-background:new"
         id="g382_3_">
        <polygon
           points="564.812,179.356 566.902,182.708 566.914,182.708 566.914,179.356 567.945,179.356 567.945,184.354 566.845,184.354 564.765,181.007 564.751,181.007 564.751,184.354 563.72,184.354 563.72,179.356 564.812,179.356 "
           style="fill:#ffffff"
           id="path384_3_" />
        <path
           id="path114"
           d="M 571.066,179.356 C 571.388,179.356 571.689,179.408 571.966,179.509 C 572.245,179.612 572.486,179.766 572.689,179.971 C 572.892,180.175 573.05,180.434 573.166,180.742 C 573.279,181.051 573.338,181.412 573.338,181.828 C 573.338,182.191 573.291,182.526 573.197,182.836 C 573.103,183.147 572.963,183.41 572.773,183.633 C 572.584,183.86 572.347,184.035 572.064,184.162 C 571.783,184.291 571.449,184.354 571.066,184.354 L 568.908,184.354 L 568.908,179.356 L 571.066,179.356 z M 570.988,183.428 C 571.148,183.428 571.302,183.403 571.451,183.351 C 571.601,183.298 571.734,183.214 571.849,183.096 C 571.966,182.977 572.06,182.824 572.13,182.63 C 572.2,182.439 572.234,182.206 572.234,181.932 C 572.234,181.68 572.211,181.453 572.162,181.249 C 572.113,181.044 572.033,180.872 571.92,180.728 C 571.81,180.582 571.66,180.472 571.478,180.396 C 571.291,180.319 571.066,180.283 570.793,180.283 L 570.01,180.283 L 570.01,183.429 L 570.988,183.429 L 570.988,183.428 z "
           style="fill:#ffffff" />
      </g>
      <g
         id="g6370_4_">
        <g
           id="g7610_4_">
          <path
             d="M 556.847,165.946 C 556.851,170.098 553.488,173.467 549.335,173.468 C 545.185,173.471 541.814,170.108 541.814,165.956 C 541.814,165.952 541.814,165.948 541.814,165.942 C 541.812,161.794 545.175,158.421 549.326,158.421 C 553.478,158.417 556.847,161.78 556.847,165.934 C 556.847,165.938 556.847,165.943 556.847,165.946 z "
             style="fill:#ffffff"
             id="path6372_4_" />
          <path
             id="path119"
             d="M 549.32,157.195 C 551.773,157.195 553.847,158.041 555.541,159.732 C 557.236,161.423 558.084,163.498 558.084,165.946 C 558.084,168.396 557.25,170.446 555.586,172.093 C 553.818,173.829 551.732,174.698 549.32,174.698 C 546.939,174.698 544.888,173.837 543.164,172.116 C 541.441,170.392 540.58,168.339 540.58,165.943 C 540.58,163.549 541.441,161.479 543.164,159.729 C 544.843,158.041 546.896,157.195 549.32,157.195 z M 542.548,163.593 C 542.286,164.333 542.155,165.116 542.155,165.946 C 542.155,167.886 542.864,169.563 544.28,170.979 C 545.698,172.393 547.384,173.1 549.341,173.1 C 551.298,173.1 552.999,172.384 554.445,170.954 C 554.929,170.485 555.33,169.975 555.642,169.425 L 552.341,167.956 C 552.118,169.063 551.128,169.812 549.933,169.9 L 549.933,171.253 L 548.929,171.253 L 548.929,169.9 C 547.947,169.889 546.997,169.489 546.273,168.852 L 547.478,167.637 C 548.058,168.183 548.638,168.428 549.431,168.428 C 549.945,168.428 550.513,168.227 550.513,167.559 C 550.513,167.325 550.421,167.159 550.279,167.036 L 549.443,166.665 L 548.404,166.202 C 547.89,165.973 547.455,165.776 547.017,165.585 L 542.548,163.593 z M 549.341,158.77 C 547.355,158.77 545.675,159.468 544.302,160.871 C 543.929,161.248 543.605,161.642 543.329,162.053 L 546.673,163.543 C 546.976,162.615 547.859,162.051 548.929,161.99 L 548.929,160.639 L 549.933,160.639 L 549.933,161.99 C 550.626,162.022 551.384,162.213 552.132,162.791 L 550.982,163.977 C 550.558,163.674 550.023,163.461 549.488,163.461 C 549.052,163.461 548.437,163.594 548.437,164.144 C 548.437,164.227 548.466,164.297 548.517,164.368 L 549.636,164.864 L 550.392,165.204 C 550.876,165.421 551.339,165.626 551.798,165.829 L 556.279,167.823 C 556.425,167.237 556.505,166.612 556.505,165.952 C 556.505,163.954 555.804,162.263 554.401,160.876 C 553.015,159.468 551.328,158.77 549.341,158.77 z " />
        </g>
      </g>
      <g
         id="g6394_4_">
        <path
           d="M 577.125,165.946 C 577.129,170.358 573.558,173.937 569.146,173.941 C 564.734,173.944 561.154,170.371 561.152,165.959 C 561.152,165.955 561.152,165.951 561.152,165.946 C 561.148,161.535 564.719,157.957 569.131,157.953 C 573.543,157.949 577.121,161.522 577.125,165.934 C 577.125,165.938 577.125,165.942 577.125,165.946 z "
           style="fill:#ffffff"
           id="path6396_4_" />
        <g
           id="g6398_4_">
          <path
             id="path124"
             d="M 569.011,157.195 C 566.587,157.195 564.534,158.041 562.855,159.732 C 561.132,161.482 560.271,163.553 560.271,165.946 C 560.271,168.34 561.132,170.395 562.855,172.117 C 564.578,173.838 566.63,174.699 569.011,174.699 C 571.421,174.699 573.509,173.83 575.277,172.095 C 576.941,170.449 577.773,168.398 577.773,165.949 C 577.773,163.5 576.927,161.428 575.232,159.734 C 573.539,158.041 571.464,157.195 569.011,157.195 z M 569.033,158.769 C 571.019,158.769 572.705,159.468 574.094,160.871 C 575.496,162.256 576.199,163.949 576.199,165.946 C 576.199,167.961 575.51,169.631 574.14,170.957 C 572.693,172.389 570.994,173.103 569.036,173.103 C 567.077,173.103 565.39,172.396 563.974,170.98 C 562.558,169.566 561.849,167.888 561.849,165.951 C 561.849,164.012 562.564,162.317 563.995,160.875 C 565.367,159.468 567.046,158.769 569.033,158.769 z " />
          <g
             id="g6402_4_">
            <path
               id="path127"
               d="M 572.328,163.873 L 565.967,163.873 L 565.967,165.379 L 572.328,165.379 L 572.328,163.873 z M 572.328,166.684 L 565.967,166.684 L 565.967,168.191 L 572.328,168.191 L 572.328,166.684 z " />
          </g>
        </g>
      </g>
      <g
         id="g398_3_">
        <circle
           sodipodi:ry="8.1040001"
           sodipodi:rx="8.1040001"
           sodipodi:cy="166.125"
           sodipodi:cx="529.65002"
           r="8.1040001"
           cy="166.125"
           cx="529.65002"
           style="fill:#ffffff"
           id="circle400_3_" />
        <g
           id="g402_3_">
          <path
             d="M 531.996,163.779 C 531.996,163.467 531.742,163.215 531.434,163.215 L 527.854,163.215 C 527.542,163.215 527.292,163.469 527.292,163.779 L 527.292,167.359 L 528.29,167.359 L 528.29,171.598 L 531,171.598 L 531,167.359 L 531.998,167.359 L 531.998,163.779 L 531.996,163.779 z "
             id="path404_3_" />
          <circle
             sodipodi:ry="1.226"
             sodipodi:rx="1.226"
             sodipodi:cy="161.51801"
             sodipodi:cx="529.64001"
             r="1.226"
             cy="161.51801"
             cx="529.64001"
             id="circle406_3_" />
        </g>
        <path
           id="path134"
           d="M 529.63,157.195 C 527.206,157.195 525.151,158.041 523.474,159.733 C 521.751,161.482 520.89,163.553 520.89,165.946 C 520.89,168.338 521.751,170.395 523.474,172.117 C 525.197,173.838 527.249,174.699 529.63,174.699 C 532.038,174.699 534.128,173.83 535.896,172.094 C 537.56,170.449 538.392,168.4 538.392,165.949 C 538.392,163.498 537.546,161.428 535.851,159.735 C 534.158,158.041 532.083,157.195 529.63,157.195 z M 529.652,158.769 C 531.638,158.769 533.324,159.468 534.713,160.871 C 536.115,162.256 536.817,163.949 536.817,165.946 C 536.817,167.959 536.129,169.631 534.755,170.957 C 533.311,172.389 531.609,173.103 529.651,173.103 C 527.693,173.103 526.005,172.396 524.589,170.981 C 523.173,169.566 522.464,167.888 522.464,165.951 C 522.464,164.012 523.18,162.317 524.61,160.875 C 525.986,159.468 527.666,158.769 529.652,158.769 z " />
      </g>
    </g>
    <path
       id="path282"
       d="M 675.01671,166.71883 C 642.20671,166.71883 615.61071,183.00283 615.61071,203.09083 C 615.61071,217.05683 628.47371,229.17783 647.33871,235.27283 C 633.85371,248.19183 614.54771,255.59283 614.54771,255.59283 C 614.54771,255.59283 646.35171,258.76783 666.26571,239.06783 C 669.12371,239.32583 672.04371,239.46383 675.01771,239.46383 C 707.82871,239.46383 734.42471,223.17983 734.42471,203.09183 C 734.42471,183.00383 707.82771,166.71883 675.01671,166.71883 z "
       style="fill:#ffffff;stroke:#000000;stroke-width:1.36199999;overflow:visible" />
  </g>
</svg>
