<?xml version="1.0" encoding="UTF-8" standalone="no"?>
<!-- Created with Inkscape (http://www.inkscape.org/) -->
<svg
   xmlns:dc="http://purl.org/dc/elements/1.1/"
   xmlns:cc="http://web.resource.org/cc/"
   xmlns:rdf="http://www.w3.org/1999/02/22-rdf-syntax-ns#"
   xmlns:svg="http://www.w3.org/2000/svg"
   xmlns="http://www.w3.org/2000/svg"
   xmlns:sodipodi="http://sodipodi.sourceforge.net/DTD/sodipodi-0.dtd"
   xmlns:inkscape="http://www.inkscape.org/namespaces/inkscape"
   width="142.73199"
   height="163.41475"
   id="svg3644"
   sodipodi:version="0.32"
   inkscape:version="0.45.1"
   version="1.0"
   sodipodi:docbase="/Users/robmyers/Desktop/cc-ironies/final"
   sodipodi:docname="summer_blockbuster_seed.svg"
   inkscape:output_extension="org.inkscape.output.svg.inkscape">
  <defs
     id="defs3646" />
  <sodipodi:namedview
     id="base"
     pagecolor="#ffffff"
     bordercolor="#666666"
     borderopacity="1.0"
     gridtolerance="10000"
     guidetolerance="10"
     objecttolerance="10"
     inkscape:pageopacity="0.0"
     inkscape:pageshadow="2"
     inkscape:zoom="2.3131327"
     inkscape:cx="71.365997"
     inkscape:cy="81.707375"
     inkscape:document-units="px"
     inkscape:current-layer="layer1"
     inkscape:window-width="697"
     inkscape:window-height="581"
     inkscape:window-x="42"
     inkscape:window-y="60" />
  <metadata
     id="metadata3649">
    <rdf:RDF>
      <cc:Work
         rdf:about="">
        <dc:format>image/svg+xml</dc:format>
        <dc:type
           rdf:resource="http://purl.org/dc/dcmitype/StillImage" />
      </cc:Work>
    </rdf:RDF>
  </metadata>
  <g
     inkscape:label="Layer 1"
     inkscape:groupmode="layer"
     id="layer1"
     transform="translate(-300.06256,-404.90646)">
    <rect
       x="300.56256"
       y="405.40646"
       style="fill:#ffffff;stroke:#000000"
       width="141.73199"
       height="141.73199"
       id="rect581" />
    <g
       id="g583"
       transform="matrix(0.5,0,0,0.5,-26.90893,475.15122)">
      <path
         id="path3817_4_"
         style="fill:#aab2ab"
         d="M 656.515,154.981 L 742.063,155.133 C 743.258,155.133 744.327,154.955 744.327,157.518 L 744.222,185.694 L 654.357,185.694 L 654.357,157.415 C 654.356,156.15 654.479,154.981 656.515,154.981 z " />
      <path
         d="M 742.811,154.639 L 655.639,154.639 C 654.703,154.639 653.943,155.401 653.943,156.335 L 653.943,185.957 C 653.943,186.168 654.115,186.34 654.327,186.34 L 744.124,186.34 C 744.335,186.34 744.507,186.168 744.507,185.957 L 744.507,156.335 C 744.506,155.401 743.746,154.639 742.811,154.639 z M 655.639,155.406 L 742.811,155.406 C 743.324,155.406 743.741,155.823 743.741,156.336 C 743.741,156.336 743.741,168.259 743.741,176.882 L 681.435,176.882 C 679.152,181.011 674.751,183.816 669.702,183.816 C 664.651,183.816 660.253,181.014 657.971,176.882 L 654.71,176.882 C 654.71,168.259 654.71,156.336 654.71,156.336 C 654.709,155.823 655.126,155.406 655.639,155.406 z "
         id="path586" />
      <g
         id="g5908_4_">
        <path
           id="path5906_4_"
           style="fill:#ffffff"
           d="M 679.997,169.397 C 680.001,175.08 675.396,179.69 669.714,179.692 C 664.03,179.697 659.421,175.091 659.417,169.409 C 659.417,169.405 659.417,169.401 659.417,169.397 C 659.413,163.713 664.019,159.104 669.701,159.1 C 675.385,159.096 679.994,163.702 679.997,169.383 C 679.997,169.388 679.997,169.392 679.997,169.397 z " />
        <g
           id="g5706_4_">
          <path
             d="M 678.072,161.015 C 680.354,163.297 681.495,166.09 681.495,169.397 C 681.495,172.702 680.374,175.466 678.131,177.69 C 675.751,180.031 672.939,181.202 669.693,181.202 C 666.486,181.202 663.722,180.042 661.402,177.72 C 659.08,175.398 657.92,172.624 657.92,169.398 C 657.92,166.17 659.08,163.377 661.402,161.016 C 663.664,158.734 666.427,157.592 669.693,157.592 C 672.997,157.591 675.79,158.733 678.072,161.015 z M 662.936,162.55 C 661.007,164.498 660.042,166.781 660.042,169.399 C 660.042,172.017 660.997,174.281 662.906,176.189 C 664.816,178.098 667.089,179.053 669.726,179.053 C 672.363,179.053 674.656,178.089 676.605,176.16 C 678.455,174.369 679.38,172.115 679.38,169.398 C 679.38,166.703 678.439,164.414 676.559,162.535 C 674.68,160.655 672.402,159.715 669.726,159.715 C 667.05,159.715 664.786,160.661 662.936,162.55 z M 668.013,168.249 C 667.718,167.605 667.278,167.284 666.689,167.284 C 665.649,167.284 665.128,167.985 665.128,169.386 C 665.128,170.787 665.649,171.486 666.689,171.486 C 667.376,171.486 667.867,171.145 668.161,170.463 L 669.603,171.231 C 668.915,172.452 667.884,173.063 666.509,173.063 C 665.448,173.063 664.599,172.738 663.961,172.088 C 663.322,171.438 663.003,170.541 663.003,169.399 C 663.003,168.276 663.332,167.384 663.99,166.724 C 664.647,166.063 665.468,165.734 666.45,165.734 C 667.904,165.734 668.944,166.306 669.574,167.451 L 668.013,168.249 z M 674.798,168.249 C 674.502,167.605 674.069,167.284 673.5,167.284 C 672.438,167.284 671.907,167.985 671.907,169.386 C 671.907,170.787 672.438,171.486 673.5,171.486 C 674.188,171.486 674.67,171.145 674.945,170.463 L 676.419,171.231 C 675.732,172.452 674.703,173.063 673.33,173.063 C 672.271,173.063 671.424,172.738 670.786,172.088 C 670.149,171.438 669.83,170.541 669.83,169.399 C 669.83,168.276 670.154,167.384 670.802,166.724 C 671.448,166.063 672.272,165.734 673.272,165.734 C 674.723,165.734 675.762,166.306 676.389,167.451 L 674.798,168.249 z "
             id="path591" />
        </g>
      </g>
      <g
         id="g126_4_">
        <circle
           id="circle128_4_"
           style="fill:#ffffff"
           cx="693.008"
           cy="166.13"
           r="8.1040001"
           sodipodi:cx="693.008"
           sodipodi:cy="166.13"
           sodipodi:rx="8.1040001"
           sodipodi:ry="8.1040001" />
        <g
           id="g130_4_">
          <path
             id="path132_4_"
             d="M 695.354,163.785 C 695.354,163.473 695.101,163.22 694.789,163.22 L 691.21,163.22 C 690.898,163.22 690.645,163.474 690.645,163.785 L 690.645,167.365 L 691.643,167.365 L 691.643,171.604 L 694.356,171.604 L 694.356,167.365 L 695.355,167.365 L 695.355,163.785 L 695.354,163.785 z " />
          <circle
             id="circle134_4_"
             cx="692.99902"
             cy="161.524"
             r="1.225"
             sodipodi:cx="692.99902"
             sodipodi:cy="161.524"
             sodipodi:rx="1.225"
             sodipodi:ry="1.225" />
        </g>
        <path
           d="M 692.988,157.2 C 690.564,157.2 688.512,158.046 686.833,159.738 C 685.109,161.488 684.248,163.559 684.248,165.952 C 684.248,168.344 685.109,170.4 686.833,172.122 C 688.557,173.843 690.608,174.704 692.988,174.704 C 695.397,174.704 697.487,173.837 699.254,172.1 C 700.919,170.453 701.751,168.403 701.751,165.953 C 701.751,163.502 700.904,161.432 699.21,159.739 C 697.516,158.045 695.442,157.2 692.988,157.2 z M 693.01,158.775 C 694.996,158.775 696.683,159.475 698.07,160.876 C 699.473,162.262 700.174,163.954 700.174,165.952 C 700.174,167.965 699.487,169.635 698.114,170.962 C 696.669,172.392 694.968,173.107 693.01,173.107 C 691.052,173.107 689.365,172.4 687.949,170.985 C 686.532,169.57 685.824,167.892 685.824,165.953 C 685.824,164.013 686.54,162.321 687.97,160.877 C 689.344,159.475 691.024,158.775 693.01,158.775 z "
           id="path598" />
      </g>
      <g
         id="g138_4_"
         style="enable-background:new">
        <path
           style="fill:#ffffff"
           d="M 690.471,179.357 C 690.709,179.357 690.926,179.378 691.123,179.42 C 691.318,179.461 691.487,179.529 691.628,179.626 C 691.768,179.721 691.876,179.849 691.954,180.007 C 692.031,180.165 692.069,180.361 692.069,180.594 C 692.069,180.846 692.012,181.056 691.897,181.225 C 691.783,181.393 691.613,181.53 691.388,181.637 C 691.698,181.725 691.928,181.881 692.08,182.104 C 692.232,182.325 692.309,182.592 692.309,182.905 C 692.309,183.157 692.26,183.376 692.162,183.559 C 692.064,183.745 691.932,183.895 691.766,184.01 C 691.6,184.127 691.411,184.214 691.199,184.27 C 690.985,184.327 690.767,184.355 690.543,184.355 L 688.115,184.355 L 688.115,179.357 L 690.471,179.357 L 690.471,179.357 z M 690.331,181.378 C 690.527,181.378 690.688,181.331 690.814,181.237 C 690.941,181.144 691.003,180.994 691.003,180.785 C 691.003,180.668 690.982,180.572 690.941,180.498 C 690.898,180.423 690.842,180.365 690.772,180.323 C 690.702,180.281 690.622,180.252 690.531,180.235 C 690.439,180.218 690.344,180.212 690.247,180.212 L 689.217,180.212 L 689.217,181.378 L 690.331,181.378 z M 690.395,183.5 C 690.502,183.5 690.605,183.489 690.704,183.468 C 690.802,183.447 690.889,183.412 690.964,183.364 C 691.038,183.313 691.098,183.248 691.143,183.163 C 691.187,183.079 691.209,182.973 691.209,182.843 C 691.209,182.586 691.137,182.404 690.991,182.293 C 690.846,182.183 690.655,182.129 690.417,182.129 L 689.217,182.129 L 689.217,183.5 L 690.395,183.5 z "
           id="path601" />
        <polygon
           id="path142_4_"
           style="fill:#ffffff"
           points="692.504,179.357 693.737,179.357 694.907,181.331 696.071,179.357 697.295,179.357 695.44,182.436 695.44,184.355 694.338,184.355 694.338,182.409 692.504,179.357 " />
      </g>
      <g
         id="g144_4_"
         style="enable-background:new">
        <path
           id="path146_4_"
           style="fill:#ffffff"
           d="M 728.236,183.119 C 728.297,183.236 728.377,183.33 728.477,183.403 C 728.577,183.475 728.694,183.529 728.83,183.564 C 728.965,183.599 729.104,183.617 729.249,183.617 C 729.347,183.617 729.451,183.608 729.563,183.593 C 729.674,183.576 729.779,183.544 729.877,183.497 C 729.974,183.452 730.055,183.388 730.121,183.306 C 730.185,183.224 730.219,183.119 730.219,182.994 C 730.219,182.859 730.176,182.75 730.089,182.666 C 730.003,182.581 729.89,182.512 729.75,182.455 C 729.61,182.399 729.451,182.351 729.275,182.309 C 729.097,182.266 728.918,182.219 728.736,182.168 C 728.549,182.121 728.368,182.064 728.191,181.996 C 728.014,181.93 727.855,181.842 727.715,181.734 C 727.575,181.626 727.462,181.492 727.376,181.332 C 727.29,181.17 727.247,180.976 727.247,180.747 C 727.247,180.49 727.302,180.268 727.411,180.079 C 727.52,179.89 727.664,179.732 727.841,179.605 C 728.019,179.48 728.219,179.386 728.443,179.326 C 728.667,179.264 728.891,179.235 729.115,179.235 C 729.376,179.235 729.627,179.264 729.867,179.323 C 730.106,179.381 730.32,179.475 730.506,179.605 C 730.694,179.738 730.841,179.904 730.951,180.107 C 731.06,180.31 731.115,180.556 731.115,180.846 L 730.049,180.846 C 730.039,180.697 730.008,180.572 729.955,180.476 C 729.901,180.377 729.83,180.3 729.742,180.244 C 729.654,180.189 729.553,180.148 729.439,180.126 C 729.326,180.103 729.201,180.091 729.066,180.091 C 728.978,180.091 728.889,180.1 728.801,180.119 C 728.712,180.138 728.633,180.17 728.561,180.217 C 728.489,180.264 728.43,180.321 728.383,180.391 C 728.337,180.461 728.314,180.551 728.314,180.659 C 728.314,180.757 728.332,180.836 728.37,180.895 C 728.407,180.957 728.48,181.012 728.59,181.064 C 728.7,181.116 728.852,181.167 729.045,181.217 C 729.238,181.269 729.491,181.334 729.803,181.414 C 729.897,181.433 730.026,181.467 730.191,181.516 C 730.357,181.565 730.522,181.643 730.684,181.75 C 730.847,181.857 730.988,182.001 731.108,182.182 C 731.226,182.36 731.286,182.59 731.286,182.871 C 731.286,183.1 731.241,183.312 731.152,183.508 C 731.063,183.705 730.932,183.873 730.756,184.016 C 730.581,184.159 730.364,184.269 730.106,184.348 C 729.847,184.428 729.547,184.468 729.206,184.468 C 728.931,184.468 728.665,184.433 728.405,184.365 C 728.145,184.297 727.917,184.191 727.719,184.046 C 727.521,183.9 727.364,183.717 727.246,183.492 C 727.128,183.267 727.072,183.002 727.078,182.693 L 728.144,182.693 C 728.145,182.86 728.174,183.002 728.236,183.119 z " />
        <path
           style="fill:#ffffff"
           d="M 734.428,179.357 L 736.297,184.355 L 735.156,184.355 L 734.777,183.242 L 732.908,183.242 L 732.515,184.355 L 731.41,184.355 L 733.301,179.357 L 734.428,179.357 z M 734.491,182.421 L 733.862,180.588 L 733.846,180.588 L 733.196,182.421 L 734.491,182.421 z "
           id="path606" />
      </g>
      <g
         id="g150_4_"
         style="enable-background:new">
        <polygon
           id="path152_4_"
           style="fill:#ffffff"
           points="708.672,179.357 710.76,182.709 710.772,182.709 710.772,179.357 711.803,179.357 711.803,184.355 710.704,184.355 708.624,181.008 708.61,181.008 708.61,184.355 707.579,184.355 707.579,179.357 708.672,179.357 " />
        <path
           id="path154_4_"
           style="fill:#ffffff"
           d="M 715.975,180.688 C 715.911,180.583 715.829,180.491 715.73,180.412 C 715.632,180.333 715.522,180.27 715.398,180.225 C 715.274,180.182 715.144,180.16 715.009,180.16 C 714.762,180.16 714.551,180.207 714.379,180.304 C 714.205,180.4 714.066,180.527 713.959,180.688 C 713.852,180.849 713.772,181.033 713.724,181.238 C 713.676,181.443 713.651,181.655 713.651,181.875 C 713.651,182.084 713.675,182.289 713.724,182.487 C 713.773,182.685 713.852,182.863 713.959,183.021 C 714.065,183.181 714.205,183.307 714.379,183.404 C 714.551,183.5 714.762,183.548 715.009,183.548 C 715.345,183.548 715.608,183.445 715.797,183.238 C 715.985,183.033 716.102,182.762 716.143,182.427 L 717.207,182.427 C 717.18,182.739 717.106,183.021 716.99,183.273 C 716.874,183.527 716.719,183.741 716.528,183.919 C 716.337,184.097 716.113,184.232 715.855,184.326 C 715.599,184.42 715.316,184.467 715.008,184.467 C 714.625,184.467 714.28,184.4 713.975,184.267 C 713.67,184.134 713.412,183.951 713.201,183.717 C 712.991,183.484 712.829,183.208 712.717,182.894 C 712.606,182.58 712.549,182.24 712.549,181.874 C 712.549,181.501 712.606,181.155 712.717,180.834 C 712.829,180.515 712.991,180.235 713.201,179.997 C 713.412,179.759 713.67,179.573 713.975,179.436 C 714.281,179.301 714.625,179.234 715.008,179.234 C 715.283,179.234 715.544,179.274 715.788,179.352 C 716.033,179.432 716.253,179.547 716.446,179.7 C 716.64,179.852 716.8,180.04 716.926,180.264 C 717.051,180.488 717.131,180.745 717.163,181.034 L 716.1,181.034 C 716.083,180.909 716.041,180.792 715.975,180.688 z " />
      </g>
      <g
         id="g6332_5_">
        <path
           id="path6334_5_"
           style="fill:#ffffff"
           d="M 740.416,165.947 C 740.42,170.358 736.846,173.938 732.434,173.942 C 728.022,173.944 724.443,170.371 724.44,165.958 C 724.44,165.955 724.44,165.95 724.44,165.947 C 724.437,161.535 728.011,157.956 732.422,157.952 C 736.834,157.949 740.413,161.523 740.416,165.934 C 740.416,165.939 740.416,165.942 740.416,165.947 z " />
        <g
           id="g6336_5_">
          <path
             d="M 732.37,157.195 C 729.946,157.195 727.893,158.042 726.216,159.733 C 724.492,161.483 723.63,163.555 723.63,165.947 C 723.63,168.339 724.492,170.395 726.216,172.116 C 727.939,173.838 729.99,174.699 732.37,174.699 C 734.78,174.699 736.868,173.831 738.636,172.095 C 740.301,170.446 741.134,168.397 741.134,165.947 C 741.134,163.497 740.286,161.425 738.592,159.733 C 736.898,158.041 734.824,157.195 732.37,157.195 z M 732.392,158.77 C 734.378,158.77 736.065,159.47 737.453,160.872 C 738.854,162.257 739.556,163.948 739.556,165.947 C 739.556,167.96 738.869,169.63 737.496,170.958 C 736.051,172.387 734.349,173.101 732.392,173.101 C 730.435,173.101 728.748,172.394 727.331,170.98 C 725.915,169.565 725.207,167.888 725.207,165.948 C 725.207,164.008 725.922,162.316 727.353,160.873 C 728.726,159.47 730.406,158.77 732.392,158.77 z "
             id="path614" />
          <path
             id="path6340_5_"
             d="M 728.491,164.711 C 728.841,162.509 730.389,161.332 732.333,161.332 C 735.127,161.332 736.829,163.359 736.829,166.062 C 736.829,168.701 735.017,170.75 732.289,170.75 C 730.412,170.75 728.731,169.595 728.426,167.327 L 730.63,167.327 C 730.696,168.504 731.46,168.919 732.552,168.919 C 733.795,168.919 734.603,167.764 734.603,165.998 C 734.603,164.144 733.906,163.163 732.595,163.163 C 731.635,163.163 730.806,163.512 730.63,164.711 L 731.272,164.707 L 729.537,166.443 L 727.802,164.707 L 728.491,164.711 z " />
        </g>
      </g>
      <g
         id="g6361_5_">
        <path
           id="path6363_5_"
           style="fill:#ffffff"
           d="M 720.832,165.947 C 720.836,170.444 717.192,174.091 712.697,174.094 C 708.2,174.096 704.552,170.454 704.55,165.958 C 704.55,165.954 704.55,165.949 704.55,165.946 C 704.546,161.449 708.189,157.802 712.685,157.799 C 717.181,157.796 720.83,161.439 720.832,165.935 C 720.832,165.938 720.832,165.943 720.832,165.947 z " />
        <path
           d="M 712.679,157.195 C 715.132,157.195 717.205,158.042 718.9,159.733 C 720.595,161.424 721.442,163.497 721.442,165.947 C 721.442,168.397 720.609,170.446 718.945,172.095 C 717.176,173.83 715.089,174.699 712.679,174.699 C 710.298,174.699 708.246,173.838 706.524,172.116 C 704.8,170.396 703.938,168.339 703.938,165.947 C 703.938,163.555 704.8,161.483 706.524,159.733 C 708.204,158.042 710.254,157.195 712.679,157.195 z M 705.908,163.596 C 705.646,164.334 705.516,165.117 705.516,165.947 C 705.516,167.887 706.224,169.564 707.641,170.979 C 709.057,172.393 710.744,173.1 712.701,173.1 C 714.658,173.1 716.36,172.386 717.805,170.956 C 718.288,170.488 718.688,169.978 719,169.426 L 715.701,167.956 C 715.477,169.066 714.488,169.816 713.292,169.904 L 713.292,171.254 L 712.287,171.254 L 712.287,169.904 C 711.306,169.892 710.356,169.491 709.631,168.855 L 710.836,167.64 C 711.417,168.187 711.997,168.432 712.79,168.432 C 713.304,168.432 713.873,168.231 713.873,167.562 C 713.873,167.326 713.781,167.16 713.637,167.037 L 712.803,166.665 L 711.763,166.203 C 711.249,165.974 710.814,165.78 710.377,165.586 L 705.908,163.596 z M 712.701,158.77 C 710.715,158.77 709.036,159.47 707.663,160.872 C 707.29,161.248 706.964,161.643 706.688,162.054 L 710.034,163.543 C 710.337,162.615 711.218,162.052 712.288,161.989 L 712.288,160.639 L 713.293,160.639 L 713.293,161.989 C 713.985,162.022 714.744,162.212 715.493,162.792 L 714.343,163.974 C 713.918,163.673 713.383,163.461 712.847,163.461 C 712.411,163.461 711.798,163.595 711.798,164.14 C 711.798,164.224 711.825,164.298 711.876,164.363 L 712.995,164.861 L 713.753,165.199 C 714.237,165.416 714.699,165.621 715.158,165.825 L 719.642,167.822 C 719.789,167.234 719.864,166.609 719.864,165.948 C 719.864,163.949 719.163,162.258 717.762,160.873 C 716.374,159.47 714.687,158.77 712.701,158.77 z "
           id="path619" />
      </g>
    </g>
    <g
       id="g621"
       transform="translate(-353.38042,404.90647)">
      <g
         id="g623">
        <path
           d="M 670.072,11.544 L 670.072,14.294 L 669.853,14.294 C 669.783,13.766 669.658,13.346 669.476,13.033 C 669.294,12.72 669.037,12.472 668.702,12.288 C 668.367,12.104 668.02,12.013 667.662,12.013 C 667.257,12.013 666.922,12.137 666.657,12.385 C 666.392,12.633 666.26,12.914 666.26,13.231 C 666.26,13.473 666.344,13.693 666.512,13.892 C 666.753,14.185 667.327,14.575 668.236,15.063 C 668.976,15.46 669.483,15.766 669.755,15.979 C 670.027,16.191 670.237,16.442 670.384,16.73 C 670.531,17.019 670.605,17.321 670.605,17.636 C 670.605,18.237 670.372,18.754 669.905,19.189 C 669.438,19.624 668.838,19.841 668.104,19.841 C 667.874,19.841 667.657,19.823 667.454,19.788 C 667.333,19.768 667.082,19.696 666.701,19.573 C 666.32,19.449 666.08,19.387 665.978,19.387 C 665.88,19.387 665.803,19.416 665.747,19.475 C 665.691,19.534 665.648,19.655 665.621,19.84 L 665.4,19.84 L 665.4,17.121 L 665.619,17.121 C 665.721,17.691 665.857,18.117 666.028,18.4 C 666.2,18.683 666.463,18.918 666.815,19.105 C 667.168,19.293 667.555,19.386 667.976,19.386 C 668.464,19.386 668.849,19.257 669.132,18.998 C 669.414,18.74 669.556,18.435 669.556,18.082 C 669.556,17.887 669.502,17.689 669.396,17.489 C 669.29,17.289 669.124,17.103 668.899,16.931 C 668.748,16.813 668.332,16.566 667.652,16.189 C 666.972,15.812 666.489,15.51 666.201,15.284 C 665.913,15.058 665.694,14.807 665.546,14.534 C 665.397,14.261 665.322,13.961 665.322,13.633 C 665.322,13.063 665.541,12.572 665.977,12.16 C 666.415,11.748 666.97,11.542 667.646,11.542 C 668.068,11.542 668.514,11.645 668.987,11.85 C 669.205,11.947 669.359,11.996 669.449,11.996 C 669.551,11.996 669.634,11.966 669.698,11.906 C 669.762,11.845 669.814,11.725 669.853,11.543 L 670.072,11.543 L 670.072,11.544 z "
           id="path625" />
        <path
           d="M 676.339,14.294 L 676.339,17.56 C 676.339,18.172 676.354,18.546 676.383,18.682 C 676.412,18.819 676.46,18.914 676.525,18.969 C 676.59,19.024 676.665,19.051 676.752,19.051 C 676.873,19.051 677.011,19.018 677.164,18.951 L 677.246,19.17 L 675.636,19.826 L 675.371,19.826 L 675.371,18.705 C 674.911,19.198 674.56,19.508 674.318,19.635 C 674.076,19.762 673.821,19.825 673.552,19.825 C 673.251,19.825 672.99,19.738 672.771,19.564 C 672.55,19.391 672.398,19.168 672.312,18.894 C 672.226,18.62 672.183,18.234 672.183,17.735 L 672.183,15.34 C 672.183,15.086 672.156,14.909 672.101,14.812 C 672.046,14.714 671.965,14.638 671.859,14.585 C 671.752,14.532 671.557,14.508 671.277,14.512 L 671.277,14.293 L 673.152,14.293 L 673.152,17.898 C 673.152,18.4 673.239,18.73 673.413,18.886 C 673.586,19.043 673.796,19.121 674.042,19.121 C 674.21,19.121 674.4,19.068 674.613,18.962 C 674.826,18.856 675.078,18.654 675.371,18.356 L 675.371,15.31 C 675.371,15.003 675.314,14.795 675.201,14.687 C 675.088,14.579 674.853,14.521 674.496,14.513 L 674.496,14.294 L 676.339,14.294 L 676.339,14.294 z "
           id="path627" />
        <path
           d="M 679.23,15.281 C 679.619,14.89 679.849,14.665 679.919,14.607 C 680.094,14.459 680.282,14.343 680.485,14.261 C 680.687,14.179 680.887,14.138 681.086,14.138 C 681.421,14.138 681.709,14.236 681.95,14.431 C 682.191,14.626 682.353,14.91 682.434,15.281 C 682.838,14.812 683.178,14.504 683.456,14.358 C 683.733,14.212 684.019,14.138 684.313,14.138 C 684.598,14.138 684.852,14.211 685.074,14.358 C 685.295,14.504 685.47,14.744 685.599,15.076 C 685.685,15.303 685.728,15.658 685.728,16.142 L 685.728,18.451 C 685.728,18.786 685.753,19.016 685.803,19.141 C 685.841,19.227 685.912,19.3 686.017,19.36 C 686.121,19.421 686.29,19.451 686.525,19.451 L 686.525,19.67 L 683.884,19.67 L 683.884,19.451 L 683.996,19.451 C 684.228,19.451 684.41,19.406 684.54,19.316 C 684.631,19.254 684.695,19.155 684.735,19.018 C 684.751,18.952 684.758,18.763 684.758,18.451 L 684.758,16.142 C 684.758,15.704 684.705,15.396 684.599,15.216 C 684.446,14.966 684.201,14.841 683.863,14.841 C 683.655,14.841 683.446,14.893 683.236,14.996 C 683.026,15.1 682.772,15.293 682.473,15.574 L 682.461,15.638 L 682.492,15.89 L 682.492,18.45 C 682.492,18.817 682.513,19.045 682.554,19.135 C 682.595,19.224 682.672,19.299 682.785,19.36 C 682.899,19.421 683.093,19.451 683.367,19.451 L 683.367,19.67 L 680.648,19.67 L 680.648,19.451 C 680.945,19.451 681.15,19.416 681.261,19.346 C 681.372,19.276 681.45,19.171 681.493,19.031 C 681.513,18.965 681.522,18.772 681.522,18.452 L 681.522,16.144 C 681.522,15.707 681.458,15.393 681.329,15.201 C 681.156,14.952 680.915,14.827 680.606,14.827 C 680.394,14.827 680.184,14.884 679.977,14.997 C 679.652,15.169 679.401,15.362 679.225,15.576 L 679.225,18.452 C 679.225,18.803 679.249,19.031 679.298,19.137 C 679.347,19.242 679.419,19.321 679.516,19.373 C 679.612,19.426 679.806,19.452 680.1,19.452 L 680.1,19.671 L 677.459,19.671 L 677.459,19.452 C 677.699,19.452 677.867,19.426 677.963,19.373 C 678.059,19.32 678.131,19.237 678.182,19.122 C 678.231,19.007 678.256,18.784 678.256,18.452 L 678.256,16.405 C 678.256,15.817 678.238,15.437 678.203,15.265 C 678.176,15.137 678.132,15.048 678.073,14.999 C 678.014,14.95 677.933,14.926 677.832,14.926 C 677.723,14.926 677.591,14.955 677.437,15.014 L 677.349,14.795 L 678.971,14.139 L 679.224,14.139 L 679.224,15.281 L 679.23,15.281 z "
           id="path629" />
        <path
           d="M 688.564,15.281 C 688.953,14.89 689.183,14.665 689.253,14.607 C 689.428,14.459 689.616,14.343 689.819,14.261 C 690.021,14.179 690.221,14.138 690.42,14.138 C 690.755,14.138 691.043,14.236 691.284,14.431 C 691.525,14.626 691.687,14.91 691.768,15.281 C 692.172,14.812 692.512,14.504 692.79,14.358 C 693.067,14.212 693.353,14.138 693.647,14.138 C 693.932,14.138 694.186,14.211 694.408,14.358 C 694.629,14.504 694.804,14.744 694.933,15.076 C 695.019,15.303 695.062,15.658 695.062,16.142 L 695.062,18.451 C 695.062,18.786 695.087,19.016 695.137,19.141 C 695.175,19.227 695.246,19.3 695.351,19.36 C 695.455,19.421 695.624,19.451 695.859,19.451 L 695.859,19.67 L 693.218,19.67 L 693.218,19.451 L 693.33,19.451 C 693.562,19.451 693.744,19.406 693.874,19.316 C 693.965,19.254 694.029,19.155 694.069,19.018 C 694.085,18.952 694.092,18.763 694.092,18.451 L 694.092,16.142 C 694.092,15.704 694.039,15.396 693.933,15.216 C 693.78,14.966 693.535,14.841 693.197,14.841 C 692.989,14.841 692.78,14.893 692.57,14.996 C 692.36,15.1 692.106,15.293 691.807,15.574 L 691.795,15.638 L 691.826,15.89 L 691.826,18.45 C 691.826,18.817 691.847,19.045 691.888,19.135 C 691.929,19.224 692.006,19.299 692.119,19.36 C 692.233,19.421 692.427,19.451 692.701,19.451 L 692.701,19.67 L 689.982,19.67 L 689.982,19.451 C 690.279,19.451 690.484,19.416 690.595,19.346 C 690.706,19.276 690.784,19.171 690.827,19.031 C 690.847,18.965 690.856,18.772 690.856,18.452 L 690.856,16.144 C 690.856,15.707 690.792,15.393 690.663,15.201 C 690.49,14.952 690.249,14.827 689.94,14.827 C 689.728,14.827 689.518,14.884 689.311,14.997 C 688.986,15.169 688.735,15.362 688.559,15.576 L 688.559,18.452 C 688.559,18.803 688.583,19.031 688.632,19.137 C 688.681,19.242 688.753,19.321 688.85,19.373 C 688.946,19.426 689.14,19.452 689.434,19.452 L 689.434,19.671 L 686.793,19.671 L 686.793,19.452 C 687.033,19.452 687.201,19.426 687.297,19.373 C 687.393,19.32 687.465,19.237 687.516,19.122 C 687.565,19.007 687.59,18.784 687.59,18.452 L 687.59,16.405 C 687.59,15.817 687.572,15.437 687.537,15.265 C 687.51,15.137 687.466,15.048 687.407,14.999 C 687.348,14.95 687.267,14.926 687.166,14.926 C 687.057,14.926 686.925,14.955 686.771,15.014 L 686.683,14.795 L 688.305,14.139 L 688.558,14.139 L 688.558,15.281 L 688.564,15.281 z "
           id="path631" />
        <path
           d="M 697.21,16.326 C 697.206,17.116 697.399,17.735 697.791,18.184 C 698.182,18.633 698.642,18.857 699.169,18.857 C 699.521,18.857 699.827,18.762 700.087,18.571 C 700.347,18.38 700.566,18.049 700.741,17.575 L 700.929,17.692 C 700.847,18.235 700.609,18.727 700.213,19.166 C 699.817,19.605 699.323,19.825 698.729,19.825 C 698.083,19.825 697.531,19.575 697.072,19.073 C 696.612,18.572 696.383,17.898 696.383,17.052 C 696.383,16.135 696.618,15.42 697.09,14.907 C 697.561,14.394 698.152,14.137 698.864,14.137 C 699.467,14.137 699.962,14.335 700.348,14.732 C 700.736,15.129 700.929,15.66 700.929,16.324 L 697.21,16.324 L 697.21,16.326 z M 697.21,15.982 L 699.71,15.982 C 699.69,15.64 699.649,15.399 699.586,15.259 C 699.487,15.042 699.341,14.871 699.147,14.746 C 698.953,14.622 698.75,14.559 698.537,14.559 C 698.211,14.559 697.919,14.684 697.662,14.935 C 697.404,15.187 697.253,15.535 697.21,15.982 z "
           id="path633" />
        <path
           d="M 703.208,14.138 L 703.208,15.353 C 703.657,14.543 704.117,14.138 704.59,14.138 C 704.804,14.138 704.982,14.204 705.122,14.336 C 705.262,14.468 705.333,14.62 705.333,14.793 C 705.333,14.947 705.282,15.077 705.181,15.183 C 705.079,15.289 704.958,15.342 704.818,15.342 C 704.68,15.342 704.527,15.275 704.358,15.139 C 704.188,15.004 704.062,14.936 703.98,14.936 C 703.91,14.936 703.834,14.975 703.752,15.053 C 703.576,15.214 703.396,15.478 703.208,15.846 L 703.208,18.42 C 703.208,18.716 703.245,18.94 703.321,19.091 C 703.373,19.196 703.464,19.282 703.594,19.35 C 703.725,19.418 703.914,19.452 704.16,19.452 L 704.16,19.671 L 701.394,19.671 L 701.394,19.452 C 701.667,19.452 701.871,19.409 702.003,19.323 C 702.101,19.26 702.169,19.16 702.208,19.023 C 702.228,18.957 702.237,18.767 702.237,18.453 L 702.237,16.375 C 702.237,15.755 702.224,15.387 702.199,15.269 C 702.174,15.151 702.126,15.064 702.057,15.01 C 701.989,14.955 701.903,14.928 701.801,14.928 C 701.68,14.928 701.542,14.957 701.389,15.016 L 701.33,14.797 L 702.958,14.141 L 703.208,14.141 L 703.208,14.138 z "
           id="path635" />
        <path
           d="M 713.791,15.602 C 714.342,15.72 714.754,15.908 715.027,16.166 C 715.406,16.527 715.595,16.968 715.595,17.489 C 715.595,17.885 715.47,18.264 715.22,18.626 C 714.97,18.989 714.628,19.253 714.193,19.419 C 713.758,19.586 713.094,19.669 712.201,19.669 L 708.455,19.669 L 708.455,19.45 L 708.752,19.45 C 709.082,19.45 709.318,19.345 709.462,19.134 C 709.551,18.998 709.596,18.707 709.596,18.262 L 709.596,13.121 C 709.596,12.63 709.539,12.32 709.427,12.191 C 709.276,12.02 709.051,11.934 708.752,11.934 L 708.455,11.934 L 708.455,11.715 L 711.882,11.715 C 712.522,11.715 713.033,11.762 713.42,11.856 C 714.004,11.997 714.451,12.245 714.759,12.602 C 715.067,12.958 715.221,13.37 715.221,13.833 C 715.221,14.231 715.1,14.587 714.86,14.901 C 714.617,15.216 714.261,15.45 713.791,15.602 z M 710.72,15.275 C 710.865,15.302 711.03,15.323 711.215,15.337 C 711.4,15.351 711.605,15.358 711.827,15.358 C 712.397,15.358 712.826,15.296 713.113,15.174 C 713.4,15.051 713.62,14.863 713.772,14.611 C 713.924,14.359 714.001,14.082 714.001,13.783 C 714.001,13.32 713.812,12.925 713.433,12.598 C 713.054,12.271 712.501,12.108 711.775,12.108 C 711.384,12.108 711.033,12.151 710.72,12.236 L 710.72,15.275 z M 710.72,19.089 C 711.175,19.194 711.624,19.247 712.068,19.247 C 712.778,19.247 713.32,19.088 713.693,18.769 C 714.065,18.451 714.252,18.057 714.252,17.588 C 714.252,17.279 714.165,16.983 713.992,16.697 C 713.818,16.412 713.543,16.187 713.164,16.023 C 712.785,15.859 712.316,15.777 711.758,15.777 C 711.516,15.777 711.309,15.781 711.137,15.789 C 710.965,15.797 710.826,15.81 710.721,15.83 L 710.721,19.089 L 710.72,19.089 z "
           id="path637" />
        <path
           d="M 718.474,11.326 L 718.474,18.451 C 718.474,18.786 718.498,19.009 718.548,19.118 C 718.597,19.227 718.673,19.309 718.776,19.366 C 718.879,19.423 719.07,19.451 719.349,19.451 L 719.349,19.67 L 716.708,19.67 L 716.708,19.451 C 716.956,19.451 717.125,19.426 717.216,19.375 C 717.306,19.324 717.377,19.241 717.428,19.124 C 717.48,19.007 717.505,18.783 717.505,18.451 L 717.505,13.592 C 717.505,12.983 717.491,12.609 717.464,12.469 C 717.437,12.33 717.393,12.234 717.332,12.183 C 717.271,12.132 717.194,12.107 717.101,12.107 C 716.999,12.107 716.871,12.138 716.714,12.201 L 716.614,11.982 L 718.21,11.326 L 718.474,11.326 z "
           id="path639" />
        <path
           d="M 722.611,14.138 C 723.424,14.138 724.078,14.447 724.571,15.064 C 724.99,15.591 725.199,16.196 725.199,16.879 C 725.199,17.359 725.084,17.846 724.853,18.337 C 724.622,18.829 724.304,19.2 723.899,19.45 C 723.494,19.7 723.043,19.825 722.546,19.825 C 721.735,19.825 721.093,19.503 720.615,18.858 C 720.212,18.316 720.011,17.707 720.011,17.031 C 720.011,16.539 720.133,16.05 720.378,15.564 C 720.622,15.078 720.944,14.719 721.343,14.486 C 721.742,14.253 722.165,14.138 722.611,14.138 z M 722.429,14.513 C 722.222,14.513 722.014,14.575 721.805,14.698 C 721.596,14.821 721.427,15.037 721.298,15.345 C 721.169,15.653 721.105,16.05 721.105,16.533 C 721.105,17.314 721.26,17.988 721.571,18.554 C 721.882,19.12 722.291,19.403 722.799,19.403 C 723.178,19.403 723.49,19.247 723.737,18.934 C 723.983,18.622 724.106,18.085 724.106,17.324 C 724.106,16.371 723.901,15.622 723.491,15.075 C 723.212,14.701 722.859,14.513 722.429,14.513 z "
           id="path641" />
        <path
           d="M 730.558,17.611 C 730.412,18.327 730.128,18.876 729.704,19.256 C 729.279,19.636 728.81,19.826 728.296,19.826 C 727.684,19.826 727.15,19.57 726.694,19.058 C 726.238,18.547 726.01,17.856 726.01,16.985 C 726.01,16.142 726.262,15.457 726.766,14.929 C 727.271,14.402 727.875,14.138 728.582,14.138 C 729.111,14.138 729.547,14.278 729.889,14.556 C 730.23,14.834 730.401,15.123 730.401,15.423 C 730.401,15.57 730.353,15.691 730.256,15.782 C 730.16,15.873 730.026,15.919 729.854,15.919 C 729.622,15.919 729.45,15.844 729.337,15.694 C 729.265,15.611 729.218,15.454 729.196,15.221 C 729.174,14.988 729.095,14.811 728.958,14.689 C 728.82,14.571 728.631,14.512 728.388,14.512 C 727.995,14.512 727.679,14.657 727.44,14.947 C 727.123,15.33 726.963,15.837 726.963,16.467 C 726.963,17.109 727.121,17.675 727.438,18.167 C 727.753,18.658 728.18,18.903 728.718,18.903 C 729.103,18.903 729.448,18.774 729.755,18.517 C 729.971,18.336 730.181,18.007 730.385,17.528 L 730.558,17.611 z "
           id="path643" />
        <path
           d="M 732.869,11.326 L 732.869,16.675 L 734.243,15.426 C 734.533,15.16 734.701,14.992 734.748,14.922 C 734.779,14.875 734.795,14.828 734.795,14.781 C 734.795,14.703 734.763,14.635 734.698,14.579 C 734.633,14.523 734.527,14.49 734.379,14.482 L 734.379,14.294 L 736.713,14.294 L 736.713,14.482 C 736.395,14.49 736.129,14.54 735.916,14.63 C 735.705,14.722 735.473,14.884 735.22,15.118 L 733.826,16.383 L 735.215,18.125 C 735.6,18.604 735.855,18.91 735.979,19.045 C 736.168,19.224 736.334,19.339 736.477,19.393 C 736.577,19.431 736.748,19.45 736.995,19.45 L 736.995,19.669 L 734.38,19.669 L 734.38,19.45 C 734.528,19.446 734.629,19.424 734.682,19.383 C 734.735,19.342 734.761,19.285 734.761,19.212 C 734.761,19.123 734.683,18.98 734.527,18.782 L 732.871,16.674 L 732.871,18.45 C 732.871,18.799 732.895,19.028 732.945,19.138 C 732.994,19.247 733.064,19.326 733.154,19.373 C 733.245,19.42 733.442,19.445 733.746,19.449 L 733.746,19.668 L 731.012,19.668 L 731.012,19.449 C 731.285,19.449 731.491,19.416 731.627,19.351 C 731.709,19.309 731.772,19.243 731.815,19.154 C 731.874,19.027 731.903,18.808 731.903,18.496 L 731.903,13.59 C 731.903,12.976 731.889,12.6 731.862,12.463 C 731.835,12.326 731.79,12.231 731.727,12.179 C 731.665,12.126 731.582,12.1 731.481,12.1 C 731.399,12.1 731.276,12.133 731.112,12.2 L 731.012,11.981 L 732.602,11.325 L 732.869,11.325 L 732.869,11.326 z "
           id="path645" />
        <path
           d="M 738.759,15.233 C 739.279,14.503 739.838,14.138 740.439,14.138 C 740.99,14.138 741.469,14.373 741.878,14.844 C 742.288,15.315 742.493,15.958 742.493,16.774 C 742.493,17.727 742.177,18.494 741.544,19.076 C 741.001,19.576 740.397,19.826 739.729,19.826 C 739.417,19.826 739.099,19.77 738.777,19.658 C 738.455,19.546 738.127,19.377 737.791,19.153 L 737.791,13.592 C 737.791,12.985 737.776,12.611 737.747,12.47 C 737.718,12.33 737.672,12.235 737.609,12.184 C 737.546,12.133 737.468,12.108 737.376,12.108 C 737.267,12.108 737.13,12.139 736.967,12.202 L 736.885,11.983 L 738.496,11.327 L 738.76,11.327 L 738.76,15.233 L 738.759,15.233 z M 738.759,15.608 L 738.759,18.813 C 738.958,19.008 739.163,19.155 739.376,19.254 C 739.588,19.354 739.806,19.403 740.027,19.403 C 740.381,19.403 740.712,19.208 741.018,18.818 C 741.324,18.428 741.477,17.861 741.477,17.116 C 741.477,16.43 741.324,15.903 741.018,15.534 C 740.711,15.166 740.364,14.981 739.974,14.981 C 739.768,14.981 739.561,15.034 739.355,15.139 C 739.2,15.218 739.001,15.374 738.759,15.608 z "
           id="path647" />
        <path
           d="M 747.994,14.294 L 747.994,17.56 C 747.994,18.172 748.009,18.546 748.038,18.682 C 748.067,18.819 748.115,18.914 748.18,18.969 C 748.245,19.024 748.32,19.051 748.407,19.051 C 748.528,19.051 748.666,19.018 748.819,18.951 L 748.901,19.17 L 747.291,19.826 L 747.026,19.826 L 747.026,18.705 C 746.566,19.198 746.215,19.508 745.973,19.635 C 745.731,19.762 745.476,19.825 745.207,19.825 C 744.906,19.825 744.645,19.738 744.426,19.564 C 744.205,19.391 744.053,19.168 743.967,18.894 C 743.881,18.62 743.838,18.234 743.838,17.735 L 743.838,15.34 C 743.838,15.086 743.811,14.909 743.756,14.812 C 743.701,14.714 743.62,14.638 743.514,14.585 C 743.407,14.532 743.212,14.508 742.932,14.512 L 742.932,14.293 L 744.807,14.293 L 744.807,17.898 C 744.807,18.4 744.894,18.73 745.068,18.886 C 745.241,19.043 745.451,19.121 745.697,19.121 C 745.865,19.121 746.055,19.068 746.268,18.962 C 746.481,18.856 746.733,18.654 747.026,18.356 L 747.026,15.31 C 747.026,15.003 746.969,14.795 746.856,14.687 C 746.743,14.579 746.508,14.521 746.151,14.513 L 746.151,14.294 L 747.994,14.294 L 747.994,14.294 z "
           id="path649" />
        <path
           d="M 752.759,14.138 L 752.759,15.966 L 752.54,15.966 C 752.394,15.391 752.208,15 751.979,14.793 C 751.75,14.586 751.46,14.482 751.108,14.482 C 750.84,14.482 750.624,14.554 750.459,14.699 C 750.294,14.844 750.212,15.004 750.212,15.179 C 750.212,15.398 750.273,15.586 750.393,15.742 C 750.509,15.902 750.753,16.072 751.123,16.252 L 751.977,16.669 C 752.768,17.056 753.165,17.565 753.165,18.198 C 753.165,18.686 752.982,19.079 752.617,19.378 C 752.253,19.677 751.844,19.826 751.392,19.826 C 751.067,19.826 750.697,19.771 750.28,19.662 C 750.152,19.626 750.048,19.607 749.968,19.607 C 749.878,19.607 749.809,19.654 749.759,19.748 L 749.54,19.748 L 749.54,17.826 L 749.759,17.826 C 749.866,18.374 750.071,18.787 750.374,19.065 C 750.677,19.343 751.017,19.482 751.393,19.482 C 751.658,19.482 751.873,19.403 752.04,19.245 C 752.206,19.087 752.29,18.896 752.29,18.674 C 752.29,18.404 752.196,18.177 752.011,17.994 C 751.826,17.811 751.449,17.578 750.883,17.297 C 750.318,17.016 749.947,16.762 749.772,16.535 C 749.597,16.312 749.509,16.031 749.509,15.691 C 749.509,15.25 749.658,14.88 749.958,14.584 C 750.257,14.287 750.645,14.139 751.12,14.139 C 751.329,14.139 751.582,14.183 751.88,14.271 C 752.076,14.329 752.208,14.357 752.274,14.357 C 752.336,14.357 752.384,14.343 752.419,14.317 C 752.454,14.29 752.494,14.231 752.541,14.138 L 752.759,14.138 L 752.759,14.138 z "
           id="path651" />
        <path
           d="M 755.523,12.529 L 755.523,14.295 L 756.777,14.295 L 756.777,14.701 L 755.523,14.701 L 755.523,18.189 C 755.523,18.538 755.573,18.772 755.672,18.894 C 755.771,19.015 755.899,19.076 756.055,19.076 C 756.184,19.076 756.308,19.036 756.429,18.957 C 756.55,18.878 756.644,18.761 756.71,18.607 L 756.944,18.607 C 756.807,18.991 756.613,19.279 756.362,19.473 C 756.112,19.667 755.853,19.764 755.587,19.764 C 755.407,19.764 755.232,19.714 755.059,19.614 C 754.887,19.514 754.759,19.371 754.677,19.185 C 754.595,18.999 754.554,18.712 754.554,18.324 L 754.554,14.702 L 753.71,14.702 L 753.71,14.511 C 753.923,14.425 754.142,14.28 754.364,14.075 C 754.588,13.87 754.787,13.627 754.962,13.346 C 755.052,13.198 755.176,12.926 755.335,12.531 L 755.523,12.531 L 755.523,12.529 z "
           id="path653" />
        <path
           d="M 758.201,16.326 C 758.197,17.116 758.39,17.735 758.782,18.184 C 759.173,18.633 759.633,18.857 760.16,18.857 C 760.512,18.857 760.818,18.762 761.078,18.571 C 761.338,18.38 761.557,18.049 761.732,17.575 L 761.92,17.692 C 761.838,18.235 761.6,18.727 761.204,19.166 C 760.808,19.605 760.314,19.825 759.72,19.825 C 759.074,19.825 758.522,19.575 758.063,19.073 C 757.603,18.572 757.374,17.898 757.374,17.052 C 757.374,16.135 757.609,15.42 758.081,14.907 C 758.552,14.394 759.143,14.137 759.855,14.137 C 760.458,14.137 760.953,14.335 761.339,14.732 C 761.727,15.129 761.92,15.66 761.92,16.324 L 758.201,16.324 L 758.201,16.326 z M 758.201,15.982 L 760.701,15.982 C 760.681,15.64 760.64,15.399 760.577,15.259 C 760.478,15.042 760.332,14.871 760.138,14.746 C 759.944,14.622 759.741,14.559 759.528,14.559 C 759.202,14.559 758.91,14.684 758.653,14.935 C 758.394,15.187 758.244,15.535 758.201,15.982 z "
           id="path655" />
        <path
           d="M 764.199,14.138 L 764.199,15.353 C 764.648,14.543 765.108,14.138 765.581,14.138 C 765.795,14.138 765.973,14.204 766.113,14.336 C 766.253,14.468 766.324,14.62 766.324,14.793 C 766.324,14.947 766.273,15.077 766.172,15.183 C 766.07,15.289 765.949,15.342 765.809,15.342 C 765.671,15.342 765.518,15.275 765.349,15.139 C 765.179,15.004 765.053,14.936 764.971,14.936 C 764.901,14.936 764.825,14.975 764.743,15.053 C 764.567,15.214 764.387,15.478 764.199,15.846 L 764.199,18.42 C 764.199,18.716 764.236,18.94 764.312,19.091 C 764.364,19.196 764.455,19.282 764.585,19.35 C 764.716,19.418 764.905,19.452 765.151,19.452 L 765.151,19.671 L 762.385,19.671 L 762.385,19.452 C 762.658,19.452 762.862,19.409 762.994,19.323 C 763.092,19.26 763.16,19.16 763.199,19.023 C 763.219,18.957 763.228,18.767 763.228,18.453 L 763.228,16.375 C 763.228,15.755 763.215,15.387 763.19,15.269 C 763.165,15.151 763.117,15.064 763.048,15.01 C 762.98,14.955 762.894,14.928 762.792,14.928 C 762.671,14.928 762.533,14.957 762.38,15.016 L 762.321,14.797 L 763.949,14.141 L 764.199,14.141 L 764.199,14.138 z "
           id="path657" />
        <path
           d="M 767.072,18.529 C 767.256,18.529 767.409,18.592 767.533,18.719 C 767.658,18.845 767.721,18.998 767.721,19.177 C 767.721,19.356 767.658,19.509 767.532,19.636 C 767.405,19.762 767.253,19.825 767.073,19.825 C 766.893,19.825 766.741,19.762 766.614,19.636 C 766.488,19.509 766.425,19.356 766.425,19.177 C 766.425,18.994 766.488,18.84 766.614,18.716 C 766.74,18.591 766.892,18.529 767.072,18.529 z "
           id="path659" />
        <path
           d="M 670.072,40.344 L 670.072,43.094 L 669.853,43.094 C 669.783,42.566 669.658,42.146 669.476,41.833 C 669.294,41.52 669.037,41.272 668.702,41.088 C 668.367,40.904 668.02,40.813 667.662,40.813 C 667.257,40.813 666.922,40.937 666.657,41.185 C 666.392,41.433 666.26,41.714 666.26,42.031 C 666.26,42.273 666.344,42.493 666.512,42.692 C 666.753,42.985 667.327,43.375 668.236,43.863 C 668.976,44.26 669.483,44.566 669.755,44.779 C 670.027,44.991 670.237,45.242 670.384,45.53 C 670.531,45.819 670.605,46.121 670.605,46.436 C 670.605,47.037 670.372,47.554 669.905,47.989 C 669.438,48.424 668.838,48.641 668.104,48.641 C 667.874,48.641 667.657,48.623 667.454,48.588 C 667.333,48.568 667.082,48.496 666.701,48.373 C 666.32,48.249 666.08,48.187 665.978,48.187 C 665.88,48.187 665.803,48.216 665.747,48.275 C 665.691,48.334 665.648,48.455 665.621,48.64 L 665.4,48.64 L 665.4,45.921 L 665.619,45.921 C 665.721,46.491 665.857,46.917 666.028,47.2 C 666.2,47.483 666.463,47.718 666.815,47.905 C 667.168,48.093 667.555,48.186 667.976,48.186 C 668.464,48.186 668.849,48.057 669.132,47.798 C 669.414,47.54 669.556,47.235 669.556,46.882 C 669.556,46.687 669.502,46.489 669.396,46.289 C 669.29,46.089 669.124,45.903 668.899,45.731 C 668.748,45.613 668.332,45.366 667.652,44.989 C 666.972,44.612 666.489,44.31 666.201,44.084 C 665.913,43.858 665.694,43.607 665.546,43.334 C 665.397,43.061 665.322,42.761 665.322,42.433 C 665.322,41.863 665.541,41.372 665.977,40.96 C 666.415,40.548 666.97,40.342 667.646,40.342 C 668.068,40.342 668.514,40.445 668.987,40.65 C 669.205,40.747 669.359,40.796 669.449,40.796 C 669.551,40.796 669.634,40.766 669.698,40.706 C 669.762,40.645 669.814,40.525 669.853,40.343 L 670.072,40.343 L 670.072,40.344 z "
           id="path661" />
        <path
           d="M 676.23,46.411 C 676.084,47.127 675.8,47.676 675.376,48.056 C 674.951,48.436 674.482,48.626 673.968,48.626 C 673.356,48.626 672.822,48.37 672.366,47.858 C 671.91,47.347 671.682,46.656 671.682,45.785 C 671.682,44.942 671.934,44.257 672.438,43.729 C 672.943,43.202 673.547,42.938 674.254,42.938 C 674.783,42.938 675.219,43.078 675.561,43.356 C 675.902,43.634 676.073,43.923 676.073,44.223 C 676.073,44.37 676.025,44.491 675.928,44.582 C 675.832,44.673 675.698,44.719 675.526,44.719 C 675.294,44.719 675.122,44.644 675.009,44.494 C 674.937,44.411 674.89,44.254 674.868,44.021 C 674.846,43.788 674.767,43.611 674.63,43.489 C 674.492,43.371 674.303,43.312 674.06,43.312 C 673.667,43.312 673.351,43.457 673.112,43.747 C 672.795,44.13 672.635,44.637 672.635,45.267 C 672.635,45.909 672.793,46.475 673.11,46.967 C 673.425,47.458 673.852,47.703 674.39,47.703 C 674.775,47.703 675.12,47.574 675.427,47.317 C 675.643,47.136 675.853,46.807 676.057,46.328 L 676.23,46.411 z "
           id="path663" />
        <path
           d="M 677.869,45.125 C 677.865,45.915 678.058,46.534 678.45,46.983 C 678.841,47.432 679.301,47.656 679.828,47.656 C 680.18,47.656 680.486,47.561 680.746,47.37 C 681.006,47.179 681.225,46.848 681.4,46.374 L 681.588,46.491 C 681.506,47.034 681.268,47.526 680.872,47.965 C 680.476,48.404 679.982,48.624 679.388,48.624 C 678.742,48.624 678.19,48.374 677.731,47.872 C 677.271,47.371 677.042,46.697 677.042,45.851 C 677.042,44.934 677.277,44.219 677.749,43.706 C 678.22,43.193 678.811,42.936 679.523,42.936 C 680.126,42.936 680.621,43.134 681.007,43.531 C 681.395,43.928 681.588,44.459 681.588,45.123 L 677.869,45.123 L 677.869,45.125 z M 677.869,44.782 L 680.369,44.782 C 680.349,44.44 680.308,44.199 680.245,44.059 C 680.146,43.842 680,43.671 679.806,43.546 C 679.612,43.422 679.409,43.359 679.196,43.359 C 678.87,43.359 678.578,43.484 678.321,43.735 C 678.062,43.986 677.912,44.335 677.869,44.782 z "
           id="path665" />
        <path
           d="M 683.851,44.059 C 684.48,43.312 685.08,42.938 685.65,42.938 C 685.943,42.938 686.195,43.011 686.406,43.158 C 686.617,43.305 686.785,43.546 686.91,43.882 C 686.996,44.116 687.039,44.476 687.039,44.96 L 687.039,47.251 C 687.039,47.59 687.066,47.82 687.122,47.941 C 687.165,48.039 687.235,48.114 687.332,48.169 C 687.429,48.224 687.607,48.251 687.867,48.251 L 687.867,48.47 L 685.195,48.47 L 685.195,48.25 L 685.307,48.25 C 685.559,48.25 685.736,48.212 685.836,48.136 C 685.937,48.06 686.006,47.948 686.046,47.8 C 686.062,47.741 686.069,47.558 686.069,47.25 L 686.069,45.042 C 686.069,44.551 686.006,44.195 685.879,43.974 C 685.752,43.753 685.538,43.641 685.238,43.641 C 684.773,43.641 684.311,43.896 683.85,44.407 L 683.85,47.251 C 683.85,47.614 683.871,47.838 683.914,47.924 C 683.969,48.037 684.044,48.119 684.141,48.172 C 684.237,48.225 684.431,48.251 684.725,48.251 L 684.725,48.47 L 682.084,48.47 L 682.084,48.25 L 682.199,48.25 C 682.466,48.25 682.646,48.181 682.74,48.042 C 682.834,47.903 682.881,47.639 682.881,47.25 L 682.881,45.266 C 682.881,44.621 682.866,44.229 682.837,44.088 C 682.807,43.947 682.762,43.852 682.701,43.801 C 682.64,43.75 682.558,43.725 682.457,43.725 C 682.348,43.725 682.216,43.754 682.062,43.813 L 681.974,43.594 L 683.596,42.938 L 683.849,42.938 L 683.849,44.059 L 683.851,44.059 z "
           id="path667" />
        <path
           d="M 689.195,45.125 C 689.191,45.915 689.384,46.534 689.776,46.983 C 690.167,47.432 690.627,47.656 691.154,47.656 C 691.506,47.656 691.812,47.561 692.072,47.37 C 692.332,47.179 692.551,46.848 692.726,46.374 L 692.914,46.491 C 692.832,47.034 692.594,47.526 692.198,47.965 C 691.802,48.404 691.308,48.624 690.714,48.624 C 690.068,48.624 689.516,48.374 689.057,47.872 C 688.597,47.371 688.368,46.697 688.368,45.851 C 688.368,44.934 688.603,44.219 689.075,43.706 C 689.546,43.193 690.137,42.936 690.849,42.936 C 691.452,42.936 691.947,43.134 692.333,43.531 C 692.721,43.928 692.914,44.459 692.914,45.123 L 689.195,45.123 L 689.195,45.125 z M 689.195,44.782 L 691.695,44.782 C 691.675,44.44 691.634,44.199 691.571,44.059 C 691.472,43.842 691.326,43.671 691.132,43.546 C 690.938,43.422 690.735,43.359 690.522,43.359 C 690.196,43.359 689.904,43.484 689.647,43.735 C 689.388,43.986 689.238,44.335 689.195,44.782 z "
           id="path669" />
        <path
           d="M 697.646,41.297 L 699.578,40.359 L 699.771,40.359 L 699.771,47.062 C 699.771,47.509 699.79,47.787 699.827,47.897 C 699.864,48.006 699.941,48.091 700.057,48.15 C 700.174,48.209 700.411,48.242 700.771,48.25 L 700.771,48.469 L 697.802,48.469 L 697.802,48.25 C 698.169,48.242 698.407,48.21 698.515,48.153 C 698.623,48.096 698.697,48.02 698.739,47.924 C 698.781,47.828 698.802,47.541 698.802,47.063 L 698.802,42.782 C 698.802,42.203 698.782,41.832 698.743,41.667 C 698.716,41.542 698.666,41.45 698.595,41.392 C 698.523,41.333 698.436,41.304 698.335,41.304 C 698.19,41.304 697.99,41.365 697.733,41.486 L 697.646,41.297 z "
           id="path671" />
        <path
           d="M 703.732,47.329 C 703.916,47.329 704.069,47.392 704.193,47.519 C 704.318,47.645 704.381,47.798 704.381,47.977 C 704.381,48.156 704.318,48.309 704.192,48.436 C 704.065,48.562 703.913,48.625 703.733,48.625 C 703.553,48.625 703.401,48.562 703.274,48.436 C 703.148,48.309 703.085,48.156 703.085,47.977 C 703.085,47.794 703.148,47.64 703.274,47.516 C 703.4,47.391 703.552,47.329 703.732,47.329 z "
           id="path673" />
        <path
           d="M 667.103,55.354 L 667.103,58.479 L 668.822,58.479 C 669.275,58.479 669.579,58.412 669.732,58.276 C 669.935,58.099 670.048,57.786 670.072,57.338 L 670.291,57.338 L 670.291,60.104 L 670.072,60.104 C 670.017,59.716 669.963,59.467 669.908,59.357 C 669.838,59.22 669.721,59.112 669.561,59.034 C 669.401,58.956 669.154,58.916 668.822,58.916 L 667.103,58.916 L 667.103,61.54 C 667.103,61.892 667.119,62.107 667.15,62.183 C 667.18,62.259 667.235,62.32 667.312,62.365 C 667.39,62.41 667.538,62.432 667.754,62.432 L 669.092,62.432 C 669.538,62.432 669.862,62.401 670.064,62.338 C 670.265,62.276 670.46,62.151 670.646,61.968 C 670.886,61.725 671.132,61.359 671.384,60.869 L 671.634,60.869 L 670.95,62.869 L 664.837,62.869 L 664.837,62.65 L 665.119,62.65 C 665.307,62.65 665.485,62.605 665.654,62.515 C 665.779,62.453 665.864,62.358 665.91,62.233 C 665.955,62.107 665.977,61.851 665.977,61.462 L 665.977,56.306 C 665.977,55.8 665.926,55.488 665.825,55.369 C 665.683,55.212 665.448,55.134 665.119,55.134 L 664.837,55.134 L 664.837,54.915 L 670.962,54.915 L 671.04,56.665 L 670.806,56.665 C 670.724,56.245 670.634,55.957 670.535,55.8 C 670.436,55.643 670.289,55.524 670.096,55.441 C 669.94,55.382 669.666,55.353 669.274,55.353 L 667.103,55.353 L 667.103,55.354 z "
           id="path675" />
        <path
           d="M 672.089,57.495 L 674.589,57.495 L 674.589,57.714 C 674.427,57.714 674.314,57.742 674.249,57.797 C 674.184,57.853 674.151,57.926 674.151,58.017 C 674.151,58.113 674.221,58.259 674.36,58.458 C 674.404,58.52 674.469,58.617 674.555,58.748 L 674.942,59.351 L 675.375,58.737 C 675.656,58.355 675.796,58.113 675.792,58.01 C 675.792,57.927 675.759,57.857 675.693,57.8 C 675.628,57.743 675.522,57.714 675.376,57.714 L 675.376,57.495 L 677.198,57.495 L 677.198,57.714 C 677.004,57.726 676.835,57.778 676.692,57.871 C 676.499,58.004 676.237,58.292 675.909,58.735 L 675.173,59.72 L 676.511,61.65 C 676.839,62.125 677.074,62.409 677.215,62.505 C 677.356,62.601 677.538,62.654 677.761,62.666 L 677.761,62.869 L 675.234,62.869 L 675.234,62.666 C 675.406,62.666 675.541,62.626 675.636,62.547 C 675.709,62.491 675.745,62.418 675.745,62.327 C 675.745,62.235 675.621,62.006 675.374,61.637 L 674.591,60.498 L 673.73,61.65 C 673.469,62.006 673.339,62.218 673.339,62.285 C 673.339,62.379 673.383,62.464 673.472,62.541 C 673.56,62.617 673.693,62.659 673.87,62.667 L 673.87,62.87 L 672.12,62.87 L 672.12,62.667 C 672.259,62.647 672.382,62.599 672.486,62.52 C 672.632,62.407 672.881,62.117 673.229,61.65 L 674.344,60.136 L 673.338,58.671 C 673.053,58.248 672.832,57.983 672.676,57.875 C 672.52,57.767 672.323,57.713 672.088,57.713 L 672.088,57.495 L 672.089,57.495 z "
           id="path677" />
        <path
           d="M 679.855,55.729 L 679.855,57.495 L 681.109,57.495 L 681.109,57.901 L 679.855,57.901 L 679.855,61.389 C 679.855,61.738 679.905,61.972 680.004,62.094 C 680.103,62.215 680.231,62.276 680.387,62.276 C 680.516,62.276 680.64,62.236 680.761,62.157 C 680.882,62.078 680.976,61.961 681.042,61.807 L 681.276,61.807 C 681.139,62.191 680.945,62.479 680.694,62.673 C 680.444,62.867 680.185,62.964 679.919,62.964 C 679.739,62.964 679.564,62.914 679.391,62.814 C 679.219,62.714 679.091,62.571 679.009,62.385 C 678.927,62.199 678.886,61.912 678.886,61.524 L 678.886,57.902 L 678.042,57.902 L 678.042,57.711 C 678.255,57.625 678.474,57.48 678.696,57.275 C 678.92,57.07 679.119,56.827 679.294,56.546 C 679.384,56.398 679.508,56.126 679.667,55.731 L 679.855,55.731 L 679.855,55.729 z "
           id="path679" />
        <path
           d="M 682.533,59.526 C 682.529,60.316 682.722,60.935 683.114,61.384 C 683.505,61.833 683.965,62.057 684.492,62.057 C 684.844,62.057 685.15,61.962 685.41,61.771 C 685.67,61.58 685.889,61.249 686.064,60.775 L 686.252,60.892 C 686.17,61.435 685.932,61.927 685.536,62.366 C 685.14,62.805 684.646,63.025 684.052,63.025 C 683.406,63.025 682.854,62.775 682.395,62.273 C 681.935,61.772 681.706,61.098 681.706,60.252 C 681.706,59.335 681.941,58.62 682.413,58.107 C 682.884,57.594 683.475,57.337 684.187,57.337 C 684.79,57.337 685.285,57.535 685.671,57.932 C 686.059,58.329 686.252,58.86 686.252,59.524 L 682.533,59.524 L 682.533,59.526 z M 682.533,59.182 L 685.033,59.182 C 685.013,58.84 684.972,58.599 684.909,58.459 C 684.81,58.242 684.664,58.071 684.47,57.946 C 684.276,57.822 684.073,57.759 683.86,57.759 C 683.534,57.759 683.242,57.884 682.985,58.135 C 682.726,58.387 682.576,58.735 682.533,59.182 z "
           id="path681" />
        <path
           d="M 688.531,57.338 L 688.531,58.553 C 688.98,57.743 689.44,57.338 689.913,57.338 C 690.127,57.338 690.305,57.404 690.445,57.536 C 690.585,57.668 690.656,57.82 690.656,57.993 C 690.656,58.147 690.605,58.277 690.504,58.383 C 690.402,58.489 690.281,58.542 690.141,58.542 C 690.003,58.542 689.85,58.475 689.681,58.339 C 689.511,58.204 689.385,58.136 689.303,58.136 C 689.233,58.136 689.157,58.175 689.075,58.253 C 688.899,58.414 688.719,58.678 688.531,59.046 L 688.531,61.62 C 688.531,61.916 688.568,62.14 688.644,62.291 C 688.696,62.396 688.787,62.482 688.917,62.55 C 689.048,62.618 689.237,62.652 689.483,62.652 L 689.483,62.871 L 686.717,62.871 L 686.717,62.652 C 686.99,62.652 687.194,62.609 687.326,62.523 C 687.424,62.46 687.492,62.36 687.531,62.223 C 687.551,62.157 687.56,61.967 687.56,61.653 L 687.56,59.575 C 687.56,58.955 687.547,58.587 687.522,58.469 C 687.497,58.351 687.449,58.264 687.38,58.21 C 687.312,58.155 687.226,58.128 687.124,58.128 C 687.003,58.128 686.865,58.157 686.712,58.216 L 686.653,57.997 L 688.281,57.341 L 688.531,57.341 L 688.531,57.338 z "
           id="path683" />
        <path
           d="M 692.792,57.338 L 692.792,61.65 C 692.792,61.985 692.815,62.209 692.863,62.32 C 692.911,62.431 692.981,62.513 693.075,62.568 C 693.169,62.623 693.341,62.65 693.589,62.65 L 693.589,62.869 L 690.995,62.869 L 690.995,62.65 C 691.259,62.65 691.436,62.625 691.527,62.574 C 691.618,62.523 691.69,62.44 691.743,62.323 C 691.797,62.206 691.823,61.982 691.823,61.65 L 691.823,59.603 C 691.823,59.015 691.805,58.634 691.77,58.461 C 691.743,58.335 691.699,58.247 691.64,58.198 C 691.581,58.149 691.5,58.125 691.399,58.125 C 691.29,58.125 691.156,58.154 690.999,58.213 L 690.917,57.994 L 692.534,57.338 L 692.792,57.338 z M 692.311,54.526 C 692.474,54.526 692.614,54.584 692.729,54.699 C 692.844,54.814 692.902,54.953 692.902,55.117 C 692.902,55.281 692.844,55.421 692.729,55.538 C 692.614,55.655 692.474,55.714 692.311,55.714 C 692.147,55.714 692.007,55.655 691.89,55.538 C 691.773,55.421 691.714,55.281 691.714,55.117 C 691.714,54.953 691.772,54.814 691.887,54.699 C 692.001,54.583 692.143,54.526 692.311,54.526 z "
           id="path685" />
        <path
           d="M 696.929,57.338 C 697.742,57.338 698.396,57.647 698.889,58.264 C 699.308,58.791 699.517,59.396 699.517,60.079 C 699.517,60.559 699.402,61.046 699.171,61.537 C 698.94,62.029 698.622,62.4 698.217,62.65 C 697.812,62.9 697.361,63.025 696.864,63.025 C 696.053,63.025 695.411,62.703 694.933,62.058 C 694.53,61.516 694.329,60.907 694.329,60.231 C 694.329,59.739 694.451,59.25 694.696,58.764 C 694.94,58.278 695.262,57.919 695.661,57.686 C 696.06,57.453 696.483,57.338 696.929,57.338 z M 696.748,57.713 C 696.541,57.713 696.333,57.775 696.124,57.898 C 695.915,58.021 695.746,58.237 695.617,58.545 C 695.488,58.853 695.424,59.25 695.424,59.733 C 695.424,60.514 695.579,61.188 695.89,61.754 C 696.201,62.32 696.61,62.603 697.118,62.603 C 697.497,62.603 697.809,62.447 698.056,62.134 C 698.302,61.822 698.425,61.285 698.425,60.524 C 698.425,59.571 698.22,58.822 697.81,58.275 C 697.531,57.901 697.177,57.713 696.748,57.713 z "
           id="path687" />
        <path
           d="M 701.861,57.338 L 701.861,58.553 C 702.31,57.743 702.77,57.338 703.243,57.338 C 703.457,57.338 703.635,57.404 703.775,57.536 C 703.915,57.668 703.986,57.82 703.986,57.993 C 703.986,58.147 703.935,58.277 703.834,58.383 C 703.732,58.489 703.611,58.542 703.471,58.542 C 703.333,58.542 703.18,58.475 703.011,58.339 C 702.841,58.204 702.715,58.136 702.633,58.136 C 702.563,58.136 702.487,58.175 702.405,58.253 C 702.229,58.414 702.049,58.678 701.861,59.046 L 701.861,61.62 C 701.861,61.916 701.898,62.14 701.974,62.291 C 702.026,62.396 702.117,62.482 702.247,62.55 C 702.378,62.618 702.567,62.652 702.813,62.652 L 702.813,62.871 L 700.047,62.871 L 700.047,62.652 C 700.32,62.652 700.524,62.609 700.656,62.523 C 700.754,62.46 700.822,62.36 700.861,62.223 C 700.881,62.157 700.89,61.967 700.89,61.653 L 700.89,59.575 C 700.89,58.955 700.877,58.587 700.852,58.469 C 700.827,58.351 700.779,58.264 700.71,58.21 C 700.642,58.155 700.556,58.128 700.454,58.128 C 700.333,58.128 700.195,58.157 700.042,58.216 L 699.983,57.997 L 701.611,57.341 L 701.861,57.341 L 701.861,57.338 z "
           id="path689" />
        <path
           d="M 704.064,64.854 L 704.064,64.597 C 704.466,64.464 704.778,64.259 704.999,63.98 C 705.22,63.702 705.33,63.406 705.33,63.095 C 705.33,63.021 705.312,62.959 705.277,62.908 C 705.25,62.873 705.222,62.855 705.195,62.855 C 705.152,62.855 705.058,62.894 704.914,62.973 C 704.844,63.008 704.769,63.026 704.691,63.026 C 704.5,63.026 704.347,62.969 704.234,62.855 C 704.121,62.741 704.064,62.584 704.064,62.383 C 704.064,62.191 704.137,62.026 704.285,61.888 C 704.431,61.751 704.61,61.682 704.822,61.682 C 705.08,61.682 705.31,61.794 705.511,62.019 C 705.713,62.244 705.814,62.542 705.814,62.914 C 705.814,63.316 705.673,63.69 705.394,64.037 C 705.114,64.382 704.67,64.655 704.064,64.854 z "
           id="path691" />
        <path
           d="M 713.595,62.255 C 713.333,62.532 713.077,62.73 712.827,62.848 C 712.577,62.966 712.307,63.026 712.019,63.026 C 711.433,63.026 710.921,62.781 710.485,62.292 C 710.047,61.803 709.829,61.174 709.829,60.405 C 709.829,59.636 710.071,58.933 710.556,58.296 C 711.039,57.658 711.662,57.339 712.423,57.339 C 712.896,57.339 713.286,57.496 713.595,57.81 L 713.595,56.792 C 713.595,56.183 713.58,55.809 713.551,55.669 C 713.522,55.529 713.476,55.435 713.414,55.384 C 713.352,55.333 713.274,55.308 713.182,55.308 C 713.08,55.308 712.947,55.339 712.781,55.402 L 712.705,55.183 L 714.301,54.527 L 714.565,54.527 L 714.565,60.746 C 714.565,61.367 714.58,61.746 714.609,61.883 C 714.637,62.02 714.684,62.116 714.749,62.17 C 714.812,62.224 714.888,62.252 714.973,62.252 C 715.077,62.252 715.218,62.219 715.392,62.152 L 715.456,62.371 L 713.866,63.027 L 713.596,63.027 L 713.596,62.255 L 713.595,62.255 z M 713.595,61.846 L 713.595,59.105 C 713.572,58.835 713.502,58.591 713.386,58.374 C 713.27,58.156 713.115,57.991 712.924,57.88 C 712.732,57.769 712.545,57.713 712.363,57.713 C 712.022,57.713 711.718,57.867 711.451,58.174 C 711.098,58.579 710.923,59.171 710.923,59.949 C 710.923,60.736 711.093,61.339 711.434,61.757 C 711.775,62.176 712.155,62.385 712.573,62.385 C 712.925,62.385 713.266,62.206 713.595,61.846 z "
           id="path693" />
        <path
           d="M 718.83,62.087 C 718.279,62.516 717.934,62.764 717.795,62.832 C 717.584,62.93 717.359,62.979 717.121,62.979 C 716.751,62.979 716.445,62.852 716.205,62.598 C 715.966,62.344 715.846,62.009 715.846,61.595 C 715.846,61.333 715.905,61.106 716.022,60.915 C 716.182,60.649 716.46,60.398 716.856,60.164 C 717.252,59.93 717.91,59.644 718.831,59.308 L 718.831,59.097 C 718.831,58.563 718.747,58.196 718.578,57.997 C 718.409,57.798 718.163,57.698 717.842,57.698 C 717.597,57.698 717.404,57.764 717.259,57.898 C 717.113,58.031 717.038,58.184 717.038,58.356 L 717.05,58.696 C 717.05,58.876 717.003,59.015 716.911,59.113 C 716.817,59.211 716.696,59.259 716.547,59.259 C 716.401,59.259 716.281,59.208 716.189,59.106 C 716.097,59.004 716.05,58.865 716.05,58.689 C 716.05,58.352 716.222,58.043 716.566,57.761 C 716.91,57.479 717.392,57.338 718.013,57.338 C 718.49,57.338 718.88,57.418 719.185,57.577 C 719.415,57.698 719.585,57.887 719.695,58.143 C 719.765,58.31 719.8,58.653 719.8,59.17 L 719.8,60.986 C 719.8,61.496 719.81,61.809 719.829,61.923 C 719.849,62.038 719.881,62.115 719.926,62.153 C 719.971,62.192 720.023,62.212 720.081,62.212 C 720.143,62.212 720.199,62.198 720.246,62.171 C 720.328,62.12 720.487,61.978 720.722,61.743 L 720.722,62.071 C 720.284,62.654 719.865,62.946 719.465,62.946 C 719.274,62.946 719.12,62.881 719.007,62.751 C 718.894,62.621 718.833,62.401 718.83,62.087 z M 718.83,61.707 L 718.83,59.667 C 718.236,59.901 717.853,60.066 717.681,60.164 C 717.37,60.335 717.149,60.515 717.015,60.702 C 716.881,60.889 716.815,61.094 716.815,61.315 C 716.815,61.596 716.899,61.829 717.069,62.014 C 717.237,62.199 717.432,62.291 717.652,62.291 C 717.95,62.292 718.342,62.097 718.83,61.707 z "
           id="path695" />
        <path
           d="M 720.82,57.495 L 723.332,57.495 L 723.332,57.714 L 723.209,57.714 C 723.033,57.714 722.901,57.752 722.813,57.828 C 722.725,57.904 722.681,57.998 722.681,58.111 C 722.681,58.263 722.745,58.473 722.874,58.742 L 724.189,61.456 L 725.389,58.484 C 725.455,58.325 725.489,58.167 725.489,58.011 C 725.489,57.941 725.475,57.888 725.448,57.853 C 725.417,57.811 725.368,57.776 725.302,57.751 C 725.236,57.726 725.118,57.713 724.95,57.713 L 724.95,57.494 L 726.686,57.494 L 726.686,57.713 C 726.541,57.729 726.43,57.759 726.352,57.805 C 726.274,57.851 726.188,57.937 726.094,58.064 C 726.059,58.118 725.992,58.266 725.895,58.508 L 723.713,63.869 C 723.5,64.389 723.223,64.782 722.879,65.048 C 722.535,65.314 722.205,65.447 721.887,65.447 C 721.656,65.447 721.465,65.381 721.316,65.248 C 721.167,65.114 721.092,64.962 721.092,64.79 C 721.092,64.625 721.146,64.493 721.254,64.394 C 721.362,64.295 721.511,64.245 721.699,64.245 C 721.829,64.245 722.006,64.285 722.23,64.366 C 722.387,64.421 722.485,64.448 722.525,64.448 C 722.642,64.448 722.771,64.388 722.91,64.269 C 723.05,64.15 723.19,63.919 723.332,63.577 L 723.711,62.637 L 721.773,58.604 C 721.714,58.483 721.621,58.333 721.492,58.153 C 721.394,58.016 721.314,57.924 721.252,57.878 C 721.162,57.816 721.018,57.761 720.818,57.714 L 720.818,57.495 L 720.82,57.495 z "
           id="path697" />
        <path
           d="M 727.462,61.729 C 727.646,61.729 727.799,61.792 727.923,61.919 C 728.048,62.045 728.111,62.198 728.111,62.377 C 728.111,62.556 728.048,62.709 727.922,62.836 C 727.795,62.962 727.643,63.025 727.463,63.025 C 727.283,63.025 727.131,62.962 727.004,62.836 C 726.878,62.709 726.815,62.556 726.815,62.377 C 726.815,62.194 726.878,62.04 727.004,61.916 C 727.13,61.792 727.283,61.729 727.462,61.729 z "
           id="path699" />
      </g>
      <g
         id="g701">
        <rect
           x="664.64697"
           y="22.5"
           width="105.175"
           height="1"
           id="rect703" />
      </g>
    </g>
  </g>
</svg>
