<?xml version="1.0" encoding="UTF-8" standalone="no"?>
<!-- Created with Inkscape (http://www.inkscape.org/) -->
<svg
   xmlns:dc="http://purl.org/dc/elements/1.1/"
   xmlns:cc="http://web.resource.org/cc/"
   xmlns:rdf="http://www.w3.org/1999/02/22-rdf-syntax-ns#"
   xmlns:svg="http://www.w3.org/2000/svg"
   xmlns="http://www.w3.org/2000/svg"
   xmlns:sodipodi="http://sodipodi.sourceforge.net/DTD/sodipodi-0.dtd"
   xmlns:inkscape="http://www.inkscape.org/namespaces/inkscape"
   width="142.73199"
   height="163.414"
   id="svg2836"
   sodipodi:version="0.32"
   inkscape:version="0.45.1"
   version="1.0"
   sodipodi:docbase="/Users/robmyers/Desktop/cc-ironies/final"
   sodipodi:docname="thought_bubbles.svg"
   inkscape:output_extension="org.inkscape.output.svg.inkscape">
  <defs
     id="defs2838" />
  <sodipodi:namedview
     id="base"
     pagecolor="#ffffff"
     bordercolor="#666666"
     borderopacity="1.0"
     gridtolerance="10000"
     guidetolerance="10"
     objecttolerance="10"
     inkscape:pageopacity="0.0"
     inkscape:pageshadow="2"
     inkscape:zoom="2.3131433"
     inkscape:cx="71.365997"
     inkscape:cy="81.707001"
     inkscape:document-units="px"
     inkscape:current-layer="layer1"
     inkscape:window-width="697"
     inkscape:window-height="581"
     inkscape:window-x="16"
     inkscape:window-y="28" />
  <metadata
     id="metadata2841">
    <rdf:RDF>
      <cc:Work
         rdf:about="">
        <dc:format>image/svg+xml</dc:format>
        <dc:type
           rdf:resource="http://purl.org/dc/dcmitype/StillImage" />
      </cc:Work>
    </rdf:RDF>
  </metadata>
  <g
     inkscape:label="Layer 1"
     inkscape:groupmode="layer"
     id="layer1"
     transform="translate(-428.634,-270.62125)">
    <rect
       id="rect50"
       height="141.73199"
       width="141.73199"
       style="fill:#ffffff;stroke:#000000;overflow:visible"
       y="271.12125"
       x="429.134" />
    <g
       transform="matrix(0.5,0,0,0.5,265.023,340.86575)"
       style="overflow:visible"
       id="g52">
      <path
         d="M 329.795,154.975 L 415.343,155.126 C 416.538,155.126 417.607,154.948 417.607,157.512 L 417.502,185.688 L 327.64,185.688 L 327.64,157.41 C 327.636,156.145 327.758,154.975 329.795,154.975 z "
         style="fill:#aab2ab"
         id="path3817_1_" />
      <path
         id="path55"
         d="M 416.091,154.639 L 328.918,154.639 C 327.983,154.639 327.222,155.4 327.222,156.333 L 327.222,185.956 C 327.222,186.167 327.394,186.339 327.605,186.339 L 417.403,186.339 C 417.615,186.339 417.787,186.167 417.787,185.956 L 417.787,156.333 C 417.787,155.4 417.025,154.639 416.091,154.639 z M 328.918,155.406 L 416.091,155.406 C 416.603,155.406 417.021,155.822 417.021,156.336 C 417.021,156.336 417.021,168.254 417.021,176.877 L 354.716,176.877 C 352.432,181.006 348.031,183.812 342.982,183.812 C 337.931,183.812 333.532,181.008 331.25,176.877 L 327.989,176.877 C 327.989,168.254 327.989,156.336 327.989,156.336 C 327.989,155.822 328.406,155.406 328.918,155.406 z " />
      <g
         id="g5908_1_">
        <path
           d="M 353.276,169.391 C 353.28,175.074 348.675,179.683 342.992,179.687 C 337.309,179.69 332.7,175.085 332.696,169.403 C 332.696,169.399 332.696,169.395 332.696,169.391 C 332.692,163.706 337.297,159.098 342.98,159.094 C 348.664,159.091 353.274,163.697 353.276,169.378 C 353.276,169.382 353.276,169.386 353.276,169.391 z "
           style="fill:#ffffff"
           id="path5906_1_" />
        <g
           id="g5706_1_">
          <path
             id="path60"
             d="M 351.353,161.009 C 353.634,163.29 354.775,166.085 354.775,169.391 C 354.775,172.697 353.654,175.46 351.412,177.684 C 349.031,180.026 346.219,181.196 342.973,181.196 C 339.766,181.196 337.002,180.037 334.682,177.715 C 332.36,175.396 331.2,172.619 331.2,169.395 C 331.2,166.171 332.36,163.374 334.682,161.01 C 336.944,158.731 339.708,157.586 342.973,157.586 C 346.277,157.585 349.07,158.727 351.353,161.009 z M 336.216,162.544 C 334.287,164.491 333.322,166.773 333.322,169.394 C 333.322,172.011 334.277,174.275 336.186,176.184 C 338.096,178.091 340.369,179.046 343.006,179.046 C 345.643,179.046 347.936,178.083 349.885,176.151 C 351.735,174.36 352.66,172.106 352.66,169.39 C 352.66,166.694 351.719,164.407 349.84,162.526 C 347.96,160.646 345.682,159.708 343.006,159.708 C 340.33,159.708 338.066,160.656 336.216,162.544 z M 341.293,168.244 C 340.999,167.599 340.558,167.278 339.969,167.278 C 338.929,167.278 338.409,167.979 338.409,169.381 C 338.409,170.781 338.929,171.483 339.969,171.483 C 340.656,171.483 341.147,171.142 341.441,170.462 L 342.883,171.231 C 342.195,172.453 341.164,173.063 339.789,173.063 C 338.728,173.063 337.879,172.739 337.241,172.087 C 336.602,171.438 336.283,170.54 336.283,169.399 C 336.283,168.276 336.613,167.384 337.27,166.724 C 337.928,166.063 338.748,165.734 339.73,165.734 C 341.184,165.734 342.224,166.306 342.854,167.451 L 341.293,168.244 z M 348.078,168.244 C 347.783,167.599 347.35,167.278 346.78,167.278 C 345.719,167.278 345.188,167.979 345.188,169.381 C 345.188,170.781 345.719,171.483 346.78,171.483 C 347.468,171.483 347.95,171.142 348.225,170.462 L 349.7,171.231 C 349.013,172.453 347.984,173.063 346.611,173.063 C 345.552,173.063 344.705,172.739 344.067,172.087 C 343.43,171.438 343.111,170.54 343.111,169.399 C 343.111,168.276 343.435,167.384 344.082,166.724 C 344.729,166.063 345.552,165.734 346.552,165.734 C 348.003,165.734 349.042,166.306 349.669,167.451 L 348.078,168.244 z " />
        </g>
      </g>
      <g
         style="enable-background:new"
         id="g370_2_">
        <path
           id="path63"
           d="M 363.519,179.356 C 363.757,179.356 363.975,179.377 364.171,179.418 C 364.367,179.461 364.534,179.529 364.675,179.625 C 364.816,179.724 364.924,179.851 365.001,180.006 C 365.079,180.164 365.117,180.36 365.117,180.594 C 365.117,180.849 365.059,181.058 364.944,181.226 C 364.831,181.395 364.661,181.532 364.436,181.64 C 364.745,181.728 364.976,181.881 365.128,182.105 C 365.28,182.331 365.357,182.592 365.357,182.909 C 365.357,183.163 365.307,183.38 365.21,183.562 C 365.112,183.749 364.98,183.897 364.814,184.01 C 364.648,184.127 364.459,184.213 364.246,184.273 C 364.033,184.333 363.814,184.357 363.59,184.357 L 361.163,184.357 L 361.163,179.359 L 363.519,179.356 L 363.519,179.356 z M 363.378,181.376 C 363.573,181.376 363.735,181.329 363.862,181.233 C 363.987,181.141 364.05,180.993 364.05,180.782 C 364.05,180.667 364.029,180.568 363.987,180.497 C 363.945,180.421 363.889,180.364 363.819,180.319 C 363.749,180.277 363.669,180.251 363.577,180.231 C 363.487,180.213 363.391,180.21 363.294,180.21 L 362.264,180.21 L 362.264,181.376 L 363.378,181.376 L 363.378,181.376 z M 363.442,183.5 C 363.549,183.5 363.652,183.49 363.751,183.469 C 363.849,183.449 363.935,183.412 364.011,183.365 C 364.085,183.315 364.145,183.25 364.189,183.166 C 364.234,183.082 364.256,182.977 364.256,182.844 C 364.256,182.588 364.183,182.406 364.038,182.295 C 363.893,182.187 363.702,182.131 363.464,182.131 L 362.264,182.131 L 362.264,183.502 L 363.442,183.502 L 363.442,183.5 z "
           style="fill:#ffffff" />
        <polygon
           points="365.552,179.356 366.784,179.356 367.954,181.33 369.118,179.356 370.343,179.356 368.487,182.436 368.487,184.354 367.386,184.354 367.386,182.408 365.552,179.356 "
           style="fill:#ffffff"
           id="path374_2_" />
      </g>
      <g
         style="enable-background:new"
         id="g376_2_">
        <polygon
           points="381.951,179.356 384.04,182.708 384.052,182.708 384.052,179.356 385.083,179.356 385.083,184.354 383.983,184.354 381.903,181.007 381.89,181.007 381.89,184.354 380.858,184.354 380.858,179.356 381.951,179.356 "
           style="fill:#ffffff"
           id="path378_2_" />
        <path
           d="M 389.255,180.688 C 389.191,180.584 389.109,180.49 389.009,180.412 C 388.911,180.332 388.801,180.269 388.677,180.225 C 388.554,180.18 388.423,180.16 388.288,180.16 C 388.042,180.16 387.831,180.207 387.658,180.306 C 387.485,180.401 387.345,180.53 387.239,180.69 C 387.131,180.852 387.051,181.038 387.003,181.241 C 386.955,181.445 386.931,181.659 386.931,181.88 C 386.931,182.089 386.954,182.294 387.003,182.489 C 387.052,182.687 387.131,182.868 387.239,183.024 C 387.344,183.183 387.485,183.309 387.658,183.407 C 387.831,183.505 388.042,183.552 388.288,183.552 C 388.624,183.552 388.888,183.448 389.076,183.243 C 389.264,183.038 389.381,182.764 389.423,182.431 L 390.487,182.431 C 390.459,182.743 390.385,183.028 390.27,183.28 C 390.153,183.533 389.999,183.748 389.807,183.926 C 389.616,184.107 389.392,184.239 389.135,184.334 C 388.879,184.428 388.596,184.477 388.287,184.477 C 387.904,184.477 387.56,184.413 387.254,184.277 C 386.949,184.145 386.691,183.964 386.481,183.727 C 386.27,183.497 386.108,183.217 385.997,182.905 C 385.886,182.591 385.829,182.253 385.829,181.884 C 385.829,181.509 385.886,181.163 385.997,180.843 C 386.108,180.526 386.27,180.243 386.481,180.007 C 386.691,179.771 386.95,179.581 387.254,179.445 C 387.561,179.309 387.904,179.243 388.287,179.243 C 388.562,179.243 388.823,179.281 389.068,179.361 C 389.312,179.44 389.533,179.555 389.726,179.71 C 389.919,179.86 390.08,180.05 390.205,180.272 C 390.33,180.494 390.41,180.752 390.442,181.043 L 389.379,181.043 C 389.362,180.908 389.319,180.792 389.255,180.688 z "
           style="fill:#ffffff"
           id="path380_2_" />
      </g>
      <g
         style="enable-background:new"
         id="g382_2_">
        <polygon
           points="401.451,179.356 403.541,182.708 403.552,182.708 403.552,179.356 404.583,179.356 404.583,184.354 403.484,184.354 401.404,181.007 401.39,181.007 401.39,184.354 400.359,184.354 400.359,179.356 401.451,179.356 "
           style="fill:#ffffff"
           id="path384_2_" />
        <path
           id="path71"
           d="M 407.705,179.356 C 408.027,179.356 408.328,179.408 408.605,179.509 C 408.884,179.612 409.125,179.766 409.328,179.971 C 409.531,180.175 409.689,180.434 409.807,180.742 C 409.917,181.051 409.979,181.412 409.979,181.828 C 409.979,182.191 409.932,182.526 409.835,182.836 C 409.741,183.147 409.604,183.41 409.411,183.633 C 409.223,183.86 408.985,184.035 408.702,184.162 C 408.421,184.291 408.087,184.354 407.704,184.354 L 405.546,184.354 L 405.546,179.356 L 407.705,179.356 z M 407.626,183.428 C 407.786,183.428 407.938,183.403 408.089,183.351 C 408.239,183.298 408.372,183.214 408.485,183.096 C 408.602,182.977 408.699,182.824 408.766,182.63 C 408.833,182.439 408.87,182.206 408.87,181.932 C 408.87,181.68 408.847,181.453 408.796,181.249 C 408.747,181.046 408.667,180.872 408.556,180.728 C 408.447,180.582 408.294,180.472 408.115,180.396 C 407.927,180.319 407.703,180.283 407.429,180.283 L 406.646,180.283 L 406.646,183.429 L 407.626,183.429 L 407.626,183.428 z "
           style="fill:#ffffff" />
      </g>
      <g
         id="g6370_3_">
        <g
           id="g7610_3_">
          <path
             d="M 393.485,165.946 C 393.489,170.098 390.126,173.467 385.973,173.468 C 381.823,173.471 378.455,170.108 378.452,165.956 C 378.452,165.952 378.452,165.948 378.452,165.942 C 378.45,161.794 381.813,158.421 385.964,158.421 C 390.116,158.417 393.484,161.78 393.485,165.934 C 393.485,165.938 393.485,165.943 393.485,165.946 z "
             style="fill:#ffffff"
             id="path6372_3_" />
          <path
             id="path76"
             d="M 385.958,157.195 C 388.411,157.195 390.485,158.041 392.179,159.732 C 393.874,161.423 394.722,163.498 394.722,165.946 C 394.722,168.396 393.888,170.446 392.224,172.093 C 390.456,173.829 388.368,174.698 385.958,174.698 C 383.577,174.698 381.526,173.837 379.802,172.116 C 378.079,170.392 377.218,168.339 377.218,165.943 C 377.218,163.549 378.079,161.479 379.802,159.729 C 381.481,158.041 383.534,157.195 385.958,157.195 z M 379.187,163.593 C 378.925,164.333 378.794,165.116 378.794,165.946 C 378.794,167.886 379.503,169.563 380.92,170.979 C 382.337,172.393 384.023,173.1 385.98,173.1 C 387.937,173.1 389.638,172.384 391.084,170.954 C 391.568,170.485 391.969,169.975 392.281,169.425 L 388.98,167.956 C 388.757,169.063 387.767,169.812 386.572,169.9 L 386.572,171.253 L 385.568,171.253 L 385.568,169.9 C 384.586,169.889 383.636,169.489 382.912,168.852 L 384.117,167.637 C 384.697,168.183 385.277,168.428 386.07,168.428 C 386.584,168.428 387.152,168.227 387.152,167.559 C 387.152,167.325 387.061,167.159 386.918,167.036 L 386.082,166.665 L 385.043,166.202 C 384.529,165.973 384.094,165.776 383.657,165.585 L 379.187,163.593 z M 385.979,158.77 C 383.993,158.77 382.314,159.468 380.94,160.871 C 380.567,161.248 380.243,161.642 379.967,162.053 L 383.311,163.543 C 383.614,162.615 384.497,162.051 385.567,161.99 L 385.567,160.639 L 386.571,160.639 L 386.571,161.99 C 387.264,162.022 388.022,162.213 388.77,162.791 L 387.62,163.977 C 387.196,163.674 386.661,163.461 386.126,163.461 C 385.69,163.461 385.075,163.594 385.075,164.144 C 385.075,164.227 385.104,164.297 385.155,164.368 L 386.274,164.864 L 387.031,165.204 C 387.514,165.421 387.977,165.626 388.436,165.829 L 392.92,167.823 C 393.068,167.237 393.143,166.612 393.143,165.952 C 393.143,163.954 392.442,162.263 391.039,160.876 C 389.653,159.468 387.966,158.77 385.979,158.77 z " />
        </g>
      </g>
      <g
         id="g6394_3_">
        <path
           d="M 413.763,165.946 C 413.767,170.358 410.193,173.937 405.781,173.941 C 401.369,173.944 397.789,170.371 397.786,165.959 C 397.786,165.955 397.786,165.951 397.786,165.946 C 397.783,161.535 401.357,157.957 405.769,157.953 C 410.181,157.949 413.759,161.522 413.763,165.934 C 413.763,165.938 413.763,165.942 413.763,165.946 z "
           style="fill:#ffffff"
           id="path6396_3_" />
        <g
           id="g6398_3_">
          <path
             id="path81"
             d="M 405.65,157.195 C 403.226,157.195 401.173,158.041 399.494,159.732 C 397.771,161.482 396.911,163.553 396.911,165.946 C 396.911,168.34 397.772,170.395 399.494,172.117 C 401.217,173.838 403.269,174.699 405.65,174.699 C 408.06,174.699 410.148,173.83 411.916,172.095 C 413.58,170.449 414.412,168.398 414.412,165.949 C 414.412,163.5 413.566,161.428 411.871,159.734 C 410.177,158.041 408.103,157.195 405.65,157.195 z M 405.671,158.769 C 407.657,158.769 409.343,159.468 410.732,160.871 C 412.134,162.256 412.834,163.949 412.834,165.946 C 412.834,167.961 412.148,169.631 410.777,170.957 C 409.33,172.389 407.629,173.103 405.672,173.103 C 403.715,173.103 402.027,172.396 400.611,170.98 C 399.195,169.566 398.486,167.888 398.486,165.951 C 398.486,164.012 399.201,162.317 400.634,160.875 C 402.005,159.468 403.685,158.769 405.671,158.769 z " />
          <g
             id="g6402_3_">
            <path
               id="path84"
               d="M 408.966,163.873 L 402.605,163.873 L 402.605,165.379 L 408.966,165.379 L 408.966,163.873 z M 408.966,166.684 L 402.605,166.684 L 402.605,168.191 L 408.966,168.191 L 408.966,166.684 z " />
          </g>
        </g>
      </g>
      <g
         id="g398_2_">
        <circle
           sodipodi:ry="8.1040001"
           sodipodi:rx="8.1040001"
           sodipodi:cy="166.125"
           sodipodi:cx="366.28799"
           r="8.1040001"
           cy="166.125"
           cx="366.28799"
           style="fill:#ffffff"
           id="circle400_2_" />
        <g
           id="g402_2_">
          <path
             d="M 368.634,163.779 C 368.634,163.467 368.381,163.215 368.07,163.215 L 364.49,163.215 C 364.178,163.215 363.926,163.469 363.926,163.779 L 363.926,167.359 L 364.924,167.359 L 364.924,171.598 L 367.637,171.598 L 367.637,167.359 L 368.635,167.359 L 368.634,163.779 L 368.634,163.779 z "
             id="path404_2_" />
          <circle
             sodipodi:ry="1.226"
             sodipodi:rx="1.226"
             sodipodi:cy="161.51801"
             sodipodi:cx="366.27802"
             r="1.226"
             cy="161.51801"
             cx="366.27802"
             id="circle406_2_" />
        </g>
        <path
           id="path91"
           d="M 366.269,157.195 C 363.845,157.195 361.792,158.041 360.113,159.733 C 358.39,161.482 357.529,163.553 357.529,165.946 C 357.529,168.338 358.39,170.395 360.113,172.117 C 361.837,173.838 363.888,174.699 366.269,174.699 C 368.677,174.699 370.767,173.83 372.535,172.094 C 374.199,170.449 375.031,168.4 375.031,165.949 C 375.031,163.498 374.185,161.428 372.49,159.735 C 370.796,158.041 368.722,157.195 366.269,157.195 z M 366.29,158.769 C 368.276,158.769 369.963,159.468 371.351,160.871 C 372.753,162.256 373.455,163.949 373.455,165.946 C 373.455,167.959 372.767,169.631 371.394,170.957 C 369.949,172.389 368.248,173.103 366.29,173.103 C 364.332,173.103 362.645,172.396 361.229,170.981 C 359.813,169.566 359.104,167.888 359.104,165.951 C 359.104,164.012 359.82,162.317 361.25,160.875 C 362.624,159.468 364.304,158.769 366.29,158.769 z " />
      </g>
    </g>
    <g
       transform="translate(101.91202,270.62125)"
       style="overflow:visible"
       id="g250">
      <ellipse
         sodipodi:ry="4.0310001"
         sodipodi:rx="4.4159999"
         sodipodi:cy="59.449001"
         sodipodi:cx="349.28201"
         id="ellipse252"
         ry="4.0310001"
         rx="4.4159999"
         cy="59.449001"
         cx="349.28201"
         style="fill:#ffffff;stroke:#000000;stroke-width:0.9921" />
      <ellipse
         sodipodi:ry="1.92"
         sodipodi:rx="2.3039999"
         sodipodi:cy="66.660004"
         sodipodi:cx="343.41599"
         id="ellipse254"
         ry="1.92"
         rx="2.3039999"
         cy="66.660004"
         cx="343.41599"
         style="fill:#ffffff;stroke:#000000;stroke-width:0.9921" />
      <g
         id="g256">
        <g
           id="g258">
          <path
             id="path260"
             d="M 410.927,32.814 C 412.228,31.812 413.011,30.531 413.011,29.135 C 413.011,25.921 408.872,23.315 403.769,23.315 C 403.54,23.315 403.315,23.326 403.089,23.336 C 403.569,22.632 403.837,21.858 403.837,21.044 C 403.837,17.83 399.698,15.225 394.595,15.225 C 393.544,15.225 392.539,15.34 391.599,15.543 C 390.606,13.003 386.974,11.116 382.634,11.116 C 380.081,11.116 377.771,11.768 376.098,12.822 C 374.451,11.864 372.255,11.273 369.835,11.273 C 364.731,11.273 360.593,13.878 360.593,17.092 C 360.593,17.144 360.603,17.194 360.605,17.245 C 360.524,17.244 360.444,17.238 360.363,17.238 C 355.259,17.238 351.121,19.843 351.121,23.057 C 351.121,24.308 351.754,25.464 352.821,26.413 C 348.242,26.76 344.691,29.21 344.691,32.186 C 344.691,34.591 347.009,36.656 350.316,37.542 C 348.53,38.603 347.409,40.103 347.409,41.771 C 347.409,44.573 350.557,46.912 354.748,47.464 C 353.762,48.273 353.145,49.397 353.145,50.646 C 353.145,53.104 355.518,55.096 358.446,55.096 C 360.959,55.096 363.051,53.624 363.597,51.654 C 365.281,52.772 367.656,53.472 370.295,53.472 C 372.662,53.472 374.813,52.908 376.447,51.986 C 377.843,54.086 381.135,55.559 384.973,55.559 C 388.525,55.559 391.604,54.296 393.151,52.447 C 394.171,52.691 395.273,52.831 396.428,52.831 C 401.532,52.831 405.67,50.225 405.67,47.012 C 405.67,45.631 404.902,44.366 403.627,43.367 C 404.409,43.502 405.23,43.58 406.08,43.58 C 411.184,43.58 415.322,40.975 415.322,37.761 C 415.324,35.669 413.562,33.839 410.927,32.814 z "
             style="fill:#ffffff" />
        </g>
        <g
           id="g262">
          <path
             id="path264"
             d="M 410.927,32.814 C 412.228,31.812 413.011,30.531 413.011,29.135 C 413.011,25.921 408.872,23.315 403.769,23.315 C 403.54,23.315 403.315,23.326 403.089,23.336 C 403.569,22.632 403.837,21.858 403.837,21.044 C 403.837,17.83 399.698,15.225 394.595,15.225 C 393.544,15.225 392.539,15.34 391.599,15.543 C 390.606,13.003 386.974,11.116 382.634,11.116 C 380.081,11.116 377.771,11.768 376.098,12.822 C 374.451,11.864 372.255,11.273 369.835,11.273 C 364.731,11.273 360.593,13.878 360.593,17.092 C 360.593,17.144 360.603,17.194 360.605,17.245 C 360.524,17.244 360.444,17.238 360.363,17.238 C 355.259,17.238 351.121,19.843 351.121,23.057 C 351.121,24.308 351.754,25.464 352.821,26.413 C 348.242,26.76 344.691,29.21 344.691,32.186 C 344.691,34.591 347.009,36.656 350.316,37.542 C 348.53,38.603 347.409,40.103 347.409,41.771 C 347.409,44.573 350.557,46.912 354.748,47.464 C 353.762,48.273 353.145,49.397 353.145,50.646 C 353.145,53.104 355.518,55.096 358.446,55.096 C 360.959,55.096 363.051,53.624 363.597,51.654 C 365.281,52.772 367.656,53.472 370.295,53.472 C 372.662,53.472 374.813,52.908 376.447,51.986 C 377.843,54.086 381.135,55.559 384.973,55.559 C 388.525,55.559 391.604,54.296 393.151,52.447 C 394.171,52.691 395.273,52.831 396.428,52.831 C 401.532,52.831 405.67,50.225 405.67,47.012 C 405.67,45.631 404.902,44.366 403.627,43.367 C 404.409,43.502 405.23,43.58 406.08,43.58 C 411.184,43.58 415.322,40.975 415.322,37.761 C 415.324,35.669 413.562,33.839 410.927,32.814 z "
             style="fill:none;stroke:#000000;stroke-width:0.9921" />
        </g>
      </g>
    </g>
    <g
       transform="translate(101.91202,270.62125)"
       style="overflow:visible"
       id="g266">
      <ellipse
         sodipodi:ry="4.0310001"
         sodipodi:rx="4.4159999"
         sodipodi:cy="111.897"
         sodipodi:cx="441.48001"
         id="ellipse268"
         ry="4.0310001"
         rx="4.4159999"
         cy="111.897"
         cx="441.48001"
         style="fill:#ffffff;stroke:#000000;stroke-width:0.9921" />
      <ellipse
         sodipodi:ry="1.92"
         sodipodi:rx="2.3039999"
         sodipodi:cy="119.108"
         sodipodi:cx="447.34601"
         id="ellipse270"
         ry="1.92"
         rx="2.3039999"
         cy="119.108"
         cx="447.34601"
         style="fill:#ffffff;stroke:#000000;stroke-width:0.9921" />
      <g
         id="g272">
        <g
           id="g274">
          <path
             id="path276"
             d="M 446.07,84.635 C 446.07,81.658 442.519,79.208 437.941,78.862 C 439.007,77.913 439.64,76.757 439.64,75.506 C 439.64,72.292 435.502,69.687 430.398,69.687 C 430.317,69.687 430.238,69.693 430.156,69.694 C 430.158,69.643 430.168,69.593 430.168,69.541 C 430.168,66.327 426.031,63.722 420.927,63.722 C 418.507,63.722 416.311,64.312 414.664,65.271 C 412.991,64.217 410.681,63.565 408.128,63.565 C 403.788,63.565 400.156,65.452 399.163,67.992 C 398.223,67.789 397.218,67.674 396.167,67.674 C 391.063,67.674 386.925,70.279 386.925,73.493 C 386.925,74.307 387.193,75.082 387.673,75.785 C 387.447,75.775 387.222,75.764 386.993,75.764 C 381.889,75.764 377.751,78.369 377.751,81.584 C 377.751,82.98 378.534,84.26 379.835,85.263 C 377.2,86.288 375.439,88.118 375.439,90.211 C 375.439,93.425 379.578,96.03 384.681,96.03 C 385.532,96.03 386.352,95.952 387.134,95.817 C 385.859,96.815 385.091,98.081 385.091,99.462 C 385.091,102.675 389.23,105.281 394.333,105.281 C 395.488,105.281 396.591,105.141 397.61,104.897 C 399.157,106.747 402.236,108.009 405.788,108.009 C 409.627,108.009 412.918,106.535 414.314,104.436 C 415.949,105.358 418.099,105.922 420.466,105.922 C 423.105,105.922 425.48,105.222 427.163,104.105 C 427.709,106.075 429.803,107.546 432.315,107.546 C 435.243,107.546 437.616,105.554 437.616,103.096 C 437.616,101.847 437,100.723 436.013,99.914 C 440.203,99.361 443.352,97.022 443.352,94.221 C 443.352,92.552 442.231,91.053 440.445,89.992 C 443.752,89.105 446.07,87.041 446.07,84.635 z "
             style="fill:#ffffff" />
        </g>
        <g
           id="g278">
          <path
             id="path280"
             d="M 446.07,84.635 C 446.07,81.658 442.519,79.208 437.941,78.862 C 439.007,77.913 439.64,76.757 439.64,75.506 C 439.64,72.292 435.502,69.687 430.398,69.687 C 430.317,69.687 430.238,69.693 430.156,69.694 C 430.158,69.643 430.168,69.593 430.168,69.541 C 430.168,66.327 426.031,63.722 420.927,63.722 C 418.507,63.722 416.311,64.312 414.664,65.271 C 412.991,64.217 410.681,63.565 408.128,63.565 C 403.788,63.565 400.156,65.452 399.163,67.992 C 398.223,67.789 397.218,67.674 396.167,67.674 C 391.063,67.674 386.925,70.279 386.925,73.493 C 386.925,74.307 387.193,75.082 387.673,75.785 C 387.447,75.775 387.222,75.764 386.993,75.764 C 381.889,75.764 377.751,78.369 377.751,81.584 C 377.751,82.98 378.534,84.26 379.835,85.263 C 377.2,86.288 375.439,88.118 375.439,90.211 C 375.439,93.425 379.578,96.03 384.681,96.03 C 385.532,96.03 386.352,95.952 387.134,95.817 C 385.859,96.815 385.091,98.081 385.091,99.462 C 385.091,102.675 389.23,105.281 394.333,105.281 C 395.488,105.281 396.591,105.141 397.61,104.897 C 399.157,106.747 402.236,108.009 405.788,108.009 C 409.627,108.009 412.918,106.535 414.314,104.436 C 415.949,105.358 418.099,105.922 420.466,105.922 C 423.105,105.922 425.48,105.222 427.163,104.105 C 427.709,106.075 429.803,107.546 432.315,107.546 C 435.243,107.546 437.616,105.554 437.616,103.096 C 437.616,101.847 437,100.723 436.013,99.914 C 440.203,99.361 443.352,97.022 443.352,94.221 C 443.352,92.552 442.231,91.053 440.445,89.992 C 443.752,89.105 446.07,87.041 446.07,84.635 z "
             style="fill:none;stroke:#000000;stroke-width:0.9921" />
        </g>
      </g>
    </g>
    <path
       style="overflow:visible"
       id="path326"
       d="M 460.68202,308.56925 C 460.39102,308.56925 460.13702,308.19725 459.92102,307.45325 C 459.83702,307.16825 459.73002,306.67025 459.60302,305.95625 C 459.28302,306.00025 458.86302,306.07825 458.34402,306.19125 L 457.09002,306.45025 C 456.92702,306.86725 456.65002,307.47625 456.25802,308.27725 C 456.15602,308.45525 456.01802,308.54525 455.84302,308.54525 C 455.71702,308.54525 455.60302,308.49825 455.50202,308.40625 C 455.40202,308.31425 455.35302,308.19925 455.35302,308.06325 C 455.35302,307.91025 455.59202,307.33225 456.07302,306.32525 C 456.01902,306.24225 455.99202,306.14625 455.99202,306.03925 C 455.99202,305.78225 456.14702,305.61725 456.45902,305.54425 C 456.82202,304.86525 457.27802,304.08425 457.83202,303.20025 C 458.58402,301.99725 459.05202,301.39525 459.23602,301.39525 C 459.48702,301.39525 459.65802,301.57025 459.75102,301.91925 L 460.05102,303.51925 L 460.75902,306.82925 L 461.03002,307.57825 C 461.12302,307.83425 461.16902,308.00525 461.16902,308.09025 C 461.16902,308.22625 461.12002,308.34025 461.02102,308.43125 C 460.92202,308.52325 460.80902,308.56925 460.68202,308.56925 z M 459.00302,303.13425 L 457.64502,305.32925 C 458.02902,305.23125 458.61202,305.11225 459.39402,304.97225 L 459.00302,303.13425 z " />
    <path
       style="overflow:visible"
       id="path328"
       d="M 467.23002,308.48025 C 467.11002,308.48025 466.99702,308.42925 466.89202,308.32825 C 465.84102,307.29325 464.67202,306.59625 463.38602,306.23825 L 463.42402,307.17025 L 463.44902,308.10625 C 463.44902,308.24625 463.40202,308.36225 463.31102,308.45625 C 463.21902,308.55025 463.10502,308.59625 462.96602,308.59625 C 462.82802,308.59625 462.71302,308.55025 462.62002,308.45625 C 462.52902,308.36225 462.48302,308.24525 462.48302,308.10625 C 462.48302,307.85525 462.47102,307.48125 462.45102,306.98425 C 462.43002,306.48725 462.42002,306.11425 462.42002,305.86325 C 462.42002,305.57125 462.45102,305.13725 462.51602,304.55925 C 462.57802,303.98225 462.61002,303.54825 462.61002,303.26025 C 462.61002,303.09825 462.59202,302.85925 462.56002,302.54125 C 462.52602,302.22325 462.50902,301.98425 462.50902,301.82225 C 462.50902,301.64125 462.56002,301.48325 462.66102,301.34625 C 462.78202,301.17825 462.94902,301.10125 463.16202,301.11725 L 464.31102,301.20825 C 464.74802,301.26225 465.11402,301.36825 465.41402,301.52725 C 466.70102,302.20925 467.34702,303.04225 467.34702,304.02725 C 467.34702,304.50925 467.12702,304.93625 466.69002,305.30725 C 466.33802,305.60525 465.89902,305.83225 465.37202,305.98825 C 466.36202,306.51825 467.10102,307.07725 467.59202,307.66425 C 467.67502,307.76625 467.71602,307.87425 467.71602,307.98825 C 467.71602,308.12125 467.66702,308.23625 467.57002,308.33525 C 467.47302,308.43425 467.36002,308.48025 467.23002,308.48025 z M 464.19402,302.18925 L 463.48802,302.13225 L 463.53202,302.70925 C 463.55302,302.94425 463.56402,303.13625 463.56402,303.28625 C 463.56402,303.54025 463.54502,303.85625 463.50502,304.23425 L 463.41002,305.18325 C 463.45502,305.18325 463.52402,305.18425 463.61802,305.18825 C 463.71202,305.19125 463.78202,305.19225 463.83002,305.19225 C 464.63902,305.19225 465.24502,305.08425 465.64702,304.86825 C 465.82502,304.76925 465.99002,304.64125 466.14202,304.48225 C 466.31002,304.30425 466.39402,304.15225 466.39402,304.02925 C 466.39402,303.58725 466.14302,303.17625 465.64102,302.79425 C 465.18202,302.44525 464.69902,302.24425 464.19402,302.18925 z " />
    <path
       style="overflow:visible"
       id="path330"
       d="M 474.46902,302.40225 C 474.23602,302.40225 473.87402,302.38225 473.38602,302.34425 C 472.91002,302.30925 472.54902,302.29425 472.30302,302.29725 L 471.96502,302.29725 C 471.97502,302.73525 472.01602,303.44625 472.09002,304.43025 C 472.15702,305.34825 472.19202,306.06125 472.19202,306.56925 C 472.19202,306.67925 472.20402,306.84825 472.22502,307.07425 C 472.24602,307.30025 472.25702,307.47025 472.25702,307.58425 C 472.25702,307.79925 472.22202,307.98625 472.15302,308.14125 C 472.06402,308.35125 471.92502,308.45525 471.73802,308.45525 C 471.61002,308.45525 471.49602,308.41125 471.39402,308.32125 C 471.29202,308.23225 471.24202,308.11925 471.24202,307.97825 C 471.24202,307.93125 471.25102,307.85925 471.26602,307.76325 C 471.28202,307.66825 471.28802,307.59725 471.28802,307.54825 C 471.28802,307.39425 471.27902,307.15925 471.25902,306.84825 C 471.23902,306.53725 471.22902,306.30125 471.22902,306.14225 C 471.22902,305.68825 471.19402,305.04925 471.12402,304.22525 C 471.05102,303.33525 471.01102,302.69725 471.00102,302.30825 L 470.56602,302.31325 C 469.87002,302.31325 469.32202,302.26325 468.92302,302.16225 C 468.66502,302.09525 468.53702,301.93925 468.53702,301.69225 C 468.53702,301.56325 468.57802,301.44925 468.66002,301.35125 C 468.75602,301.24025 468.87802,301.19025 469.02702,301.19925 C 469.13702,301.20525 469.39102,301.23425 469.78902,301.28425 C 470.10602,301.32325 470.36302,301.34125 470.56002,301.34125 C 470.75002,301.34125 471.03902,301.33825 471.42602,301.32925 C 471.81402,301.32125 472.10202,301.31725 472.29302,301.31725 C 472.53702,301.31725 472.90002,301.33525 473.38102,301.36925 C 473.86002,301.40425 474.22402,301.42225 474.46802,301.42225 C 474.60502,301.42225 474.71902,301.46925 474.81102,301.56325 C 474.90302,301.65625 474.95002,301.77325 474.95002,301.91425 C 474.95002,302.05025 474.90302,302.16625 474.81102,302.26025 C 474.71902,302.35525 474.60402,302.40225 474.46902,302.40225 z " />
    <path
       style="overflow:visible"
       id="path332"
       d="M 478.18002,307.23325 C 478.17702,307.09925 478.22302,306.99025 478.31702,306.90625 C 478.40902,306.82225 478.52402,306.77925 478.66102,306.77925 C 478.81602,306.77925 478.95202,306.86925 479.07002,307.04725 C 479.23102,307.28925 479.37602,307.45425 479.50202,307.54025 C 479.77202,307.71925 480.16302,307.80825 480.67602,307.80825 C 481.16802,307.80825 481.62302,307.70225 482.04602,307.49125 C 482.58402,307.22025 482.85402,306.84125 482.85402,306.35825 C 482.85402,305.95925 482.62802,305.64525 482.17402,305.41425 C 481.79202,305.21425 481.31902,305.10725 480.75502,305.09125 C 480.25502,305.07125 479.82802,304.96225 479.47802,304.76225 C 479.02902,304.50525 478.80402,304.13725 478.80402,303.65825 C 478.80402,303.09325 479.12402,302.57625 479.76402,302.11025 C 480.37702,301.66925 481.01002,301.44825 481.66302,301.44825 C 481.97102,301.44825 482.31802,301.50025 482.70602,301.60625 C 483.21902,301.74325 483.47602,301.91825 483.47602,302.13225 C 483.47602,302.41325 483.33302,302.55325 483.04902,302.55325 C 482.92202,302.55325 482.70002,302.51825 482.38402,302.44925 C 482.06702,302.38025 481.82202,302.34625 481.64802,302.35025 C 481.15402,302.35625 480.73502,302.47925 480.38902,302.71725 C 480.03502,302.96125 479.85802,303.25925 479.85802,303.60825 C 479.85802,303.87125 480.09102,304.05825 480.56002,304.16525 C 480.73502,304.20725 481.07202,304.24525 481.57202,304.27925 C 482.29802,304.33325 482.86402,304.56125 483.27102,304.96425 C 483.64402,305.33125 483.83202,305.77925 483.83202,306.30825 C 483.83202,307.06225 483.48302,307.66325 482.78402,308.11425 C 482.17802,308.50425 481.47602,308.69925 480.67702,308.69925 C 480.09602,308.69925 479.56502,308.58725 479.08202,308.36425 C 478.48902,308.08825 478.18902,307.71125 478.18002,307.23325 z " />
    <path
       style="overflow:visible"
       id="path334"
       d="M 488.05702,308.62025 C 487.06702,308.62025 486.32902,308.33625 485.84302,307.76725 C 485.44802,307.31025 485.20002,306.63425 485.09902,305.73825 C 485.05102,305.33525 485.02802,304.53025 485.02802,303.32325 C 485.02802,302.87925 485.03802,302.52025 485.05602,302.24725 C 485.07602,301.95825 485.10402,301.75725 485.14102,301.64225 C 485.22102,301.41125 485.36502,301.29425 485.57102,301.29425 C 485.86302,301.29425 486.00902,301.56325 486.00902,302.09925 L 486.00902,304.89525 C 486.00902,306.82025 486.68402,307.78225 488.03202,307.78225 C 489.30202,307.78225 489.93702,306.16225 489.93702,302.92225 C 489.93702,302.80125 489.93702,302.64625 489.93702,302.45525 C 489.93302,302.26525 489.93202,302.13825 489.93202,302.07425 C 489.93202,301.87825 489.96702,301.70425 490.03602,301.55525 C 490.12502,301.36525 490.25702,301.26925 490.43202,301.26925 C 490.75002,301.26925 490.90902,301.48725 490.90902,301.92225 C 490.90902,302.05225 490.91102,302.25025 490.91402,302.51325 C 490.91402,302.77725 490.91402,302.97425 490.91402,303.10425 C 490.91302,306.78125 489.96202,308.62025 488.05702,308.62025 z " />
    <path
       style="overflow:visible"
       id="path336"
       d="M 496.73402,303.09725 C 496.53202,303.09725 496.38002,302.97725 496.27802,302.73725 C 496.18902,302.53225 496.10602,302.40725 496.03102,302.36225 C 495.96402,302.32725 495.79902,302.30925 495.53602,302.30925 C 495.07602,302.30925 494.56502,302.66225 494.00502,303.36525 C 493.24402,304.31025 492.86202,305.20625 492.86202,306.05325 C 492.86202,306.46225 492.99502,306.81425 493.25802,307.10925 C 493.52802,307.41425 493.85202,307.56625 494.23202,307.56625 C 494.55802,307.56625 494.88702,307.48225 495.21702,307.31425 C 495.40002,307.21825 495.68202,307.03125 496.06202,306.75225 C 496.24402,306.61725 496.37902,306.55125 496.47102,306.55125 C 496.60702,306.55125 496.72102,306.60425 496.81402,306.70625 C 496.90502,306.80925 496.95202,306.92425 496.95202,307.05225 C 496.95202,307.19625 496.89102,307.32125 496.77102,307.42825 C 495.93402,308.17225 495.08702,308.54525 494.23102,308.54525 C 493.57502,308.54525 493.02102,308.29325 492.56702,307.78725 C 492.13002,307.29925 491.91202,306.72125 491.91202,306.05525 C 491.91202,304.97925 492.36202,303.87625 493.26302,302.74625 C 494.01502,301.80425 494.77302,301.33225 495.53602,301.33225 C 495.69202,301.33225 495.83102,301.33925 495.95602,301.35325 C 496.07802,301.36725 496.18702,301.39025 496.28302,301.42225 C 496.39302,301.26025 496.53802,301.17925 496.71602,301.17925 C 496.93502,301.17925 497.07302,301.32425 497.12902,301.61425 C 497.18102,301.87225 497.20602,302.18925 497.20602,302.56625 C 497.20602,302.69625 497.17102,302.81125 497.10202,302.91025 C 497.01502,303.03525 496.89102,303.09725 496.73402,303.09725 z " />
    <path
       style="overflow:visible"
       id="path338"
       d="M 502.84102,308.62025 C 502.35702,308.62025 501.66902,308.19725 500.77502,307.35025 L 499.34802,305.91925 L 499.34802,305.98625 L 499.34802,308.47925 C 499.34802,308.79225 499.21002,308.95125 498.93602,308.95125 C 498.75402,308.95125 498.61102,308.87125 498.50302,308.71325 C 498.41502,308.58225 498.37002,308.44225 498.37002,308.28925 C 498.37002,307.54725 498.39102,306.43625 498.43302,304.95825 C 498.47402,303.48025 498.49502,302.37125 498.49502,301.63225 C 498.49502,301.49525 498.54002,301.38025 498.63102,301.28525 C 498.72002,301.19025 498.83102,301.14225 498.96402,301.14225 C 499.09902,301.14225 499.21102,301.18925 499.30002,301.28525 C 499.39102,301.38025 499.43602,301.49525 499.43602,301.63225 C 499.43602,301.94025 499.42002,302.41925 499.39002,303.06925 C 499.35802,303.69725 499.34302,304.17825 499.34702,304.51125 C 499.77202,304.10825 500.25102,303.60125 500.78802,302.99125 L 502.15302,301.40425 C 502.26002,301.28025 502.38202,301.21825 502.51602,301.21825 C 502.64302,301.21825 502.75602,301.26625 502.85402,301.36125 C 502.95402,301.45625 503.00402,301.57225 503.00402,301.70925 C 503.00402,301.91825 502.59202,302.47725 501.77002,303.38625 C 501.20402,304.00625 500.61802,304.61225 500.01402,305.20625 C 500.39402,305.60525 500.99302,306.18025 501.80602,306.92825 L 502.30802,307.34625 C 502.48802,307.48525 502.68502,307.59025 502.89402,307.66025 C 503.14602,307.74225 503.27102,307.89925 503.27102,308.13125 C 503.27102,308.23825 503.23802,308.34225 503.17102,308.44025 C 503.08702,308.56025 502.97802,308.62025 502.84102,308.62025 z " />
    <path
       style="overflow:visible"
       id="path340"
       d="M 503.95802,307.23325 C 503.95402,307.09925 503.99902,306.99025 504.09302,306.90625 C 504.18702,306.82225 504.30202,306.77925 504.43902,306.77925 C 504.59302,306.77925 504.73002,306.86925 504.84702,307.04725 C 505.00902,307.28925 505.15202,307.45425 505.27902,307.54025 C 505.54902,307.71925 505.94102,307.80825 506.45302,307.80825 C 506.94502,307.80825 507.40202,307.70225 507.82202,307.49125 C 508.36102,307.22025 508.63102,306.84125 508.63102,306.35825 C 508.63102,305.95925 508.40402,305.64525 507.95302,305.41425 C 507.57002,305.21425 507.09602,305.10725 506.53302,305.09125 C 506.03302,305.07125 505.60502,304.96225 505.25602,304.76225 C 504.80502,304.50525 504.58002,304.13725 504.58002,303.65825 C 504.58002,303.09325 504.90202,302.57625 505.54102,302.11025 C 506.15402,301.66925 506.78702,301.44825 507.44102,301.44825 C 507.74802,301.44825 508.09502,301.50025 508.48202,301.60625 C 508.99602,301.74325 509.25302,301.91825 509.25302,302.13225 C 509.25302,302.41325 509.10802,302.55325 508.82502,302.55325 C 508.69802,302.55325 508.47502,302.51825 508.16102,302.44925 C 507.84302,302.38025 507.59902,302.34625 507.42502,302.35025 C 506.93102,302.35625 506.51102,302.47925 506.16502,302.71725 C 505.81102,302.96125 505.63402,303.25925 505.63402,303.60825 C 505.63402,303.87125 505.86802,304.05825 506.33702,304.16525 C 506.51102,304.20725 506.84902,304.24525 507.34902,304.27925 C 508.07402,304.33325 508.64002,304.56125 509.04802,304.96425 C 509.42102,305.33125 509.60902,305.77925 509.60902,306.30825 C 509.60902,307.06225 509.25902,307.66325 508.56002,308.11425 C 507.95502,308.50425 507.25102,308.69925 506.45302,308.69925 C 505.87102,308.69925 505.34202,308.58725 504.85902,308.36425 C 504.26702,308.08825 503.96802,307.71125 503.95802,307.23325 z " />
  </g>
</svg>
