<?xml version="1.0" encoding="UTF-8" standalone="no"?>
<!-- Created with Inkscape (http://www.inkscape.org/) -->
<svg
   xmlns:dc="http://purl.org/dc/elements/1.1/"
   xmlns:cc="http://web.resource.org/cc/"
   xmlns:rdf="http://www.w3.org/1999/02/22-rdf-syntax-ns#"
   xmlns:svg="http://www.w3.org/2000/svg"
   xmlns="http://www.w3.org/2000/svg"
   xmlns:sodipodi="http://sodipodi.sourceforge.net/DTD/sodipodi-0.dtd"
   xmlns:inkscape="http://www.inkscape.org/namespaces/inkscape"
   width="142.73199"
   height="163.41399"
   id="svg2787"
   sodipodi:version="0.32"
   inkscape:version="0.45.1"
   version="1.0"
   sodipodi:docbase="/Users/robmyers/Desktop/cc-ironies/final"
   sodipodi:docname="thought_bubble.svg"
   inkscape:output_extension="org.inkscape.output.svg.inkscape">
  <defs
     id="defs2789" />
  <sodipodi:namedview
     id="base"
     pagecolor="#ffffff"
     bordercolor="#666666"
     borderopacity="1.0"
     gridtolerance="10000"
     guidetolerance="10"
     objecttolerance="10"
     inkscape:pageopacity="0.0"
     inkscape:pageshadow="2"
     inkscape:zoom="2.3131435"
     inkscape:cx="71.365997"
     inkscape:cy="81.706993"
     inkscape:document-units="px"
     inkscape:current-layer="layer1"
     inkscape:window-width="697"
     inkscape:window-height="581"
     inkscape:window-x="33"
     inkscape:window-y="39" />
  <metadata
     id="metadata2792">
    <rdf:RDF>
      <cc:Work
         rdf:about="">
        <dc:format>image/svg+xml</dc:format>
        <dc:type
           rdf:resource="http://purl.org/dc/dcmitype/StillImage" />
      </cc:Work>
    </rdf:RDF>
  </metadata>
  <g
     inkscape:label="Layer 1"
     inkscape:groupmode="layer"
     id="layer1"
     transform="translate(-217.20543,-384.90698)">
    <rect
       id="rect7"
       height="141.73199"
       width="141.73199"
       style="fill:#ffffff;stroke:#000000;overflow:visible"
       y="385.40698"
       x="217.70543" />
    <g
       transform="matrix(0.5,0,0,0.5,135.27493,455.15147)"
       style="overflow:visible"
       id="g9">
      <path
         d="M 166.434,154.975 L 251.982,155.126 C 253.177,155.126 254.245,154.948 254.245,157.512 L 254.141,185.688 L 164.276,185.688 L 164.276,157.41 C 164.275,156.145 164.397,154.975 166.434,154.975 z "
         style="fill:#aab2ab"
         id="path3817_3_" />
      <path
         id="path12"
         d="M 252.729,154.639 L 165.557,154.639 C 164.622,154.639 163.861,155.4 163.861,156.333 L 163.861,185.956 C 163.861,186.167 164.033,186.339 164.244,186.339 L 254.042,186.339 C 254.253,186.339 254.425,186.167 254.425,185.956 L 254.425,156.333 C 254.425,155.4 253.664,154.639 252.729,154.639 z M 165.557,155.406 L 252.729,155.406 C 253.242,155.406 253.658,155.822 253.658,156.336 C 253.658,156.336 253.658,168.254 253.658,176.877 L 191.353,176.877 C 189.069,181.006 184.669,183.812 179.62,183.812 C 174.569,183.812 170.17,181.008 167.888,176.877 L 164.627,176.877 C 164.627,168.254 164.627,156.336 164.627,156.336 C 164.627,155.822 165.044,155.406 165.557,155.406 z " />
      <g
         id="g5908_3_">
        <path
           d="M 189.916,169.391 C 189.92,175.074 185.315,179.683 179.632,179.687 C 173.949,179.69 169.34,175.085 169.336,169.403 C 169.336,169.399 169.336,169.395 169.336,169.391 C 169.332,163.706 173.937,159.098 179.62,159.094 C 185.304,159.091 189.913,163.697 189.916,169.378 C 189.916,169.382 189.916,169.386 189.916,169.391 z "
           style="fill:#ffffff"
           id="path5906_3_" />
        <g
           id="g5706_3_">
          <path
             id="path17"
             d="M 187.991,161.009 C 190.272,163.29 191.414,166.085 191.414,169.391 C 191.414,172.697 190.292,175.46 188.05,177.684 C 185.67,180.026 182.857,181.196 179.611,181.196 C 176.404,181.196 173.64,180.037 171.32,177.715 C 168.998,175.396 167.838,172.619 167.838,169.395 C 167.838,166.171 168.998,163.374 171.32,161.01 C 173.582,158.731 176.346,157.586 179.611,157.586 C 182.916,157.585 185.708,158.727 187.991,161.009 z M 172.855,162.544 C 170.926,164.491 169.961,166.773 169.961,169.394 C 169.961,172.011 170.916,174.275 172.825,176.184 C 174.735,178.091 177.008,179.046 179.645,179.046 C 182.282,179.046 184.575,178.083 186.524,176.151 C 188.374,174.36 189.299,172.106 189.299,169.39 C 189.299,166.694 188.359,164.407 186.479,162.526 C 184.6,160.646 182.322,159.708 179.646,159.708 C 176.97,159.708 174.705,160.656 172.855,162.544 z M 177.932,168.244 C 177.638,167.599 177.197,167.278 176.608,167.278 C 175.568,167.278 175.048,167.979 175.048,169.381 C 175.048,170.781 175.568,171.483 176.608,171.483 C 177.295,171.483 177.786,171.142 178.08,170.462 L 179.522,171.231 C 178.834,172.453 177.803,173.063 176.428,173.063 C 175.367,173.063 174.518,172.739 173.88,172.087 C 173.241,171.438 172.922,170.54 172.922,169.399 C 172.922,168.276 173.252,167.384 173.909,166.724 C 174.567,166.063 175.387,165.734 176.369,165.734 C 177.823,165.734 178.863,166.306 179.493,167.451 L 177.932,168.244 z M 184.717,168.244 C 184.422,167.599 183.989,167.278 183.419,167.278 C 182.358,167.278 181.827,167.979 181.827,169.381 C 181.827,170.781 182.358,171.483 183.419,171.483 C 184.107,171.483 184.589,171.142 184.864,170.462 L 186.339,171.231 C 185.652,172.453 184.623,173.063 183.25,173.063 C 182.191,173.063 181.344,172.739 180.706,172.087 C 180.069,171.438 179.75,170.54 179.75,169.399 C 179.75,168.276 180.074,167.384 180.721,166.724 C 181.368,166.063 182.191,165.734 183.191,165.734 C 184.642,165.734 185.681,166.306 186.308,167.451 L 184.717,168.244 z " />
        </g>
      </g>
      <g
         style="enable-background:new"
         id="g370_1_">
        <path
           id="path20"
           d="M 200.157,179.356 C 200.395,179.356 200.614,179.377 200.81,179.418 C 201.006,179.461 201.174,179.529 201.314,179.625 C 201.454,179.724 201.563,179.851 201.64,180.006 C 201.717,180.164 201.756,180.36 201.756,180.594 C 201.756,180.849 201.699,181.058 201.584,181.226 C 201.47,181.395 201.301,181.532 201.076,181.64 C 201.385,181.728 201.616,181.881 201.768,182.105 C 201.92,182.331 201.997,182.592 201.997,182.909 C 201.997,183.163 201.948,183.38 201.85,183.562 C 201.751,183.749 201.619,183.897 201.454,184.01 C 201.288,184.127 201.098,184.213 200.886,184.273 C 200.673,184.333 200.454,184.357 200.23,184.357 L 197.803,184.357 L 197.803,179.359 L 200.157,179.356 L 200.157,179.356 z M 200.017,181.376 C 200.212,181.376 200.374,181.329 200.5,181.233 C 200.626,181.141 200.689,180.993 200.689,180.782 C 200.689,180.667 200.668,180.568 200.626,180.497 C 200.584,180.421 200.528,180.364 200.458,180.319 C 200.388,180.277 200.307,180.251 200.216,180.231 C 200.125,180.213 200.03,180.21 199.932,180.21 L 198.902,180.21 L 198.902,181.376 L 200.017,181.376 L 200.017,181.376 z M 200.081,183.5 C 200.189,183.5 200.291,183.49 200.39,183.469 C 200.489,183.449 200.575,183.412 200.65,183.365 C 200.725,183.316 200.784,183.25 200.829,183.166 C 200.874,183.082 200.896,182.977 200.896,182.844 C 200.896,182.588 200.823,182.406 200.679,182.295 C 200.533,182.188 200.343,182.131 200.104,182.131 L 198.904,182.131 L 198.904,183.502 L 200.081,183.502 L 200.081,183.5 L 200.081,183.5 z "
           style="fill:#ffffff" />
        <polygon
           points="202.19,179.356 203.423,179.356 204.593,181.33 205.756,179.356 206.982,179.356 205.126,182.436 205.126,184.354 204.025,184.354 204.025,182.408 202.19,179.356 "
           style="fill:#ffffff"
           id="path374_1_" />
      </g>
      <g
         style="enable-background:new"
         id="g376_1_">
        <polygon
           points="218.59,179.356 220.678,182.708 220.69,182.708 220.69,179.356 221.721,179.356 221.721,184.354 220.622,184.354 218.542,181.007 218.528,181.007 218.528,184.354 217.497,184.354 217.497,179.356 218.59,179.356 "
           style="fill:#ffffff"
           id="path378_1_" />
        <path
           d="M 225.894,180.688 C 225.829,180.584 225.747,180.49 225.648,180.412 C 225.55,180.332 225.44,180.269 225.316,180.225 C 225.192,180.18 225.062,180.16 224.927,180.16 C 224.68,180.16 224.469,180.207 224.297,180.306 C 224.124,180.401 223.984,180.53 223.878,180.69 C 223.77,180.852 223.691,181.038 223.643,181.241 C 223.595,181.445 223.57,181.659 223.57,181.88 C 223.57,182.089 223.594,182.294 223.643,182.489 C 223.692,182.687 223.77,182.868 223.878,183.024 C 223.984,183.183 224.125,183.309 224.297,183.407 C 224.47,183.505 224.68,183.552 224.927,183.552 C 225.263,183.552 225.526,183.448 225.715,183.243 C 225.904,183.038 226.02,182.764 226.061,182.431 L 227.125,182.431 C 227.097,182.743 227.024,183.028 226.908,183.28 C 226.792,183.533 226.637,183.748 226.446,183.926 C 226.255,184.107 226.03,184.239 225.773,184.334 C 225.517,184.428 225.234,184.477 224.926,184.477 C 224.543,184.477 224.199,184.413 223.893,184.277 C 223.587,184.145 223.329,183.964 223.119,183.727 C 222.908,183.497 222.747,183.217 222.635,182.905 C 222.523,182.591 222.467,182.253 222.467,181.884 C 222.467,181.509 222.524,181.163 222.635,180.843 C 222.747,180.526 222.908,180.243 223.119,180.007 C 223.329,179.771 223.588,179.581 223.893,179.445 C 224.199,179.309 224.543,179.243 224.926,179.243 C 225.201,179.243 225.462,179.281 225.707,179.361 C 225.951,179.44 226.171,179.555 226.364,179.71 C 226.558,179.86 226.718,180.05 226.844,180.272 C 226.97,180.494 227.049,180.752 227.082,181.043 L 226.018,181.043 C 226.001,180.908 225.958,180.792 225.894,180.688 z "
           style="fill:#ffffff"
           id="path380_1_" />
      </g>
      <g
         style="enable-background:new"
         id="g382_1_">
        <polygon
           points="238.09,179.356 240.178,182.708 240.19,182.708 240.19,179.356 241.221,179.356 241.221,184.354 240.122,184.354 238.042,181.007 238.028,181.007 238.028,184.354 236.997,184.354 236.997,179.356 238.09,179.356 "
           style="fill:#ffffff"
           id="path384_1_" />
        <path
           id="path28"
           d="M 244.342,179.356 C 244.665,179.356 244.965,179.408 245.243,179.509 C 245.521,179.612 245.762,179.766 245.965,179.971 C 246.168,180.175 246.327,180.434 246.442,180.742 C 246.557,181.051 246.614,181.412 246.614,181.828 C 246.614,182.191 246.567,182.526 246.474,182.836 C 246.38,183.147 246.239,183.41 246.05,183.633 C 245.86,183.86 245.625,184.035 245.342,184.162 C 245.06,184.291 244.727,184.354 244.343,184.354 L 242.185,184.354 L 242.185,179.356 L 244.342,179.356 z M 244.266,183.428 C 244.425,183.428 244.579,183.403 244.728,183.351 C 244.877,183.298 245.01,183.214 245.127,183.096 C 245.244,182.977 245.337,182.824 245.408,182.63 C 245.477,182.44 245.512,182.206 245.512,181.932 C 245.512,181.68 245.488,181.453 245.439,181.249 C 245.39,181.044 245.309,180.872 245.197,180.728 C 245.085,180.583 244.937,180.472 244.752,180.396 C 244.567,180.319 244.34,180.283 244.069,180.283 L 243.285,180.283 L 243.285,183.429 L 244.266,183.429 L 244.266,183.428 z "
           style="fill:#ffffff" />
      </g>
      <g
         id="g6370_2_">
        <g
           id="g7610_2_">
          <path
             d="M 230.125,165.946 C 230.129,170.098 226.766,173.467 222.613,173.468 C 218.462,173.471 215.094,170.108 215.092,165.956 C 215.092,165.952 215.092,165.948 215.092,165.942 C 215.089,161.794 218.452,158.421 222.604,158.421 C 226.756,158.419 230.123,161.78 230.125,165.934 C 230.125,165.938 230.125,165.943 230.125,165.946 z "
             style="fill:#ffffff"
             id="path6372_2_" />
          <path
             id="path33"
             d="M 222.596,157.195 C 225.05,157.195 227.124,158.041 228.818,159.732 C 230.512,161.423 231.36,163.498 231.36,165.946 C 231.36,168.396 230.527,170.446 228.862,172.093 C 227.095,173.829 225.006,174.698 222.596,174.698 C 220.216,174.698 218.164,173.837 216.441,172.116 C 214.718,170.392 213.856,168.339 213.856,165.943 C 213.856,163.549 214.717,161.479 216.441,159.729 C 218.121,158.041 220.172,157.195 222.596,157.195 z M 215.825,163.593 C 215.564,164.333 215.433,165.116 215.433,165.946 C 215.433,167.886 216.142,169.563 217.558,170.979 C 218.975,172.393 220.661,173.1 222.618,173.1 C 224.575,173.1 226.276,172.384 227.722,170.954 C 228.206,170.485 228.606,169.975 228.918,169.425 L 225.618,167.956 C 225.395,169.063 224.405,169.812 223.21,169.9 L 223.21,171.253 L 222.205,171.253 L 222.205,169.9 C 221.223,169.889 220.274,169.489 219.549,168.852 L 220.755,167.637 C 221.335,168.183 221.916,168.428 222.709,168.428 C 223.222,168.428 223.791,168.227 223.791,167.559 C 223.791,167.325 223.7,167.159 223.556,167.036 L 222.721,166.665 L 221.682,166.202 C 221.168,165.973 220.732,165.776 220.296,165.585 L 215.825,163.593 z M 222.619,158.77 C 220.632,158.77 218.953,159.468 217.58,160.871 C 217.207,161.248 216.882,161.642 216.606,162.053 L 219.951,163.543 C 220.254,162.615 221.136,162.051 222.206,161.99 L 222.206,160.639 L 223.211,160.639 L 223.211,161.99 C 223.903,162.022 224.662,162.213 225.41,162.791 L 224.26,163.977 C 223.836,163.674 223.301,163.461 222.765,163.461 C 222.329,163.461 221.715,163.594 221.715,164.144 C 221.715,164.227 221.743,164.297 221.794,164.368 L 222.913,164.864 L 223.67,165.204 C 224.154,165.421 224.617,165.626 225.075,165.829 L 229.559,167.823 C 229.707,167.237 229.782,166.612 229.782,165.952 C 229.782,163.954 229.081,162.263 227.679,160.876 C 226.292,159.468 224.605,158.77 222.619,158.77 z " />
        </g>
      </g>
      <g
         id="g6394_2_">
        <path
           d="M 250.401,165.946 C 250.405,170.358 246.831,173.937 242.42,173.941 C 238.008,173.944 234.428,170.371 234.425,165.959 C 234.425,165.955 234.425,165.951 234.425,165.946 C 234.422,161.535 237.996,157.957 242.408,157.953 C 246.819,157.949 250.398,161.522 250.401,165.934 C 250.401,165.938 250.401,165.942 250.401,165.946 z "
           style="fill:#ffffff"
           id="path6396_2_" />
        <g
           id="g6398_2_">
          <path
             id="path38"
             d="M 242.288,157.195 C 239.864,157.195 237.811,158.041 236.132,159.732 C 234.408,161.482 233.547,163.553 233.547,165.946 C 233.547,168.34 234.408,170.395 236.132,172.117 C 237.855,173.838 239.907,174.699 242.288,174.699 C 244.698,174.699 246.786,173.83 248.553,172.095 C 250.217,170.449 251.051,168.398 251.051,165.949 C 251.051,163.5 250.204,161.428 248.509,159.734 C 246.814,158.039 244.741,157.195 242.288,157.195 z M 242.309,158.769 C 244.295,158.769 245.982,159.468 247.371,160.871 C 248.772,162.256 249.473,163.949 249.473,165.946 C 249.473,167.961 248.787,169.631 247.415,170.957 C 245.968,172.389 244.267,173.103 242.31,173.103 C 240.353,173.103 238.666,172.396 237.25,170.98 C 235.833,169.566 235.125,167.888 235.125,165.951 C 235.125,164.012 235.84,162.317 237.272,160.875 C 238.644,159.468 240.323,158.769 242.309,158.769 z " />
          <g
             id="g6402_2_">
            <path
               id="path41"
               d="M 245.605,163.873 L 239.244,163.873 L 239.244,165.379 L 245.605,165.379 L 245.605,163.873 z M 245.605,166.684 L 239.244,166.684 L 239.244,168.191 L 245.605,168.191 L 245.605,166.684 z " />
          </g>
        </g>
      </g>
      <g
         id="g398_1_">
        <circle
           sodipodi:ry="8.1040001"
           sodipodi:rx="8.1040001"
           sodipodi:cy="166.125"
           sodipodi:cx="202.927"
           r="8.1040001"
           cy="166.125"
           cx="202.927"
           style="fill:#ffffff"
           id="circle400_1_" />
        <g
           id="g402_1_">
          <path
             d="M 205.273,163.779 C 205.273,163.467 205.02,163.215 204.708,163.215 L 201.129,163.215 C 200.817,163.215 200.564,163.469 200.564,163.779 L 200.564,167.359 L 201.562,167.359 L 201.562,171.598 L 204.275,171.598 L 204.275,167.359 L 205.274,167.359 L 205.273,163.779 L 205.273,163.779 z "
             id="path404_1_" />
          <circle
             sodipodi:ry="1.226"
             sodipodi:rx="1.226"
             sodipodi:cy="161.51801"
             sodipodi:cx="202.91701"
             r="1.226"
             cy="161.51801"
             cx="202.91701"
             id="circle406_1_" />
        </g>
        <path
           id="path48"
           d="M 202.907,157.195 C 200.483,157.195 198.431,158.041 196.752,159.733 C 195.028,161.482 194.167,163.553 194.167,165.946 C 194.167,168.338 195.028,170.395 196.752,172.117 C 198.475,173.838 200.527,174.699 202.907,174.699 C 205.316,174.699 207.405,173.83 209.173,172.094 C 210.838,170.449 211.67,168.4 211.67,165.949 C 211.67,163.498 210.823,161.428 209.129,159.735 C 207.434,158.041 205.361,157.195 202.907,157.195 z M 202.929,158.769 C 204.915,158.769 206.601,159.468 207.989,160.871 C 209.391,162.256 210.093,163.949 210.093,165.946 C 210.093,167.959 209.406,169.631 208.033,170.957 C 206.587,172.389 204.886,173.103 202.929,173.103 C 200.971,173.103 199.284,172.396 197.868,170.981 C 196.452,169.566 195.743,167.888 195.743,165.951 C 195.743,164.012 196.458,162.317 197.889,160.875 C 199.263,159.468 200.943,158.769 202.929,158.769 z " />
      </g>
    </g>
    <g
       transform="translate(53.844439,384.90697)"
       style="overflow:visible"
       id="g179">
      <ellipse
         sodipodi:ry="6.7199998"
         sodipodi:rx="7.3600001"
         sodipodi:cy="106.516"
         sodipodi:cx="185.992"
         id="ellipse181"
         ry="6.7199998"
         rx="7.3600001"
         cy="106.516"
         cx="185.992"
         style="fill:#ffffff;stroke:#000000;stroke-width:0.9921" />
      <ellipse
         sodipodi:ry="3.1989999"
         sodipodi:rx="3.8399999"
         sodipodi:cy="118.535"
         sodipodi:cx="176.214"
         id="ellipse183"
         ry="3.1989999"
         rx="3.8399999"
         cy="118.535"
         cx="176.214"
         style="fill:#ffffff;stroke:#000000;stroke-width:0.9921" />
      <g
         id="g185">
        <g
           id="g187">
          <path
             id="path189"
             d="M 288.734,62.125 C 290.903,60.454 292.208,58.32 292.208,55.994 C 292.208,50.637 285.311,46.295 276.803,46.295 C 276.422,46.295 276.047,46.314 275.671,46.331 C 276.471,45.159 276.917,43.868 276.917,42.51 C 276.917,37.153 270.021,32.811 261.514,32.811 C 259.763,32.811 258.087,33.003 256.52,33.342 C 254.866,29.108 248.813,25.964 241.58,25.964 C 237.326,25.964 233.474,27.05 230.686,28.806 C 227.94,27.209 224.281,26.224 220.248,26.224 C 211.741,26.224 204.845,30.567 204.845,35.923 C 204.845,36.009 204.862,36.092 204.865,36.178 C 204.73,36.175 204.597,36.165 204.461,36.165 C 195.954,36.165 189.058,40.507 189.058,45.864 C 189.058,47.949 190.113,49.876 191.891,51.458 C 184.26,52.036 178.341,56.12 178.341,61.081 C 178.341,65.09 182.205,68.53 187.716,70.008 C 184.74,71.777 182.872,74.276 182.872,77.056 C 182.872,81.726 188.115,85.623 195.096,86.546 C 193.455,87.893 192.433,89.77 192.433,91.849 C 192.433,95.946 196.388,99.266 201.267,99.266 C 205.454,99.266 208.952,96.819 209.863,93.536 C 212.669,95.395 216.623,96.559 221.017,96.559 C 224.961,96.559 228.546,95.618 231.27,94.082 C 233.598,97.58 239.082,100.037 245.481,100.037 C 251.4,100.037 256.531,97.933 259.111,94.849 C 260.81,95.257 262.647,95.489 264.573,95.489 C 273.079,95.489 279.976,91.147 279.976,85.79 C 279.976,83.489 278.698,81.378 276.572,79.716 C 277.875,79.942 279.241,80.072 280.659,80.072 C 289.165,80.072 296.062,75.73 296.062,70.373 C 296.061,66.883 293.125,63.834 288.734,62.125 z "
             style="fill:#ffffff" />
        </g>
        <g
           id="g191">
          <path
             id="path193"
             d="M 288.734,62.125 C 290.903,60.454 292.208,58.32 292.208,55.994 C 292.208,50.637 285.311,46.295 276.803,46.295 C 276.422,46.295 276.047,46.314 275.671,46.331 C 276.471,45.159 276.917,43.868 276.917,42.51 C 276.917,37.153 270.021,32.811 261.514,32.811 C 259.763,32.811 258.087,33.003 256.52,33.342 C 254.866,29.108 248.813,25.964 241.58,25.964 C 237.326,25.964 233.474,27.05 230.686,28.806 C 227.94,27.209 224.281,26.224 220.248,26.224 C 211.741,26.224 204.845,30.567 204.845,35.923 C 204.845,36.009 204.862,36.092 204.865,36.178 C 204.73,36.175 204.597,36.165 204.461,36.165 C 195.954,36.165 189.058,40.507 189.058,45.864 C 189.058,47.949 190.113,49.876 191.891,51.458 C 184.26,52.036 178.341,56.12 178.341,61.081 C 178.341,65.09 182.205,68.53 187.716,70.008 C 184.74,71.777 182.872,74.276 182.872,77.056 C 182.872,81.726 188.115,85.623 195.096,86.546 C 193.455,87.893 192.433,89.77 192.433,91.849 C 192.433,95.946 196.388,99.266 201.267,99.266 C 205.454,99.266 208.952,96.819 209.863,93.536 C 212.669,95.395 216.623,96.559 221.017,96.559 C 224.961,96.559 228.546,95.618 231.27,94.082 C 233.598,97.58 239.082,100.037 245.481,100.037 C 251.4,100.037 256.531,97.933 259.111,94.849 C 260.81,95.257 262.647,95.489 264.573,95.489 C 273.079,95.489 279.976,91.147 279.976,85.79 C 279.976,83.489 278.698,81.378 276.572,79.716 C 277.875,79.942 279.241,80.072 280.659,80.072 C 289.165,80.072 296.062,75.73 296.062,70.373 C 296.061,66.883 293.125,63.834 288.734,62.125 z "
             style="fill:none;stroke:#000000;stroke-width:0.9921" />
        </g>
      </g>
    </g>
  </g>
</svg>
