<?xml version="1.0" encoding="UTF-8" standalone="no"?>
<!-- Created with Inkscape (http://www.inkscape.org/) -->
<svg
   xmlns:dc="http://purl.org/dc/elements/1.1/"
   xmlns:cc="http://web.resource.org/cc/"
   xmlns:rdf="http://www.w3.org/1999/02/22-rdf-syntax-ns#"
   xmlns:svg="http://www.w3.org/2000/svg"
   xmlns="http://www.w3.org/2000/svg"
   xmlns:sodipodi="http://sodipodi.sourceforge.net/DTD/sodipodi-0.dtd"
   xmlns:inkscape="http://www.inkscape.org/namespaces/inkscape"
   width="142.73199"
   height="163.41476"
   id="svg2923"
   sodipodi:version="0.32"
   inkscape:version="0.45.1"
   version="1.0"
   sodipodi:docbase="/Users/robmyers/Desktop/cc-ironies/final"
   sodipodi:docname="treasure_map.svg"
   inkscape:output_extension="org.inkscape.output.svg.inkscape">
  <defs
     id="defs2925" />
  <sodipodi:namedview
     id="base"
     pagecolor="#ffffff"
     bordercolor="#666666"
     borderopacity="1.0"
     gridtolerance="10000"
     guidetolerance="10"
     objecttolerance="10"
     inkscape:pageopacity="0.0"
     inkscape:pageshadow="2"
     inkscape:zoom="2.3131325"
     inkscape:cx="71.365997"
     inkscape:cy="81.707382"
     inkscape:document-units="px"
     inkscape:current-layer="layer1"
     inkscape:window-width="697"
     inkscape:window-height="581"
     inkscape:window-x="19"
     inkscape:window-y="28" />
  <metadata
     id="metadata2928">
    <rdf:RDF>
      <cc:Work
         rdf:about="">
        <dc:format>image/svg+xml</dc:format>
        <dc:type
           rdf:resource="http://purl.org/dc/dcmitype/StillImage" />
      </cc:Work>
    </rdf:RDF>
  </metadata>
  <g
     inkscape:label="Layer 1"
     inkscape:groupmode="layer"
     id="layer1"
     transform="translate(-422.91971,-616.33502)">
    <rect
       x="423.41971"
       y="616.83502"
       style="fill:#2284ba;stroke:#000000"
       width="141.73199"
       height="141.73199"
       id="rect227" />
    <g
       id="g229"
       transform="translate(96.197732,616.33504)">
      <path
         style="fill:#269a39;stroke:#000000"
         d="M 369.614,33.808 C 370.347,34.649 371.518,34.662 372.301,35.037 C 373.178,35.456 373.878,35.54 374.793,35.49 C 375.71,35.439 376.906,36.187 377.837,35.787 C 378.689,35.42 379.732,35.018 380.576,34.455 C 381.356,33.935 382.201,33.33 382.958,32.718 C 383.665,32.148 384.089,31.198 384.763,30.61 C 385.484,29.98 386.576,29.813 387.245,29.233 C 387.987,28.59 387.886,27.035 388.544,26.548 C 389.308,25.983 390.088,25.509 390.71,25.297 C 391.495,25.029 392.329,25.324 392.831,25.899 C 393.458,26.618 393.638,28.094 394.382,28.465 C 395.154,28.851 396.236,29.167 397.059,29.319 C 397.913,29.477 398.966,28.414 399.79,28.479 C 400.763,28.555 401.833,28.102 402.632,28.293 C 403.421,28.482 404.237,29.199 404.725,29.756 C 405.91,31.112 406.537,31.168 406.925,31.612 C 407.255,31.989 407.491,32.577 408.542,33.783 C 409.563,34.953 409.643,35.964 409.887,36.404 C 410.191,36.951 409.968,37.318 408.814,38.642 C 408.427,39.085 407.351,38.768 406.289,39.145 C 405.56,39.403 405.045,40.649 404.136,40.915 C 403.318,41.154 402.217,40.641 401.334,40.91 C 400.525,41.156 400.158,42.728 399.363,43.018 C 398.541,43.316 397.317,42.553 396.573,42.916 C 395.798,43.295 394.971,43.651 394.354,44.123 C 393.638,44.67 393.903,45.933 393.51,46.636 C 393.156,47.269 391.576,47.625 391.576,48.41 C 391.576,49.509 392.749,50.414 393.006,51.289 C 393.281,52.226 393.181,53.281 393.669,53.981 C 394.242,54.806 395.694,54.578 396.431,55.107 C 397.218,55.672 397.452,57.056 398.26,57.323 C 399.104,57.602 399.993,56.719 400.667,56.719 C 401.719,56.719 401.792,58.73 401.919,59.869 C 402.063,61.133 402.648,62.935 404.03,62.123 C 404.573,61.805 404.286,59.902 405.288,58.869 C 405.819,58.323 407.184,58.387 407.876,57.594 C 408.532,56.841 409.227,56.274 409.737,55.687 C 410.482,54.832 411.341,54.363 411.831,53.801 C 412.667,52.844 412.503,51.672 412.849,51.278 C 413.658,50.352 414.057,50.943 415.037,49.82 C 415.356,49.453 415.988,49.119 416.617,48.4 C 417.322,47.589 416.856,46.209 417.179,45.604 C 417.793,44.452 418.922,44.129 419.153,43.578 C 419.423,42.934 419.18,41.456 420.882,41.345 C 421.464,41.307 422.249,42.105 423.163,42.105 C 424.104,42.105 424.95,42.138 425.71,42.084 C 426.618,42.019 427.391,41.852 428.064,41.751 C 429.081,41.601 429.823,41.303 430.392,41.205 C 431.502,41.013 432.086,41.31 432.086,42.204 C 432.086,43.285 432.925,43.376 433.92,43.631 C 434.687,43.827 434.729,43.922 435.451,43.093 C 437.119,41.182 436.402,41.416 437.432,42.155 C 438.386,42.84 438.546,42.617 439.499,43.301 C 440.212,43.811 440.64,43.348 440.997,44.147 C 441.536,45.351 441.518,45.46 441.253,46.826 C 441.073,47.749 440.563,48.485 440.732,49.277 C 440.914,50.107 440.914,49.838 441.904,49.838 C 442.537,49.838 443.541,51.342 444.879,51.621 C 445.733,51.799 446.961,50.884 447.978,51.132 C 448.918,51.362 449.847,51.901 450.84,52.164 C 451.787,52.414 452.611,53.156 453.535,53.411 C 454.436,53.66 455.074,54.748 455.889,54.98 C 456.854,55.254 458.182,53.947 458.922,54.164 C 460.36,54.583 460.722,54.265 461.508,55.206 C 462.388,56.257 461.526,56.767 461.791,58.228 C 461.959,59.15 462.051,60.193 462.065,61.067 C 462.086,62.281 461.793,63.175 461.063,63.175 C 460.33,63.175 459.437,63.562 458.518,63.562 C 457.684,63.562 456.828,62.938 456.04,62.938 C 455.245,62.938 454.523,63.768 453.979,63.768 C 453.198,63.768 452.254,64.289 451.256,65.181 C 450.125,66.191 450.281,65.873 449.889,67.289 C 449.58,68.397 448.83,68.186 448.83,69.336 C 448.83,70.335 448.129,70.643 448.576,71.536 C 449.381,73.139 450.231,72.619 451.412,73.971 C 452.42,75.127 452.018,75.32 452.74,76.675 C 453.41,77.937 452.731,77.443 452.185,78.939 C 451.896,79.731 451.835,80.648 451.251,81.403 C 450.698,82.118 450.165,82.906 449.264,83.311 C 448.593,83.612 447.796,83.57 446.894,83.57 C 446.067,83.57 445.04,84.399 444.115,84.234 C 443.263,84.083 442.709,82.465 441.836,82.219 C 440.904,81.957 439.508,83.104 438.613,82.784 C 437.738,82.471 437.017,81.744 436.242,81.424 C 435.317,81.044 434.305,81.02 433.617,80.702 C 432.35,80.12 433.179,78.526 432.07,78.261 C 430.836,77.967 430.549,79.417 429.295,79.229 C 427.949,79.028 428.162,77.603 426.816,77.401 C 425.696,77.234 425.581,78.003 424.458,77.835 C 423.393,77.676 423.678,77.771 422.73,78.291 C 421.064,79.207 421.698,80.008 419.8,80.149 C 418.412,80.252 418.041,77.527 420.088,79.874 C 420.498,80.345 420.009,81.946 420.812,82.867 C 421.239,83.356 422.791,82.989 423.353,83.631 C 424.102,84.49 424.909,85 425.541,85.595 C 426.384,86.386 426.076,88.353 426.748,88.783 C 427.74,89.418 429.199,88.48 429.929,88.657 C 430.916,88.896 431.737,88.92 432.514,89.15 C 433.168,89.344 433.469,90.289 434.18,91.104 C 434.948,91.983 435.553,92.654 436.041,93.215 C 436.756,94.035 437.031,94.788 437.514,95.34 C 437.953,95.846 438.099,96.592 438.686,97.266 C 439.288,97.954 440.239,98.024 440.207,98.622 C 440.15,99.684 439.746,99.45 439.117,100.236 C 438.213,101.37 438.108,101.189 437.043,102.148 C 436.314,102.8 435.908,103.493 435.231,103.493 C 434.795,103.493 433.827,103.394 432.661,103.497 C 431.831,103.57 431.007,104.775 430.032,104.904 C 429.221,105.008 428.227,104.046 427.441,104.193 C 426.581,104.353 426.118,105.873 425.42,106.084 C 424.481,106.369 422.998,105.387 422.666,105.77 C 421.207,107.44 425.188,104.608 422.064,108.188 C 421.459,108.884 420.71,109.495 420.191,110.352 C 419.629,111.276 419.742,112.518 419.296,113.456 C 418.833,114.441 417.442,114.93 417.13,115.73 C 416.595,117.105 417.192,116.949 417.091,118.179 C 416.931,120.118 416.487,121.287 414.196,121.287 C 411.905,121.287 416.068,120.891 411.905,120.891 C 411.038,120.891 410.093,120.926 409.12,121.055 C 408.204,121.176 407.12,120.313 406.239,120.449 C 405.239,120.6 404.423,121.137 403.642,121.176 C 402.334,121.238 401.498,121.558 401.498,120.755 C 401.498,120.335 400.871,119.615 399.795,118.847 C 399.178,118.404 398.654,117.521 397.817,117.017 C 397.055,116.558 395.775,116.853 394.91,116.373 C 394.105,115.931 393.495,115.073 392.663,114.64 C 391.874,114.226 391.434,113.132 390.674,112.747 C 389.941,112.377 388.811,112.858 388.152,112.535 C 387.372,112.149 387.06,110.973 386.453,110.681 C 385.183,110.072 385.041,110.998 383.939,110.669 C 383.493,110.669 382.68,111.118 381.476,111.29 C 380.684,111.401 379.703,111.006 378.75,111.159 C 377.866,111.304 377.071,112.22 376.158,112.373 C 375.274,112.522 374.31,112.133 373.496,112.274 C 372.666,112.42 371.975,112.991 371.317,113.108 C 369.986,113.346 370.33,113.33 369.266,113.682 C 367.769,114.178 367.751,113.557 366.188,114.307 C 365.268,114.747 364.068,114.897 363.182,115.393 C 362.171,115.958 360.778,116.158 360.407,116.581 C 359.831,117.24 359.208,118.674 357.896,118.866 C 356.36,119.092 356.27,117.95 354.779,118.122 C 353.535,118.266 353.759,118.807 352.379,119.083 C 351.622,119.234 350.727,118.965 349.898,119.061 C 349.095,119.151 348.435,118.942 347.788,118.887 C 346.82,118.805 346.815,119.264 346.815,118.604 C 346.815,118.042 345.804,117.102 345.206,116.088 C 344.772,115.354 343.496,115.061 342.914,114.251 C 342.427,113.571 342.865,112.186 342.364,111.541 C 341.784,110.795 341.082,110.2 340.603,109.619 C 339.773,108.611 338.805,109.366 338.386,108.353 C 337.851,107.062 339.066,106.621 338.665,105.283 C 338.247,103.89 338.443,103.831 338.026,102.437 C 337.629,101.112 337.838,101.046 337.441,99.722 C 337.062,98.454 336.989,98.478 336.61,97.21 C 336.245,95.993 335.03,96.356 334.665,95.144 C 334.335,94.04 335.313,93.855 335.158,92.715 C 334.979,91.398 333.746,91.486 333.746,90.156 C 333.746,88.933 335.022,88.933 335.022,87.711 C 335.022,86.442 335.055,86.442 335.055,85.174 C 335.055,83.816 334.762,83.816 334.762,82.457 C 334.762,81.326 335.154,81.326 335.154,80.194 C 335.154,79.102 334.476,79.102 334.476,78.011 C 334.476,76.679 334.314,76.82 335.015,75.407 C 335.327,74.778 335.738,74 336.39,73.337 C 336.915,72.803 338.005,72.927 338.823,72.459 C 339.384,72.138 339.43,70.481 340.155,70.223 C 341.276,69.824 342.471,70.955 342.914,70.793 C 344.233,70.313 343.185,70.039 343.937,68.439 C 344.169,67.945 345.143,67.757 345.828,66.856 C 346.198,66.369 346.627,65.87 347.183,65.233 C 347.829,64.493 348.064,63.368 348.541,62.607 C 349.056,61.786 349.649,60.96 349.996,60.144 C 350.376,59.25 349.839,58.067 350.056,57.216 C 350.3,56.256 349.943,55.327 350.033,54.476 C 350.14,53.458 350.731,52.63 350.706,51.856 C 350.656,50.323 351.878,50.302 351.513,49.103 C 351.137,48.117 350.526,47.253 350.204,46.438 C 349.86,45.566 349.839,44.667 349.555,43.945 C 349.18,42.992 347.869,42.532 347.596,41.744 C 347.313,40.928 347.223,40.125 347.042,39.366 C 346.846,38.542 347.538,37.644 347.455,36.738 C 347.392,36.043 345.946,35.379 345.946,34.555 C 345.946,33.772 347.112,32.872 347.38,31.728 C 347.583,30.861 348.09,30.024 348.4,29.034 C 348.685,28.119 349.004,27.199 349.346,26.24 C 349.668,25.339 350.163,24.511 350.508,23.619 C 350.836,22.77 350.549,21.702 350.874,20.903 C 351.24,20.006 352.199,19.413 352.531,18.632 C 352.876,17.822 351.469,16.343 351.741,15.726 C 352.314,14.426 354.321,15.318 353.245,14.903 C 352.204,14.501 351.137,14.549 354.113,14.549 C 354.608,14.549 355.254,14.075 356.086,14.075 C 356.992,14.075 358.093,13.417 358.952,13.66 C 359.869,13.919 360.899,14.349 361.722,14.781 C 362.522,15.201 362.625,16.76 363.297,17.241 C 364.091,17.809 365.43,17.586 365.985,18.087 C 366.937,18.944 365.821,19.348 366.197,20.341 C 366.746,21.79 367.217,21.57 367.626,23.065 C 368.037,24.564 368.63,24.401 369.041,25.9 C 369.366,27.085 369.641,27.138 369.41,28.344 C 369.12,29.856 368.294,29.3 368.655,31.101 C 368.807,31.812 368.796,32.871 369.614,33.808 z "
         id="path231" />
    </g>
    <g
       id="g233"
       transform="matrix(0.5,0,0,0.5,259.30872,686.57979)">
      <path
         id="path3817_2_"
         style="fill:#aab2ab"
         d="M 329.794,154.98 L 415.341,155.13 C 416.536,155.13 417.606,154.952 417.606,157.517 L 417.502,185.693 L 327.638,185.693 L 327.638,157.415 C 327.635,156.15 327.758,154.98 329.794,154.98 z " />
      <path
         d="M 416.089,154.639 L 328.918,154.639 C 327.983,154.639 327.222,155.401 327.222,156.335 L 327.222,185.957 C 327.222,186.168 327.394,186.34 327.605,186.34 L 417.402,186.34 C 417.613,186.34 417.785,186.168 417.785,185.957 L 417.785,156.335 C 417.787,155.4 417.025,154.639 416.089,154.639 z M 328.918,155.406 L 416.089,155.406 C 416.603,155.406 417.02,155.823 417.02,156.336 C 417.02,156.336 417.02,168.259 417.02,176.882 L 354.714,176.882 C 352.431,181.011 348.03,183.817 342.981,183.817 C 337.93,183.817 333.532,181.014 331.25,176.882 L 327.989,176.882 C 327.989,168.259 327.989,156.336 327.989,156.336 C 327.989,155.823 328.406,155.406 328.918,155.406 z "
         id="path236" />
      <g
         id="g5908_2_">
        <path
           id="path5906_2_"
           style="fill:#ffffff"
           d="M 353.276,169.396 C 353.28,175.08 348.675,179.689 342.992,179.691 C 337.309,179.697 332.7,175.088 332.696,169.409 C 332.696,169.404 332.696,169.4 332.696,169.396 C 332.692,163.71 337.297,159.103 342.98,159.099 C 348.664,159.095 353.273,163.702 353.276,169.38 C 353.276,169.389 353.276,169.393 353.276,169.396 z " />
        <g
           id="g5706_2_">
          <path
             d="M 351.351,161.016 C 353.633,163.297 354.774,166.09 354.774,169.397 C 354.774,172.705 353.653,175.466 351.41,177.69 C 349.03,180.034 346.218,181.205 342.972,181.205 C 339.765,181.205 337.001,180.045 334.681,177.726 C 332.359,175.404 331.199,172.627 331.199,169.404 C 331.199,166.175 332.359,163.383 334.681,161.021 C 336.943,158.74 339.706,157.595 342.972,157.595 C 346.276,157.591 349.069,158.732 351.351,161.016 z M 336.216,162.55 C 334.287,164.498 333.322,166.781 333.322,169.399 C 333.322,172.018 334.277,174.284 336.186,176.19 C 338.096,178.098 340.369,179.053 343.006,179.053 C 345.643,179.053 347.936,178.089 349.885,176.16 C 351.735,174.369 352.66,172.115 352.66,169.398 C 352.66,166.703 351.72,164.414 349.839,162.535 C 347.96,160.654 345.682,159.715 343.006,159.715 C 340.33,159.715 338.065,160.661 336.216,162.55 z M 341.292,168.249 C 340.997,167.605 340.557,167.284 339.968,167.284 C 338.928,167.284 338.407,167.984 338.407,169.387 C 338.407,170.787 338.928,171.487 339.968,171.487 C 340.656,171.487 341.146,171.145 341.44,170.466 L 342.882,171.236 C 342.194,172.458 341.163,173.068 339.788,173.068 C 338.727,173.068 337.878,172.744 337.24,172.091 C 336.601,171.443 336.282,170.544 336.282,169.403 C 336.282,168.28 336.611,167.386 337.269,166.729 C 337.926,166.067 338.747,165.739 339.729,165.739 C 341.183,165.739 342.223,166.311 342.853,167.456 L 341.292,168.249 z M 348.078,168.249 C 347.783,167.605 347.349,167.284 346.78,167.284 C 345.718,167.284 345.187,167.984 345.187,169.387 C 345.187,170.787 345.718,171.487 346.78,171.487 C 347.468,171.487 347.95,171.145 348.225,170.466 L 349.699,171.236 C 349.013,172.458 347.983,173.068 346.611,173.068 C 345.552,173.068 344.704,172.744 344.067,172.091 C 343.43,171.443 343.111,170.544 343.111,169.403 C 343.111,168.28 343.435,167.386 344.083,166.729 C 344.729,166.067 345.553,165.739 346.553,165.739 C 348.004,165.739 349.043,166.311 349.67,167.456 L 348.078,168.249 z "
             id="path241" />
        </g>
      </g>
      <g
         id="g126_2_">
        <circle
           id="circle128_2_"
           style="fill:#ffffff"
           cx="366.28799"
           cy="166.13"
           r="8.1040001"
           sodipodi:cx="366.28799"
           sodipodi:cy="166.13"
           sodipodi:rx="8.1040001"
           sodipodi:ry="8.1040001" />
        <g
           id="g130_2_">
          <path
             id="path132_2_"
             d="M 368.633,163.785 C 368.633,163.473 368.38,163.221 368.068,163.221 L 364.489,163.221 C 364.177,163.221 363.924,163.475 363.924,163.785 L 363.924,167.365 L 364.922,167.365 L 364.922,171.603 L 367.635,171.603 L 367.635,167.365 L 368.634,167.365 L 368.633,163.785 L 368.633,163.785 z " />
          <circle
             id="circle134_2_"
             cx="366.27802"
             cy="161.524"
             r="1.225"
             sodipodi:cx="366.27802"
             sodipodi:cy="161.524"
             sodipodi:rx="1.225"
             sodipodi:ry="1.225" />
        </g>
        <path
           d="M 366.267,157.2 C 363.843,157.2 361.791,158.046 360.112,159.738 C 358.388,161.488 357.527,163.558 357.527,165.952 C 357.527,168.344 358.388,170.4 360.112,172.122 C 361.836,173.843 363.887,174.704 366.267,174.704 C 368.676,174.704 370.766,173.837 372.533,172.1 C 374.198,170.454 375.03,168.403 375.03,165.954 C 375.03,163.503 374.183,161.433 372.489,159.739 C 370.795,158.045 368.721,157.2 366.267,157.2 z M 366.29,158.775 C 368.276,158.775 369.963,159.474 371.35,160.876 C 372.753,162.262 373.454,163.954 373.454,165.952 C 373.454,167.965 372.767,169.635 371.394,170.962 C 369.949,172.393 368.248,173.108 366.29,173.108 C 364.332,173.108 362.645,172.401 361.229,170.985 C 359.812,169.571 359.104,167.893 359.104,165.956 C 359.104,164.019 359.82,162.321 361.25,160.88 C 362.624,159.475 364.303,158.775 366.29,158.775 z "
           id="path248" />
      </g>
      <g
         id="g138_2_"
         style="enable-background:new">
        <path
           style="fill:#ffffff"
           d="M 363.75,179.357 C 363.988,179.357 364.205,179.378 364.402,179.419 C 364.597,179.46 364.766,179.527 364.907,179.625 C 365.047,179.721 365.155,179.85 365.233,180.006 C 365.31,180.164 365.348,180.36 365.348,180.593 C 365.348,180.846 365.291,181.057 365.176,181.225 C 365.062,181.393 364.892,181.53 364.667,181.636 C 364.977,181.725 365.207,181.88 365.359,182.104 C 365.511,182.327 365.588,182.591 365.588,182.905 C 365.588,183.159 365.539,183.378 365.441,183.559 C 365.343,183.747 365.211,183.895 365.045,184.009 C 364.879,184.126 364.69,184.213 364.478,184.27 C 364.264,184.329 364.046,184.356 363.822,184.356 L 361.394,184.356 L 361.394,179.358 L 363.75,179.358 L 363.75,179.357 z M 363.61,181.378 C 363.806,181.378 363.967,181.331 364.093,181.236 C 364.22,181.144 364.282,180.994 364.282,180.785 C 364.282,180.668 364.261,180.572 364.22,180.498 C 364.177,180.423 364.121,180.365 364.051,180.323 C 363.981,180.281 363.901,180.252 363.81,180.234 C 363.718,180.215 363.623,180.212 363.526,180.212 L 362.496,180.212 L 362.496,181.378 L 363.61,181.378 z M 363.674,183.5 C 363.781,183.5 363.884,183.489 363.983,183.468 C 364.081,183.447 364.168,183.412 364.243,183.364 C 364.317,183.312 364.377,183.248 364.422,183.163 C 364.466,183.079 364.488,182.973 364.488,182.843 C 364.488,182.586 364.416,182.405 364.27,182.293 C 364.125,182.184 363.934,182.129 363.696,182.129 L 362.496,182.129 L 362.496,183.5 L 363.674,183.5 z "
           id="path251" />
        <polygon
           id="path142_2_"
           style="fill:#ffffff"
           points="365.784,179.357 367.016,179.357 368.186,181.331 369.35,179.357 370.575,179.357 368.719,182.436 368.719,184.355 367.618,184.355 367.618,182.409 365.784,179.357 " />
      </g>
      <g
         id="g144_2_"
         style="enable-background:new">
        <path
           id="path146_2_"
           style="fill:#ffffff"
           d="M 401.515,183.119 C 401.576,183.236 401.656,183.33 401.755,183.402 C 401.856,183.474 401.973,183.529 402.109,183.564 C 402.244,183.599 402.382,183.617 402.528,183.617 C 402.627,183.617 402.73,183.607 402.841,183.593 C 402.952,183.576 403.058,183.544 403.153,183.497 C 403.253,183.452 403.333,183.389 403.397,183.307 C 403.459,183.225 403.497,183.119 403.497,182.995 C 403.497,182.859 403.454,182.751 403.368,182.667 C 403.282,182.582 403.169,182.514 403.026,182.456 C 402.885,182.398 402.727,182.352 402.549,182.31 C 402.371,182.267 402.194,182.22 402.012,182.167 C 401.824,182.12 401.644,182.063 401.465,181.995 C 401.287,181.931 401.129,181.841 400.988,181.731 C 400.848,181.625 400.736,181.491 400.649,181.331 C 400.563,181.169 400.52,180.977 400.52,180.746 C 400.52,180.489 400.576,180.267 400.684,180.078 C 400.792,179.889 400.937,179.729 401.115,179.602 C 401.293,179.477 401.492,179.383 401.719,179.325 C 401.943,179.263 402.164,179.231 402.391,179.231 C 402.652,179.231 402.903,179.26 403.143,179.322 C 403.379,179.38 403.596,179.471 403.784,179.602 C 403.972,179.737 404.12,179.903 404.227,180.104 C 404.334,180.307 404.391,180.553 404.391,180.842 L 403.327,180.842 C 403.315,180.696 403.286,180.571 403.231,180.473 C 403.177,180.373 403.106,180.296 403.018,180.243 C 402.93,180.186 402.83,180.145 402.713,180.125 C 402.601,180.104 402.477,180.09 402.34,180.09 C 402.252,180.09 402.162,180.101 402.074,180.118 C 401.986,180.135 401.906,180.169 401.834,180.216 C 401.765,180.265 401.703,180.32 401.656,180.392 C 401.611,180.46 401.588,180.551 401.588,180.661 C 401.588,180.759 401.608,180.838 401.646,180.896 C 401.683,180.958 401.754,181.013 401.868,181.066 C 401.976,181.118 402.13,181.169 402.323,181.216 C 402.514,181.271 402.767,181.333 403.081,181.413 C 403.175,181.434 403.304,181.466 403.47,181.517 C 403.636,181.566 403.8,181.644 403.962,181.749 C 404.126,181.854 404.267,182 404.386,182.183 C 404.505,182.361 404.565,182.589 404.565,182.871 C 404.565,183.1 404.52,183.31 404.431,183.508 C 404.341,183.705 404.21,183.873 404.035,184.018 C 403.86,184.162 403.643,184.272 403.386,184.35 C 403.127,184.43 402.826,184.468 402.489,184.468 C 402.216,184.468 401.948,184.436 401.687,184.365 C 401.424,184.297 401.2,184.189 400.999,184.046 C 400.803,183.9 400.645,183.717 400.526,183.492 C 400.409,183.265 400.352,183.002 400.358,182.691 L 401.424,182.691 C 401.423,182.859 401.455,183.002 401.515,183.119 z " />
        <path
           style="fill:#ffffff"
           d="M 407.708,179.357 L 409.577,184.355 L 408.433,184.355 L 408.054,183.242 L 406.185,183.242 L 405.789,184.355 L 404.685,184.355 L 406.578,179.357 L 407.708,179.357 z M 407.77,182.421 L 407.141,180.588 L 407.124,180.588 L 406.475,182.421 L 407.77,182.421 z "
           id="path256" />
      </g>
      <g
         id="g150_2_"
         style="enable-background:new">
        <polygon
           id="path152_2_"
           style="fill:#ffffff"
           points="381.952,179.357 384.04,182.709 384.051,182.709 384.051,179.357 385.083,179.357 385.083,184.355 383.983,184.355 381.903,181.008 381.889,181.008 381.889,184.355 380.858,184.355 380.858,179.357 381.952,179.357 " />
        <path
           id="path154_2_"
           style="fill:#ffffff"
           d="M 389.254,180.688 C 389.19,180.584 389.108,180.494 389.009,180.415 C 388.911,180.336 388.801,180.27 388.677,180.227 C 388.553,180.184 388.423,180.164 388.288,180.164 C 388.041,180.164 387.83,180.211 387.658,180.31 C 387.484,180.406 387.345,180.534 387.238,180.693 C 387.131,180.855 387.051,181.04 387.003,181.245 C 386.955,181.45 386.93,181.662 386.93,181.882 C 386.93,182.091 386.954,182.296 387.003,182.493 C 387.052,182.691 387.131,182.87 387.238,183.027 C 387.344,183.187 387.484,183.312 387.658,183.411 C 387.83,183.507 388.041,183.555 388.288,183.555 C 388.624,183.555 388.887,183.452 389.076,183.245 C 389.264,183.04 389.381,182.767 389.422,182.433 L 390.486,182.433 C 390.459,182.745 390.385,183.029 390.269,183.281 C 390.153,183.535 389.998,183.749 389.807,183.927 C 389.616,184.106 389.392,184.24 389.134,184.334 C 388.878,184.428 388.595,184.475 388.287,184.475 C 387.904,184.475 387.559,184.41 387.254,184.276 C 386.949,184.143 386.691,183.962 386.48,183.725 C 386.27,183.494 386.108,183.216 385.996,182.903 C 385.885,182.591 385.828,182.251 385.828,181.882 C 385.828,181.509 385.885,181.162 385.996,180.842 C 386.108,180.524 386.27,180.242 386.48,180.005 C 386.691,179.768 386.949,179.581 387.254,179.443 C 387.56,179.306 387.904,179.242 388.287,179.242 C 388.562,179.242 388.823,179.281 389.067,179.359 C 389.312,179.439 389.532,179.552 389.725,179.708 C 389.919,179.859 390.079,180.048 390.205,180.271 C 390.33,180.496 390.41,180.75 390.442,181.042 L 389.379,181.042 C 389.362,180.909 389.32,180.792 389.254,180.688 z " />
      </g>
      <g
         id="g6332_3_">
        <path
           id="path6334_3_"
           style="fill:#ffffff"
           d="M 413.695,165.947 C 413.699,170.357 410.125,173.937 405.713,173.941 C 401.301,173.943 397.725,170.371 397.722,165.958 C 397.722,165.955 397.722,165.95 397.722,165.947 C 397.719,161.535 401.291,157.956 405.701,157.952 C 410.113,157.949 413.692,161.523 413.695,165.933 C 413.695,165.939 413.695,165.941 413.695,165.947 z " />
        <g
           id="g6336_3_">
          <path
             d="M 405.649,157.195 C 403.225,157.195 401.171,158.042 399.496,159.732 C 397.771,161.482 396.912,163.554 396.912,165.947 C 396.912,168.339 397.774,170.394 399.496,172.116 C 401.218,173.838 403.269,174.699 405.649,174.699 C 408.059,174.699 410.147,173.831 411.916,172.095 C 413.58,170.445 414.414,168.396 414.414,165.947 C 414.414,163.497 413.565,161.425 411.871,159.732 C 410.177,158.041 408.103,157.195 405.649,157.195 z M 405.671,158.77 C 407.657,158.77 409.344,159.47 410.732,160.874 C 412.132,162.259 412.836,163.95 412.836,165.949 C 412.836,167.962 412.148,169.632 410.775,170.96 C 409.33,172.391 407.629,173.106 405.671,173.106 C 403.712,173.106 402.025,172.399 400.609,170.985 C 399.193,169.569 398.485,167.893 398.485,165.953 C 398.485,164.013 399.201,162.321 400.631,160.878 C 402.005,159.471 403.685,158.77 405.671,158.77 z "
             id="path264" />
          <path
             id="path6340_3_"
             d="M 401.77,164.711 C 402.121,162.509 403.667,161.332 405.612,161.332 C 408.406,161.332 410.108,163.359 410.108,166.062 C 410.108,168.701 408.296,170.75 405.568,170.75 C 403.691,170.75 402.009,169.596 401.705,167.327 L 403.91,167.327 C 403.975,168.504 404.739,168.919 405.832,168.919 C 407.074,168.919 407.883,167.764 407.883,165.998 C 407.883,164.144 407.188,163.163 405.875,163.163 C 404.914,163.163 404.086,163.512 403.91,164.711 L 404.551,164.707 L 402.819,166.443 L 401.087,164.707 L 401.77,164.711 z " />
        </g>
      </g>
      <g
         id="g6361_3_">
        <path
           id="path6363_3_"
           style="fill:#ffffff"
           d="M 394.111,165.947 C 394.115,170.443 390.471,174.091 385.976,174.093 C 381.479,174.096 377.831,170.453 377.829,165.957 C 377.829,165.953 377.829,165.948 377.829,165.943 C 377.825,161.448 381.468,157.798 385.964,157.797 C 390.46,157.796 394.109,161.44 394.111,165.936 C 394.111,165.938 394.111,165.943 394.111,165.947 z " />
        <path
           d="M 385.958,157.195 C 388.411,157.195 390.484,158.042 392.179,159.732 C 393.874,161.421 394.721,163.497 394.721,165.947 C 394.721,168.396 393.888,170.445 392.224,172.095 C 390.455,173.827 388.368,174.699 385.958,174.699 C 383.577,174.699 381.525,173.838 379.803,172.116 C 378.079,170.396 377.217,168.339 377.217,165.947 C 377.217,163.554 378.079,161.482 379.803,159.732 C 381.483,158.042 383.534,157.195 385.958,157.195 z M 379.187,163.596 C 378.925,164.334 378.795,165.117 378.795,165.95 C 378.795,167.888 379.503,169.565 380.92,170.979 C 382.336,172.393 384.023,173.1 385.98,173.1 C 387.937,173.1 389.639,172.387 391.084,170.956 C 391.567,170.488 391.967,169.978 392.279,169.426 L 388.98,167.956 C 388.756,169.066 387.767,169.816 386.571,169.904 L 386.571,171.254 L 385.566,171.254 L 385.566,169.904 C 384.585,169.892 383.635,169.491 382.91,168.855 L 384.115,167.64 C 384.696,168.187 385.276,168.431 386.069,168.431 C 386.583,168.431 387.152,168.23 387.152,167.562 C 387.152,167.326 387.06,167.16 386.916,167.037 L 386.082,166.665 L 385.042,166.203 C 384.528,165.974 384.093,165.78 383.656,165.586 L 379.187,163.596 z M 385.98,158.77 C 383.994,158.77 382.315,159.47 380.942,160.874 C 380.569,161.25 380.243,161.645 379.967,162.059 L 383.313,163.545 C 383.616,162.617 384.497,162.055 385.567,161.991 L 385.567,160.638 L 386.572,160.638 L 386.572,161.991 C 387.264,162.021 388.023,162.214 388.772,162.794 L 387.622,163.979 C 387.197,163.675 386.662,163.463 386.126,163.463 C 385.69,163.463 385.077,163.6 385.077,164.145 C 385.077,164.229 385.104,164.3 385.155,164.368 L 386.274,164.866 L 387.032,165.204 C 387.516,165.421 387.978,165.626 388.437,165.83 L 392.921,167.827 C 393.068,167.239 393.143,166.614 393.143,165.953 C 393.143,163.954 392.442,162.263 391.041,160.878 C 389.653,159.471 387.966,158.77 385.98,158.77 z "
           id="path269" />
      </g>
    </g>
    <path
       style="fill:#2284ba"
       d="M 479.62873,692.08404 C 478.65973,691.61104 477.73973,691.04104 476.71273,690.69704 C 474.47573,689.95004 472.32473,689.64104 469.94273,689.79504 C 468.44073,689.89304 466.36473,689.97504 464.89873,690.40604 C 463.65773,690.77204 462.54173,691.73504 461.37273,692.29204 C 460.89673,692.52004 459.88773,692.68504 459.76473,693.28304 C 458.80673,693.51204 458.23973,693.96004 457.51673,694.52604 C 457.07673,694.20204 455.55173,694.92504 455.22573,695.36104 C 454.75473,695.99304 455.12073,696.73204 455.30573,697.35504 C 455.43273,697.78004 455.54873,698.18904 455.66073,698.61304 C 456.02973,700.01504 456.43373,700.29104 457.56473,701.21304 C 458.69773,702.13704 459.47673,702.89304 460.88173,703.38604 C 462.74873,704.04104 464.64573,704.93804 466.70273,704.70204 C 467.98373,704.55504 469.20273,703.84704 470.41973,703.47804 C 471.41573,703.17604 472.33973,702.77104 473.30373,702.35604 C 474.78873,701.71704 476.28073,701.27504 477.43373,700.13004 C 479.32573,698.25204 481.14673,695.68004 483.47273,694.34204 C 483.49773,694.28504 483.49473,694.22804 483.46473,694.17004 C 482.78873,694.00304 484.30273,692.61704 483.77873,692.33504"
       id="path271" />
    <g
       id="g273"
       transform="translate(96.197732,616.33504)">
      <line
         style="fill:none;stroke:#000000"
         x1="393.436"
         y1="78.646004"
         x2="400.88199"
         y2="86.390999"
         id="line275" />
      <line
         style="fill:none;stroke:#000000"
         x1="400.88199"
         y1="80.731003"
         x2="393.73401"
         y2="86.390999"
         id="line277" />
    </g>
    <circle
       cx="398.203"
       cy="62.903"
       r="2.3970001"
       id="circle279"
       sodipodi:cx="398.203"
       sodipodi:cy="62.903"
       sodipodi:rx="2.3970001"
       sodipodi:ry="2.3970001"
       transform="translate(96.197732,616.33504)" />
    <g
       id="g281"
       transform="translate(96.197732,616.33504)">
      <g
         id="g283">
        <g
           id="g285">
          <line
             style="fill:none;stroke:#000000"
             x1="450.23199"
             y1="123.646"
             x2="450.23199"
             y2="114.529"
             id="line287" />
          <path
             d="M 450.232,108.494 C 451.287,111.334 453.084,114.857 454.987,117.041 L 450.232,115.32 L 445.477,117.041 C 447.38,114.857 449.179,111.334 450.232,108.494 z "
             id="path289" />
        </g>
      </g>
      <g
         id="g291">
        <path
           d="M 444.74,129.23 L 443.787,130.15 C 443.693,129.845 443.646,129.542 443.646,129.236 C 443.646,128.277 444.011,127.474 444.742,126.833 C 445.473,126.191 446.388,125.87 447.484,125.87 C 447.638,125.87 447.781,125.876 447.914,125.886 C 448.062,125.897 448.156,125.903 448.197,125.903 L 448.261,125.903 C 448.245,126.041 448.238,126.136 448.238,126.196 C 448.238,127.003 448.754,128.026 449.789,129.268 L 450.227,129.786 L 450.61,130.249 C 451.018,130.737 451.339,131.187 451.575,131.599 L 451.968,128.411 C 452.214,126.467 452.667,125.102 453.322,124.319 C 454.074,123.426 454.904,122.981 455.812,122.981 C 456.152,122.981 456.488,123.043 456.822,123.169 L 455.955,124.027 C 455.6,123.818 455.283,123.715 455.012,123.715 C 454.407,123.715 453.946,123.994 453.631,124.552 C 453.316,125.111 453.069,126.081 452.895,127.467 L 452.278,132.443 L 451.534,133.965 C 451.352,133.246 451.161,132.698 450.958,132.323 C 450.755,131.947 450.35,131.395 449.741,130.67 L 449.29,130.124 C 448.608,129.284 448.126,128.54 447.843,127.894 L 447.554,130.498 L 447.484,131.129 C 447.422,131.65 447.32,132.033 447.177,132.275 C 447.036,132.519 446.757,132.796 446.341,133.103 L 447.65,133.215 L 446.945,133.903 L 444.392,133.778 L 445.148,133.045 L 445.796,133.103 C 446.093,132.888 446.298,132.657 446.411,132.407 C 446.524,132.157 446.614,131.743 446.681,131.164 L 446.736,130.665 L 447.189,126.596 L 446.9,126.596 C 445.261,126.596 444.443,127.136 444.443,128.217 C 444.443,128.549 444.541,128.891 444.74,129.23 z "
           id="path293" />
      </g>
    </g>
    <polygon
       style="fill:#828282"
       points="395.984,103.018 413.139,105.398 402.729,96.088 392.135,98.874 395.984,103.018 "
       id="polygon295"
       transform="translate(96.197732,616.33504)" />
    <path
       style="fill:none;stroke:#000000"
       d="M 499.61673,678.96404 C 499.61673,683.80204 496.44873,687.40604 492.33373,689.54304 C 490.34573,690.57604 488.20273,691.29904 486.02973,691.82304 C 483.97873,692.31804 481.78373,693.00004 479.83573,692.05004 C 478.86673,691.57704 477.94673,691.00704 476.91873,690.66304 C 474.68173,689.91604 472.53173,689.60704 470.14873,689.76104 C 468.64673,689.85904 466.57073,689.94104 465.10473,690.37204 C 463.86373,690.73804 462.74773,691.70104 461.57873,692.25804 C 461.10273,692.48604 460.09373,692.65104 459.97073,693.24904 C 459.01273,693.47804 458.44573,693.92604 457.72273,694.49204 C 457.28273,694.16804 455.75773,694.89104 455.43173,695.32704 C 454.96073,695.95904 455.32673,696.69804 455.51173,697.32104 C 455.63873,697.74604 455.75473,698.15504 455.86673,698.57904 C 456.23573,699.98104 456.63973,700.25704 457.77073,701.17904 C 458.90373,702.10304 459.68273,702.85904 461.08773,703.35204 C 462.95473,704.00704 464.85173,704.90404 466.90873,704.66804 C 468.18973,704.52104 469.40873,703.81304 470.62573,703.44404 C 471.62173,703.14204 472.54573,702.73704 473.50973,702.32204 C 474.99573,701.68304 476.48673,701.24104 477.63873,700.09604 C 479.53073,698.21804 481.35273,695.64604 483.67873,694.30804 C 483.70373,694.25104 483.70073,694.19404 483.67073,694.13604 C 482.99573,693.96904 484.50873,692.58304 483.98573,692.30104"
       id="path297" />
    <g
       id="g299"
       transform="translate(96.197732,616.33504)">
      <path
         style="fill:#828282;stroke:#000000"
         d="M 372.45,101.875 C 374.367,99.605 375.733,96.221 376.393,93.715 C 375.665,96.481 380.212,97.998 381.875,97.705 C 384.678,97.21 387.46,91.224 388.754,89.066 C 389.169,93.863 395.531,99.721 398.478,103.245"
         id="path301" />
      <path
         style="fill:#828282;stroke:#000000"
         d="M 394.368,98.451 C 397.889,97.754 400.817,96.424 403.327,94.601 C 404.743,98.687 410.153,102.728 413.546,105.297"
         id="path303" />
    </g>
    <path
       style="fill:#828282;stroke:#000000"
       d="M 437.78773,718.25304 C 439.82373,718.15504 442.00073,714.82904 443.15073,713.20004 C 443.98073,712.02404 444.75173,711.05204 445.37173,709.73504 C 446.26573,707.83904 446.74673,705.83604 446.72973,703.73204 C 447.79873,706.77004 449.43573,709.62304 450.65673,712.61004 C 451.27773,714.12904 451.73973,716.35804 453.14173,717.28204 C 453.52873,717.53604 454.01173,717.72304 454.39973,717.96204"
       id="path305" />
    <path
       style="fill:none;stroke:#000000;stroke-dasharray:2.8346, 1.4173"
       d="M 493.10873,681.07704 C 491.89273,683.61804 487.41273,684.11504 487.41273,684.11504 C 487.41273,684.11504 478.66173,683.07204 474.48373,682.94004 C 470.38973,682.81104 466.22873,683.51204 462.26073,684.29404 C 457.05173,685.31904 448.59073,688.72904 449.80773,695.77804 C 450.07073,697.29704 450.71473,698.30104 451.28773,699.56804 C 452.14273,701.45904 452.47973,703.36104 453.91773,704.94604 C 454.82073,705.94104 455.98473,707.14104 457.24273,707.68104 C 458.71073,708.31004 460.69773,708.10504 462.21373,708.41104 C 464.26273,707.99704 466.65473,708.26704 468.78673,707.93204 C 471.70473,707.47404 473.46973,706.49204 476.19473,705.40704 C 479.25573,704.18904 483.17273,703.04404 486.05273,701.34704 C 487.82973,700.30104 489.40873,698.96504 491.65073,699.00304"
       id="path307" />
  </g>
</svg>
