<?xml version="1.0" encoding="UTF-8" standalone="no"?>
<!-- Created with Inkscape (http://www.inkscape.org/) -->
<svg
   xmlns:dc="http://purl.org/dc/elements/1.1/"
   xmlns:cc="http://web.resource.org/cc/"
   xmlns:rdf="http://www.w3.org/1999/02/22-rdf-syntax-ns#"
   xmlns:svg="http://www.w3.org/2000/svg"
   xmlns="http://www.w3.org/2000/svg"
   xmlns:sodipodi="http://sodipodi.sourceforge.net/DTD/sodipodi-0.dtd"
   xmlns:inkscape="http://www.inkscape.org/namespaces/inkscape"
   width="142.73199"
   height="163.414"
   id="svg3106"
   sodipodi:version="0.32"
   inkscape:version="0.45.1"
   version="1.0"
   sodipodi:docbase="/Users/robmyers/Desktop/cc-ironies/final"
   sodipodi:docname="twelve_seventy_three.svg"
   inkscape:output_extension="org.inkscape.output.svg.inkscape">
  <defs
     id="defs3108" />
  <sodipodi:namedview
     id="base"
     pagecolor="#ffffff"
     bordercolor="#666666"
     borderopacity="1.0"
     gridtolerance="10000"
     guidetolerance="10"
     objecttolerance="10"
     inkscape:pageopacity="0.0"
     inkscape:pageshadow="2"
     inkscape:zoom="2.3131433"
     inkscape:cx="71.365997"
     inkscape:cy="81.707001"
     inkscape:document-units="px"
     inkscape:current-layer="layer1"
     inkscape:window-width="697"
     inkscape:window-height="581"
     inkscape:window-x="30"
     inkscape:window-y="35" />
  <metadata
     id="metadata3111">
    <rdf:RDF>
      <cc:Work
         rdf:about="">
        <dc:format>image/svg+xml</dc:format>
        <dc:type
           rdf:resource="http://purl.org/dc/dcmitype/StillImage" />
      </cc:Work>
    </rdf:RDF>
  </metadata>
  <g
     inkscape:label="Layer 1"
     inkscape:groupmode="layer"
     id="layer1"
     transform="translate(-300.06256,-236.33554)">
    <rect
       x="300.56256"
       y="236.83554"
       style="fill:#ffffff;stroke:#000000"
       width="141.73199"
       height="141.73199"
       id="rect194" />
    <g
       id="g196"
       transform="translate(136.70158,236.33554)">
      <path
         style="fill:#0a50a1"
         d="M 300.409,70.003 C 300.409,74.888 294.855,78.847 288.005,78.847 L 180.499,78.847 C 173.649,78.847 168.095,74.888 168.095,70.003 L 168.095,44.21 C 168.095,39.327 173.65,35.367 180.499,35.367 L 288.005,35.367 C 294.855,35.367 300.409,39.326 300.409,44.21 L 300.409,70.003 z "
         id="path198" />
      <g
         id="g200">
        <path
           style="fill:#ffffff"
           d="M 197.71,47.808 L 182.198,47.808 L 182.198,53.519 L 195.935,53.519 L 195.935,58.458 L 182.198,58.458 L 182.198,62.78 L 188.295,62.78 L 188.295,67.178 L 182.198,67.178 L 182.198,71.114 L 176.719,71.114 L 176.719,67.178 L 173.4,67.178 L 173.4,62.78 L 176.719,62.78 L 176.719,42.868 L 197.711,42.868 L 197.711,47.808 L 197.71,47.808 z "
           id="path202" />
        <path
           style="fill:#ffffff"
           d="M 198.595,51.358 L 198.595,47.577 C 200.366,47.498 201.606,47.38 202.315,47.223 C 203.443,46.975 204.361,46.479 205.07,45.734 C 205.554,45.225 205.923,44.546 206.172,43.696 C 206.317,43.187 206.389,42.808 206.389,42.56 L 211.097,42.56 L 211.097,71.115 L 205.309,71.115 L 205.309,51.358 L 198.595,51.358 z "
           id="path204" />
        <path
           style="fill:#ffffff"
           d="M 220.772,65.506 C 221.564,63.603 223.439,61.59 226.399,59.464 C 228.966,57.614 230.629,56.286 231.386,55.479 C 232.547,54.226 233.128,52.851 233.128,51.356 C 233.128,50.141 232.795,49.13 232.129,48.323 C 231.464,47.518 230.51,47.115 229.27,47.115 C 227.573,47.115 226.418,47.76 225.806,49.047 C 225.453,49.791 225.244,50.973 225.179,52.594 L 219.777,52.594 C 219.869,50.159 220.308,48.191 221.094,46.691 C 222.587,43.836 225.24,42.407 229.052,42.407 C 232.064,42.407 234.462,43.246 236.243,44.921 C 238.024,46.597 238.915,48.817 238.915,51.577 C 238.915,53.694 238.284,55.575 237.019,57.218 C 236.189,58.31 234.826,59.524 232.93,60.862 L 230.679,62.457 C 229.269,63.455 228.307,64.176 227.791,64.623 C 227.275,65.069 226.842,65.588 226.49,66.179 L 238.992,66.179 L 238.992,71.118 L 219.467,71.118 C 219.521,69.068 219.954,67.199 220.772,65.506 z "
           id="path206" />
        <path
           style="fill:#ffffff"
           d="M 243.043,65.172 L 248.985,65.172 L 248.985,71.115 L 243.043,71.115 L 243.043,65.172 z "
           id="path208" />
        <path
           style="fill:#ffffff"
           d="M 273.073,47.239 C 272.236,48.07 271.073,49.549 269.586,51.677 C 268.098,53.805 266.851,56.002 265.847,58.268 C 265.05,60.047 264.331,62.222 263.692,64.79 C 263.051,67.36 262.732,69.468 262.732,71.115 L 256.867,71.115 C 257.038,65.975 258.721,60.631 261.915,55.082 C 263.978,51.643 265.706,49.243 267.1,47.884 L 252.853,47.884 L 252.931,42.868 L 273.074,42.868 L 273.074,47.239 L 273.073,47.239 z "
           id="path210" />
        <path
           style="fill:#ffffff"
           d="M 280.827,62.316 C 280.827,63.466 281.012,64.419 281.38,65.173 C 282.064,66.562 283.308,67.255 285.112,67.255 C 286.216,67.255 287.181,66.877 288.004,66.119 C 288.827,65.361 289.239,64.27 289.239,62.846 C 289.239,60.961 288.483,59.702 286.973,59.069 C 286.113,58.714 284.759,58.534 282.911,58.534 L 282.911,54.522 C 284.742,54.495 286.02,54.318 286.744,53.989 C 287.995,53.438 288.622,52.322 288.622,50.641 C 288.622,49.552 288.302,48.666 287.663,47.983 C 287.024,47.3 286.125,46.958 284.968,46.958 C 283.636,46.958 282.659,47.379 282.034,48.22 C 281.409,49.062 281.109,50.184 281.136,51.589 L 275.888,51.589 C 275.94,50.173 276.184,48.831 276.618,47.558 C 277.077,46.444 277.799,45.415 278.785,44.47 C 279.521,43.802 280.395,43.292 281.407,42.937 C 282.419,42.583 283.66,42.405 285.132,42.405 C 287.864,42.405 290.068,43.111 291.743,44.519 C 293.418,45.927 294.257,47.818 294.257,50.19 C 294.257,51.868 293.756,53.283 292.757,54.435 C 292.125,55.157 291.468,55.648 290.784,55.91 C 291.291,55.91 292.021,56.352 292.974,57.231 C 294.394,58.561 295.106,60.375 295.106,62.676 C 295.106,65.094 294.268,67.222 292.594,69.056 C 290.92,70.892 288.441,71.808 285.158,71.808 C 281.114,71.808 278.303,70.487 276.727,67.841 C 275.899,66.434 275.44,64.592 275.349,62.316 L 280.827,62.316 z "
           id="path212" />
      </g>
    </g>
    <g
       id="g214"
       transform="matrix(0.5,0,0,0.5,218.13207,306.58004)">
      <g
         id="g216">
        <g
           id="g218" />
      </g>
      <path
         id="path3817_3_"
         style="fill:#aab2ab"
         d="M 166.434,154.975 L 251.982,155.127 C 253.177,155.127 254.245,154.949 254.245,157.512 L 254.141,185.688 L 164.276,185.688 L 164.276,157.409 C 164.275,156.145 164.397,154.975 166.434,154.975 z " />
      <path
         d="M 252.729,154.639 L 165.557,154.639 C 164.622,154.639 163.861,155.4 163.861,156.334 L 163.861,185.956 C 163.861,186.168 164.033,186.339 164.244,186.339 L 254.042,186.339 C 254.253,186.339 254.425,186.168 254.425,185.956 L 254.425,156.334 C 254.425,155.4 253.664,154.639 252.729,154.639 z M 165.557,155.405 L 252.729,155.405 C 253.242,155.405 253.658,155.822 253.658,156.335 C 253.658,156.335 253.658,168.253 253.658,176.876 L 191.353,176.876 C 189.069,181.005 184.669,183.809 179.62,183.809 C 174.569,183.809 170.17,181.008 167.888,176.876 L 164.627,176.876 C 164.627,168.253 164.627,156.335 164.627,156.335 C 164.627,155.822 165.044,155.405 165.557,155.405 z "
         id="path221" />
      <g
         id="g5908_3_">
        <path
           id="path5906_3_"
           style="fill:#ffffff"
           d="M 189.916,169.391 C 189.92,175.074 185.315,179.683 179.632,179.687 C 173.949,179.69 169.34,175.086 169.336,169.403 C 169.336,169.399 169.336,169.395 169.336,169.391 C 169.332,163.707 173.937,159.098 179.62,159.094 C 185.304,159.091 189.913,163.696 189.916,169.378 C 189.916,169.382 189.916,169.386 189.916,169.391 z " />
        <g
           id="g5706_3_">
          <path
             d="M 187.991,161.009 C 190.272,163.291 191.414,166.085 191.414,169.391 C 191.414,172.697 190.292,175.461 188.05,177.684 C 185.67,180.026 182.857,181.196 179.611,181.196 C 176.404,181.196 173.64,180.036 171.32,177.714 C 168.998,175.393 167.838,172.618 167.838,169.392 C 167.838,166.166 168.998,163.371 171.32,161.01 C 173.582,158.728 176.346,157.586 179.611,157.586 C 182.916,157.585 185.708,158.727 187.991,161.009 z M 172.855,162.544 C 170.926,164.492 169.961,166.775 169.961,169.394 C 169.961,172.011 170.916,174.275 172.825,176.184 C 174.735,178.092 177.008,179.047 179.645,179.047 C 182.282,179.047 184.575,178.083 186.524,176.154 C 188.374,174.363 189.299,172.109 189.299,169.393 C 189.299,166.697 188.359,164.408 186.479,162.529 C 184.6,160.649 182.322,159.709 179.646,159.709 C 176.97,159.709 174.705,160.655 172.855,162.544 z M 177.932,168.243 C 177.638,167.599 177.197,167.278 176.608,167.278 C 175.568,167.278 175.048,167.979 175.048,169.38 C 175.048,170.781 175.568,171.48 176.608,171.48 C 177.295,171.48 177.786,171.139 178.08,170.457 L 179.522,171.225 C 178.834,172.446 177.803,173.057 176.428,173.057 C 175.367,173.057 174.518,172.733 173.88,172.082 C 173.241,171.432 172.922,170.535 172.922,169.393 C 172.922,168.27 173.252,167.378 173.909,166.718 C 174.567,166.057 175.387,165.728 176.369,165.728 C 177.823,165.728 178.863,166.3 179.493,167.445 L 177.932,168.243 z M 184.717,168.243 C 184.422,167.599 183.989,167.278 183.419,167.278 C 182.358,167.278 181.827,167.979 181.827,169.38 C 181.827,170.781 182.358,171.48 183.419,171.48 C 184.107,171.48 184.589,171.139 184.864,170.457 L 186.339,171.225 C 185.652,172.446 184.623,173.057 183.25,173.057 C 182.191,173.057 181.344,172.733 180.706,172.082 C 180.069,171.432 179.75,170.535 179.75,169.393 C 179.75,168.27 180.074,167.378 180.721,166.718 C 181.368,166.057 182.191,165.728 183.191,165.728 C 184.642,165.728 185.681,166.3 186.308,167.445 L 184.717,168.243 z "
             id="path226" />
        </g>
      </g>
      <g
         id="g370_1_"
         style="enable-background:new">
        <path
           style="fill:#ffffff"
           d="M 200.157,179.356 C 200.395,179.356 200.614,179.377 200.81,179.418 C 201.006,179.46 201.174,179.529 201.314,179.625 C 201.454,179.721 201.563,179.848 201.64,180.006 C 201.717,180.164 201.756,180.36 201.756,180.594 C 201.756,180.846 201.699,181.055 201.584,181.223 C 201.47,181.392 201.301,181.529 201.076,181.637 C 201.385,181.725 201.616,181.88 201.768,182.102 C 201.92,182.325 201.997,182.592 201.997,182.905 C 201.997,183.157 201.948,183.375 201.85,183.559 C 201.751,183.743 201.619,183.894 201.454,184.01 C 201.288,184.127 201.098,184.213 200.886,184.27 C 200.673,184.327 200.454,184.354 200.23,184.354 L 197.803,184.354 L 197.803,179.356 L 200.157,179.356 L 200.157,179.356 z M 200.017,181.377 C 200.212,181.377 200.374,181.33 200.5,181.236 C 200.626,181.144 200.689,180.993 200.689,180.783 C 200.689,180.667 200.668,180.571 200.626,180.497 C 200.584,180.422 200.528,180.365 200.458,180.322 C 200.388,180.28 200.307,180.251 200.216,180.234 C 200.125,180.218 200.03,180.211 199.932,180.211 L 198.902,180.211 L 198.902,181.377 L 200.017,181.377 z M 200.081,183.499 C 200.189,183.499 200.291,183.489 200.39,183.468 C 200.489,183.447 200.575,183.411 200.65,183.363 C 200.725,183.315 200.784,183.248 200.829,183.164 C 200.874,183.08 200.896,182.973 200.896,182.842 C 200.896,182.586 200.823,182.403 200.679,182.293 C 200.533,182.184 200.343,182.129 200.104,182.129 L 198.904,182.129 L 198.904,183.5 L 200.081,183.5 L 200.081,183.499 z "
           id="path229" />
        <polygon
           id="path374_1_"
           style="fill:#ffffff"
           points="202.19,179.356 203.423,179.356 204.593,181.33 205.756,179.356 206.982,179.356 205.126,182.436 205.126,184.354 204.025,184.354 204.025,182.408 202.19,179.356 " />
      </g>
      <g
         id="g376_1_"
         style="enable-background:new">
        <polygon
           id="path378_1_"
           style="fill:#ffffff"
           points="218.59,179.356 220.678,182.709 220.69,182.709 220.69,179.356 221.721,179.356 221.721,184.354 220.622,184.354 218.542,181.007 218.528,181.007 218.528,184.354 217.497,184.354 217.497,179.356 218.59,179.356 " />
        <path
           id="path380_1_"
           style="fill:#ffffff"
           d="M 225.894,180.688 C 225.829,180.583 225.747,180.49 225.648,180.411 C 225.55,180.332 225.44,180.269 225.316,180.225 C 225.192,180.18 225.062,180.159 224.927,180.159 C 224.68,180.159 224.469,180.206 224.297,180.303 C 224.124,180.398 223.984,180.527 223.878,180.687 C 223.77,180.849 223.691,181.032 223.643,181.237 C 223.595,181.442 223.57,181.654 223.57,181.874 C 223.57,182.084 223.594,182.289 223.643,182.486 C 223.692,182.684 223.77,182.863 223.878,183.021 C 223.984,183.18 224.125,183.306 224.297,183.403 C 224.47,183.499 224.68,183.547 224.927,183.547 C 225.263,183.547 225.526,183.444 225.715,183.238 C 225.904,183.033 226.02,182.761 226.061,182.426 L 227.125,182.426 C 227.097,182.738 227.024,183.022 226.908,183.274 C 226.792,183.527 226.637,183.741 226.446,183.92 C 226.255,184.098 226.03,184.233 225.773,184.327 C 225.517,184.421 225.234,184.468 224.926,184.468 C 224.543,184.468 224.199,184.402 223.893,184.268 C 223.587,184.136 223.329,183.952 223.119,183.718 C 222.908,183.486 222.747,183.21 222.635,182.896 C 222.523,182.58 222.467,182.241 222.467,181.876 C 222.467,181.502 222.524,181.155 222.635,180.835 C 222.747,180.516 222.908,180.236 223.119,179.999 C 223.329,179.761 223.588,179.573 223.893,179.438 C 224.199,179.302 224.543,179.235 224.926,179.235 C 225.201,179.235 225.462,179.274 225.707,179.354 C 225.951,179.433 226.171,179.549 226.364,179.702 C 226.558,179.853 226.718,180.042 226.844,180.265 C 226.97,180.488 227.049,180.746 227.082,181.036 L 226.018,181.036 C 226.001,180.908 225.958,180.792 225.894,180.688 z " />
      </g>
      <g
         id="g382_1_"
         style="enable-background:new">
        <polygon
           id="path384_1_"
           style="fill:#ffffff"
           points="238.09,179.356 240.178,182.709 240.19,182.709 240.19,179.356 241.221,179.356 241.221,184.354 240.122,184.354 238.042,181.007 238.028,181.007 238.028,184.354 236.997,184.354 236.997,179.356 238.09,179.356 " />
        <path
           style="fill:#ffffff"
           d="M 244.342,179.356 C 244.665,179.356 244.965,179.407 245.243,179.51 C 245.521,179.612 245.762,179.766 245.965,179.971 C 246.168,180.176 246.327,180.434 246.442,180.742 C 246.557,181.05 246.614,181.412 246.614,181.827 C 246.614,182.191 246.567,182.526 246.474,182.835 C 246.38,183.144 246.239,183.409 246.05,183.633 C 245.86,183.857 245.625,184.034 245.342,184.161 C 245.06,184.29 244.727,184.354 244.343,184.354 L 242.185,184.354 L 242.185,179.356 L 244.342,179.356 L 244.342,179.356 z M 244.266,183.428 C 244.425,183.428 244.579,183.403 244.728,183.351 C 244.877,183.299 245.01,183.215 245.127,183.096 C 245.244,182.977 245.337,182.823 245.408,182.631 C 245.477,182.44 245.512,182.206 245.512,181.932 C 245.512,181.68 245.488,181.453 245.439,181.25 C 245.39,181.047 245.309,180.873 245.197,180.729 C 245.085,180.585 244.937,180.473 244.752,180.397 C 244.567,180.32 244.34,180.282 244.069,180.282 L 243.285,180.282 L 243.285,183.428 L 244.266,183.428 z "
           id="path237" />
      </g>
      <g
         id="g6370_2_">
        <g
           id="g7610_2_">
          <path
             id="path6372_2_"
             style="fill:#ffffff"
             d="M 230.125,165.946 C 230.129,170.098 226.766,173.466 222.613,173.469 C 218.462,173.471 215.094,170.108 215.092,165.957 C 215.092,165.952 215.092,165.949 215.092,165.945 C 215.089,161.794 218.452,158.425 222.604,158.423 C 226.756,158.421 230.123,161.783 230.125,165.935 C 230.125,165.938 230.125,165.943 230.125,165.946 z " />
          <path
             d="M 222.596,157.195 C 225.05,157.195 227.124,158.041 228.818,159.732 C 230.512,161.424 231.36,163.497 231.36,165.946 C 231.36,168.396 230.527,170.446 228.862,172.094 C 227.095,173.83 225.006,174.698 222.596,174.698 C 220.216,174.698 218.164,173.837 216.441,172.116 C 214.718,170.395 213.856,168.339 213.856,165.946 C 213.856,163.553 214.717,161.482 216.441,159.732 C 218.121,158.041 220.172,157.195 222.596,157.195 z M 215.825,163.594 C 215.564,164.333 215.433,165.117 215.433,165.946 C 215.433,167.886 216.142,169.563 217.558,170.979 C 218.975,172.393 220.661,173.1 222.618,173.1 C 224.575,173.1 226.276,172.385 227.722,170.955 C 228.206,170.488 228.606,169.977 228.918,169.425 L 225.618,167.956 C 225.395,169.066 224.405,169.815 223.21,169.903 L 223.21,171.253 L 222.205,171.253 L 222.205,169.903 C 221.223,169.892 220.274,169.49 219.549,168.855 L 220.755,167.64 C 221.335,168.186 221.916,168.431 222.709,168.431 C 223.222,168.431 223.791,168.23 223.791,167.562 C 223.791,167.325 223.7,167.16 223.556,167.036 L 222.721,166.666 L 221.682,166.202 C 221.168,165.973 220.732,165.779 220.296,165.585 L 215.825,163.594 z M 222.619,158.77 C 220.632,158.77 218.953,159.469 217.58,160.87 C 217.207,161.248 216.882,161.641 216.606,162.053 L 219.951,163.542 C 220.254,162.614 221.136,162.051 222.206,161.989 L 222.206,160.639 L 223.211,160.639 L 223.211,161.989 C 223.903,162.022 224.662,162.212 225.41,162.791 L 224.26,163.974 C 223.836,163.673 223.301,163.46 222.765,163.46 C 222.329,163.46 221.715,163.594 221.715,164.141 C 221.715,164.224 221.743,164.297 221.794,164.363 L 222.913,164.861 L 223.67,165.199 C 224.154,165.415 224.617,165.62 225.075,165.824 L 229.559,167.82 C 229.707,167.234 229.782,166.609 229.782,165.947 C 229.782,163.949 229.081,162.257 227.679,160.871 C 226.292,159.469 224.605,158.77 222.619,158.77 z "
             id="path242" />
        </g>
      </g>
      <g
         id="g6394_2_">
        <path
           id="path6396_2_"
           style="fill:#ffffff"
           d="M 250.401,165.946 C 250.405,170.358 246.831,173.937 242.42,173.941 C 238.008,173.944 234.428,170.37 234.425,165.958 C 234.425,165.954 234.425,165.95 234.425,165.946 C 234.422,161.535 237.996,157.956 242.408,157.952 C 246.819,157.948 250.398,161.522 250.401,165.934 C 250.401,165.938 250.401,165.942 250.401,165.946 z " />
        <g
           id="g6398_2_">
          <path
             d="M 242.288,157.195 C 239.864,157.195 237.811,158.04 236.132,159.732 C 234.408,161.482 233.547,163.553 233.547,165.946 C 233.547,168.339 234.408,170.395 236.132,172.116 C 237.855,173.837 239.907,174.698 242.288,174.698 C 244.698,174.698 246.786,173.83 248.553,172.094 C 250.217,170.446 251.051,168.396 251.051,165.946 C 251.051,163.495 250.204,161.425 248.509,159.732 C 246.814,158.039 244.741,157.195 242.288,157.195 z M 242.309,158.769 C 244.295,158.769 245.982,159.469 247.371,160.87 C 248.772,162.256 249.473,163.948 249.473,165.946 C 249.473,167.96 248.787,169.63 247.415,170.956 C 245.968,172.386 244.267,173.101 242.31,173.101 C 240.353,173.101 238.666,172.394 237.25,170.978 C 235.833,169.564 235.125,167.886 235.125,165.947 C 235.125,164.007 235.84,162.315 237.272,160.871 C 238.644,159.469 240.323,158.769 242.309,158.769 z "
             id="path247" />
          <g
             id="g6402_2_">
            <path
               d="M 245.605,163.872 L 239.244,163.872 L 239.244,165.379 L 245.605,165.379 L 245.605,163.872 z M 245.605,166.684 L 239.244,166.684 L 239.244,168.191 L 245.605,168.191 L 245.605,166.684 z "
               id="path250" />
          </g>
        </g>
      </g>
      <g
         id="g398_1_">
        <circle
           id="circle400_1_"
           style="fill:#ffffff"
           cx="202.927"
           cy="166.125"
           r="8.1040001"
           sodipodi:cx="202.927"
           sodipodi:cy="166.125"
           sodipodi:rx="8.1040001"
           sodipodi:ry="8.1040001" />
        <g
           id="g402_1_">
          <path
             id="path404_1_"
             d="M 205.273,163.779 C 205.273,163.467 205.02,163.214 204.708,163.214 L 201.129,163.214 C 200.817,163.214 200.564,163.468 200.564,163.779 L 200.564,167.359 L 201.562,167.359 L 201.562,171.598 L 204.275,171.598 L 204.275,167.359 L 205.274,167.359 L 205.274,163.779 L 205.273,163.779 z " />
          <circle
             id="circle406_1_"
             cx="202.91701"
             cy="161.51801"
             r="1.225"
             sodipodi:cx="202.91701"
             sodipodi:cy="161.51801"
             sodipodi:rx="1.225"
             sodipodi:ry="1.225" />
        </g>
        <path
           d="M 202.907,157.195 C 200.483,157.195 198.431,158.04 196.752,159.733 C 195.028,161.482 194.167,163.553 194.167,165.946 C 194.167,168.338 195.028,170.395 196.752,172.116 C 198.475,173.837 200.527,174.698 202.907,174.698 C 205.316,174.698 207.405,173.83 209.173,172.094 C 210.838,170.447 211.67,168.397 211.67,165.947 C 211.67,163.496 210.823,161.426 209.129,159.734 C 207.434,158.04 205.361,157.195 202.907,157.195 z M 202.929,158.769 C 204.915,158.769 206.601,159.469 207.989,160.87 C 209.391,162.256 210.093,163.948 210.093,165.946 C 210.093,167.959 209.406,169.63 208.033,170.956 C 206.587,172.386 204.886,173.101 202.929,173.101 C 200.971,173.101 199.284,172.394 197.868,170.979 C 196.452,169.564 195.743,167.886 195.743,165.947 C 195.743,164.008 196.458,162.315 197.889,160.871 C 199.263,159.469 200.943,158.769 202.929,158.769 z "
           id="path257" />
      </g>
    </g>
  </g>
</svg>
