<?xml version="1.0" encoding="UTF-8" standalone="no"?>
<!-- Created with Inkscape (http://www.inkscape.org/) -->
<svg
   xmlns:dc="http://purl.org/dc/elements/1.1/"
   xmlns:cc="http://web.resource.org/cc/"
   xmlns:rdf="http://www.w3.org/1999/02/22-rdf-syntax-ns#"
   xmlns:svg="http://www.w3.org/2000/svg"
   xmlns="http://www.w3.org/2000/svg"
   xmlns:sodipodi="http://sodipodi.sourceforge.net/DTD/sodipodi-0.dtd"
   xmlns:inkscape="http://www.inkscape.org/namespaces/inkscape"
   width="142.73199"
   height="163.41325"
   id="svg2670"
   sodipodi:version="0.32"
   inkscape:version="0.45.1"
   version="1.0"
   sodipodi:docbase="/Users/robmyers/Desktop/cc-ironies/final"
   sodipodi:docname="twenty_five_percent_extra_free.svg"
   inkscape:output_extension="org.inkscape.output.svg.inkscape">
  <defs
     id="defs2672" />
  <sodipodi:namedview
     id="base"
     pagecolor="#ffffff"
     bordercolor="#666666"
     borderopacity="1.0"
     gridtolerance="10000"
     guidetolerance="10"
     objecttolerance="10"
     inkscape:pageopacity="0.0"
     inkscape:pageshadow="2"
     inkscape:zoom="2.0285718"
     inkscape:cx="71.365997"
     inkscape:cy="93.168999"
     inkscape:document-units="px"
     inkscape:current-layer="layer1"
     inkscape:window-width="697"
     inkscape:window-height="581"
     inkscape:window-x="20"
     inkscape:window-y="42" />
  <metadata
     id="metadata2675">
    <rdf:RDF>
      <cc:Work
         rdf:about="">
        <dc:format>image/svg+xml</dc:format>
        <dc:type
           rdf:resource="http://purl.org/dc/dcmitype/StillImage" />
      </cc:Work>
    </rdf:RDF>
  </metadata>
  <g
     inkscape:label="Layer 1"
     inkscape:groupmode="layer"
     id="layer1"
     transform="translate(-303.634,-439.19318)">
    <g
       id="g57"
       transform="translate(303.634,439.19318)">
      <rect
         x="0.5"
         y="0.5"
         style="fill:#ffffff;stroke:#000000"
         width="141.73199"
         height="141.73199"
         id="rect59" />
      <g
         id="g61">
        <circle
           style="fill:#ff0000"
           cx="71.366997"
           cy="70.716003"
           r="65.199997"
           id="circle63"
           sodipodi:cx="71.366997"
           sodipodi:cy="70.716003"
           sodipodi:rx="65.199997"
           sodipodi:ry="65.199997" />
        <g
           id="g65">
          <path
             style="fill:#ffffff"
             d="M 35.857,60.852 C 35.795,59.33 36.424,57.392 37.748,55.039 C 38.896,52.994 39.599,51.585 39.857,50.81 C 40.249,49.61 40.213,48.513 39.751,47.52 C 39.373,46.711 38.835,46.143 38.138,45.815 C 37.44,45.487 36.674,45.517 35.84,45.907 C 34.697,46.439 34.119,47.228 34.105,48.272 C 34.097,48.876 34.322,49.723 34.778,50.815 L 31.153,52.505 C 30.456,50.853 30.138,49.401 30.198,48.155 C 30.311,45.782 31.643,44.001 34.198,42.809 C 36.217,41.869 38.085,41.68 39.801,42.244 C 41.518,42.807 42.806,44.013 43.667,45.858 C 44.327,47.274 44.49,48.727 44.157,50.22 C 43.941,51.208 43.409,52.447 42.561,53.935 L 41.553,55.706 C 40.923,56.814 40.504,57.599 40.297,58.06 C 40.089,58.521 39.959,59.005 39.907,59.511 L 48.268,55.612 L 49.811,58.921 L 36.715,65.027 C 36.111,63.64 35.826,62.247 35.857,60.852 z "
             id="path67" />
          <path
             style="fill:#ffffff"
             d="M 52.953,51.222 C 53.486,51.978 54.068,52.483 54.696,52.736 C 55.324,52.989 56.04,52.927 56.843,52.552 C 57.768,52.12 58.32,51.463 58.497,50.577 C 58.675,49.692 58.531,48.751 58.064,47.751 C 57.606,46.77 56.993,46.046 56.223,45.581 C 55.453,45.116 54.587,45.107 53.627,45.555 C 53.172,45.767 52.806,46.006 52.526,46.273 C 52.037,46.752 51.773,47.34 51.738,48.037 L 48.31,49.47 L 44.755,38.328 L 55.249,33.434 L 56.728,36.606 L 48.932,40.242 L 50.197,44.734 C 50.598,44.089 50.933,43.63 51.199,43.357 C 51.648,42.904 52.261,42.497 53.039,42.133 C 54.611,41.4 56.231,41.291 57.898,41.81 C 59.566,42.327 60.873,43.601 61.819,45.63 C 62.643,47.397 62.812,49.238 62.33,51.153 C 61.847,53.07 60.478,54.552 58.226,55.602 C 56.412,56.448 54.694,56.655 53.074,56.222 C 51.453,55.79 50.159,54.707 49.19,52.975 L 52.953,51.222 z "
             id="path69" />
          <path
             style="fill:#ffffff"
             d="M 69.779,36.571 C 69.277,37.958 68.353,38.965 67.007,39.592 C 65.669,40.215 64.306,40.276 62.916,39.77 C 61.527,39.265 60.521,38.342 59.897,37.004 C 59.273,35.666 59.213,34.303 59.719,32.914 C 60.224,31.524 61.146,30.518 62.485,29.894 C 63.823,29.269 65.185,29.21 66.576,29.716 C 67.965,30.222 68.971,31.143 69.595,32.482 C 70.219,33.821 70.28,35.184 69.779,36.571 z M 66.908,35.531 C 67.126,34.934 67.099,34.348 66.83,33.771 C 66.561,33.195 66.129,32.797 65.533,32.581 C 64.937,32.365 64.35,32.391 63.774,32.659 C 63.197,32.929 62.8,33.36 62.584,33.957 C 62.366,34.553 62.393,35.14 62.662,35.716 C 62.931,36.293 63.363,36.69 63.959,36.906 C 64.555,37.122 65.142,37.097 65.718,36.828 C 66.295,36.56 66.692,36.127 66.908,35.531 z M 73.228,24.775 L 75.265,23.825 L 73.635,48.418 L 71.598,49.368 L 73.228,24.775 z M 87.164,40.271 C 86.658,41.66 85.736,42.666 84.398,43.29 C 83.06,43.914 81.696,43.975 80.306,43.469 C 78.917,42.963 77.911,42.041 77.287,40.702 C 76.66,39.355 76.599,37.99 77.106,36.606 C 77.614,35.22 78.536,34.216 79.875,33.592 C 81.213,32.968 82.577,32.908 83.966,33.414 C 85.356,33.92 86.361,34.841 86.986,36.18 C 87.609,37.518 87.67,38.881 87.164,40.271 z M 82.925,36.277 C 82.329,36.06 81.741,36.087 81.165,36.356 C 80.588,36.625 80.192,37.056 79.975,37.653 C 79.758,38.249 79.784,38.837 80.053,39.412 C 80.323,39.989 80.755,40.386 81.351,40.602 C 81.948,40.819 82.534,40.793 83.11,40.524 C 83.686,40.255 84.085,39.823 84.3,39.227 C 84.518,38.63 84.49,38.044 84.221,37.468 C 83.952,36.892 83.521,36.494 82.925,36.277 z "
             id="path71" />
          <path
             style="fill:#ffffff"
             d="M 38.264,76.663 L 27.991,81.453 L 29.915,85.577 L 39.344,81.181 L 40.908,84.535 L 31.478,88.931 L 33.802,93.915 L 44.548,88.904 L 46.175,92.393 L 31.487,99.243 L 22.443,79.848 L 36.658,73.219 L 38.264,76.663 z "
             id="path73" />
          <path
             style="fill:#ffffff"
             d="M 52.54,89.426 L 47.777,91.647 L 49.41,78.827 L 39.029,72.059 L 43.873,69.8 L 50.281,74.517 L 50.884,66.531 L 55.57,64.346 L 54.007,76.49 L 64.997,83.616 L 60.076,85.911 L 53.346,81.027 L 52.54,89.426 z "
             id="path75" />
          <path
             style="fill:#ffffff"
             d="M 72.404,56.495 L 74.009,59.938 L 68.163,62.665 L 75.622,78.661 L 71.59,80.542 L 64.13,64.546 L 58.285,67.272 L 56.679,63.829 L 72.404,56.495 z "
             id="path77" />
          <path
             style="fill:#ffffff"
             d="M 87.411,50.108 C 88.269,50.083 89.086,50.254 89.861,50.621 C 90.502,50.923 91.082,51.316 91.6,51.803 C 92.119,52.29 92.557,52.916 92.914,53.683 C 93.345,54.608 93.538,55.623 93.493,56.732 C 93.448,57.841 92.98,58.828 92.091,59.692 C 93.144,59.64 94.01,59.86 94.688,60.351 C 95.367,60.842 96.023,61.768 96.658,63.129 L 97.265,64.433 C 97.678,65.32 97.994,65.905 98.214,66.187 C 98.556,66.638 98.978,66.89 99.484,66.943 L 99.711,67.429 L 95.271,69.5 C 94.95,69.126 94.702,68.819 94.526,68.58 C 94.17,68.084 93.854,67.552 93.58,66.985 L 92.712,65.194 C 92.117,63.964 91.518,63.239 90.91,63.019 C 90.303,62.8 89.429,62.956 88.289,63.487 L 84.29,65.352 L 87.84,72.965 L 83.898,74.803 L 74.834,55.363 L 84.117,51.034 C 85.455,50.442 86.553,50.134 87.411,50.108 z M 80.338,56.878 L 82.789,62.135 L 87.186,60.084 C 88.059,59.677 88.665,59.266 89.003,58.849 C 89.602,58.119 89.646,57.203 89.134,56.106 C 88.581,54.92 87.836,54.298 86.898,54.239 C 86.371,54.206 85.689,54.384 84.849,54.775 L 80.338,56.878 z "
             id="path79" />
          <path
             style="fill:#ffffff"
             d="M 99.784,43.728 L 104.374,41.588 L 120.303,57.827 L 115.905,59.878 L 112.768,56.485 L 105.61,59.824 L 106.152,64.426 L 101.907,66.405 L 99.784,43.728 z M 105.151,55.955 L 110.13,53.634 L 104.108,47.122 L 105.151,55.955 z "
             id="path81" />
          <path
             style="fill:#ffffff"
             d="M 44.196,101.427 L 57.971,95.002 L 59.535,98.356 L 49.792,102.899 L 51.904,107.43 L 60.424,103.457 L 61.988,106.811 L 53.468,110.784 L 57.293,118.985 L 53.259,120.866 L 44.196,101.427 z "
             id="path83" />
          <path
             style="fill:#ffffff"
             d="M 73.342,88.446 C 74.2,88.421 75.018,88.592 75.793,88.959 C 76.434,89.26 77.014,89.654 77.532,90.141 C 78.051,90.628 78.489,91.254 78.845,92.021 C 79.277,92.945 79.47,93.961 79.424,95.07 C 79.38,96.178 78.911,97.166 78.021,98.031 C 79.075,97.978 79.941,98.197 80.619,98.689 C 81.298,99.18 81.954,100.106 82.589,101.466 L 83.197,102.77 C 83.61,103.658 83.926,104.243 84.146,104.525 C 84.487,104.976 84.91,105.228 85.416,105.28 L 85.643,105.767 L 81.202,107.837 C 80.881,107.464 80.633,107.157 80.458,106.918 C 80.101,106.423 79.785,105.89 79.511,105.323 L 78.644,103.532 C 78.049,102.302 77.449,101.577 76.841,101.357 C 76.233,101.137 75.36,101.294 74.22,101.825 L 70.222,103.69 L 73.772,111.302 L 69.829,113.141 L 60.765,93.701 L 70.047,89.372 C 71.385,88.78 72.483,88.472 73.342,88.446 z M 66.269,95.216 L 68.72,100.473 L 73.117,98.423 C 73.99,98.015 74.596,97.604 74.934,97.187 C 75.533,96.457 75.577,95.541 75.065,94.443 C 74.513,93.258 73.767,92.636 72.83,92.577 C 72.303,92.544 71.619,92.722 70.779,93.113 L 66.269,95.216 z "
             id="path85" />
          <path
             style="fill:#ffffff"
             d="M 96.128,81.458 L 85.856,86.248 L 87.779,90.372 L 97.208,85.975 L 98.772,89.329 L 89.342,93.726 L 91.666,98.71 L 102.412,93.699 L 104.039,97.188 L 89.351,104.037 L 80.307,84.642 L 94.522,78.013 L 96.128,81.458 z "
             id="path87" />
          <path
             style="fill:#ffffff"
             d="M 114.118,73.069 L 103.846,77.859 L 105.769,81.982 L 115.198,77.586 L 116.761,80.94 L 107.332,85.337 L 109.656,90.321 L 120.402,85.31 L 122.029,88.799 L 107.341,95.648 L 98.297,76.253 L 112.512,69.624 L 114.118,73.069 z "
             id="path89" />
        </g>
      </g>
    </g>
    <g
       id="g91"
       transform="matrix(0.5,0,0,0.5,303.384,509.43743)">
      <path
         id="path3817_3_"
         style="fill:#aab2ab"
         d="M 3.071,154.97 L 88.619,155.122 C 89.814,155.122 90.882,154.945 90.882,157.507 L 90.778,185.682 L 0.913,185.682 L 0.913,157.403 C 0.913,156.139 1.035,154.97 3.071,154.97 z " />
      <g
         id="g5908_3_">
        <path
           id="path5906_3_"
           style="fill:#ffffff"
           d="M 26.554,169.385 C 26.557,175.068 21.952,179.677 16.27,179.682 C 10.587,179.685 5.977,175.081 5.974,169.398 C 5.974,169.394 5.974,169.39 5.974,169.385 C 5.971,163.702 10.575,159.092 16.258,159.089 C 21.942,159.086 26.551,163.69 26.555,169.373 C 26.554,169.377 26.554,169.381 26.554,169.385 z " />
        <g
           id="g5706_3_">
          <path
             d="M 24.628,161.004 C 26.91,163.286 28.051,166.08 28.051,169.385 C 28.051,172.691 26.929,175.456 24.687,177.678 C 22.306,180.02 19.494,181.19 16.248,181.19 C 13.042,181.19 10.277,180.029 7.956,177.707 C 5.635,175.387 4.474,172.612 4.474,169.385 C 4.474,166.158 5.635,163.364 7.956,161.004 C 10.218,158.721 12.983,157.58 16.248,157.58 C 19.554,157.58 22.347,158.721 24.628,161.004 z M 9.493,162.539 C 7.564,164.488 6.599,166.771 6.599,169.389 C 6.599,172.007 7.554,174.27 9.462,176.179 C 11.372,178.088 13.645,179.043 16.282,179.043 C 18.92,179.043 21.212,178.079 23.16,176.15 C 25.01,174.358 25.936,172.106 25.936,169.389 C 25.936,166.693 24.996,164.405 23.116,162.525 C 21.236,160.646 18.959,159.706 16.282,159.706 C 13.605,159.706 11.343,160.65 9.493,162.539 z M 14.569,168.237 C 14.275,167.594 13.833,167.273 13.245,167.273 C 12.204,167.273 11.684,167.974 11.684,169.374 C 11.684,170.775 12.204,171.476 13.245,171.476 C 13.933,171.476 14.423,171.135 14.718,170.452 L 16.16,171.22 C 15.472,172.441 14.441,173.052 13.066,173.052 C 12.005,173.052 11.156,172.727 10.518,172.077 C 9.879,171.427 9.56,170.53 9.56,169.387 C 9.56,168.264 9.889,167.373 10.547,166.713 C 11.205,166.053 12.025,165.723 13.007,165.723 C 14.46,165.723 15.501,166.295 16.13,167.44 L 14.569,168.237 z M 21.354,168.237 C 21.059,167.594 20.626,167.273 20.056,167.273 C 18.995,167.273 18.464,167.974 18.464,169.374 C 18.464,170.775 18.995,171.476 20.056,171.476 C 20.744,171.476 21.226,171.135 21.501,170.452 L 22.976,171.22 C 22.289,172.441 21.26,173.052 19.887,173.052 C 18.828,173.052 17.98,172.727 17.343,172.077 C 16.707,171.427 16.387,170.53 16.387,169.387 C 16.387,168.264 16.71,167.373 17.358,166.713 C 18.005,166.053 18.828,165.723 19.829,165.723 C 21.28,165.723 22.319,166.295 22.946,167.44 L 21.354,168.237 z "
             id="path97" />
        </g>
      </g>
      <path
         d="M 89.367,154.639 L 2.195,154.639 C 1.26,154.639 0.5,155.399 0.5,156.334 L 0.5,185.956 C 0.5,186.167 0.671,186.338 0.883,186.338 L 90.68,186.338 C 90.891,186.338 91.063,186.167 91.063,185.956 L 91.063,156.334 C 91.063,155.399 90.302,154.639 89.367,154.639 z M 2.195,155.404 L 89.367,155.404 C 89.88,155.404 90.297,155.821 90.297,156.334 C 90.297,156.334 90.297,168.248 90.297,176.87 L 27.991,176.87 C 25.707,180.999 21.307,183.803 16.259,183.803 C 11.207,183.803 6.809,181.002 4.526,176.87 L 1.266,176.87 C 1.266,168.248 1.266,156.334 1.266,156.334 C 1.266,155.821 1.683,155.404 2.195,155.404 z "
         id="path99" />
      <g
         id="g334"
         style="enable-background:new">
        <path
           style="fill:#ffffff"
           d="M 45.779,179.355 C 46.017,179.355 46.235,179.376 46.431,179.418 C 46.627,179.459 46.796,179.528 46.936,179.625 C 47.076,179.72 47.185,179.848 47.262,180.006 C 47.339,180.164 47.378,180.36 47.378,180.593 C 47.378,180.845 47.32,181.054 47.206,181.223 C 47.092,181.391 46.922,181.528 46.698,181.636 C 47.007,181.724 47.238,181.879 47.39,182.102 C 47.542,182.323 47.619,182.591 47.619,182.903 C 47.619,183.155 47.57,183.373 47.472,183.558 C 47.374,183.743 47.242,183.893 47.076,184.009 C 46.91,184.126 46.721,184.213 46.508,184.268 C 46.295,184.325 46.077,184.353 45.852,184.353 L 43.425,184.353 L 43.425,179.355 L 45.779,179.355 L 45.779,179.355 z M 45.638,181.377 C 45.834,181.377 45.995,181.33 46.122,181.236 C 46.248,181.144 46.311,180.993 46.311,180.783 C 46.311,180.666 46.29,180.571 46.248,180.496 C 46.206,180.421 46.15,180.364 46.08,180.322 C 46.01,180.28 45.929,180.25 45.838,180.234 C 45.747,180.218 45.652,180.211 45.554,180.211 L 44.525,180.211 L 44.525,181.377 L 45.638,181.377 z M 45.703,183.498 C 45.811,183.498 45.913,183.488 46.011,183.466 C 46.11,183.445 46.197,183.41 46.271,183.362 C 46.346,183.312 46.405,183.246 46.45,183.161 C 46.494,183.078 46.517,182.971 46.517,182.84 C 46.517,182.584 46.444,182.401 46.299,182.291 C 46.154,182.181 45.962,182.127 45.724,182.127 L 44.525,182.127 L 44.525,183.498 L 45.703,183.498 z "
           id="path102" />
        <polygon
           id="path338"
           style="fill:#ffffff"
           points="47.812,179.355 49.045,179.355 50.215,181.329 51.378,179.355 52.604,179.355 50.748,182.435 50.748,184.354 49.646,184.354 49.646,182.407 47.812,179.355 " />
      </g>
      <g
         id="g340"
         style="enable-background:new">
        <polygon
           id="path342"
           style="fill:#ffffff"
           points="65.73,179.355 67.819,182.708 67.831,182.708 67.831,179.355 68.862,179.355 68.862,184.354 67.763,184.354 65.683,181.006 65.668,181.006 65.668,184.354 64.637,184.354 64.637,179.355 65.73,179.355 " />
        <path
           id="path344"
           style="fill:#ffffff"
           d="M 73.034,180.687 C 72.969,180.582 72.887,180.489 72.789,180.41 C 72.691,180.331 72.58,180.268 72.456,180.224 C 72.332,180.18 72.203,180.158 72.068,180.158 C 71.82,180.158 71.61,180.205 71.437,180.302 C 71.264,180.397 71.125,180.525 71.018,180.686 C 70.91,180.847 70.832,181.03 70.783,181.235 C 70.734,181.44 70.71,181.652 70.71,181.872 C 70.71,182.081 70.734,182.287 70.783,182.484 C 70.832,182.682 70.91,182.86 71.018,183.019 C 71.125,183.179 71.265,183.305 71.437,183.401 C 71.61,183.496 71.82,183.545 72.068,183.545 C 72.403,183.545 72.667,183.442 72.855,183.236 C 73.044,183.031 73.16,182.76 73.202,182.424 L 74.266,182.424 C 74.238,182.736 74.165,183.019 74.049,183.271 C 73.932,183.524 73.778,183.738 73.587,183.917 C 73.396,184.094 73.171,184.23 72.915,184.324 C 72.659,184.418 72.376,184.465 72.068,184.465 C 71.685,184.465 71.34,184.398 71.035,184.264 C 70.729,184.132 70.471,183.948 70.261,183.715 C 70.05,183.482 69.889,183.207 69.777,182.892 C 69.665,182.577 69.609,182.237 69.609,181.872 C 69.609,181.498 69.665,181.153 69.777,180.832 C 69.889,180.513 70.05,180.233 70.261,179.996 C 70.471,179.757 70.73,179.571 71.035,179.435 C 71.341,179.3 71.685,179.233 72.068,179.233 C 72.343,179.233 72.603,179.273 72.849,179.352 C 73.094,179.431 73.313,179.547 73.507,179.699 C 73.701,179.851 73.861,180.039 73.986,180.263 C 74.111,180.487 74.191,180.745 74.224,181.034 L 73.16,181.034 C 73.142,180.907 73.1,180.791 73.034,180.687 z " />
      </g>
      <g
         id="g6379_1_">
        <path
           id="path6381_1_"
           style="fill:#ffffff"
           d="M 77.266,165.945 C 77.269,170.097 73.907,173.465 69.754,173.468 C 65.603,173.47 62.235,170.107 62.232,165.956 C 62.232,165.952 62.232,165.948 62.232,165.945 C 62.229,161.793 65.592,158.426 69.743,158.423 C 73.895,158.421 77.263,161.783 77.265,165.934 C 77.266,165.938 77.266,165.942 77.266,165.945 z " />
        <path
           d="M 69.738,157.194 C 72.191,157.194 74.265,158.04 75.959,159.732 C 77.653,161.424 78.501,163.496 78.501,165.946 C 78.501,168.397 77.668,170.446 76.003,172.095 C 74.235,173.831 72.148,174.698 69.738,174.698 C 67.357,174.698 65.305,173.837 63.582,172.115 C 61.858,170.395 60.997,168.338 60.997,165.946 C 60.997,163.554 61.858,161.482 63.582,159.732 C 65.261,158.04 67.313,157.194 69.738,157.194 z M 62.966,163.594 C 62.705,164.333 62.575,165.116 62.575,165.945 C 62.575,167.885 63.283,169.562 64.699,170.977 C 66.116,172.391 67.802,173.099 69.76,173.099 C 71.717,173.099 73.418,172.385 74.864,170.954 C 75.348,170.487 75.747,169.976 76.06,169.424 L 72.76,167.955 C 72.536,169.065 71.548,169.815 70.352,169.903 L 70.352,171.253 L 69.347,171.253 L 69.347,169.903 C 68.365,169.892 67.415,169.49 66.691,168.855 L 67.896,167.64 C 68.477,168.186 69.058,168.432 69.85,168.432 C 70.363,168.432 70.933,168.231 70.933,167.562 C 70.933,167.325 70.841,167.161 70.697,167.037 L 69.863,166.665 L 68.823,166.203 C 68.31,165.974 67.875,165.781 67.437,165.586 L 62.966,163.594 z M 69.76,158.769 C 67.774,158.769 66.094,159.469 64.722,160.87 C 64.347,161.247 64.023,161.641 63.746,162.052 L 67.092,163.542 C 67.394,162.614 68.276,162.05 69.346,161.988 L 69.346,160.639 L 70.351,160.639 L 70.351,161.988 C 71.043,162.022 71.802,162.211 72.55,162.791 L 71.4,163.973 C 70.976,163.672 70.441,163.46 69.904,163.46 C 69.469,163.46 68.855,163.593 68.855,164.139 C 68.855,164.223 68.882,164.296 68.934,164.361 L 70.053,164.859 L 70.81,165.197 C 71.294,165.413 71.757,165.618 72.216,165.822 L 76.7,167.819 C 76.848,167.232 76.923,166.607 76.923,165.945 C 76.923,163.946 76.222,162.255 74.82,160.869 C 73.432,159.469 71.745,158.769 69.76,158.769 z "
           id="path110" />
      </g>
      <g
         id="g349">
        <circle
           id="circle351"
           style="fill:#ffffff"
           cx="48.316002"
           cy="166.12399"
           r="8.1049995"
           sodipodi:cx="48.316002"
           sodipodi:cy="166.12399"
           sodipodi:rx="8.1049995"
           sodipodi:ry="8.1049995" />
        <g
           id="g353">
          <path
             id="path355"
             d="M 50.663,163.779 C 50.663,163.467 50.41,163.214 50.098,163.214 L 46.518,163.214 C 46.206,163.214 45.953,163.467 45.953,163.779 L 45.953,167.359 L 46.952,167.359 L 46.952,171.598 L 49.665,171.598 L 49.665,167.359 L 50.664,167.359 L 50.664,163.779 L 50.663,163.779 z " />
          <circle
             id="circle357"
             cx="48.306999"
             cy="161.51801"
             r="1.224"
             sodipodi:cx="48.306999"
             sodipodi:cy="161.51801"
             sodipodi:rx="1.224"
             sodipodi:ry="1.224" />
        </g>
        <path
           d="M 48.296,157.194 C 45.873,157.194 43.819,158.04 42.14,159.732 C 40.417,161.482 39.556,163.554 39.556,165.945 C 39.556,168.337 40.417,170.394 42.14,172.115 C 43.863,173.836 45.916,174.697 48.296,174.697 C 50.706,174.697 52.795,173.83 54.562,172.093 C 56.227,170.445 57.059,168.396 57.059,165.945 C 57.059,163.495 56.212,161.424 54.518,159.732 C 52.824,158.04 50.75,157.194 48.296,157.194 z M 48.318,158.769 C 50.304,158.769 51.991,159.47 53.378,160.87 C 54.781,162.256 55.482,163.948 55.482,165.946 C 55.482,167.959 54.796,169.629 53.422,170.956 C 51.976,172.386 50.275,173.1 48.318,173.1 C 46.361,173.1 44.674,172.393 43.257,170.978 C 41.84,169.563 41.132,167.886 41.132,165.946 C 41.132,164.006 41.848,162.314 43.279,160.87 C 44.652,159.47 46.333,158.769 48.318,158.769 z "
           id="path117" />
      </g>
    </g>
  </g>
</svg>
