<?xml version="1.0" encoding="UTF-8" standalone="no"?>
<!-- Created with Inkscape (http://www.inkscape.org/) -->
<svg
   xmlns:dc="http://purl.org/dc/elements/1.1/"
   xmlns:cc="http://web.resource.org/cc/"
   xmlns:rdf="http://www.w3.org/1999/02/22-rdf-syntax-ns#"
   xmlns:svg="http://www.w3.org/2000/svg"
   xmlns="http://www.w3.org/2000/svg"
   xmlns:sodipodi="http://sodipodi.sourceforge.net/DTD/sodipodi-0.dtd"
   xmlns:inkscape="http://www.inkscape.org/namespaces/inkscape"
   width="142.73199"
   height="163.41451"
   id="svg3565"
   sodipodi:version="0.32"
   inkscape:version="0.45.1"
   version="1.0"
   sodipodi:docbase="/Users/robmyers/Desktop/cc-ironies/final"
   sodipodi:docname="two_plus_two.svg"
   inkscape:output_extension="org.inkscape.output.svg.inkscape">
  <defs
     id="defs3" />
  <sodipodi:namedview
     inkscape:document-units="mm"
     id="base"
     pagecolor="#ffffff"
     bordercolor="#666666"
     borderopacity="1.0"
     inkscape:pageopacity="0.0"
     inkscape:pageshadow="2"
     inkscape:zoom="2.02855"
     inkscape:cx="71.365997"
     inkscape:cy="93.169998"
     inkscape:current-layer="layer1"
     inkscape:window-width="697"
     inkscape:window-height="581"
     inkscape:window-x="20"
     inkscape:window-y="42" />
  <metadata
     id="metadata4">
    <rdf:RDF>
      <cc:Work
         rdf:about="">
        <dc:format>image/svg+xml</dc:format>
        <dc:type
           rdf:resource="http://purl.org/dc/dcmitype/StillImage" />
      </cc:Work>
    </rdf:RDF>
  </metadata>
  <g
     inkscape:label="Layer 1"
     inkscape:groupmode="layer"
     id="layer1"
     transform="translate(-348.634,-4.9064684)">
    <rect
       x="349.134"
       y="5.4064684"
       style="fill:#ffffff;stroke:#000000"
       width="141.73199"
       height="141.73199"
       id="rect9" />
    <g
       id="g11"
       transform="matrix(0.5,0,0,0.5,348.384,75.150968)">
      <path
         id="path3817_6_"
         style="fill:#aab2ab"
         d="M 3.071,154.968 L 88.619,155.12 C 89.814,155.12 90.883,154.943 90.883,157.506 L 90.778,185.68 L 0.913,185.68 L 0.913,157.401 C 0.913,156.138 1.035,154.968 3.071,154.968 z " />
      <g
         id="g5908_6_">
        <path
           id="path5906_6_"
           style="fill:#ffffff"
           d="M 26.554,169.383 C 26.557,175.066 21.952,179.675 16.27,179.68 C 10.587,179.683 5.977,175.079 5.974,169.396 C 5.974,169.392 5.974,169.388 5.974,169.383 C 5.971,163.699 10.575,159.091 16.258,159.087 C 21.942,159.084 26.551,163.688 26.555,169.371 C 26.554,169.375 26.554,169.379 26.554,169.383 z " />
        <g
           id="g5706_6_">
          <path
             d="M 24.628,161.002 C 26.91,163.283 28.051,166.078 28.051,169.383 C 28.051,172.69 26.929,175.454 24.687,177.677 C 22.306,180.019 19.494,181.189 16.248,181.189 C 13.042,181.189 10.277,180.029 7.956,177.706 C 5.635,175.386 4.474,172.611 4.474,169.384 C 4.474,166.158 5.635,163.363 7.956,161.003 C 10.218,158.72 12.983,157.579 16.248,157.579 C 19.554,157.578 22.347,158.719 24.628,161.002 z M 9.493,162.537 C 7.564,164.486 6.599,166.769 6.599,169.387 C 6.599,172.005 7.554,174.268 9.462,176.177 C 11.372,178.086 13.645,179.041 16.282,179.041 C 18.92,179.041 21.212,178.076 23.16,176.147 C 25.01,174.355 25.936,172.103 25.936,169.386 C 25.936,166.69 24.996,164.402 23.116,162.522 C 21.236,160.644 18.959,159.703 16.282,159.703 C 13.605,159.703 11.343,160.648 9.493,162.537 z M 14.569,168.235 C 14.275,167.592 13.833,167.271 13.245,167.271 C 12.204,167.271 11.684,167.971 11.684,169.372 C 11.684,170.773 12.204,171.473 13.245,171.473 C 13.933,171.473 14.423,171.132 14.718,170.449 L 16.16,171.217 C 15.472,172.438 14.441,173.049 13.066,173.049 C 12.005,173.049 11.156,172.725 10.518,172.074 C 9.879,171.424 9.56,170.526 9.56,169.384 C 9.56,168.261 9.889,167.37 10.547,166.709 C 11.205,166.049 12.025,165.72 13.007,165.72 C 14.46,165.72 15.501,166.292 16.13,167.437 L 14.569,168.235 z M 21.354,168.235 C 21.059,167.592 20.626,167.271 20.056,167.271 C 18.995,167.271 18.464,167.971 18.464,169.372 C 18.464,170.773 18.995,171.473 20.056,171.473 C 20.744,171.473 21.226,171.132 21.501,170.449 L 22.976,171.217 C 22.289,172.438 21.26,173.049 19.887,173.049 C 18.828,173.049 17.98,172.725 17.343,172.074 C 16.707,171.424 16.387,170.526 16.387,169.384 C 16.387,168.261 16.71,167.37 17.358,166.709 C 18.005,166.049 18.828,165.72 19.829,165.72 C 21.28,165.72 22.319,166.292 22.946,167.437 L 21.354,168.235 z "
             id="path17" />
        </g>
      </g>
      <g
         id="g85">
        <circle
           id="circle87"
           style="fill:#ffffff"
           cx="48.317001"
           cy="166.09399"
           r="8.1049995"
           sodipodi:cx="48.317001"
           sodipodi:cy="166.09399"
           sodipodi:rx="8.1049995"
           sodipodi:ry="8.1049995" />
        <g
           id="g89">
          <path
             id="path91"
             d="M 50.663,163.749 C 50.663,163.436 50.409,163.184 50.098,163.184 L 46.519,163.184 C 46.207,163.184 45.953,163.436 45.953,163.749 L 45.953,167.328 L 46.952,167.328 L 46.952,171.568 L 49.665,171.568 L 49.665,167.328 L 50.664,167.328 L 50.664,163.749 L 50.663,163.749 z " />
          <circle
             id="circle93"
             cx="48.306999"
             cy="161.48801"
             r="1.224"
             sodipodi:cx="48.306999"
             sodipodi:cy="161.48801"
             sodipodi:rx="1.224"
             sodipodi:ry="1.224" />
        </g>
        <path
           d="M 48.295,157.165 C 45.872,157.165 43.819,158.01 42.14,159.703 C 40.417,161.453 39.556,163.525 39.556,165.916 C 39.556,168.307 40.417,170.365 42.14,172.086 C 43.863,173.807 45.916,174.668 48.295,174.668 C 50.705,174.668 52.795,173.799 54.561,172.064 C 56.227,170.417 57.059,168.367 57.059,165.917 C 57.059,163.467 56.211,161.396 54.518,159.704 C 52.825,158.01 50.75,157.165 48.295,157.165 z M 48.319,158.739 C 50.305,158.739 51.991,159.439 53.379,160.84 C 54.782,162.225 55.483,163.918 55.483,165.916 C 55.483,167.929 54.796,169.599 53.423,170.926 C 51.978,172.355 50.277,173.07 48.319,173.07 C 46.361,173.07 44.674,172.362 43.258,170.948 C 41.841,169.533 41.133,167.856 41.133,165.916 C 41.133,163.976 41.849,162.284 43.28,160.84 C 44.652,159.439 46.333,158.739 48.319,158.739 z "
           id="path24" />
      </g>
      <path
         d="M 89.368,154.638 L 2.195,154.638 C 1.26,154.638 0.5,155.399 0.5,156.334 L 0.5,185.956 C 0.5,186.168 0.671,186.34 0.883,186.34 L 90.68,186.34 C 90.891,186.34 91.063,186.168 91.063,185.956 L 91.063,156.334 C 91.063,155.399 90.301,154.638 89.368,154.638 z M 2.195,155.404 L 89.367,155.404 C 89.879,155.404 90.297,155.821 90.297,156.334 C 90.297,156.334 90.297,168.246 90.297,176.868 L 27.991,176.868 C 25.707,180.998 21.307,183.801 16.259,183.801 C 11.207,183.801 6.809,181 4.526,176.868 L 1.266,176.868 C 1.266,168.246 1.266,156.334 1.266,156.334 C 1.266,155.821 1.683,155.404 2.195,155.404 z "
         id="path26" />
      <g
         id="g99"
         style="enable-background:new">
        <path
           style="fill:#ffffff"
           d="M 45.779,179.355 C 46.017,179.355 46.235,179.376 46.43,179.417 C 46.627,179.46 46.795,179.528 46.936,179.624 C 47.077,179.72 47.185,179.847 47.262,180.005 C 47.338,180.165 47.377,180.359 47.377,180.594 C 47.377,180.846 47.32,181.056 47.205,181.224 C 47.091,181.391 46.921,181.529 46.697,181.636 C 47.006,181.725 47.236,181.88 47.388,182.101 C 47.54,182.324 47.617,182.591 47.617,182.904 C 47.617,183.156 47.568,183.375 47.471,183.559 C 47.372,183.744 47.241,183.893 47.075,184.01 C 46.909,184.127 46.72,184.214 46.507,184.269 C 46.294,184.326 46.075,184.353 45.85,184.353 L 43.423,184.353 L 43.423,179.355 L 45.779,179.355 z M 45.638,181.376 C 45.834,181.376 45.995,181.331 46.122,181.237 C 46.248,181.143 46.311,180.992 46.311,180.782 C 46.311,180.667 46.29,180.571 46.248,180.497 C 46.206,180.423 46.15,180.364 46.08,180.323 C 46.01,180.28 45.929,180.251 45.838,180.235 C 45.747,180.218 45.652,180.21 45.554,180.21 L 44.525,180.21 L 44.525,181.376 L 45.638,181.376 L 45.638,181.376 z M 45.703,183.498 C 45.811,183.498 45.913,183.488 46.011,183.467 C 46.11,183.446 46.197,183.412 46.271,183.362 C 46.346,183.314 46.405,183.247 46.45,183.163 C 46.495,183.08 46.516,182.974 46.516,182.841 C 46.516,182.585 46.444,182.402 46.299,182.294 C 46.154,182.184 45.962,182.128 45.724,182.128 L 44.525,182.128 L 44.525,183.499 L 45.703,183.499 L 45.703,183.498 z "
           id="path29" />
        <polygon
           id="path103"
           style="fill:#ffffff"
           points="47.812,179.355 49.045,179.355 50.215,181.33 51.377,179.355 52.604,179.355 50.749,182.435 50.749,184.353 49.647,184.353 49.647,182.408 47.812,179.355 " />
      </g>
      <g
         id="g105"
         style="enable-background:new">
        <polygon
           id="path107"
           style="fill:#ffffff"
           points="65.352,179.355 67.441,182.708 67.453,182.708 67.453,179.355 68.484,179.355 68.484,184.353 67.385,184.353 65.305,181.007 65.291,181.007 65.291,184.353 64.259,184.353 64.259,179.355 65.352,179.355 " />
        <path
           style="fill:#ffffff"
           d="M 71.606,179.355 C 71.928,179.355 72.228,179.406 72.506,179.509 C 72.784,179.612 73.025,179.767 73.229,179.972 C 73.432,180.177 73.59,180.433 73.705,180.741 C 73.819,181.051 73.878,181.412 73.878,181.826 C 73.878,182.191 73.831,182.527 73.737,182.834 C 73.643,183.144 73.503,183.408 73.313,183.633 C 73.123,183.858 72.887,184.033 72.604,184.162 C 72.322,184.291 71.989,184.353 71.606,184.353 L 69.448,184.353 L 69.448,179.355 L 71.606,179.355 L 71.606,179.355 z M 71.528,183.427 C 71.688,183.427 71.841,183.402 71.991,183.351 C 72.141,183.3 72.274,183.214 72.389,183.096 C 72.506,182.976 72.6,182.822 72.67,182.63 C 72.74,182.44 72.775,182.206 72.775,181.931 C 72.775,181.679 72.75,181.452 72.701,181.249 C 72.652,181.046 72.572,180.872 72.459,180.728 C 72.348,180.582 72.199,180.473 72.016,180.395 C 71.83,180.319 71.604,180.28 71.332,180.28 L 70.549,180.28 L 70.549,183.426 L 71.528,183.426 L 71.528,183.427 z "
           id="path34" />
      </g>
      <g
         id="g6501">
        <path
           id="path6503"
           style="fill:#ffffff"
           d="M 77.852,165.945 C 77.854,170.357 74.28,173.937 69.868,173.939 C 65.458,173.943 61.878,170.369 61.874,165.957 C 61.874,165.953 61.874,165.949 61.874,165.946 C 61.872,161.534 65.446,157.955 69.858,157.952 C 74.27,157.948 77.848,161.522 77.852,165.934 C 77.852,165.938 77.852,165.941 77.852,165.945 z " />
        <g
           id="g6505">
          <path
             d="M 69.738,157.194 C 67.313,157.194 65.261,158.039 63.583,159.731 C 61.858,161.481 60.997,163.553 60.997,165.945 C 60.997,168.337 61.858,170.393 63.583,172.115 C 65.306,173.837 67.356,174.696 69.738,174.696 C 72.147,174.696 74.235,173.827 76.003,172.092 C 77.669,170.444 78.501,168.394 78.501,165.944 C 78.501,163.493 77.653,161.422 75.96,159.73 C 74.264,158.039 72.19,157.194 69.738,157.194 z M 69.76,158.768 C 71.744,158.768 73.432,159.469 74.821,160.87 C 76.221,162.255 76.923,163.946 76.923,165.946 C 76.923,167.959 76.237,169.629 74.864,170.956 C 73.418,172.386 71.716,173.1 69.76,173.1 C 67.801,173.1 66.115,172.393 64.698,170.977 C 63.281,169.562 62.574,167.885 62.574,165.946 C 62.574,164.005 63.289,162.314 64.72,160.87 C 66.094,159.469 67.774,158.768 69.76,158.768 z "
             id="path39" />
          <g
             id="g6509">
            <path
               d="M 73.055,163.871 L 66.694,163.871 L 66.694,165.378 L 73.055,165.378 L 73.055,163.871 z M 73.055,166.684 L 66.694,166.684 L 66.694,168.191 L 73.055,168.191 L 73.055,166.684 z "
               id="path42" />
          </g>
        </g>
      </g>
    </g>
    <g
       id="g225"
       transform="translate(348.634,4.9064683)">
      <path
         id="path227"
         d="M 35.623,83.005 L 19.656,83.005 L 19.656,82.56 C 24.606,76.74 27.597,72.824 28.629,70.813 C 29.66,68.801 30.176,66.835 30.176,64.917 C 30.176,63.519 29.74,62.357 28.87,61.431 C 28,60.505 26.935,60.042 25.677,60.042 C 23.615,60.042 22.015,61.063 20.877,63.104 L 20.138,62.846 C 20.858,60.3 21.951,58.417 23.419,57.197 C 24.886,55.977 26.579,55.367 28.5,55.367 C 29.872,55.367 31.126,55.686 32.261,56.323 C 33.394,56.961 34.282,57.833 34.921,58.942 C 35.562,60.05 35.882,61.089 35.882,62.058 C 35.882,63.824 35.387,65.616 34.398,67.434 C 33.046,69.891 30.097,73.317 25.55,77.71 L 31.422,77.71 C 32.864,77.71 33.803,77.649 34.237,77.529 C 34.671,77.409 35.028,77.204 35.31,76.916 C 35.59,76.628 35.957,76.022 36.412,75.098 L 37.119,75.098 L 35.623,83.005 z " />
      <path
         id="path229"
         d="M 39.842,68.086 L 49.467,68.086 L 49.467,58.529 L 52.011,58.529 L 52.011,68.086 L 61.636,68.086 L 61.636,70.767 L 52.011,70.767 L 52.011,80.255 L 49.467,80.255 L 49.467,70.767 L 39.842,70.767 L 39.842,68.086 z " />
      <path
         id="path231"
         d="M 79.4,83.005 L 63.435,83.005 L 63.435,82.56 C 68.385,76.74 71.375,72.824 72.407,70.813 C 73.438,68.801 73.954,66.835 73.954,64.917 C 73.954,63.519 73.518,62.357 72.648,61.431 C 71.778,60.505 70.713,60.042 69.455,60.042 C 67.393,60.042 65.793,61.063 64.655,63.104 L 63.917,62.846 C 64.637,60.3 65.729,58.417 67.197,57.197 C 68.665,55.977 70.357,55.367 72.278,55.367 C 73.651,55.367 74.904,55.686 76.039,56.323 C 77.173,56.961 78.06,57.833 78.7,58.942 C 79.34,60.05 79.66,61.089 79.66,62.058 C 79.66,63.824 79.165,65.616 78.176,67.434 C 76.824,69.891 73.876,73.317 69.328,77.71 L 75.2,77.71 C 76.642,77.71 77.582,77.649 78.015,77.529 C 78.448,77.409 78.807,77.204 79.088,76.916 C 79.368,76.628 79.735,76.022 80.191,75.098 L 80.897,75.098 L 79.4,83.005 z " />
      <path
         id="path233"
         d="M 83.619,64.992 L 105.482,64.992 L 105.482,67.536 L 83.619,67.536 L 83.619,64.992 z M 83.619,71.454 L 105.482,71.454 L 105.482,73.998 L 83.619,73.998 L 83.619,71.454 z " />
      <path
         id="path235"
         d="M 112.437,55.917 L 125.225,55.917 L 123.231,61.073 L 112.43,61.073 L 111.473,63.755 C 116.074,63.928 119.615,65.07 122.096,67.183 C 124.135,68.923 125.156,71.088 125.156,73.68 C 125.156,75.34 124.681,76.964 123.734,78.552 C 122.786,80.14 121.449,81.359 119.725,82.21 C 117.999,83.061 116.108,83.485 114.05,83.485 C 111.83,83.485 110.126,83.071 108.937,82.243 C 108.107,81.655 107.694,80.987 107.694,80.239 C 107.694,79.665 107.911,79.156 108.344,78.716 C 108.779,78.276 109.283,78.055 109.859,78.055 C 110.38,78.055 110.908,78.163 111.443,78.378 C 111.978,78.594 112.893,79.16 114.191,80.076 C 115.006,80.643 115.708,81.034 116.296,81.249 C 116.71,81.411 117.178,81.492 117.699,81.492 C 118.795,81.492 119.726,81.094 120.496,80.297 C 121.265,79.499 121.649,78.542 121.649,77.425 C 121.649,75.101 120.469,73.212 118.111,71.759 C 115.752,70.305 112.776,69.578 109.184,69.578 C 108.822,69.578 108.279,69.585 107.555,69.599 L 112.437,55.917 z " />
    </g>
  </g>
</svg>
